<svg xmlns="http://www.w3.org/2000/svg" xmlns:xlink="http://www.w3.org/1999/xlink" viewBox="0 0 4680 3120"><defs><style>.cls-1{fill:none;}.cls-2{fill:#913d1c;}.cls-3,.cls-5{fill:#fff;}.cls-3{opacity:0;}.cls-4{fill:#e7e6f6;}.cls-6{fill:#8f8fc1;}.cls-7{fill:#cfcdf1;}.cls-8{fill:#fab953;}.cls-9{opacity:0.7;}.cls-10{fill:#b4b2e3;}.cls-11{fill:#d82762;}.cls-12{fill:#ffc1af;}.cls-13{fill:#080849;}.cls-14{fill:#2b39ff;}.cls-15{clip-path:url(#clip-path);}.cls-16{opacity:0.5;}.cls-17{clip-path:url(#clip-path-2);}.cls-18{fill:#fc966a;}.cls-19{clip-path:url(#clip-path-4);}.cls-20{fill:#e5e5e5;}.cls-21{fill:#2336e5;}.cls-22{clip-path:url(#clip-path-5);}.cls-23{opacity:0.4;}.cls-24{fill:#6074ef;}.cls-25{clip-path:url(#clip-path-7);}.cls-26{clip-path:url(#clip-path-9);}.cls-27{fill:#bc4520;}.cls-28{clip-path:url(#clip-path-11);}.cls-29{opacity:0.2;}.cls-30{fill:#e26f50;}.cls-31{clip-path:url(#clip-path-12);}.cls-32{fill:#f46938;}.cls-33{clip-path:url(#clip-path-14);}.cls-34{fill:#979edd;}.cls-35{fill:#2a3cfd;}.cls-36{fill:#060946;}.cls-37{opacity:0.3;}.cls-38{clip-path:url(#clip-path-15);}.cls-39{fill:#1f32a0;}.cls-40{clip-path:url(#clip-path-16);}.cls-41{clip-path:url(#clip-path-17);}.cls-42{clip-path:url(#clip-path-18);}.cls-43{clip-path:url(#clip-path-19);}.cls-44{fill:#6b2210;}.cls-45{fill:#752912;}.cls-46{clip-path:url(#clip-path-20);}.cls-47{clip-path:url(#clip-path-21);}.cls-48{fill:#5858a0;}.cls-49{clip-path:url(#clip-path-22);}</style><clipPath id="clip-path"><path class="cls-1" d="M3306.81,2503.2l-176.26,76.22-138.08-426a68.2,68.2,0,0,1-3-14.83l-26.94-186.1-.93-6.39L2940,2117.33l23.82,485.91L2849.39,2606l-80.89,2s-14.29-431.12-14.29-524,57.16-431.12,57.16-431.12l307.27-16.68,66.69,469.24Z"/></clipPath><clipPath id="clip-path-2"><path class="cls-1" d="M2836.36,1030s31.67-13.72,40.11-36.94S2898.64,953,2889.14,953c-6.07,0-12.14,7.75-15.73,13.35a1.09,1.09,0,0,1-2-.79c2.47-13,7.49-42.39,5.06-53.73-3.16-14.77-17.94,23.22-17.94,23.22s11.61-35.88,3.17-42.22S2843.75,934,2843.75,934s3.17-41.17-2.11-43.28-14.78,45.39-14.78,45.39-4.22-29.55-8.44-29.55-12.67,54.88-12.67,54.88l-29.71,34S2795.2,1044.82,2836.36,1030Z"/></clipPath><clipPath id="clip-path-4"><path class="cls-1" d="M2898.31,1301.52s-38.11,40.5-46.44,106-11.91,250.1-11.91,250.1,13.1,53.59,66.69,51.21,109.57-39.3,140.53-39.3-16.67-356.1-16.67-356.1Z"/></clipPath><clipPath id="clip-path-5"><path class="cls-1" d="M3183.79,1609.46c19.88,43.21,43.11,96.39,44.42,136.29-52.4-70.27-203.66,32.16-203.66,32.16s-26.2-96.47-34.53-141.73c-1.88-10.24-2.93-23.36-3.27-38.54-1.16-51.87,5.7-127.88,14-196.08,10.71-88.13,22.62-97.65,22.62-97.65l25-10.72a22.94,22.94,0,0,0,6.08-4.19c25-23,59.43-117.29,59.43-117.29s-42.88-69.08-77.42-145.3c70.27,15.49,100-78.6,100-78.6s140.54,181,140.54,226.28-104.81,232.24-108.38,235.81-11.91,20.25-14.29,38.11,6,67.89,1.19,88.13c-1.6,6.81,5.81,24.54,16.48,47.83C3175.66,1591.9,3179.67,1600.45,3183.79,1609.46Z"/></clipPath><clipPath id="clip-path-7"><path class="cls-1" d="M2827.5,1233.24c-22.94-18-41.54-32.16-41.54-32.16l69.88-163.54-93.7-54s-115.9,173.09-101.61,252.48,103.21,168.33,103.21,168.33,3.16,128.62,1.59,157.21-57.16,138.15-57.16,138.15,100,15.86,120.66,42.87,69.89-77.81,58.77-142.91c-1.55-9-2.48-21.2-2.91-35.42-2.6-88.35,14.41-256.77,26.72-256.77,6.44,0-18.43-21.63-47.68-45.4C2863.73,1262.08,2839.08,1242.31,2827.5,1233.24Z"/></clipPath><clipPath id="clip-path-9"><path class="cls-1" d="M3055.14,1022.89S3023.47,1009.17,3015,986s-22.17-40.11-12.67-40.11c6.07,0,12.14,7.76,15.73,13.36a1.09,1.09,0,0,0,2-.79c-2.47-13.06-7.49-42.4-5.06-53.73,3.16-14.78,17.94,23.22,17.94,23.22s-11.61-35.89-3.16-42.22,17.94,41.16,17.94,41.16-3.17-41.16,2.11-43.27S3064.64,929,3064.64,929s4.22-29.55,8.44-29.55,12.67,54.89,12.67,54.89l29.71,34S3096.3,1037.67,3055.14,1022.89Z"/></clipPath><clipPath id="clip-path-11"><path class="cls-1" d="M3032.06,1150.81c.77-3.08,17-41.59-34.65-56.22s-78.56-2.31-70.86,7.7-23.88-3.08-46.21,14.63-.77,26.19-.77,26.19-28.5,7.7-26.19,27,27,27,27,27l143.25,70.09s42.36-27.73,40-71.63S3032.06,1150.81,3032.06,1150.81Z"/></clipPath><clipPath id="clip-path-12"><path class="cls-1" d="M3009.74,1286.35c-1.14,0-2.22-.07-3.31-.17l6.62,34.8s-23.2,49.17-54,47.64a45.48,45.48,0,0,1-33-16.12c-6.1-7.1-8.55-14-8.27-14.84a17,17,0,0,1,1.17-2.62c2.57-4.86,8.08-11.32,14.94-17.6.73-.7-.72-1.79-1.67-1.84h0a.42.42,0,0,0-.23.05l-.22,0c-3.88,1.1-10.91.74-13.65.72a50.22,50.22,0,0,1-18.5-3.53c-29.8-11.74-46.17-51.09-42.33-89.65a111.91,111.91,0,0,1,8.86-33.59,82.61,82.61,0,0,1,9.62-16.48c39.61,9,56.26-.81,58.31-2.14l-17.5,14.48s29.27,6.14,59.3-5.41c1.24,25.63,18.2,44.14,24.56,50.24-.07,1.19-.16,2.4-.28,3.62,0,.28-.08.54-.1.81a31.71,31.71,0,0,1,18-.43c10.29,2.76,18.2,10.5,20.39,20.17v0a24.27,24.27,0,0,1,.57,5.28C3039,1274.44,3025.89,1286.35,3009.74,1286.35Z"/></clipPath><clipPath id="clip-path-14"><path class="cls-2" d="M2892.15,1269.86a2.77,2.77,0,0,1,3.58-2.35c3.45,1,10.86,2.19,26.37,1.74,26.19-.77,5,29.65-15,22C2892.85,1285.72,2891.65,1275.39,2892.15,1269.86Z"/></clipPath><clipPath id="clip-path-15"><path class="cls-1" d="M1558.63,2624.68l9.39-164.36,139.74,4.77-5.68,159.59S1584.18,2677.87,1558.63,2624.68Z"/></clipPath><clipPath id="clip-path-16"><path class="cls-1" d="M1346.5,1686.2s-52.4,214.37-47.64,366.82-52.4,581.18-52.4,581.18l195.32,11.91,59.54-485.91L1491.8,2003l66.69,219.13-52.4,345.38S1549,2508,1599,2529.4s96.07,71.46,105.6,78.6,58.75-340.61,44.46-426.36-116.71-485.91-116.71-485.91Z"/></clipPath><clipPath id="clip-path-17"><path class="cls-1" d="M1847.85,1439.24s-21.77-56.37-20.16-66.92,24.69,19.67,24.69,19.67,35.77-47.83,47.59-58.26-3.85,33.3-3.85,33.3,18.27-23,19.66-13.1c.46,3.29-4.23,17.39-3.58,21.43,13.1-22,11.23,8.11,11.23,8.11s4.67-7.3,8.39-1.06-6,47.58-31.87,79.9S1847.85,1439.24,1847.85,1439.24Z"/></clipPath><clipPath id="clip-path-18"><path class="cls-1" d="M1890.77,1504c-41.88,40.42-56,217.94-215.57,189.36-9.57,12-20.41,42.56-35.73,50-12.33,6-26.32,10.48-41.35,13.77-105,22.84-261.15-13.77-261.15-13.77S1308.39,1448,1339.35,1398c17.13-27.65,54.64-42.94,84.78-51.07,2.78-1.93,5.62-3.83,8.57-5.69,0,0,22.37-37.56,84.46-26S1580,1343.4,1580,1343.4s111.91,4.57,157.16,157c.43,1.48,31.37-24.77,38.11-32.15,25-27.39,63.12-54.79,63.12-54.79S1932.64,1463.54,1890.77,1504Z"/></clipPath><clipPath id="clip-path-19"><path class="cls-1" d="M1459.23,1122.09s-9.1-21.92,32.94-36.22,53.58,9.56,100.73,1.34,89.33,84.71,18.68,117.74a1210.61,1210.61,0,0,0-123.82,66.87s-17.83,19.22-32.61,12.71,2.36-32,2.36-32S1345,1165.88,1459.23,1122.09Z"/></clipPath><clipPath id="clip-path-20"><path class="cls-1" d="M1448.12,1232.15c5.67-14.75,24.09-21.39,41.14-14.84a36.94,36.94,0,0,1,13.66,9.08c7.49,1,14.67.64,15.14-4.54,1-11,4-43.53,17.21-39.46s63.16,4,71.55-20.18c0,0,63.42,164.88-67.26,135.08l2.81,25.2-73.08-.72,5.68-48.52.15-.69a38.72,38.72,0,0,1-6.38-1.84C1451.69,1264.17,1442.46,1246.9,1448.12,1232.15Z"/></clipPath><clipPath id="clip-path-21"><path class="cls-1" d="M1477.83,1190.64s-44.43,11.37-53.76,24.89c7.23,22.11,7.37,31.35,7.37,31.35s41.55-23,57-22.55S1477.83,1190.64,1477.83,1190.64Z"/></clipPath><clipPath id="clip-path-22"><rect class="cls-1" x="1567.52" y="1163.76" width="71.99" height="57.36" rx="6" transform="translate(3270.15 2294.94) rotate(176.85)"/></clipPath></defs><title>03</title><g id="_03" data-name="03"><rect id="_03-2" data-name="03" class="cls-3" width="4680" height="3120"/><path class="cls-4" d="M1382.06,915.18,2411.61,416.77c136.23-65.95,295.5-74.9,434.93-24.44L3149,501.79c159.76,57.83,273.2,186.19,301.34,341l13.46,74.09c14.85,81.66,53.78,157.39,112.74,219.3l112.94,118.57c150.27,157.77,159.74,391.69,23,568.66l-116.15,150.37c-105.66,136.77-281,215.72-461.5,207.81l-874.93-38.33q-28.18-1.23-56.5.35l-475.75,26.62c-241.52,13.51-454.55-126.86-511.91-337.31l-104-381.67C1054.67,1241.92,1166.94,1019.32,1382.06,915.18Z"/><path class="cls-5" d="M3039.68,2026q-10.18,0-20.36-.44L2300,1994c-15.29-.67-30.81-.57-46.15.29l-391.12,21.88a459.79,459.79,0,0,1-143.83-14.4,425,425,0,0,1-125.18-55.69,383.43,383.43,0,0,1-96.67-90.53,352.58,352.58,0,0,1-58.22-118.88l-85.51-313.78a346.28,346.28,0,0,1-10-130.53A366.87,366.87,0,0,1,1380.8,1168a404.92,404.92,0,0,1,79.68-108,444.92,444.92,0,0,1,116.72-81.32L2423.6,569c113-54.71,244.2-62.08,359.89-20.21l248.62,90c64.91,23.49,122.19,61.91,165.66,111.1s72.55,108.52,84,171.49l11.07,60.91c12.08,66.51,43.87,128.32,91.9,178.76l92.85,97.48c124.61,130.83,132.48,324.68,19.13,471.4l-95.49,123.62c-42.92,55.56-100.93,100.83-167.76,130.93A473.87,473.87,0,0,1,3039.68,2026Zm-759.82-38.4c6.83,0,13.66.15,20.44.45l719.29,31.51A467.59,467.59,0,0,0,3231,1979c65.94-29.7,123.17-74.35,165.48-129.13l95.5-123.61c111.48-144.33,103.78-335-18.74-463.6l-92.84-97.48c-48.85-51.29-81.17-114.16-93.47-181.82l-11.07-60.91c-11.25-61.9-39.81-120.2-82.58-168.6S3094,667.55,3030.06,644.4l-248.61-90c-114.18-41.32-243.65-34-355.24,20l-846.4,409.75-1.3-2.7,1.3,2.7a438.78,438.78,0,0,0-115.14,80.22,399,399,0,0,0-78.52,106.35A361.06,361.06,0,0,0,1349.31,1293a340.18,340.18,0,0,0,9.84,128.28l85.51,313.78A346.78,346.78,0,0,0,1501.89,1852a377.65,377.65,0,0,0,95.17,89.11,418.84,418.84,0,0,0,123.42,54.9,453.86,453.86,0,0,0,142,14.21l391.12-21.88C2262.29,1987.82,2271.08,1987.57,2279.86,1987.57Z"/><rect class="cls-6" x="1848.89" y="833.38" width="1109.97" height="809.85" rx="12"/><rect class="cls-7" x="1944.82" y="919.13" width="594.16" height="433.51" rx="12"/><path class="cls-5" d="M2153.37,969.25a139.94,139.94,0,1,0,139.94,139.94A139.94,139.94,0,0,0,2153.37,969.25Zm1.35,246.07a107.49,107.49,0,1,1,107.49-107.49A107.48,107.48,0,0,1,2154.72,1215.32Z"/><rect class="cls-8" x="2614.11" y="1100.15" width="48.59" height="242.95"/><rect class="cls-8" x="2705.9" y="1065.61" width="48.59" height="277.49"/><rect class="cls-8" x="2797.68" y="997.73" width="49.23" height="345.38"/><rect class="cls-5" x="2378.9" y="959.88" width="117.9" height="103.61"/><rect class="cls-5" x="2378.9" y="1104.58" width="117.9" height="103.61"/><g class="cls-9"><rect class="cls-5" x="1907.31" y="1320.72" width="443.01" height="232.22"/></g><path class="cls-10" d="M2675.43,1438.62H2303.88a28.66,28.66,0,0,0-28.59,28.58v253.66a28.67,28.67,0,0,0,28.59,28.59h371.55a28.67,28.67,0,0,0,28.58-28.59V1467.2A28.66,28.66,0,0,0,2675.43,1438.62Zm-112.54,252.47a98.25,98.25,0,1,1,98.25-98.25A98.25,98.25,0,0,1,2562.89,1691.09Z"/><ellipse class="cls-10" cx="1138.88" cy="2706.4" rx="385.91" ry="53.6"/><ellipse class="cls-10" cx="3363.75" cy="2635.94" rx="469.34" ry="83.19"/><path class="cls-11" d="M3080.31,2697.59l80.91-108,9.34-12.44,137.84-39.72,18,50.71,14.72,41.4a9.26,9.26,0,0,1-6.15,12L3090.3,2712A9.27,9.27,0,0,1,3080.31,2697.59Z"/><rect class="cls-5" x="3111.49" y="2633.01" width="41.68" height="10.72" rx="2.25" transform="matrix(0.83, 0.55, -0.55, 0.83, 1975.06, -1290.15)"/><rect class="cls-5" x="3128.17" y="2611.58" width="41.68" height="10.72" rx="2.25" transform="translate(1966.01 -1302.9) rotate(33.48)"/><rect class="cls-5" x="3144.84" y="2588.95" width="41.68" height="10.72" rx="2.25" transform="translate(1956.29 -1315.85) rotate(33.48)"/><polygon class="cls-12" points="3170.56 2577.14 3144.84 2500.02 3271.88 2449.21 3308.4 2537.42 3170.56 2577.14"/><path class="cls-11" d="M2679,2677.33l107.65-81.39,12.41-9.37H2942.5l3.3,53.71,2.68,43.86a9.24,9.24,0,0,1-9.23,9.83H2684.59A9.26,9.26,0,0,1,2679,2677.33Z"/><rect class="cls-5" x="2718.43" y="2623.7" width="41.68" height="10.72" rx="2.25" transform="translate(3395.48 -1110.58) rotate(56.13)"/><rect class="cls-5" x="2742.07" y="2610.34" width="41.68" height="10.72" rx="2.25" transform="translate(3394.85 -1136.13) rotate(56.13)"/><rect class="cls-5" x="2766.17" y="2595.88" width="41.68" height="10.72" rx="2.25" transform="translate(3393.52 -1162.54) rotate(56.13)"/><path class="cls-13" d="M2708.17,1699.71s9.52,57.16,77.8,87.33,49.22-41.29,49.22-41.29S2755.81,1661.61,2708.17,1699.71Z"/><path class="cls-13" d="M3024.55,1777.91s88.14-83.37,145.3-77.42,66.69,36.92,57.17,54.79S3042.42,1833.88,3024.55,1777.91Z"/><path class="cls-14" d="M3306.81,2503.2l-176.26,76.22-138.08-426a68.2,68.2,0,0,1-3-14.83l-26.94-186.1-.93-6.39L2940,2117.33l23.82,485.91L2849.39,2606l-80.89,2s-14.29-431.12-14.29-524,57.16-431.12,57.16-431.12l307.27-16.68,66.69,469.24Z"/><g class="cls-15"><g class="cls-16"><path d="M2719.79,1727s139.33,67.88,157.2,67.88,14.29-257.23,14.29-257.23l-157.2,7.14Z"/></g><g class="cls-16"><path d="M2960.88,1610.64s47.62,205.62,71,194.19,232.49-59.69,232.49-59.69L3127.93,1530Z"/></g><g class="cls-16"><polygon points="2990.12 2181.89 3261.65 2599.9 3065.15 2678.49 2990.12 2181.89"/></g></g><path class="cls-12" d="M2836.36,1030s31.67-13.72,40.11-36.94S2898.64,953,2889.14,953c-6.07,0-12.14,7.75-15.73,13.35a1.09,1.09,0,0,1-2-.79c2.47-13,7.49-42.39,5.06-53.73-3.16-14.77-17.94,23.22-17.94,23.22s11.61-35.88,3.17-42.22S2843.75,934,2843.75,934s3.17-41.17-2.11-43.28-14.78,45.39-14.78,45.39-4.22-29.55-8.44-29.55-12.67,54.88-12.67,54.88l-29.71,34S2795.2,1044.82,2836.36,1030Z"/><g class="cls-17"><path class="cls-18" d="M2840.12,894.54c-.39-3.35-1.12-6.9-3.47-9.32l1,.22c3.33,2.17,5.37,5.92,6.31,9.78a47.46,47.46,0,0,1,.85,11.85c0,3.89-.09,7.77-.13,11.65-.14,11.52-.4,23.54-5.82,33.71C2837.24,933.16,2842.37,913.74,2840.12,894.54Z"/><path class="cls-18" d="M2859.53,892.71c-.46-2.15-1.74-4.67-3.94-4.58l2.09-1.28a36.57,36.57,0,0,1,5.78,10,30,30,0,0,1,2.71,9,32.47,32.47,0,0,1-.82,8.66c-1.31,7.07-2.63,14.16-4.57,21.09-1.4,5-3.66,10.53-8.52,12.42l6.12-33C2859.75,907.71,2861.12,900.07,2859.53,892.71Z"/><path class="cls-18" d="M2871.25,900.65l3,1c4.93,5.06,10.19,11,10,18-.13,4.23-2.25,8.09-3.62,12.09-3.25,9.54-2.17,20.05-4.62,29.83-.59,2.36-2,5.14-4.45,5-2.64-.12-3.69-3.46-3.84-6.1-.95-17.4,6.85-34.33,6.4-51.75C2874,905.83,2873.51,902.56,2871.25,900.65Z"/></g><g class="cls-17"><path class="cls-18" d="M2758.05,995.17c8.77-15.13,22.63-27.52,27.86-44.21,3.11-9.94,2.87-20.56,3.93-30.92s3.8-21.23,11.38-28.37a12.21,12.21,0,0,1,6.9-3.66c4.45-.43,8.36,2.91,11.11,6.43,5.9,7.55,5.79,15.81,6,25.38l1.57,26.32c1.41,20.73,8.51,36.84,6.77,54.67-2.38,24.41-9.72,26-16.67,36.32s.51,13.12-10.87,18.11a18.44,18.44,0,0,1-7.26,2c-5,0-9.17-3.45-12.74-6.88A158.48,158.48,0,0,1,2758.4,1015c-1.86-3.24-3.65-6.72-3.61-10.44C2754.84,1001.21,2756.37,998.07,2758.05,995.17Z"/><path class="cls-18" d="M2890.1,941.92l-8.25,12.46a16.2,16.2,0,0,0-7.31,8.84c-1.21,3.6-1.21,7.76-3.61,10.71-1.4,1.71-3.43,2.76-5.27,4a27.81,27.81,0,0,0-12.06,21.79C2849.08,965.68,2886.53,937.93,2890.1,941.92Z"/></g><path class="cls-13" d="M3136.5,947.81s-11.9-9.53-40.49,10.72-73.84,59.55-59.55,67.88S3115.07,1058.57,3136.5,947.81Z"/><path class="cls-5" d="M2898.31,1301.52s-38.11,40.5-46.44,106-11.91,250.1-11.91,250.1,13.1,53.59,66.69,51.21,109.57-39.3,140.53-39.3-16.67-356.1-16.67-356.1Z"/><g class="cls-19"><path class="cls-20" d="M2908.39,1314.51c2.75,11.79,4.15,24.13,9.72,34.89,9.3,17.95,29.45,28.7,49.63,30.08,7.47.52,15.18-.15,22-3.21,6.26-2.79,11.48-7.43,16.53-12.06,13.41-12.26,26.71-25.27,34.73-41.57s9.93-36.67.56-52.24c-13.24-22-42.93-26.9-68.56-25.65-28.41,1.4-59.74,9.72-74.45,34l-7.59,4.77C2900.91,1290.5,2905.64,1302.71,2908.39,1314.51Z"/><path class="cls-20" d="M3087.11,1389a417.31,417.31,0,0,1-41.15,73.49c-11.32,16.13-24.06,31.72-40.47,42.63-27.28,18.15-62.85,21.48-94.46,12.86s-59.43-28.29-81.71-52.32l-58.15,167.25q2.1,27.79,4.22,55.58c1.33,17.6,3.92,37.53,18.28,47.79,7,5,15.85,6.81,24.41,8.06,34,5,68.55,3.53,102.87,2,31.09-1.33,62.86-2.84,91.76-14.37,60.12-24,96.78-88.43,104.24-152.73S3107.44,1450.44,3087.11,1389Z"/></g><path d="M2920.16,1335.28l-1.22-.24c2.57-4.86,8.08-11.32,14.94-17.6,0,0,27.55-2,41.06-17.89S2963,1343.21,2920.16,1335.28Z"/><path class="cls-21" d="M3183.79,1609.46c19.88,43.21,43.11,96.39,44.42,136.29-52.4-70.27-203.66,32.16-203.66,32.16s-26.2-96.47-34.53-141.73c-1.88-10.24-2.93-23.36-3.27-38.54-1.16-51.87,5.7-127.88,14-196.08,10.71-88.13,22.62-97.65,22.62-97.65l25-10.72a22.94,22.94,0,0,0,6.08-4.19c25-23,59.43-117.29,59.43-117.29s-42.88-69.08-77.42-145.3c70.27,15.49,100-78.6,100-78.6s140.54,181,140.54,226.28-104.81,232.24-108.38,235.81-11.91,20.25-14.29,38.11,6,67.89,1.19,88.13c-1.6,6.81,5.81,24.54,16.48,47.83C3175.66,1591.9,3179.67,1600.45,3183.79,1609.46Z"/><g class="cls-22"><g class="cls-23"><path d="M3224.61,1316.62a326.57,326.57,0,0,1-82.21,88.5c-11.31,8.34-24.56,18.66-23.52,32.69.44,5.78,3.37,11,6.24,16.06l44.94,79c10.37-15.43,12.26-34.84,14.14-53.33,5.12-50.43,14-104.16,48.86-141Z"/></g></g><g class="cls-22"><path class="cls-24" d="M3187.9,1699a146.76,146.76,0,0,0-118.17,25.74c-10.5,7.91-23.48,17.82-35.3,12.06-7.42-3.62-10.82-12.17-13.44-20A683.22,683.22,0,0,1,2988.62,1441l-30.7,56a673.21,673.21,0,0,0,2.8,336.64c2.07,7.71,4.39,15.59,9.3,21.88,8.06,10.28,22,14.55,35,14.08s25.58-5,37.86-9.48L3284.35,1772A146.78,146.78,0,0,0,3187.9,1699Z"/><path class="cls-24" d="M3291.58,1124.12c-3.77-7.55-9.69-15.81-18.13-15.62l-9.5,5.25c-8.64,0-14.35,8.94-17.14,17.12-11.47,33.65-1,73.68,25.44,97.43,4.87,4.37,10.74,8.4,17.29,8.33,7.46-.07,14-5.66,17.24-12.39s3.68-14.43,3.61-21.89A179.2,179.2,0,0,0,3291.58,1124.12Z"/></g><path class="cls-5" d="M3136.8,1182c-13.67,0-24.06-8.63-24.22-8.77a2,2,0,1,1,2.59-3c.95.79,22.73,18.73,43.74-2.28a2,2,0,0,1,2.83,2.83C3153.22,1179.26,3144.49,1182,3136.8,1182Z"/><g class="cls-23"><path d="M3047.18,1405.14l34.54,40.49s-58.17,96.35-95,152c-1.16-51.87,5.7-127.88,14-196.08,10.71-88.13,22.62-97.65,22.62-97.65l25-10.72a22.94,22.94,0,0,0,6.08-4.19c8.86,24.48,24.94,73.29,30.84,119.71C3054.14,1403,3047.49,1405.33,3047.18,1405.14Z"/></g><path class="cls-5" d="M3183.79,1609.46c-31.85,1.45-67.53,12.43-67.53,12.43s-9.82-14.41-8.34-17.86c6-13.91,37.42-18.63,64.12-20.06C3175.66,1591.9,3179.67,1600.45,3183.79,1609.46Z"/><path class="cls-21" d="M2827.5,1233.24c-22.94-18-41.54-32.16-41.54-32.16l69.88-163.54-93.7-54s-115.9,173.09-101.61,252.48,103.21,168.33,103.21,168.33,3.16,128.62,1.59,157.21-57.16,138.15-57.16,138.15,100,15.86,120.66,42.87,69.89-77.81,58.77-142.91c-1.55-9-2.48-21.2-2.91-35.42-2.6-88.35,14.41-256.77,26.72-256.77,6.44,0-18.43-21.63-47.68-45.4C2863.73,1262.08,2839.08,1242.31,2827.5,1233.24Z"/><g class="cls-25"><g class="cls-23"><path d="M2668.73,1295.39c27.43,33.46,57.7,68.79,99.57,79.68,3.07.79,6.3,1.51,8.7,3.58,3.16,2.7,4.18,7.11,4.69,11.23,2.61,21.29-3.77,42.55-10.07,63q-9.37,30.48-18.74,61c-30.38-45-28.16-107.09-62-149.54-4.1-5.14-8.84-10-14.85-12.68Z"/></g></g><g class="cls-25"><path class="cls-24" d="M2907.18,1606.93l-21-137c-19.37,71.63,9.9,156.2-32,217.44-8.4,12.28-21.71,23.64-36.43,21.49-6.9-1-13-4.87-19.06-8.3a182.39,182.39,0,0,0-118.17-21l-7.38,41.33c27.18-6.26,54.09,10.35,75.69,28s43.6,38.1,71.29,41.46c39.2,4.75,74.92-28.47,86.92-66.09S2913.16,1646,2907.18,1606.93Z"/><path class="cls-24" d="M2680.63,1298.91c16.09-38.56,12.93-84.63-8.28-120.63-5.87-10-17.75-20.25-27.57-14.16l-19.29,3q1.49,35.82,6.26,71.39c3.11,23.21,7.55,47,20.38,66.59,2.55,3.89,5.8,7.83,10.34,8.79C2670.82,1315.64,2677.34,1306.79,2680.63,1298.91Z"/></g><g class="cls-23"><path d="M2911.41,1307.48c-12.31,0-29.32,168.42-26.72,256.77-42.8-55-70.15-158.33-70.15-158.33l38.11-28.58-38.11,3.19c4.77-31,34.61-90.65,49.19-118.45C2893,1285.85,2917.85,1307.48,2911.41,1307.48Z"/></g><path class="cls-5" d="M2757.38,1203.09a2,2,0,0,1-1.35-3.47c.48-.45,11.92-10.88,21.86-8.7,4.38,1,7.72,4.12,9.92,9.39a2,2,0,1,1-3.7,1.54c-1.69-4.06-4-6.35-7.07-7-6.58-1.43-15.44,5.1-18.3,7.74A2,2,0,0,1,2757.38,1203.09Z"/><path class="cls-12" d="M3055.14,1022.89S3023.47,1009.17,3015,986s-22.17-40.11-12.67-40.11c6.07,0,12.14,7.76,15.73,13.36a1.09,1.09,0,0,0,2-.79c-2.47-13.06-7.49-42.4-5.06-53.73,3.16-14.78,17.94,23.22,17.94,23.22s-11.61-35.89-3.16-42.22,17.94,41.16,17.94,41.16-3.17-41.16,2.11-43.27S3064.64,929,3064.64,929s4.22-29.55,8.44-29.55,12.67,54.89,12.67,54.89l29.71,34S3096.3,1037.67,3055.14,1022.89Z"/><g class="cls-26"><path class="cls-18" d="M3051.38,887.4c.39-3.36,1.12-6.9,3.47-9.33l-1,.22c-3.33,2.18-5.37,5.92-6.31,9.78a47.5,47.5,0,0,0-.85,11.86c0,3.88.09,7.76.13,11.65.14,11.51.4,23.54,5.82,33.7C3054.26,926,3049.13,906.6,3051.38,887.4Z"/><path class="cls-18" d="M3032,885.57c.46-2.15,1.74-4.67,3.94-4.59l-2.09-1.27a36.42,36.42,0,0,0-5.78,10,29.85,29.85,0,0,0-2.71,9,32.47,32.47,0,0,0,.82,8.66c1.31,7.08,2.63,14.16,4.57,21.09,1.4,5,3.66,10.54,8.52,12.42l-6.12-33C3031.75,900.57,3030.38,892.93,3032,885.57Z"/><path class="cls-18" d="M3020.25,893.5l-3,1c-4.93,5.07-10.19,11-10,18,.13,4.22,2.26,8.08,3.62,12.08,3.25,9.55,2.17,20,4.62,29.83.59,2.36,2,5.14,4.45,5,2.64-.12,3.69-3.46,3.84-6.1.95-17.41-6.85-34.33-6.4-51.76C3017.51,898.68,3018,895.41,3020.25,893.5Z"/></g><g class="cls-26"><path class="cls-18" d="M3133.45,988c-8.77-15.13-22.63-27.51-27.86-44.2-3.11-9.94-2.87-20.57-3.93-30.93s-3.8-21.22-11.38-28.36a12.21,12.21,0,0,0-6.9-3.66c-4.45-.44-8.36,2.9-11.11,6.42-5.9,7.55-5.79,15.81-6,25.39L3064.67,939c-1.41,20.73-8.51,36.84-6.77,54.67,2.38,24.42,9.72,26,16.68,36.33s-.52,13.11,10.86,18.11a18.42,18.42,0,0,0,7.26,1.94c5,0,9.17-3.44,12.74-6.87a158.77,158.77,0,0,0,27.66-35.32c1.86-3.23,3.65-6.71,3.61-10.44C3136.66,994.06,3135.13,990.92,3133.45,988Z"/><path class="cls-18" d="M3001.4,934.77l8.25,12.47a16.22,16.22,0,0,1,7.31,8.83c1.21,3.6,1.21,7.77,3.61,10.71,1.4,1.72,3.43,2.77,5.27,4a27.82,27.82,0,0,1,12.06,21.8C3042.42,958.53,3005,930.79,3001.4,934.77Z"/></g><path class="cls-27" d="M3032.06,1150.81c.77-3.08,17-41.59-34.65-56.22s-78.56-2.31-70.86,7.7-23.88-3.08-46.21,14.63-.77,26.19-.77,26.19-28.5,7.7-26.19,27,27,27,27,27l143.25,70.09s42.36-27.73,40-71.63S3032.06,1150.81,3032.06,1150.81Z"/><g class="cls-28"><g class="cls-29"><path d="M2991.61,1185.73c-2.92,0-6,.25-8.61-1.06-3-1.52-4.66-4.75-6.41-7.62-7.61-12.49-20.45-21.18-34.25-26s-28.6-6.11-43.22-6.32c-13.2-.19-26.56.47-39.22,4.21s-24.67,10.78-32.46,21.44L2847,1212a386.6,386.6,0,0,0,160,79.63c10.48,2.43,23.41,3.64,30.18-4.73,3-3.78,4.09-8.77,4.82-13.57,2.9-19,2.48-39-5.74-56.34S3010.77,1185.8,2991.61,1185.73Z"/></g><path class="cls-30" d="M3056.87,1140.85c-4.87-1.2-11.49-2.85-11.31-7.87a10.8,10.8,0,0,1,1.45-4.2,35.94,35.94,0,0,0-28.38-51.33l-22.67,13a43.18,43.18,0,0,1,20.94,64.67c16.73,2.08,30.17,16.42,34.89,32.59s2,33.71-3.66,49.59c16.69-11.73,31.68-27.92,35.55-47.95S3076.69,1145.7,3056.87,1140.85Z"/></g><path class="cls-12" d="M3009.74,1286.35c-1.14,0-2.22-.07-3.31-.17l6.62,34.8s-23.2,49.17-54,47.64a45.48,45.48,0,0,1-33-16.12c-6.1-7.1-8.55-14-8.27-14.84a17,17,0,0,1,1.17-2.62c2.57-4.86,8.08-11.32,14.94-17.6.73-.7-.72-1.79-1.67-1.84h0a.42.42,0,0,0-.23.05l-.22,0c-3.88,1.1-10.91.74-13.65.72a50.22,50.22,0,0,1-18.5-3.53c-29.8-11.74-46.17-51.09-42.33-89.65a111.91,111.91,0,0,1,8.86-33.59,82.61,82.61,0,0,1,9.62-16.48c39.61,9,56.26-.81,58.31-2.14l-17.5,14.48s29.27,6.14,59.3-5.41c1.24,25.63,18.2,44.14,24.56,50.24-.07,1.19-.16,2.4-.28,3.62,0,.28-.08.54-.1.81a31.71,31.71,0,0,1,18-.43c10.29,2.76,18.2,10.5,20.39,20.17v0a24.27,24.27,0,0,1,.57,5.28C3039,1274.44,3025.89,1286.35,3009.74,1286.35Z"/><g class="cls-31"><path class="cls-18" d="M2917.65,1316.13a75.59,75.59,0,0,0,46.54-9.92c1.2,13.31.15,27.17-5.64,39.22s-16.9,22-30.12,24a19.15,19.15,0,0,1-10.79-1,16.56,16.56,0,0,1-5.83-4.68c-4.46-5.5-5.95-12.93-5.53-20s2.56-13.9,4.69-20.65Z"/></g><g class="cls-31"><path class="cls-18" d="M2842.19,1229.78c21.84,18.79,48,24.87,76.77,23.31s64.7,1.53,88.52-14.69c2.13-1.45,8.82-.56,9.95-2.87,1.85-3.78-8.7-22.51-10.18-26.45l-17.88-47.51c-1.13-3-2.33-6.12-4.67-8.31-2.51-2.36-6-3.34-9.31-4.22-20-5.31-40.31-10.25-61-10s-42,6.06-57.23,20-23.19,36.8-16,56.17Z"/></g><path class="cls-18" d="M3013.62,1261.4a7.34,7.34,0,0,1-4.13,5.31,14.69,14.69,0,0,1-7,1.67,13.53,13.53,0,0,1-7.29-2.12,9.38,9.38,0,0,1-2.89-3,7,7,0,0,1,1-8.6,9.1,9.1,0,0,1,3.52-2.27,13.34,13.34,0,0,1,7.59-.35,14.68,14.68,0,0,1,6.4,3.27A7.36,7.36,0,0,1,3013.62,1261.4Zm0,0a5.33,5.33,0,0,0-.74-3.29,7.45,7.45,0,0,0-2.36-2.41,11.57,11.57,0,0,0-6.3-1.71,12.51,12.51,0,0,0-5.93,1.51,4.52,4.52,0,0,0-1,8,12.41,12.41,0,0,0,5.41,2.86,11.45,11.45,0,0,0,6.53-.19,7.27,7.27,0,0,0,2.85-1.78A5.33,5.33,0,0,0,3013.62,1261.4Z"/><path class="cls-32" d="M2906.2,1222.33s-19.47,22-7.56,27.1c8.77,3.78,10.6-1.27,12.07-5.5S2912.93,1218.61,2906.2,1222.33Z"/><circle class="cls-32" cx="2963.01" cy="1246.53" r="15.31"/><path class="cls-5" d="M2892.15,1269.86a2.77,2.77,0,0,1,3.58-2.35c3.45,1,10.86,2.19,26.37,1.74,26.19-.77,5,29.65-15,22C2892.85,1285.72,2891.65,1275.39,2892.15,1269.86Z"/><path class="cls-2" d="M2892.15,1269.86a2.77,2.77,0,0,1,3.58-2.35c3.45,1,10.86,2.19,26.37,1.74,26.19-.77,5,29.65-15,22C2892.85,1285.72,2891.65,1275.39,2892.15,1269.86Z"/><g class="cls-33"><ellipse class="cls-5" cx="2912.69" cy="1266.34" rx="30.04" ry="14.25"/></g><g class="cls-29"><path d="M3004.34,1154.66a35.5,35.5,0,0,0,3.28-9.13,14.75,14.75,0,0,0-.76-8.59,21.08,21.08,0,0,0-5.46-7.08c-2.36-2.12-5.08-4-7.84-6a26,26,0,0,1,9.71,3.48,23.33,23.33,0,0,1,2.18,1.55c.35.28.7.56,1,.87l1,1a16.64,16.64,0,0,1,3.08,4.66,14.33,14.33,0,0,1,1.12,5.58,15.41,15.41,0,0,1-1,5.43A18.23,18.23,0,0,1,3004.34,1154.66Z"/></g><g class="cls-29"><path d="M2997.41,1160.05a11.63,11.63,0,0,0-.2-5.45,13.87,13.87,0,0,0-2.48-4.68,27.21,27.21,0,0,0-8.45-6.47c-1.59-.87-3.28-1.55-5-2.28-.82-.38-1.71-.64-2.56-1s-1.72-.66-2.59-.9a46,46,0,0,0-10.56-2,65.15,65.15,0,0,0-10.91,0c-3.67.19-7.35.73-11.08,1.12a77.93,77.93,0,0,1-11.39.76,19,19,0,0,1-5.76-1,9.3,9.3,0,0,1-4.55-3.46,9.73,9.73,0,0,0,4.86,2.39,18.75,18.75,0,0,0,5.4.14c1.82-.17,3.64-.46,5.46-.81l5.49-1.07c3.68-.76,7.43-1.38,11.24-1.82a63.91,63.91,0,0,1,11.58-.19,46.47,46.47,0,0,1,11.44,2.46,55.36,55.36,0,0,1,10.44,5,26.44,26.44,0,0,1,8.5,8,14.43,14.43,0,0,1,1.95,5.58A10.84,10.84,0,0,1,2997.41,1160.05Z"/></g><g class="cls-29"><path d="M3017.43,1235.53a128.33,128.33,0,0,0,4-15.79,56.22,56.22,0,0,0,.76-15.7,32.36,32.36,0,0,0-1.71-7.46,25.71,25.71,0,0,0-3.67-6.67,30.46,30.46,0,0,0-2.55-2.92,32.25,32.25,0,0,0-3-2.56,50.23,50.23,0,0,0-6.86-4.35,30,30,0,0,1,7.91,2.69,30.77,30.77,0,0,1,3.66,2.22,26.61,26.61,0,0,1,3.22,2.89,24.12,24.12,0,0,1,4.82,7.28,30.68,30.68,0,0,1,2.16,8.43,43.14,43.14,0,0,1-1.7,16.85A51.89,51.89,0,0,1,3017.43,1235.53Z"/></g><polygon class="cls-13" points="2961.93 1247.57 3022.5 1253.94 3025.94 1207.81 2980.81 1169.78 2961.93 1247.57"/><polygon class="cls-34" points="3021.78 1215.86 3018.97 1253.57 3022.5 1253.94 3025.94 1207.81 2980.81 1169.78 2978.48 1179.37 3021.78 1215.86"/><path class="cls-14" d="M2842.39,1212.84l2.69-33.22a24.93,24.93,0,0,1,26.85-22.83l86.77,7,7.34.6,1.39.11a20.86,20.86,0,0,1,3.55.57,24.88,24.88,0,0,1,19.28,26.28l-2.69,33.22a24.92,24.92,0,0,1-26.85,22.83l-95.52-7.72c-.23,0-.46,0-.69-.08a23.54,23.54,0,0,1-5.89-1.38,25.18,25.18,0,0,1-3.79-1.77,24.52,24.52,0,0,1-6.6-5.52,21.65,21.65,0,0,1-1.79-2.37,23.27,23.27,0,0,1-1.93-3.49A24.39,24.39,0,0,1,2842.39,1212.84Z"/><path class="cls-5" d="M2848.23,1231,2971,1165.11a24.64,24.64,0,0,1,9.16,4.15l-125.31,67.23A24.52,24.52,0,0,1,2848.23,1231Z"/><path class="cls-5" d="M2844.51,1225.11l114.19-61.28,7.34.6-119.6,64.17A23.27,23.27,0,0,1,2844.51,1225.11Z"/><path class="cls-5" d="M2858.62,1238.26l124.26-66.67a24.65,24.65,0,0,1,2.67,3.1l-121,65A23.54,23.54,0,0,1,2858.62,1238.26Z"/><path class="cls-13" d="M2952.17,1163.3a24.92,24.92,0,0,1,22.83,26.85l-2.7,33.23a24.92,24.92,0,0,1-26.85,22.83l15.26,1.24a24.92,24.92,0,0,0,26.85-22.83l2.7-33.23a24.92,24.92,0,0,0-22.83-26.85l-18.24-1.48Z"/><ellipse class="cls-35" cx="3041.35" cy="1232.88" rx="26.67" ry="37.86" transform="translate(-37.1 95.81) rotate(-1.79)"/><path class="cls-34" d="M3032.41,1233.16c-.31-9.69,5-17.72,11.81-17.93s12.6,7.47,12.91,17.16-5,17.72-11.81,17.93S3032.71,1242.86,3032.41,1233.16Z"/><path class="cls-36" d="M3042.54,1270.73a19.19,19.19,0,0,0,3.4-.46c-13.18-2-23.81-17.51-24.41-36.77s9-35.43,22.06-38.22a18.67,18.67,0,0,0-3.43-.24c-14.72.46-26.12,17.78-25.47,38.68S3027.81,1271.19,3042.54,1270.73Z"/><g class="cls-16"><polygon points="2963.82 2603.24 2849.39 2606.03 2893.67 2149.75 2961.55 1924.66 2962.48 1952.48 2961.55 1946.09 2940 2117.33 2963.82 2603.24"/></g><path class="cls-11" d="M1150.19,1615.26a5,5,0,0,1-1.91-9.62l738.13-304.57,2.07,1.08L2417,1578.81l509.57-705.56,2.06-.33,542-85.58,227.77-145.91a5,5,0,1,1,5.4,8.42l-229.54,147-542,85.58L2420,1591.69l-3.84-2L1885.91,1312.1,1152.1,1614.88A5,5,0,0,1,1150.19,1615.26Z"/><g class="cls-37"><circle cx="1143.24" cy="1615.54" r="39.3"/></g><circle class="cls-11" cx="1132.33" cy="1620.98" r="39.3"/><g class="cls-37"><circle cx="1902.04" cy="1311.35" r="46.44"/></g><circle class="cls-11" cx="1886.16" cy="1306.58" r="46.44"/><g class="cls-37"><circle cx="2919.86" cy="900.49" r="58.06"/></g><circle class="cls-11" cx="2936.53" cy="888.58" r="58.06"/><g class="cls-37"><circle cx="3701.09" cy="649.06" r="45.11"/></g><circle class="cls-11" cx="3715.38" cy="644.3" r="45.11"/><path class="cls-13" d="M1506.09,2567.51s-11.91,9.53,28.58,45.26,105.56,28.25,142.12,13.49c45.26-18.26,22.23-42.87,19.06-62.72-5.65-35.28-54-96.07-54-96.07l-88.13,11.91Z"/><path class="cls-8" d="M1822.14,2715.44l-107.65-81.39-12.41-9.37H1558.63l-3.3,53.71-2.68,43.87a9.25,9.25,0,0,0,9.23,9.83h254.66A9.27,9.27,0,0,0,1822.14,2715.44Z"/><rect class="cls-5" x="1706.96" y="2646.91" width="44.46" height="11.12" rx="2.33" transform="translate(-1254.89 3711.22) rotate(-76.43)"/><rect class="cls-5" x="1706.96" y="2646.91" width="44.46" height="11.12" rx="2.33" transform="translate(2890.72 5598.06) rotate(-168.42)"/><rect class="cls-5" x="1740.31" y="2670.73" width="44.46" height="11.12" rx="2.33" transform="translate(-1252.52 3761.86) rotate(-76.43)"/><rect class="cls-5" x="1740.31" y="2670.73" width="44.46" height="11.12" rx="2.33" transform="translate(2951.95 5651.91) rotate(-168.42)"/><path class="cls-12" d="M1558.63,2624.68l9.39-164.36,139.74,4.77-5.68,159.59S1584.18,2677.87,1558.63,2624.68Z"/><g class="cls-38"><path class="cls-18" d="M1563,2571.54c36.26,19.94,74.19,40.36,115.52,42.11s86.89-21.37,96.41-61.63c1.43-6,2-12.6-.52-18.28-4.38-9.94-16.26-13.91-27-15.68-29.59-4.88-63-2.26-85.9-21.67-18.42-15.63-25-42-43.47-57.55-16.16-13.56-40.58-16.31-59.35-6.69s-30.8,31-29.22,52.08Z"/></g><path class="cls-8" d="M1525.19,2715.44l-107.64-81.39-12.42-9.37H1261.68l-3.3,53.71-2.67,43.87a9.24,9.24,0,0,0,9.23,9.83H1519.6A9.27,9.27,0,0,0,1525.19,2715.44Z"/><rect class="cls-5" x="1412.4" y="2646.11" width="44.46" height="11.12" rx="2.33" transform="translate(-1479.58 3424.26) rotate(-76.43)"/><rect class="cls-5" x="1412.4" y="2646.11" width="44.46" height="11.12" rx="2.33" transform="translate(2307.75 5537.36) rotate(-168.42)"/><rect class="cls-5" x="1445.75" y="2669.93" width="44.46" height="11.12" rx="2.33" transform="translate(-1477.21 3474.91) rotate(-76.43)"/><rect class="cls-5" x="1445.75" y="2669.93" width="44.46" height="11.12" rx="2.33" transform="translate(2368.98 5591.21) rotate(-168.42)"/><path class="cls-39" d="M1704.57,2608c-9.53-7.14-55.57-57.16-105.59-78.6s-92.89,38.11-92.89,38.11l37.13-244.69,15.27-100.69L1541,2164.66,1491.8,2003l9.52,157.2-59.54,485.91-195.32-11.91s57.16-428.74,52.4-581.18,47.64-366.82,47.64-366.82l285.83,9.53s102.42,400.16,116.71,485.91S1714.1,2615.15,1704.57,2608Z"/><g class="cls-40"><path class="cls-5" d="M1647.55,2626a16,16,0,0,1-10.13-3.72,14.08,14.08,0,0,1-4.91-13.56l50-284.79c1.09-6.17,2.26-12.46,3.4-18.54,4.24-22.66,8.62-46.09,9.41-69.29.92-27.09-5-52.38-12.77-82.62-6.66-25.87-14-54.19-22.52-86.58-29.49-112.52-60.44-227.23-92-340.95a12.74,12.74,0,0,1,3.07-12.84,15.46,15.46,0,0,1,14.46-4,12.78,12.78,0,0,1,9.29,9.42c18.37,66.23,36.52,132.72,53.95,197.63,15.6,58.07,31.2,117,46.38,175.27,2,7.78,4.18,15.69,6.27,23.35,12.66,46.58,25.76,94.74,19.8,144.24-5,41.44-12.88,83.33-20.52,123.85-3.28,17.42-6.68,35.44-9.78,53.12l-31.59,179.75c-.82,4.67-3.47,8.05-7.47,9.5A12.68,12.68,0,0,1,1647.55,2626ZM1582,1712.63a11.34,11.34,0,0,0-8,3.26,8.73,8.73,0,0,0-2.07,9c31.55,113.74,62.5,228.47,92,341,8.49,32.4,15.86,60.73,22.53,86.6,7.88,30.56,13.83,56.13,12.88,83.76-.8,23.5-5.2,47.08-9.47,69.88-1.13,6.07-2.3,12.35-3.39,18.5l-50,284.8a10.08,10.08,0,0,0,3.53,9.79c3.06,2.57,7.32,3.48,10.6,2.29,2.63-1,4.33-3.19,4.9-6.44l31.59-179.75c3.11-17.71,6.51-35.74,9.79-53.17,7.62-40.45,15.51-82.28,20.48-123.59,5.87-48.72-7.13-96.5-19.69-142.71-2.09-7.67-4.24-15.59-6.28-23.39-15.17-58.22-30.78-117.18-46.37-175.25-17.43-64.9-35.58-131.38-54-197.59a8.76,8.76,0,0,0-6.43-6.62A10.53,10.53,0,0,0,1582,1712.63Z"/><g class="cls-16"><path d="M1491.8,2003s-33.35-40.5-38.11-76.22S1327.44,2689,1327.44,2689l157.21,35.73L1518,2115Z"/></g></g><path class="cls-12" d="M1847.85,1439.24s-21.77-56.37-20.16-66.92,24.69,19.67,24.69,19.67,35.77-47.83,47.59-58.26-3.85,33.3-3.85,33.3,18.27-23,19.66-13.1c.46,3.29-4.23,17.39-3.58,21.43,13.1-22,11.23,8.11,11.23,8.11s4.67-7.3,8.39-1.06-6,47.58-31.87,79.9S1847.85,1439.24,1847.85,1439.24Z"/><g class="cls-41"><path class="cls-18" d="M1898.06,1321.11c-.68-3-3.63-5-6.63-5.42s-6,.41-8.88,1.44c-16.87,6.12-30.72,18.87-47.65,24.8-5.74,2-12.51,3.06-17.56-.31l6.31,27.49c11,5.29,15.25,18.29,20.34,29.35.68,1.48,1.53,3.06,3,3.62,3,1.12,5.56-2.45,6.87-5.4a300.12,300.12,0,0,1,40.26-66C1896.41,1327.9,1898.85,1324.59,1898.06,1321.11Z"/><path class="cls-18" d="M1921,1347.67l-5.92-2.16a7.19,7.19,0,0,0-6.24,1.48,19.62,19.62,0,0,0-4.24,5.08,162.17,162.17,0,0,0-11,20,27.36,27.36,0,0,0-2.89,9.09c-.26,3.18.65,6.62,3.06,8.72,5-6.9,7.7-15.12,11.28-22.84S1913.43,1351.61,1921,1347.67Z"/><path class="cls-18" d="M1918.73,1362.5a92.18,92.18,0,0,0-10.81,29.94c-.66,3.76-.87,8.19,1.92,10.8,7.67-13,5.65-30.33,14.21-42.81Z"/><path class="cls-18" d="M1931,1375a36.63,36.63,0,0,0-11.2,16.86c-1.4,4.47-1.72,9.92,1.52,13.31a108.18,108.18,0,0,1,14.85-30.15Z"/></g><path class="cls-14" d="M1890.77,1504c-41.88,40.42-56,217.94-215.57,189.36-9.57,12-20.41,42.56-35.73,50-12.33,6-26.32,10.48-41.35,13.77-105,22.84-261.15-13.77-261.15-13.77S1308.39,1448,1339.35,1398c17.13-27.65,54.64-42.94,84.78-51.07,2.78-1.93,5.62-3.83,8.57-5.69,0,0,22.37-37.56,84.46-26S1580,1343.4,1580,1343.4s111.91,4.57,157.16,157c.43,1.48,31.37-24.77,38.11-32.15,25-27.39,63.12-54.79,63.12-54.79S1932.64,1463.54,1890.77,1504Z"/><g class="cls-42"><g class="cls-16"><path d="M1591.42,1305.15c-11.45-9.45-25.94-14.3-40.22-18.38-17.36-5-35.31-9.17-53.32-7.78-34.26,2.63-64.24,25.3-85.1,52.61l-10.26,15.13c41-8,83.44,6.72,124.8,1.14,27.14-3.65,56-15.7,80.53-3.63C1610.78,1329.68,1602.87,1314.6,1591.42,1305.15Z"/></g><g class="cls-16"><path d="M1318.43,1471l-70,41.83L1295,1764.35c1.47,7.94,3.06,16.17,7.77,22.73,10,13.93,29.76,15.47,46.91,15.72,3,0,6.14,0,8.62-1.61,4.06-2.68,4.51-8.36,4.54-13.22.35-46.32.66-93-7.64-138.55C1344.25,1589.52,1318.55,1531.86,1318.43,1471Z"/></g><g class="cls-16"><path d="M1867.18,1392.91c-4-9-17.19-6.37-26.6-3.46a116.58,116.58,0,0,1-70.4-.7l-54,58.24a286.27,286.27,0,0,1,23.48,118.47c14.32-5.32,21.92-20.48,29.29-33.86a291.42,291.42,0,0,1,49.69-65.92c18.72-18.61,41-36.16,48.3-61.52C1868.06,1400.48,1868.76,1396.4,1867.18,1392.91Z"/></g></g><path class="cls-2" d="M1459.23,1122.09s-9.1-21.92,32.94-36.22,53.58,9.56,100.73,1.34,89.33,84.71,18.68,117.74a1210.61,1210.61,0,0,0-123.82,66.87s-17.83,19.22-32.61,12.71,2.36-32,2.36-32S1345,1165.88,1459.23,1122.09Z"/><g class="cls-43"><path class="cls-44" d="M1678.69,1100.76c-8.36-9.55-20.94-15-33.62-15.62s-25.38,3.29-36.12,10c-14,8.77-25.7,22.52-42,25.28-8.82,1.49-15.56-4.22-24.39-2.75a22,22,0,0,0-13.15,7c-14.65-3.4-31.15,4.93-37.11,18.74-7.42,17.2.79,38.38-7.48,55.19-3.21,6.52-8.57,11.63-14.08,16.43a50,50,0,0,0,3.74-14.82c.79-9.72-1.93-19.37-2.38-29.11-.37-8.19,1.43-17.23,6.94-23a34.54,34.54,0,0,0-20.95,23.43c-4.12,16.48,4.39,34.29,4.09,50.83l-22.37,19.22c-8.34,7.17-16.89,14.59-21.86,24.4s-5.54,22.68,1.58,31.06c8.64,10.17,24.29,9.9,37.41,7.44,17-3.19,33.45-8.59,49.83-14.07,34.13-11.43,68.39-23.4,99.36-41.74s58.79-43.65,74.49-76c5.55-11.45,9.56-23.86,9.84-36.58S1687.08,1110.33,1678.69,1100.76Z"/><path class="cls-45" d="M1416.34,1195.56a49.74,49.74,0,0,1,48.25-54.17c-2.2-19.53,8.72-38.88,24.24-50.93s35-17.8,54.39-21.11a116.39,116.39,0,0,0-76.31-2.46c-13.73,4.32-26.73,11.31-37.25,21.14-13.87,13-22.86,30.14-31.6,47-4.55,8.78-9.14,17.64-11.76,27.18-4.36,15.9-3,32.94,1.28,48.86,1.37,5.07,3.1,10.19,6.39,14.29s8.42,7.05,13.65,6.47l29.32,9C1427.53,1227,1417.83,1212.27,1416.34,1195.56Z"/></g><path class="cls-18" d="M1618.76,1211.15s24.32,22.65,11.45,29.72c-9.48,5.2-12.08-.29-14.2-4.9S1610.77,1207.68,1618.76,1211.15Z"/><path class="cls-12" d="M1448.12,1232.15c5.67-14.75,24.09-21.39,41.14-14.84a36.94,36.94,0,0,1,13.66,9.08c7.49,1,14.67.64,15.14-4.54,1-11,4-43.53,17.21-39.46s63.16,4,71.55-20.18c0,0,63.42,164.88-67.26,135.08l2.81,25.2-73.08-.72,5.68-48.52.15-.69a38.72,38.72,0,0,1-6.38-1.84C1451.69,1264.17,1442.46,1246.9,1448.12,1232.15Z"/><g class="cls-46"><path class="cls-18" d="M1632.7,1178.36c-1.58-9.86-4.65-19.91-11.46-27.22-9.51-10.18-24.81-13.18-38.58-11.1s-26.44,8.52-38.83,14.86l-39.35,20.15,1.64,52c5.47,2.36,10.68-3.39,15.9-6.24,8.69-4.76,19.35-1.42,28.86,1.34a209,209,0,0,0,56.89,8.28c7.45,0,15.79-.69,20.73-6.27,3.41-3.85,4.44-9.22,5-14.33A117.63,117.63,0,0,0,1632.7,1178.36Z"/><path class="cls-18" d="M1502.62,1284.41c-1.61,9.74,1.52,19.65,5.63,28.64,5.51,12.06,13.93,24.11,26.66,27.84,1.92.56,4.1.89,5.82-.12s2.47-3,3.08-4.81a89.77,89.77,0,0,0,4.48-29.27l-5.65-8.54A84.34,84.34,0,0,1,1502.62,1284.41Z"/></g><path class="cls-18" d="M1495.56,1252.76a3.61,3.61,0,0,0,.24-2.48,5.43,5.43,0,0,0-1.16-2.2,9.08,9.08,0,0,0-4.07-2.59,10.49,10.49,0,0,0-4.44-.45,5,5,0,0,0-1.73.52,1.86,1.86,0,0,0-1.07,2,5.22,5.22,0,0,0,.55,1.73,10.44,10.44,0,0,0,2.86,3.4,9,9,0,0,0,4.44,1.91,5.47,5.47,0,0,0,2.47-.27A3.62,3.62,0,0,0,1495.56,1252.76Zm0,0a5.4,5.4,0,0,1-4.38,2.42,12.61,12.61,0,0,1-5.37-.68,10.75,10.75,0,0,1-4.8-3.24,7.29,7.29,0,0,1-1.48-2.94,5.64,5.64,0,0,1,.45-3.79,5.56,5.56,0,0,1,2.88-2.5,7.24,7.24,0,0,1,3.26-.43,10.76,10.76,0,0,1,5.37,2.13,12.72,12.72,0,0,1,3.6,4A5.37,5.37,0,0,1,1495.56,1252.76Z"/><circle class="cls-32" cx="1541.02" cy="1233.64" r="16.63"/><path class="cls-2" d="M1601.1,1267.23a17.28,17.28,0,0,1-6.31-1.17c-7.66-3-10.86-10.64-11-11a2,2,0,0,1,3.7-1.52c0,.1,2.75,6.43,8.79,8.77,3.86,1.49,8.34,1.08,13.31-1.24a2,2,0,1,1,1.69,3.62A24.07,24.07,0,0,1,1601.1,1267.23Z"/><g class="cls-16"><path d="M1675.2,1693.35c-9.57,12-20.41,42.56-35.73,50-12.33,6-26.32,10.48-41.35,13.77-4.31-100.88-9.74-267.18,5.63-185.27C1625.18,1686.2,1675.2,1693.35,1675.2,1693.35Z"/></g><path class="cls-13" d="M1477.83,1190.64s-44.43,11.37-53.76,24.89c7.23,22.11,7.37,31.35,7.37,31.35s41.55-23,57-22.55S1477.83,1190.64,1477.83,1190.64Z"/><g class="cls-47"><g class="cls-16"><path class="cls-48" d="M1417.11,1208c5.64-.72,9.29,5.65,11.2,11,.54,1.5,1.17,3.13,2.55,3.93,1.6.92,3.61.4,5.36-.2,18.7-6.31,35.8-17.94,55.39-20.37-10.79,17.1-39.11,14.09-51.25,30.26,6.76,7.16,20.08.69,28.06,6.46,1.22.89,2.33,2.28,2.07,3.78-.24,1.29-1.41,2.17-2.49,2.91q-16.1,11.05-32.83,21.1a3.59,3.59,0,0,1-2.57.74c-1-.26-1.54-1.27-2-2.19a214,214,0,0,1-16.71-52.09Z"/></g></g><polygon class="cls-36" points="1587.3 1166.82 1497.43 1191.71 1502.11 1224.01 1584.61 1219.25 1587.3 1166.82"/><polygon class="cls-34" points="1521.65 1207.86 1516.21 1187.19 1503.71 1190.46 1510.82 1223.39 1584.61 1219.25 1584.94 1212.78 1521.65 1207.86"/><rect class="cls-13" x="1568.32" y="1156.72" width="97.33" height="70.54" rx="12" transform="translate(3297.04 2293.31) rotate(176.85)"/><rect class="cls-14" x="1567.52" y="1163.76" width="71.99" height="57.36" rx="6" transform="translate(3270.15 2294.94) rotate(176.85)"/><g class="cls-49"><path class="cls-34" d="M1566.93,1167.93s-.84,39.66,13,45,59.88,6.18,59.88,6.18l-71.74,16s-17.86-24.79-17.2-27.2S1566.93,1167.93,1566.93,1167.93Z"/></g><g class="cls-49"><rect class="cls-5" x="1624.37" y="1135.72" width="13.39" height="94.55" transform="translate(3613.72 1542.06) rotate(154.31)"/><rect class="cls-5" x="1609.11" y="1145.2" width="7.88" height="93.36" transform="translate(3583.31 1566.77) rotate(154.31)"/></g><ellipse class="cls-35" cx="1491.05" cy="1209.49" rx="27.88" ry="31.24" transform="translate(-415.44 982.78) rotate(-32.27)"/><path class="cls-34" d="M1500.41,1207.85c1.93,7.67-2.29,14.89-9.43,16.14s-14.49-3.94-16.42-11.61,2.28-14.89,9.42-16.14S1498.47,1200.19,1500.41,1207.85Z"/><path class="cls-36" d="M1483.51,1179.57a25.06,25.06,0,0,0-3.51.9c14.18-.52,27.94,10.17,31.78,25.39s-3.59,29.62-16.82,33.91a26.37,26.37,0,0,0,3.64-.35c15.39-2.7,24.49-18.28,20.33-34.81S1498.9,1176.87,1483.51,1179.57Z"/><g class="cls-16"><polygon points="1543.22 2322.82 1558.49 2222.13 1541.01 2164.66 1582.31 2198.31 1644.24 2203.08 1543.22 2322.82"/></g><rect class="cls-5" x="1887.79" y="1191.96" width="8.34" height="40.49" rx="1.75"/><rect class="cls-5" x="1925.9" y="1200.29" width="8.34" height="40.49" rx="1.75" transform="matrix(0.87, 0.5, -0.5, 0.87, 868.85, -801.51)"/><rect class="cls-5" x="1848.49" y="1199.1" width="8.34" height="40.49" rx="1.75" transform="translate(4066.78 1349.01) rotate(150)"/><rect class="cls-5" x="2893.24" y="738.72" width="13.05" height="63.4" rx="1.75" transform="translate(-99.88 836.07) rotate(-16.13)"/><rect class="cls-5" x="2954.18" y="734.68" width="13.05" height="63.4" rx="1.75" transform="translate(269.98 -687.28) rotate(13.87)"/><rect class="cls-5" x="2837.24" y="766.57" width="13.05" height="63.4" rx="1.75" transform="translate(5389.98 -698.74) rotate(133.87)"/><g class="cls-9"><rect class="cls-6" x="3354.45" y="1050.23" width="485.91" height="433.51" rx="12" transform="matrix(1, 0.04, -0.04, 1, 54.15, -144.38)"/><rect class="cls-5" x="3413.39" y="1217.8" width="52.4" height="211.99" transform="matrix(1, 0.04, -0.04, 1, 53.17, -130.64)"/><rect class="cls-8" x="3509.32" y="1121.75" width="52.4" height="307.98" transform="matrix(1, 0.04, -0.04, 1, 51.4, -134.34)"/><rect class="cls-5" x="3605.42" y="1205.45" width="52.4" height="225.3" transform="translate(53.09 -137.99) rotate(2.19)"/><rect class="cls-8" x="3707.4" y="1172.86" width="52.4" height="261.29" transform="translate(52.61 -141.9) rotate(2.19)"/></g><path class="cls-6" d="M3828,1022l62.71,1.76a10.36,10.36,0,0,1,10,10.61L3899,1095l26.13.73,1.9-67.66a26.52,26.52,0,0,0-25.69-27.18l-72.72-2Z"/><path class="cls-5" d="M3927.06,1097.8l-30.12-.85,1.76-62.65a8.34,8.34,0,0,0-8.08-8.56l-64.72-1.82.77-27.13,74.72,2.11a28.47,28.47,0,0,1,27.63,29.23Zm-26-4.73,22.12.62L3925,1028a24.46,24.46,0,0,0-23.75-25.12l-70.72-2L3830,1020l60.71,1.71a12.33,12.33,0,0,1,12,12.66Z"/><path class="cls-6" d="M3316.81,1078.62l1.7-60.66a10.35,10.35,0,0,1,10.61-10l59.71,1.68.65-23.13-69.71-2a26.53,26.53,0,0,0-27.18,25.7l-1.91,67.66Z"/><path class="cls-5" d="M3318.75,1080.68l-30.12-.85,2-69.67a28.47,28.47,0,0,1,29.23-27.64l71.71,2-.76,27.13-61.7-1.74a8.36,8.36,0,0,0-8.56,8.09Zm-26-4.74,22.12.62,1.65-58.65a12.35,12.35,0,0,1,12.67-12l57.7,1.62.54-19.13-67.71-1.91a24.49,24.49,0,0,0-25.12,23.75Z"/><path class="cls-6" d="M3888.28,1475.4l-1.51,53.79a10.35,10.35,0,0,1-10.61,10l-62.71-1.76-.65,23.13,72.72,2.05a26.54,26.54,0,0,0,27.18-25.7l1.71-60.81Z"/><path class="cls-5" d="M3886.27,1564.65l-.81,0-74.72-2.1.77-27.13,64.71,1.82a8.35,8.35,0,0,0,8.55-8.08l1.57-55.8,30.12.85L3914.7,1537a28.54,28.54,0,0,1-28.43,27.65Zm-71.42-6,70.72,2a24.54,24.54,0,0,0,25.13-23.75l1.65-58.82-22.12-.62-1.46,51.8a12.35,12.35,0,0,1-12.67,12l-60.71-1.71Z"/><path class="cls-6" d="M3374.32,1525.09l-59.71-1.68a10.36,10.36,0,0,1-10-10.61l1.52-53.79-26.13-.74-1.71,60.81a26.52,26.52,0,0,0,25.69,27.18l69.71,2Z"/><path class="cls-5" d="M3375.61,1550.28l-71.71-2a28.48,28.48,0,0,1-27.64-29.23l1.77-62.81,30.12.84-1.57,55.8a8.32,8.32,0,0,0,8.09,8.55l61.7,1.74Zm-93.69-90-1.66,58.81a24.48,24.48,0,0,0,23.75,25.12l67.71,1.91.54-19.13-57.71-1.63a12.33,12.33,0,0,1-12-12.66L3304,1461Z"/><path class="cls-6" d="M2560.25,1842.43l83.66,2.36a13.8,13.8,0,0,1,13.38,14.15l-2.28,80.92,34.86,1,2.54-90.27a35.39,35.39,0,0,0-34.28-36.26l-97-2.74Z"/><path class="cls-5" d="M2691.81,1942.9l-38.85-1.1,2.33-82.92a11.8,11.8,0,0,0-11.43-12.09l-85.66-2.42,1-34.85,99,2.79a37.32,37.32,0,0,1,36.22,38.31Zm-34.74-5,30.85.86,2.49-88.27a33.33,33.33,0,0,0-32.33-34.21l-95-2.67-.75,26.86,81.66,2.3a15.8,15.8,0,0,1,15.32,16.21Z"/><path class="cls-6" d="M1878.34,1918l2.28-80.92a13.8,13.8,0,0,1,14.15-13.37l79.65,2.24.87-30.86-93-2.62a35.39,35.39,0,0,0-36.26,34.28l-2.54,90.27Z"/><path class="cls-5" d="M1880.28,1920.05l-38.85-1.09,2.6-92.28a37.4,37.4,0,0,1,38.32-36.22l95,2.68-1,34.85-81.65-2.29a11.8,11.8,0,0,0-12.09,11.43Zm-34.73-5,30.85.87,2.22-78.92a15.8,15.8,0,0,1,16.21-15.32l77.65,2.18.75-26.86-91-2.56a33.41,33.41,0,0,0-34.2,32.33Z"/><path class="cls-6" d="M2640.73,2447.32l-2,71.77a13.82,13.82,0,0,1-14.16,13.38l-83.66-2.36L2540,2561l97,2.73a35.39,35.39,0,0,0,36.27-34.27l2.28-81.13Z"/><path class="cls-5" d="M2638,2565.71H2637l-99-2.79,1-34.85,85.66,2.41a11.8,11.8,0,0,0,12.1-11.44l2.08-73.77,38.84,1.1-2.34,83.12a37.38,37.38,0,0,1-37.25,36.23Zm-96-6.68,95,2.67a33.39,33.39,0,0,0,34.21-32.33l2.22-79.13-30.85-.87-2,69.78a15.79,15.79,0,0,1-15.76,15.32h-.45l-81.66-2.3Z"/><path class="cls-6" d="M1955.06,2513.62l-79.65-2.24a13.83,13.83,0,0,1-13.38-14.16l2-71.77-34.85-1-2.28,81.13a35.38,35.38,0,0,0,34.27,36.26l93,2.62Z"/><path class="cls-5" d="M1956.14,2546.53l-95-2.67a37.33,37.33,0,0,1-36.22-38.32l2.34-83.12,38.85,1.09-2.08,73.77a11.79,11.79,0,0,0,11.44,12.1l81.65,2.3Zm-125-120-2.23,79.12a33.32,33.32,0,0,0,32.33,34.21l91,2.56.76-26.86-77.66-2.18a15.8,15.8,0,0,1-15.32-16.21l2-69.77Z"/><g class="cls-9"><path class="cls-6" d="M1917,1919.38l-14.4,508.08a40.7,40.7,0,0,0,38.85,41.82l602.71,27.3a40.71,40.71,0,0,0,42.52-39.07l20.58-524.89a40.69,40.69,0,0,0-40-42.29l-608.9-10.5A40.71,40.71,0,0,0,1917,1919.38Z"/></g><path class="cls-39" d="M2455,2023.58c-19.25-19.18-42.38-30.85-67.7-32.21a93.29,93.29,0,0,0-31.61,3.81c-60.21,17.8-108.37,94.49-113.42,188.82-3.93,73.84,19.55,139.75,57.78,176.45,18.89,18.17,41.4,29.2,66,30.51,54.57,2.91,104.11-42.94,128.86-111.28.33-.91.67-1.83,1-2.76a284.39,284.39,0,0,0,15.19-78.58C2515,2125.62,2492.22,2060.59,2455,2023.58Zm12.29,237.14c-19.65,54.38-59.07,90.87-102.47,88.56-18.77-1-36-9.15-50.71-22.63-31.4-28.84-50.86-82.1-47.67-141.91,4.05-75.91,43.24-137.46,92-150.61a73.19,73.19,0,0,1,23.34-2.53c20.87,1.12,39.85,11.06,55.48,27.3,28.58,29.68,45.92,80.51,42.9,137.22a226.67,226.67,0,0,1-12.08,62.46C2467.83,2259.29,2467.57,2260,2467.31,2260.72Z"/><path class="cls-8" d="M2355.71,1995.18l2.72,39a73.19,73.19,0,0,1,23.34-2.53c20.87,1.12,39.85,11.06,55.48,27.3l17.77-35.32c-19.25-19.18-42.38-30.85-67.7-32.21A93.29,93.29,0,0,0,2355.71,1995.18Z"/><path class="cls-11" d="M2437.25,2058.9c28.58,29.68,45.92,80.51,42.9,137.22a226.67,226.67,0,0,1-12.08,62.46l27.8,18.34a284.39,284.39,0,0,0,15.19-78.58c3.89-72.72-18.84-137.75-56-174.76Z"/><path class="cls-8" d="M2364.84,2349.28c-18.77-1-36-9.15-50.71-22.63l-14.06,33.8c18.89,18.17,41.4,29.2,66,30.51,54.57,2.91,104.11-42.94,128.86-111.28l-27.58-19C2447.66,2315.1,2408.24,2351.59,2364.84,2349.28Z"/><path class="cls-4" d="M2183.23,2039l-194.58-10.11a5,5,0,0,0-5.25,4.74l-1.58,30.45a5,5,0,0,0,4.73,5.25l194.58,10.11a5,5,0,0,0,5.25-4.73l1.59-30.45A5,5,0,0,0,2183.23,2039Z"/><path class="cls-4" d="M2183.23,2129.56l-194.58-10.11a5,5,0,0,0-5.25,4.73l-1.58,30.45a5,5,0,0,0,4.73,5.25L2181.13,2170a5,5,0,0,0,5.25-4.74l1.59-30.45A5,5,0,0,0,2183.23,2129.56Z"/><path class="cls-4" d="M2183.23,2220.07,1988.65,2210a5,5,0,0,0-5.25,4.73l-1.58,30.45a5,5,0,0,0,4.73,5.26l194.58,10.11a5,5,0,0,0,5.25-4.74l1.59-30.45A5,5,0,0,0,2183.23,2220.07Z"/><path class="cls-4" d="M2183.23,2310.58l-194.58-10.11a5,5,0,0,0-5.25,4.74l-1.58,30.45a5,5,0,0,0,4.73,5.25L2181.13,2351a5,5,0,0,0,5.25-4.73l1.59-30.45A5,5,0,0,0,2183.23,2310.58Z"/></g></svg>