<?xml version="1.0" encoding="UTF-8"?>
<svg id="Layer_1" xmlns="http://www.w3.org/2000/svg" width="2500.1" height="1900.3" version="1.1" viewBox="0 0 2500.1 1900.3">
  <!-- Generator: Adobe Illustrator 29.1.0, SVG Export Plug-In . SVG Version: 2.1.0 Build 142)  -->
  <path d="M2494.3,850.8c-29.4-145.7-157.9-244.2-286.9-304.2-115.4-53.4-240.9-83.8-367.4-101.5-2.1-.3-4.3-.6-6.4-.9v-38.2h0v-28.6h0v-50.3h0v-28.6h0v-50.3h0v-28.6h0v-41.3l-73-42.2v-27.8l-150.7-87-150.7,87v27.8l-35.4,20.4-99.4-133.9-99.3,133.8L954.3,0l-275.1,158.8v430.2c-124.3,48-242.9,107.2-350.4,178.5C172.9,872.6-4.2,1040.1,0,1241c2.7,115.3,75.1,212.7,167,280,199.2,143.1,484.1,191.2,750.3,193.1l322.4,186.1,620.5-358.2v-5c160.5-65.4,310.4-150.5,434.4-258.3,121.5-108.6,232.2-259.7,199.8-428ZM370.3,1067.6c-.3,0-.7-.1-1-.2-4.3-.6-9.6-.3-15.2.8,4.7-11.7,6.9-24.9,8-37,6.9,9.6,14.6,19.8,23.2,30.3-5.1,1.9-10.1,3.9-14.9,6.1ZM404,1125c-1.2-5.6-2.9-12-5.1-18.4,1.7-.2,3.4-.5,5.1-.7v19.1ZM452.2,925.3c-14.9-18-27.6-35-38.7-49.6-1.8-2.3-4.3-3.9-7.4-4.7-2-2.2-3.7-4.2-5.4-6.1,75.5-81.8,182.7-147.4,278.4-194.2v123.6s-227,131-227,131ZM2147,905.1c-12.5,34.2-29.8,66-50.8,95.7v-320.2c52.9,58.1,78.1,132.1,50.8,224.5Z" fill="#e9f0f7"/>
  <g id="Real_Estate_Hero">
    <path d="M303.3,1098.3c-12.6-207.4,231.7-362.5,411.3-444.4,312.1-136.6,671.1-191.8,1007.7-140.4,205.3,32.2,496.5,148.5,424.8,391.5l347.4-54.3c-29.4-145.7-157.9-244.2-286.9-304.2-115.4-53.4-240.9-83.8-367.4-101.5-156.3-21.6-315.5-23.1-472.9-10.4-355.2,30-739.8,134.6-1038.5,332.9C172.9,872.6-4.2,1040.1,0,1241l333.8-52.2c-17.7-29.2-27.7-59.6-30.6-90.5Z" fill="#ff8666"/>
    <g>
      <g>
        <polygon points="1833.7 178.2 1610 49.1 1386.2 178.2 1610 307.4 1833.7 178.2" fill="#559fe0"/>
        <polygon points="1610 307.4 1610 1306.1 1386.2 1176.9 1386.2 178.2 1610 307.4" fill="#67a7e0"/>
        <polygon points="1833.7 178.2 1833.7 1176.9 1610 1306.1 1610 307.4 1833.7 178.2" fill="#1a63b6"/>
        <g>
          <polygon points="1760.7 108.3 1610 21.2 1459.2 108.3 1610 195.3 1760.7 108.3" fill="#bbd6f7"/>
          <polygon points="1610 195.3 1610 265.2 1459.2 178.2 1459.2 108.3 1610 195.3" fill="#67a7e0"/>
          <polygon points="1760.7 108.3 1760.7 178.2 1610 265.2 1610 195.3 1760.7 108.3" fill="#327fca"/>
        </g>
        <g>
          <polygon points="1833.7 248.2 1833.7 219.6 1610 348.7 1422 240.3 1422.1 268.8 1610 377.4 1833.7 248.2" fill="#1553a3"/>
          <polygon points="1833.7 327.1 1833.7 298.5 1610 427.6 1422 319.1 1422.1 347.7 1610 456.2 1833.7 327.1" fill="#1553a3"/>
          <polygon points="1833.7 406 1833.7 377.4 1610 506.5 1422 398 1422.1 426.6 1610 535.1 1833.7 406" fill="#1553a3"/>
          <polygon points="1833.7 484.8 1833.7 456.2 1610 585.4 1422 476.9 1422.1 505.5 1610 614 1833.7 484.8" fill="#1553a3"/>
          <polygon points="1833.7 563.7 1833.7 535.1 1610 664.3 1422 555.8 1422.1 584.4 1610 692.9 1833.7 563.7" fill="#1553a3"/>
          <polygon points="1833.7 642.6 1833.7 614 1610 743.2 1422 634.7 1422.1 663.3 1610 771.8 1833.7 642.6" fill="#1553a3"/>
          <polygon points="1833.7 721.5 1833.7 692.9 1610 822.1 1422 713.6 1422.1 742.2 1610 850.7 1833.7 721.5" fill="#1553a3"/>
          <polygon points="1833.7 800.4 1833.7 771.8 1610 901 1422 792.5 1422.1 821.1 1610 929.6 1833.7 800.4" fill="#1553a3"/>
          <polygon points="1833.7 879.3 1833.7 850.7 1610 979.9 1422 871.4 1422.1 900 1610 1008.5 1833.7 879.3" fill="#1553a3"/>
          <polygon points="1833.7 958.2 1833.7 929.6 1610 1058.8 1422 950.3 1422.1 978.9 1610 1087.4 1833.7 958.2" fill="#1553a3"/>
          <polygon points="1833.7 1037.1 1833.7 1008.5 1610 1137.7 1422 1029.2 1422.1 1057.8 1610 1166.3 1833.7 1037.1" fill="#1553a3"/>
          <polygon points="1833.7 1116 1833.7 1087.4 1610 1216.6 1422 1108.1 1422.1 1136.7 1610 1245.2 1833.7 1116" fill="#1553a3"/>
        </g>
      </g>
      <g>
        <g>
          <polygon points="1229.4 158.8 1229.4 1270.8 954.3 1429.6 954.3 317.7 1229.4 158.8" fill="#1a63b6"/>
          <polygon points="954.3 317.7 679.1 158.8 679.1 1270.8 954.3 1429.6 954.3 317.7" fill="#67a7e0"/>
          <polygon points="1229.4 158.8 954.3 0 679.1 158.8 954.3 317.7 1229.4 158.8" fill="#bbd6f7"/>
          <g>
            <path d="M851.5,122.7c1.1,12.8,9.3,23.9,19.2,31.6,18.3,14.5,41.9,21.2,64.8,23.7,20.5,2,41.4.8,61.3-4.5,28-6.7,60.9-27.2,60.4-54.5v41.5c.2,15.4-10,30.8-30.3,42.5-17.7,10.1-38.1,15-58.3,16.9-34.6,2.5-74.8-3.7-101.6-27.3-7.2-6.6-12.8-15.1-14.9-24.7-1.2-3.9-.6-43.4-.8-48.3,0,1,.2,2,.3,3Z" fill="#327fca"/>
            <path d="M881.6,77.2c-40.3,23.3-40.6,61.1-.5,84.4,40.1,23.3,105.3,23.3,145.7,0,40.3-23.3,40.6-61.1.5-84.4-40.1-23.3-105.3-23.3-145.7,0Z" fill="#67a7e0"/>
          </g>
        </g>
        <g>
          <polygon points="1207.4 204.4 976.3 337.9 976.2 375.7 1207.4 242.2 1207.4 204.4" fill="#1553a3"/>
          <polygon points="1207.4 274.5 976.3 407.9 976.2 445.7 1207.4 312.3 1207.4 274.5" fill="#1553a3"/>
          <polygon points="1207.4 344.5 976.3 478 976.2 515.8 1207.4 382.4 1207.4 344.5" fill="#1553a3"/>
          <polygon points="1207.4 414.6 976.3 548 976.2 585.8 1207.4 452.4 1207.4 414.6" fill="#1553a3"/>
          <polygon points="1207.4 484.7 976.3 618.1 976.2 655.9 1207.4 522.5 1207.4 484.7" fill="#1553a3"/>
          <polygon points="1207.4 554.7 976.3 688.1 976.2 726 1207.4 592.5 1207.4 554.7" fill="#1553a3"/>
          <polygon points="1207.4 624.8 976.3 758.2 976.2 796 1207.4 662.6 1207.4 624.8" fill="#1553a3"/>
          <polygon points="1207.4 694.8 976.3 828.2 976.2 866.1 1207.4 732.6 1207.4 694.8" fill="#1553a3"/>
          <polygon points="1207.4 764.9 976.3 898.3 976.2 936.1 1207.4 802.7 1207.4 764.9" fill="#1553a3"/>
          <polygon points="1207.4 834.9 976.3 968.3 976.2 1006.2 1207.4 872.7 1207.4 834.9" fill="#1553a3"/>
          <polygon points="1207.4 905 976.3 1038.4 976.2 1076.2 1207.4 942.8 1207.4 905" fill="#1553a3"/>
          <polygon points="1207.4 975 976.3 1108.5 976.2 1146.3 1207.4 1012.8 1207.4 975" fill="#1553a3"/>
          <polygon points="1207.4 1045.1 976.3 1178.5 976.2 1216.3 1207.4 1082.9 1207.4 1045.1" fill="#1553a3"/>
          <polygon points="1207.4 1115.2 976.3 1248.6 976.2 1286.4 1207.4 1153 1207.4 1115.2" fill="#1553a3"/>
          <polygon points="1207.4 1185.2 976.3 1318.6 976.2 1356.5 1207.4 1223 1207.4 1185.2" fill="#1553a3"/>
        </g>
        <g>
          <g>
            <polygon points="954.3 953.1 679.1 1111.9 679.1 1588.5 954.3 1429.6 954.3 953.1" fill="#1a63b6"/>
            <polygon points="954.3 953.1 679.1 794.2 404 953.1 679.1 1111.9 954.3 953.1" fill="#bbd6f7"/>
            <polygon points="679.1 1111.9 404 953.1 404 1429.6 679.1 1588.5 679.1 1111.9" fill="#67a7e0"/>
          </g>
          <g>
            <path d="M576.3,914.7c1.1,12.8,9.3,23.9,19.2,31.6,18.3,14.5,41.9,21.2,64.8,23.7,20.5,2,41.4.8,61.3-4.5,28-6.7,60.9-27.2,60.4-54.5,0,0,.1,41.5.1,41.5,0,15.4-10.1,30.8-30.4,42.5-17.7,10.1-38.1,15-58.3,16.9-34.6,2.5-74.8-3.7-101.6-27.3-7.2-6.7-12.8-15.1-14.9-24.7-1.2-3.9-.6-43.4-.8-48.3,0,1,.2,2,.3,3Z" fill="#67a7e0"/>
            <path d="M606.5,869.1c-40.3,23.3-40.6,61.1-.5,84.4,40.1,23.3,105.3,23.3,145.7,0,40.3-23.3,40.6-61.1.5-84.4-40.1-23.3-105.3-23.3-145.7,0Z" fill="#abc3ef"/>
          </g>
        </g>
        <g>
          <polygon points="932.3 993.8 701.2 1127.3 701.1 1165.1 932.3 1031.7 932.3 993.8" fill="#1553a3"/>
          <polygon points="932.3 1063.9 701.2 1197.3 701.1 1235.2 932.3 1101.7 932.3 1063.9" fill="#1553a3"/>
          <polygon points="932.3 1134 701.2 1267.4 701.1 1305.2 932.3 1171.8 932.3 1134" fill="#1553a3"/>
          <polygon points="932.3 1204 701.2 1337.4 701.1 1375.3 932.3 1241.8 932.3 1204" fill="#1553a3"/>
          <polygon points="932.3 1274.1 701.2 1407.5 701.1 1445.3 932.3 1311.9 932.3 1274.1" fill="#1553a3"/>
          <polygon points="932.3 1344.1 701.2 1477.5 701.1 1515.4 932.3 1381.9 932.3 1344.1" fill="#1553a3"/>
        </g>
        <g>
          <polygon points="426 993.8 657.1 1127.3 657.1 1165.1 426 1031.7 426 993.8" fill="#327fca"/>
          <polygon points="426 1063.9 657.1 1197.3 657.1 1235.2 426 1101.7 426 1063.9" fill="#327fca"/>
          <polygon points="426 1134 657.1 1267.4 657.1 1305.2 426 1171.8 426 1134" fill="#327fca"/>
          <polygon points="426 1204 657.1 1337.4 657.1 1375.3 426 1241.8 426 1204" fill="#327fca"/>
          <polygon points="426 1274.1 657.1 1407.5 657.1 1445.3 426 1311.9 426 1274.1" fill="#327fca"/>
          <polygon points="426 1344.1 657.1 1477.5 657.1 1515.4 426 1381.9 426 1344.1" fill="#327fca"/>
        </g>
        <g>
          <polygon points="701.2 204.4 932.3 337.9 932.3 375.7 701.2 242.2 701.2 204.4" fill="#327fca"/>
          <polygon points="701.2 274.5 932.3 407.9 932.3 445.7 701.2 312.3 701.2 274.5" fill="#327fca"/>
          <polygon points="701.2 344.5 932.3 478 932.3 515.8 701.2 382.4 701.2 344.5" fill="#327fca"/>
          <polygon points="701.2 414.6 932.3 548 932.3 585.8 701.2 452.4 701.2 414.6" fill="#327fca"/>
          <polygon points="701.2 484.7 932.3 618.1 932.3 655.9 701.2 522.5 701.2 484.7" fill="#327fca"/>
          <polygon points="701.2 554.7 932.3 688.1 932.3 726 701.2 592.5 701.2 554.7" fill="#327fca"/>
          <polygon points="701.2 624.8 932.3 758.2 932.3 796 701.2 662.6 701.2 624.8" fill="#327fca"/>
          <polygon points="701.2 694.8 932.3 828.2 932.3 866.1 701.2 732.6 701.2 694.8" fill="#327fca"/>
        </g>
      </g>
      <g>
        <g>
          <g>
            <g>
              <polygon points="1324.5 1284.3 1324.5 1300.1 1324.5 1300.1 1324.5 1615.8 1666.3 1418.5 1666.3 1102.7 1666.3 1087 1324.5 1284.3" fill="#1a63b6"/>
              <path d="M1324.5,1284.3" fill="#67a7e0"/>
            </g>
            <polygon points="1324.5 1300.1 1324.5 1284.3 982.7 1087 982.7 1102.7 982.6 1418.5 1324.5 1615.8 1324.5 1300.1 1324.5 1300.1" fill="#67a7e0"/>
            <polygon points="1666.3 1087 1657.1 1081.7 1657.1 1081.7 1324.5 889.6 1315.3 894.9 991.9 1081.7 991.9 1081.7 982.7 1087 1315.4 1279 1315.3 1279 1318.2 1280.7 1324.5 1284.3 1324.5 1284.3 1324.5 1284.3 1330.8 1280.7 1333.7 1279 1333.7 1279 1666.3 1087" fill="#bbd6f7"/>
            <g>
              <polygon points="1497.2 1437.2 1497.2 1437.2 1466.8 1454.8 1466.8 1527.4 1466.8 1533.7 1535.1 1494.2 1535.1 1415.3 1498.8 1436.3 1497.2 1437.2" fill="#1553a3"/>
              <polygon points="1335.4 1307.4 1335.4 1322 1335.4 1325.6 1655.4 1140.9 1655.4 1122.7 1335.4 1307.4" fill="#1553a3"/>
              <polygon points="1335.4 1354.4 1335.4 1368.9 1335.4 1372.5 1655.4 1187.8 1655.4 1169.7 1652.3 1171.5 1335.4 1354.4" fill="#1553a3"/>
              <polygon points="1335.4 1415.9 1335.4 1419.5 1655.4 1234.8 1655.4 1216.6 1335.4 1401.3 1335.4 1415.9" fill="#1553a3"/>
              <polygon points="1652.3 1265.4 1335.4 1448.3 1335.4 1462.8 1335.4 1466.4 1655.4 1281.7 1655.4 1263.6 1652.3 1265.4 1652.3 1265.4" fill="#1553a3"/>
              <polygon points="1652.3 1312.3 1335.4 1495.2 1335.4 1509.8 1335.4 1513.4 1655.4 1328.6 1655.4 1310.5 1652.3 1312.3 1652.3 1312.3" fill="#1553a3"/>
            </g>
            <g>
              <polygon points="1151.8 1437.2 1150.2 1436.3 1113.9 1415.3 1113.9 1494.2 1182.2 1533.7 1182.2 1527.4 1182.2 1454.8 1151.8 1437.2 1151.8 1437.2" fill="#327fca"/>
              <polygon points="993.6 1122.7 993.6 1140.9 1313.6 1325.6 1313.6 1322 1313.6 1307.4 993.6 1122.7" fill="#327fca"/>
              <polygon points="996.7 1171.5 993.6 1169.7 993.6 1187.8 1313.6 1372.5 1313.6 1368.9 1313.6 1354.4 996.7 1171.5 996.7 1171.5" fill="#327fca"/>
              <polygon points="993.6 1234.8 1313.6 1419.5 1313.6 1415.9 1313.6 1401.3 993.6 1216.6 993.6 1234.8" fill="#327fca"/>
              <polygon points="996.7 1265.4 993.6 1263.6 993.6 1281.7 1313.6 1466.4 1313.6 1462.8 1313.6 1448.3 996.7 1265.4 996.7 1265.4" fill="#327fca"/>
              <polygon points="996.7 1312.3 993.6 1310.5 993.6 1328.6 1313.6 1513.4 1313.6 1509.8 1313.6 1495.2 996.7 1312.3 996.7 1312.3" fill="#327fca"/>
            </g>
          </g>
          <g>
            <g>
              <path d="M1597.5,570.9" fill="#67a7e0"/>
              <path d="M1051.5,570.9" fill="#67a7e0"/>
              <path d="M1324.5,728.5" fill="#67a7e0"/>
              <g>
                <polygon points="1044.1 566.6 1044.1 579.3 1044.1 579.4 1044.1 579.3 1044.1 1100.1 1324.5 1262 1324.5 752.5 1324.5 728.5 1044.1 566.6" fill="#67a7e0"/>
                <polygon points="1324.5 728.5 1324.5 741.2 1324.5 741.2 1324.5 1262 1604.9 1100.1 1604.9 579.3 1604.9 566.6 1324.5 728.5" fill="#1a63b6"/>
                <path d="M1324.5,728.5" fill="#67a7e0"/>
                <polygon points="1597.5 562.4 1597.5 562.4 1324.5 404.7 1317.1 409 1044.1 566.6 1049.1 569.5 1051.5 570.9 1062.5 577.2 1317.1 724.2 1317.1 724.2 1324.5 728.5 1331.9 724.2 1331.9 724.2 1586.5 577.2 1597.5 570.9 1604.9 566.6 1597.5 562.4" fill="#559fe0"/>
              </g>
            </g>
            <g>
              <polygon points="1343.8 1223.9 1343.8 1227.6 1589.6 1085.7 1589.6 1067.1 1343.8 1209 1343.8 1223.9" fill="#1553a3"/>
              <polygon points="1343.8 1182 1343.8 1185.7 1589.6 1043.8 1589.6 1025.2 1343.8 1167.1 1343.8 1182" fill="#1553a3"/>
              <polygon points="1343.8 1140.1 1343.8 1143.8 1589.6 1001.9 1589.6 983.3 1343.8 1125.2 1343.8 1140.1" fill="#1553a3"/>
              <polygon points="1343.8 1098.2 1343.8 1101.9 1589.6 960 1589.6 941.4 1343.8 1083.3 1343.8 1098.2" fill="#1553a3"/>
              <polygon points="1343.8 1056.4 1343.8 1060 1589.6 918.1 1589.6 899.5 1343.8 1041.4 1343.8 1056.4" fill="#1553a3"/>
              <polygon points="1343.8 1014.5 1343.8 1018.1 1589.6 876.2 1589.6 857.6 1343.8 999.5 1343.8 1014.5" fill="#1553a3"/>
              <polygon points="1343.8 972.6 1343.8 976.2 1589.6 834.3 1589.6 815.7 1343.8 957.6 1343.8 972.6" fill="#1553a3"/>
              <polygon points="1343.8 930.7 1343.8 934.4 1589.6 792.4 1589.6 773.8 1343.8 915.7 1343.8 930.7" fill="#1553a3"/>
              <polygon points="1343.8 888.8 1343.8 892.5 1589.6 750.5 1589.6 731.9 1343.8 873.8 1343.8 888.8" fill="#1553a3"/>
              <polygon points="1343.8 846.9 1343.8 850.6 1589.6 708.7 1589.6 690 1343.8 832 1343.8 846.9" fill="#1553a3"/>
              <polygon points="1343.8 805 1343.8 808.7 1589.6 666.8 1589.6 648.1 1343.8 790.1 1343.8 805" fill="#1553a3"/>
              <polygon points="1343.8 748.2 1343.8 763.1 1343.8 766.8 1589.6 624.9 1589.6 606.3 1343.8 748.2" fill="#1553a3"/>
            </g>
            <g>
              <polygon points="1059.4 1085.7 1305.3 1227.6 1305.3 1223.9 1305.3 1209 1059.4 1067.1 1059.4 1085.7" fill="#327fca"/>
              <polygon points="1059.4 1043.8 1305.3 1185.7 1305.3 1182 1305.3 1167.1 1059.4 1025.2 1059.4 1043.8" fill="#327fca"/>
              <polygon points="1059.4 1001.9 1305.3 1143.8 1305.3 1140.1 1305.3 1125.2 1059.4 983.3 1059.4 1001.9" fill="#327fca"/>
              <polygon points="1059.4 960 1305.3 1101.9 1305.3 1098.2 1305.3 1083.3 1059.4 941.4 1059.4 960" fill="#327fca"/>
              <polygon points="1059.4 918.1 1305.3 1060 1305.3 1056.4 1305.3 1041.4 1059.4 899.5 1059.4 918.1" fill="#327fca"/>
              <polygon points="1059.4 876.2 1305.3 1018.1 1305.3 1014.5 1305.3 999.5 1059.4 857.6 1059.4 876.2" fill="#327fca"/>
              <polygon points="1059.4 834.3 1305.3 976.2 1305.3 972.6 1305.3 957.6 1059.4 815.7 1059.4 834.3" fill="#327fca"/>
              <polygon points="1059.4 792.4 1305.3 934.4 1305.3 930.7 1305.3 915.7 1059.4 773.8 1059.4 792.4" fill="#327fca"/>
              <polygon points="1059.4 750.5 1305.3 892.5 1305.3 888.8 1305.3 873.8 1059.4 731.9 1059.4 750.5" fill="#327fca"/>
              <polygon points="1059.4 708.7 1305.3 850.6 1305.3 846.9 1305.3 832 1059.4 690 1059.4 708.7" fill="#327fca"/>
              <polygon points="1059.4 666.8 1305.3 808.7 1305.3 805 1305.3 790.1 1059.4 648.1 1059.4 666.8" fill="#327fca"/>
              <polygon points="1059.4 606.3 1059.4 624.9 1305.3 766.8 1305.3 763.1 1305.3 748.2 1059.4 606.3" fill="#327fca"/>
            </g>
          </g>
        </g>
        <g>
          <g>
            <g>
              <polygon points="1324.5 702.3 1324.5 447.4 1545.2 320 1545.2 574.8 1324.5 702.3" fill="#1a63b6"/>
              <polygon points="1324.5 702.3 1324.5 447.4 1103.8 320 1103.8 574.8 1324.5 702.3" fill="#67a7e0"/>
              <polygon points="1545.2 320 1324.5 192.5 1103.8 320 1324.5 447.4 1545.2 320" fill="#67a7e0"/>
            </g>
            <g>
              <polygon points="1341.4 669.4 1341.4 672.3 1535 560.6 1535 545.9 1341.4 657.6 1341.4 669.4" fill="#1553a3"/>
              <polygon points="1341.4 636.4 1341.4 639.3 1535 527.6 1535 512.9 1341.4 624.6 1341.4 636.4" fill="#1553a3"/>
              <polygon points="1341.4 603.4 1341.4 606.3 1535 494.6 1535 480 1341.4 591.7 1341.4 603.4" fill="#1553a3"/>
              <polygon points="1341.4 570.5 1341.4 573.3 1535 461.6 1535 447 1341.4 558.7 1341.4 570.5" fill="#1553a3"/>
              <polygon points="1341.4 537.5 1341.4 540.4 1535 428.7 1535 414 1341.4 525.7 1341.4 537.5" fill="#1553a3"/>
              <polygon points="1341.4 504.5 1341.4 507.4 1535 395.7 1535 381 1341.4 492.8 1341.4 504.5" fill="#1553a3"/>
              <polygon points="1341.4 459.8 1341.4 471.5 1341.4 474.4 1535 362.7 1535 348.1 1341.4 459.8" fill="#1553a3"/>
            </g>
            <g>
              <polygon points="1114 560.6 1307.6 672.3 1307.6 669.4 1307.6 657.6 1114 545.9 1114 560.6" fill="#327fca"/>
              <polygon points="1114 527.6 1307.6 639.3 1307.6 636.4 1307.6 624.6 1114 512.9 1114 527.6" fill="#327fca"/>
              <polygon points="1114 494.6 1307.6 606.3 1307.6 603.4 1307.6 591.7 1114 480 1114 494.6" fill="#327fca"/>
              <polygon points="1114 461.6 1307.6 573.3 1307.6 570.5 1307.6 558.7 1114 447 1114 461.6" fill="#327fca"/>
              <polygon points="1114 428.7 1307.6 540.4 1307.6 537.5 1307.6 525.7 1114 414 1114 428.7" fill="#327fca"/>
              <polygon points="1114 395.7 1307.6 507.4 1307.6 504.5 1307.6 492.8 1114 381 1114 395.7" fill="#327fca"/>
              <polygon points="1114 348.1 1114 362.7 1307.6 474.4 1307.6 471.5 1307.6 459.8 1114 348.1" fill="#327fca"/>
            </g>
          </g>
          <g>
            <polygon points="1324.5 447.4 1324.5 22.6 1103.8 320 1324.5 447.4" fill="#559fe0"/>
            <polygon points="1324.5 22.6 1545.2 320 1324.5 447.4 1324.5 22.6" fill="#327fca"/>
          </g>
        </g>
      </g>
      <g>
        <g>
          <polygon points="2096.1 642.5 1879.6 517.5 1663.1 642.5 1879.6 767.5 2096.1 642.5" fill="#559fe0"/>
          <polygon points="1879.6 767.5 1879.6 1517.5 1663.1 1392.5 1663.1 642.5 1879.6 767.5" fill="#67a7e0"/>
          <polygon points="2096.1 642.5 2096.1 1392.5 1879.6 1517.5 1879.6 767.5 2096.1 642.5" fill="#1a63b6"/>
        </g>
        <g>
          <polygon points="2025.5 574.8 1879.6 490.6 1733.8 574.8 1879.6 659 2025.5 574.8" fill="#bbd6f7"/>
          <polygon points="1879.6 659 1879.6 726.7 1733.8 642.5 1733.8 574.8 1879.6 659" fill="#67a7e0"/>
          <polygon points="2025.5 574.8 2025.5 642.5 1879.6 726.7 1879.6 659 2025.5 574.8" fill="#327fca"/>
        </g>
        <g>
          <polygon points="2076.9 723.1 2076.9 680.7 2040.2 701.9 2040.2 744.3 2076.9 723.1" fill="#1553a3"/>
          <polygon points="2006.3 763.9 2006.3 721.5 1969.5 742.7 1969.5 785.1 2006.3 763.9" fill="#1553a3"/>
          <polygon points="2006.3 845.4 2006.3 803 1969.5 824.2 1969.5 866.6 2006.3 845.4" fill="#1553a3"/>
          <polygon points="2006.3 927 2006.3 884.6 1969.5 905.8 1969.5 948.2 2006.3 927" fill="#1553a3"/>
          <polygon points="2006.3 1008.6 2006.3 966.1 1969.5 987.4 1969.5 1029.8 2006.3 1008.6" fill="#1553a3"/>
          <polygon points="2006.3 1090.1 2006.3 1047.7 1969.5 1068.9 1969.5 1111.3 2006.3 1090.1" fill="#1553a3"/>
          <polygon points="2006.3 1171.7 2006.3 1129.3 1969.5 1150.5 1969.5 1192.9 2006.3 1171.7" fill="#1553a3"/>
          <polygon points="2076.9 804.7 2076.9 762.3 2040.2 783.5 2040.2 825.9 2076.9 804.7" fill="#1553a3"/>
          <polygon points="2076.9 886.2 2076.9 843.8 2040.2 865 2040.2 907.4 2076.9 886.2" fill="#1553a3"/>
          <polygon points="2076.9 967.8 2076.9 925.4 2040.2 946.6 2040.2 989 2076.9 967.8" fill="#1553a3"/>
          <polygon points="2076.9 1049.3 2076.9 1006.9 2040.2 1028.1 2040.2 1070.5 2076.9 1049.3" fill="#1553a3"/>
          <polygon points="2076.9 1130.9 2076.9 1088.5 2040.2 1109.7 2040.2 1152.1 2076.9 1130.9" fill="#1553a3"/>
          <polygon points="2006.3 1253.2 2006.3 1210.8 1969.5 1232 1969.5 1274.4 2006.3 1253.2" fill="#1553a3"/>
          <polygon points="2006.3 1334.8 2006.3 1292.4 1969.5 1313.6 1969.5 1356 2006.3 1334.8" fill="#1553a3"/>
          <polygon points="2006.3 1416.3 2006.3 1373.9 1969.5 1395.1 1969.5 1437.5 2006.3 1416.3" fill="#1553a3"/>
          <polygon points="2076.9 1212.4 2076.9 1170 2040.2 1191.2 2040.2 1233.6 2076.9 1212.4" fill="#1553a3"/>
          <polygon points="2076.9 1294 2076.9 1251.6 2040.2 1272.8 2040.2 1315.2 2076.9 1294" fill="#1553a3"/>
          <polygon points="2076.9 1375.5 2076.9 1333.1 2040.2 1354.3 2040.2 1396.7 2076.9 1375.5" fill="#1553a3"/>
          <polygon points="1935.6 1294 1935.6 1251.6 1898.9 1272.8 1898.9 1315.2 1935.6 1294" fill="#1553a3"/>
          <polygon points="1935.6 1375.5 1935.6 1333.1 1898.9 1354.3 1898.9 1396.8 1935.6 1375.5" fill="#1553a3"/>
          <polygon points="1935.6 1457.1 1935.6 1414.7 1898.9 1435.9 1898.9 1478.3 1935.6 1457.1" fill="#1553a3"/>
          <polygon points="1935.6 804.7 1935.6 762.3 1898.9 783.5 1898.9 825.9 1935.6 804.7" fill="#1553a3"/>
          <polygon points="1935.6 886.2 1935.6 843.8 1898.9 865 1898.9 907.4 1935.6 886.2" fill="#1553a3"/>
          <polygon points="1935.6 967.8 1935.6 925.4 1898.9 946.6 1898.9 989 1935.6 967.8" fill="#1553a3"/>
          <polygon points="1935.6 1049.3 1935.6 1006.9 1898.9 1028.1 1898.9 1070.5 1935.6 1049.3" fill="#1553a3"/>
          <polygon points="1935.6 1130.9 1935.6 1088.5 1898.9 1109.7 1898.9 1152.1 1935.6 1130.9" fill="#1553a3"/>
          <polygon points="1935.6 1212.4 1935.6 1170 1898.9 1191.2 1898.9 1233.6 1935.6 1212.4" fill="#1553a3"/>
        </g>
        <g>
          <polygon points="1682.4 723.1 1682.4 680.7 1719.1 701.9 1719.1 744.3 1682.4 723.1" fill="#327fca"/>
          <polygon points="1753 763.9 1753 721.5 1789.8 742.7 1789.8 785.1 1753 763.9" fill="#327fca"/>
          <polygon points="1753 845.4 1753 803 1789.8 824.2 1789.8 866.6 1753 845.4" fill="#327fca"/>
          <polygon points="1753 927 1753 884.6 1789.8 905.8 1789.8 948.2 1753 927" fill="#327fca"/>
          <polygon points="1753 1008.6 1753 966.1 1789.8 987.4 1789.8 1029.8 1753 1008.6" fill="#327fca"/>
          <polygon points="1753 1090.1 1753 1047.7 1789.8 1068.9 1789.8 1111.3 1753 1090.1" fill="#327fca"/>
          <polygon points="1753 1171.7 1753 1129.3 1789.8 1150.5 1789.8 1192.9 1753 1171.7" fill="#327fca"/>
          <polygon points="1682.4 804.7 1682.4 762.3 1719.1 783.5 1719.1 825.9 1682.4 804.7" fill="#327fca"/>
          <polygon points="1682.4 886.2 1682.4 843.8 1719.1 865 1719.1 907.4 1682.4 886.2" fill="#327fca"/>
          <polygon points="1682.4 967.8 1682.4 925.4 1719.1 946.6 1719.1 989 1682.4 967.8" fill="#327fca"/>
          <polygon points="1682.4 1049.3 1682.4 1006.9 1719.1 1028.1 1719.1 1070.5 1682.4 1049.3" fill="#327fca"/>
          <polygon points="1682.4 1130.9 1682.4 1088.5 1719.1 1109.7 1719.1 1152.1 1682.4 1130.9" fill="#327fca"/>
          <polygon points="1753 1253.2 1753 1210.8 1789.8 1232 1789.8 1274.4 1753 1253.2" fill="#327fca"/>
          <polygon points="1753 1334.8 1753 1292.4 1789.8 1313.6 1789.8 1356 1753 1334.8" fill="#327fca"/>
          <polygon points="1753 1416.3 1753 1373.9 1789.8 1395.1 1789.8 1437.5 1753 1416.3" fill="#327fca"/>
          <polygon points="1682.4 1212.4 1682.4 1170 1719.1 1191.2 1719.1 1233.6 1682.4 1212.4" fill="#327fca"/>
          <polygon points="1682.4 1294 1682.4 1251.6 1719.1 1272.8 1719.1 1315.2 1682.4 1294" fill="#327fca"/>
          <polygon points="1682.4 1375.5 1682.4 1333.1 1719.1 1354.3 1719.1 1396.7 1682.4 1375.5" fill="#327fca"/>
          <polygon points="1823.7 1294 1823.7 1251.6 1860.4 1272.8 1860.4 1315.2 1823.7 1294" fill="#327fca"/>
          <polygon points="1823.7 1375.5 1823.7 1333.1 1860.4 1354.3 1860.4 1396.8 1823.7 1375.5" fill="#327fca"/>
          <polygon points="1823.7 1457.1 1823.7 1414.7 1860.4 1435.9 1860.4 1478.3 1823.7 1457.1" fill="#327fca"/>
          <polygon points="1823.7 804.7 1823.7 762.3 1860.4 783.5 1860.4 825.9 1823.7 804.7" fill="#327fca"/>
          <polygon points="1823.7 886.2 1823.7 843.8 1860.4 865 1860.4 907.4 1823.7 886.2" fill="#327fca"/>
          <polygon points="1823.7 967.8 1823.7 925.4 1860.4 946.6 1860.4 989 1823.7 967.8" fill="#327fca"/>
          <polygon points="1823.7 1049.3 1823.7 1006.9 1860.4 1028.1 1860.4 1070.5 1823.7 1049.3" fill="#327fca"/>
          <polygon points="1823.7 1130.9 1823.7 1088.5 1860.4 1109.7 1860.4 1152.1 1823.7 1130.9" fill="#327fca"/>
          <polygon points="1823.7 1212.4 1823.7 1170 1860.4 1191.2 1860.4 1233.6 1823.7 1212.4" fill="#327fca"/>
        </g>
      </g>
      <g>
        <g>
          <polygon points="1860.1 945 1860.1 1542 1239.7 1900.3 1239.7 1303.2 1860.1 945" fill="#1a63b6"/>
          <g>
            <polygon points="1860.1 945 1653.3 825.6 1239.7 1064.4 1032.8 945 826 1064.4 1239.7 1303.2 1860.1 945" fill="#559fe0"/>
            <polygon points="1827 945 1653.3 844.7 1239.7 1083.5 1032.8 964.1 859.1 1064.4 1239.7 1284.1 1827 945" fill="#559fe0"/>
            <polygon points="1239.7 1303.2 826 1064.4 826 1661.4 1239.7 1900.3 1239.7 1303.2" fill="#4b94db"/>
          </g>
        </g>
        <g>
          <g>
            <polygon points="1752.6 1086.7 1752.6 1026.2 1657.4 1081.1 1657.4 1141.6 1752.6 1086.7" fill="#1553a3"/>
            <polygon points="1856 1027 1856 966.5 1760.8 1021.4 1760.8 1081.9 1856 1027" fill="#1553a3"/>
            <polygon points="1649.2 1146.4 1649.2 1085.9 1554 1140.8 1554 1201.4 1649.2 1146.4" fill="#1553a3"/>
            <polygon points="1545.8 1206.1 1545.8 1145.6 1450.6 1200.5 1450.6 1261.1 1545.8 1206.1" fill="#1553a3"/>
            <polygon points="1442.4 1265.8 1442.4 1205.3 1347.2 1260.2 1347.2 1320.8 1442.4 1265.8" fill="#1553a3"/>
            <polygon points="1339 1325.5 1339 1265 1243.8 1320 1243.8 1380.5 1339 1325.5" fill="#1553a3"/>
          </g>
          <g>
            <polygon points="1752.6 1157.7 1752.6 1097.2 1657.4 1152.1 1657.4 1212.7 1752.6 1157.7" fill="#1553a3"/>
            <polygon points="1856 1098 1856 1037.5 1760.8 1092.4 1760.8 1153 1856 1098" fill="#1553a3"/>
            <polygon points="1649.2 1217.4 1649.2 1156.9 1554 1211.8 1554 1272.4 1649.2 1217.4" fill="#1553a3"/>
            <polygon points="1545.8 1277.1 1545.8 1216.6 1450.6 1271.6 1450.6 1332.1 1545.8 1277.1" fill="#1553a3"/>
            <polygon points="1442.4 1336.8 1442.4 1276.3 1347.2 1331.3 1347.2 1391.8 1442.4 1336.8" fill="#1553a3"/>
            <polygon points="1339 1396.5 1339 1336 1243.8 1391 1243.8 1451.5 1339 1396.5" fill="#1553a3"/>
          </g>
          <g>
            <polygon points="1752.6 1228.7 1752.6 1168.2 1657.4 1223.2 1657.4 1283.7 1752.6 1228.7" fill="#1553a3"/>
            <polygon points="1856 1169 1856 1108.5 1760.8 1163.5 1760.8 1224 1856 1169" fill="#1553a3"/>
            <polygon points="1649.2 1288.4 1649.2 1227.9 1554 1282.9 1554 1343.4 1649.2 1288.4" fill="#1553a3"/>
            <polygon points="1545.8 1348.1 1545.8 1287.6 1450.6 1342.6 1450.6 1403.1 1545.8 1348.1" fill="#1553a3"/>
            <polygon points="1442.4 1407.9 1442.4 1347.3 1347.2 1402.3 1347.2 1462.8 1442.4 1407.9" fill="#1553a3"/>
            <polygon points="1339 1467.6 1339 1407 1243.8 1462 1243.8 1522.5 1339 1467.6" fill="#1553a3"/>
          </g>
          <g>
            <polygon points="1752.6 1299.7 1752.6 1239.2 1657.4 1294.2 1657.4 1354.7 1752.6 1299.7" fill="#1553a3"/>
            <polygon points="1856 1240 1856 1179.5 1760.8 1234.5 1760.8 1295 1856 1240" fill="#1553a3"/>
            <polygon points="1649.2 1359.5 1649.2 1298.9 1554 1353.9 1554 1414.4 1649.2 1359.5" fill="#1553a3"/>
            <polygon points="1545.8 1358.6 1545.8 1419.2 1531.7 1427.3 1453.3 1472.6 1450.6 1474.1 1450.6 1413.6 1468.2 1403.5 1500.3 1384.9 1545.8 1358.6" fill="#1553a3"/>
            <polygon points="1442.4 1478.9 1442.4 1418.4 1347.2 1473.3 1347.2 1533.8 1442.4 1478.9" fill="#1553a3"/>
            <polygon points="1339 1538.6 1339 1478.1 1243.8 1533 1243.8 1593.5 1339 1538.6" fill="#1553a3"/>
          </g>
          <g>
            <polygon points="1752.6 1370.8 1752.6 1310.2 1657.4 1365.2 1657.4 1425.7 1752.6 1370.8" fill="#1553a3"/>
            <polygon points="1856 1311.1 1856 1250.5 1760.8 1305.5 1760.8 1366 1856 1311.1" fill="#1553a3"/>
            <polygon points="1649.2 1430.5 1649.2 1370 1554 1424.9 1554 1485.4 1649.2 1430.5" fill="#1553a3"/>
            <polygon points="1545.8 1429.7 1545.8 1490.2 1514.1 1508.4 1514.1 1508.5 1450.6 1545.1 1450.6 1484.6 1450.7 1484.6 1529 1439.3 1545.8 1429.7" fill="#1553a3"/>
            <polygon points="1442.4 1549.9 1442.4 1489.4 1347.2 1544.3 1347.2 1604.8 1442.4 1549.9" fill="#1553a3"/>
            <polygon points="1339 1609.6 1339 1549.1 1243.8 1604 1243.8 1664.5 1339 1609.6" fill="#1553a3"/>
          </g>
          <g>
            <polygon points="1752.6 1441.8 1752.6 1381.3 1657.4 1436.2 1657.4 1496.7 1752.6 1441.8" fill="#1553a3"/>
            <polygon points="1856 1382.1 1856 1321.6 1760.8 1376.5 1760.8 1437 1856 1382.1" fill="#1553a3"/>
            <polygon points="1649.2 1501.5 1649.2 1441 1554 1495.9 1554 1556.4 1649.2 1501.5" fill="#1553a3"/>
            <polygon points="1545.8 1561.2 1545.8 1500.7 1450.6 1555.6 1450.6 1616.1 1545.8 1561.2" fill="#1553a3"/>
            <polygon points="1442.4 1620.9 1442.4 1560.4 1347.2 1615.3 1347.2 1675.8 1442.4 1620.9" fill="#1553a3"/>
            <polygon points="1339 1680.6 1339 1620.1 1243.8 1675 1243.8 1735.6 1339 1680.6" fill="#1553a3"/>
          </g>
          <g>
            <polygon points="1752.6 1512.8 1752.6 1452.3 1657.4 1507.2 1657.4 1567.7 1752.6 1512.8" fill="#1553a3"/>
            <polygon points="1856 1453.1 1856 1392.6 1760.8 1447.5 1760.8 1508 1856 1453.1" fill="#1553a3"/>
            <polygon points="1649.2 1572.5 1649.2 1512 1554 1566.9 1554 1627.4 1649.2 1572.5" fill="#1553a3"/>
            <polygon points="1545.8 1632.2 1545.8 1571.7 1450.6 1626.6 1450.6 1687.2 1545.8 1632.2" fill="#1553a3"/>
            <polygon points="1442.4 1691.9 1442.4 1631.4 1347.2 1686.3 1347.2 1746.9 1442.4 1691.9" fill="#1553a3"/>
            <polygon points="1339 1751.6 1339 1691.1 1243.8 1746.1 1243.8 1806.6 1339 1751.6" fill="#1553a3"/>
          </g>
          <g>
            <polygon points="1752.6 1583.8 1752.6 1523.3 1657.4 1578.2 1657.4 1638.8 1752.6 1583.8" fill="#1553a3"/>
            <polygon points="1856 1524.1 1856 1463.6 1760.8 1518.5 1760.8 1579.1 1856 1524.1" fill="#1553a3"/>
            <polygon points="1649.2 1643.5 1649.2 1583 1554 1637.9 1554 1698.5 1649.2 1643.5" fill="#1553a3"/>
            <polygon points="1545.8 1703.2 1545.8 1642.7 1450.6 1697.7 1450.6 1758.2 1545.8 1703.2" fill="#1553a3"/>
            <polygon points="1442.4 1762.9 1442.4 1702.4 1347.2 1757.4 1347.2 1817.9 1442.4 1762.9" fill="#1553a3"/>
            <polygon points="1339 1822.6 1339 1762.1 1243.8 1817.1 1243.8 1877.6 1339 1822.6" fill="#1553a3"/>
          </g>
        </g>
        <g>
          <g>
            <polygon points="830.2 1146.4 830.2 1085.9 925.3 1140.8 925.3 1201.4 830.2 1146.4" fill="#327fca"/>
            <polygon points="933.6 1206.1 933.6 1145.6 1028.7 1200.5 1028.7 1261.1 933.6 1206.1" fill="#327fca"/>
            <polygon points="1037 1265.8 1037 1205.3 1132.1 1260.2 1132.1 1320.8 1037 1265.8" fill="#327fca"/>
            <polygon points="1140.4 1325.5 1140.4 1265 1235.5 1320 1235.5 1380.5 1140.4 1325.5" fill="#327fca"/>
          </g>
          <g>
            <polygon points="830.2 1217.4 830.2 1156.9 925.3 1211.8 925.3 1272.4 830.2 1217.4" fill="#327fca"/>
            <polygon points="933.6 1277.1 933.6 1216.6 1028.7 1271.6 1028.7 1332.1 933.6 1277.1" fill="#327fca"/>
            <polygon points="1037 1336.8 1037 1276.3 1132.1 1331.3 1132.1 1391.8 1037 1336.8" fill="#327fca"/>
            <polygon points="1140.4 1396.5 1140.4 1336 1235.5 1391 1235.5 1451.5 1140.4 1396.5" fill="#327fca"/>
          </g>
          <g>
            <polygon points="830.2 1288.4 830.2 1227.9 925.3 1282.9 925.3 1343.4 830.2 1288.4" fill="#327fca"/>
            <polygon points="933.6 1348.1 933.6 1287.6 1028.7 1342.6 1028.7 1403.1 933.6 1348.1" fill="#327fca"/>
            <polygon points="1037 1407.9 1037 1347.3 1132.1 1402.3 1132.1 1462.8 1037 1407.9" fill="#327fca"/>
            <polygon points="1140.4 1467.6 1140.4 1407 1235.5 1462 1235.5 1522.5 1140.4 1467.6" fill="#327fca"/>
          </g>
          <g>
            <polygon points="830.2 1359.5 830.2 1298.9 925.3 1353.9 925.3 1414.4 830.2 1359.5" fill="#327fca"/>
            <polygon points="1028.7 1413.6 1028.7 1474.1 1018 1468 957 1432.7 933.6 1419.2 933.6 1358.6 968.7 1378.9 1028.7 1413.6" fill="#327fca"/>
            <polygon points="1037 1478.9 1037 1418.4 1132.1 1473.3 1132.1 1533.8 1037 1478.9" fill="#327fca"/>
            <polygon points="1140.4 1538.6 1140.4 1478.1 1235.5 1533 1235.5 1593.5 1140.4 1538.6" fill="#327fca"/>
          </g>
          <g>
            <polygon points="830.2 1430.5 830.2 1370 925.3 1424.9 925.3 1485.4 830.2 1430.5" fill="#327fca"/>
            <polygon points="1028.7 1484.6 1028.7 1545.1 1004.4 1531.1 943.5 1495.9 933.6 1490.2 933.6 1429.7 955 1442.1 1016 1477.3 1028.7 1484.6" fill="#327fca"/>
            <polygon points="1037 1549.9 1037 1489.4 1132.1 1544.3 1132.1 1604.8 1037 1549.9" fill="#327fca"/>
            <polygon points="1140.4 1609.6 1140.4 1549.1 1235.5 1604 1235.5 1664.5 1140.4 1609.6" fill="#327fca"/>
          </g>
          <g>
            <polygon points="830.2 1501.5 830.2 1441 925.3 1495.9 925.3 1556.4 830.2 1501.5" fill="#327fca"/>
            <polygon points="1028.7 1555.6 1028.7 1616.1 990.8 1594.3 933.6 1561.2 933.6 1500.7 941.4 1505.2 1002.4 1540.5 1028.7 1555.6" fill="#327fca"/>
            <polygon points="1037 1620.9 1037 1560.4 1132.1 1615.3 1132.1 1675.8 1037 1620.9" fill="#327fca"/>
            <polygon points="1140.4 1680.6 1140.4 1620.1 1235.5 1675 1235.5 1735.6 1140.4 1680.6" fill="#327fca"/>
          </g>
          <g>
            <polygon points="830.2 1572.5 830.2 1512 925.3 1566.9 925.3 1627.4 830.2 1572.5" fill="#327fca"/>
            <polygon points="933.6 1632.2 933.6 1571.7 1028.7 1626.6 1028.7 1687.2 933.6 1632.2" fill="#327fca"/>
            <polygon points="1037 1691.9 1037 1631.4 1132.1 1686.3 1132.1 1746.9 1037 1691.9" fill="#327fca"/>
            <polygon points="1140.4 1751.6 1140.4 1691.1 1235.5 1746.1 1235.5 1806.6 1140.4 1751.6" fill="#327fca"/>
          </g>
          <g>
            <polygon points="830.2 1643.5 830.2 1583 925.3 1637.9 925.3 1698.5 830.2 1643.5" fill="#327fca"/>
            <polygon points="933.6 1703.2 933.6 1642.7 1028.7 1697.7 1028.7 1758.2 933.6 1703.2" fill="#327fca"/>
            <polygon points="1037 1762.9 1037 1702.4 1132.1 1757.4 1132.1 1817.9 1037 1762.9" fill="#327fca"/>
            <polygon points="1140.4 1822.6 1140.4 1762.1 1235.5 1817.1 1235.5 1877.6 1140.4 1822.6" fill="#327fca"/>
          </g>
        </g>
      </g>
    </g>
    <path d="M2494.3,850.8l-347.4,54.3c-66.9,182.6-268.4,298.4-470.1,380.9-280.8,111.7-654.6,160.9-946.2,109.6-169.9-32-316.3-84.8-396.7-206.8L0,1241c2.7,115.3,75.1,212.7,167,280,270.2,194.1,698.2,213.4,1023.3,179.9,380.4-41.2,813.2-169.1,1104.3-422.1,121.5-108.6,232.2-259.7,199.8-428Z" fill="#ff8666"/>
    <g id="business_startup">
      <g>
        <path d="M1236.8,1064.3l-52.9-119.3s392.4-165.2,420.6-176.2c35.5-14,77.8,93.2,49,106.6-44.1,20.5-416.7,188.9-416.7,188.9Z" fill="#e9f0f7"/>
        <g>
          <path d="M1657.3,725.2c-19.8,9.9-37.2,46.6-37.2,46.6,0,0-30.2,13.9-5.7,57.5,26.2,46.6,40.9,28.6,40.9,28.6,0,0,73.2-34.4,91.3-44.9,18.1-10.5,15.4-68.5-10.6-78s-58.9-19.8-78.7-9.9Z" fill="#ffc5b3"/>
          <path d="M1746.6,813.1c-9.8,5.7-55.5,20.6-61.8,19.2-20-9.3-15.3-29.5-15.3-29.5-10.6-3.7-18.8-25.6,3.7-36.1,24.2-11.4,19.1-18.6,19.1-18.6,0,0,37.9,6.3,62.9,12.1,6,20.4,2.9,46.2-8.7,52.9Z" fill="#f2a29b"/>
          <path d="M1746.1,820.1c-8.1,0-15.7-4.7-19.1-12.5-4.6-10.6.2-22.9,10.8-27.5.2,0,.4-.2.7-.3,6.9-2.9,9.7-5.9,10.4-6.9,0-.3-.3-1-.9-2-1.4-2.7-3.3-5.1-9.5-5.2-4.8,0-9.3,1.4-9.3,1.4-10.8,4.1-22.8-1.3-27-12-4.1-10.8,1.3-22.8,12-27,1.9-.7,12.2-4.4,25.1-4.2,20.1.4,36.2,10,45.4,27.1,8.1,15,6.4,27.6,3.6,35.6-4.7,13.4-16.7,24.6-33.8,31.7h-.1c-2.7,1.2-5.5,1.8-8.2,1.8ZM1748.8,773.2h0Z" fill="#e88282"/>
          <path d="M1655.3,858s39.1,17.6,63.4,7.5c19.7-8.2,42.6-26,50.6-32.6,1.9-1.6,2.8-4.1,2.2-6.6-1.9-7.5-8-22.4-26.6-18.8-24.6,4.9-95,42.5-95,42.5l5.3,7.9Z" fill="#ffc5b3"/>
          <path d="M1769.2,819.7c-11.7-22.3-49.6,4.4-59.5,9.9-11.5,6.4-24.5,2.9-24.9,2.7,21.4-10.5,47.2-22.2,60.1-24.8,13.9-2.8,20.8,4.9,24.2,12.1Z" fill="#f2a29b"/>
          <path d="M1739.3,813.6c-7.7,0-15.1-4.3-18.8-11.7-5.1-10.3-.8-22.9,9.5-27.9.3-.2.9-.4,1.6-.7,7.5-3.3,9.8-6,10.3-6.9,0-.4-.3-1-.9-2-4.5-8.4-16.7-4.6-19-3.7h.2c0,0-14.9-39.1-14.9-39.1,1.9-.7,12.2-4.4,25.1-4.2,20.1.4,36.2,10,45.4,27.1,8,14.8,6.4,27.3,3.7,35.2-4.6,13.4-15.8,24.1-33.2,31.7h-.3c-2.9,1.5-5.9,2.1-8.9,2.1ZM1748.5,811.4c0,0-.1,0-.2,0,0,0,.1,0,.2,0Z" fill="#e89490"/>
          <path d="M1721.4,818c-8.2,0-16.1-4.5-20.1-12.3-5.6-11.1-1.2-24.6,9.9-30.2.7-.4,1.3-.6,1.9-.9,1.3-.6,2.4-1.3,3.3-2.1,4.9-4.2,1-12.1-5.3-11.2-2.1.3-4.3,1-6.5,2.4-12.7,7.8-43.4-24.4-24.6-37.6,8.1-5.6,58.6-26.5,83,17.5,8.8,15.8,6.9,29.3,4,37.8-3.4,10-12.4,24.1-35.8,34.4h-.2c-3.1,1.5-6.4,2.2-9.6,2.2ZM1731.5,815.6c-.1,0-.3.1-.4.2.2,0,.3-.2.4-.2Z" fill="#f2a29b"/>
          <path d="M1695.6,829.1c-7.7,0-15.2-4-19.4-11.1-6.3-10.7-2.7-24.5,8-30.8l.7-.4s0,0,0,0c4.7-2.7,4.5-9.6-.5-11.7-9-4-21,0-21.1,0-12.1,2.7-14.2-13.4-16.8-25.5-2.7-12.1,5-24.1,17.1-26.8,19.8-4.3,60.9-2.7,74.8,34.7,9.7,26-1.9,51.5-31.2,68.3l-.3.2c-3.6,2.1-7.5,3.1-11.3,3.1Z" fill="#ffc5b3"/>
        </g>
      </g>
      <g>
        <path d="M340.3,833.6c-30.4,9.6-45.2,36.5-51.1,63.3-5.9,26.8-4.3,36.8-14.1,57.9-9.8,21-36.4,65.4-23.1,109.4,13.2,44.1,43.4,52.5,79.4,31.8,28.9-16.6,30.6-58.2,32.1-83.7,1.5-25.5,9.1-46,22.6-56.1,13.5-10.1,45.1-57.2,25.1-79.6-20-22.4-23.7-27.5-29.7-33.4-6-5.9-18.9-16.6-41.2-9.6Z" fill="#071f3b"/>
        <g>
          <path d="M943.4,1092.2l-5.5,103.9-4,75.4c-440.7,39.6-583.8-262.4-619.8-313.3-6.3-8.9-5.8-19.1-1.1-29.4,16.6-36.1,85.6-72.7,100.4-53.1,68.4,90.5,201.4,274.1,529.9,216.5Z" fill="#114077"/>
          <path d="M938,1196l-4,75.4c-440.7,39.6-583.8-262.4-619.8-313.3-6.3-8.9-5.8-19.1-1.1-29.4,20.2,32.8,71.7,111.2,140,176.4,58.7,56,147.2,92.9,222.2,62,55.2-22.7,124.6-40.8,174.5-17.8,33.8,15.5,62.5,19.7,88.1,46.7Z" fill="#0c3461"/>
        </g>
      </g>
      <g>
        <path d="M411,1148.9s-1.5-3-3.3-6.7c-1.8-3.7-4.2-31.4-15.6-50.2-11.4-18.8-12.9-23.2-22.8-24.6-21.5-3.2-64.6,18.9-74.4,19.4-15.2.9-49.1,10.3-75.2,26.2-24,14.7-38.7,34.6-44.6,46.8-7.5,15.6,0,48,30.1,48.1,4.2,0,61.6-16.9,78-12.1,14.2,4.2,23.8,7.2,28.5,12.8,1.6,1.9,1.9,2.6,3,4.7,14,27.7,108.2-40.3,96.3-64.5Z" fill="#082647"/>
        <path d="M828.4,1340.2c-39.9,70.7-156.2,112.9-272.1,99.2-143.9-17-248.2-197.4-256.2-230.7-2.1-8.9,4.3-19,15.2-28.3,29.7-25.6,92.3-46.2,102.3-26.2,10,19.8,74.2,134.1,153.9,119.7,68.5-12.3,91.3-142.9,204-137.4,4.2.2,8.3.6,12.1,1.2,88.8,13.5,84.9,124.4,40.8,202.5Z" fill="#114077"/>
        <path d="M828.4,1340.2c-39.9,70.7-156.2,112.9-272.1,99.2-143.9-17-248.2-197.4-256.2-230.7-2.1-8.9,4.3-19,15.2-28.3,18.8,48.3,54.4,153.6,200.2,195,122.2,34.7,214.4-33.8,214.8-74.9.3-32.8-.9-63.2,10.9-93.7,6.2-16.2,24.8-57.8,46.5-69,88.8,13.5,84.9,124.4,40.8,202.5Z" fill="#0c3461"/>
      </g>
      <g>
        <path d="M1307.5,1083.9c-10.9,43.4-4.3,100.6-69.8,153.1-14.7,11.8-33.2,23.4-56.3,34.6-166.1,80-270.3,80.6-323.2,84.8-36.3,2.9-74.6-16.1-95.7-52.2-2.9-4.9-5.4-10.1-7.6-15.6-34.3-86.8,6.7-161.1,41-177.4,2-1,4.1-1.9,6.2-2.8,42.4-18.4,233.3-108.7,233.3-108.7,18.2-9.9,42.7-22,64-31.8,101.2-46.4,152.7-21.9,152.7-21.9,30.8,9.8,47.7,27.4,56,48.5,10.5,26.9,6.8,59.6-.7,89.5Z" fill="#e9f0f7"/>
        <path d="M1237.7,1237c-14.7,11.8-33.2,23.4-56.3,34.6-166.1,80-270.3,80.6-323.2,84.8-36.3,2.9-74.6-16.1-95.7-52.2,30.9-26,67.5-45.2,105.2-52.1,23-4.3,120.9-19.3,145-12.8,57.3,90.6,224.9-2.2,224.9-2.2Z" fill="#aec7e6"/>
      </g>
      <path d="M1053.8,1548.4c-40.8,0-118.1-11.8-158.3-45.7-37.3-31.4-59.7-75.5-64.8-127.5-5.1-52.2,8-111.2,36-161.9,13.6-24.7,61.1-96.4,125.2-111.4,89.1-20.9,133.5,108.9,53.4,135.2-80.1,26.2-88,106.1-84,130.9,2.4,15.1,25.6,62.3,92.7,58.8,41.1-2.1,45,121.7-.3,121.7Z" fill="#e9f0f7"/>
      <g>
        <path d="M1183,977.4s-12.8,3.9-25.7,10.2c-46,22.5-10.4,150.3,94.6,91.1,33.4-18.8,25.3-51.7,13.6-68.3-19.6-27.8-61.9-40.6-82.5-33.1Z" fill="#f2a29b"/>
        <g>
          <g>
            <path d="M1251.9,1078.7l-6.9,45.5s-77.3.8-111.9-55.8c-23.7-38.6-10.1-77.4,44.4-87.2,0,0-37.4,26.2-7,71.5,26.7,39.7,81.3,26.1,81.3,26.1Z" fill="#aec7e6"/>
            <path d="M1251.9,1078.7l26.6,26.1s32.2-46.7-11.3-89c0,0,15.1,33.9-15.3,62.8Z" fill="#aec7e6"/>
          </g>
          <path d="M1251.7,1108.1s26.9,87.1-56,79.9c0,0,15.6,15.5,68.7-3.8,36.2-28.8,5.9-90.2,5.9-90.2l5.2-34.4-23.5,19-38.1,16.6,37.9,12.9Z" fill="#0c3461"/>
          <g>
            <path d="M1251.9,1078.7l-9.3,36.9s-75.9,1.2-110.1-54.2c-23.4-37.9-3.2-74.5,50.5-84,0,0-43.5,24.2-13.4,68.7,26.3,38.9,82.3,32.6,82.3,32.6Z" fill="#e9f0f7"/>
            <path d="M1251.9,1078.7l25.5,16.8s31-43.5-11.9-85c0,0,16.9,39.4-13.6,68.3Z" fill="#e9f0f7"/>
          </g>
        </g>
      </g>
      <g>
        <path d="M1143.9,1541.7c-14.6,6.1-47.7,3.3-65.4,1.2-22.3-2.6-45.7-14.3-47.9-51.2-2.2-36.9,27.2-49.1,27.2-49.1,0,0,58.4-19.1,78.2-25.9,19.8-6.8,61.8,33.2,52,59.1-9.8,25.9-23.6,57.5-44.1,66Z" fill="#ffc5b3"/>
        <path d="M1136,1416.7c-10.7,3.7-52,28.4-55,34.1-6,21.2,12.2,30.8,12.2,30.8-4.1,10.5,7,31,29.7,20.9,24.4-10.9,26.6-2.2,26.6-2.2,0,0,20.1-32.8,32.1-55.4-11.5-17.9-33.1-32.5-45.6-28.1Z" fill="#f2a29b"/>
        <path d="M1137.1,1407.4h.1c16.5-8.3,32.9-10,46.1-4.8,7.9,3.1,18.5,10.1,24.5,26,6.9,18.2,3.6,36.7-9.2,52.1-8.3,9.9-17.8,15.3-19.6,16.2-10.2,5.4-22.8,1.6-28.2-8.6-5.4-10.2-1.6-22.8,8.6-28.2,0,0,4.1-2.4,7.2-6.1,4-4.8,3.4-7.7,2.3-10.6-.4-1.1-.8-1.7-1-2-1.2-.2-5.4,0-12,3.3-.3.1-.5.3-.7.3-10.4,5-22.9.6-27.8-9.8-3.7-7.7-2.2-16.6,3.1-22.7,1.8-2.1,4.1-3.8,6.7-5.1ZM1167.7,1441.1h0Z" fill="#e88282"/>
        <path d="M1042.3,1456.3s12.3-41.1,35.9-52.8c19.1-9.5,47.6-15.1,57.8-16.9,2.5-.4,5,.6,6.4,2.7,4.4,6.4,11.7,20.8-3.2,32.4-19.8,15.4-94.4,43.9-94.4,43.9l-2.4-9.2Z" fill="#ffc5b3"/>
        <path d="M1145.9,1395.3c9.2,23.5-35.8,34.6-46.4,38.4-12.4,4.5-18.2,16.7-18.4,17,22-9.3,47.7-21.1,58.1-29.2,11.2-8.7,9.9-19,6.7-26.2Z" fill="#f2a29b"/>
        <path d="M1138.2,1416.5h.3c17.2-8.3,32.6-9.7,45.7-4.4,7.7,3.1,18.2,10.1,24.1,25.9,6.9,18.2,3.6,36.7-9.2,52.1-8.2,9.9-17.8,15.3-19.6,16.2l-19.7-36.8h-.2c2.2-1.1,13-7.8,9.7-16.7-.4-1.1-.8-1.7-1-2-1-.1-4.6-.2-12,3.3-.7.3-1.3.6-1.6.7-10.6,4.5-22.9-.5-27.4-11.1-3.2-7.6-1.6-16,3.5-21.8,2-2.3,4.4-4.1,7.3-5.4ZM1138.3,1416.4c0,0,.1,0,.2,0,0,0-.1,0-.2,0Z" fill="#e89490"/>
        <path d="M1123.7,1426.7h.2c23-11,39.6-8.6,49.4-4.6,8.3,3.4,19.8,10.8,25.9,27.7,17.2,47.3-31.6,71.8-41.2,74.2-22.2,5.6-26.5-38.7-12.3-43.2,2.5-.8,4.4-2,6-3.3,4.9-4.2,1.4-12.3-4.9-11.3-1.2.2-2.4.5-3.7,1.1-.6.3-1.2.6-1.9.8-11.5,4.7-24.6-.9-29.3-12.4-3.3-8.1-1.5-17,3.8-23.2,2.1-2.4,4.8-4.5,7.9-5.8ZM1123.8,1426.6c.1,0,.3-.1.4-.2-.1,0-.3.1-.4.2Z" fill="#f2a29b"/>
        <path d="M1090.5,1444.8c-5.1,5.8-7,14.1-4.3,22,4,11.8,16.7,18.1,28.5,14.1l.8-.3s0,0,0,0c5.1-1.8,10.2,2.9,8.6,8-2.9,9.4-13.8,15.8-13.9,15.9-10,7.4.8,19.5,8.2,29.4,7.4,10,21.5,12,31.5,4.6,16.2-12.1,41.9-44.2,22.8-79.3-13.3-24.4-40.2-32.3-72-21.2h-.4c-3.9,1.5-7.2,3.8-9.8,6.7Z" fill="#ffc5b3"/>
      </g>
      <g>
        <g>
          <path d="M1241.1,962.1c-31.2,17.2-272.4,128.2-295.1,136.7-12.4,4.6-21,.9-29.2-5.3-9.5-7.2-18.5-17.8-32.3-22.6-41.7-14.6-91.9,7-134.1,11.4-75.3,7.8-151.3,7.6-226.7,12.7-50.5,3.4-101.7,7.3-151.3,15.7-14,2.4-27.4,5.8-41.1,9.5-5.6,1.5-12.6,2.4-17.8,4.8-15.9,7.3-20.5,23-33.7,34.2,17.8-35.9,39.6-54.9,51.2-65.5,22.6-20.8,47.8-31.3,77-39.2,18.4-5,37.1-7.9,55.3-11.5,33.9-6.7,66-15.8,90.9-44.5,22.6-26.1,34.4-54.1,42.3-87.5,6.5-27.3,13.3-50.6,29.4-71.7,3.3-4.4,7.1-8.7,11.3-12.9,22.4-22.3,49.5-31.7,76.3-43.3,14.5-6.3,29-13.3,42.6-23.3,12.4-9.1,23.8-19.6,35.1-30.5,33.3-32,64.7-66.6,113.1-75.9,1.5,12-7.5,23.4-6.9,35.8.8,15.9,8,27.9,19.3,37.8,22.5,19.8,49.9,32.7,78,42.5,55.3,19.2,109.1,34,159.7,64.7,30.7,18.7,47.9,36.5,66.2,67.1,4.6,7.8,15.6,23.9,21.3,37.8,4.3,10.4,5.6,19.5-.7,23Z" fill="#ed4944"/>
          <g>
            <path d="M708.2,976.4c29.9,13.4,67.2,3.1,96.3,15.1-29,15.5-69.5,18-101.5,22-21.1,2.7-42.1,5.5-63.2,8.3-46.7,6.3-93,11.3-139.9,16.3-12.5,1.4-24.7,2.9-36.6,4.7,33.9-6.7,66-15.8,90.9-44.5,22.6-26.1,34.4-54.1,42.3-87.5,6.5-27.3,13.3-50.6,29.4-71.7,0,5.8.3,11.3.8,16.1,3.3,34.1,18.6,71.6,43.2,95.9,10.3,10.2,25.2,19.4,38.4,25.3Z" fill="#cc3131"/>
            <path d="M713.4,783c14.5-6.3,29-13.3,42.6-23.3,12.4-9.1,23.8-19.6,35.1-30.5,0,10.8,1.5,20.8,4.4,31.5,3.8,14,8.8,27.1,18.7,38,20.5,22.5,54.6,24.7,78.7,41-48.3,4.8-96.3-8.5-140.1-29.7-12-5.8-25.4-17.2-39.5-27Z" fill="#cc3131"/>
            <path d="M1241.1,962.1c-31.2,17.2-272.4,128.2-295.1,136.7-12.4,4.6-21,.9-29.2-5.3,7.3-1.1,15-3.2,22.1-5.5,13.2-4.3,22.9-8.7,30.3-20.8,7.3-11.9,16.7-17.8,29.2-23.3,32.6-14.2,42.8-8.2,45.9-8.2,5.5,0,14.1-3.4,19.2-5.2,10.2-3.5,19.4-10.6,29.1-14.9,16.2-7.2,31.9-15.4,48-23,15.6-7.4,30.6-15.7,45.1-24.2,17.4-10.2,36.4-20.9,56.1-29.3,4.3,10.4,5.6,19.5-.7,23Z" fill="#cc3131"/>
            <path d="M832.4,872.4s28,33.7,145.6,24.5c43.6-3.4,86.8-6.5,116.3,27.9,0,0-11.1-40.9-111.5-37.3-50.2,1.8-104.2-1-150.3-15.1Z" fill="#cc3131"/>
          </g>
        </g>
        <g>
          <path d="M1052.8,1085.3c8.2,38.3-42.5,54.6-51.2,34.8-.3-.6-.5-1.3-.7-2-3.6-12.9-10.5-30.2-15.8-42.9-3.8-9,.7-19.4,9.9-22.8l30-11.1c1.3-.5,2.6-.7,3.9-.8,5.7-.3,13.4,3.4,15.1,9.2,2.3,7.6,5.1,18,8.9,35.5Z" fill="#aec7e6"/>
          <path d="M1052.8,1085.3c7.6,35.6-37.4,49.6-45.6,31.2-.3-.6-.5-1.2-.7-1.8-3.3-12-9.7-28.1-14.7-39.8-3.5-8.4.7-18,9.2-21.2l27.9-10.3c1.2-.4,2.4-.7,3.6-.7,5.3-.2,10.2,3.1,11.8,8.4,2.1,7.1,4.9,18,8.4,34.3Z" fill="#e9f0f7"/>
        </g>
      </g>
      <g>
        <g>
          <g>
            <path d="M1347.6,1008.3c-57.3,28-179,34.5-258.1-73.2-60.4-82.2-66.4-208.5,43.2-259.9,106.4-49.9,187.2,6.4,203.5,49.5,0,0,25.4,87.1,35.2,118.1,36.6,115,6,150.9-23.8,165.5Z" fill="#ffc5b3"/>
            <path d="M1347.7,1008.3c-57.3,28-179,34.5-258.1-73.2-60.3-82.2-66.4-208.5,43.2-259.9,106.4-49.9,187.2,6.4,203.5,49.5,0,0,2.3,8,5.9,20.1-28.6,31-56,51.8-107.7,77.1-23.1,11.3-63.7,26.2-74.3,49.6-6.2,13.8,1.9,21.6,9.6,35.8,30.9,57.7,17.1,75.9,25.4,87.5,13.6,18.9,38.9,24.7,62.1,26.6,49.6,3.9,90.3-13.1,90.3-13.1Z" fill="#f2a29b"/>
          </g>
          <g>
            <path d="M1041,769s2.3-83.2,88.4-119.7c88-37.2,161.6,12,161.6,12,0,0,14-31.2,31.9-19.3,18,12,8,33.9,8,33.9,0,0,4.9-.9,10.6-2.6,9.1-2.7,18.4,3.5,19.4,13,1.8,17.9,1.8,42.2-17.6,59.7-25.4,22.9-123,78.6-179.3,97.3-16.1,5.3-25.1,22.4-20.3,38.7,5.5,18.6,12.3,26.8,27.7,55.1,2.4,4.3.9,9.7-3.3,12.3l-6.3,3.8s-3,33.2,1.5,47.2c0,0-87.3-6.1-135.2-135.6-21.8-59,13-95.9,13-95.9Z" fill="#114077"/>
            <path d="M1343.2,746.1c-25.4,22.9-123.1,78.7-179.3,97.3-16.1,5.3-25.1,22.5-20.2,38.7,5.5,18.5,12.2,26.7,27.6,55,2.4,4.4.9,9.8-3.3,12.4l-6.3,3.8s-3,33.2,1.5,47.2c0,0-86.3-6-134.3-133.4,5.9.6,11.8,1.3,17.7,1.7,13.3.9,27.8-.6,37.7-9.6,15.9-14.4,12.8-41.1,25.8-58.2,7.8-10.2,20.6-15.7,33.3-17.8,12.7-2.2,25.7-1.5,38.5-1.9,70.6-2.5,138.7-41.8,177.2-100.9,1,1.8,1.6,3.7,1.9,5.9,1.8,17.9,1.8,42.2-17.6,59.7Z" fill="#0c3461"/>
          </g>
          <path d="M1141.1,918.6c-5.6-9.8-18.8-12-27.1-4.3-10.9,10-20.7,26.3-9.4,48.9,25.2,50.7,76.5,25.6,76.5,25.6l-39.9-70.2Z" fill="#f2a29b"/>
          <path d="M1353.3,908.6c2.1-1.2,4.5,0,5.5,2.6l1.9,5c7.9,21.6.8,47-16,56.7-16.8,9.7-36.9,0-44.8-21.5l-1.9-5c-1-2.6,0-5.8,2-6.9l53.4-30.8Z" fill="#6a0000"/>
        </g>
        <g>
          <path d="M1252.9,865c2.4-1.3,5.2-2.2,8.5-2.2,3.2,0,6.8.7,10.8,2.5,1.2.5,1.8,2.1,1.4,3.5-.2.7-.6,1.3-1.1,1.5-.5.3-1.1.3-1.6,0-3.6-1.6-6.6-2.2-9.2-2.2-2.6,0-4.8.7-6.8,1.8-1.9,1-3.5,2.5-4.8,4-1.3,1.6-2.4,3.3-3.2,4.9-1.7,3.2-2.4,6-2.4,6l-.8-.4.8.4-.8-.4.8.4c-.2.7-.6,1.3-1.1,1.6-.5.3-1.1.3-1.6,0-1.2-.5-1.8-2-1.5-3.5,0-.1.5-1.9,1.5-4.4,1-2.5,2.7-5.7,5.1-8.6,1.6-1.9,3.6-3.8,6-5.1Z" fill="#0c3461"/>
          <path d="M1260.3,884.8c4.9-2.7,12.5,4.7,17.1,16.6,4.6,11.9,4.4,23.7-.5,26.4-4.9,2.7-12.5-4.7-17.1-16.6-4.6-11.9-4.4-23.7.5-26.4Z" fill="#0c3461"/>
          <path d="M1342.1,839.4c4.9-2.7,12.5,4.7,17.1,16.6,4.6,11.9,4.4,23.7-.5,26.4-4.9,2.7-12.5-4.7-17.1-16.6-4.6-11.9-4.4-23.7.5-26.4Z" fill="#0c3461"/>
          <path d="M1334.3,819.9c2.4-1.3,4.9-2,7.2-2.2,2.3-.2,4.4,0,6.3.3,3.7.7,6.2,2,6.3,2.1,1.1.6,1.7,2.2,1.3,3.6-.2.7-.6,1.2-1.1,1.4-.5.3-1.2.3-1.8,0h-.2c-.1-.1-.3-.2-.6-.4-.5-.2-1.3-.5-2.3-.8-1.9-.6-4.6-1.1-7.4-.8-1.9.2-3.9.7-5.8,1.8-1.9,1.1-3.8,2.6-5.5,5-1.7,2.4-3.3,5.6-4.6,9.8-.2.7-.6,1.2-1.1,1.5-.5.3-1.1.3-1.7,0-1.1-.6-1.7-2.2-1.3-3.6,1.4-4.8,3.3-8.6,5.4-11.5,2.1-2.9,4.5-4.9,6.9-6.3Z" fill="#0c3461"/>
        </g>
      </g>
      <path d="M915.7,1046.5s61.1-7.6,113.2,39.3c60.4,54.5,147.3,152.8,235.5,98.4-37,11.4-59.1,5.4-109.9-52.7-69.5-79.6-122-140.9-203.5-153.1l-43,19.8,7.7,48.2Z" fill="#114077"/>
    </g>
  </g>
</svg>