<svg xmlns="http://www.w3.org/2000/svg" xmlns:xlink="http://www.w3.org/1999/xlink" viewBox="0 0 4680 3120"><defs><style>.cls-1{fill:none;}.cls-2{fill:#5f173d;}.cls-3{fill:#fbc9a4;}.cls-4{fill:#e54357;}.cls-5,.cls-8{fill:#fff;}.cls-5{opacity:0;}.cls-6{fill:#f6eeca;}.cls-7{fill:#f9e1b3;}.cls-9{opacity:0.5;}.cls-10{fill:#eac686;}.cls-11{fill:#f2dcb1;}.cls-12{fill:#8ecc9e;}.cls-13{fill:#ef975b;}.cls-14{fill:#936a83;}.cls-15{fill:#74b6e2;}.cls-16{fill:#ffd96e;}.cls-17{fill:#58a368;}.cls-18{fill:#f2d07a;}.cls-19{fill:#bc4337;}.cls-20{clip-path:url(#clip-path);}.cls-21{fill:#dbdbdb;}.cls-22{fill:#72809e;}.cls-23{fill:#f95a3a;}.cls-24{clip-path:url(#clip-path-2);}.cls-25{fill:#772554;}.cls-26{fill:#ffc2a0;}.cls-27{clip-path:url(#clip-path-3);}.cls-28{fill:#fb9a79;}.cls-29{fill:#842117;}.cls-30{fill:#5b2009;}.cls-31{fill:#fca78d;}.cls-32{fill:#441b09;}.cls-33{opacity:0.4;}.cls-34{fill:#39a08f;}.cls-35{clip-path:url(#clip-path-4);}.cls-36{opacity:0.3;}.cls-37{clip-path:url(#clip-path-5);}.cls-38{clip-path:url(#clip-path-6);}.cls-39{fill:#ededed;}.cls-40{clip-path:url(#clip-path-7);}.cls-41{fill:#cc2743;}.cls-42{fill:#2e71b7;}.cls-43{clip-path:url(#clip-path-8);}.cls-44{fill:#6881bd;}.cls-45{clip-path:url(#clip-path-9);}.cls-46{fill:#071842;}.cls-47{clip-path:url(#clip-path-10);}.cls-48{fill:#f78c60;}.cls-49{clip-path:url(#clip-path-11);}.cls-50{fill:#e2b249;}.cls-51{fill:#0a1c4a;}.cls-52{clip-path:url(#clip-path-12);}.cls-53{clip-path:url(#clip-path-13);}</style><clipPath id="clip-path"><polygon class="cls-1" points="1635.55 1040.26 1697.89 1061.04 1737.71 1185.71 1733.4 1403.02 1729.92 1537.21 1563.69 1537.21 1513.48 1063.64 1635.55 1040.26"/></clipPath><clipPath id="clip-path-2"><path class="cls-2" d="M1569.87,783.89s13.9-41.88,64.49-33.71,120,53.86,135.42,76.16-33.18,61.52-33.18,61.52l-193,36.58S1431.16,832.6,1569.87,783.89Z"/></clipPath><clipPath id="clip-path-3"><path class="cls-1" d="M1526.55,964.4c10.08,14.46,21.61,20.67,35.35,10.88l-12.4,86.12s76.11,27.35,79.78,27.35,36.62-35.13,36.62-35.13l-11.09-10.24L1650,1013h4.91c43.19,0,78.54-36.34,78.54-80.72V875.78a31.16,31.16,0,0,0-1.53-9.69c-6.7,7.11-20.55,20.26-33.45,22-15.33,2-6.37-19-3.51-25-2.6,5-12,20.18-29.92,20.18-20.7,0-9.48-16.68-8.7-17.82-1.2.65-30.65,17.17-48.44,18.49-17.51,1.3-6.29-20.72-5.46-22.33L1571,910.87l-1.42-3.51v3.51c-12-7.3-26.65-7.67-37.66.44C1516.48,922.71,1514.06,946.47,1526.55,964.4Z"/></clipPath><clipPath id="clip-path-4"><ellipse class="cls-1" cx="1616.12" cy="1514.83" rx="72.72" ry="51.49"/></clipPath><clipPath id="clip-path-5"><path class="cls-3" d="M1999.8,1459.58s27.31,39.45,29.62,46.15-26,61.2-33.27,57.52-5.43-2.52-22.74-1.68-101.73-18.61-83.12-40.74S1999.8,1459.58,1999.8,1459.58Z"/></clipPath><clipPath id="clip-path-6"><path class="cls-1" d="M2755.6,1418.45l178.05,64.43L2891.38,1605s-77.28-48.33-111.19-49.17-89-12.72-89-12.72,43.24-58.5,47.48-73.76S2755.6,1418.45,2755.6,1418.45Z"/></clipPath><clipPath id="clip-path-7"><path class="cls-1" d="M3177.82,1362.49s-199.24,54.26-235.7,56-75.45-2.55-89.87,9.32-48.32,48.33-38.15,50,45.78-17,45.78-17,25.78,17.17,47.65,17.06,26.12,5,26.12,5L2921.78,1516s56.8-8.48,68.67-9.33,152.61,11.87,167,9.33S3177.82,1362.49,3177.82,1362.49Z"/></clipPath><clipPath id="clip-path-8"><path class="cls-4" d="M3115.05,2638.25s-145,56.05-190.76,79.91,7.63,34,95.38,36.57,232.73,8.53,235.27-13.54,0-141.61,0-141.61Z"/></clipPath><clipPath id="clip-path-9"><path class="cls-1" d="M3118.76,1468.67s-29.85,103.24-52.23,347.41,0,869.89,0,869.89,136.78,22.89,233.78,0c0-25.44,159.17-5.09,203.93-33.07,0-68.67-47.25-686.75-44.76-819s-17.41-336.2-49.74-365.22S3118.76,1468.67,3118.76,1468.67Z"/></clipPath><clipPath id="clip-path-10"><path class="cls-1" d="M3034.54,1307.38s-29.51,52.57-137.18,61c-97.77,7.71-111.2-219.75-122.87-266.37-1.2-4.73-2.09-8.55-2.7-11.19a158.87,158.87,0,0,0-9.33-26.74c-7.18-16.43-14.7-30.37-13.56-42.78,1.68-18.64-5.09-37.31,5.09-41s10.17-15.84,10.17-31.11,5.93-22.89,23.73-23.75,33.91,14.78,33.91,14.78,4.25-10.53-1.68-26.63-22.89-44.11-11-50,39,39.86,47.49,62.75-17.81,73.77-13.66,92.41a31.86,31.86,0,0,0,1.55,4.83c3.05,7.66,9.46,18.72,16.61,29.94.28.46.56.89.86,1.35,13.61,21.26,79.35,147.33,79.35,147.33l54.26,10.17Z"/></clipPath><clipPath id="clip-path-11"><path class="cls-1" d="M3271.89,1072.19s-45.38,29.36-132.8,34.7S3027.65,1179,2971.6,1184.3s-64.07,12-64.07,12,16,157.49,92.09,174.84c49.39-24,77.41-29.36,77.41-29.36s4,38.7,6.68,89.42,5.24,74.74,28.64,93.42,87.5,25.36,121.52,21.36,84.73-32,116.76-32,66.74-6.67,81.42-38.7,32-244.24,24-315S3358.64,1062.85,3271.89,1072.19Z"/></clipPath><clipPath id="clip-path-12"><path class="cls-2" d="M3314.53,829.37s14.37-50.28-54.77-50.28-87.54,9-108.86,0-75.64,103.25-16.16,120.31c33.55,46,77,122.11,77,122.11l91.1,35.91,9.11-35.65s87-54.13,79.77-116.08S3314.53,829.37,3314.53,829.37Z"/></clipPath><clipPath id="clip-path-13"><path class="cls-1" d="M3310.49,1027.57c1.35-18.18-2.69,9.42-16.84,7.4s-8.75-14.81-20.87-8.08-19.53,4-29.63-17.5c.24-.29.42-.58.64-.87a53.84,53.84,0,0,0,5.24-4.07c17.86-16,21.58-41,8.3-55.82-11.34-12.65-31.39-13.76-48.13-3.85-2.33-1.75-3.76-2.73-3.76-2.73s-30.3-20.88-34.34-37.71c-2.69,14.14.67,20.87.67,20.87S3157,922.52,3152.25,899c-4.23-21.13-6.07-34.34-6.07-34.34S3129.35,876.73,3132,934c-8.08,7.4-7.4,14.14-5.38,18.18s-16.84,106.39,79.46,92.25c0,41.08-6.06,57.91-6.06,57.91s18.18,24.92,54.54,28.28,80.8-36.36,80.8-36.36S3309.14,1045.75,3310.49,1027.57Z"/></clipPath></defs><title>05</title><g id="_05" data-name="05"><rect id="_05-2" data-name="05" class="cls-5" width="4680" height="3120"/><ellipse class="cls-6" cx="1344.6" cy="2677.62" rx="393.07" ry="65.1"/><ellipse class="cls-6" cx="3335.4" cy="2663.53" rx="393.07" ry="65.1"/><path class="cls-6" d="M1413.5,882.22l946.22-472.43a472.72,472.72,0,0,1,400-10.44L3038,520.59a472.75,472.75,0,0,1,277.62,356.48l12.49,75.74a472.72,472.72,0,0,0,104,226.59l104,124.24a472.73,472.73,0,0,1,22,578.66l-106.62,149a472.72,472.72,0,0,1-424.17,195.91l-804.76-67.91a474.37,474.37,0,0,0-52-1.52l-437.53,11.31c-222.11,5.75-418.24-144-471.28-359.72L1165.6,1418C1112.85,1203.43,1215.79,980.93,1413.5,882.22Z"/><circle class="cls-7" cx="2105.21" cy="1470.64" r="23.59"/><circle class="cls-7" cx="2181.7" cy="1470.64" r="23.59"/><circle class="cls-7" cx="2258.19" cy="1470.64" r="23.59"/><circle class="cls-7" cx="2334.68" cy="1470.64" r="23.59"/><circle class="cls-7" cx="2411.16" cy="1470.64" r="23.59"/><circle class="cls-7" cx="2487.65" cy="1470.64" r="23.59"/><circle class="cls-7" cx="2564.14" cy="1470.64" r="23.59"/><circle class="cls-7" cx="2105.21" cy="1551.35" r="23.59"/><circle class="cls-7" cx="2181.7" cy="1551.35" r="23.59"/><circle class="cls-7" cx="2258.19" cy="1551.35" r="23.59"/><circle class="cls-7" cx="2334.68" cy="1551.35" r="23.59"/><circle class="cls-7" cx="2411.16" cy="1551.35" r="23.59"/><circle class="cls-7" cx="2487.65" cy="1551.35" r="23.59"/><circle class="cls-7" cx="2564.14" cy="1551.35" r="23.59"/><circle class="cls-7" cx="2105.21" cy="1632.06" r="23.59"/><circle class="cls-7" cx="2181.7" cy="1632.06" r="23.59"/><circle class="cls-7" cx="2258.19" cy="1632.06" r="23.59"/><circle class="cls-7" cx="2334.68" cy="1632.06" r="23.59"/><circle class="cls-7" cx="2411.16" cy="1632.06" r="23.59"/><circle class="cls-7" cx="2487.65" cy="1632.06" r="23.59"/><circle class="cls-7" cx="2564.14" cy="1632.06" r="23.59"/><circle class="cls-7" cx="2105.21" cy="1712.77" r="23.59"/><circle class="cls-7" cx="2181.7" cy="1712.77" r="23.59"/><circle class="cls-7" cx="2258.19" cy="1712.77" r="23.59"/><circle class="cls-7" cx="2334.68" cy="1712.77" r="23.59"/><circle class="cls-7" cx="2411.16" cy="1712.77" r="23.59"/><circle class="cls-7" cx="2487.65" cy="1712.77" r="23.59"/><circle class="cls-7" cx="2564.14" cy="1712.77" r="23.59"/><circle class="cls-7" cx="2105.21" cy="1793.49" r="23.59"/><circle class="cls-7" cx="2181.7" cy="1793.49" r="23.59"/><circle class="cls-7" cx="2258.19" cy="1793.49" r="23.59"/><circle class="cls-7" cx="2334.68" cy="1793.49" r="23.59"/><circle class="cls-7" cx="2411.16" cy="1793.49" r="23.59"/><circle class="cls-7" cx="2487.65" cy="1793.49" r="23.59"/><circle class="cls-7" cx="2564.14" cy="1793.49" r="23.59"/><circle class="cls-7" cx="2105.21" cy="1874.2" r="23.59"/><circle class="cls-7" cx="2181.7" cy="1874.2" r="23.59"/><circle class="cls-7" cx="2258.19" cy="1874.2" r="23.59"/><circle class="cls-7" cx="2334.68" cy="1874.2" r="23.59"/><path d="M2154.29,1195.56H1988.05V1051.44h166.24Zm-162.24-4h158.24V1055.44H1992.05Z"/><path d="M2363.24,1195.56H2197V1051.44h166.24Zm-162.24-4h158.24V1055.44H2201Z"/><path d="M2572.19,1195.56H2406V1051.44h166.24Zm-162.24-4h158.24V1055.44H2410Z"/><path d="M2781.13,1195.56H2614.89V1051.44h166.24Zm-162.24-4h158.24V1055.44H2618.89Z"/><path d="M2024,931c.6,4.21,1.32,15,7.41,14.82,3.89-.1,8.49-3.63,11.88-5.3l13.9-6.84c1.72-.85,5.67-3.88,7.6-2.12.63.58.9,3.22,1.3,4.09a11.74,11.74,0,0,0,6.13,6.17,8.37,8.37,0,0,0,11-4.93l-2.74.36c2.15,4.29,6.88,4.72,11.23,4.61a240.36,240.36,0,0,1,26.16.33c1.92.16,1.91-2.85,0-3a181.79,181.79,0,0,0-18.67-.64c-4.47.1-13.61,2.21-16.13-2.81-.64-1.26-2.33-.75-2.75.36-2.4,6.4-9.57,2.32-11.49-1.81-.73-1.59-.81-3.86-2-5.23-2.42-2.9-6-.55-8.58.74l-18.24,9c-3.56,1.76-7.7,5.16-11,1-1.61-2-1.82-7.12-2.17-9.58-.28-1.9-3.17-1.09-2.89.8Z"/><path d="M2047.86,980.37l44.08-5.16c1.9-.22,1.92-3.22,0-3l-44.08,5.16c-1.89.22-1.91,3.22,0,3Z"/><path class="cls-8" d="M1971,1071.88l148.22,35.57-39.13,132.82s-60.48-29.65-94.86-30.84a193.88,193.88,0,0,1-60.48-11.85Z"/><path d="M2081.36,1243.11l-2.13-1c-.6-.29-60.49-29.47-94-30.63a198.3,198.3,0,0,1-61.17-12l-1.79-.73,47.53-129.18,152,36.48Zm-154-46.7a197.55,197.55,0,0,0,58,11c14.49.49,35,5.88,61,16,15.08,5.87,27.7,11.71,32.56,14l37.87-128.54-144.45-34.67Z"/><g class="cls-9"><rect class="cls-8" x="2025.44" y="1071.88" width="78.91" height="43.02"/><path d="M2106.36,1116.9h-82.92v-47h82.92Zm-78.92-4h74.92v-39h-74.92Z"/></g><rect class="cls-8" x="2181.79" y="1081.71" width="145.03" height="158.55"/><path d="M2328.82,1242.27h-149V1079.71h149Zm-145-4h141V1083.71h-141Z"/><g class="cls-9"><rect class="cls-8" x="2240.66" y="1071.88" width="78.91" height="43.02"/><path d="M2321.58,1116.9h-82.92v-47h82.92Zm-78.92-4h74.92v-39h-74.92Z"/></g><path d="M2554.16,998.08h-19V903.65h19Zm-15-4h11V907.65h-11Z"/><path d="M2514.83,998.08h-63V965h63Zm-59-4h55V969h-55Z"/><rect class="cls-8" x="2644.75" y="897.35" width="109.8" height="94.64"/><path d="M2756.55,994h-113.8V895.35h113.8Zm-109.8-4h105.8V899.35h-105.8Z"/><rect class="cls-8" x="2644.75" y="1093.39" width="19.46" height="82.96"/><path d="M2666.21,1178.35h-23.46v-87h23.46Zm-19.46-4h15.46v-79h-15.46Z"/><rect class="cls-8" x="2689.92" y="1093.39" width="19.46" height="82.96"/><path d="M2711.38,1178.35h-23.46v-87h23.46Zm-19.46-4h15.46v-79h-15.46Z"/><rect class="cls-8" x="2735.09" y="1093.39" width="19.46" height="82.96"/><path d="M2756.55,1178.35h-23.46v-87h23.46Zm-19.46-4h15.46v-79h-15.46Z"/><rect class="cls-8" x="2879.92" y="904.31" width="104.06" height="6.56"/><path d="M2986,912.87H2877.92V902.31H2986Zm-104.07-4H2982v-2.56H2881.92Z"/><rect class="cls-2" x="1490.8" y="377.16" width="293.34" height="267.03"/><circle class="cls-8" cx="1667.06" cy="412.24" r="8.77"/><circle class="cls-8" cx="1708.28" cy="412.24" r="8.77"/><circle class="cls-8" cx="1749.5" cy="412.24" r="8.77"/><rect class="cls-10" x="1575.96" y="464.35" width="1701.18" height="1133.89"/><rect class="cls-11" x="1636.19" y="515.08" width="1579.75" height="1013.83"/><rect class="cls-10" x="1755.57" y="719.64" width="209.79" height="181.19"/><rect class="cls-10" x="1755.57" y="1183.73" width="209.79" height="181.19"/><rect class="cls-10" x="2025.76" y="719.64" width="209.79" height="181.19"/><rect class="cls-10" x="2025.76" y="1183.73" width="209.79" height="181.19"/><rect class="cls-10" x="2295.95" y="719.64" width="209.79" height="181.19"/><rect class="cls-10" x="2295.95" y="951.68" width="209.79" height="181.19"/><rect class="cls-10" x="2295.95" y="1183.73" width="209.79" height="181.19"/><rect class="cls-10" x="2566.14" y="951.68" width="209.79" height="181.19"/><rect class="cls-10" x="2566.14" y="1183.73" width="209.79" height="181.19"/><rect class="cls-10" x="2836.33" y="719.64" width="209.79" height="181.19"/><polygon class="cls-10" points="1903.38 926.25 1815.97 926.25 1815.97 951.68 1755.57 951.68 1755.57 1132.87 1965.37 1132.87 1965.37 951.68 1903.38 951.68 1903.38 926.25"/><polygon class="cls-10" points="2174.37 926.25 2086.95 926.25 2086.95 951.68 2025.76 951.68 2025.76 1132.87 2235.56 1132.87 2235.56 951.68 2174.37 951.68 2174.37 926.25"/><path class="cls-10" d="M2671,871.16c31.78-4.77,86.88-10.07,86.88-10.07l-48.74-163.7s-15.93,2.24-38.14,5.31V682h-87.42v32.4c-25.45,3.25-45.4,5.57-48.21,5.22l30.73,164.23S2617.71,879.16,2671,871.16Z"/><polygon class="cls-10" points="2843.74 944.28 2821.49 944.28 2821.49 1315.1 2843.74 1315.1 3077.91 1315.1 3077.91 944.28 2843.74 944.28"/><rect class="cls-12" x="1771.47" y="696.71" width="209.79" height="181.19"/><rect class="cls-13" x="1771.47" y="928.75" width="209.79" height="181.19"/><rect class="cls-8" x="1771.47" y="1160.8" width="209.79" height="181.19"/><rect class="cls-14" x="1804.2" y="1186.68" width="144.33" height="124.65"/><rect class="cls-8" x="2041.66" y="696.71" width="209.79" height="181.19"/><rect class="cls-14" x="2041.66" y="928.75" width="209.79" height="181.19"/><rect class="cls-13" x="2041.66" y="1160.8" width="209.79" height="181.19"/><rect class="cls-14" x="2311.84" y="696.71" width="209.79" height="181.19"/><rect class="cls-12" x="2311.84" y="928.75" width="209.79" height="181.19"/><rect class="cls-2" x="2311.84" y="1160.8" width="209.79" height="181.19"/><path class="cls-8" d="M2343.14,1235.81a70.73,70.73,0,0,1,30.05-29,41.53,41.53,0,0,1,9.85-3.9c6.63-1.38,10.33,3.71,12.18,9.24a32.37,32.37,0,0,1-1.63,24c-.6,1.28.67,2.89,2,2.05,4.93-3,10-5.81,15.13-8.39,4.55-2.29,9.38-5.08,14.47-5.87,13.87-2.17,4.7,12.36,6,19,1.51,7.73,11.31,4.81,16.51,3.93l36.54-6.16-1.16-2.74-3.84,2.64c-1.59,1.08-.09,3.69,1.51,2.59l3.85-2.64a1.51,1.51,0,0,0-1.16-2.74L2447,1244c-3,.52-9.53,2.67-11.95.11-1.73-1.83-.6-5.14-.07-7.22.8-3.08,2-6.39,1.35-9.62-3.36-17.54-35.81,4.47-42.17,8.32l2.06,2.06a35.52,35.52,0,0,0,1.93-26.28c-2.4-7.22-7.65-13.25-15.86-11.35-17.63,4.1-33.15,18.93-41.7,34.29-.94,1.69,1.65,3.2,2.59,1.52Z"/><path class="cls-8" d="M2352.23,1284.27q59.82-.11,119.61,2.13c1.93.08,1.93-2.92,0-3q-59.78-2.22-119.61-2.13a1.5,1.5,0,0,0,0,3Z"/><rect class="cls-8" x="2582.03" y="928.75" width="209.79" height="181.19"/><rect class="cls-13" x="2582.03" y="1160.8" width="209.79" height="181.19"/><rect class="cls-13" x="2852.22" y="696.71" width="209.79" height="181.19"/><circle class="cls-8" cx="1870.8" cy="789.69" r="48.48"/><g class="cls-9"><rect class="cls-8" x="1831.86" y="903.32" width="87.41" height="49.27"/></g><g class="cls-9"><rect class="cls-8" x="2102.85" y="903.32" width="87.41" height="49.27"/></g><rect class="cls-15" x="2079.8" y="741.21" width="127.15" height="12.71"/><rect class="cls-16" x="2079.8" y="780.94" width="127.15" height="12.71"/><rect class="cls-15" x="2079.8" y="820.68" width="95.36" height="12.71"/><path class="cls-8" d="M2219.66,1312.2h-12a2,2,0,0,1,0-4h10v-10.38a2,2,0,1,1,4,0v12a1.21,1.21,0,0,1,0,.19,1.15,1.15,0,0,1,0,.19A2,2,0,0,1,2219.66,1312.2Zm-24,0h-12a2,2,0,0,1,0-4h12a2,2,0,0,1,0,4Zm-24,0h-12a2,2,0,0,1,0-4h12a2,2,0,0,1,0,4Zm-24,0h-12a2,2,0,0,1,0-4h12a2,2,0,0,1,0,4Zm-24,0h-12a2,2,0,0,1,0-4h12a2,2,0,0,1,0,4Zm-24,0h-12a2,2,0,0,1,0-4h12a2,2,0,0,1,0,4Zm-24,0h-5.81V1302a2,2,0,1,1,4,0v6.19h1.81a2,2,0,0,1,0,4Zm-3.81-20.19a2,2,0,0,1-2-2v-12a2,2,0,1,1,4,0v12A2,2,0,0,1,2071.85,1292Zm147.81-4.19a2,2,0,0,1-2-2v-12a2,2,0,1,1,4,0v12A2,2,0,0,1,2219.66,1287.82ZM2071.85,1268a2,2,0,0,1-2-2v-12a2,2,0,1,1,4,0v12A2,2,0,0,1,2071.85,1268Zm147.81-4.19a2,2,0,0,1-2-2v-12a2,2,0,1,1,4,0v12A2,2,0,0,1,2219.66,1263.82ZM2071.85,1244a2,2,0,0,1-2-2v-12a2,2,0,1,1,4,0v12A2,2,0,0,1,2071.85,1244Zm147.81-4.19a2,2,0,0,1-2-2v-12a2,2,0,1,1,4,0v12A2,2,0,0,1,2219.66,1239.82ZM2071.85,1220a2,2,0,0,1-2-2v-12a2,2,0,1,1,4,0v12A2,2,0,0,1,2071.85,1220Zm147.81-4.19a2,2,0,0,1-2-2v-12a2,2,0,1,1,4,0v12A2,2,0,0,1,2219.66,1215.82ZM2071.85,1196a2,2,0,0,1-2-2v-8.19h7.81a2,2,0,0,1,0,4h-3.81V1194A2,2,0,0,1,2071.85,1196Zm147.81-4.19a2,2,0,0,1-2-2h-8a2,2,0,0,1,0-4h12v4A2,2,0,0,1,2219.66,1191.82Zm-22-2h-12a2,2,0,0,1,0-4h12a2,2,0,0,1,0,4Zm-24,0h-12a2,2,0,0,1,0-4h12a2,2,0,0,1,0,4Zm-24,0h-12a2,2,0,0,1,0-4h12a2,2,0,0,1,0,4Zm-24,0h-12a2,2,0,0,1,0-4h12a2,2,0,0,1,0,4Zm-24,0h-12a2,2,0,0,1,0-4h12a2,2,0,0,1,0,4Z"/><rect class="cls-8" x="2347.87" y="741.21" width="131.39" height="12.71"/><rect class="cls-8" x="2339.39" y="780.94" width="127.15" height="67.28"/><path class="cls-8" d="M2335.08,1034.88c12.92-3.52,23.69,8.18,33.65,14.49,9.34,5.92,20.69,8.44,31.29,4.31,8.78-3.42,14.73-11,15.07-20.54.31-8.74-4.08-17.08-12.35-20.39a1.53,1.53,0,0,0-1.7.69c-4.23,6.36-3.13,14.73,1.83,20.41,5.39,6.19,14.23,8.42,22.15,8.21,17-.46,32.67-11.84,38-28.07,4.12-12.59,2.77-37.45-13.92-40.71-7.72-1.51-10.89,5.77-12.51,12a53.34,53.34,0,0,0,.25,27.62c5.39,19.41,22,33.85,41.74,37.35,1.88.33,2.69-2.56.79-2.9-17.52-3.1-32.72-15.14-38.66-32.11a50.49,50.49,0,0,1-1.44-28.37c1.25-5.11,3.43-12.41,10.19-10.38,4.22,1.27,7.59,5.17,9.42,9,8.28,17.47.49,39.24-16,48.56-7.92,4.46-17.68,6.35-26.6,4.13-10-2.5-19.43-12.93-12.6-23.22l-1.69.69c9,3.59,12.08,14.82,9.07,23.46-3.8,10.86-16.48,14.87-27,13.25-17.84-2.74-30.41-25.63-49.76-20.36a1.5,1.5,0,0,0,.8,2.89Z"/><path class="cls-2" d="M2551.31,696.71c8.47,1.06,173.76-22.25,173.76-22.25l48.74,163.7s-55.09,5.3-86.88,10.07c-53.33,8-104.9,12.71-104.9,12.71Z"/><g class="cls-9"><rect class="cls-8" x="2599.52" y="659.09" width="87.41" height="49.27"/></g><rect class="cls-12" x="2643.22" y="960.54" width="19.34" height="122.91"/><rect class="cls-12" x="2701.76" y="960.54" width="29.67" height="122.91"/><rect class="cls-17" x="2837.38" y="921.35" width="256.42" height="370.83"/><rect class="cls-12" x="2859.63" y="921.35" width="234.17" height="370.83"/><rect class="cls-8" x="2889.31" y="953.65" width="189.66" height="306.55"/><rect class="cls-17" x="2922.15" y="946.77" width="134.56" height="13.77" rx="2.17"/><rect class="cls-18" x="2922.15" y="1005.04" width="134.56" height="8.48"/><rect class="cls-18" x="2922.15" y="1053.78" width="134.56" height="8.48"/><rect class="cls-18" x="2922.15" y="1102.52" width="134.56" height="8.48"/><rect class="cls-18" x="2922.15" y="1151.26" width="134.56" height="8.48"/><rect class="cls-15" x="3235.04" y="439.76" width="263.08" height="383.22"/><path class="cls-8" d="M3376.67,779.87c-.46-12.35,13.36-23.6,25.25-18.06,10.16,4.72,13.41,18.85,7,27.77l2.74.35c-2.61-8.85.68-20.66,11.53-21.14,4.26-.18,8.6,1.92,9.86,6.22s-.75,9.35-5.11,10.81l1.84,1c-3.42-10,11.49-20.19,18.87-24.3,4.86-2.71,10.91-4.45,16.18-1.82,4.94,2.47,8.54,7.64,6.33,13.13-.72,1.79,2.18,2.57,2.89.8,2.28-5.66-.37-11.32-5.06-14.85-5.13-3.86-11.31-4.14-17.21-2-6.85,2.48-13.11,7.6-18.3,12.62-4.71,4.55-8.91,10.47-6.59,17.22a1.53,1.53,0,0,0,1.85,1.05c11-3.69,9.49-19.77-1.38-22.51-14.68-3.7-22.15,12.49-18.59,24.52a1.52,1.52,0,0,0,2.74.36c7.54-10.55,3.06-27.43-9.16-32.36-13.71-5.54-29.24,6.92-28.71,21.14.08,1.93,3.08,1.93,3,0Z"/><rect class="cls-8" x="3398.15" y="511.67" width="64.89" height="8.77"/><rect class="cls-8" x="3261.13" y="587.09" width="212.4" height="14.03"/><rect class="cls-8" x="3356.06" y="624.36" width="117.47" height="14.03"/><rect class="cls-8" x="3261.13" y="661.63" width="212.4" height="14.03"/><path class="cls-12" d="M3185.05,739.46c7,.87,143.82-18.42,143.82-18.42l40.34,135.49s-45.6,4.38-71.91,8.33c-44.14,6.62-86.82,10.52-86.82,10.52Z"/><g class="cls-9"><rect class="cls-8" x="3224.95" y="708.33" width="72.35" height="40.78"/></g><rect class="cls-8" x="1342.93" y="500.81" width="315.35" height="419.38"/><circle class="cls-15" cx="1506.58" cy="683.65" r="94.71"/><path class="cls-18" d="M1603.29,866.8,1486.56,725.06h116.73ZM1495,729.06l104.25,126.59V729.06Z"/><path class="cls-14" d="M1591.77,2686.11c1.67,15.51,5.91,27.5,14.68,30.12,29.31,8.74,303,32.27,320.47,14.5,7.35-7.48,9.58-17.44,5.59-27.12-5.46-13.38-22.81-26.18-55-30.87a128.59,128.59,0,0,1-31.48-9.39c-47.1-19.95-93.35-62.23-93.35-62.23-18.9-33.39-154.52-7-154.52-7s-2.06,11.17-4,26.77C1591.82,2640.11,1589.62,2666.05,1591.77,2686.11Z"/><path class="cls-2" d="M1591.77,2686.11c1.67,15.51,5.91,27.5,14.68,30.12,29.31,8.74,303,32.27,320.47,14.5,7.35-7.48,9.58-17.44,5.59-27.12-5.46-13.38-22.81-26.18-55-30.87a128.59,128.59,0,0,1-31.48-9.39c-1.52,23.09-43.55,37.67-251.89-42.45C1591.82,2640.11,1589.62,2666.05,1591.77,2686.11Z"/><path class="cls-14" d="M1591.77,2686.11c1.67,15.51,5.91,27.5,14.68,30.12,29.31,8.74,303,32.27,320.47,14.5,7.35-7.48,9.58-17.44,5.59-27.12-9.77,9.28-34.17,20.47-94.72,14.25C1742.35,2708.05,1635.35,2724.79,1591.77,2686.11Z"/><path class="cls-8" d="M1758,2630.18c5.72-8.36,18.92-11.81,30.2-9,6.08,1.52,10.13,7.45,7.92,12.25a10,10,0,0,1-1.84,2.63c8.6-2.65,17.12-1.64,25.22,1.83a8.73,8.73,0,0,1,3.75,13.4c-3.76,4.66-10.88,5.21-16.72,2.71a3.88,3.88,0,0,0-3.08,0l-.49.23c-.08.06-.34.25-.79.54-.32.48-1.42,2-1.57,2.2-2.76,4.68-11.69,5.33-16.71,2.71-6.11-3.18-6.53-8.69-3.75-13.39a21.09,21.09,0,0,1,6.28-6.47,15,15,0,0,1-5.5-.34h0l-.57,0-.31.06-.65.26c-.18.19-.5.55-.64.67s-.23.38-.25.4c-3,4.41-11.61,5.64-16.72,2.71C1756,2640.32,1754.74,2634.89,1758,2630.18Z"/><path class="cls-14" d="M1392.05,2708.9c1.66,15.52,5.91,27.51,14.67,30.13,29.31,8.74,303,32.27,320.47,14.5,7.35-7.48,9.59-17.44,5.6-27.12-5.47-13.38-22.82-26.18-55-30.87a128.59,128.59,0,0,1-31.48-9.39c-47.1-20-93.35-62.23-93.35-62.23-18.9-33.39-154.51-7-154.51-7s-2.07,11.17-4,26.77C1392.09,2662.91,1389.89,2688.85,1392.05,2708.9Z"/><path class="cls-2" d="M1392.05,2708.9c1.66,15.52,5.91,27.51,14.67,30.13,29.31,8.74,303,32.27,320.47,14.5,7.35-7.48,9.59-17.44,5.6-27.12-5.47-13.38-22.82-26.18-55-30.87a128.59,128.59,0,0,1-31.48-9.39c-1.52,23.09-43.55,37.67-251.89-42.45C1392.09,2662.91,1389.89,2688.85,1392.05,2708.9Z"/><path class="cls-14" d="M1392.05,2708.9c1.66,15.52,5.91,27.51,14.67,30.13,29.31,8.74,303,32.27,320.47,14.5,7.35-7.48,9.59-17.44,5.6-27.12-9.78,9.28-34.17,20.47-94.73,14.25C1542.62,2730.85,1435.62,2747.59,1392.05,2708.9Z"/><path class="cls-8" d="M1558.24,2653c5.72-8.36,18.92-11.81,30.2-9,6.09,1.52,10.13,7.45,7.92,12.25a10.18,10.18,0,0,1-1.83,2.63c8.59-2.65,17.11-1.64,25.22,1.83a8.73,8.73,0,0,1,3.74,13.4c-3.76,4.66-10.88,5.21-16.72,2.71a3.84,3.84,0,0,0-3.08,0l-.49.23c-.07.06-.34.25-.79.54-.32.47-1.42,2-1.56,2.2-2.77,4.68-11.7,5.33-16.72,2.71-6.1-3.19-6.53-8.69-3.75-13.39a21.09,21.09,0,0,1,6.28-6.47,15.37,15.37,0,0,1-5.49-.34h-.05l-.57,0-.3.06-.66.26c-.18.19-.5.55-.64.67a4.13,4.13,0,0,1-.25.4c-3,4.41-11.61,5.64-16.72,2.71C1556.3,2663.12,1555,2657.69,1558.24,2653Z"/><path class="cls-19" d="M1612.56,2642.79V2609l82.45,4.6,103.75,5.79s16.63-449.33,20.72-555.82,0-493.95,0-493.95c25.76-140.75-391.44-70-391.44-70l-48.75,1143.17Z"/><polygon class="cls-8" points="1635.55 1040.26 1697.89 1061.04 1737.71 1185.71 1733.4 1403.02 1729.92 1537.21 1563.69 1537.21 1513.48 1063.64 1635.55 1040.26"/><g class="cls-20"><path class="cls-21" d="M1501.89,1058.86c3.75,88.39,36.72,174.61,89,246s123.39,128.09,202.46,167.8a191.07,191.07,0,0,1-51.62,59.89c-15.49,11.79-32.88,21.22-51.54,26.77-52.12,15.54-110.62-1.21-152.56-35.85s-68.58-85.14-82.57-137.71-16.24-107.5-16.21-161.89c0-36,1-72.11,3.76-108Z"/><path class="cls-22" d="M1754.11,1510.87c-7.27-1.22-275.82,0-275.82,0l11.42,61.38h279Z"/><path class="cls-21" d="M1501.89,1058.86l133.45,55.69,86.69-74.29S1512.11,1014.76,1501.89,1058.86Z"/></g><path class="cls-23" d="M1569.87,783.89s13.9-41.88,64.49-33.71,120,53.86,135.42,76.16-33.18,61.52-33.18,61.52l-193,36.58S1431.16,832.6,1569.87,783.89Z"/><path class="cls-2" d="M1569.87,783.89s13.9-41.88,64.49-33.71,120,53.86,135.42,76.16-33.18,61.52-33.18,61.52l-193,36.58S1431.16,832.6,1569.87,783.89Z"/><g class="cls-24"><path class="cls-25" d="M1633.45,773.87a52.31,52.31,0,0,0-21.15,35c.59-15.09,16.52-24.95,31.35-27.82,13.89-2.7,29.21-1.48,40.75,6.72,8.36,6,14,14.91,20.62,22.73,21.07,24.76,57.74,38.18,87.44,25-4.44,27.3-11.07,56.17-31,75.39-8.71,8.42-19.48,14.43-30.53,19.42-45.69,20.62-97.1,24.89-147.22,23.71-11.42-.27-23-.83-33.92-4s-21.47-9.2-28-18.54a50.63,50.63,0,0,1-7.33-16.85,73.53,73.53,0,0,1,44.86-86.54,45.52,45.52,0,0,1-19.43,5.28c-3.27-6.86,2.89-14.45,9.12-18.8a79.84,79.84,0,0,1,35.45-13.66S1613.79,773,1633.45,773.87Z"/></g><path class="cls-26" d="M1526.55,964.4c10.08,14.46,21.61,20.67,35.35,10.88l-12.4,86.12s76.11,27.35,79.78,27.35,36.62-35.13,36.62-35.13l-11.09-10.24L1650,1013h4.91c43.19,0,78.54-36.34,78.54-80.72V875.78a31.16,31.16,0,0,0-1.53-9.69c-6.7,7.11-20.55,20.26-33.45,22-15.33,2-6.37-19-3.51-25-2.6,5-12,20.18-29.92,20.18-20.7,0-9.48-16.68-8.7-17.82-1.2.65-30.65,17.17-48.44,18.49-17.51,1.3-6.29-20.72-5.46-22.33L1571,910.87l-1.42-3.51v3.51c-12-7.3-26.65-7.67-37.66.44C1516.48,922.71,1514.06,946.47,1526.55,964.4Z"/><g class="cls-27"><path class="cls-28" d="M1745.66,865.77c-12.28,22.55-39.82,35.66-65.07,31a7.36,7.36,0,0,1-4.23-1.85c-3.33-3.64,2.14-9.6.42-14.23L1653,891.3c-5.2,2.33-12.78,3.9-15.34-1.19-.74-1.49-.81-3.27-1.72-4.66-2.62-4-8.79-1.57-12.82,1a142,142,0,0,1-52.3,20.43c-2,.34-4.35.53-5.71-1-1.21-1.33-1-3.37-.77-5.15,4.27-29.12,14.77-60.16,39.84-75.58,10.79-6.63,23.36-9.73,35.84-11.85a266.37,266.37,0,0,1,98.86,1.93c3.09.65,7.06,3.08,5.6,5.87Z"/></g><path class="cls-29" d="M1642.32,884.83a19.38,19.38,0,0,0-2.32-1.32,20,20,0,0,0-2.53-1.07,18,18,0,0,0-5.2-1,12.58,12.58,0,0,0-4.94.75,14.36,14.36,0,0,0-4.27,2.48l-.23.17a3,3,0,0,1-3.65-4.87l.18-.12a20.06,20.06,0,0,1,6.38-3,17.9,17.9,0,0,1,7-.44,22.74,22.74,0,0,1,6.45,1.85,26.79,26.79,0,0,1,2.91,1.53,25,25,0,0,1,2.75,1.92,2,2,0,0,1-2.37,3.22Z"/><path class="cls-29" d="M1713.75,882.47a18.6,18.6,0,0,0-2.36-1.26,21.48,21.48,0,0,0-2.56-1,18,18,0,0,0-5.22-.87,12.46,12.46,0,0,0-4.92.88,14.4,14.4,0,0,0-4.2,2.61l-.22.17a3,3,0,1,1-3.79-4.76l.17-.13A20.3,20.3,0,0,1,1697,875a17.88,17.88,0,0,1,7-.64,23.18,23.18,0,0,1,6.51,1.67,25.87,25.87,0,0,1,2.94,1.45,21.34,21.34,0,0,1,2.8,1.84,2,2,0,0,1-2.27,3.28Z"/><path class="cls-28" d="M1673.88,914.56s22.67,36.27,4.32,40.76c-13.52,3.31-14.92-4.39-16-10.82S1665.11,907.59,1673.88,914.56Z"/><circle class="cls-30" cx="1703.76" cy="916.37" r="8.07"/><circle class="cls-30" cx="1628.62" cy="915.35" r="8.07"/><circle class="cls-31" cx="1602.45" cy="939.9" r="18.69"/><path class="cls-28" d="M1540.4,961.59a12,12,0,0,1-.24-7.56,12.26,12.26,0,0,1,4.6-6.56,13.58,13.58,0,0,1,3.63-1.82,15.31,15.31,0,0,1,3.86-.66,15.75,15.75,0,0,1,7.35,1.43c-2.44.6-4.73,1-6.85,1.67a26.9,26.9,0,0,0-3,1.11,17.41,17.41,0,0,0-2.64,1.51,14.33,14.33,0,0,0-4,4.52A30.09,30.09,0,0,0,1540.4,961.59Z"/><path class="cls-28" d="M1538.23,937a15,15,0,0,1,11-2.43,14.47,14.47,0,0,1,5.6,2.3,17.37,17.37,0,0,1,4.26,4.25,24.24,24.24,0,0,1,2.69,5.17,31.4,31.4,0,0,1,1.44,5.48,35.45,35.45,0,0,1,.14,11.07c-1.12-3.53-2-7-3.18-10.29-.56-1.66-1.21-3.25-1.9-4.81a30.81,30.81,0,0,0-2.46-4.32,15.21,15.21,0,0,0-7.35-5.81A21.11,21.11,0,0,0,1538.23,937Z"/><path class="cls-32" d="M1666.29,983.42c-7.63,0-17.34-2.22-23.18-12a2,2,0,1,1,3.43-2.06c9.06,15.11,29.62,8.73,29.83,8.66a2,2,0,0,1,1.22,3.81A41.84,41.84,0,0,1,1666.29,983.42Z"/><path class="cls-28" d="M1594,989.17c8.45,38.11,35.09,44.76,60.81,54.21L1650,1013S1612.18,1008.23,1594,989.17Z"/><g class="cls-33"><polygon points="1612.56 2609.02 1700.21 2613.62 1659.79 1737.04 1612.56 2609.02"/></g><path class="cls-34" d="M1417,1672.42v-106.1s-77.92-37.19-84.85-111.63c-6.05-65.09-6.83-318.92,131.86-377.93,20-8.5,42.83-13,69-12.24,0,0,57.14,151.22,64.07,231.73,2.6,30,6.6,87.87,10.63,148.8,6.77,102.88,13.61,214.38,13.61,214.38Z"/><ellipse class="cls-26" cx="1616.12" cy="1514.83" rx="72.72" ry="51.49"/><g class="cls-35"><path class="cls-28" d="M1583.88,1464.2c7.48-.09,14,7.23,15.31,15.45s-1.84,16.77-6.85,23c-2.57,3.19-5.72,6-7.07,10.06-2.4,7.19,2.51,15.68,9.11,17.81s13.88-1,18.87-6.29,8.07-12.38,10.65-19.5c.61-1.7,1.28-3.53,2.67-4.51,2.71-1.9,6.47.83,7.31,4.27s-.3,7.07-1.42,10.41l-6,18.07c-.65,2-1.31,4.11-.67,6.07,1.09,3.38,5.54,3.92,8.19,1.89s3.94-5.61,5.08-9l8.29-24.51c3.93-.1,6.35,5.08,6.21,9.47s-1.82,8.6-1.78,13,3,9.38,6.86,8.69a6.64,6.64,0,0,0,3.75-2.56c3.65-4.56,4-11.28,6.34-16.78s9.67-9.53,13.06-4.72c1.18,1.67,1.44,3.91,1.65,6l3,29.48c10.13-20.46,20.61-43.49,15.5-66.16-3.36-14.92-13.06-27-23.4-37.18-3.59-3.52-7.37-7-11.8-9-5.16-2.34-10.89-2.6-16.45-2.21a80.39,80.39,0,0,0-46.62,19.63Z"/></g><g class="cls-36"><path d="M1417,1566.32a180.54,180.54,0,0,0,21.92,6.85c7.41,1.87,14.91,3.36,22.44,4.56s15.11,2.06,22.71,2.56,15.22.85,22.84.69,15.23-.42,22.81-1.16c3.81-.27,7.58-.8,11.38-1.22,1.89-.24,3.77-.56,5.66-.82s3.78-.52,5.65-.87a372.4,372.4,0,0,0,44.67-10.59,240.57,240.57,0,0,1-90.13,18.65,227.25,227.25,0,0,1-46.13-4.18,203.27,203.27,0,0,1-22.44-5.74A135.25,135.25,0,0,1,1417,1566.32Z"/></g><g class="cls-36"><path d="M1425.65,1143.87c4.46,10.71,8.7,21.51,12.9,32.32s8.29,21.68,12.2,32.61,7.68,21.91,11.06,33.06c.79,2.81,1.68,5.58,2.39,8.42l1.07,4.26c.35,1.42.57,2.89.86,4.33s.59,2.89.78,4.34l.62,4.33c.45,2.89.79,5.78,1.12,8.67.72,5.77,1.25,11.56,1.81,17.34s1,11.57,1.43,17.36c.92,11.58,1.67,23.16,2.34,34.74s1.29,23.17,1.82,34.76,1,23.18,1.39,34.78l-.81-1.38,24,14.87,23.91,14.94c8,5,15.89,10,23.84,15.06l11.91,7.54,11.87,7.62-12.22-7-12.18-7.1c-8.12-4.74-16.26-9.43-24.35-14.22l-24.27-14.35-24.24-14.42-.77-.46,0-.92q-.81-17.36-1.79-34.73t-2-34.71c-1.48-23.12-2.87-46.28-5.31-69.27-.3-2.87-.6-5.75-1-8.59l-.57-4.29c-.17-1.43-.48-2.82-.71-4.23s-.46-2.81-.79-4.21l-1-4.18c-.66-2.8-1.47-5.57-2.2-8.36-3.12-11.12-6.73-22.13-10.33-33.14q-2.72-8.26-5.54-16.48l-5.63-16.45C1433.41,1165.73,1429.52,1154.81,1425.65,1143.87Z"/></g><path class="cls-8" d="M1507,1226.13l35.84-36.88.38,1.23-44.6-8.14-.71-.13-.25-.71-9-26-8.94-26-17.83-52-.66-1.92,1.89-.81a154.12,154.12,0,0,1,34.27-10.21,178.35,178.35,0,0,1,35.65-2.59l1.74,0,.62,1.64q8.63,22.89,16.54,46c2.69,7.68,5.24,15.41,7.84,23.13s5.07,15.47,7.45,23.26l3.63,11.66,3.48,11.71c2.38,7.79,4.5,15.66,6.72,23.5,1.14,3.91,2.1,7.87,3.15,11.81s2.08,7.88,3.06,11.84l2.81,11.91,1.4,6,1.22,6,2.46,12,2,12.11c.32,2,.7,4,1,6.06l.71,6.12.71,6.12.35,3.06.23,3,3.38,48.67,6.55,97.35.9,13.4-5.53-12.22-24.93-55.18-24.73-55.11Zm0,0,51.86,109.26,25.61,54.36,25.4,54.29-4.63,1.17-7.34-97.22-3.56-48.62-.23-3-.35-3-.72-6-.71-6c-.28-2-.65-4-1-6l-2-11.93-2.46-11.88-1.23-5.94-1.39-5.9-2.78-11.83c-1-3.93-2-7.84-3-11.77s-2-7.86-3.1-11.75c-2.19-7.81-4.28-15.64-6.63-23.41l-3.44-11.67-3.59-11.63q-7.21-23.23-15-46.31c-5.18-15.38-10.54-30.73-16.14-45.93l2.36,1.68a181.31,181.31,0,0,0-34.69,2.18,149.9,149.9,0,0,0-33.36,9.49l1.23-2.73,17.05,52.3,8.49,26.16,8.44,26.18-1-.84,44.4,9.19,1.35.28-1,1Z"/><path class="cls-26" d="M1999.8,1459.58s27.31,39.45,29.62,46.15-26,61.2-33.27,57.52-5.43-2.52-22.74-1.68-101.73-18.61-83.12-40.74S1999.8,1459.58,1999.8,1459.58Z"/><path class="cls-3" d="M1999.8,1459.58s27.31,39.45,29.62,46.15-26,61.2-33.27,57.52-5.43-2.52-22.74-1.68-101.73-18.61-83.12-40.74S1999.8,1459.58,1999.8,1459.58Z"/><g class="cls-37"><path class="cls-28" d="M1988.67,1453.27c-15.37,19.08-14.81,49.18,1.25,67.68-1.68,8.48-3.38,17.17-2.12,25.72s6,17.11,14,20.49c-9,2.14-18.5-3.76-23-11.83s-5.12-17.77-4.62-27a40.41,40.41,0,0,0-8.52,42.57,33.14,33.14,0,0,1-13.66-33.78,45.92,45.92,0,0,0-12.66,30.55,36,36,0,0,1-7.74-28.22,46,46,0,0,1-31.11,2.09c-5.91-1.72-11.6-4.75-15.51-9.5-7.34-8.91-7-22.32-2-32.72s13.83-18.41,22.73-25.76c14.12-11.66,29.16-22.53,46.09-29.5s36-9.84,53.73-5.22Z"/></g><path class="cls-34" d="M1941.65,1445.05l-100.43,44.31v177.86l-122.93-7.79V1383.91c0-77.66-29.45-319.46-29.45-319.46,31.42-4.6,60.88,9.89,87.81,35.61C1876.59,1195.45,1941.65,1445.05,1941.65,1445.05Z"/><path class="cls-8" d="M1747.72,1182.83c6.16,4.07,12.36,8.08,18.5,12s12.18,7.79,18.21,11.71l.37.24-.11.44L1769,1269.77l-15.9,62.5-16,62.46-16.16,62.43-5.18,20-.07-20.7-.19-50c0-8.33,0-16.68-.09-25l-.26-12.42c-.12-4.14-.38-8.29-.56-12.44-.34-8.29-.94-16.59-1.48-24.89l-.4-6.22-.48-6.22-1-12.45c-1.34-16.59-2.71-33.18-4.24-49.76-3-33.17-6.37-66.31-9.74-99.45L1692,1108l-5.4-49.68-.3-2.8,2.76.27a200.29,200.29,0,0,1,25,3.86,105.38,105.38,0,0,1,24,8.41,111.35,111.35,0,0,1,21.14,14c6.5,5.36,12.57,11.13,18.57,16.94l.42.41,0,.55,6.46,82.86.05.6h-.59c-6-.06-11.95-.2-18-.32S1753.87,1182.86,1747.72,1182.83Zm0,0c6,0,11.94-.11,18-.23s12.2-.26,18.35-.32l-.55.6-8.39-82.69.46,1c-6.07-5.68-12.19-11.3-18.64-16.44a107.34,107.34,0,0,0-20.68-13.19,104.54,104.54,0,0,0-23.19-7.76,194,194,0,0,0-24.44-3.47l2.45-2.53q6.18,49.62,11.58,99.33t10.16,99.49c3.09,33.2,5.91,66.43,7.53,99.81.17,4.17.42,8.34.53,12.53l.24,12.57c.08,8.36,0,16.67,0,25l-.18,50-5.26-.68,16.74-62.28,16.85-62.25,17-62.2,17.18-62.17.26.69c-6.1-4.16-12.19-8.36-18.16-12.53S1753.67,1186.83,1747.72,1182.83Z"/><polygon class="cls-14" points="2103.92 1268.61 2013.59 1528.76 1526.57 1528.76 1526.57 1511.33 1638.52 1482.9 1715.35 1255.56 2093.04 1255.56 2103.92 1268.61"/><path class="cls-8" d="M1875.86,1453.25c-15.25,0-28.69-6.2-35.49-18-11.5-19.92.34-48.37,26.4-63.41s56.61-11.08,68.11,8.84c5.62,9.75,5.91,21.75.82,33.8-5,11.86-14.68,22.38-27.22,29.61h0A65.81,65.81,0,0,1,1875.86,1453.25Zm23.6-86.54a62.06,62.06,0,0,0-30.69,8.62c-24.15,13.94-35.34,39.94-24.94,58s38.5,21.32,62.65,7.38c11.79-6.8,20.85-16.64,25.53-27.71,4.6-10.86,4.39-21.6-.6-30.24C1925.35,1372.21,1913.27,1366.71,1899.46,1366.71Z"/><polygon class="cls-2" points="2103.92 1268.61 1731 1270.89 1645.74 1528.76 1526.57 1528.76 1526.57 1511.33 1638.52 1482.9 1715.35 1255.56 2093.04 1255.56 2103.92 1268.61"/><path class="cls-8" d="M2755.6,1418.45l178.05,64.43L2891.38,1605s-77.28-48.33-111.19-49.17-89-12.72-89-12.72,43.24-58.5,47.48-73.76S2755.6,1418.45,2755.6,1418.45Z"/><g class="cls-38"><path class="cls-39" d="M2668.55,1550.56a110,110,0,0,0,58.68-21c13.56-9.94,25.48-23.36,41.77-27.58,13.11-3.39,26.93-.2,40.47-.57,22-.61,42.43-10.53,62.87-18.63s43.14-14.54,64.15-8c24.25,7.5,41.37,33.42,38.75,58.67-1.2,11.49-5.95,22.32-11.48,32.46-21.88,40.13-57.73,72.93-100.56,88.89s-92.4,14.33-133-6.57c-9.76-5-19.23-11.32-25.35-20.43Z"/></g><path class="cls-26" d="M3177.82,1362.49s-199.24,54.26-235.7,56-75.45-2.55-89.87,9.32-48.32,48.33-38.15,50,45.78-17,45.78-17,25.78,17.17,47.65,17.06,26.12,5,26.12,5L2921.78,1516s56.8-8.48,68.67-9.33,152.61,11.87,167,9.33S3177.82,1362.49,3177.82,1362.49Z"/><g class="cls-40"><path class="cls-28" d="M3191.73,1343.07c-8-10.66-18.69-20.53-31.91-22.45-14-2-27.53,5.22-39.85,12.23l-79.41,45.46q28.13,81.84,64.17,160.67c4.11,9,8.44,18.14,15.53,25s17.62,11.07,27,8c6.2-2,11.05-6.77,15.47-11.55,27-29.14,47.35-65.16,54.05-104.3S3215.63,1374.78,3191.73,1343.07Z"/><path class="cls-28" d="M2882.39,1464.76c-11-1.8-21.7-7.27-28.5-16.14a3.61,3.61,0,0,0-1.47-1.33c-1.39-.51-2.69.87-3.57,2.06a70.79,70.79,0,0,1-48.84,27.82l12.48,11.09c8.45,7.31,21.19,4.85,32.2,3a186.43,186.43,0,0,1,25.92-2.61c10.08-.3,20.51.15,29.84-3.67s17.22-13.57,15-23.41C2904.81,1464.92,2893.43,1466.55,2882.39,1464.76Z"/></g><path class="cls-41" d="M3346.51,2611.35s-145,56-190.76,79.9,7.63,34,95.38,36.58,232.73,8.53,235.27-13.54,0-141.62,0-141.62Z"/><path class="cls-42" d="M3115.05,2638.25s-145,56.05-190.76,79.91,7.63,34,95.38,36.57,232.73,8.53,235.27-13.54,0-141.61,0-141.61Z"/><path class="cls-4" d="M3115.05,2638.25s-145,56.05-190.76,79.91,7.63,34,95.38,36.57,232.73,8.53,235.27-13.54,0-141.61,0-141.61Z"/><g class="cls-43"><path class="cls-41" d="M2888.35,2718.39c32.87,13.78,69.59,14.28,105.23,14.13,66.66-.28,135-2.42,196.86-27.18,12.95-5.18,25.71-11.37,39.5-13.42s29.26.86,38.48,11.33c14.43,16.39,6.43,44-10.83,57.43s-40.25,16.19-62,17.87a1136.43,1136.43,0,0,1-330.2-23Z"/></g><path class="cls-44" d="M3118.76,1468.67s-29.85,103.24-52.23,347.41,0,869.89,0,869.89,136.78,22.89,233.78,0c0-25.44,159.17-5.09,203.93-33.07,0-68.67-47.25-686.75-44.76-819s-17.41-336.2-49.74-365.22S3118.76,1468.67,3118.76,1468.67Z"/><g class="cls-45"><g class="cls-36"><path d="M3028,1701.46s87.93,27.39,140.28-34.24,31-259.22,31-259.22l-142.75-13.88Z"/></g><g class="cls-36"><path d="M3302.38,2776.84l-2.92-80.7s2.14-454.49-3.56-815.27c9.72-59,61.53-133.46,55.91-191.57,23.49,200,110.82,1070.55,110.82,1070.55Z"/></g></g><path class="cls-46" d="M3102.37,1468.67v78.43s178,63.15,328.11-26c1.57-45.88,0-68.77,0-68.77Z"/><path class="cls-26" d="M3034.54,1307.38s-29.51,52.57-137.18,61c-97.77,7.71-111.2-219.75-122.87-266.37-1.2-4.73-2.09-8.55-2.7-11.19a158.87,158.87,0,0,0-9.33-26.74c-7.18-16.43-14.7-30.37-13.56-42.78,1.68-18.64-5.09-37.31,5.09-41s10.17-15.84,10.17-31.11,5.93-22.89,23.73-23.75,33.91,14.78,33.91,14.78,4.25-10.53-1.68-26.63-22.89-44.11-11-50,39,39.86,47.49,62.75-17.81,73.77-13.66,92.41a31.86,31.86,0,0,0,1.55,4.83c3.05,7.66,9.46,18.72,16.61,29.94.28.46.56.89.86,1.35,13.61,21.26,79.35,147.33,79.35,147.33l54.26,10.17Z"/><g class="cls-47"><path class="cls-28" d="M3010.5,1169.68c-9.18-29.29-32.7-55.37-62.84-61.15l-65.09-22.06c3,55.53,6.11,111.36,18.2,165.65,3.4,15.32,7.68,30.84,16.68,43.69s23.6,22.76,39.29,22.3c13.85-.41,26.57-8.82,35-19.83s13.1-24.39,16.71-37.77C3016.43,1230.87,3019.68,1199,3010.5,1169.68Z"/><path class="cls-28" d="M2891.36,1359.37a151.43,151.43,0,0,0-89.8-51.9l16.87,87.12c10.11,6.1,20.36,12.26,31.66,15.72s23.93,4,34.62-1.06,18.76-16.44,17.61-28.2C2901.51,1372.87,2896.61,1365.69,2891.36,1359.37Z"/><path class="cls-28" d="M2823.14,943.06c1.75-.37,3-1.94,3.85-3.49,5.56-9.67,4.3-22,.2-32.34s-10.71-19.53-15.91-29.4c-2-3.86-3.88-8-4.14-12.31s1.39-9,5.05-11.42l-9.54-16.48c-14,5.85-23.43,21-22.56,36.11.69,12,7.13,22.84,13.71,32.91q10.83,16.59,22.77,32.4C2818.21,941.21,2820.48,943.62,2823.14,943.06Z"/><path class="cls-48" d="M2775,919.55l2.91-.81A7.39,7.39,0,0,0,2775,919.55Z"/><path class="cls-28" d="M2772.48,944.05c-1.69-4.77-3.74-9.61-3.47-14.67.22-4,2.51-8.14,6-9.83l-47.84,13.27c6.65,26.49-12.77,53.52-9.3,80.62a49.21,49.21,0,0,0,20.42,33.66,6.94,6.94,0,0,0,3.24,1.45c4.35.35,5.43-5.81,5.51-10.17a43.75,43.75,0,0,1,5-19.53c1.85-3.52,4.21-6.83,5.37-10.64,1.67-5.51.71-11.67,3.05-16.92s7.23-8.45,12.15-11.12c1.88-1,3.89-2.08,4.94-3.94s.92-4.07.73-6.16A108.36,108.36,0,0,0,2772.48,944.05Z"/></g><path class="cls-18" d="M3271.89,1072.19s-45.38,29.36-132.8,34.7S3027.65,1179,2971.6,1184.3s-64.07,12-64.07,12,16,157.49,92.09,174.84c49.39-24,77.41-29.36,77.41-29.36s4,38.7,6.68,89.42,5.24,74.74,28.64,93.42,87.5,25.36,121.52,21.36,84.73-32,116.76-32,66.74-6.67,81.42-38.7,32-244.24,24-315S3358.64,1062.85,3271.89,1072.19Z"/><g class="cls-49"><path class="cls-50" d="M2975.87,1341.7a139.34,139.34,0,0,0,88.79-18.88c15.24-9.22,28.52-21.28,41.73-33.23,1.41-1.28,3.06-2.63,5-2.43,3.28.35,4.14,4.68,4.11,8-.28,40-4,80.09-.42,119.93s15.14,80.38,41.49,110.47c13.51,15.43,30.35,27.52,47.23,39.16a317.07,317.07,0,0,1-124.89.59c-17.41-3.42-35.94-9.27-46.07-23.84-10.7-15.4-9-36-5.32-54.43s8.71-37.58,3.32-55.54-26.51-32.67-43-23.71Z"/><path class="cls-8" d="M3004.2,1331.65c-13.07-14.36-21.28-32.38-29.29-50.07-17.2-38-34.81-78.73-28.59-120l-5.5-22.25-62.2,40.07c-3.81,2.45-7.72,5-10.28,8.72-5.27,7.66-3.54,17.95-1.36,27a509.06,509.06,0,0,0,52.78,132.77c7.72,13.5,16.52,27.12,29.76,35.27,14.84,9.14,33.24,10.15,50.65,9.23,18.58-1,38.52-4.62,51.35-18.09C3038,1357.91,3018.52,1347.38,3004.2,1331.65Z"/><path class="cls-8" d="M3107.51,1520.73l-32-26.15A197.92,197.92,0,0,0,3107.51,1520.73Z"/><path class="cls-8" d="M3487.08,1469.78c-34.46,20.82-75.13,37.94-115.69,30.49-14.49-2.66-28.43-8.4-43.14-9.24-24.94-1.42-49.06,11.39-73.86,8.36-9.38-1.14-18.86-4.53-28-2.48-8.64,1.93-15.14,8.31-22.3,13.21-23.19,15.85-55.64,16.38-82.55,6.23a136.81,136.81,0,0,1-36.42-21l-22.84,45.59c10.35,20.44,114.35,33.31,138.18,35.21a842.91,842.91,0,0,0,158.3-2.22c32-3.48,64.8-9.2,91.21-26.28S3494.8,1499.41,3487.08,1469.78Z"/><path class="cls-8" d="M3347.57,1105c6.42-9.78,10.95-21.5,9.17-33.06-3.48-22.56-28.7-35-51.4-37.39-36.23-3.85-72.1,7.9-106.64,19.48l-39.89,41.23c28.59,1.34,49.2,27.07,74.71,40C3271.9,1154.86,3323.94,1141,3347.57,1105Z"/></g><path class="cls-51" d="M3314.53,829.37s14.37-50.28-54.77-50.28-87.54,9-108.86,0-75.64,103.25-16.16,120.31c33.55,46,77,122.11,77,122.11l91.1,35.91,9.11-35.65s87-54.13,79.77-116.08S3314.53,829.37,3314.53,829.37Z"/><path class="cls-2" d="M3314.53,829.37s14.37-50.28-54.77-50.28-87.54,9-108.86,0-75.64,103.25-16.16,120.31c33.55,46,77,122.11,77,122.11l91.1,35.91,9.11-35.65s87-54.13,79.77-116.08S3314.53,829.37,3314.53,829.37Z"/><g class="cls-52"><path class="cls-25" d="M3263.22,866.2c4.81-11.43,1.31-25.24-6.69-34.71s-19.83-15-31.92-17.81c12.21,15.24,10.28,39.88-4.16,53A67.85,67.85,0,0,0,3182,815.89c-13.81-6.24-30.72-8.48-39.75-20.64-8.13-11-6.85-26.12-8.67-39.42a8,8,0,0,0-2.82-5.21c-4.65-3.7-9.52.45-12.8,4.22-28.94,33.22-54.72,72.76-55.93,116.8-.92,33.63,12.91,66.45,33.16,93.32s46.61,48.48,73.66,68.5c37.33,27.63,79.55,53.75,126,53.36,10.49-.09,21.55-1.8,29.69-8.41,11.28-9.14,14.13-25.74,10.75-39.86s-11.88-26.38-20.2-38.28c3.32-3,8.52-1.45,13-1.1,10.12.79,19.71-6.18,24.44-15.16s5.36-19.57,4.57-29.69c-2.68-34.21-21.85-66.45-49.72-86.28a41,41,0,0,0-44.19-1.84Z"/></g><path class="cls-26" d="M3310.49,1027.57c1.35-18.18-2.69,9.42-16.84,7.4s-8.75-14.81-20.87-8.08-19.53,4-29.63-17.5c.24-.29.42-.58.64-.87a53.84,53.84,0,0,0,5.24-4.07c17.86-16,21.58-41,8.3-55.82-11.34-12.65-31.39-13.76-48.13-3.85-2.33-1.75-3.76-2.73-3.76-2.73s-30.3-20.88-34.34-37.71c-2.69,14.14.67,20.87.67,20.87S3157,922.52,3152.25,899c-4.23-21.13-6.07-34.34-6.07-34.34S3129.35,876.73,3132,934c-8.08,7.4-7.4,14.14-5.38,18.18s-16.84,106.39,79.46,92.25c0,41.08-6.06,57.91-6.06,57.91s18.18,24.92,54.54,28.28,80.8-36.36,80.8-36.36S3309.14,1045.75,3310.49,1027.57Z"/><g class="cls-53"><path class="cls-28" d="M3167.66,928.3c-1.1-9,.33-9.22,2.07-18.16,5.05,7.6,10.19,15.3,17,21.31s15.77,10.27,24.87,9.61a8.9,8.9,0,0,0,5.3-1.76c1.58-1.37,2.22-3.51,2.66-5.56,2.94-13.88-.24-28.37-5.13-41.69a166.69,166.69,0,0,0-64-80.94l-8.34,39.7C3131.67,881.33,3141.85,908.94,3167.66,928.3Z"/><path class="cls-28" d="M3207.32,1097.55a86.65,86.65,0,0,0,28.71-62c.08-3.46-.94-8-4.39-8.33a7.58,7.58,0,0,0-4.23,1.31,106.79,106.79,0,0,1-69.39,10.65c-8.56-1.61-17.52-4.7-22.63-11.76l-.13,61c7.36,6,14.79,12,23.28,16.27s18.26,6.56,27.56,4.66a35.4,35.4,0,0,0,8-2.73,68.7,68.7,0,0,0,17.22,11.61l-16.95-11.73A56.06,56.06,0,0,0,3207.32,1097.55Z"/><path class="cls-28" d="M3335.83,1075c-16.52,22.18-39.16,40.67-65.86,47.88-19.31,5.22-40.76,3.76-58.64-4.76l39,26.95c15.09.47,30.39.41,45-3.35s28.7-11.56,37.33-24S3343.5,1088,3335.83,1075Z"/></g><path class="cls-28" d="M3236.42,959.56a91,91,0,0,0-7.47,5.81A33.63,33.63,0,0,0,3223,972a19.54,19.54,0,0,0-3.05,8,33.28,33.28,0,0,0,.27,9.24,16.56,16.56,0,0,1-.57-19.38,22.93,22.93,0,0,1,7.42-7A23.76,23.76,0,0,1,3236.42,959.56Z"/><path class="cls-28" d="M3220.73,971.93a9.68,9.68,0,0,1,3.2-4.58,8.26,8.26,0,0,1,5.85-1.93,7,7,0,0,1,3.21,1.16,7.35,7.35,0,0,1,2.15,2.31,9,9,0,0,1,1.28,5.48c-1.39-1.3-2.52-2.56-3.69-3.46a6.09,6.09,0,0,0-3.32-1.51,9.61,9.61,0,0,0-3.92.67C3224,970.57,3222.49,971.25,3220.73,971.93Z"/><ellipse class="cls-30" cx="3157.63" cy="935.99" rx="6.73" ry="10.1"/><path class="cls-8" d="M3134.74,989.18s10.77,4,25.59,0,7.4,24.25-9.43,21.55C3140.18,1009,3134.74,989.18,3134.74,989.18Z"/><ellipse class="cls-31" cx="3182.49" cy="965.62" rx="14.2" ry="17.51"/><path class="cls-8" d="M3300.31,2688h0a2,2,0,0,1-2-2c0-4.07,4.58-407.79,0-485.67-.56-9.63-1.35-21.55-2.26-35.34-6.59-99.94-18.87-286,4.61-324.45,26.56-43.55,51.47-132.25,49-161.85a2,2,0,1,1,4-.33c2.54,30.13-22.66,120.18-49.55,164.26-22.81,37.41-10.59,222.61-4,322.11.91,13.8,1.7,25.72,2.26,35.37,4.59,78,0,481.88,0,485.95A2,2,0,0,1,3300.31,2688Z"/></g></svg>