<?xml version="1.0" encoding="UTF-8"?>
<!DOCTYPE svg PUBLIC "-//W3C//DTD SVG 1.1//EN" "http://www.w3.org/Graphics/SVG/1.1/DTD/svg11.dtd">
<svg xmlns="http://www.w3.org/2000/svg" version="1.1" width="177px" height="54px" style="shape-rendering:geometricPrecision; text-rendering:geometricPrecision; image-rendering:optimizeQuality; fill-rule:evenodd; clip-rule:evenodd" xmlns:xlink="http://www.w3.org/1999/xlink">
<g><path style="opacity:0.906" fill="#066770" d="M 170.5,29.5 C 169.89,30.391 169.557,31.391 169.5,32.5C 165.657,36.337 160.99,37.5037 155.5,36C 152.7,31.5616 151.367,31.7283 151.5,36.5C 148.833,36.5 146.167,36.5 143.5,36.5C 143.657,35.1266 143.49,33.7932 143,32.5C 137.741,37.992 132.741,37.6587 128,31.5C 125.459,36.0685 121.625,37.5685 116.5,36C 114.622,34.4571 113.122,32.6238 112,30.5C 111.505,32.4727 111.338,34.4727 111.5,36.5C 109.345,36.628 107.345,36.128 105.5,35C 103.536,31.8955 101.87,28.7289 100.5,25.5C 99.2323,34.0869 94.2323,37.7536 85.5,36.5C 85.7678,34.901 85.4345,33.5676 84.5,32.5C 84.5,31.1667 84.5,29.8333 84.5,28.5C 85.5,28.5 86.5,28.5 87.5,28.5C 87.0863,19.5949 91.4196,15.9282 100.5,17.5C 100.351,18.552 100.517,19.552 101,20.5C 102.149,17.6074 102.649,14.6074 102.5,11.5C 104.833,11.5 107.167,11.5 109.5,11.5C 109.192,13.924 109.526,16.2573 110.5,18.5C 113.421,17.5934 116.421,17.2601 119.5,17.5C 119.833,32.1667 120.167,32.1667 120.5,17.5C 123.167,17.5 125.833,17.5 128.5,17.5C 128.974,21.1569 130.307,21.3236 132.5,18C 134.134,17.5065 135.801,17.3398 137.5,17.5C 137.5,15.5 137.5,13.5 137.5,11.5C 141.862,11.2437 146.195,11.077 150.5,11C 150.339,14.8758 150.839,18.7091 152,22.5C 158.395,15.7657 164.395,16.099 170,23.5C 170.495,25.4727 170.662,27.4727 170.5,29.5 Z M 135.5,24.5 C 137.104,25.287 137.771,26.6203 137.5,28.5C 136.5,28.5 135.5,28.5 134.5,28.5C 134.433,27.0413 134.766,25.7079 135.5,24.5 Z M 159.5,25.5 C 160.995,25.4148 161.995,26.0815 162.5,27.5C 161.167,28.8333 159.833,28.8333 158.5,27.5C 158.863,26.8165 159.196,26.1499 159.5,25.5 Z M 109.5,27.5 C 110.077,26.2267 110.743,26.2267 111.5,27.5C 111.03,28.463 110.363,28.463 109.5,27.5 Z"/></g>
<g><path style="opacity:0.891" fill="#6dbaa7" d="M 84.5,28.5 C 84.5,29.8333 84.5,31.1667 84.5,32.5C 85.4693,42.8641 80.8026,47.5307 70.5,46.5C 70.5,44.1667 70.5,41.8333 70.5,39.5C 72.1992,39.6602 73.8659,39.4935 75.5,39C 72.0885,38.883 69.5885,37.383 68,34.5C 65.544,36.3213 62.7107,36.988 59.5,36.5C 59.5,33.8333 59.5,31.1667 59.5,28.5C 54.7581,27.812 53.9247,28.812 57,31.5C 57.6838,32.7839 57.5171,33.9505 56.5,35C 53.2467,36.8203 49.9133,36.9869 46.5,35.5C 46.1667,34.5 45.5,33.8333 44.5,33.5C 40.095,24.9647 42.4283,19.298 51.5,16.5C 54.3655,17.1823 56.8655,18.5156 59,20.5C 59.3333,17.8333 59.6667,15.1667 60,12.5C 62.3806,11.565 64.8806,11.2317 67.5,11.5C 67.5,14.5 67.5,17.5 67.5,20.5C 70.1667,20.5 72.8333,20.5 75.5,20.5C 75.8333,33.8333 76.1667,33.8333 76.5,20.5C 79.1667,20.5 81.8333,20.5 84.5,20.5C 84.5,23.1667 84.5,25.8333 84.5,28.5 Z"/></g>
<g><path style="opacity:1" fill="#77c3b7" d="M 12.5,5.5 C 15.8333,5.5 19.1667,5.5 22.5,5.5C 20.5564,9.94388 19.5564,14.6105 19.5,19.5C 15.806,18.1131 12.1394,16.7797 8.5,15.5C 8.33669,13.1432 8.50335,10.8098 9,8.5C 10.5185,7.83663 11.6851,6.83663 12.5,5.5 Z"/></g>
<g><path style="opacity:1" fill="#0b2d35" d="M 35.5,16.5 C 35.2893,18.4241 34.6226,18.7574 33.5,17.5C 32.6016,16.8423 31.6016,16.1757 30.5,15.5C 31.0347,13.8987 32.0347,13.3987 33.5,14C 34.0659,14.9947 34.7326,15.828 35.5,16.5 Z"/></g>
<g><path style="opacity:1" fill="#2a9999" d="M 12.5,5.5 C 11.6851,6.83663 10.5185,7.83663 9,8.5C 8.50335,10.8098 8.33669,13.1432 8.5,15.5C 12.1394,16.7797 15.806,18.1131 19.5,19.5C 19.4894,21.0174 18.8228,22.1841 17.5,23C 15.1667,23.6667 12.8333,23.6667 10.5,23C 6.79101,20.7899 3.45767,18.2899 0.5,15.5C 2.41915,9.57425 6.41915,6.24091 12.5,5.5 Z"/></g>
<g><path style="opacity:1" fill="#4caea9" d="M 36.5,9.5 C 38.8275,10.7356 39.9942,12.7356 40,15.5C 41.191,20.7674 41.691,26.1007 41.5,31.5C 40.5,31.5 39.5,31.5 38.5,31.5C 38.6495,30.448 38.4828,29.448 38,28.5C 32.3571,25.9543 30.8571,22.2877 33.5,17.5C 34.6226,18.7574 35.2893,18.4241 35.5,16.5C 35.1984,13.9407 35.5318,11.6074 36.5,9.5 Z"/></g>
<g><path style="opacity:1" fill="#248d91" d="M 26.5,5.5 C 30.7754,4.74965 34.1087,6.08298 36.5,9.5C 35.5318,11.6074 35.1984,13.9407 35.5,16.5C 34.7326,15.828 34.0659,14.9947 33.5,14C 32.0347,13.3987 31.0347,13.8987 30.5,15.5C 31.6016,16.1757 32.6016,16.8423 33.5,17.5C 30.8571,22.2877 32.3571,25.9543 38,28.5C 38.4828,29.448 38.6495,30.448 38.5,31.5C 39.5,31.5 40.5,31.5 41.5,31.5C 41.5,32.1667 41.5,32.8333 41.5,33.5C 36.7345,33.5726 33.4012,31.4059 31.5,27C 30.0544,25.702 28.7211,25.5354 27.5,26.5C 26.1667,26.5 24.8333,26.5 23.5,26.5C 24.842,25.207 26.5087,24.3736 28.5,24C 23.2928,18.105 22.6261,11.9383 26.5,5.5 Z"/></g>
<g><path style="opacity:1" fill="#146671" d="M 22.5,5.5 C 23.8333,5.5 25.1667,5.5 26.5,5.5C 22.6261,11.9383 23.2928,18.105 28.5,24C 26.5087,24.3736 24.842,25.207 23.5,26.5C 22.5294,28.4832 21.5294,30.4832 20.5,32.5C 10.5193,33.5276 3.85267,29.5276 0.5,20.5C 0.5,18.8333 0.5,17.1667 0.5,15.5C 3.45767,18.2899 6.79101,20.7899 10.5,23C 12.8333,23.6667 15.1667,23.6667 17.5,23C 18.8228,22.1841 19.4894,21.0174 19.5,19.5C 19.5564,14.6105 20.5564,9.94388 22.5,5.5 Z"/></g>
<g><path style="opacity:0.781" fill="#d91515" d="M 170.5,29.5 C 172.144,29.2865 173.644,29.6198 175,30.5C 175.495,32.4727 175.662,34.4727 175.5,36.5C 173.5,36.5 171.5,36.5 169.5,36.5C 169.5,35.1667 169.5,33.8333 169.5,32.5C 169.557,31.391 169.89,30.391 170.5,29.5 Z"/></g>
<g><path style="opacity:0.743" fill="#acb0b0" d="M 41.5,33.5 C 42.5,33.5 43.5,33.5 44.5,33.5C 45.5,33.8333 46.1667,34.5 46.5,35.5C 44.5648,36.1495 42.5648,36.4828 40.5,36.5C 38.0948,35.2318 35.4282,34.5651 32.5,34.5C 31.2073,32.7041 29.7073,31.0375 28,29.5C 27.5172,28.552 27.3505,27.552 27.5,26.5C 28.7211,25.5354 30.0544,25.702 31.5,27C 33.4012,31.4059 36.7345,33.5726 41.5,33.5 Z"/></g>
<g><path style="opacity:1" fill="#0f6777" d="M 0.5,31.5 C 3.505,31.253 6.005,32.253 8,34.5C 8.94325,37.4001 10.6099,39.7334 13,41.5C 13.4935,43.1341 13.6602,44.8008 13.5,46.5C 4.53389,45.5329 0.200557,40.5329 0.5,31.5 Z"/></g>
<g><path style="opacity:0.707" fill="#0b4855" d="M 0.5,20.5 C 3.85267,29.5276 10.5193,33.5276 20.5,32.5C 22.2477,38.3638 25.9144,39.8638 31.5,37C 32.2524,36.3292 32.5858,35.4959 32.5,34.5C 35.4282,34.5651 38.0948,35.2318 40.5,36.5C 39.4068,41.3978 36.4068,44.5645 31.5,46C 25.5092,46.4995 19.5092,46.6662 13.5,46.5C 13.6602,44.8008 13.4935,43.1341 13,41.5C 10.6099,39.7334 8.94325,37.4001 8,34.5C 6.005,32.253 3.505,31.253 0.5,31.5C 0.5,27.8333 0.5,24.1667 0.5,20.5 Z"/></g>
</svg>
