<svg id="Capa_1" enable-background="new 0 0 512 512" height="512" viewBox="0 0 512 512" width="512" xmlns="http://www.w3.org/2000/svg" xmlns:xlink="http://www.w3.org/1999/xlink"><linearGradient id="SVGID_1_" gradientUnits="userSpaceOnUse" x1="134.014" x2="480.107" y1="401.788" y2="55.696"><stop offset="0" stop-color="#fff" stop-opacity="0"/><stop offset=".2617" stop-color="#ededff" stop-opacity=".416"/><stop offset=".629" stop-color="#d8d8ff"/></linearGradient><g><g><path d="m427.946 9.651c-78.162-41.767-128.418 64.321-200.598 84.693-36.554 10.317-75.462-11.162-113.096-6.038-12.71 1.73-27.533 6.602-31.965 18.639-9.314 25.298 17.81 45.333 7.33 81.703-11.969 41.539-69.595 82.958-40.953 126.353 24.769 37.529 76.405 13.82 113.137 9.806 178.769-19.538 49.207 185.019 151.443 187.147 80.077 1.666 126.159-41.255 98.968-121.631-10.665-31.527-27.941-61.172-32.585-94.132-8.168-57.969 22.022-116.306 62.906-158.205 41.088-42.109 39.621-99.368-14.587-128.335z" fill="url(#SVGID_1_)"/></g><g><g><path d="m453.936 230.82c.258-3.082.399-6.198.417-9.343.387-66.805-53.851-121.281-120.568-121.281h-138.636v-8.645c0-19.17-15.54-34.709-34.709-34.709h-51.96c-19.169 0-34.709 15.54-34.709 34.709 0 19.169 15.54 34.709 34.709 34.709h35.408l19.498 23.936-34.085 41.842c-2.661 3.266-.337 8.158 3.877 8.158h200.101c11.137 0 20.637 8.641 21.061 19.771.446 11.702-8.949 21.369-20.555 21.369h-159.233c-66.53 0-121.509 53.331-121.895 119.859-.107 18.538 3.997 36.123 11.402 51.862h-3.11c-19.169 0-34.709 15.54-34.709 34.709 0 19.169 15.54 34.709 34.709 34.709h51.96c7.695 0 14.801-2.508 20.556-6.745 12.456 4.364 25.835 6.745 39.761 6.745h173.377c3.007 0 5.854-1.353 7.753-3.684l35.156-43.158c1.498-1.839 1.498-4.477 0-6.316l-33.362-40.955h20.255c2.274 0 4.379-1.199 5.539-3.154l11.591-19.532c1.203-2.026 1.203-4.548 0-6.574l-11.591-19.532c-1.16-1.955-3.266-3.154-5.539-3.154h-9.53c22.399-6.547 42.204-19.307 57.277-36.307h26.899c19.169 0 34.709-15.54 34.709-34.709.001-18.196-14.006-33.113-31.824-34.58zm-301.265 131.885c-.446-11.702 8.95-21.369 20.555-21.369h132.834v41.14h-132.328c-11.137 0-20.637-8.641-21.061-19.771z" fill="#0000cb" opacity=".1"/><g><g><g><path d="m211.89 411.63-38.16 46.85h-.5c-66.72 0-120.96-54.48-120.57-121.28.38-66.02 54.52-119.04 120.36-119.84l-38.14 46.82c-1.5 1.84-1.5 4.48 0 6.31l38.16 46.85h.19c-11.61 0-21.01 9.66-20.56 21.37.42 11.12 9.92 19.77 21.06 19.77l38.16 46.84c1.5 1.84 1.5 4.48 0 6.31z" fill="#ff4d4d"/></g><g><path d="m147.616 418.06v29.71c0 2.68-.3 5.28-.88 7.78-27.17-6.12-50.9-21.43-67.72-42.49h63.6c2.76 0 5 2.24 5 5z" fill="#ff2c2c"/></g><g><path d="m454.355 197.476c-.39 66.33-55.04 119.54-121.3 119.85l-38.15-46.83c-1.49-1.84-1.49-4.48 0-6.32l38.16-46.84h.72c11.61 0 21-9.67 20.55-21.37-.42-11.13-9.92-19.77-21.06-19.77h-25.77l38.15-46.84c1.5-1.84 1.5-4.48 0-6.32l-38.15-46.84h26.28c66.72 0 120.96 54.48 120.57 121.28z" fill="#b2b2ff"/></g><path d="m449.456 230.69c-8.72 29.36-28.44 54.01-54.3 69.42h-25.77c-2.77 0-5-2.24-5-5v-29.71c0-19.17 15.54-34.71 34.71-34.71z" fill="#9393ff"/><path d="m308.81 129.35-38.15 46.85h-137.48c-4.22 0-6.54-4.89-3.88-8.16l34.09-41.84-34.09-41.85c-2.66-3.26-.34-8.15 3.88-8.15h137.48l38.15 46.84c1.5 1.84 1.5 4.48 0 6.31z" fill="#8282ff"/><path d="m195.146 91.55v29.71c0 2.76-2.24 5-5 5h-26.81l.05-.06-34.09-41.85c-2.66-3.26-.33-8.15 3.88-8.15h58.4c2.29 4.63 3.57 9.84 3.57 15.35z" fill="#6c6cff"/><path d="m307.503 76.196 38.158 46.842c1.498 1.839 1.498 4.477 0 6.316l-38.158 46.842h-36.847l38.158-46.842c1.498-1.839 1.498-4.477 0-6.316l-38.158-46.842z" fill="#9393ff"/><path d="m352.66 411.63-38.15 46.85h-140.78l38.16-46.85c1.5-1.83 1.5-4.47 0-6.31l-38.16-46.84h140.78l38.15 46.84c1.5 1.84 1.5 4.48 0 6.31z" fill="#fa6"/><path d="m375.696 388.36h-64.64v-29.88h35.55c3 0 5.85 1.35 7.75 3.68z" fill="#ff9c33"/><path d="m354.355 362.161 35.156 43.158c1.498 1.839 1.498 4.477 0 6.316l-35.156 43.158c-1.899 2.331-4.746 3.684-7.753 3.684h-32.095l38.158-46.842c1.498-1.839 1.498-4.477 0-6.316l-38.158-46.842h32.095c3.007-.001 5.854 1.352 7.753 3.684z" fill="#ff9c33"/><path d="m294.91 270.49 38.16 46.85h-124l-38.16-46.85c-1.5-1.83-1.5-4.47 0-6.31l38.16-46.84h124l-38.16 46.84c-1.5 1.84-1.5 4.48 0 6.31z" fill="#ff9393"/><path d="m173.036 317.336-38.158-46.842c-1.498-1.839-1.498-4.477 0-6.316l38.158-46.842h36.031l-38.158 46.842c-1.498 1.839-1.498 4.477 0 6.316l38.158 46.842z" fill="#ff6c6c"/></g><g><path d="m345.004 458.476c-6.436-12.171-19.218-20.468-33.944-20.468s-27.508 8.298-33.944 20.468z" fill="#b2b2ff"/><path d="m376.405 364.363h-65.345v-51.946h65.345c2.274 0 4.379 1.199 5.539 3.154l11.591 19.532c1.203 2.026 1.203 4.548 0 6.574l-11.591 19.532c-1.16 1.956-3.265 3.154-5.539 3.154z" fill="#ff4d4d"/></g><g><g><g><path d="m223.765 146.227h-5.331c-6.508 0-11.803-5.295-11.803-11.803v-16.457c0-6.508 5.295-11.802 11.803-11.802h5.331c6.508 0 11.803 5.294 11.803 11.802v16.457c0 6.508-5.295 11.803-11.803 11.803zm-5.331-30.062c-.994 0-1.803.809-1.803 1.802v16.457c0 .994.809 1.803 1.803 1.803h5.331c.994 0 1.803-.809 1.803-1.803v-16.457c0-.994-.809-1.802-1.803-1.802z" fill="#fff"/></g><g><path d="m252.582 146.227c-2.762 0-5-2.239-5-5v-25.062h-.444c-2.762 0-5-2.239-5-5s2.238-5 5-5h5.444c2.762 0 5 2.239 5 5v30.062c0 2.762-2.239 5-5 5z" fill="#fff"/></g></g></g><g><g fill="#fff"><path d="m245.785 388.445h-5.331c-6.508 0-11.803 5.294-11.803 11.802v16.457c0 6.508 5.295 11.803 11.803 11.803h5.331c6.508 0 11.803-5.295 11.803-11.803v-16.457c0-6.507-5.295-11.802-11.803-11.802zm1.803 28.26c0 .994-.809 1.803-1.803 1.803h-5.331c-.994 0-1.803-.809-1.803-1.803v-16.457c0-.994.809-1.802 1.803-1.802h5.331c.994 0 1.803.809 1.803 1.802z"/><path d="m291.016 400.96c0-6.901-5.614-12.515-12.516-12.515h-9.395c-2.762 0-5 2.239-5 5s2.238 5 5 5h9.395c1.387 0 2.516 1.128 2.516 2.516 0 1.387-1.129 2.515-2.516 2.515h-9.395c-2.762 0-5 2.239-5 5s2.238 5 5 5h9.395c1.387 0 2.516 1.128 2.516 2.516 0 1.387-1.129 2.515-2.516 2.515h-9.395c-2.762 0-5 2.239-5 5s2.238 5 5 5h9.395c6.901 0 12.516-5.614 12.516-12.515 0-2.822-.95-5.42-2.531-7.516 1.581-2.096 2.531-4.694 2.531-7.516z"/></g></g><g><g><g><path d="m227.433 287.367h-5.332c-6.508 0-11.802-5.295-11.802-11.803v-16.457c0-6.508 5.294-11.802 11.802-11.802h5.332c6.508 0 11.803 5.294 11.803 11.802v16.457c0 6.508-5.295 11.803-11.803 11.803zm-5.332-30.062c-.993 0-1.802.809-1.802 1.802v16.457c0 .994.809 1.803 1.802 1.803h5.332c.994 0 1.803-.809 1.803-1.803v-16.457c0-.994-.809-1.802-1.803-1.802z" fill="#fff"/></g><g><path d="m268.914 286.927h-18.108c-2.122 0-4.012-1.339-4.716-3.341s-.068-4.23 1.586-5.559c5.042-4.05 12.846-11.452 14.406-15.228.6-1.451.505-3.052-.247-4.177-.585-.875-1.455-1.318-2.587-1.318-1.898 0-3.442 1.544-3.442 3.442 0 2.761-2.238 5-5 5s-5-2.239-5-5c0-7.412 6.03-13.442 13.442-13.442 4.479 0 8.451 2.099 10.898 5.758 2.624 3.923 3.063 8.99 1.178 13.555-1.354 3.274-4.398 6.997-7.594 10.308h5.184c2.762 0 5 2.239 5 5s-2.239 5.002-5 5.002z" fill="#fff"/></g></g></g></g><g><path d="m142.618 389.057h-81.669c-19.17 0-34.709 15.54-34.709 34.709 0 19.169 15.54 34.709 34.709 34.709h51.96c19.17 0 34.709-15.54 34.709-34.709v-29.71c0-2.76-2.239-4.999-5-4.999z" fill="#fa6"/><g><g><path d="m97.578 419.827h-35.758c-2.761 0-5-2.239-5-5s2.239-5 5-5h35.758c2.761 0 5 2.239 5 5s-2.238 5-5 5z" fill="#fff"/></g><g><path d="m119.806 439.706h-57.986c-2.761 0-5-2.239-5-5s2.239-5 5-5h57.986c2.761 0 5 2.239 5 5s-2.238 5-5 5z" fill="#fff"/></g></g></g><g><path d="m190.149 102.26h-81.669c-19.17 0-34.709-15.54-34.709-34.709 0-19.17 15.54-34.709 34.709-34.709h51.96c19.169 0 34.709 15.54 34.709 34.709v29.71c0 2.761-2.239 4.999-5 4.999z" fill="#b2b2ff"/><g><g><path d="m145.109 63.611h-35.758c-2.761 0-5-2.239-5-5s2.239-5 5-5h35.758c2.761 0 5 2.239 5 5s-2.238 5-5 5z" fill="#fff"/></g><g><path d="m167.337 83.491h-57.986c-2.761 0-5-2.239-5-5s2.239-5 5-5h57.986c2.761 0 5 2.239 5 5s-2.238 5-5 5z" fill="#fff"/></g></g></g><g><g><path d="m369.382 276.11h81.669c19.169 0 34.709-15.54 34.709-34.709 0-19.17-15.54-34.709-34.709-34.709h-51.96c-19.169 0-34.709 15.54-34.709 34.709v29.71c0 2.761 2.239 4.999 5 4.999z" fill="#ff6c6c"/><g fill="#0000cb"><path d="m53.166 325.806c.241.035.479.052.716.052 2.447-.001 4.585-1.799 4.943-4.291 8.117-56.57 57.869-99.23 115.727-99.23h159.233c7.005 0 13.546-2.787 18.417-7.848 4.868-5.057 7.401-11.702 7.134-18.712-.525-13.783-11.971-24.58-26.058-24.58l-200.101.001 34.084-41.843c1.498-1.839 1.498-4.478 0-6.316l-12.852-15.777h35.739c5.514 0 10-4.486 10-10v-29.71c0-21.896-17.813-39.709-39.709-39.709h-51.96c-21.896 0-39.709 17.813-39.709 39.709s17.813 39.71 39.709 39.71h33.032l15.425 18.936-31.512 38.685c-2.462 3.021-2.953 7.086-1.28 10.606 1.673 3.521 5.134 5.709 9.033 5.709h200.101c8.544 0 15.751 6.711 16.065 14.961.163 4.269-1.38 8.315-4.346 11.396-2.968 3.084-6.951 4.782-11.212 4.782h-159.233c-62.8 0-116.807 46.349-125.625 107.811-.392 2.732 1.506 5.266 4.239 5.658zm25.604-258.255c0-16.382 13.328-29.709 29.709-29.709h51.96c16.382 0 29.709 13.327 29.709 29.709l.006 29.71h-81.676c-16.38 0-29.708-13.328-29.708-29.71z"/><path d="m459.215 202.539c.077-1.673.124-3.352.135-5.029.196-33.634-12.785-65.323-36.554-89.23-23.771-23.912-55.381-37.08-89.006-37.08h-109.85c-2.761 0-5 2.238-5 5s2.239 5 5 5h109.85c30.943 0 60.034 12.121 81.915 34.13 21.877 22.005 33.826 51.17 33.646 82.118-.009 1.415-.048 2.832-.109 4.243h-50.15c-21.896 0-39.709 17.813-39.709 39.709v29.71c0 5.514 4.486 10 10 10h42.883c-13.132 12.155-28.863 21.157-46.094 26.307h-50.624c-.809-1.671-2.506-2.832-4.487-2.832-2.761 0-5 2.238-5 5v2.755h-132.831c-7.012 0-13.557 2.788-18.429 7.852-4.866 5.056-7.397 11.7-7.128 18.707.512 13.555 12.201 24.582 26.057 24.582h132.33v69.836c-13.107 1.51-24.821 8.881-31.835 20.164h-100.995c-10.25 0-20.337-1.355-30.101-3.996 5.91-6.935 9.489-15.914 9.489-25.718v-29.709c0-5.514-4.486-10-10-10h-75.305c-4.758-10.859-7.811-22.338-9.04-34.184-.285-2.746-2.739-4.733-5.489-4.458-2.747.285-4.742 2.743-4.457 5.489 1.195 11.517 3.982 22.713 8.253 33.398-19.847 2.183-35.341 19.045-35.341 39.464 0 21.896 17.813 39.71 39.709 39.71h51.96c7.84 0 15.15-2.293 21.313-6.23 12.55 4.12 25.656 6.234 39.008 6.234h173.371c4.528 0 8.769-2.016 11.637-5.533l35.14-43.147c2.996-3.655 2.999-8.971.01-12.637l-26.714-32.8h9.732c4.019 0 7.789-2.146 9.839-5.603l11.591-19.532c2.137-3.602 2.137-8.076 0-11.677l-11.591-19.532c-.409-.689-.903-1.31-1.437-1.889 15.69-7.055 29.812-17.246 41.549-30.02h24.695c21.896 0 39.709-17.813 39.709-39.71.001-19.098-13.552-35.087-31.545-38.862zm-398.266 250.938c-16.382 0-29.709-13.328-29.709-29.71s13.328-29.709 29.709-29.709h81.669v29.709c0 16.382-13.328 29.71-29.709 29.71zm112.781-99.997c-8.546 0-15.752-6.711-16.064-14.962-.164-4.269 1.378-8.314 4.341-11.394 2.97-3.086 6.956-4.785 11.223-4.785h132.83v31.141zm137.33 89.528c9.34 0 18.061 3.868 24.279 10.469h-48.557c6.218-6.601 14.939-10.469 24.278-10.469zm74.573-34.535-35.148 43.158c-.7.857-1.644 1.444-2.69 1.701-7.024-11.197-18.687-18.511-31.735-20.015v-63.953h37.716zm3.602-70.818c.269.453.269 1.018 0 1.471l-11.591 19.531c-.258.436-.733.706-1.24.706h-60.344v-41.946h60.345c.506 0 .981.271 1.24.706zm61.816-66.545h-81.669v-29.71c0-16.382 13.328-29.709 29.709-29.709h51.96c16.382 0 29.709 13.327 29.709 29.709s-13.327 29.71-29.709 29.71z"/></g></g><g><g><path d="m427.952 235.461h-35.758c-2.761 0-5-2.239-5-5s2.239-5 5-5h35.758c2.761 0 5 2.239 5 5s-2.239 5-5 5z" fill="#fff"/></g><g><path d="m450.18 255.34h-57.986c-2.761 0-5-2.239-5-5s2.239-5 5-5h57.986c2.761 0 5 2.239 5 5s-2.239 5-5 5z" fill="#fff"/></g></g></g><g><path d="m367.739 341.625-21.13 10.322c-3.696 1.805-7.042-2.998-4.067-5.839l2.845-2.717h-12.009c-2.762 0-5.001-2.239-5.001-5.001 0-2.762 2.239-5.001 5.001-5.001h12.009l-2.845-2.717c-2.975-2.841.372-7.645 4.067-5.839l21.13 10.322c2.693 1.316 2.693 5.155 0 6.47z" fill="#fff"/></g></g><g><path d="m74.128 217.504c-.46 0-.92-.063-1.367-.19-13.11-3.728-14.092-22.537-14.128-23.336-.101-2.271 1.344-4.325 3.516-4.998l10.5-3.252c.963-.299 1.995-.299 2.958 0l10.5 3.252c2.172.673 3.617 2.727 3.516 4.998-.036.799-1.018 19.608-14.128 23.336-.446.126-.906.19-1.367.19zm-5.007-20.215c.697 3.519 2.193 7.98 5.007 9.783 2.813-1.802 4.309-6.262 5.007-9.783l-5.007-1.551z" fill="#ff6c6c"/></g><g><path d="m405.421 67.611c-.46 0-.92-.063-1.367-.19-13.11-3.727-14.092-22.537-14.128-23.336-.101-2.271 1.344-4.325 3.516-4.998l10.5-3.252c.963-.299 1.995-.299 2.958 0l10.5 3.252c2.172.673 3.617 2.727 3.516 4.998-.036.799-1.018 19.609-14.128 23.336-.447.127-.907.19-1.367.19zm-5.007-20.215c.697 3.519 2.193 7.981 5.007 9.783 2.812-1.801 4.31-6.261 5.007-9.783l-5.007-1.551z" fill="#6c6cff"/></g><g><path d="m451.377 422.909c-1.28 0-2.559-.488-3.536-1.465-1.953-1.952-1.953-5.118 0-7.07l10-10c1.953-1.953 5.118-1.953 7.071 0 1.953 1.952 1.953 5.118 0 7.07l-10 10c-.975.977-2.255 1.465-3.535 1.465z" fill="#ff9c33"/></g><g><path d="m74.699 156.228c-1.28 0-2.559-.488-3.536-1.465-1.953-1.952-1.953-5.118 0-7.07l10-10c1.953-1.953 5.118-1.953 7.071 0 1.953 1.952 1.953 5.118 0 7.07l-10 10c-.976.976-2.255 1.465-3.535 1.465z" fill="#ff9c33"/></g><g><path d="m424.377 394.311c-1.28 0-2.559-.488-3.536-1.465-1.953-1.952-1.953-5.118 0-7.07l10-10c1.953-1.953 5.118-1.953 7.071 0 1.953 1.952 1.953 5.118 0 7.07l-10 10c-.975.976-2.255 1.465-3.535 1.465z" fill="#6c6cff"/></g></g></g></svg>