<?xml version="1.0" encoding="iso-8859-1"?>
<!-- Generator: Adobe Illustrator 25.0.0, SVG Export Plug-In . SVG Version: 6.00 Build 0)  -->
<svg version="1.1" xmlns="http://www.w3.org/2000/svg" xmlns:xlink="http://www.w3.org/1999/xlink" x="0px" y="0px" width="500px"
	 height="500px" viewBox="0 0 500 500" enable-background="new 0 0 500 500" xml:space="preserve">
<g id="Background">
</g>
<g id="Object">
	<g>
		<g>
			<g>
				<path fill="#13337E" d="M417.145,433.876H232.823c-7.379,0-12.627-5.982-11.721-13.362l32.307-263.123
					c0.906-7.379,7.623-13.362,15.002-13.362h184.322c7.379,0,12.627,5.982,11.721,13.362l-32.307,263.123
					C431.241,427.894,424.525,433.876,417.145,433.876z"/>
				<path fill="#4D69A3" d="M410.014,433.876H225.692c-7.379,0-12.627-5.982-11.721-13.362l32.307-263.123
					c0.906-7.379,7.623-13.362,15.002-13.362h184.322c7.379,0,12.627,5.982,11.721,13.362l-32.307,263.123
					C424.111,427.894,417.394,433.876,410.014,433.876z"/>
				<path fill="#FFFFFF" d="M405.865,421.652H232.844c-4.445,0-7.607-3.604-7.061-8.049l30.61-249.299
					c0.546-4.445,4.592-8.049,9.037-8.049h173.021c4.445,0,7.607,3.604,7.061,8.049l-30.61,249.299
					C414.356,418.048,410.31,421.652,405.865,421.652z"/>
			</g>
			<g>
				<g>
					<path fill="#13337E" d="M388.532,163.811c0,0,2.117,8.338-2.784,18.031s-9.852,8.881-15.086,15.35
						c-5.234,6.468-28.359-30.434-17.664-39.102C363.693,149.422,388.532,163.811,388.532,163.811z"/>
					<path fill="#FFD9DE" d="M328.941,157.88c0,0-4.568,28.368,1.751,36.709c6.32,8.342,13.371,7.274,13.371,7.274l-7.685,17.472
						l29.758,9.963c0,0,6.123-24.455,7.036-30.39c0.913-5.936,3.109-8.895,3.109-8.895s3.936-0.806,5.146-4.156
						c1.209-3.35,1.286-8.609-2.486-10.502c-1.794-0.901-6.517-1.011-7.493,1.218c-0.976,2.229-0.421,5.804-1.724,5.815
						c-1.303,0.011-2.95-0.446-2.999-0.877c-0.049-0.431,0.613-12.963,0.613-12.963s1.19-6.042-13.877-8.524
						C338.394,157.542,328.941,157.88,328.941,157.88z"/>
					<g>
						<path fill="#F995A6" d="M373.48,186.146c-0.199,0-0.388-0.12-0.465-0.316c-0.434-1.097-0.654-2.251-0.655-3.432
							c-0.002-1.122,0.23-2.677,1.348-3.71c0.407-0.376,0.933-0.678,1.605-0.924c0.733-0.267,1.399-0.383,2.015-0.362
							c0.776,0.028,1.495,0.288,2.025,0.731c0.212,0.178,0.24,0.492,0.063,0.704c-0.177,0.214-0.494,0.24-0.704,0.063
							c-0.361-0.302-0.865-0.479-1.421-0.499c-0.484-0.023-1.027,0.081-1.636,0.302c-0.546,0.199-0.962,0.435-1.27,0.719
							c-0.896,0.829-1.027,2.22-1.026,2.975c0.001,1.054,0.198,2.085,0.585,3.065c0.102,0.257-0.024,0.547-0.281,0.648
							C373.604,186.135,373.542,186.146,373.48,186.146z"/>
						<path fill="#F995A6" d="M377.073,183.8c-0.003,0-0.005,0-0.008,0c-0.276-0.004-0.496-0.231-0.492-0.508
							c0.007-0.445-0.153-0.896-0.438-1.232s-0.699-0.566-1.137-0.63c-0.153-0.021-0.286-0.02-0.387,0.01
							c-0.178,0.051-0.356,0.205-0.524,0.358c-0.258,0.236-0.506,0.492-0.576,0.769c-0.067,0.267-0.332,0.431-0.607,0.361
							c-0.268-0.067-0.43-0.339-0.361-0.607c0.134-0.53,0.497-0.919,0.87-1.261c0.244-0.223,0.537-0.47,0.922-0.581
							c0.24-0.07,0.504-0.083,0.807-0.039c0.678,0.099,1.317,0.453,1.758,0.974c0.439,0.52,0.686,1.21,0.675,1.895
							C377.569,183.581,377.346,183.8,377.073,183.8z"/>
					</g>
					<path fill="#F995A6" d="M365.112,190.808c0,0-5.564,12.758-21.048,11.055l-0.211,11.529
						C343.852,213.392,359.814,206.52,365.112,190.808z"/>
					<path fill="#13337E" d="M388.683,172.232c0,0,6.475-8.076,5.89-17.62c-0.585-9.544-8.597-9.699-8.597-9.699
						s-7.429-13.365-16.079-15.039c-8.65-1.674-13.626,2.352-13.626,2.352s-10.23-5.985-15.241-2.891s-5.209,4.718-5.209,4.718
						s-9.161,1.661-10.191,9.258c-1.03,7.596,1.053,9.086,1.053,9.086s-1.003,3.996,1.12,6.006s9.118,1.216,9.118,1.216
						s3.988,2.752,10.061,2.773c6.072,0.021,8.797-0.367,8.797-0.367s4.26,4.742,12.101,7.141
						c7.841,2.399,14.823,0.875,14.823,0.875S387.765,173.516,388.683,172.232z"/>
					<g>
						<g>
							
								<ellipse transform="matrix(0.0344 -0.9994 0.9994 0.0344 147.9408 498.6691)" fill="#13337E" cx="332.038" cy="172.773" rx="2.565" ry="1.559"/>
							
								<ellipse transform="matrix(0.0364 -0.9993 0.9993 0.0364 163.4667 515.9052)" fill="#13337E" cx="349.245" cy="173.19" rx="2.63" ry="1.891"/>
							<g>
								<path fill="#BC4A55" d="M346.481,186.806c0.047,1.276-0.329,2.487-1.014,3.481c-0.897,1.311-2.33,2.244-4.021,2.454
									c-1.652,0.205-3.222-0.321-4.393-1.324c-0.94-0.803-1.622-1.917-1.883-3.209c-0.052-0.251,0.127-0.494,0.38-0.525
									l10.44-1.294c0.05-0.006,0.099-0.003,0.147,0.008C346.325,186.437,346.474,186.6,346.481,186.806z"/>
								<path fill="#FFFFFF" d="M346.136,186.398c-1.148,1.022-2.961,1.807-5.064,2.068c-2.122,0.263-4.085-0.065-5.438-0.793
									l10.355-1.284C346.04,186.383,346.089,186.386,346.136,186.398z"/>
								<path fill="#F995A6" d="M345.467,190.287c-0.897,1.311-2.33,2.244-4.021,2.454c-1.652,0.205-3.222-0.321-4.393-1.324
									c1.109-0.702,2.569-1.221,4.201-1.423C342.8,189.802,344.263,189.923,345.467,190.287z"/>
							</g>
							<path fill="#F995A6" d="M337.68,182.48c-0.061,0-0.122-0.011-0.182-0.034c-0.806-0.314-1.551-0.81-2.153-1.431
								c-0.252-0.261-0.544-0.62-0.564-1.1c-0.018-0.438,0.202-0.799,0.37-1.032c0.401-0.562,0.918-1.005,1.417-1.432
								c0.562-0.481,1.094-0.937,1.419-1.522c0.545-0.978,0.418-2.152,0.216-2.966c-0.066-0.268,0.097-0.539,0.365-0.605
								c0.268-0.069,0.538,0.098,0.605,0.365c0.245,0.987,0.391,2.43-0.312,3.692c-0.412,0.742-1.038,1.278-1.643,1.796
								c-0.475,0.406-0.923,0.79-1.254,1.254c-0.128,0.178-0.188,0.312-0.184,0.408c0.006,0.144,0.164,0.323,0.282,0.445
								c0.504,0.519,1.126,0.933,1.799,1.195c0.258,0.101,0.385,0.391,0.284,0.647C338.068,182.36,337.88,182.48,337.68,182.48z"/>
						</g>
						<g>
							<path fill="#13337E" d="M347.357,168.641c1.145-0.118,2.298-0.129,3.444-0.035c0.287,0.024,0.657-0.192,0.843-0.395
								c0.202-0.221,0.346-0.575,0.321-0.878c-0.027-0.315-0.143-0.637-0.389-0.846c-0.084-0.06-0.169-0.12-0.253-0.18
								c-0.193-0.102-0.4-0.148-0.618-0.139c-1.147-0.094-2.299-0.083-3.444,0.035c-0.321,0.033-0.62,0.151-0.843,0.395
								c-0.202,0.221-0.346,0.575-0.321,0.878C346.149,168.105,346.68,168.711,347.357,168.641L347.357,168.641z"/>
							<path fill="#13337E" d="M331.587,168.801c0.777-0.121,1.543-0.287,2.29-0.536c0.291-0.097,0.558-0.319,0.702-0.592
								c0.142-0.268,0.191-0.656,0.085-0.945c-0.107-0.291-0.3-0.567-0.586-0.703c-0.294-0.14-0.623-0.186-0.939-0.081
								c-0.546,0.181-1.103,0.324-1.668,0.427c0.107-0.019,0.214-0.039,0.32-0.058c-0.1,0.018-0.201,0.035-0.302,0.051
								c-0.167,0.001-0.321,0.043-0.463,0.126c-0.148,0.056-0.275,0.146-0.38,0.269c-0.202,0.221-0.346,0.575-0.321,0.878
								c0.027,0.315,0.143,0.637,0.389,0.846C330.945,168.678,331.275,168.85,331.587,168.801L331.587,168.801z"/>
						</g>
					</g>
				</g>
				<path fill="#13337E" d="M388.358,313.084c0,0,4.835,44.104,6.763,66.276c1.928,22.172,1.928,42.292,1.928,42.292H283.947
					c0,0,4.65-82.383,13.567-101.862C306.431,300.311,388.358,313.084,388.358,313.084z"/>
				<path fill="#5A71E5" d="M395.701,358.203c0.312,3.804,0.462,6.239,0.387,6.693c-0.482,2.898-7.958,4.097-34.709,5.069
					c-26.751,0.963-49.406-5.069-53.984-7.514c-4.578-2.445-13.734,0.765-17.246-2.133c-2.898-2.388,4.71-59.761,7.41-79.451
					c0.236-3.436,0.812-6.126,0.906-6.523c0.01-0.028,0.01-0.047,0.01-0.047l-15.707-6.088c0,0,20.37-42.855,22.56-46.187
					c1.69-2.558,23.589-12.479,33.755-16.991c3.001-1.331,4.984-2.19,5.116-2.237c-0.283,0.434-10.053,15.537,0.774,15.641
					c10.978,0.113,25.052-14.527,25.052-14.527s1.539,0.491,3.965,1.293c8.477,2.813,27.94,9.26,30.3,11.233
					c11.696,9.779,15.396,56.013,15.396,56.013l-29.98,3.379c-1.227,0.897-2.105,1.435-2.105,1.435s3.398,32.132,5.9,57.505
					C394.427,344.167,395.239,352.643,395.701,358.203z"/>
				<g>
					<path fill="#5A71E5" d="M321.7,371.989c6.202,4.638,12.404,9.275,18.606,13.913c1.16,0.867,2.283-1.085,1.136-1.943
						c-6.202-4.638-12.404-9.275-18.606-13.913C321.676,369.179,320.553,371.131,321.7,371.989L321.7,371.989z"/>
					<path fill="#5A71E5" d="M319.438,387.294c11.05,1.302,22.149,2.14,33.268,2.513c1.448,0.049,1.446-2.202,0-2.25
						c-11.12-0.373-22.219-1.211-33.268-2.513C318.003,384.875,318.015,387.126,319.438,387.294L319.438,387.294z"/>
					<path fill="#5A71E5" d="M332.511,389.003c0.747,10.374,1.671,20.735,2.77,31.078c0.151,1.425,2.403,1.441,2.25,0
						c-1.099-10.343-2.022-20.704-2.77-31.078C334.657,387.567,332.406,387.555,332.511,389.003L332.511,389.003z"/>
					<path fill="#5A71E5" d="M388.054,368.746c2.031,17.362,3.085,34.828,3.158,52.308c0.006,1.448,2.256,1.45,2.25,0
						c-0.073-17.48-1.127-34.946-3.158-52.308C390.138,367.325,387.886,367.309,388.054,368.746L388.054,368.746z"/>
				</g>
				<path fill="#FFFFFF" d="M341.858,223.66c11.352,1.797,24.779-10.511,32.128-18.455c-2.425-0.802-3.958-1.297-3.958-1.297
					s-14.076,14.638-25.058,14.526c-10.824-0.105-1.056-15.208-0.773-15.642c-0.128,0.053-2.108,0.912-5.114,2.239
					C335.03,212.64,332.153,222.122,341.858,223.66z"/>
				<g>
					<path fill="#2140BF" d="M386.5,221.603c-7.791,3.303-6.876,14.218-6.438,21.067c0.586,9.16,2.004,18.287,3.132,27.392
						c0.255,2.06,0.173,4.722,1.438,6.48c0.968,1.345,2.858,1.918,4.294,0.98c1.208-0.789,0.081-2.738-1.136-1.943
						c-1.929,1.26-2.168-4.076-2.285-5.026c-0.305-2.458-0.609-4.917-0.914-7.375c-0.606-4.885-1.257-9.768-1.772-14.664
						c-0.506-4.804-0.879-9.665-0.648-14.497c0.197-4.111,1.303-8.708,5.465-10.472C388.964,222.983,387.819,221.044,386.5,221.603
						L386.5,221.603z"/>
					<path fill="#2140BF" d="M315.045,266.985c8.941,8.371,19.069,15.418,30.04,20.866c1.293,0.642,2.434-1.298,1.136-1.943
						c-10.805-5.366-20.777-12.268-29.585-20.514C315.58,264.405,313.985,265.992,315.045,266.985L315.045,266.985z"/>
					<path fill="#2140BF" d="M341.089,288.516c-6.897-0.674-13.809-1.178-20.73-1.513c-1.447-0.07-1.444,2.18,0,2.25
						c6.922,0.334,13.833,0.839,20.73,1.513C342.529,290.906,342.519,288.656,341.089,288.516L341.089,288.516z"/>
					<path fill="#2140BF" d="M382.449,324.682c-12.816-3.176-26.032-4.598-39.23-4.202c-1.445,0.043-1.451,2.293,0,2.25
						c13.007-0.39,26.001,0.991,38.632,4.122C383.257,327.2,383.856,325.031,382.449,324.682L382.449,324.682z"/>
					<path fill="#2140BF" d="M339.263,320.152c-4.283-0.496-8.565-0.992-12.848-1.488c-0.605-0.07-1.125,0.567-1.125,1.125
						c0,0.666,0.519,1.055,1.125,1.125c4.283,0.496,8.565,0.992,12.848,1.488c0.605,0.07,1.125-0.567,1.125-1.125
						C340.388,320.611,339.869,320.223,339.263,320.152L339.263,320.152z"/>
					<path fill="#2140BF" d="M370.924,214.079c-0.443,0.559-0.887,1.117-1.33,1.676c-0.11,0.102-0.187,0.223-0.233,0.362
						c-0.07,0.134-0.103,0.279-0.097,0.433c0,0.276,0.123,0.606,0.33,0.796c0.214,0.197,0.496,0.343,0.795,0.329
						c0.1-0.013,0.199-0.027,0.299-0.04c0.191-0.053,0.356-0.15,0.496-0.289c0.443-0.559,0.887-1.117,1.33-1.676
						c0.11-0.102,0.187-0.223,0.233-0.362c0.07-0.134,0.103-0.279,0.097-0.433c0-0.276-0.123-0.606-0.329-0.795
						c-0.214-0.197-0.496-0.343-0.796-0.33c-0.1,0.013-0.199,0.027-0.299,0.04C371.23,213.843,371.064,213.939,370.924,214.079
						L370.924,214.079z"/>
					<path fill="#2140BF" d="M363.084,222.519c-5.531,3.78-11.968,6.063-18.656,6.529c-1.436,0.1-1.447,2.351,0,2.25
						c7.077-0.494,13.93-2.831,19.792-6.837C365.408,223.65,364.284,221.699,363.084,222.519L363.084,222.519z"/>
				</g>
				<path fill="#FFD9DE" d="M272.136,324.274c1.285,1.709,2.822,3.134,4.484,4.269c5.423,3.743,12.182,4.482,15.974,2.468
					c4.955-2.628,13.25-19.893,15.25-36.169c2.001-16.264,7.585-52.822,10.67-55.733c3.085-2.9,8.378-8.997,9.685-14.283
					c1.307-5.286-0.871-23.15-0.871-23.15s-6.19-4.114-8.499-3.628c-2.297,0.497-3.012,2.714-3.012,2.714s-2.015-0.495-2.894,0.702
					c-0.891,1.197-1.094,4.285-1.094,4.285s-0.195-0.027-0.503-0.015c-0.877,0.033-2.68,0.329-3.065,2.237
					c-0.52,2.541,0.217,17.287-0.084,18.702c-0.289,1.403-30.807,46.907-34.971,61.177
					C269.032,302.11,266.636,316.985,272.136,324.274z"/>
				<path fill="#F995A6" d="M276.62,328.543c5.423,3.743,12.182,4.482,15.974,2.468c4.955-2.628,13.25-19.893,15.25-36.169
					c2.001-16.264,7.585-52.822,10.67-55.733c3.085-2.9,8.378-8.997,9.685-14.283c1.307-5.286-0.871-23.15-0.871-23.15
					s-6.19-4.114-8.499-3.628c-2.297,0.497-3.012,2.714-3.012,2.714s-2.015-0.495-2.894,0.702c-0.891,1.197-1.094,4.285-1.094,4.285
					s-0.195-0.027-0.503-0.015c0.321,0.353,0.521,0.517,0.521,0.517s0.292,9.584,2.384,17.274c2.103,7.69,4.007,9.17,2.944,11.834
					c-1.075,2.664-6.522,29.212-13.467,60.219C298.541,318.66,289.532,328.48,276.62,328.543z"/>
				<path fill="#FFD9DE" d="M312.002,210.354c0.033,0.877,5.497,17.226,7.842,20.743c2.335,3.529,8.887,10.595,8.887,10.595
					s24.912,49.923,31.302,62.403c6.39,12.469,23.277,29.198,37.611,25.692c14.323-3.494,24.915-14.593,22.202-31.216
					c-1.658-10.114-2.108-17.513-2.21-21.753c-0.068-2.724,0.015-4.142,0.015-4.142l-29.923,3.373l-0.582,6.057l-0.116,1.168
					l-43.023-48.865c0,0-2.852-13.651-3.257-19.557c-0.405-5.906-0.907-7.724-1.912-6.545c-0.994,1.167-2.472,10.714-2.472,10.714
					s-2.384-5.752-4.883-11.841c-2.488-6.09-4.711-9.395-5.839-9.352c-1.128,0.042-2.016,1.901-2.016,1.901
					s-2.097-2.363-3.557-2.045c-1.471,0.318-1.72,3.111-1.72,3.111s-2.477-0.945-3.281,0.74c-0.783,1.638,2.148,14.34,2.299,15.019
					c-0.237-0.55-3.453-8.096-4.125-8.071C312.549,208.508,311.969,209.488,312.002,210.354z"/>
				<g>
					<path fill="#F995A6" d="M322.142,200.226c2.318,6.068,4.566,12.162,6.741,18.282c0.482,1.355,2.656,0.771,2.17-0.598
						c-2.176-6.12-4.423-12.215-6.741-18.282C323.8,198.289,321.624,198.87,322.142,200.226L322.142,200.226z"/>
					<path fill="#F995A6" d="M317.31,202.589c2.687,6.067,5,12.293,6.948,18.636c0.424,1.38,2.597,0.791,2.17-0.598
						c-2.006-6.53-4.409-12.927-7.175-19.173C318.667,200.132,316.728,201.276,317.31,202.589L317.31,202.589z"/>
					<path fill="#F995A6" d="M385.247,283.593c0.459,8.053,0.918,16.105,1.377,24.158c0.082,1.44,2.333,1.449,2.25,0
						c-0.459-8.053-0.918-16.105-1.377-24.158C387.415,282.153,385.165,282.143,385.247,283.593L385.247,283.593z"/>
					<path fill="#F995A6" d="M387.146,282.105c0,0,8.342,1.283,21.988-2.345c3.355-0.89,6.169-1.909,8.503-2.944
						c-0.068-2.724,0.015-4.142,0.015-4.142l-29.923,3.373L387.146,282.105z"/>
				</g>
			</g>
		</g>
		<g>
			<g>
				<path fill="#13337E" d="M206.313,150.241c-0.119,0.987-0.433,1.912-0.901,2.74c0.668,1.109,1.064,2.404,1.086,3.799
					c0.064,4.056-3.048,7.423-7.036,7.726c0.574,1.052,0.909,2.26,0.93,3.538c0.048,3.071-1.727,5.749-4.322,6.998
					c-0.821,2.616-3.022,4.632-5.763,5.185c-0.912,3.127-3.772,5.43-7.2,5.484c-2.333,0.037-4.436-0.973-5.862-2.604
					c-0.804,3.284-3.749,5.746-7.295,5.802c-2.532,0.04-4.796-1.161-6.215-3.038c-1.142,2.691-3.791,4.603-6.909,4.652
					c-2.872,0.045-5.4-1.503-6.738-3.827c-1.376,1.569-3.389,2.58-5.639,2.616c-0.492,0.008-0.974-0.032-1.444-0.112
					c-0.468,0.095-0.947,0.15-1.44,0.158c-3.757,0.059-6.924-2.605-7.613-6.17c-1.16,0.763-2.549,1.213-4.043,1.236
					c-4.126,0.065-7.536-3.152-7.747-7.235c-0.659,0.204-1.361,0.315-2.088,0.326c-4.214,0.067-7.685-3.296-7.751-7.51
					c-0.019-1.202,0.239-2.337,0.715-3.359c-1.053-0.968-1.829-2.228-2.203-3.659c-3.574-0.594-6.313-3.664-6.372-7.409
					c-0.034-2.18,0.849-4.164,2.298-5.582c-0.757-1.161-1.201-2.543-1.224-4.026c-0.039-2.456,1.087-4.66,2.865-6.078
					c-1.029-1.279-1.658-2.899-1.686-4.663c-0.046-2.93,1.561-5.5,3.955-6.816c-0.401-0.908-0.634-1.913-0.651-2.968
					c-0.047-2.972,1.612-5.577,4.077-6.877c0.113-3.59,2.722-6.568,6.164-7.238c-0.007-0.041-0.007-0.076-0.008-0.117
					c-0.067-4.214,3.297-7.685,7.511-7.752c0.223-0.004,0.446,0.005,0.663,0.019c1.183-0.793,2.601-1.266,4.13-1.29
					c1.137-0.018,2.219,0.217,3.2,0.647c0.87-3.185,3.764-5.547,7.24-5.602c2.45-0.039,4.654,1.081,6.077,2.859
					c1.329-1.211,3.082-1.96,5.022-1.99c2.848-0.045,5.358,1.475,6.702,3.769c0.45-0.095,0.918-0.143,1.393-0.151
					c0.182-0.003,0.363,0,0.54,0.015c1.075-2.837,3.798-4.873,7.016-4.924c2.022-0.032,3.875,0.724,5.261,1.992
					c0.45-0.095,0.918-0.143,1.393-0.151c3.218-0.051,6.004,1.898,7.168,4.7c0.176-0.02,0.357-0.029,0.539-0.032
					c4.214-0.067,7.685,3.296,7.752,7.511c0.006,0.375-0.018,0.745-0.065,1.109c2.047,1.193,3.488,3.322,3.738,5.803
					c3.666,0.511,6.518,3.626,6.578,7.441c0.018,1.149-0.223,2.243-0.658,3.229c0.467,0.972,0.742,2.058,0.76,3.206
					c0.005,0.317-0.008,0.622-0.044,0.927c1.387,0.957,2.447,2.365,2.953,4.01c2.837,1.075,4.867,3.798,4.918,7.01
					C210.08,146.395,208.578,148.892,206.313,150.241z"/>
				<path fill="#13337E" d="M149.403,188.235c-0.075,0.623-0.273,1.208-0.569,1.731c0.422,0.701,0.672,1.519,0.686,2.4
					c0.04,2.562-1.926,4.689-4.445,4.881c0.362,0.665,0.574,1.428,0.587,2.235c0.031,1.94-1.091,3.632-2.73,4.42
					c-0.518,1.652-1.909,2.926-3.641,3.276c-0.576,1.976-2.383,3.43-4.548,3.464c-1.474,0.023-2.802-0.615-3.703-1.645
					c-0.508,2.074-2.368,3.63-4.608,3.665c-1.599,0.025-3.03-0.734-3.926-1.919c-0.721,1.7-2.395,2.908-4.364,2.939
					c-1.814,0.029-3.411-0.95-4.256-2.418c-0.869,0.991-2.141,1.63-3.562,1.652c-0.311,0.005-0.615-0.02-0.912-0.071
					c-0.295,0.06-0.598,0.095-0.909,0.1c-2.373,0.037-4.374-1.646-4.809-3.898c-0.733,0.482-1.61,0.766-2.554,0.781
					c-2.606,0.041-4.761-1.991-4.894-4.57c-0.416,0.129-0.86,0.199-1.319,0.206c-2.662,0.042-4.855-2.082-4.897-4.744
					c-0.012-0.759,0.151-1.476,0.452-2.122c-0.665-0.612-1.155-1.408-1.392-2.311c-2.258-0.375-3.988-2.315-4.025-4.68
					c-0.022-1.377,0.536-2.63,1.451-3.526c-0.478-0.733-0.759-1.606-0.773-2.543c-0.024-1.551,0.687-2.944,1.81-3.839
					c-0.65-0.808-1.047-1.831-1.065-2.946c-0.029-1.851,0.986-3.474,2.498-4.306c-0.253-0.574-0.4-1.208-0.411-1.875
					c-0.03-1.877,1.018-3.523,2.576-4.344c0.072-2.268,1.72-4.149,3.894-4.572c-0.004-0.026-0.004-0.048-0.005-0.074
					c-0.042-2.662,2.082-4.855,4.744-4.897c0.141-0.002,0.282,0.003,0.419,0.012c0.747-0.501,1.643-0.8,2.609-0.815
					c0.718-0.011,1.402,0.137,2.021,0.409c0.55-2.012,2.378-3.504,4.573-3.539c1.548-0.024,2.94,0.683,3.839,1.806
					c0.84-0.765,1.947-1.238,3.172-1.257c1.799-0.028,3.385,0.932,4.233,2.381c0.284-0.06,0.58-0.091,0.88-0.095
					c0.115-0.002,0.23,0,0.341,0.009c0.679-1.792,2.399-3.078,4.432-3.11c1.277-0.02,2.448,0.458,3.323,1.259
					c0.284-0.06,0.58-0.091,0.88-0.095c2.033-0.032,3.793,1.199,4.528,2.969c0.111-0.013,0.226-0.018,0.34-0.02
					c2.662-0.042,4.855,2.082,4.897,4.744c0.004,0.237-0.011,0.47-0.041,0.701c1.293,0.754,2.203,2.098,2.361,3.666
					c2.316,0.323,4.117,2.29,4.155,4.701c0.011,0.726-0.141,1.417-0.416,2.04c0.295,0.614,0.469,1.3,0.48,2.026
					c0.003,0.2-0.005,0.393-0.028,0.586c0.876,0.605,1.546,1.494,1.866,2.533c1.792,0.679,3.075,2.399,3.107,4.428
					C151.783,185.805,150.834,187.382,149.403,188.235z"/>
				<path fill="#EA758E" d="M140.481,194.524l-29.208,15.541c0,0,14.392,63.964,54.116,55.108s17.243-58.934,17.243-58.934
					l-26.676-9.939L140.481,194.524z"/>
				<path fill="#EA758E" d="M186.129,186.722c-6.724,9.035-14.888,8.753-14.888,8.753l-1.788,6.291l32.275,35.818
					c0,0-14.755,22.85-40.124,19.521c-25.368-3.329-33.748-12.654-33.748-12.654l8.095-45.262l0.242-19.586
					c0,0-14.951-0.982-14.814-11.287c0.11-8.791,6.929-8.548,10.289-7.395c-0.347,0.693-0.531,1.076-0.531,1.076
					s0.736-0.194,1.783-0.518c2.06-0.632,5.325-1.788,6.621-3.037c1.966-1.896,1.943-3.387,1.943-3.387s4.705-1.193,6.678-2.658
					c1.966-1.464,2.532-4.961,2.532-4.961s3.858-0.185,5.448-1.826c1.59-1.641,2.024-3.769,2.024-3.769s2.058,1.591,4.722,0.796
					c2.657-0.788,4-2.301,4-2.301s0.312,0.331,0.839,0.769c1.104,0.933,3.153,2.371,5.184,2.251
					c2.981-0.171,4.261-1.069,4.261-1.069s0.64,3.975,4.13,4.542c3.497,0.566,4.979-0.079,4.979-0.079s0.703,1.005,1.723,1.699
					C189.051,155.956,191.744,179.19,186.129,186.722z"/>
				<path fill="#A05F5D" d="M132.92,161.479c-1.048,0.324-1.783,0.518-1.783,0.518s0.184-0.383,0.531-1.076
					C132.175,161.096,132.603,161.286,132.92,161.479z"/>
				<g>
					<path fill="#BA3C5D" d="M126.905,165.47c1.854,0.145,3.363,1.512,4.103,3.155c0.601,1.333,1.224,4.017-0.46,4.735
						c-0.559,0.238-0.683,1.062-0.404,1.539c0.338,0.578,0.978,0.643,1.539,0.404c2.826-1.204,2.395-5.16,1.426-7.45
						c-1.086-2.567-3.394-4.412-6.204-4.632c-0.606-0.048-1.125,0.551-1.125,1.125C125.78,164.994,126.297,165.423,126.905,165.47
						L126.905,165.47z"/>
					<path fill="#BA3C5D" d="M133.294,169.967c-0.733-1.098-1.732-1.995-3.083-2.176c-1.38-0.185-2.525,0.655-3.578,1.431
						c-0.244,0.18-0.434,0.37-0.517,0.672c-0.074,0.269-0.041,0.628,0.113,0.867c0.301,0.468,1.033,0.777,1.539,0.404
						c0.418-0.308,0.845-0.61,1.29-0.879c0.103-0.062,0.211-0.115,0.314-0.176c0.115-0.054,0.107-0.053-0.024,0.003
						c0.055-0.022,0.111-0.042,0.168-0.059c0.057-0.018,0.115-0.033,0.173-0.046c0.127-0.023,0.111-0.022-0.049,0.003
						c0.052-0.041,0.23,0.001,0.294-0.002c0.086,0.007,0.056,0.001-0.089-0.017c0.056,0.009,0.111,0.02,0.166,0.033
						c0.091,0.021,0.249,0.043,0.325,0.1c-0.137-0.06-0.149-0.064-0.035-0.01c0.051,0.025,0.101,0.052,0.15,0.081
						c0.092,0.053,0.207,0.111,0.282,0.186c-0.211-0.208,0.054,0.058,0.095,0.096c0.082,0.078,0.16,0.159,0.235,0.244
						c0.039,0.044,0.299,0.307,0.092,0.102c0.077,0.076,0.135,0.189,0.195,0.278c0.326,0.489,1.007,0.746,1.539,0.404
						C133.377,171.192,133.643,170.49,133.294,169.967L133.294,169.967z"/>
				</g>
				<path fill="#BA3C5D" d="M171.365,195.496c0,0-6.802-2.083-13.331-5.417c-6.528-3.334-10.213-6.771-10.213-6.771
					s1.921,9.84,9.76,15.356c7.838,5.516,11.872,3.102,11.872,3.102L171.365,195.496z"/>
				<g>
					<g>
						
							<ellipse transform="matrix(0.9999 -0.0158 0.0158 0.9999 -2.7003 2.93)" fill="#BA3C5D" cx="184.236" cy="172.5" rx="4.928" ry="3.633"/>
						
							<ellipse transform="matrix(0.9999 -0.0158 0.0158 0.9999 -2.6874 2.5632)" fill="#BA3C5D" cx="161.007" cy="171.498" rx="7.197" ry="4.72"/>
					</g>
				</g>
				<g>
					
						<ellipse transform="matrix(0.9999 -0.0158 0.0158 0.9999 -2.5099 2.8982)" fill="#13337E" cx="182.318" cy="160.427" rx="1.86" ry="3.043"/>
					
						<ellipse transform="matrix(0.9999 -0.0158 0.0158 0.9999 -2.5164 2.574)" fill="#13337E" cx="161.779" cy="160.674" rx="2.256" ry="3.12"/>
					<g>
						<path fill="#822C47" d="M164.812,176.87c-0.081,1.514,0.344,2.956,1.142,4.145c1.045,1.569,2.737,2.697,4.75,2.97
							c1.967,0.267,3.851-0.334,5.268-1.508c1.137-0.94,1.973-2.251,2.309-3.78c0.067-0.297-0.142-0.587-0.443-0.628l-12.432-1.686
							c-0.06-0.008-0.118-0.005-0.175,0.008C165.005,176.434,164.823,176.626,164.812,176.87z"/>
						<path fill="#FFFFFF" d="M165.231,176.39c1.35,1.23,3.498,2.187,6.002,2.526c2.527,0.343,4.875-0.018,6.504-0.862l-12.33-1.672
							C165.346,176.374,165.288,176.377,165.231,176.39z"/>
						<path fill="#BA3C5D" d="M165.954,181.015c1.045,1.569,2.737,2.697,4.75,2.97c1.967,0.267,3.851-0.334,5.268-1.508
							c-1.309-0.849-3.041-1.485-4.984-1.749C169.145,180.478,167.397,180.6,165.954,181.015z"/>
					</g>
					<path fill="#BA3C5D" d="M173.298,160.115c-0.307,1.204-0.417,2.492-0.087,3.704c0.311,1.142,1.03,2.072,1.888,2.861
						c0.706,0.65,1.527,1.234,2.051,2.051c0.009,0.014,0.123-0.086-0.047,0.102c-0.191,0.212-0.413,0.414-0.639,0.587
						c-0.409,0.312-0.877,0.579-1.356,0.766c-0.566,0.22-0.959,0.755-0.786,1.384c0.148,0.54,0.815,1.008,1.384,0.786
						c1.228-0.479,2.468-1.198,3.266-2.276c0.975-1.316,0.141-2.69-0.853-3.693c-0.747-0.754-1.705-1.364-2.31-2.247
						c-0.698-1.02-0.635-2.277-0.342-3.426C175.826,159.31,173.657,158.711,173.298,160.115L173.298,160.115z"/>
				</g>
				<path fill="#13337E" d="M167.46,153.018c0.199,0.056,0.361-0.177,0.256-0.369c-0.434-0.797-1.578-2.218-4.199-2.176
					c-3.636,0.057-5.634,2.344-5.073,3.229c0.562,0.885,1.954-1.329,4.908-1.248C165.369,152.509,166.772,152.824,167.46,153.018z"
					/>
				<path fill="#13337E" d="M185.123,154.475c0.153,0.043,0.277-0.136,0.197-0.284c-0.334-0.613-1.214-1.706-3.231-1.675
					c-2.798,0.044-4.335,1.804-3.903,2.484c0.432,0.681,1.504-1.022,3.777-0.96C183.514,154.083,184.593,154.325,185.123,154.475z"
					/>
			</g>
			<path fill="#13337E" d="M201.573,389.594c0,0,10.433,19.491,15.209,44.767c4.776,25.277,5.114,27.409,5.114,27.409H47.971
				c0,0-2.132-54.513,26.8-82.226C103.702,351.831,201.573,389.594,201.573,389.594z"/>
			<path fill="#FFC720" d="M128.598,201.16c0,0,32.814,24.287,34.946,21.851c2.132-2.436,6.395-19.643,6.395-19.643
				s40.428,13.324,45.681,18.805c5.253,5.482,42.94,54.817,43.625,55.959s-26.267,31.063-26.267,31.063l-18.272-17.359
				c0,0-13.552,66.39-13.857,69.131c-0.305,2.741,3.045,14.618,2.741,17.359c-0.305,2.741,0.305,4.873,4.873,15.532
				s10.05,16.75,3.35,18.577c-6.7,1.827-30.759,2.741-65.172,4.568s-60.299-2.741-74.003-1.218s-18.577-5.482-18.881-10.354
				c-0.305-4.873,10.05-51.467,10.05-51.467s-25.581-9.136-25.277-25.581s23.45-94.407,33.804-103.239
				C82.689,216.31,128.598,201.16,128.598,201.16z"/>
			<path fill="#ED863A" d="M120.089,204.076c0,0,9.309-8.398,11.707-8.056c2.398,0.343,28.551,21.927,28.893,21.127
				s9.022-18.843,10.392-18.272c1.37,0.571,7.766,7.714,7.766,7.714s-4.111,22.321-7.081,23.691
				c-2.969,1.37-9.776-7.309-9.776-7.309s-1.986,12.22-6.212,11.991C151.553,234.735,128.71,216.357,120.089,204.076z"/>
			<g>
				<path fill="#C96420" d="M88.344,237.9c4.263,0.73,7.431,4.045,9.027,7.943c2.043,4.99,1.415,10.636,0.526,15.807
					c-1.967,11.44-4.226,22.837-6.344,34.25c-1.216,6.548-2.431,13.097-3.647,19.645c-0.263,1.415,1.905,2.022,2.17,0.598
					c2.279-12.278,4.559-24.556,6.838-36.834c1.113-5.996,2.335-11.984,3.312-18.004c0.879-5.419,1.348-11.204-0.822-16.391
					c-1.861-4.45-5.553-8.343-10.46-9.182C87.526,235.488,86.918,237.656,88.344,237.9L88.344,237.9z"/>
				<path fill="#C96420" d="M63.066,317.331c8.436-0.931,16.87,0.139,25.251,1.11c4.249,0.492,8.507,0.957,12.784,1.107
					c4.229,0.148,8.459-0.03,12.685-0.185c4.874-0.178,9.753-0.308,14.619,0.105c1.443,0.122,1.435-2.128,0-2.25
					c-8.53-0.723-17.064,0.262-25.602,0.123c-8.49-0.138-16.872-1.621-25.321-2.302c-4.801-0.387-9.622-0.488-14.417,0.042
					C61.643,315.238,61.627,317.489,63.066,317.331L63.066,317.331z"/>
				<path fill="#C96420" d="M63.674,354.918c17.824,7.085,37.578,4.663,55.516-0.652c5.271-1.562,10.463-3.372,15.623-5.263
					c1.349-0.494,0.766-2.669-0.598-2.17c-17.525,6.421-36.08,12.034-54.954,9.725c-5.134-0.628-10.182-1.899-14.989-3.81
					C62.927,352.213,62.343,354.389,63.674,354.918L63.674,354.918z"/>
				<path fill="#C96420" d="M132.345,338.49c0.922,2.868,1.354,5.836,1.281,8.848c-0.035,1.448,2.215,1.448,2.25,0
					c0.078-3.195-0.383-6.404-1.361-9.446C134.073,336.519,131.9,337.106,132.345,338.49L132.345,338.49z"/>
				<path fill="#C96420" d="M65.717,362.073c0.557,1.252,1.331,2.399,2.248,3.416c0.395,0.438,1.194,0.432,1.591,0
					c0.43-0.468,0.422-1.124,0-1.591c-0.213-0.236-0.417-0.48-0.612-0.732c0.059,0.076,0.117,0.152,0.176,0.228
					c-0.582-0.759-1.071-1.582-1.46-2.456c-0.107-0.241-0.429-0.45-0.672-0.517c-0.269-0.074-0.628-0.041-0.867,0.113
					c-0.24,0.155-0.452,0.385-0.517,0.672C65.532,361.519,65.587,361.782,65.717,362.073L65.717,362.073z"/>
				<path fill="#C96420" d="M77.015,376.76c8.65,9.385,19.22,16.917,30.925,22.007c1.315,0.572,2.462-1.366,1.136-1.943
					c-11.548-5.022-21.935-12.395-30.469-21.655C77.623,374.102,76.035,375.696,77.015,376.76L77.015,376.76z"/>
				<path fill="#C96420" d="M200.778,360.347c-10.926,12.489-23.799,23.165-38.104,31.576c-1.247,0.733-0.117,2.679,1.136,1.943
					c14.458-8.501,27.515-19.304,38.559-31.927C203.319,360.852,201.734,359.255,200.778,360.347L200.778,360.347z"/>
				<path fill="#C96420" d="M198.381,367.388c-1.168,3.586-2.605,7.071-4.31,10.435c-0.274,0.542-0.143,1.22,0.404,1.539
					c0.501,0.293,1.264,0.141,1.539-0.404c1.79-3.535,3.309-7.205,4.536-10.973C201,366.606,198.828,366.015,198.381,367.388
					L198.381,367.388z"/>
				<path fill="#C96420" d="M112.657,213.568c0.149,0.382,0.298,0.764,0.447,1.146c0.035,0.146,0.102,0.274,0.201,0.383
					c0.079,0.122,0.185,0.219,0.316,0.29c0.129,0.082,0.269,0.127,0.418,0.133c0.15,0.033,0.299,0.027,0.449-0.02
					c0.09-0.038,0.179-0.076,0.269-0.113c0.169-0.1,0.304-0.235,0.404-0.404c0.038-0.09,0.076-0.179,0.113-0.269
					c0.054-0.199,0.054-0.399,0-0.598c-0.149-0.382-0.298-0.764-0.447-1.146c-0.035-0.146-0.102-0.274-0.201-0.383
					c-0.079-0.122-0.185-0.219-0.316-0.29c-0.129-0.082-0.269-0.127-0.418-0.134c-0.15-0.033-0.299-0.027-0.449,0.02
					c-0.09,0.038-0.179,0.076-0.269,0.113c-0.169,0.1-0.304,0.235-0.404,0.404c-0.038,0.09-0.076,0.179-0.113,0.269
					C112.604,213.169,112.604,213.369,112.657,213.568L112.657,213.568z"/>
				<path fill="#C96420" d="M117.647,221.024c5.634,5.291,12.654,8.98,20.223,10.564c1.413,0.296,2.017-1.873,0.598-2.17
					c-7.199-1.507-13.866-4.948-19.23-9.986C118.184,218.442,116.589,220.03,117.647,221.024L117.647,221.024z"/>
				<path fill="#C96420" d="M203.66,232.63c-0.869,3.869,0.724,7.467,2.566,10.796c1.927,3.483,3.824,6.952,5.37,10.628
					c3.022,7.184,5.042,14.907,5.18,22.729c0.079,4.463-0.488,8.882-1.75,13.165c-0.41,1.392,1.76,1.986,2.17,0.598
					c4.423-15.001,0.242-30.986-6.904-44.435c-2.054-3.866-5.505-8.24-4.462-12.882C206.146,231.818,203.977,231.216,203.66,232.63
					L203.66,232.63z"/>
			</g>
			<g>
				<path fill="#13337E" d="M286.557,358.933H154.109c-5.294,0-10.113-4.292-10.763-9.586l-11.101-90.409
					c-0.65-5.294,3.115-9.586,8.409-9.586h132.448c5.294,0,10.113,4.292,10.763,9.586l11.101,90.409
					C295.616,354.641,291.851,358.933,286.557,358.933z"/>
				<path fill="#4D69A3" d="M292.524,358.933H160.076c-5.294,0-10.113-4.292-10.763-9.586l-11.101-90.409
					c-0.65-5.294,3.115-9.586,8.409-9.586h132.448c5.294,0,10.113,4.292,10.763,9.586l11.101,90.409
					C301.583,354.641,297.818,358.933,292.524,358.933z"/>
				<path fill="#FFFFFF" d="M288.412,351.621H162.393c-3.217,0-6.145-2.608-6.539-5.824l-10.229-83.307
					c-0.395-3.217,1.893-5.824,5.109-5.824h126.019c3.217,0,6.145,2.608,6.539,5.824l10.229,83.307
					C293.916,349.013,291.629,351.621,288.412,351.621z"/>
				<g>
					<path fill="#87C12B" d="M186.44,293.944h-21.41c-1.388,0-2.651-1.125-2.822-2.513l-2.629-21.41
						c-0.17-1.388,0.817-2.513,2.204-2.513h21.41c1.388,0,2.651,1.125,2.822,2.513l2.629,21.41
						C188.815,292.818,187.828,293.944,186.44,293.944z"/>
					<path fill="#FFFFFF" d="M165.513,280.974c1.706,1.662,3.411,3.324,5.117,4.986c0.562,0.548,1.568,0.602,2.121,0
						c0.544-0.592,0.6-1.536,0-2.121c-1.706-1.662-3.411-3.324-5.117-4.986c-0.562-0.548-1.568-0.602-2.121,0
						C164.969,279.445,164.912,280.389,165.513,280.974L165.513,280.974z"/>
					<path fill="#FFFFFF" d="M179.597,275.651c-1.26,1.465-2.594,2.865-4.001,4.189c-0.695,0.654-1.407,1.289-2.135,1.905
						c-0.355,0.3-0.713,0.595-1.075,0.886c-0.201,0.162-0.404,0.322-0.607,0.481c-0.043,0.034-0.188,0.144-0.064,0.05
						c-0.123,0.094-0.247,0.188-0.37,0.281c-0.624,0.471-1.013,1.316-0.538,2.052c0.398,0.617,1.383,1.044,2.052,0.538
						c3.236-2.443,6.215-5.185,8.86-8.261c0.511-0.594,0.628-1.545,0-2.121C181.157,275.136,180.144,275.016,179.597,275.651
						L179.597,275.651z"/>
				</g>
				<g>
					<path fill="#87C12B" d="M229.111,293.944h-21.41c-1.388,0-2.651-1.125-2.822-2.513l-2.629-21.41
						c-0.17-1.388,0.817-2.513,2.204-2.513h21.41c1.388,0,2.651,1.125,2.822,2.513l2.629,21.41
						C231.486,292.818,230.499,293.944,229.111,293.944z"/>
					<path fill="#FFFFFF" d="M208.184,280.974c1.706,1.662,3.411,3.324,5.117,4.986c0.562,0.548,1.568,0.602,2.121,0
						c0.544-0.592,0.6-1.536,0-2.121c-1.706-1.662-3.411-3.324-5.117-4.986c-0.562-0.548-1.568-0.602-2.121,0
						C207.64,279.445,207.584,280.389,208.184,280.974L208.184,280.974z"/>
					<path fill="#FFFFFF" d="M222.268,275.651c-1.26,1.465-2.594,2.865-4.001,4.189c-0.695,0.654-1.407,1.289-2.135,1.905
						c-0.355,0.3-0.713,0.595-1.075,0.886c-0.201,0.162-0.404,0.322-0.607,0.481c-0.043,0.034-0.188,0.144-0.064,0.05
						c-0.123,0.094-0.247,0.188-0.37,0.281c-0.624,0.471-1.013,1.316-0.538,2.052c0.398,0.617,1.383,1.044,2.052,0.538
						c3.236-2.443,6.215-5.185,8.86-8.261c0.511-0.594,0.628-1.545,0-2.121C223.828,275.136,222.815,275.016,222.268,275.651
						L222.268,275.651z"/>
				</g>
				<g>
					<path fill="#87C12B" d="M271.782,293.944h-21.41c-1.388,0-2.651-1.125-2.822-2.513l-2.629-21.41
						c-0.17-1.388,0.817-2.513,2.204-2.513h21.41c1.388,0,2.651,1.125,2.822,2.513l2.629,21.41
						C274.157,292.818,273.17,293.944,271.782,293.944z"/>
					<path fill="#FFFFFF" d="M250.855,280.974c1.706,1.662,3.411,3.324,5.117,4.986c0.562,0.548,1.568,0.602,2.121,0
						c0.544-0.592,0.6-1.536,0-2.121c-1.706-1.662-3.411-3.324-5.117-4.986c-0.562-0.548-1.568-0.602-2.121,0
						C250.311,279.445,250.255,280.389,250.855,280.974L250.855,280.974z"/>
					<path fill="#FFFFFF" d="M264.939,275.651c-1.26,1.465-2.594,2.865-4.001,4.189c-0.695,0.654-1.406,1.289-2.135,1.905
						c-0.355,0.3-0.713,0.595-1.075,0.886c-0.201,0.162-0.404,0.322-0.607,0.481c-0.043,0.034-0.188,0.144-0.064,0.05
						c-0.123,0.094-0.247,0.188-0.37,0.281c-0.624,0.471-1.013,1.316-0.538,2.052c0.398,0.617,1.383,1.044,2.052,0.538
						c3.236-2.443,6.215-5.185,8.86-8.261c0.511-0.594,0.628-1.545,0-2.121C266.499,275.136,265.486,275.016,264.939,275.651
						L264.939,275.651z"/>
				</g>
				<g>
					<g>
						<path fill="#98ADEA" d="M162.927,305.276c9.693,0,19.387,0,29.08,0c1.448,0,1.45-2.25,0-2.25c-9.693,0-19.387,0-29.08,0
							C161.479,303.026,161.477,305.276,162.927,305.276L162.927,305.276z"/>
						<path fill="#98ADEA" d="M164.088,314.736c9.693,0,19.387,0,29.08,0c1.448,0,1.45-2.25,0-2.25c-9.693,0-19.387,0-29.08,0
							C162.641,312.486,162.638,314.736,164.088,314.736L164.088,314.736z"/>
						<path fill="#98ADEA" d="M165.25,324.196c9.693,0,19.387,0,29.08,0c1.448,0,1.45-2.25,0-2.25c-9.693,0-19.387,0-29.08,0
							C163.802,321.946,163.8,324.196,165.25,324.196L165.25,324.196z"/>
						<path fill="#98ADEA" d="M166.411,333.655c9.693,0,19.387,0,29.08,0c1.448,0,1.45-2.25,0-2.25c-9.693,0-19.387,0-29.08,0
							C164.964,331.405,164.961,333.655,166.411,333.655L166.411,333.655z"/>
					</g>
				</g>
				<g>
					<g>
						<path fill="#98ADEA" d="M205.034,305.276c9.693,0,19.387,0,29.08,0c1.448,0,1.45-2.25,0-2.25c-9.693,0-19.387,0-29.08,0
							C203.586,303.026,203.584,305.276,205.034,305.276L205.034,305.276z"/>
						<path fill="#98ADEA" d="M206.195,314.736c9.693,0,19.387,0,29.08,0c1.448,0,1.45-2.25,0-2.25c-9.693,0-19.387,0-29.08,0
							C204.748,312.486,204.745,314.736,206.195,314.736L206.195,314.736z"/>
						<path fill="#98ADEA" d="M207.357,324.196c9.693,0,19.387,0,29.08,0c1.448,0,1.45-2.25,0-2.25c-9.693,0-19.387,0-29.08,0
							C205.909,321.946,205.907,324.196,207.357,324.196L207.357,324.196z"/>
						<path fill="#98ADEA" d="M208.518,333.655c9.693,0,19.387,0,29.08,0c1.448,0,1.45-2.25,0-2.25c-9.693,0-19.387,0-29.08,0
							C207.071,331.405,207.068,333.655,208.518,333.655L208.518,333.655z"/>
					</g>
				</g>
				<g>
					<g>
						<path fill="#98ADEA" d="M247.141,305.276c9.693,0,19.387,0,29.08,0c1.448,0,1.45-2.25,0-2.25c-9.693,0-19.387,0-29.08,0
							C245.693,303.026,245.691,305.276,247.141,305.276L247.141,305.276z"/>
						<path fill="#98ADEA" d="M248.303,314.736c9.693,0,19.387,0,29.08,0c1.448,0,1.45-2.25,0-2.25c-9.693,0-19.387,0-29.08,0
							C246.855,312.486,246.852,314.736,248.303,314.736L248.303,314.736z"/>
						<path fill="#98ADEA" d="M249.464,324.196c9.693,0,19.387,0,29.08,0c1.448,0,1.45-2.25,0-2.25c-9.693,0-19.387,0-29.08,0
							C248.016,321.946,248.014,324.196,249.464,324.196L249.464,324.196z"/>
						<path fill="#98ADEA" d="M250.626,333.655c9.693,0,19.387,0,29.08,0c1.448,0,1.45-2.25,0-2.25c-9.693,0-19.387,0-29.08,0
							C249.178,331.405,249.175,333.655,250.626,333.655L250.626,333.655z"/>
					</g>
				</g>
			</g>
			<g>
				<path fill="#EA758E" d="M134.714,348.982l10.001-1.507c0.996-0.15,1.679-1.117,1.521-2.169l-1.054-6.993
					c-0.158-1.052-1.097-1.774-2.092-1.624l5.079-0.765c1.01-0.152,1.694-1.119,1.537-2.156l-1.056-7.008
					c-0.156-1.037-1.094-1.759-2.104-1.607l4.239-0.639c0.996-0.15,1.694-1.119,1.535-2.171l-1.054-6.993
					c-0.158-1.052-1.111-1.772-2.107-1.622l-4.239,0.639c1.01-0.152,1.694-1.119,1.535-2.17l-1.054-6.993
					c-0.156-1.037-1.097-1.774-2.107-1.622l-15.08,2.272c-0.996,0.15-1.677,1.131-1.521,2.168l1.054,6.993
					c0.158,1.052,1.097,1.774,2.092,1.624c-0.996,0.15-1.679,1.117-1.521,2.169l1.054,6.993c0.158,1.052,1.097,1.774,2.092,1.624
					c-0.996,0.15-1.679,1.117-1.523,2.154l1.056,7.008c0.156,1.037,1.094,1.759,2.09,1.609c-0.996,0.15-1.679,1.117-1.521,2.169
					l1.054,6.993C132.78,348.409,133.718,349.132,134.714,348.982z"/>
				<path fill="#BA3C5D" d="M130.026,317.741c5.127-0.895,10.267-1.71,15.419-2.446c0.606-0.087,0.926-0.85,0.786-1.384
					c-0.171-0.648-0.785-0.871-1.384-0.786c-5.152,0.736-10.292,1.551-15.419,2.446C128.004,315.82,128.607,317.989,130.026,317.741
					L130.026,317.741z"/>
				<path fill="#BA3C5D" d="M131.802,329.531c5.127-0.895,10.267-1.71,15.419-2.446c0.606-0.087,0.926-0.85,0.786-1.384
					c-0.171-0.648-0.785-0.871-1.384-0.786c-5.152,0.736-10.292,1.551-15.419,2.446C129.78,327.61,130.384,329.778,131.802,329.531
					L131.802,329.531z"/>
				<path fill="#BA3C5D" d="M133.388,340.059c3.633-0.67,7.28-1.26,10.939-1.771c0.602-0.084,0.932-0.853,0.786-1.384
					c-0.178-0.648-0.78-0.87-1.384-0.786c-3.659,0.511-7.306,1.101-10.939,1.771c-0.598,0.11-0.937,0.834-0.786,1.384
					C132.177,339.902,132.789,340.17,133.388,340.059L133.388,340.059z"/>
			</g>
			<g>
				<path fill="#EA758E" d="M302.843,297.351l-10.062,1.194c-1.002,0.119-1.901-0.491-2.006-1.37l-0.694-5.848
					c-0.104-0.88,0.628-1.683,1.629-1.802l-5.109,0.606c-1.016,0.121-1.916-0.489-2.019-1.356l-0.695-5.861
					c-0.103-0.867,0.629-1.67,1.645-1.791l-4.265,0.506c-1.002,0.119-1.916-0.489-2.02-1.369l-0.694-5.848
					c-0.104-0.88,0.642-1.685,1.644-1.803l4.265-0.506c-1.016,0.121-1.916-0.489-2.02-1.368l-0.694-5.849
					c-0.103-0.867,0.628-1.683,1.644-1.803l15.171-1.8c1.002-0.119,1.903,0.503,2.006,1.37l0.694,5.849
					c0.104,0.88-0.628,1.683-1.629,1.801c1.002-0.119,1.901,0.491,2.006,1.37l0.694,5.848c0.104,0.88-0.628,1.683-1.629,1.802
					c1.002-0.119,1.901,0.491,2.004,1.358l0.695,5.861c0.103,0.867-0.629,1.67-1.631,1.789c1.002-0.119,1.901,0.491,2.006,1.37
					l0.694,5.848C304.577,296.428,303.845,297.232,302.843,297.351z"/>
				<path fill="#BA3C5D" d="M299.748,269.163c-5.188,0.514-10.369,1.095-15.542,1.742c-0.608,0.076-1.118,0.463-1.125,1.125
					c-0.006,0.55,0.522,1.2,1.125,1.125c5.173-0.647,10.354-1.228,15.542-1.742C301.176,271.272,301.191,269.02,299.748,269.163
					L299.748,269.163z"/>
				<path fill="#BA3C5D" d="M300.918,279.023c-5.188,0.514-10.369,1.095-15.542,1.742c-0.608,0.076-1.118,0.463-1.125,1.125
					c-0.006,0.55,0.522,1.2,1.125,1.125c5.173-0.647,10.354-1.228,15.542-1.742C302.346,281.131,302.361,278.88,300.918,279.023
					L300.918,279.023z"/>
				<path fill="#BA3C5D" d="M301.963,287.828c-3.685,0.336-7.364,0.739-11.035,1.208c-0.603,0.077-1.125,0.462-1.125,1.125
					c0,0.548,0.518,1.203,1.125,1.125c3.671-0.469,7.35-0.872,11.035-1.208c0.605-0.055,1.125-0.478,1.125-1.125
					C303.088,288.387,302.572,287.773,301.963,287.828L301.963,287.828z"/>
			</g>
		</g>
		<path fill="#13337E" d="M35.444,463.27c27.974,0,55.948,0,83.921,0c26.815,0,53.63,0,80.445,0c26.223,0,52.446,0,78.669,0
			c26.712,0,53.424,0,80.136,0c27.768,0,55.537,0,83.305,0c3.595,0,7.19,0,10.785,0c1.93,0,1.934-3,0-3c-27.974,0-55.948,0-83.921,0
			c-26.815,0-53.63,0-80.445,0c-26.223,0-52.446,0-78.669,0c-26.712,0-53.424,0-80.136,0c-27.768,0-55.537,0-83.305,0
			c-3.595,0-7.19,0-10.785,0C33.513,460.27,33.51,463.27,35.444,463.27L35.444,463.27z"/>
		<g>
			<circle fill="#CDD7FC" cx="265.166" cy="85.134" r="43.079"/>
			<circle fill="#FFFFFF" cx="265.166" cy="85.134" r="33.801"/>
			<g>
				<path fill="#98ADEA" d="M263.996,69.715c0,5.273,0,10.545,0,15.818c0,1.448,2.25,1.45,2.25,0c0-5.273,0-10.545,0-15.818
					C266.246,68.268,263.996,68.265,263.996,69.715L263.996,69.715z"/>
				<path fill="#98ADEA" d="M264.531,86.094c7.033,4.98,13.846,10.261,20.424,15.828c1.099,0.93,2.698-0.654,1.591-1.591
					c-6.724-5.691-13.691-11.09-20.88-16.18C264.483,83.313,263.358,85.263,264.531,86.094L264.531,86.094z"/>
			</g>
			<circle fill="#CDD7FC" cx="265.166" cy="85.134" r="4.639"/>
		</g>
	</g>
</g>
</svg>
