<svg xmlns="http://www.w3.org/2000/svg" width="507" height="500" fill="none" viewBox="0 0 507 500">
  <path fill="#fff" d="M0 0h507v500H0z"/>
  <path fill="#2E6BFF" d="M378.222 70.6c0 15.1-12.269 27.2-27.581 27.2-15.311 0-27.58-12.1-27.58-27.2s12.269-27.2 27.58-27.2c15.312 0 27.581 12.1 27.581 27.2Z"/>
  <path fill="#1B2864" d="M347.295 81.2c-1.014 0-2.028-.2-2.738-1l-8.01-7.9c-1.521-1.5-1.521-3.7 0-5.2s3.751-1.5 5.272 0l5.273 5.2 11.256-11.1c1.521-1.5 3.751-1.5 5.272 0 1.521 1.5 1.521 3.7 0 5.2l-14.094 13.9c-.203.5-1.217 1-2.231 1v-.1Z"/>
  <path fill="#BEE2F5" d="M274.084 127c-1.217-.7-2.738-1.7-4.259-2.5 0-2.7-.203-5.7-.71-8.4 2.028-1.7 3.752-3.2 5.476-4.9-2.231-4.5-4.766-8.7-6.997-13.1-2.535.5-4.968 1-7.3 1.7-2.028-2-4.056-3.7-6.49-5.4.203-2.5.203-4.9.203-7.4l-14.298-4.5c-1.521 2-2.737 4.2-4.056 6.4-2.737 0-5.779.2-8.517.7-1.724-2-3.245-3.7-4.969-5.4l-13.283 6.9c.507 2.5 1.014 4.9 1.724 7.2-2.028 2-3.752 4-5.476 6.4-2.535-.2-4.969-.2-7.504-.2l-4.258 13.9c2.028 1.5 4.258 2.7 6.489 4 0 2.7.203 5.7.71 8.4-1.521 1.5-3.245 2.7-4.766 4.2l-.71.7 6.997 13.1c2.535-.5 4.969-1 7.301-1.7 2.028 2 4.056 3.7 6.489 5.4-.202 2.5-.202 4.9-.202 7.4l14.297 4.5c1.521-2 2.738-4.2 4.056-6.4 2.738 0 5.78-.2 8.518-.7 1.723 2 3.244 3.7 4.968 5.4 4.563-2.2 8.822-4.7 13.284-6.9-.507-2.5-1.014-4.9-1.724-7.2 2.028-2 3.752-4 5.475-6.4 2.535.2 4.969.2 7.504.2l4.563-14.1c-1.014-.5-1.724-1-2.535-1.2v-.1Zm-22.815 1.5c-2.738 8.9-12.574 14.1-21.801 11.4-9.025-2.7-14.297-12.4-11.56-21.5 2.738-8.9 12.574-14.1 21.801-11.4 9.329 3 14.602 12.4 11.56 21.5Zm-55.77-41.3c0-2-.203-4.2-.507-6.2 1.521-1.2 2.738-2.5 4.259-3.7-1.724-3.2-3.549-6.4-5.273-9.9-1.724.5-3.752.7-5.476 1.2-1.521-1.5-3.042-2.7-4.765-4 .202-1.7.202-3.7.202-5.4L173.191 56c-1.014 1.5-2.028 3.2-3.042 4.7-2.028 0-4.259.2-6.287.5-1.217-1.5-2.535-2.7-3.752-4.2l-10.038 5.2c.507 1.7.71 3.7 1.217 5.4-1.521 1.5-2.738 3-4.056 4.7-1.724-.2-3.752-.2-5.476-.2l-3.245 10.6c1.521 1 3.245 2 4.766 3 0 2.2.203 4.2.507 6.2-1.217 1-2.231 2-3.549 3.2-1.318 1.2-.507.5-.71.5l5.273 9.9c1.724-.5 3.752-.7 5.476-1.2 1.521 1.5 3.042 2.7 4.765 4-.202 1.7-.202 3.7-.202 5.4l10.748 3.2c1.014-1.5 2.028-3.2 3.042-4.7 2.028 0 4.259-.2 6.287-.5 1.217 1.5 2.535 2.7 3.752 4.2 3.244-1.7 6.489-3.5 10.038-5.2-.507-1.7-.71-3.7-1.217-5.4 1.521-1.5 2.738-3 4.056-4.7 1.724.2 3.752.2 5.476.2l3.245-10.6c-.507-.2-1.014-.7-1.724-1-1.014-.7-2.028-1.5-3.042-2Zm-13.79 2.9c-2.028 6.7-9.329 10.4-16.326 8.4-6.794-2-10.545-9.2-8.517-16.1 2.028-6.7 9.328-10.4 16.325-8.4 6.794 2.2 10.546 9.4 8.518 16.1Zm45.427-26.9c0 4.2-3.245 7.4-7.503 7.4-4.259 0-7.504-3.2-7.504-7.4s3.245-7.4 7.504-7.4c4.258 0 7.503 3.5 7.503 7.4ZM17.137 167.8c0 4.2-3.245 7.4-7.504 7.4-4.259 0-7.504-3.2-7.504-7.4s3.245-7.4 7.504-7.4c4.259 0 7.504 3.5 7.504 7.4Zm160.82-41.3c0 1.7-1.521 3.2-3.245 3.2-1.724 0-3.245-1.5-3.245-3.2 0-1.7 1.521-3.2 3.245-3.2 1.724 0 3.245 1.5 3.245 3.2ZM20.381 294.8c0 1.7-1.52 3.2-3.245 3.2-1.723 0-3.244-1.5-3.244-3.2 0-1.7 1.52-3.2 3.244-3.2 1.724.2 3.245 1.5 3.245 3.2Zm114.177 106.4c0 1.7-1.521 3.2-3.245 3.2-1.724 0-3.245-1.5-3.245-3.2 0-1.7 1.521-3.2 3.245-3.2 1.724 0 3.245 1.5 3.245 3.2Zm174.61-294.5c0 5.7-4.563 10.1-10.241 10.1s-10.241-4.5-10.241-10.1 4.563-10.1 10.241-10.1 10.241 4.5 10.241 10.1Z"/>
  <path fill="#1B2864" d="M348.106 136.2H38.735c-5.983 0-11.053 4.9-11.053 10.9v223.2c0 5.9 4.969 10.9 11.053 10.9h309.371c5.983 0 11.053-4.9 11.053-10.9V146.9c0-5.9-4.969-10.6-11.053-10.6v-.1Z"/>
  <path fill="#fff" d="M341.515 154.2H45.225v156.9h296.29V154.2Z"/>
  <path fill="#2E6BFF" d="M243.461 448.9c-5.982-25.5-10.038-51.5-11.255-77 0-.2-.203-.5-.507-.5-12.574-1-25.553-1.2-38.127-1.2-12.573 0-25.552.5-38.126 1.2-.203 0-.507.2-.507.5a458.108 458.108 0 0 1-11.255 77v.5c0 .2.202.2.507.2 16.528 1.2 33.157 1.7 49.686 1.7 16.528 0 33.157-.5 49.686-1.7.135 0 .304-.066.507-.2.202-.133.033-.3-.507-.5h-.102Z"/>
  <path fill="#1B2864" d="M234.64 400.4c-1.217-9.4-2.028-19.1-2.535-28.5 0-.2-.203-.5-.507-.5-12.574-1-25.553-1.2-38.127-1.2-12.573 0-25.553.5-38.126 1.2-.203 0-.507.2-.507.5-.507 8.7-1.217 17.6-2.231 26.2 0 .134.068.3.203.5 0 0 .203.2.507.2l81.323 2.5c-.203-.2 0-.5 0-1v.1Z"/>
  <path fill="#2E6BFF" d="M358.347 328.7H28.392c-.203 0-.507.2-.507.5v41.3c0 5.7 4.968 10.4 11.052 10.4H348.31c5.982 0 11.052-4.7 11.052-10.4v-41.3c-.202-.2-.507-.5-1.014-.5Z"/>
  <path fill="#1B2864" d="M193.066 343c-6.49 0-11.763 5.2-11.763 11.6 0 6.4 5.273 11.6 11.763 11.6 6.489 0 11.762-5.2 11.762-11.6 0-6.4-5.273-11.6-11.762-11.6Zm49.888 102.7h-99.068c-.202 0-.507.2-.507.5v9.2c0 .2.203.5.507.5h99.068c.203 0 .507-.2.507-.5v-9.2c0-.2-.203-.5-.507-.5Zm225.818-340s2.231-11.1 2.028-16.1c0 0 9.329-5.9 6.794-13.6-2.738-7.4-13.588-5.7-13.588-5.7s-15.818-10.4-33.157-8.4c-15.515 1.7-13.791 8.4-13.791 8.4s-9.329-2.2-15.007 8.4c-5.78 10.6 10.748 31.9 10.748 31.9l55.973-4.9Z"/>
  <path fill="#2E6BFF" d="M412.292 426.9S384.407 444 382.176 446c-2.23 2.2-3.042 8.2 2.535 9.4 5.476 1.2 48.977 0 48.977 0s6.286-.7 7.3-5.9c1.014-5.2-6.286-22.5-6.286-22.5h-22.308l-.102-.1Zm51.207 4.2s-9.024 15.8-11.052 19.1c-2.028 3.2-.507 6.4 10.748 6.4H485.3s11.763.7 11.763-6.2-11.053-24.5-11.053-24.5l-22.612 5.2h.101Z"/>
  <path fill="#F27B57" d="M348.613 166.4s4.259-14.6-.71-17.3c-4.968-2.7-4.766 16.1-2.738 17.8 2.231 2 3.549-.5 3.549-.5h-.101Z"/>
  <path fill="#1B2864" d="M397.995 255.9s-18.049 56.7-20.28 78.2c-2.231 21.5 19.063 96.7 19.063 96.7s22.105 2.2 42.69-6.9c0 0-15.312-65.8-11.56-84.9 3.752-19.1 20.077-80.4 20.077-80.4l-49.889-2.7h-.101Z"/>
  <path fill="#1B2864" d="M442.408 255.7s1.724 49.7 5.78 91.1c2.535 27.2 6.794 85.4 6.794 85.4s28.595 4.9 43.196-3.5c0 0-1.014-49.7-2.231-80.4-1.014-27.2-3.751-94.5-3.751-94.5l-49.686 2-.102-.1Z"/>
  <path fill="#BEE2F5" d="M397.995 155.5s-16.528 44.8-23.829 52.5c-6.997 7.9-6.794 41.6 23.829 20.5 30.623-21 14.095-74 0-73Z"/>
  <path fill="#2E6BFF" d="M394.04 266.6s50.903 15.1 99.575.5c2.231-64.6 0-111.6 0-111.6s-10.748-5.2-25.857-9.2c-14.095-3.5-31.637-5.7-48.165-1.5-7.504 2-15.007 5.4-21.598 10.6-5.78 79.7-4.056 111.1-4.056 111.1l.101.1Z"/>
  <path fill="#FFBE99" d="M430.849 154c3.244 5.9 17.035 8.7 25.857-3 .507-8.9 2.535-29.9 2.535-29.9s0-7.2-4.969-6.4c-2.028.2-5.983 3.7-10.039 7.4-5.982 5.7-12.066 12.6-12.066 12.6s0 4-.203 8.7c0 3.7-.507 7.4-1.014 10.6h-.101Z"/>
  <path fill="#F27B57" d="M431.863 143.6c7.301-2.2 23.626-8.2 22.308-20.8-3.752-1.2-7.301-1.2-10.039-.7-5.982 5.7-12.066 12.6-12.066 12.6s.202 4.2-.203 8.9Z"/>
  <path fill="#FFBE99" d="M458.734 89.2s-33.665-15.6-46.644 5.2c-3.245 12.9-7.504 44.5 21.598 43.8 28.899-1 29.811-28.7 25.046-49Z"/>
  <path fill="#FFBE99" d="M459.443 107.5s5.78-9.9 12.574-2.2-2.028 24-13.081 15.8c-2.535-7.7.507-13.6.507-13.6Z"/>
  <path fill="#F27B57" d="M459.951 112.9s4.765.7.709 6.7c12.777-1.2 10.749-11.6 8.011-13.9-2.738-2.2-8.822 7.2-8.822 7.2h.102Z"/>
  <path fill="#DDF0FA" d="M504.363 223.5s4.056-62.6-10.038-68.3c-27.581-11.1-24.539 38.4-26.567 63.1-2.231 24.7 34.577 29.9 36.605 5.2Z"/>
  <path fill="#FFBE99" d="M384.002 232.9c-23.119 15.8-39.85-58.4-39.343-62.8.507-4.4 16.528 2.5 16.528 2.5s3.042 6.9 9.531 14.8c13.791 16.6 34.172 31.2 13.284 45.5Zm113.568-1.5c-9.836 26-66.215-30.2-68.243-33.9-2.23-4 6.997-11.4 6.997-11.4s12.776 9.2 22.612 11.9c20.787 5.4 47.455 9.9 38.634 33.4Z"/>
  <path fill="#BEE2F5" d="M364.837 174.5s-8.011-2.2-20.077 6.4c0 0 9.836 49.7 28.392 54.4 18.556 4.7 22.815-17.6 20.077-21.8-2.535-4.5-22.815-26.7-28.392-39.1v.1Z"/>
  <path fill="#FFBE99" d="M438.859 189.6s-.71-14.4-3.042-16.1c-2.332-1.7-5.78 3.2-5.78 3.2s-8.314-12.9-13.08-11.4c-4.766 1.7 0 8.4 0 8.4s-5.983 6.4-6.287 13.4c-.203 6.9 14.297 12.9 20.28 10.6 5.78-1.7 7.808-8.2 7.808-8.2l.101.1Z"/>
  <path fill="#DDF0FA" d="M441.699 187.1s-5.78 4.5-10.749 19.1c0 0 43.197 40.1 61.956 32.7 18.86-7.2 5.982-30.9 1.014-33.2-4.969-2-39.648-11.4-52.221-18.6Z"/>
  <path fill="#1B2864" d="M389.477 172.5h-44.413l-19.063-53.4h44.413l19.063 53.4Z"/>
  <path fill="#FFBE99" d="M335.026 151s13.283-1.5 15.818 4.9c2.738 6.2-14.095 3.2-17.035 1.5-3.042-1.7-2.231-7.4 1.217-6.4Z"/>
  <path fill="#FFBE99" d="M335.026 157s13.283-3 15.818 9.7c2.738 12.6-14.095 6.4-17.035 3-3.042-3.2-2.231-14.4 1.217-12.6v-.1Z"/>
  <path fill="#FCB830" d="M63.78 215.3H8.62c-2.232 0-4.26-1.7-4.26-4.2v-15.6c0-2.2 1.724-4.2 4.26-4.2h55.16c2.232 0 4.26 1.7 4.26 4.2v15.8c0 2.2-2.028 4-4.26 4Z"/>
  <path fill="#fff" d="M66.316 191.1H11.154c-.507 0-1.014 0-1.216.2-1.724.5-3.042 2.2-3.042 4.2v15.8c0 2 1.216 3.5 3.042 4.2.506.2.71.2 1.216.2h55.162c2.535 0 4.259-2 4.259-4.2v-16.1c0-2.5-1.724-4.5-4.26-4.5v.2Zm4.056 20.3c0 2.2-1.724 4-4.056 4H11.154c-2.23 0-4.056-1.7-4.056-4v-15.8c0-2.2 1.724-4 4.056-4h55.162c2.23 0 4.056 1.7 4.056 4v15.8Z"/>
  <path fill="#DB5531" d="m13.385 200 .71 1.5c0 .2.202.5.71.5l1.52.2c.71 0 1.014 1 .507 1.5l-1.014 1c-.202.2-.202.5-.202.7l.202 1.5c0 .7-.507 1.2-1.216 1l-1.217-.7a.495.495 0 0 0-.71 0l-1.217.7c-.71.2-1.217-.2-1.217-1l.203-1.5c0-.2 0-.5-.203-.7l-1.014-1c-.507-.5-.202-1.2.507-1.5l1.521-.2c.203 0 .507-.2.71-.5l.71-1.5c-.203-.7.507-.7.71 0Zm12.269 0 .71 1.5c.203.2.203.5.71.5l1.52.2c.71 0 1.015 1 .508 1.5l-1.014 1c-.507 0-.507.2-.507.5l.203 1.5c0 .7-.507 1.2-1.217 1l-1.217-.7a.495.495 0 0 0-.71 0l-1.216.7c-.71.2-1.217-.2-1.217-1l.203-1.5c0-.2 0-.5-.203-.7l-1.014-1c-.507-.5-.203-1.2.507-1.5l1.52-.2c.204 0 .508-.2.71-.5l.71-1.5c-.203-.5.71-.5 1.014.2Zm12.27 0 .71 1.5c0 .2.203.5.71.5l1.52.2c.71 0 1.015 1 .508 1.5l-1.217.7c-.203.2-.203.5-.203.7l.203 1.5c0 .7-.507 1.2-1.217 1l-1.217-.7a.495.495 0 0 0-.71 0l-1.216.7c-.71.2-1.217-.2-1.217-1l.203-1.5c0-.2 0-.5-.203-.7l-1.014-1c-.507-.5-.203-1.2.507-1.5l1.52-.2c.204 0 .508-.2.71-.5l.71-1.5c-.202-.5.71-.5 1.014.2l-.101.1Zm12.371 0 .71 1.5c.202.2.202.5.71.5l1.52.2c.71 0 1.014 1 .507 1.5l-1.014 1c-.203.2-.203.5-.203.7l.203 1.5c0 .7-.507 1.2-1.217 1l-1.216-.7a.495.495 0 0 0-.71 0l-1.724.5c-.71.2-1.217-.2-1.217-1l.203-1.5c0-.2 0-.5-.203-.7l-1.014-1c-.507-.5-.203-1.2.507-1.5l1.521-.2c.203 0 .507-.2.71-.5l.71-1.5c0-.5 1.014-.5 1.217.2Z"/>
  <path fill="#fff" d="m62.564 200 .71 1.5c.203.2.203.5.71.5l1.52.2c.71 0 1.015 1 .508 1.5l-1.014 1c-.203.2-.203.5-.203.7l.203 1.5c0 .7-.507 1.2-1.217 1l-1.217-.7a.495.495 0 0 0-.71 0l-1.216.7c-.71.2-1.217-.2-1.217-1l.203-1.5c0-.2 0-.5-.203-.7l-1.521-1.2c-.507-.5-.203-1.2.507-1.5l1.52-.2c.203 0 .508-.2.71-.5l.71-1.5c0-.5 1.014-.5 1.217.2Z"/>
  <path fill="#BEE2F5" d="M67.532 235.9v35.4c0 3-1.014 5.4-2.737 7.7-2.231 2.7-5.476 4.5-9.33 4.5H19.673c-3.752 0-7.301-1.7-9.33-4.5-1.723-2-2.737-4.7-2.737-7.7v-35.4c0-6.7 5.476-11.9 12.067-11.9h35.895c6.49 0 12.067 5.2 12.067 11.9h-.102Z"/>
  <path fill="#1B2864" d="M51.004 243.8c0 7.4-5.982 13.4-13.587 13.4-7.605 0-13.588-5.9-13.588-13.4s5.983-13.4 13.588-13.4c7.605 0 13.587 5.9 13.587 13.4Z"/>
  <path fill="#1B2864" d="M64.795 276.7v2c-2.231 2.7-5.476 4.5-9.33 4.5H19.673c-3.752 0-7.301-1.7-9.33-4.5v-2c0-9.9 5.274-18.6 13.284-23.3 3.042 4.2 8.315 7.2 14.095 7.2 5.78 0 10.748-2.7 14.094-7.2 7.808 4.9 13.081 13.4 13.081 23.3h-.101Z"/>
  <path fill="#FCB830" d="M374.673 268.3c0 10.1-8.518 18.6-18.86 18.6-10.343 0-18.861-8.4-18.861-18.6 0-10.2 8.518-18.6 18.861-18.6 10.545.2 18.86 8.4 18.86 18.6Z"/>
  <path fill="#FCB830" d="M370.617 268.3c0 10.1-8.518 18.6-18.861 18.6-10.342 0-18.86-8.4-18.86-18.6 0-10.2 8.518-18.6 18.86-18.6 10.546.2 18.861 8.4 18.861 18.6Z"/>
  <path fill="#FCB830" d="M351.858 282.4c-7.808 0-14.297-6.4-14.297-14.1 0-7.7 6.489-14.1 14.297-14.1 7.808 0 14.297 6.4 14.297 14.1 0 7.7-6.286 14.1-14.297 14.1Zm0-27c-7.301 0-13.081 5.7-13.081 12.9s5.78 12.9 13.081 12.9c7.301 0 13.081-5.7 13.081-12.9.202-6.9-5.78-12.9-13.081-12.9Z"/>
  <path fill="#FCB830" d="M352.061 277.2c-.203 0-.507 0-.71-.2-.203-.2-.203-.5-.203-.7v-1.5l.507.5c-.71 0-1.521-.2-2.231-.2-.71-.2-1.217-.5-1.521-.5-.203-.2-.507-.2-.507-.5s-.203-.5 0-.7c0-.2 0-.5.203-.7l.507-.5c.203 0 .507 0 .71.2.203.2.71.2 1.217.5.507.3 1.216.2 2.028.2.811 0 1.014 0 1.216-.2.203-.2.507-.2.71-.5.203-.3.203-.5.203-.7 0-.2 0-.5-.203-.5 0-.2-.203-.2-.507-.5-.203-.2-.507-.2-1.014-.2l-2.028-.5c-1.217-.2-2.028-.7-2.535-1.2-.507-.5-.71-1.2-.71-2.2 0-1 .203-1.5.507-2 .203-.5.71-1 1.521-1.5.71-.2 1.521-.5 2.231-.7l-.507.2v-1.5c0-.2 0-.5.203-.7.203-.2.507-.2.71-.2.203 0 .507 0 .71.2.202.2.202.5.202.7v1.5l-.507-.2c.507 0 1.014 0 1.724.2l1.521.7c.203.2.507.2.507.5v.7c0 .2-.203.5-.203.5a.69.69 0 0 1-.507.2c-.202 0-.507 0-.709-.2-.203-.2-.71-.2-1.014-.5-.507 0-1.014-.2-1.521-.2-.71 0-1.217.2-1.724.5-.507.3-.507.7-.507 1.2s0 .5.203.7c.202.2.709.5 1.216.5l2.028.5c1.217.2 2.028.7 2.535 1.2.507.5.71 1.2.71 2.2 0 1-.203 1.2-.507 2-.203.5-.71 1-1.521 1.2-.811.2-1.217.5-2.231.7l.507-.5v1.5c0 .2 0 .5-.202.7-.203.2-.507.5-.71.5h.203ZM159.097 138.1c0 10.1-8.518 18.6-18.861 18.6-10.342 0-18.86-8.4-18.86-18.6 0-10.2 8.518-18.6 18.86-18.6 10.242 0 18.861 8.4 18.861 18.6Z"/>
  <path fill="#FCB830" d="M155.142 138.1c0 10.1-8.517 18.6-18.86 18.6s-18.861-8.4-18.861-18.6c0-10.2 8.518-18.6 18.861-18.6 10.241 0 18.86 8.4 18.86 18.6Z"/>
  <path fill="#FCB830" d="M136.282 152.3c-7.808 0-14.298-6.4-14.298-14.1 0-7.7 6.49-14.1 14.298-14.1s14.297 6.4 14.297 14.1c0 7.7-6.489 14.1-14.297 14.1Zm0-27c-7.301 0-13.081 5.7-13.081 12.9s5.78 12.9 13.081 12.9c7.301 0 13.08-5.7 13.08-12.9s-5.779-12.9-13.08-12.9Z"/>
  <path fill="#FCB830" d="M136.282 146.8c-.203 0-.507 0-.71-.2-.203-.2-.203-.5-.203-.7v-1.5l.507.5c-.71 0-1.521-.2-2.231-.2-.709-.2-1.216-.5-1.521-.5-.202-.2-.507-.2-.507-.5s-.202-.5 0-.7c0-.2 0-.5.203-.7l.507-.5c.203 0 .507 0 .71.2.203.2.71.2 1.217.5.507.2 1.217.2 2.028.2.811 0 1.014 0 1.217-.2.202-.2.507-.2.709-.5.203-.2.203-.5.203-.7 0-.2 0-.5-.203-.5 0-.2-.202-.2-.507-.5-.304-.3-.507-.2-1.014-.2l-2.028-.5c-1.216-.2-2.028-.7-2.535-1.2-.507-.5-.709-1.2-.709-2.2 0-1 .202-1.5.507-2 .202-.5.709-1 1.521-1.5.709-.2 1.521-.5 2.23-.7l-.507.2v-1.5c0-.2 0-.5.203-.7.203-.2.507-.2.71-.2.203 0 .507 0 .71.2.203.2.203.5.203.7v1.5l-.507-.2c.507 0 1.014 0 1.723.2.507.2 1.014.5 1.521.7.203.2.507.2.507.5v.7c0 .2-.202.5-.202.5a.697.697 0 0 1-.507.2c-.203 0-.507 0-.71-.2-.203-.2-.71-.2-1.014-.5-.507 0-1.014-.2-1.521-.2-.71 0-1.217.2-1.724.5-.507.2-.507.7-.507 1.2s0 .5.203.7c.203.2.71.5 1.217.5l2.028.5c1.216.2 2.028.7 2.535 1.2.507.5.709 1.2.709 2.2 0 1-.202 1.2-.507 2-.202.5-.709 1-1.521 1.2-.811.2-1.216.5-2.23.7l.507-.5v1.5c0 .2 0 .5-.203.7 0 .5-.203.5-.71.5h.203Zm-31.13 12.4c0 6.4-5.273 11.6-11.763 11.6s-11.762-5.2-11.762-11.6c0-6.4 5.273-11.6 11.762-11.6 6.49-.2 11.763 4.9 11.763 11.6Z"/>
  <path fill="#FCB830" d="M102.718 159.2c0 6.4-5.273 11.6-11.762 11.6-6.49 0-11.763-5.2-11.763-11.6 0-6.4 5.273-11.6 11.763-11.6 6.49-.2 11.762 4.9 11.762 11.6Z"/>
  <path fill="#FCB830" d="M90.854 167.8c-4.968 0-9.024-4-9.024-8.9s4.056-8.9 9.024-8.9c4.969 0 9.025 4 9.025 8.9s-4.259 8.9-9.025 8.9Zm0-16.8c-4.563 0-8.315 3.7-8.315 8.2 0 4.5 3.752 8.2 8.315 8.2s8.315-3.7 8.315-8.2c0-4.5-3.752-8.2-8.315-8.2Z"/>
  <path fill="#FCB830" d="M90.854 164.6c-.135 0-.304-.067-.507-.2s-.27-.3-.203-.5v-1l.203.2c-.507 0-1.014 0-1.52-.2-.508 0-.71-.2-1.015-.5-.203 0-.203-.2-.203-.2v-.5c0-.133.068-.3.203-.5l.203-.2h.507c.203 0 .507.2.71.2.203 0 .71.2 1.217.2h.71c.202 0 .506-.2.506-.2 0-.2.203-.2.203-.5v-.2l-.203-.2c-.202 0-.202-.2-.71-.2l-1.216-.2c-.71-.2-1.217-.5-1.521-.7-.203-.5-.507-.7-.507-1.5s0-1 .203-1.2c.202-.2.507-.7 1.014-1 .507-.3 1.014-.2 1.52-.5l-.202.2v-1c0-.133.067-.3.203-.5a.694.694 0 0 1 .507-.2c.135 0 .304.067.507.2.135.133.202.3.202.5v1l-.202-.2c.202 0 .71 0 1.014.2.202 0 .71.2 1.014.5.202 0 .202.2.202.2v.5c0 .133-.067.2-.202.2l-.203.2h-.507c-.203 0-.507-.2-.71-.2h-1.014c-.507 0-.71 0-1.014.2-.203.2-.507.5-.507.7 0 .2 0 .5.203.5.203.2.507.2.71.2l1.216.2c.71.2 1.217.5 1.724.7.203.2.507.7.507 1.5s0 .7-.203 1.2c-.202.2-.507.7-1.014.7-.507.2-.71.2-1.52.5l.202-.2v1c0 .133-.067.3-.203.5-.135.2-.304.267-.507.2l.203.1ZM42.689 349.7c0 7.9-6.49 14.1-14.297 14.1-7.808 0-14.298-6.4-14.298-14.1 0-7.7 6.49-14.1 14.298-14.1 7.807-.2 14.297 6.2 14.297 14.1Z"/>
  <path fill="#FCB830" d="M39.749 349.7c0 7.9-6.49 14.1-14.298 14.1s-14.297-6.4-14.297-14.1c0-7.7 6.49-14.1 14.297-14.1 7.808-.2 14.298 6.2 14.298 14.1Z"/>
  <path fill="#FCB830" d="M25.147 360.3c-5.983 0-11.053-4.9-11.053-10.9s4.969-10.9 11.053-10.9c6.084 0 11.052 4.9 11.052 10.9s-4.968 10.9-11.052 10.9Zm0-20.5c-5.476 0-10.039 4.5-10.039 9.9s4.563 9.9 10.039 9.9c5.475 0 10.038-4.5 10.038-9.9s-4.563-9.9-10.038-9.9Z"/>
  <path fill="#FCB830" d="M25.451 356.4c-.203 0-.507 0-.507-.2a.673.673 0 0 1-.203-.5v-1.2l.507.2c-.71 0-1.216 0-1.723-.2-.507-.2-1.014-.2-1.217-.5-.203 0-.203-.2-.507-.5v-.5c0-.133.067-.3.203-.5 0-.2.202-.2.507-.2h.71c.202 0 .506.2 1.013.5.507.2 1.014.2 1.521.2.507 0 .71 0 1.014-.2.203 0 .507-.2.507-.5s.203-.2.203-.5v-.5c0-.2-.203-.2-.507-.2s-.507-.2-.71-.2l-1.52-.2c-.71-.2-1.522-.5-2.029-1-.507-.5-.71-1-.71-1.7s.203-1 .508-1.5c.202-.5.71-.7 1.216-1 .507-.2 1.014-.5 1.724-.5l-.203.2v-1c0-.2 0-.5.203-.5a.694.694 0 0 1 .507-.2c.203 0 .507 0 .507.2.135.133.203.3.203.5v1l-.203-.2c.507 0 .71 0 1.217.2.507.2.71.2 1.217.5.203 0 .203.2.203.5v.5c0 .133-.068.3-.203.5 0 .2-.203.2-.507.2s-.507 0-.71-.2c-.203 0-.507-.2-.71-.2-.203 0-.71-.2-1.014-.2-.507 0-1.014 0-1.217.2-.202.2-.507.5-.507 1s0 .5.203.7c.203.2.507.2 1.014.5l1.521.2c1.014.2 1.521.5 2.028 1 .507.5.71 1 .71 1.7s-.203 1-.507 1.5c-.203.5-.71.7-1.217 1-.507.2-1.014.5-1.724.5l.203-.2v1.2c0 .2 0 .5-.203.5h-.71l-.1-.2Z"/>
  <path fill="#BEE2F5" d="M126.547 262.9c-4.563 0-8.517-.7-12.269-2-3.752-1.5-6.997-3.2-9.836-5.9-2.738-2.5-4.968-5.4-6.49-9.2-1.52-3.5-2.23-7.4-2.23-11.6 0-4.2.71-8.2 2.23-11.6 1.522-3.5 3.752-6.4 6.49-9.2 2.738-2.5 5.983-4.5 9.836-5.9 3.853-1.4 7.808-2 12.269-2 4.462 0 10.242 1 14.602 2.7 4.259 2 7.808 4.5 10.241 8.2l-11.762 10.4c-1.724-2-3.549-3.7-5.476-4.7-2.028-1.2-4.259-1.7-6.794-1.7-2.535 0-3.751.2-5.272 1-1.521.8-3.042 1.5-4.056 2.7-1.217 1.2-2.028 2.7-2.738 4.2-.71 1.7-1.014 3.5-1.014 5.7s.203 4 1.014 5.7c.71 1.7 1.521 3.2 2.738 4.2 1.216 1.2 2.535 2.2 4.056 2.7 1.521.7 3.244 1 5.272 1s4.766-.5 6.794-1.7c2.028-1.2 3.752-2.7 5.476-4.7l11.762 10.4c-2.738 3.5-6.287 6.2-10.241 8.2-4.563 2.2-9.329 3.2-14.602 3.2v-.1Zm34.071-1.3v-54.4h26.566c5.273 0 9.532.7 13.284 2.5 3.752 1.8 6.794 4 8.822 7.2 2.028 3.2 3.042 6.7 3.042 10.9s-1.014 7.9-3.042 10.9c-2.028 3-4.969 5.4-8.822 6.9-3.752 1.7-8.315 2.5-13.284 2.5h-16.325l8.315-7.7v21.3h-18.556v-.1Zm18.556-19.3-8.315-8.4h15.007c2.535 0 4.563-.5 5.78-1.7 1.217-1.2 1.724-2.7 1.724-4.7s-.507-3.5-1.724-4.7c-1.217-1.2-3.245-1.7-5.78-1.7h-15.007l8.315-8.4v29.7-.1Zm14.601 19.3-13.587-19.8h19.773l13.79 19.8h-20.077.101Zm29.609 0v-54.4h15.312l22.105 35.6h-8.011l21.598-35.6H289.7l.203 54.7h-17.036l-.202-29.2h2.737l-14.804 24.5h-8.315l-15.311-24.5h3.245v29.2h-16.833v-.3Zm-114.379 97.8-16.832 4.5c-3.245 1-4.26 4.9-1.724 7.2l3.752 3.2-14.095 15.6-6.49-5.7c-2.028-2-5.272-1.7-7.3.2L47.758 403c-2.028 2-2.028 5.4 0 7.4 1.014 1 2.535 1.5 3.752 1.5 1.217 0 2.738-.5 3.752-1.5l15.007-15.1 6.794 5.9c1.014 1 2.535 1.5 3.752 1.2 1.52 0 2.737-.7 3.751-1.7l17.543-19.5 2.737 2.5c2.535 2.2 6.794.7 6.997-2.7l2.231-17.1c.507-2.7-2.231-5.2-5.273-4.5h.203ZM62.26 423.7H46.44v30.7h15.82v-30.7Zm26.667-10.6H73.11v41.3h15.818v-41.3Zm27.581-13.9H100.69v54.9h15.818v-54.9Z"/>
  <path fill="#DB5531" d="M338.068 390v.5c-1.217 17.8-16.833 31.4-34.882 30.4-18.353-1-32.346-16.3-31.332-34.4.709-12.1 8.01-22.5 18.353-27.5 2.535-1.2 5.273-2.2 8.315-2.7l7.301 35.4 16.832-31.2c9.836 5.9 16.021 17.1 15.514 29.4l-.101.1Z"/>
  <path fill="#fff" d="m310.69 353.7-5.273 38.1-16.833-34.4c5.476-2.7 12.067-4.2 18.861-3.7 1.217-.2 2.231-.2 3.245 0Z"/>
  <path fill="#FCB830" d="M338.068 390v.5l-32.347 1.2 6.997-35.1c15.007 3.5 26.06 17.3 25.35 33.4Z"/>
</svg>
