<svg id="_01" data-name="01" xmlns="http://www.w3.org/2000/svg" xmlns:xlink="http://www.w3.org/1999/xlink" viewBox="0 0 4680 3120"><defs><style>.cls-1{fill:none;}.cls-14,.cls-2{fill:#fff;}.cls-2{opacity:0;}.cls-3{fill:#e0e7f3;}.cls-18,.cls-23,.cls-4{fill:#a5bfdf;}.cls-25,.cls-5{fill:#d0daed;}.cls-6{fill:#263d6f;}.cls-7{fill:#34509c;}.cls-8{fill:#1a124c;}.cls-9{fill:#a33646;}.cls-10{fill:#f19a6d;}.cls-11{fill:#ef7c59;}.cls-12{fill:#518e7b;}.cls-13{fill:#5c9a87;}.cls-15{fill:#38261f;}.cls-16{fill:#eaab8a;}.cls-17,.cls-26{fill:#c17552;}.cls-18{opacity:0.95;}.cls-19{clip-path:url(#clip-path);}.cls-20{fill:#f1a953;}.cls-21,.cls-24{fill:#f2f2f2;}.cls-22,.cls-27{fill:#ee6a4a;}.cls-22,.cls-23,.cls-24,.cls-25,.cls-26{fill-rule:evenodd;}.cls-28{fill:#52261f;}</style><clipPath id="clip-path"><path class="cls-1" d="M1822.36,1435.5s-126.14-34.72-194.12-126.53c94.32-89.13,153.19-215.4,153.19-355.42,0-270-218.89-593.55-488.92-593.55S803.6,683.53,803.6,953.55s218.89,488.92,488.91,488.92a487.62,487.62,0,0,0,172-31.14C1540.21,1473.7,1667.51,1534.51,1822.36,1435.5Z"/></clipPath></defs><title>01</title><rect id="_01-2" data-name="01" class="cls-2" width="4680" height="3120"/><path class="cls-3" d="M3762.21,1352.18c-286-88.68-254.22-229.16-389.06-628.31S2624.56,287.76,2203,679.52s-577.79-207-1035.39,73.92c-472.34,289.93-201.85,598.73-508.08,960.28s-41.45,1003.65,430.74,1003.65h2349.2c283,0,550.14-161.56,705.93-436.39q5.49-9.69,10.86-19.63C4327.86,1943.51,4048.21,1440.87,3762.21,1352.18Z"/><path class="cls-4" d="M3668.67,2271.14c-304.32,126.23-372.25,328.74-372.25,328.74,618.66,278.83,785.49-185.06,1033-206.05C4329.39,2393.83,3973,2144.92,3668.67,2271.14Z"/><path class="cls-3" d="M4007,2380.47c-18.32.68-36.41,3.3-54.61,5.19s-36.25,4.78-54.34,7.44c-9,1.38-18.09,2.72-27.07,4.43l-26.89,5.28-26.91,5.3-26.7,6.12-26.65,6.4c-8.86,2.22-17.64,4.72-26.46,7.06-17.63,4.78-35.31,9.33-52.69,14.93-17.43,5.39-34.9,10.68-52.13,16.65-17.32,5.74-34.58,11.62-51.6,18.16-68.42,25.18-135.42,54.13-200,87.71,68.69-24.07,137.17-47.77,206.25-69.29,17.23-5.53,34.63-10.46,51.92-15.72s34.71-10,52.12-14.82c8.74-2.29,17.36-5,26.11-7.21l26.21-6.78c8.74-2.23,17.45-4.6,26.23-6.7l26.37-6,26.32-6.31,26.47-5.5,26.48-5.5c8.83-1.84,17.76-3.08,26.6-4.82,17.74-3.2,35.43-6.78,53.3-9.07l26.76-3.91,13.37-2.05,13.43-1.53c71.58-8.82,143.75-13.13,216.54-11.37C4153.52,2376.37,4079.82,2375.17,4007,2380.47Z"/><path class="cls-5" d="M3458.62,1721.18c-294.67,394.43-227.4,706.48-227.4,706.48,1007.7-113.9,868-837.26,1170-1053.11C4401.2,1374.55,3753.29,1326.75,3458.62,1721.18Z"/><path class="cls-4" d="M3660.89,1827.42A1912.33,1912.33,0,0,0,3457.49,2069c-61,85.72-115.28,176.28-159.23,271.5,59.7-86.23,121.06-170.22,186.34-250.91,65.49-80.48,134.29-158,207.3-231.28s150-142.59,231.43-206.43c81.74-63.49,167.82-121.39,260.7-170.09-100.07,31.88-193.9,83-280.88,142.51C3815.91,1683.79,3735.29,1752.69,3660.89,1827.42Z"/><path class="cls-5" d="M1035.66,2297.62c-294.67-147.34-667.73,75.86-667.73,75.86,245.4,38.36,379.14,512.85,1015.9,278.28C1383.83,2651.76,1330.33,2445,1035.66,2297.62Z"/><path class="cls-4" d="M1058.49,2487.84c-16.77-7.18-33.82-13.68-50.83-20.29-16.94-6.81-34.26-12.6-51.51-18.6-8.63-3-17.22-6.07-25.9-8.91l-26.13-8.25-26.21-8-26.46-7.18L825,2409.46c-8.83-2.35-17.77-4.32-26.69-6.33-17.86-3.93-35.62-8.23-53.68-11.25-18-3.17-35.88-7.06-54.1-9-72.33-10.41-145.93-14.4-218.46-7.33,72.73,3.37,144.42,12.75,215.21,26.59l13.28,2.47,13.2,3,26.41,5.78c17.66,3.54,35.06,8.36,52.53,12.8,8.7,2.36,17.51,4.23,26.19,6.68l26,7.35,26,7.36,25.81,8.14,25.88,7.87c8.61,2.71,17.13,5.7,25.69,8.53l25.67,8.61c8.57,2.82,17,6.14,25.53,9,17,6,34.12,11.88,51,18.45s33.88,12.61,50.67,19.33c67.4,26.34,134,54.8,200.87,83.65-62.06-38-126.85-71.64-193.33-101.58C1092.16,2501.86,1075.36,2494.77,1058.49,2487.84Z"/><path class="cls-4" d="M531.06,1615.29c271.91,224.91,91,901.54,1039,1077,0,0,84.68-291.42-168.36-685.2S531.06,1615.29,531.06,1615.29Z"/><path class="cls-5" d="M1203.62,2093.61C1138,2017.73,1066.1,1947,987.2,1884.83c-78.64-62.12-164.4-116.77-257.37-153.3,84.62,52.81,162.16,113.62,235.3,179.4,72.82,66.09,141.12,136.92,205.38,211.32s124.38,152.38,181.22,233c56.62,80.78,109.37,164.39,160.62,250-34.91-93.45-80.1-183.1-132.13-268.6A1800.6,1800.6,0,0,0,1203.62,2093.61Z"/><path class="cls-6" d="M2732,1768.69a67.31,67.31,0,0,0-13.2,1,77.27,77.27,0,0,0-12.63,3.16c-8.08,2.78-15.18,6.61-20.25,11.06-8.89,7.75-12.89,19.62-14.59,31.21-.73,4.69-.9,10,2.17,14.14a58.8,58.8,0,0,1,14.51-12.41,109.35,109.35,0,0,1,17.34-8.61,72.65,72.65,0,0,1,17-4.65c1.44-.19,2.89-.32,4.33-.38s2.91-.09,4.35,0a38.28,38.28,0,0,1,8.55,1.35l1.16-27.66c-2.11-2.48-2.59-4.84-3.39-6.4S2735.34,1768.13,2732,1768.69Z"/><path class="cls-7" d="M2762.55,1787.78a31,31,0,0,0-1.89-5.75,27.73,27.73,0,0,0-2.6-3.1,36.65,36.65,0,0,0-3-2.91,39.61,39.61,0,0,0-7.18-4.73c-5.14-2.54-10.73-3.88-15.87-2.6a123.74,123.74,0,0,1-3.6,16,111,111,0,0,1-5.22,14.15,93.32,93.32,0,0,1-14.27,22.57,80.57,80.57,0,0,1-16.65,14.72,60.26,60.26,0,0,1-14.76,7.24,3.41,3.41,0,0,0-2.1,4.54c2.52,7.09,4.33,11.25,10.21,18.42.84,1,1.75,2.06,2.7,3.05s2,1.89,3.08,2.77a41.48,41.48,0,0,0,6.84,4.62,33.82,33.82,0,0,0,7.49,2.83,22.3,22.3,0,0,0,7.61.6c7.15-2.31,14.58-7.8,21.38-15.29a116.22,116.22,0,0,0,17.88-26.85,112.79,112.79,0,0,0,10.07-30.16,62.16,62.16,0,0,0,.84-13.89A37.75,37.75,0,0,0,2762.55,1787.78Z"/><path class="cls-6" d="M2693.71,1731.41a74.77,74.77,0,0,0-26.3.64c-8.35,1.66-16,4.64-21.52,8.41-9.79,6.58-15.18,17.84-18.39,29.11-1.28,4.52-2.22,9.77.3,14.25,9.45-8.82,21.78-13.45,34.31-16.67a77.84,77.84,0,0,1,8.63-1.68,60.93,60.93,0,0,1,8.82-.62,49.68,49.68,0,0,1,8.7.82,38.66,38.66,0,0,1,8.34,2.57l4.77-27.41c-1.8-2.77-1.95-5.24-2.58-6.89S2697.12,1731.37,2693.71,1731.41Z"/><path class="cls-7" d="M2715.87,1742.12a35.15,35.15,0,0,0-3.15-3.07,36,36,0,0,0-3.45-2.74,31.53,31.53,0,0,0-3.74-2.23,25.62,25.62,0,0,0-3.87-1.66,19.49,19.49,0,0,0-7.95-1,114.66,114.66,0,0,1-12.65,28.88,92,92,0,0,1-17.18,20.44,81.27,81.27,0,0,1-18.48,12.34,69.05,69.05,0,0,1-8.45,3.42,50.81,50.81,0,0,1-7.1,1.81,3.41,3.41,0,0,0-2.7,4.2,59.43,59.43,0,0,0,2.51,9.56,55,55,0,0,0,4.94,9.93c.68,1.13,1.43,2.26,2.23,3.35s1.69,2.13,2.61,3.14a39.11,39.11,0,0,0,6,5.47c4.4,3.13,9.29,5.24,14.32,5.46,7.34-1.25,15.5-5.61,23.36-12a116.41,116.41,0,0,0,21.67-23.88,124.2,124.2,0,0,0,8.4-14.06,94.45,94.45,0,0,0,6-14.32,61,61,0,0,0,2.75-13.7,34.89,34.89,0,0,0-1.2-12.43A36.5,36.5,0,0,0,2715.87,1742.12Z"/><path class="cls-6" d="M2658.42,1687a70.32,70.32,0,0,0-13.18-2.52,76.56,76.56,0,0,0-13.1-.13c-8.49.63-16.41,2.68-22.37,5.75a39.14,39.14,0,0,0-13.11,11.32,70.59,70.59,0,0,0-8.63,15.4c-1.85,4.35-3.35,9.39-1.45,14.17,10.42-7.59,23.3-10.75,36.09-12.36,11.58-1.42,24-.64,34.17,5.53l8.09-26.73C2662.08,1691.33,2665.24,1687.76,2658.42,1687Z"/><path class="cls-7" d="M2679.25,1700.69a37.46,37.46,0,0,0-2.77-3.51,36.52,36.52,0,0,0-3.13-3.21c-4.42-4-9.64-6.78-14.93-7-8.94,21.29-22,36.13-35.66,45.34a82.32,82.32,0,0,1-19.89,9.93,62.26,62.26,0,0,1-16.06,3.29,3.4,3.4,0,0,0-3.19,3.82,59.33,59.33,0,0,0,1.25,9.74,54.8,54.8,0,0,0,3.59,10.4c4.21,9.64,12.71,18.57,22.51,20.33,7.4-.29,16.11-3.56,24.73-8.81a116.58,116.58,0,0,0,24.73-20.68,107.19,107.19,0,0,0,18-26.21,58.22,58.22,0,0,0,4.49-13.29,34.81,34.81,0,0,0,.34-12.63A36,36,0,0,0,2679.25,1700.69Z"/><path class="cls-6" d="M2628.62,1638.63a74.18,74.18,0,0,0-25.53-5.6,65.2,65.2,0,0,0-22.86,2.74c-11.3,3.5-19.38,13.3-25.19,23.57-2.36,4.13-4.47,9.05-3.12,14.09,11.29-6.24,24.45-7.72,37.37-7.77,11.67,0,23.94,2.24,33.27,9.59l11.21-25.58C2631.69,1643.28,2635.28,1640.13,2628.62,1638.63Z"/><path class="cls-7" d="M2628.62,1638.63a116.44,116.44,0,0,1-19.27,25,91.06,91.06,0,0,1-21.61,15.67,81.46,81.46,0,0,1-20.94,7.49,61.86,61.86,0,0,1-16.36,1.29,3.4,3.4,0,0,0-3.63,3.42,51.84,51.84,0,0,0,2.46,20.67c3,10.1,10.42,19.92,19.89,22.82,7.4.58,16.37-1.58,25.6-5.77a116.61,116.61,0,0,0,27.08-17.5,106.18,106.18,0,0,0,21.07-23.87c5.21-8.43,8.25-17,7.83-25.24C2648,1652,2639,1640.2,2628.62,1638.63Z"/><path class="cls-6" d="M2948.07,1849.43a71.6,71.6,0,0,0-8.91,9.73,79.13,79.13,0,0,0-7,10.84,74,74,0,0,0-5,11.26,50.73,50.73,0,0,0-2.49,10.59,38.75,38.75,0,0,0,2.15,17.21,68.07,68.07,0,0,0,8.17,15.65,30.42,30.42,0,0,0,4.71,5.62,13.86,13.86,0,0,0,6.56,3.3,58.78,58.78,0,0,1,2.24-19,90.68,90.68,0,0,1,3.05-9.14c1.17-3,2.46-6,3.84-8.9a69.72,69.72,0,0,1,9.24-14.95,53.49,53.49,0,0,1,6.08-6.24,35.89,35.89,0,0,1,7.2-4.81l-18-21.07C2953.44,1848.66,2952.19,1844.17,2948.07,1849.43Z"/><path class="cls-7" d="M2997.38,1857.37a60.6,60.6,0,0,0-8.9-10.73,33.34,33.34,0,0,0-10.35-6.91,36.26,36.26,0,0,0-8.28-.58,32.76,32.76,0,0,0-4.29.49c-.71.13-1.42.28-2.12.45s-1.39.31-2.08.5c-5.47,1.52-10.42,4.58-13.29,8.84,1.57,2.39,3,4.81,4.4,7.18s2.63,4.69,3.79,7a109.36,109.36,0,0,1,5.79,13.94,93.72,93.72,0,0,1,4.91,26.28,79.82,79.82,0,0,1-2.18,22.08,60.85,60.85,0,0,1-5.91,15.35,3.35,3.35,0,0,0,1.55,4.73,67.54,67.54,0,0,0,9.11,4.16,56.57,56.57,0,0,0,10.93,2.4,43.51,43.51,0,0,0,8.17.39,42.75,42.75,0,0,0,8.07-1.33,32.47,32.47,0,0,0,7.35-2.91,24.23,24.23,0,0,0,5.89-4.76c3.62-6.5,5.35-15.57,5.33-25.66a116.79,116.79,0,0,0-4.89-31.87A109.39,109.39,0,0,0,2997.38,1857.37Z"/><path class="cls-6" d="M2904,1847.75c-1-.65-1.78-1.28-2.52-1.71-1.5-.84-2.82-.86-5.28,1.48-1.83,1.24-3.59,2.46-5.31,3.81s-3.36,2.78-5,4.29-3.12,3.08-4.58,4.71-2.84,3.21-4.14,4.88c-5.19,6.66-9.11,13.84-11,20.3a38.42,38.42,0,0,0-.73,17.29,67.48,67.48,0,0,0,5.51,16.87c2,4.26,4.81,8.79,9.77,10.66a58.58,58.58,0,0,1,5.3-18.36,112.08,112.08,0,0,1,9.73-16.77,77.12,77.12,0,0,1,5.34-6.94,63.81,63.81,0,0,1,6.15-6.36,45.6,45.6,0,0,1,6.94-5.14,37.51,37.51,0,0,1,7.82-3.75l-14.36-23.52A12.08,12.08,0,0,1,2904,1847.75Z"/><path class="cls-7" d="M2943.13,1862.85a69.42,69.42,0,0,0-3.34-6.31,52.35,52.35,0,0,0-3.8-5.64,38.61,38.61,0,0,0-4.26-4.69,35.91,35.91,0,0,0-4.78-3.64,29.2,29.2,0,0,0-7.95-1.81c-1.4-.1-2.81-.2-4.22-.2a31.38,31.38,0,0,0-4.22.28,28.16,28.16,0,0,0-4.1.86,25.4,25.4,0,0,0-3.83,1.31,18.41,18.41,0,0,0-6.4,4.51,126,126,0,0,1,9.22,30,93.7,93.7,0,0,1,.74,26.67,79.68,79.68,0,0,1-5.65,21.51,66.24,66.24,0,0,1-4.11,8.18,50.18,50.18,0,0,1-4.22,6,3.37,3.37,0,0,0,.79,4.95c1.53,1.18,2.93,2.16,4.31,3.05s2.73,1.69,4.17,2.43,3,1.45,4.69,2.15c.86.34,1.78.69,2.76,1s2,.64,3.15,1c10.46,3.11,23.21,2.32,31-4.11,4.61-5.94,7.66-14.69,9.08-24.69a115.94,115.94,0,0,0-.33-32.23A111.47,111.47,0,0,0,2943.13,1862.85Z"/><path class="cls-6" d="M2849,1835.81c-1.33-1.09-2.62-1.33-5.45.53a68.59,68.59,0,0,0-11.57,6.12,85.63,85.63,0,0,0-10.31,7.82,75.83,75.83,0,0,0-8.5,8.88,50.35,50.35,0,0,0-6,9.11,38.52,38.52,0,0,0-3.85,16.91,67.69,67.69,0,0,0,2.42,17.54c1.17,4.67,3.16,9.54,7.73,12.26a58.17,58.17,0,0,1,8.52-17.08,114.58,114.58,0,0,1,12.61-14.74,81,81,0,0,1,6.51-5.89,68.35,68.35,0,0,1,7.18-5.13,45.84,45.84,0,0,1,7.75-3.85,37.65,37.65,0,0,1,8.34-2.3l-9.92-25.67C2851.63,1838.91,2850.32,1836.88,2849,1835.81Z"/><path class="cls-7" d="M2884.61,1852.78c-.41-1.08-.85-2.12-1.31-3.14s-.93-2-1.44-3a33.43,33.43,0,0,0-7.36-9.76,29.1,29.1,0,0,0-7.43-3.17c-1.35-.34-2.71-.69-4.09-.94a32.58,32.58,0,0,0-4.18-.46,33.84,33.84,0,0,0-4.16.11,23.13,23.13,0,0,0-4,.61,18.8,18.8,0,0,0-7.09,3.32,132.24,132.24,0,0,1,2.89,16.07q.45,3.91.65,7.71c.13,2.5.18,5,.15,7.37a93.53,93.53,0,0,1-4,26.37,79.14,79.14,0,0,1-9.4,20.17,57.43,57.43,0,0,1-10.78,12.46,3.35,3.35,0,0,0-.09,5,54.86,54.86,0,0,0,7.43,7,51.17,51.17,0,0,0,4.28,2.94c.8.5,1.65,1,2.56,1.52s1.91,1,3,1.51a42.43,42.43,0,0,0,16.18,4.43,35.27,35.27,0,0,0,8.13-.4,24.11,24.11,0,0,0,7.3-2.63c5.62-5,10.13-13.06,13.23-22.75a121.55,121.55,0,0,0,1.75-63.48A68.74,68.74,0,0,0,2884.61,1852.78Z"/><path class="cls-6" d="M2799,1816.24c-1.11-1.34-2.35-1.84-5.47-.55a65.42,65.42,0,0,0-6.38,1.73q-3.14,1-6.18,2.22a85.84,85.84,0,0,0-11.6,5.9c-7.23,4.4-13.41,9.75-17.4,15.16a38.31,38.31,0,0,0-6.7,16,66.55,66.55,0,0,0-.7,17.72c.39,4.7,1.39,10,5.42,13.43,5.77-11.53,15.88-20.21,26.43-27.54a70.33,70.33,0,0,1,15.48-8.38,48.55,48.55,0,0,1,8.38-2.45,42.58,42.58,0,0,1,8.62-.7l-5.22-27.11C2801.08,1819.67,2800.08,1817.54,2799,1816.24Z"/><path class="cls-7" d="M2831.16,1839.42a53.37,53.37,0,0,0-1.58-6.59,36.11,36.11,0,0,0-5.51-10.95,35.45,35.45,0,0,0-14.75-7.32,26.85,26.85,0,0,0-8.23-.78,19,19,0,0,0-7.6,1.91,124.67,124.67,0,0,1-1.85,31.38,93.82,93.82,0,0,1-8.68,25.28,78.81,78.81,0,0,1-12.85,18.11,59.49,59.49,0,0,1-12.84,10.36,3.33,3.33,0,0,0-1,4.89,69.23,69.23,0,0,0,6,8.2,66.06,66.06,0,0,0,8.59,7.61,44.43,44.43,0,0,0,15.12,7.3,35.69,35.69,0,0,0,8.12,1,22.85,22.85,0,0,0,7.66-1.21c6.46-4,12.38-11.1,17.16-20a121.62,121.62,0,0,0,13.12-62.13C2831.89,1844.05,2831.57,1841.72,2831.16,1839.42Z"/><path class="cls-6" d="M3207,1797.49c-12.75,14.44-17.45,33.68-15.51,47,1.7,11.69,9.47,21.44,17.63,29.53,3.29,3.26,7.25,6.51,12,6.54-3.2-12.48-1.69-25.59,1.83-38,3.16-11.19,9.2-22.44,19.88-29l-22.3-18.27C3213.05,1795.6,3210.76,1791.33,3207,1797.49Z"/><path class="cls-7" d="M3263.3,1798.65c-6.18-7.93-13.78-13.76-22.67-16a45.12,45.12,0,0,0-19.61,3.41c-6.24,2.58-11.56,6.46-14.05,11.38,17.81,16,25.63,34.3,28.5,50.46s.73,30.25-1.76,38.11a3.62,3.62,0,0,0,2.15,4.47c6.42,2.62,10.26,3.81,18.34,4.26,9.35.56,19.55-2.51,25-10.07,5.65-13,4.92-36.29-1.65-57.47C3274.27,1816.67,3269.48,1806.59,3263.3,1798.65Z"/><path class="cls-6" d="M3148,1811.52c-12.47,14.58-16.92,33.88-14.83,47.15,1.84,11.66,9.72,21.32,18,29.3,3.34,3.21,7.35,6.41,12.13,6.38-3.37-12.44-2-25.56,1.29-38,3-11.25,8.85-22.54,19.36-29.31l-22.52-17.91C3154,1809.54,3151.61,1805.29,3148,1811.52Z"/><path class="cls-7" d="M3181.14,1796.22c-12.31-.59-28.4,5.4-33.18,15.3,17.95,15.78,26.1,33.91,29.21,50s1.22,30.23-1.17,38.14a3.61,3.61,0,0,0,2.22,4.43c6.49,2.51,10.37,3.64,18.5,4,9.42.34,19.63-2.9,25-10.57,5.43-13.21,4.18-36.43-2.85-57.46S3198.92,1800.31,3181.14,1796.22Z"/><path class="cls-6" d="M3086.72,1826.84c-12.29,14.66-16.58,34-14.4,47.25,1.92,11.65,9.87,21.24,18.23,29.15,3.37,3.19,7.42,6.35,12.22,6.28-3.49-12.41-2.24-25.53.95-38,2.88-11.28,8.6-22.63,19-29.5l-22.66-17.68C3092.66,1824.79,3090.29,1820.59,3086.72,1826.84Z"/><path class="cls-7" d="M3119.56,1811.21c-12.24-.43-28.2,5.67-32.84,15.63,18,15.61,26.38,33.65,29.66,49.72s1.53,30.23-.8,38.16a3.59,3.59,0,0,0,2.27,4.4c6.53,2.44,10.44,3.54,18.61,3.75,9.48.24,19.71-3.19,25-10.92C3172,1885.42,3155,1819,3119.56,1811.21Z"/><path class="cls-6" d="M3031,1839.06c-1.85-.25-3.12.18-4.7,3.23a66.91,66.91,0,0,0-7,11.42,75.92,75.92,0,0,0-4.83,12.1c-2.47,8.16-3.44,16.29-2.75,23,1.17,11.76,8.55,21.74,17.05,29.92a29,29,0,0,0,5.73,4.51,13.84,13.84,0,0,0,7,1.91c-3.33-12.47-1.61-25.61,1.5-38.07,2.83-11.3,8.48-22.68,18.81-29.6l-22.71-17.56C3035.4,1840.17,3033,1839.26,3031,1839.06Z"/><path class="cls-7" d="M3058.42,1826.73a44.9,44.9,0,0,0-19.16,4,35,35,0,0,0-8.15,5,16.87,16.87,0,0,0-2.85,3.07,17,17,0,0,0-2,3.44q3.1,3,5.88,6.12c.91,1,1.87,2,2.78,3.06s1.8,2,2.64,3.08a88,88,0,0,1,8.64,12.55,86.42,86.42,0,0,1,9.44,25c3.38,16.06,1.69,30.21-.61,38.16a3.59,3.59,0,0,0,2.29,4.4c6.57,2.39,10.49,3.46,18.7,3.62,9.51.18,19.77-3.36,25-11.13C3111.49,1900.52,3093.77,1834.24,3058.42,1826.73Z"/><path class="cls-6" d="M3486.93,1759a63.19,63.19,0,0,0-17.87,21.2,52.89,52.89,0,0,0-6.13,22.42c-.21,11.85,5.87,22.57,12.38,32,2.64,3.8,5.87,7.7,10.42,8.59a60.89,60.89,0,0,1,1.82-19,86.59,86.59,0,0,1,6.84-18,57.76,57.76,0,0,1,10.21-14.52,38.53,38.53,0,0,1,15.4-9.9l-18.76-22.4C3493.54,1758.23,3492,1753.51,3486.93,1759Z"/><path class="cls-7" d="M3544,1771.79a48,48,0,0,0-8.08-12.28,36.58,36.58,0,0,0-11.32-8.35,46.49,46.49,0,0,0-10.22-1.57,53.22,53.22,0,0,0-10.71.86c-7,1.33-13.24,4-16.7,8.51a86.48,86.48,0,0,1,9.36,14.31,82.84,82.84,0,0,1,5.81,14.18,84.2,84.2,0,0,1,3.53,26.48c-.43,16.41-5.15,29.81-8.91,37a3.72,3.72,0,0,0,1.21,4.8c5.55,3.83,8.91,5.75,16.33,7.78a30.67,30.67,0,0,0,13.32,1.06,24.2,24.2,0,0,0,6.37-1.87,20.5,20.5,0,0,0,5.56-3.54c8.07-11.34,13-34.14,11.74-56.25C3550.59,1791.89,3548.3,1781,3544,1771.79Z"/><path class="cls-6" d="M3424.09,1763.59a61.85,61.85,0,0,0-16.38,22.25,53.13,53.13,0,0,0-4.81,22.68c.45,11.8,7.13,22.34,14.21,31.28,2.87,3.63,6.36,7.22,11,7.9-1.69-12.79,1.31-25.54,6.36-37.45a59,59,0,0,1,9.2-15.25,40,40,0,0,1,14.6-10.84L3438.21,1763C3430.55,1762.44,3428.75,1757.94,3424.09,1763.59Z"/><path class="cls-7" d="M3481.23,1772.5a50,50,0,0,0-8.88-11.63,38.75,38.75,0,0,0-5.52-4.42,33.33,33.33,0,0,0-6.22-3.15,48.73,48.73,0,0,0-20.65.68c-6.75,1.81-12.7,5-15.87,9.61,16.12,18.09,21.35,37.17,22.07,53.58s-3.18,30.13-6.52,37.62a3.68,3.68,0,0,0,1.53,4.7,58.84,58.84,0,0,0,7.85,4,50.76,50.76,0,0,0,9.16,2.73,31.64,31.64,0,0,0,13.56,0,22.2,22.2,0,0,0,11.64-6.19c7.3-12,10.45-35.14,7.44-57.07C3489.31,1792,3486.21,1781.31,3481.23,1772.5Z"/><path class="cls-6" d="M3359.51,1772a63.77,63.77,0,0,0-15.13,22.94,53.91,53.91,0,0,0-3.73,22.92c1,11.8,8.1,21.91,15.65,30.57,3,3.49,6.72,7,11.41,7.41-2.32-12.69.07-25.62,4.49-37.81,4-11,10.94-21.59,22.23-27.34l-21-20C3365.79,1770.45,3363.82,1766.12,3359.51,1772Z"/><path class="cls-7" d="M3416.46,1777.7c-5.46-8.46-12.63-14.94-21.51-17.91a46.89,46.89,0,0,0-20.27,1.86,35.08,35.08,0,0,0-9,4.15,20.79,20.79,0,0,0-6.19,6.21,92.34,92.34,0,0,1,10.74,13.12,84.72,84.72,0,0,1,14,39.3c1.55,16.34-1.58,30.2-4.56,37.81a3.65,3.65,0,0,0,1.78,4.62c6.08,3.15,9.73,4.67,17.54,5.79a36.18,36.18,0,0,0,6.91.3,29.92,29.92,0,0,0,6.81-1,22.82,22.82,0,0,0,11.4-7c3.34-6.29,5.37-15.09,6.05-25.18a122.13,122.13,0,0,0-2.24-32.16C3425.73,1796.71,3421.94,1786.16,3416.46,1777.7Z"/><path class="cls-6" d="M3296,1783.11a63.38,63.38,0,0,0-14.16,23.48,54,54,0,0,0-3,23c1.35,11.73,8.82,21.71,16.68,30,3.17,3.37,7,6.7,11.72,6.94-2.78-12.59-.84-25.58,3.11-37.88,3.56-11.08,10-22.16,21-28.21l-21.69-19.14C3302.22,1781.42,3300.07,1777.09,3296,1783.11Z"/><path class="cls-7" d="M3352.69,1786.49a51.12,51.12,0,0,0-9.94-10.64,35.54,35.54,0,0,0-12.18-6.29,46.28,46.28,0,0,0-20,2.63c-6.4,2.37-11.9,6.1-14.59,10.92,17.35,16.64,24.43,35.15,26.68,51.41s-.38,30.28-3.1,38a3.63,3.63,0,0,0,2,4.54,49.57,49.57,0,0,0,17.94,5c9.19,1,19.35-1.76,25-8.91,6.12-12.73,6.55-36,1-57.49C3362.81,1805,3358.54,1794.73,3352.69,1786.49Z"/><path class="cls-6" d="M3775.08,1810.24a61.07,61.07,0,0,0-7.1,1.9,58,58,0,0,0-6.66,2.79,62.38,62.38,0,0,0-11.54,7.29,51.15,51.15,0,0,0-14.65,18c-4.9,10.73-3.7,23.19-1.62,34.33a30.93,30.93,0,0,0,1.88,6.66,13,13,0,0,0,4,5.31c4.46-12.11,13-22,23-30.13a57.74,57.74,0,0,1,15.42-9.07,40.33,40.33,0,0,1,18.16-2.38l-7.8-28.36C3781.53,1812.35,3782,1807.5,3775.08,1810.24Z"/><path class="cls-7" d="M3817.17,1824.93a31.59,31.59,0,0,0-4-5.85,51.64,51.64,0,0,0-19-9.62c-7-1.69-14-1.73-19.08.78,6.2,23.76,1.61,42.94-5.59,57.74s-17.12,25-23.48,30.1a3.74,3.74,0,0,0-.9,4.84,58.74,58.74,0,0,0,4.79,7.11,47.8,47.8,0,0,0,6.49,6.72,30.29,30.29,0,0,0,11.54,6.36,21.49,21.49,0,0,0,13,.22c6.09-3.45,12.65-9.84,18.75-17.91a122.78,122.78,0,0,0,15.82-28.11c4.1-10.27,6.64-21.07,6.58-31.22a49.11,49.11,0,0,0-2.14-14.55A39.84,39.84,0,0,0,3817.17,1824.93Z"/><path class="cls-6" d="M3723.38,1791.13c-1.11-.88-2-1.71-2.85-2.31-1.73-1.21-3.41-1.57-6.72.17a59.35,59.35,0,0,0-24,14.4,51.82,51.82,0,0,0-12.78,19.44c-3.78,11.18-1.33,23.39,1.86,34.19,1.3,4.36,3.07,9.17,7,11.44,3.23-12.49,10.7-23.24,19.95-32.39a53.7,53.7,0,0,1,14.4-10.42,41.09,41.09,0,0,1,17.92-4.3L3727.56,1794A23,23,0,0,1,3723.38,1791.13Z"/><path class="cls-7" d="M3752.69,1794.09a35.19,35.19,0,0,0-4.39-2.69,52.59,52.59,0,0,0-4.94-2.16,54.74,54.74,0,0,0-10.61-2.85c-7.12-1.24-14.16-.42-18.94,2.6a86.27,86.27,0,0,1,4.48,16.51,79.72,79.72,0,0,1,.94,15.35,83.2,83.2,0,0,1-5.3,26.21,95.11,95.11,0,0,1-10.15,19.69,80.39,80.39,0,0,1-10.16,12.43,3.74,3.74,0,0,0-.42,4.9c3.87,5.42,6.31,8.36,12.44,12.67a33.17,33.17,0,0,0,11.93,5.29,21.63,21.63,0,0,0,12.88-1.21c5.69-4,11.58-10.87,16.9-19.44a123.67,123.67,0,0,0,13.18-29.43c3.14-10.63,4.71-21.67,3.73-31.86S3759.61,1800.92,3752.69,1794.09Z"/><path class="cls-6" d="M3654.45,1772.57c-1.84-1-3.54-1.18-6.64.9a61.67,61.67,0,0,0-12.5,7.42,56.85,56.85,0,0,0-9.76,9.44,52.1,52.1,0,0,0-10.66,20.69c-2.61,11.54,1.12,23.35,5.42,33.82,1.74,4.28,4,8.79,8.16,10.63,1.89-12.76,8.18-24.26,16.4-34.37a56,56,0,0,1,13.18-11.84,43.6,43.6,0,0,1,8.18-4.06,33.83,33.83,0,0,1,9.16-2.08L3662,1777C3658.26,1775.57,3656.29,1773.6,3654.45,1772.57Z"/><path class="cls-7" d="M3699.19,1791.86a42.67,42.67,0,0,0-3-6.57,37,37,0,0,0-9.23-10.84,42.47,42.47,0,0,0-4.65-2.2c-.81-.34-1.65-.65-2.5-1s-1.73-.52-2.62-.74a54.87,54.87,0,0,0-10.85-1.66,39.58,39.58,0,0,0-10.3.76,21.26,21.26,0,0,0-8.21,3.81,81,81,0,0,1,8.72,31.14,83.27,83.27,0,0,1-2.48,26.61c-4.12,15.89-11.63,27.9-16.78,34.1a3.81,3.81,0,0,0,.1,5c4.41,5,7.15,7.59,13.7,11.19a38.2,38.2,0,0,0,6,2.69,27.64,27.64,0,0,0,6.39,1.33A22.79,22.79,0,0,0,3676,1883c5.21-4.55,10.35-12.06,14.74-21.15a123.67,123.67,0,0,0,10-30.64c2-10.9,2.43-22,.37-32A54.06,54.06,0,0,0,3699.19,1791.86Z"/><path class="cls-6" d="M3581,1764.92a62.17,62.17,0,0,0-20.36,19,52.65,52.65,0,0,0-8.59,21.64,40.9,40.9,0,0,0,1.78,17.21,69.67,69.67,0,0,0,3.07,8.16c1.18,2.66,2.47,5.3,3.81,7.82,2.15,4.07,4.87,8.33,9.2,9.73a61.7,61.7,0,0,1,4-18.67,79.51,79.51,0,0,1,4-8.8c.75-1.43,1.54-2.85,2.37-4.24s1.68-2.74,2.57-4.07a56.54,56.54,0,0,1,11.89-13.16,38,38,0,0,1,16.55-7.87l-15.93-24.6C3587.68,1765,3586.67,1760.09,3581,1764.92Z"/><path class="cls-7" d="M3629.94,1771.65a36.82,36.82,0,0,0-10.25-9.76,48.23,48.23,0,0,0-10.05-2.89,53.62,53.62,0,0,0-10.88-.49c-7.17.44-13.79,2.36-17.81,6.41a83.54,83.54,0,0,1,4.33,7.67q1.91,3.87,3.34,7.66a80.69,80.69,0,0,1,4.05,14.79,83.28,83.28,0,0,1,.23,26.7c-2.46,16.23-8.73,29-13.25,35.67a3.79,3.79,0,0,0,.6,4.91c4.93,4.48,7.95,6.77,14.87,9.7a29.13,29.13,0,0,0,12.77,2.73,23.69,23.69,0,0,0,6.42-1,19.52,19.52,0,0,0,5.87-2.75c4.71-5.09,9-13.12,12.44-22.63a124.14,124.14,0,0,0,6.74-31.54c.86-11,.08-22.13-3-31.84A48.59,48.59,0,0,0,3629.94,1771.65Z"/><path class="cls-6" d="M1683.31,1969.21c-3-3.55-6.81-7.16-11.76-7.61,2.09,12.73-.76,25.63-5.33,37.75-4.13,10.94-11,21.64-21.87,27.53l20.67,19.78c7.27.26,9.14,4.71,13.28-1.1,13.53-13.17,20.24-31.79,19.76-45.22C1697.64,1988.54,1690.87,1978,1683.31,1969.21Z"/><path class="cls-7" d="M1658.92,1955.1a3.49,3.49,0,0,0-1.85-4.61c-6.52-3-10.49-4.51-19-5.42-9.9-1.06-21.06,1.67-27.23,9.07-6.69,12.93-6.55,36.23-.5,57.56s17.8,40.68,34.6,46.09c11.84,1.53,27.77-2.9,33.39-12.23-16-17.52-22.65-36.2-24.33-52.53S1655.59,1962.78,1658.92,1955.1Z"/><path class="cls-6" d="M1733,1954.16c1.68,12.79-1.58,25.59-6.55,37.55-4.48,10.8-11.68,21.27-22.8,26.8l20,20.45c7.28.5,9,5,13.35-.67,14-12.73,21.28-31.13,21.22-44.57,0-11.81-6.48-22.52-13.76-31.58C1741.6,1958.49,1738,1954.76,1733,1954.16Z"/><path class="cls-7" d="M1720.63,1947.25a3.52,3.52,0,0,0-1.7-4.67c-6.42-3.27-10.33-4.85-18.81-6-9.84-1.4-21.06,1-27.46,8.12-7.12,12.68-7.81,36-2.53,57.51s16.38,41.3,33,47.25c11.82,1.94,27.95-2,33.89-11.12-15.42-18-21.49-36.92-22.63-53.3S1717.05,1954.81,1720.63,1947.25Z"/><path class="cls-6" d="M1797.52,1948.44c1.26,12.84-2.42,25.53-7.77,37.33-4.84,10.64-12.38,20.88-23.69,26l19.38,21.09c7.27.73,8.85,5.29,13.37-.24,14.4-12.26,22.29-30.42,22.68-43.85.34-11.8-5.74-22.73-12.73-32C1806,1953.05,1802.43,1949.21,1797.52,1948.44Z"/><path class="cls-7" d="M1785.35,1941.14a3.52,3.52,0,0,0-1.55-4.73c-6.3-3.47-10.16-5.18-18.6-6.66-9.78-1.72-21,.26-27.68,7.21-7.53,12.44-9,35.7-4.46,57.39s15,41.83,31.48,48.33c11.78,2.32,28-1.07,34.27-10-14.82-18.51-20.28-37.59-20.88-54S1781.52,1948.57,1785.35,1941.14Z"/><path class="cls-6" d="M1862.37,1944.91c.79,12.87-3.38,25.41-9.15,37-5.22,10.47-13.09,20.44-24.55,25.22l18.62,21.74c7.2,1,8.6,5.59,13.29.24,14.71-11.75,23.15-29.51,24.2-42.9,1-11.78-4.71-23-11.39-32.54C1870.7,1949.83,1867.29,1945.86,1862.37,1944.91Z"/><path class="cls-7" d="M1850.39,1937.17a3.49,3.49,0,0,0-1.39-4.77c-6.22-3.7-10-5.54-18.45-7.3-9.76-2-21.11-.43-28,6.3-7.94,12.19-10.18,35.39-6.34,57.21s13.64,42.29,29.89,49.34c11.68,2.7,28-.12,34.45-8.83-14.06-19-18.91-38.28-18.94-54.71S1846.28,1944.47,1850.39,1937.17Z"/><path class="cls-6" d="M1419.76,2039.49a74.39,74.39,0,0,0-12.9-12c-3.75-2.82-8.24-5.53-13.28-4.88,4.79,12,4.7,25.21,2.94,38-1.61,11.57-5.77,23.49-14.71,31.71l24.22,14.62c6.93-1.28,9.65,2.65,12.29-3.85,9.88-15.61,12.63-35.16,9.44-48.22A39.24,39.24,0,0,0,1419.76,2039.49Z"/><path class="cls-7" d="M1383.15,2057.2c-5.4-15.49-5.24-29.87-3.57-38.12a3.45,3.45,0,0,0-2.86-4.07,58.83,58.83,0,0,0-9.58-1.35,54.47,54.47,0,0,0-10.78.65c-10.23,1.42-20.9,7-25.24,15.91-1.73,7.17-1,16.41,1.54,26.18a116.22,116.22,0,0,0,12.79,29.59c5.73,9.5,12.67,18.17,20.22,24.63a55.58,55.58,0,0,0,11.77,7.91,34.9,34.9,0,0,0,12.45,3.61,38.18,38.18,0,0,0,8.76-2,44.11,44.11,0,0,0,8.47-4.1c5.27-3.33,9.58-7.79,11.2-12.92C1399.37,2089.32,1388.51,2072.74,1383.15,2057.2Z"/><path class="cls-6" d="M1466.27,2008.46c-3.55-3-7.86-6-12.89-5.71,4,12.27,3.11,25.44.49,38.14-2.37,11.44-7.37,23.08-17,30.66l23.34,16.22c7.09-.84,9.57,3.25,12.69-3.08,11.06-15,15-34.38,12.56-47.6C1483.35,2025.47,1475.13,2016.06,1466.27,2008.46Z"/><path class="cls-7" d="M1440.76,2036.59c-4.32-15.83-3.21-30.15-1-38.26a3.47,3.47,0,0,0-2.58-4.26,60.72,60.72,0,0,0-9.38-2,54.82,54.82,0,0,0-10.67-.14c-10.18.66-21,5.39-26,13.84-4.52,14-.06,36.89,9.82,56.74,4.93,9.94,11.15,19.12,18.23,26.16s15,11.93,23.54,13.24c11.6-.4,26.18-7.16,30.2-17.2C1454.71,2069.76,1445,2052.46,1440.76,2036.59Z"/><path class="cls-6" d="M1529.19,1992.21c-3.39-3.25-7.51-6.44-12.52-6.41,3.33,12.46,1.74,25.6-1.59,38.1-3,11.31-8.7,22.64-18.83,29.65l22.48,17.53c7.19-.45,9.47,3.77,13-2.4,12-14.41,16.92-33.56,15.18-46.89C1545.35,2010.08,1537.62,2000.25,1529.19,1992.21Z"/><path class="cls-7" d="M1502.23,2018.88c-3.39-16.07-1.48-30.27,1.11-38.25a3.48,3.48,0,0,0-2.32-4.4,50.73,50.73,0,0,0-19.74-3.36c-10.11,0-21.12,4-26.52,12.12-5.33,13.65-2.44,36.8,6.06,57.26,4.25,10.25,9.85,19.81,16.5,27.31s14.31,12.84,22.86,14.65c11.75.27,26.91-5.71,31.52-15.53C1514.22,2052.81,1505.59,2035,1502.23,2018.88Z"/><path class="cls-6" d="M1592.64,1979c-3.23-3.38-7.2-6.78-12.2-7,2.78,12.6.6,25.63-3.31,38-3.53,11.15-9.77,22.21-20.29,28.73l21.71,18.58c7.24-.15,9.35,4.21,13.15-1.82,12.74-13.87,18.5-32.8,17.32-46.19C1608,1997.58,1600.69,1987.43,1592.64,1979Z"/><path class="cls-7" d="M1567.42,1966.26a3.49,3.49,0,0,0-2.11-4.5,50.81,50.81,0,0,0-19.45-4.32c-10-.49-21.13,3-26.9,10.72-6,13.32-4.38,36.6,3,57.49,3.67,10.45,8.76,20.33,15,28.15s13.7,13.57,22.21,15.78c11.84.84,27.41-4.43,32.5-14-16.83-16.63-24.58-34.9-27.17-51.12S1564.48,1974.12,1567.42,1966.26Z"/><path class="cls-6" d="M1217.3,2231.09c-.54-2.06-1.22-4.14-1.89-6.16a94.51,94.51,0,0,0-5-11.84c-3.76-7.52-8.47-14.23-13.4-18.74a37.7,37.7,0,0,0-15.22-8.3,62.12,62.12,0,0,0-17.69-2.2,29.12,29.12,0,0,0-7.41.84,14.94,14.94,0,0,0-6.7,3.82,57.74,57.74,0,0,1,14.37,12.63,124.45,124.45,0,0,1,11.11,15.91,82.74,82.74,0,0,1,7.56,15.84c.47,1.37.87,2.75,1.22,4.13a41.52,41.52,0,0,1,.92,4.17c.24,1.4.39,2.78.49,4.18a35,35,0,0,1,.08,4.22l26.82-3.32c2-2.24,4.12-3,5.41-3.89s1.86-2,.69-5.09C1218.27,2235.21,1217.84,2233.16,1217.3,2231.09Z"/><path class="cls-7" d="M1210.45,2236.72c-2.69-.24-5.3-.53-7.88-.89a137.8,137.8,0,0,1-14.76-2.88A97.31,97.31,0,0,1,1163,2223a74.38,74.38,0,0,1-17.44-13.83,54.44,54.44,0,0,1-9.43-13.7c-.85-1.83-2.93-2.36-4.87-1.2a58.56,58.56,0,0,0-8.8,6.16,61.42,61.42,0,0,0-8.37,9,53.1,53.1,0,0,0-4.85,7.68,49.42,49.42,0,0,0-3.31,8.54,38.19,38.19,0,0,0-1.3,8.72,25.77,25.77,0,0,0,1.11,8.16,35.84,35.84,0,0,0,8.15,9.47,62.71,62.71,0,0,0,12,7.86,111.92,111.92,0,0,0,30.67,9.92,131.49,131.49,0,0,0,31.67,2,73.69,73.69,0,0,0,13.47-2.1,41,41,0,0,0,5.7-1.95,26.72,26.72,0,0,0,5-2.64,30.18,30.18,0,0,0,7.09-13c1.25-4.94,1.34-10.23-.79-14.86C1215.9,2237.16,1213.15,2237,1210.45,2236.72Z"/><path class="cls-6" d="M1247,2172.48c-2-8.24-5.27-15.75-9.2-21.17a38.18,38.18,0,0,0-13.24-11.2,66.23,66.23,0,0,0-16.78-5.88c-4.65-1-10-1.58-14.59,1.37a57.46,57.46,0,0,1,11.25,15.44,114.94,114.94,0,0,1,7.27,18c3.59,11.17,5.35,23.39,2,34.34l27.23,2.79c2.58-1.82,4.84-2.14,6.41-2.79s2.38-1.67,2-5A82.83,82.83,0,0,0,1247,2172.48Z"/><path class="cls-7" d="M1220,2187.42a94.52,94.52,0,0,1-21.76-15.44,76.73,76.73,0,0,1-13.72-17.53,57.78,57.78,0,0,1-6.11-15.4,3.27,3.27,0,0,0-4.43-2.31,58.92,58.92,0,0,0-9.78,3.72,52.64,52.64,0,0,0-4.69,2.65c-1.64,1.06-3.38,2.32-5.35,3.83a44.67,44.67,0,0,0-6.44,6,42.31,42.31,0,0,0-5.2,7.25,34,34,0,0,0-3.37,8,27.51,27.51,0,0,0-.84,4,24.7,24.7,0,0,0-.15,4c2,7.45,7.49,15.1,15,21.92a111.74,111.74,0,0,0,27,17.65,125.78,125.78,0,0,0,30.09,10.11c2.41.45,4.74.78,7,1a54.2,54.2,0,0,0,6.65.28,44.91,44.91,0,0,0,6.13-.55,29.78,29.78,0,0,0,5.57-1.5,33.08,33.08,0,0,0,10.63-11.56,27.46,27.46,0,0,0,2.91-7.49,18.39,18.39,0,0,0,.27-7.74A132.37,132.37,0,0,1,1220,2187.42Z"/><path class="cls-6" d="M1292,2124.49a48.18,48.18,0,0,0-3.73-10.25,38.55,38.55,0,0,0-11.32-13.13,69.87,69.87,0,0,0-15.53-8.56c-4.37-1.77-9.54-3.3-14.4-1.25,7.65,10.4,10.73,23.28,12.4,36.13a71.55,71.55,0,0,1,.22,17.67,46.45,46.45,0,0,1-1.78,8.59,37.86,37.86,0,0,1-3.45,8l26.72,7.69c3-1.44,5.37-1.37,7.11-1.77s2.75-1.34,3.09-4.75a72.64,72.64,0,0,0,2.44-13.13,81,81,0,0,0,.14-13.11A70.15,70.15,0,0,0,1292,2124.49Z"/><path class="cls-7" d="M1264.06,2147.09a91.81,91.81,0,0,1-18.47-19.3,78.35,78.35,0,0,1-10.16-19.77,60.25,60.25,0,0,1-3.31-16.17,3.34,3.34,0,0,0-3.9-3.12,66.63,66.63,0,0,0-10,1.61,60.5,60.5,0,0,0-10.74,4.12c-10,4.76-19.25,14.16-20.88,24.39.45,7.61,4.06,16.23,9.76,24.57a112.91,112.91,0,0,0,22.12,23.46,115.2,115.2,0,0,0,27.11,16.61c9.13,3.83,17.82,5.6,25.64,4.18a36.85,36.85,0,0,0,13.58-9.91c3.79-4.37,6.47-9.57,6.57-14.85a126.24,126.24,0,0,1-14.77-7.35A107.78,107.78,0,0,1,1264.06,2147.09Z"/><path class="cls-6" d="M1319.51,2059.35c-4.1-2.33-9-4.45-14-3.1,6.26,11.27,7.77,24.44,7.69,37.39-.08,11.72-2.56,24-10,33.41l25.76,11.2c6.52-2.15,9.74,1.46,11.39-5.31,7.47-16.58,8-36.25,3.26-48.89C1339.5,2073,1329.74,2065.13,1319.51,2059.35Z"/><path class="cls-7" d="M1315.08,2113.77a89.58,89.58,0,0,1-15.61-21.66c-7.52-14.62-9.22-28.87-8.55-37.38a3.38,3.38,0,0,0-3.41-3.63c-7.52-.37-12-.2-20.83,2.45-10.26,3.07-20.43,10.57-23.51,20.23-.71,7.44,1.44,16.55,5.62,25.73a114.32,114.32,0,0,0,17.66,27,107.35,107.35,0,0,0,24,21c8.45,5.21,17,8.24,25.26,7.85a39.27,39.27,0,0,0,15.6-8.25,30.81,30.81,0,0,0,5.91-6.54,19.42,19.42,0,0,0,3.12-7.56,115.52,115.52,0,0,1-13.9-9.11A101.75,101.75,0,0,1,1315.08,2113.77Z"/><path class="cls-6" d="M1212.32,2461.17c0-1.61-.67-2.62-3.9-3.33a72.59,72.59,0,0,0-12.07-4.1,90.68,90.68,0,0,0-12.56-2.43c-8.45-1-16.5-.87-23,.74a38.08,38.08,0,0,0-15.4,8,63.13,63.13,0,0,0-11.62,13.5,27.26,27.26,0,0,0-3.42,6.64,15.11,15.11,0,0,0-.51,7.71,57.19,57.19,0,0,1,18.45-4.95,127.35,127.35,0,0,1,19.44-.45c2.91.12,5.79.4,8.73.79a67.5,67.5,0,0,1,8.63,1.67c1.39.37,2.76.78,4.09,1.26s2.7,1,4,1.52a38.84,38.84,0,0,1,3.76,1.89c1.21.69,2.34,1.47,3.52,2.26l12.11-24.15C1211.69,2465,1212.35,2462.77,1212.32,2461.17Z"/><path class="cls-7" d="M1225.54,2471.48a24.41,24.41,0,0,0-2-3.18,33.77,33.77,0,0,0-2.32-3,24.42,24.42,0,0,0-2.75-2.63,32.3,32.3,0,0,0-3-2.23,18.3,18.3,0,0,0-7-2.6c-3.25,4.44-6.65,8.65-10.13,12.56-1.76,2-3.49,3.81-5.23,5.58s-3.52,3.48-5.31,5.09a97.69,97.69,0,0,1-22,15.18,73.85,73.85,0,0,1-21.14,6.88,53.77,53.77,0,0,1-16.66.27c-2-.31-3.59,1.13-3.71,3.41a62.71,62.71,0,0,0,.31,10.76,40.46,40.46,0,0,0,1,5.48c.49,1.94,1.13,4.07,2,6.51.47,1.42,1,2.84,1.61,4.24s1.36,2.75,2.14,4.09a45.47,45.47,0,0,0,5.31,7.52,40.15,40.15,0,0,0,6.6,5.92,22.19,22.19,0,0,0,3.64,2.13,25.35,25.35,0,0,0,3.82,1.45,36.58,36.58,0,0,0,12.37-1.57,63,63,0,0,0,13.2-5.75,111.94,111.94,0,0,0,25.11-20.24,134,134,0,0,0,19-25.37,75.88,75.88,0,0,0,5.67-12.36,36.57,36.57,0,0,0,2.08-11.37,21.15,21.15,0,0,0-1-3.4A33.27,33.27,0,0,0,1225.54,2471.48Z"/><path class="cls-6" d="M1193.28,2410.87a63.67,63.67,0,0,0-5.32-3.78c-.92-.59-1.86-1.16-2.82-1.72s-1.86-1.11-2.81-1.63a81.69,81.69,0,0,0-11.83-5.33c-2-.72-4-1.36-6-1.9s-3.91-1-5.82-1.37a49.69,49.69,0,0,0-10.85-.93,38.31,38.31,0,0,0-16.71,4.72q-2,1-3.84,2.25c-1.24.8-2.44,1.66-3.63,2.56a81.3,81.3,0,0,0-6.76,5.82c-3.44,3.29-7,7.46-7,12.88a57.84,57.84,0,0,1,19.11-.72c3.19.37,6.38.93,9.53,1.62,1.58.34,3.15.72,4.7,1.13s3.16.83,4.73,1.27a73.81,73.81,0,0,1,16.29,6.64,47.6,47.6,0,0,1,7.24,4.8,37.25,37.25,0,0,1,3.15,2.86,35,35,0,0,1,2.94,3.15l17.49-21C1194.9,2415.87,1199.12,2414,1193.28,2410.87Z"/><path class="cls-7" d="M1206.89,2429.51a29.62,29.62,0,0,0-2.82-7.54,23,23,0,0,0-10.79-11.1c-2.11,1.89-4.28,3.72-6.38,5.42s-4.21,3.31-6.33,4.83a120,120,0,0,1-12.79,8,94.94,94.94,0,0,1-25,9.47,75.94,75.94,0,0,1-22.18,1.62,57.32,57.32,0,0,1-16.17-3.53,3.27,3.27,0,0,0-4.4,2.39,63.1,63.1,0,0,0-2.4,10.23,70.1,70.1,0,0,0-.2,12,46.9,46.9,0,0,0,1.5,8.74,38.92,38.92,0,0,0,3.13,8.4,38.22,38.22,0,0,0,4.73,7.25c.45.53.91,1.05,1.39,1.54s1,1,1.53,1.4A25.35,25.35,0,0,0,1113,2491c7.35,2.46,16.65,2.19,26.55-.29a111.65,111.65,0,0,0,29.65-12.69,134,134,0,0,0,13.5-9.22,113,113,0,0,0,11.6-10.22A71.56,71.56,0,0,0,1203,2448a39.4,39.4,0,0,0,3-5.39c.4-.9.74-1.79,1-2.69a26.3,26.3,0,0,0,.83-2.76,23.85,23.85,0,0,0-.18-3.76C1207.45,2432.08,1207.15,2430.83,1206.89,2429.51Z"/><path class="cls-6" d="M1187.39,2356.42a66.93,66.93,0,0,0-9.52-9.37c-1.75-1.41-3.5-2.74-5.28-4s-3.61-2.41-5.46-3.48c-7.39-4.28-15.08-7.08-21.75-7.91-11.73-1.51-23.12,3.51-33,10a27.22,27.22,0,0,0-5.63,4.66,14.31,14.31,0,0,0-3.46,6.58,58,58,0,0,1,18.92,2.63,86.82,86.82,0,0,1,9.07,3.27c3,1.25,6,2.63,8.88,4.09a70.2,70.2,0,0,1,14.73,9.71,47.41,47.41,0,0,1,6.16,6.28,36.33,36.33,0,0,1,2.54,3.54c.39.61.76,1.24,1.11,1.88s.73,1.28,1.07,1.93l21.32-17.79c.52-3.28,1.92-5.23,2.53-6.88S1190,2358.62,1187.39,2356.42Z"/><path class="cls-7" d="M1192.77,2362.33a20.81,20.81,0,0,0-5.38-5.91c-2.45,1.57-4.84,3-7.21,4.37s-4.75,2.58-7.13,3.72a109.28,109.28,0,0,1-14.08,5.63,92.31,92.31,0,0,1-26.33,4.49,78.91,78.91,0,0,1-22.07-2.66,60.21,60.21,0,0,1-15.2-6.33,3.34,3.34,0,0,0-4.77,1.48,62.24,62.24,0,0,0-4.33,9.22,66.93,66.93,0,0,0-2.58,11.24,40.78,40.78,0,0,0-.45,4.18c0,1.42,0,2.86,0,4.3a46,46,0,0,0,1.2,8.48,29.63,29.63,0,0,0,7.74,14.05,38.14,38.14,0,0,0,11.61,4.32,67.38,67.38,0,0,0,14.27,1.33,113.07,113.07,0,0,0,31.81-5.26,115.67,115.67,0,0,0,28.88-13.2,61.77,61.77,0,0,0,10.83-8.77,42.08,42.08,0,0,0,4-4.86,29.9,29.9,0,0,0,3-5.26,36.26,36.26,0,0,0-.66-16.73A27.63,27.63,0,0,0,1192.77,2362.33Z"/><path class="cls-6" d="M1188.43,2298.88c-.59-.86-1.22-1.72-1.86-2.56q-1.93-2.55-4.11-5a93.55,93.55,0,0,0-9.1-9c-6.3-5.52-13.16-10-19.45-12.36a36.88,36.88,0,0,0-17.21-2,53.51,53.51,0,0,0-8.78,1.75,71,71,0,0,0-8.49,3.06,29.17,29.17,0,0,0-6.56,3.71,15.47,15.47,0,0,0-4.77,6.24,57.1,57.1,0,0,1,18.12,6.2,126.36,126.36,0,0,1,16.35,10.53,82.56,82.56,0,0,1,13.06,11.85q1.44,1.65,2.71,3.38c.84,1.16,1.69,2.43,2.43,3.7a37.45,37.45,0,0,1,3.59,8.13l23.67-14.28c1-2.88,2.68-4.38,3.51-5.76s1-2.58-1.31-5C1189.65,2300.63,1189.05,2299.75,1188.43,2298.88Z"/><path class="cls-7" d="M1190.23,2301.51c-2.62,1-5.24,1.84-7.83,2.66s-5.09,1.58-7.61,2.25a138.18,138.18,0,0,1-14.74,3.09,95.81,95.81,0,0,1-26.69.43,74.29,74.29,0,0,1-21.42-6.09,53.89,53.89,0,0,1-14-9.1c-1.49-1.37-3.61-1.06-5,.79-1.19,1.65-2.28,3.16-3.21,4.64s-1.76,3-2.54,4.51c-.39.78-.77,1.58-1.14,2.43s-.75,1.76-1.07,2.57c-.67,1.69-1.32,3.59-2,5.8a40.86,40.86,0,0,0-1.79,16.26,34,34,0,0,0,1.68,7.83,25.37,25.37,0,0,0,1.53,3.54,24,24,0,0,0,2.1,3.21c5.83,4.78,14.5,8.09,24.46,9.78a114.27,114.27,0,0,0,32.24.51,107.69,107.69,0,0,0,30.8-8.11,66.23,66.23,0,0,0,6.4-3.3,51,51,0,0,0,5.73-3.83,34.17,34.17,0,0,0,8.5-9.34,33.32,33.32,0,0,0,2-8.46,37.8,37.8,0,0,0,.21-4.52,30,30,0,0,0-.26-4C1195.92,2309.91,1194,2305,1190.23,2301.51Z"/><path class="cls-6" d="M1390.26,2573.06a76.91,76.91,0,0,0-19,18.06c-5.12,6.82-8.86,14-10.55,20.54-3,11.41.47,23.47,5.76,34a29.07,29.07,0,0,0,3.93,6.18,13.87,13.87,0,0,0,6.09,4.27c1.09-12.85,7.25-24.61,14.42-35.36,6.51-9.73,15.19-18.66,26.35-22.5l-15-23.41C1395.8,2573.1,1395.2,2568.33,1390.26,2573.06Z"/><path class="cls-7" d="M1447.34,2618.31a121.51,121.51,0,0,0-9.07-30.41c-4.19-8.89-9.53-16-16.41-20.14a37.22,37.22,0,0,0-16.91-1.55c-5.75.81-11.16,2.93-14.69,6.85a119.06,119.06,0,0,1,10.06,29.88,91.87,91.87,0,0,1,1.16,26.69,79.67,79.67,0,0,1-5.36,21.56,60,60,0,0,1-8.12,14.34,3.35,3.35,0,0,0,.87,4.91,52.36,52.36,0,0,0,19.15,9.39c10.47,3,23.32,2.12,31.38-4.41,4.74-6,7.92-14.82,9.26-24.89.3-2.52.6-5.12.71-7.76a80.23,80.23,0,0,0-.06-8.05A146.24,146.24,0,0,0,1447.34,2618.31Z"/><path class="cls-6" d="M1338.23,2563.7a74.73,74.73,0,0,0-11.39,6.59,83.7,83.7,0,0,0-10,8.23c-6.13,5.86-11,12.34-13.83,18.46a38,38,0,0,0-3.2,17,56.7,56.7,0,0,0,1,8.85,83.69,83.69,0,0,0,2.21,8.65c1.41,4.6,3.62,9.46,8.36,12,3.14-12.52,11.17-23.13,19.93-32.63a74,74,0,0,1,13.36-11.54,50.73,50.73,0,0,1,7.71-4.16,40.33,40.33,0,0,1,8.37-2.54l-11.22-25.37C1343.57,2564.56,1343.74,2559.82,1338.23,2563.7Z"/><path class="cls-7" d="M1369.85,2563.18c-9.47-4.91-23.53-6-31.62.52a142.77,142.77,0,0,1,3.64,16,115.52,115.52,0,0,1,1.48,15,92.3,92.3,0,0,1-2.92,26.55,78.65,78.65,0,0,1-8.62,20.5,57.67,57.67,0,0,1-10.32,12.88,3.33,3.33,0,0,0,.12,5c5.56,5.42,9.17,8.29,17.8,12.27,10,4.58,22.84,5.57,31.51.32,5.43-5.22,9.72-13.43,12.57-23.16a114.36,114.36,0,0,0,4.26-32,109.47,109.47,0,0,0-4.39-31.51C1380.43,2576.15,1376.05,2568.28,1369.85,2563.18Z"/><path class="cls-6" d="M1295.33,2547.71c-.68-.93-1.19-1.77-1.74-2.4a2.85,2.85,0,0,0-1.94-1.14,6.45,6.45,0,0,0-3.36.79c-2.06.5-4.14,1.14-6.19,1.85s-4,1.47-6,2.33a97,97,0,0,0-11.43,5.93c-7.23,4.44-13.48,9.6-17.58,14.91a37.4,37.4,0,0,0-7,15.89,64.15,64.15,0,0,0-.64,17.86,29,29,0,0,0,1.51,7.29,14.48,14.48,0,0,0,4.37,6.38,57.27,57.27,0,0,1,11.4-15.38,122.32,122.32,0,0,1,15-12.34,82.09,82.09,0,0,1,7.43-4.75,66.25,66.25,0,0,1,7.93-3.91c1.35-.56,2.71-1.05,4.09-1.48a42.24,42.24,0,0,1,4.2-1.16,38,38,0,0,1,4.25-.7,39.2,39.2,0,0,1,4.34-.28l-5.78-26.86A12,12,0,0,1,1295.33,2547.71Z"/><path class="cls-7" d="M1318.2,2550.06a34.46,34.46,0,0,0-14.58-6.76,30.71,30.71,0,0,0-4-.52,22.64,22.64,0,0,0-3.95,0,20.29,20.29,0,0,0-3.82.72,16.62,16.62,0,0,0-3.54,1.43c.25,5.67.33,11,0,16.28a126.4,126.4,0,0,1-1.62,15,94.39,94.39,0,0,1-8.06,25.46,76.17,76.17,0,0,1-12.5,18.39,55.38,55.38,0,0,1-12.86,10.49c-1.75,1-2.12,3.1-.84,5a54.5,54.5,0,0,0,15.77,15.78,44.92,44.92,0,0,0,15.86,7,31.56,31.56,0,0,0,8.31.79,23.58,23.58,0,0,0,7.73-1.47,38.51,38.51,0,0,0,9-8.46,68.12,68.12,0,0,0,7.52-12.19,113.75,113.75,0,0,0,9.5-30.82,127.07,127.07,0,0,0,1.63-16.31,100.29,100.29,0,0,0-.62-15.48C1325.89,2564.57,1323.14,2556,1318.2,2550.06Z"/><path class="cls-6" d="M1246.12,2516.42c-1,0-2.11,0-3.18.1s-2.09.09-3.14.17q-3.16.24-6.38.74c-2.15.35-4.23.71-6.32,1.16s-4.15,1-6.18,1.54-4,1.23-6,1.93-3.76,1.43-5.54,2.22a52.26,52.26,0,0,0-9.47,5.38,37.2,37.2,0,0,0-11.1,13.36,60.8,60.8,0,0,0-5.38,17.1,36.64,36.64,0,0,0-.5,3.72,23,23,0,0,0,0,3.8,15.68,15.68,0,0,0,2.64,7.45c8.5-9.64,20.76-15.28,32.8-19.78,2.75-1,5.58-2,8.43-2.76a78.76,78.76,0,0,1,8.61-1.79,47.37,47.37,0,0,1,8.6-.56,36.58,36.58,0,0,1,8.49,1l1.29-27.17c-1.85-2.37-2.22-4.57-2.9-6S1249.35,2515.83,1246.12,2516.42Z"/><path class="cls-7" d="M1274.58,2533.3a29.68,29.68,0,0,0-1.84-5.46,31.63,31.63,0,0,0-11.85-9.5,24.37,24.37,0,0,0-7.31-2.24,18.6,18.6,0,0,0-7.46.32,159.61,159.61,0,0,1-9.76,29.65,95.94,95.94,0,0,1-14.11,22.64,73.22,73.22,0,0,1-16.74,14.69,54.78,54.78,0,0,1-15.25,6.76c-2,.51-2.86,2.46-2,4.6a59.65,59.65,0,0,0,4.61,9.84c.9,1.5,1.91,3,3.12,4.64.61.81,1.26,1.66,2,2.54s1.52,1.75,2.38,2.7a49,49,0,0,0,6.68,6.16,51.65,51.65,0,0,0,7.76,4.79,39.2,39.2,0,0,0,8.25,2.8,24.35,24.35,0,0,0,8.13.39c7.27-2.53,14.49-8.58,20.76-16.53a111.46,111.46,0,0,0,15.71-28.16,129.64,129.64,0,0,0,5-15.6,112.43,112.43,0,0,0,2.79-15.2,71,71,0,0,0,.19-13.77A37.71,37.71,0,0,0,1274.58,2533.3Z"/><path class="cls-7" d="M2911.66,2208c-295.22-100.76-328.9-397.29-328.9-539.52V1494.19H2452.12v137.44H1914V1494.19H1783.33v174.25c0,142.23-33.67,438.76-328.89,539.52-30.24,10.32-50.33,39-50.33,71v313.5a66.71,66.71,0,0,0,66.71,66.72H2895.27a66.72,66.72,0,0,0,66.72-66.72V2279C2962,2247,2941.89,2218.28,2911.66,2208Z"/><path class="cls-8" d="M2193.38,2313.79c-307.57,0-570.76-17.63-787.94-48.7a74.93,74.93,0,0,0-1.33,13.86v313.5a66.71,66.71,0,0,0,66.71,66.72H2895.27a66.72,66.72,0,0,0,66.72-66.72V2279a75.8,75.8,0,0,0-.83-11C2747.91,2297.25,2491.45,2313.79,2193.38,2313.79Z"/><path class="cls-7" d="M1404.11,2592.45a66.71,66.71,0,0,0,66.71,66.72H2895.27a66.72,66.72,0,0,0,66.72-66.72v-29.36H1404.11Z"/><path class="cls-5" d="M2183.05,1748.21c-191.6,0-346.92,155.32-346.92,346.92S1991.45,2442,2183.05,2442,2530,2286.72,2530,2095.13,2374.64,1748.21,2183.05,1748.21Zm0,439.26a92.35,92.35,0,1,1,92.34-92.34A92.35,92.35,0,0,1,2183.05,2187.47Z"/><path class="cls-4" d="M2183.05,1707.13c-191.6,0-346.92,155.32-346.92,346.92S1991.45,2401,2183.05,2401,2530,2245.65,2530,2054.05,2374.64,1707.13,2183.05,1707.13Zm0,439.26a92.34,92.34,0,1,1,92.34-92.34A92.35,92.35,0,0,1,2183.05,2146.39Z"/><path class="cls-8" d="M2341.53,1970.4a40.13,40.13,0,1,0,16.47-54.32A40.14,40.14,0,0,0,2341.53,1970.4Z"/><path class="cls-8" d="M2114.63,2220.88a40.14,40.14,0,1,0,21.75,52.43A40.15,40.15,0,0,0,2114.63,2220.88Z"/><circle class="cls-8" cx="2099.24" cy="1852.08" r="40.14" transform="translate(-637.19 1261.35) rotate(-29.24)"/><path class="cls-8" d="M2200.86,1876.39a40.13,40.13,0,1,0-36-43.88A40.13,40.13,0,0,0,2200.86,1876.39Z"/><path class="cls-8" d="M1988.06,2163.45a40.14,40.14,0,1,0,56.5,5.53A40.13,40.13,0,0,0,1988.06,2163.45Z"/><path class="cls-8" d="M2395.86,2123.1a40.14,40.14,0,1,0,16.49,54.32A40.14,40.14,0,0,0,2395.86,2123.1Z"/><circle class="cls-8" cx="2402.86" cy="2054.99" r="40.14" transform="translate(-331.68 467.86) rotate(-10.41)"/><path class="cls-8" d="M2283,1905.78a40.14,40.14,0,1,0-11.06-55.67A40.14,40.14,0,0,0,2283,1905.78Z"/><path class="cls-8" d="M2283,2204.23a40.14,40.14,0,1,0,55.68,11.05A40.14,40.14,0,0,0,2283,2204.23Z"/><path class="cls-8" d="M2200.9,2233.64a40.14,40.14,0,1,0,43.9,36A40.13,40.13,0,0,0,2200.9,2233.64Z"/><path class="cls-7" d="M2208.74,1810.28a40.12,40.12,0,0,1,35.57,33c.16-1,.34-1.93.43-2.92a40.13,40.13,0,0,0-79.88-7.88,39.59,39.59,0,0,0,.44,10.85A40.09,40.09,0,0,1,2208.74,1810.28Z"/><path class="cls-7" d="M2114.63,2220.88a40.08,40.08,0,0,0-54.85,43.93,40.11,40.11,0,0,1,79,.1A40.13,40.13,0,0,0,2114.63,2220.88Z"/><path class="cls-7" d="M2083.89,1828.76a40.15,40.15,0,0,1,52.44,21.74,40.65,40.65,0,0,1,2.43,8.42,40.11,40.11,0,1,0-79,.09A40.08,40.08,0,0,1,2083.89,1828.76Z"/><path class="cls-7" d="M1988.06,2163.45a40.11,40.11,0,0,0-14,37.93,40.1,40.1,0,0,1,79-.06,40.11,40.11,0,0,0-65-37.87Z"/><path class="cls-7" d="M2337.41,1958.43a40.1,40.1,0,0,1,79-.13,40.11,40.11,0,1,0-79,.13Z"/><path class="cls-7" d="M2402.86,2014.85a39.9,39.9,0,0,0-39.5,47,40.09,40.09,0,0,1,79,0,41.27,41.27,0,0,0,.63-6.9A40.15,40.15,0,0,0,2402.86,2014.85Z"/><path class="cls-7" d="M2395.86,2123.1a40.1,40.1,0,0,0-58.43,42.22,40.11,40.11,0,0,1,79,.13A40.14,40.14,0,0,0,2395.86,2123.1Z"/><path class="cls-7" d="M2283,2204.23a40.1,40.1,0,0,0-17.2,40.3,40.1,40.1,0,0,1,79-.11,40.1,40.1,0,0,0-61.83-40.19Z"/><path class="cls-7" d="M2200.9,2233.64a40.13,40.13,0,0,0-36,43.89c.1,1,.27,1.95.44,2.91a40.09,40.09,0,0,1,79,0,40,40,0,0,0-43.46-46.85Z"/><path class="cls-7" d="M2271.9,1863.88a40.1,40.1,0,0,1,72.88,15.48,40.12,40.12,0,1,0-79-.12A39.8,39.8,0,0,1,2271.9,1863.88Z"/><path class="cls-9" d="M1836.13,2059.79s54.83,2.76,102-6.89c28.67-5.87,46.51-18.19,56.09-27,1.57-1.43,1.51-3.84,1.51-6.08,0-3.32.07-10.62.07-10.62l-159.66,6.87Z"/><path class="cls-5" d="M1992.25,2002.78H1840.86a4.73,4.73,0,0,0-4.73,4.73v38.94s54.83,2.76,102-6.89c28.67-5.87,46.51-18.18,56.09-27C1997.29,2009.8,1995.87,2002.78,1992.25,2002.78Z"/><path class="cls-10" d="M2492,2373c-19.15,11.51-51.44,15.51-82,121.81s123.53,91.74,123.53,91.74,65.86-40.94,92.45-139.86l66-63.33L2576.05,2245.2C2542,2289,2511.16,2361.49,2492,2373Z"/><path class="cls-11" d="M2657.94,2368.2l-40.66,47L2597,2374.13s-5.48,86.33-47.92,134.86c-42.28,48.34-92.14,65.91-92.14,65.91s-.76,1.55-1.69,4.06c35.93,11.58,78.39,7.6,78.39,7.6s65.86-40.94,92.45-139.86l66-63.33-14.46-17.22Z"/><path class="cls-12" d="M2807,1893.47c-47.18,34.49-75.33,59.52-98.79,106.44s-170.48,215.48-179.86,230.51,82.62,174.56,156.26,213.66c0,0,111.18-128.25,175.3-176.73s42.23-220.53,12.52-278.39S2807,1893.47,2807,1893.47Z"/><path class="cls-13" d="M2829.32,2173.68c1.74-11.71,2-25.3-1.85-38.23-9.74-32.32-22.22-27.32-22.22-27.32v95.75c-48.11,58.32-134,145.34-179.26,190.41,19.38,21.57,39.6,39.7,58.59,49.79,0,0,111.18-128.25,175.3-176.73,34.31-25.94,44-87.24,41-147.51Z"/><path class="cls-10" d="M2347.88,2545.62c-12.25,4.13-21.29,10.46-21.29,27.16s2.66,43.17,8.51,53.54,36.07,16.57,36.07,16.57-2-69-8.41-81.63S2347.88,2545.62,2347.88,2545.62Z"/><path class="cls-11" d="M2347.72,2622.2c-8-.92-10.23-1-16.78-7.95a48.88,48.88,0,0,0,4.16,12.07c5.85,10.36,36.07,16.57,36.07,16.57s-.16-5.18-.51-12.95Z"/><path class="cls-10" d="M2377.12,2520.39c-14.89,1.72-29.78,13.81-29.78,30.51s-5.32,63.33,0,70.81,31.38,28.79,40.42,30.51,24.4-1.15,22.3-6.33S2377.12,2520.39,2377.12,2520.39Z"/><path class="cls-11" d="M2385.24,2621.74s-28.87,1.23-40.16-12.56v0l2.64,13c6,7.86,31.17,28.33,40,30,5.67,1.09,13.81.36,18.59-1.61-.71-2.9-5.91-6.65-6.85-9.49C2397.93,2636.41,2385.24,2621.74,2385.24,2621.74Z"/><path class="cls-10" d="M2377.12,2520.39c-1.59,20.15-.53,78.87,5.32,93.84s9,28.21,16.49,36.27,18.59,8.09,18.59,8.09,25-39.76,26.09-73.15-10.69-92.59-10.69-92.59C2387.23,2495.63,2378.72,2500.24,2377.12,2520.39Z"/><path class="cls-11" d="M2414.75,2551.5c-.65,45.76-5.79,60.34-8.11,74-12.83-.84-22.3-6.36-25.28-14.75a31.51,31.51,0,0,0,1.08,3.47c5.85,15,9,28.21,16.49,36.27s18.59,8.09,18.59,8.09,2.35-3.75,5.62-9.86C2429.72,2624.09,2415,2534.31,2414.75,2551.5Z"/><path class="cls-10" d="M2518.6,2526.14c-13.3-11.51-28.19-44.9-52.65-48.93s-36.7,17.27-45.75,41.45-4.25,44.33-3.72,66.21,1.06,31.66-1.6,50,1.07,30.57,16.49,27.69,22.34-18.43,22.34-18.43c-1.06,18.43,25.53,34.55,31.92,31.09s3.72-16.12,7.44-29.93,37-23.73,39.89-51.24C2536.15,2563.57,2531.9,2537.66,2518.6,2526.14Z"/><path class="cls-11" d="M2467.4,2529.87c-12.2,2.25-10.51,39.39-10.51,45s-1.69,34.28-3.18,69.26c0,0,26.2-36.42,34.54-42.77s8.86-28.64,8.34-41S2469.25,2529.52,2467.4,2529.87Z"/><path class="cls-12" d="M3446.9,1865.4c-50.05-29.19-239.81-103.22-278.91-112.6s-196.8,64.12-248.54,87.58-117.59,46.54-128.81,69.41c-37.55,76.53,36.83,185,37.22,412.3.2,119,27.33,386.75,27.33,386.75s595.88,1.11,604.22-11.4,29.19-440,39.62-527.58,63.08-207.49,63.08-207.49C3513.63,1900.85,3497,1894.6,3446.9,1865.4Z"/><path class="cls-13" d="M3398.1,2043.7l-30.89,17.2-26.4,53.12s36,186,26.4,253.42c-3.13,21.9-68.82,96.32-114.17,111.13,0,0,68,10.42,114.86-14.61,0,0-5.38,73.95-13.2,114.62s-397,28.15-403.37,34.41c-4,3.88-58.4,7.75-99.18,10.14,2.13,50.5,3,85.71,3,85.71s49.7.09,120.54-.08c146.21-5,364.7-13,485.23-17.46,9.14-54.23,28.24-438.87,38.07-521.44a423.32,423.32,0,0,1,7.73-43.33C3456.68,2072.87,3398.1,2043.7,3398.1,2043.7Z"/><path class="cls-13" d="M2959.36,1908.67c-25.34-6.94-39.52,12.88-48.47,21.81-9.1,9.09-38.86,85.47-22.59,77.89,16-7.47,100-39.67,135.24-27a174.39,174.39,0,0,1-11.4-22.92C3007.84,1947.37,2985,1915.7,2959.36,1908.67Z"/><path class="cls-13" d="M3206.43,1910.51c-54.48,2.79-142.32,85-142.32,85,50.6-20.86,128.28-21.63,147.3-13.24,19.29,8.51,102.57,43.86,115.31,43.69,0,0-17.32-57.07-28.45-77.74C3287.55,1928.29,3260.44,1907.75,3206.43,1910.51Z"/><path class="cls-12" d="M3200.72,1704.82c-56.83-6.66-197.64,49.81-228.53,73.5-32.71,25.08-47.86,51-58.55,77-11.31,27.6-49.22,156-35.74,156.54s54.53-88,80.52-92.11c25.75-4,71.44,84.09,88.78,80.37,62.88-13.5,150-80.49,192.24-63,43.59,18,69.81,73.61,81.24,83.2,11.62,9.75,29.68-42.57-7.68-147.92C3282.28,1785.76,3258.28,1711.56,3200.72,1704.82Z"/><path class="cls-13" d="M3003.5,1770c-23.82,7.48-28.52,22.06-28.83,43.75-.32,22.77,15.85,52.34,31.81,88.6,0,0,39.65-62.48,35.3-96.52C3037.74,1774.18,3026.88,1762.66,3003.5,1770Z"/><path class="cls-13" d="M3195.72,1708.93s.09,27.73,6.53,34.56-.83,81.08-.83,81.08c37.65-47.7,28.9-93.23,21.81-101.85C3216.28,1714.27,3195.72,1708.93,3195.72,1708.93Z"/><path class="cls-10" d="M3173,1627.49c-11.32-36.57-65.3-60.55-110.26-59.15-45.31,1.41-70.8,55.06-71.05,95.63-.11,18,.32,35.65.88,50.51a481.7,481.7,0,0,0,4.65,52.6c7.08,48,4.3,120.88,9.29,135.28,5.74,16.55,40.57,79.5,40.57,79.5s115.48-97.32,143.36-138c25.63-37.41,33.39-89.57,15.13-127.51C3203.31,1711.71,3185.56,1668.12,3173,1627.49Z"/><path class="cls-11" d="M3173,1627.49c-7.21-23.31-31.77-41.51-60.27-51.28l-107,33.16a122.12,122.12,0,0,0-14,54.6c-.11,18,.32,35.65.88,50.51a481.7,481.7,0,0,0,4.65,52.6c2,13.28,3.16,28.46,4,43.78,58.55,6.52,152.45,2.72,206.32-1.1,10.85-31.3,11.22-66.06-1.95-93.43C3203.31,1711.71,3185.56,1668.12,3173,1627.49Z"/><path class="cls-10" d="M3090.2,1284.84c-107.68-2.2-169.07,39.41-186.12,152.3-.86,5.72-1.34,11.46-1.91,17.21-2.66,27.11-3.21,59.92,5.81,73.74,0,0-37.11,144.59,88.53,246.43,14.32,11.6,73.2-4.2,89.48-10,137.34-48.63,100.81-202.14,100.81-202.14,1.81-9.86,53.75-21,55.35-31.17C3257.55,1433.64,3221.75,1287.53,3090.2,1284.84Z"/><path class="cls-11" d="M2907,1526.32c.33.6.65,1.22,1,1.77,0,0-21.44,83.86,23.79,168.84,18.75-23.21,28.2-55.89,23.24-90.34S2931.64,1543.27,2907,1526.32Z"/><path class="cls-11" d="M3225.85,1542.34c-14.15-15.6-33-24.11-52.23-21.34-35.14,5.06-58.39,45.57-51.93,90.47,5.21,36.15,28.08,64.09,55.14,71,24.72-57.79,10-120,10-120C3188,1556.05,3209.94,1549.16,3225.85,1542.34Z"/><path class="cls-14" d="M3008.5,1660.2c1.54,8.2,26.85,41.14,54.31,32.28,49.19-15.89,33.3-73.27,33.3-73.27C3046.93,1656.1,3008.5,1660.2,3008.5,1660.2Z"/><path class="cls-15" d="M3109.46,1462.46c-1.94-.84-48.55-14.44-56.2-4.21-3.05,4.06-2.53,11.51,1.06,16.08,6.07,7.74,17.21,2.49,45.09,6,13.09,1.62,18.54,3.75,19.49,1.81C3120.52,1478.75,3124.22,1468.82,3109.46,1462.46Z"/><path class="cls-15" d="M2923.41,1475.09c-10.83,7.18-9.65,17.67-8.25,20.52.82,1.66,4.83-.79,14.64-3.53,20.91-5.83,29.61-2.18,33.8-9.76,2.47-4.47,2.47-11.24,0-14.61C2957.23,1459.23,2924.84,1474.15,2923.41,1475.09Z"/><path class="cls-15" d="M3083.32,1516.56c-4.6-.53-9,4.9-9.82,12.13s2.25,13.49,6.86,14,9-4.9,9.82-12.13S3087.92,1517.08,3083.32,1516.56Z"/><path class="cls-15" d="M2952.63,1518.72c-4.2-.48-8.26,5-9.07,12.17s1.92,13.43,6.12,13.9,8.26-5,9.07-12.18S2956.83,1519.19,2952.63,1518.72Z"/><path class="cls-15" d="M3121.47,1270.63c-102.19-41.8-195.73,8.19-251.68,34.24s34.29,132.27,34.29,132.27c2.38-27.44,16.43-49.37,16.43-49.37,51.52,35.84,229.24,1,229.24,1L3178.81,1552l14.47,42.65-2.72,10.77c11.87,20.58,33.35,21.47,41.88-.71,26.72-69.55,65.88-184.25,44-208.85C3259.31,1376.59,3223.66,1312.43,3121.47,1270.63Z"/><path class="cls-15" d="M2869.14,1274.61l2.67,5.59c1.8-.87,182.15-84.89,311.61,34.32l4.21-4.55C3055.1,1187.94,2871,1273.73,2869.14,1274.61Z"/><path class="cls-10" d="M3226.74,1499.92c-29.54-5-57.92,17.54-63.4,50.24s14,63.22,43.56,68.17,57.92-17.55,63.4-50.25S3256.27,1504.87,3226.74,1499.92Z"/><path class="cls-15" d="M3214.29,1534.8c-9.13,4.47-15.65,14-19.39,28.19l-1,3.84,4,.05c5.68.06,21.36,1.94,25.54,9.78l5.46-2.91c-5.12-9.61-19.76-12.16-26.92-12.83,3.31-10.34,8.34-17.23,15-20.52,9-4.42,18.15-.68,18.24-.64l2.43-5.7C3237.15,1533.85,3225.88,1529.14,3214.29,1534.8Z"/><path class="cls-15" d="M3136.18,1352.22s-18.82,184.35,40,186.41l-20.71-157Z"/><path class="cls-15" d="M3008.16,1550.12l-2-5.86c-6.26,2.13-37.68,13.33-41.13,24.79a7.62,7.62,0,0,0,1.36,7.12c9,11.64,27.82,19.54,28.61,19.87l2.38-5.72c-.18-.08-18.09-7.62-26.1-18a1.49,1.49,0,0,1-.31-1.54C2972.84,1564.64,2993.84,1555,3008.16,1550.12Z"/><path class="cls-12" d="M3562.59,1945c-17-36-85.15-59.68-117-64.64s-133.79,55.6-142.39,96.1-3.85,81.56-2.38,158.56S3264,2347,3264.09,2358.87s80.54,42.46,131.14,55.32c46.38,11.78,106.88-13.28,152.47-31.19a19.57,19.57,0,0,0,12.44-17.66c1.05-34.49,3.62-130.36,2.08-198.13C3560.3,2083.23,3579.64,1981.05,3562.59,1945Z"/><path class="cls-13" d="M3569.54,1986.23c-6.68,135.77-47.11,367.36-56.58,390.49-8.85,21.59-21,26.91-22.58,27.52,20.21-6.48,39.86-14.38,57.32-21.24a19.57,19.57,0,0,0,12.44-17.66c1.05-34.49,3.62-130.36,2.08-198.13C3560.81,2105.56,3570.84,2034.14,3569.54,1986.23Z"/><path class="cls-10" d="M3350.49,1998.74s19.89,83.45-1.06,163.78S3222,2555,3363.3,2631.91s154.86-75.53,165.41-179.68-95.29-511-95.29-511Z"/><path class="cls-16" d="M3892.85,2657.68H1034a51.16,51.16,0,1,0,0,102.32H3892.85a51.16,51.16,0,1,0,0-102.32Z"/><path class="cls-17" d="M1034,2760H3892.85a51.16,51.16,0,0,0,51.16-51.16H982.87A51.17,51.17,0,0,0,1034,2760Z"/><path class="cls-7" d="M3177.67,2586.47l-364.26-6.24c-15.28-.23-31.8,2.08-43.48,6.08L2435.08,2701c-20.78,7.12-12.11,17,15.38,17.6l377.73,11.62c45.28,1.6,55.8-1.49,77.45-9.53l290.58-116.21C3217.25,2596.6,3207.27,2586.92,3177.67,2586.47Z"/><polygon class="cls-14" points="2490.83 2698.97 2877.65 2707.35 3157.49 2600.72 2790.67 2594.01 2490.83 2698.97"/><polygon class="cls-4" points="2524.13 2705.28 2817.88 2713.41 2859.8 2695.43 2580.77 2686.89 2524.13 2705.28"/><path class="cls-7" d="M3430.79,1455.93l-111.94-57.32L3207,1617.09l102.17,52.32c12.62,6.46,18.16,20.83,12.39,32.1L3099.59,2135c-5.77,11.27-20.68,15.17-33.29,8.71l-102.18-52.32-111.87,218.49,111.94,57.32c92,47.13,200.82,18.66,242.94-63.6L3521.2,1690.2C3563.32,1608,3522.84,1503.06,3430.79,1455.93Z"/><path class="cls-8" d="M3400,1432.12l-78.75-40.33a14.13,14.13,0,0,0-19,6.14l-105.51,206a14.12,14.12,0,0,0,6.14,19l78.75,40.33a14.13,14.13,0,0,0,19-6.14l105.5-206.05A14.11,14.11,0,0,0,3400,1432.12Z"/><path class="cls-8" d="M3045.23,2124.89l-78.75-40.33a14.13,14.13,0,0,0-19,6.13L2842,2296.75a14.11,14.11,0,0,0,6.13,19l78.75,40.33a14.14,14.14,0,0,0,19-6.14l105.5-206.05A14.11,14.11,0,0,0,3045.23,2124.89Z"/><path class="cls-6" d="M3313.39,2531.16c-1-1.59-2.29-2.34-5.77-1.65a77.15,77.15,0,0,0-13.76,1.37,83.2,83.2,0,0,0-12.93,3.48c-8.23,3-15.31,7-20.18,11.67a35.28,35.28,0,0,0-9,14.91,65.12,65.12,0,0,0-2.77,18c-.19,5,.38,10.5,4.26,14.92a52.9,52.9,0,0,1,13.85-13.2,106.94,106.94,0,0,1,17.38-9.32c1.37-.6,2.75-1.16,4.17-1.69s2.87-1.05,4.33-1.51a62.91,62.91,0,0,1,8.94-2.16,56.61,56.61,0,0,1,9.21-.81,54.68,54.68,0,0,1,9.33.95l-2.69-28.5C3315.24,2535.11,3314.41,2532.76,3313.39,2531.16Z"/><path class="cls-7" d="M3339.54,2541.82a38.61,38.61,0,0,0-6.79-5.8,39,39,0,0,0-4-2.45c-1.38-.73-2.8-1.39-4.2-2a35,35,0,0,0-8.67-2.45,19.88,19.88,0,0,0-8.3.41,129.58,129.58,0,0,1-1.8,16.7,104.61,104.61,0,0,1-3.62,14.82,84.9,84.9,0,0,1-12,23.94,71.7,71.7,0,0,1-15.68,15.81,57,57,0,0,1-14.88,7.91c-1.93.63-2.65,2.7-1.58,4.78a79.82,79.82,0,0,0,5.63,9.57,73.19,73.19,0,0,0,8.45,9.48c8.83,8.46,21.94,14.65,32.76,13,7.38-2.78,14.54-9,20.57-17.15a103.48,103.48,0,0,0,14.56-28.77,105.63,105.63,0,0,0,5.64-31.51,60,60,0,0,0-1.35-14.22A37.2,37.2,0,0,0,3339.54,2541.82Z"/><path class="cls-6" d="M3264.13,2490.88c-1.16-.2-2.33-.38-3.5-.52s-2.32-.3-3.48-.41c-2.31-.21-4.64-.31-6.94-.3s-4.62.13-6.86.31-4.43.45-6.58.81c-8.6,1.44-16.37,4.29-21.94,8.06-9.82,6.6-14.62,18.36-17.17,30.4-1,4.79-1.46,10.35,1.53,15.35,9.15-9,21.91-13.63,34.74-16.63a72.78,72.78,0,0,1,18.17-2.06,57.94,57.94,0,0,1,9.25,1,50.14,50.14,0,0,1,9,2.74l2.46-28.7C3268.65,2495,3271.28,2490.82,3264.13,2490.88Z"/><path class="cls-7" d="M3280.7,2496.23a34.75,34.75,0,0,0-8.24-4.13,20.23,20.23,0,0,0-8.33-1.22,125.92,125.92,0,0,1-4.66,16.24,102.11,102.11,0,0,1-6.2,14,84.31,84.31,0,0,1-16.18,21.34,71.9,71.9,0,0,1-18.31,12.67,58.18,58.18,0,0,1-16,5.12c-2,.29-3.09,2.19-2.42,4.4A78.1,78.1,0,0,0,3204,2575a69.93,69.93,0,0,0,6.46,10.78,47.44,47.44,0,0,0,6,7,45.9,45.9,0,0,0,7.23,5.93,42.41,42.41,0,0,0,8,4.14,27.33,27.33,0,0,0,8.24,1.75,38.09,38.09,0,0,0,11.81-4.34,63.82,63.82,0,0,0,11.68-8.51,103.52,103.52,0,0,0,19.89-25.38,105.1,105.1,0,0,0,11.61-29.85,62.27,62.27,0,0,0,1.35-14.27,38.87,38.87,0,0,0-2.52-12.88A46,46,0,0,0,3280.7,2496.23Z"/><path class="cls-6" d="M3228.73,2443.55a7.77,7.77,0,0,0-3.64-1.4,78.83,78.83,0,0,0-27.24-4.61c-8.82.14-16.82,1.74-22.89,4.67a35.71,35.71,0,0,0-13.16,11.4,69,69,0,0,0-8.32,16.11,31.63,31.63,0,0,0-2,7.39,15.84,15.84,0,0,0,1.06,7.9,53.21,53.21,0,0,1,17.41-8,104.57,104.57,0,0,1,19.46-3,70.13,70.13,0,0,1,18.29,1,49.25,49.25,0,0,1,17.53,6.87l7-28.16c-1.59-3.37-1.62-6-2.13-7.86A4.15,4.15,0,0,0,3228.73,2443.55Z"/><path class="cls-7" d="M3247.24,2457.94a43.92,43.92,0,0,0-6.42-7.46,35.89,35.89,0,0,0-7.58-5.66,24.07,24.07,0,0,0-4.07-1.76,17.5,17.5,0,0,0-4.08-.91,123.44,123.44,0,0,1-7.05,15.44,98,98,0,0,1-8.4,12.88,82.32,82.32,0,0,1-19.42,18.37,73.13,73.13,0,0,1-20.18,9.52,58.89,58.89,0,0,1-16.53,2.5c-2,0-3.38,1.66-3.12,3.94.86,8.16,2,12.9,6.22,22.21,5.14,10.71,14.74,20.95,25.34,23.28,7.83.05,16.67-3,25.37-8.38a104,104,0,0,0,24.27-21.23,111.07,111.07,0,0,0,9.69-13.28,88.4,88.4,0,0,0,7.17-14c3.69-9.34,5.28-18.68,3.4-27.26A40.19,40.19,0,0,0,3247.24,2457.94Z"/><path class="cls-6" d="M3192.53,2387a70.1,70.1,0,0,0-13.26-5.44,75.64,75.64,0,0,0-13.33-2.8c-8.74-1-17-.28-23.34,1.91-11.19,3.84-18.88,14-24.59,24.74-2.34,4.33-4.29,9.45-2.82,14.93a53.31,53.31,0,0,1,18.26-5.72,80.6,80.6,0,0,1,9.74-.73c3.29-.07,6.63,0,9.95.22a67.42,67.42,0,0,1,18,3.46,47.54,47.54,0,0,1,16.5,9.39l10.65-27.25c-1.18-3.62-.88-6.26-1.17-8.24S3196,2388.11,3192.53,2387Z"/><path class="cls-7" d="M3207.22,2397.66a36.16,36.16,0,0,0-6.86-6.85,22.54,22.54,0,0,0-7.83-3.84c-11,21.37-25.84,34.72-40.6,41.9s-29.25,8.3-37.93,7.11c-2-.26-3.56,1.22-3.62,3.48a70.73,70.73,0,0,0,.31,10.68,74.38,74.38,0,0,0,2.69,11.81,46.35,46.35,0,0,0,3.38,8.25,50.88,50.88,0,0,0,4.78,7.59c3.7,4.66,8.2,8.4,13.11,10.34,7.72,1.14,17-.61,26.32-4.5a104.07,104.07,0,0,0,27.3-17.17,97.4,97.4,0,0,0,20.8-24.4,57.21,57.21,0,0,0,5.78-13.38,39.88,39.88,0,0,0,1.28-6.73,35.06,35.06,0,0,0,.14-6.79A49.16,49.16,0,0,0,3207.22,2397.66Z"/><path class="cls-6" d="M3565.85,2582.43c-1.94-.35-3.45.09-5.49,3a68.38,68.38,0,0,0-4.76,5.33c-1.49,1.81-2.88,3.7-4.17,5.62a79.32,79.32,0,0,0-6.54,11.86c-3.54,8-5.41,16-5.3,22.72.15,11.82,7.36,22.39,15.94,31.06,3.43,3.48,7.76,7,13.48,7.21a53.41,53.41,0,0,1,0-19.16,102.78,102.78,0,0,1,5.37-18.93c4.25-11.18,11.12-22.27,22.24-29.16l-22.72-18.24C3570.19,2583.86,3567.8,2582.78,3565.85,2582.43Z"/><path class="cls-7" d="M3634.46,2613.05a97.31,97.31,0,0,0-17.19-27.1c-6.89-7.41-14.78-12.8-23.54-14.74a48.69,48.69,0,0,0-19.16,3.43c-6.13,2.42-11.46,6.07-14.21,10.82a109.06,109.06,0,0,1,19.25,25.86,82.57,82.57,0,0,1,8.5,25.37,74.2,74.2,0,0,1,.19,22.28,58.84,58.84,0,0,1-4.6,16.08c-.86,1.84.1,3.76,2.26,4.5,7.69,2.55,12.41,3.7,22.45,3.71,11.65,0,24.57-4.29,31-12.65,3.31-7,4.32-16.31,3.34-26.41A105.2,105.2,0,0,0,3634.46,2613.05Z"/><path class="cls-6" d="M3506.43,2589.18c-1.85-.62-3.37-.41-5.78,2.24a75.88,75.88,0,0,0-10.27,9.55,82.37,82.37,0,0,0-8.13,10.76,68.21,68.21,0,0,0-5.7,11.13,45.32,45.32,0,0,0-2.9,10.56,35.15,35.15,0,0,0,2.25,17.24,67,67,0,0,0,9,15.84c2.91,3.91,6.73,8.08,12.43,9.08-.63-12.9,4.44-25.31,10.79-36.94a71,71,0,0,1,10.69-14.85,50.32,50.32,0,0,1,7-6.2,44.26,44.26,0,0,1,8.24-4.82l-19.89-21.14C3510.46,2591.19,3508.28,2589.81,3506.43,2589.18Z"/><path class="cls-7" d="M3556.42,2599.53c-5.88-8.27-13-14.56-21.28-17.68a48,48,0,0,0-19.16.83c-6.29,1.55-12,4.4-15.33,8.74a122.37,122.37,0,0,1,9.06,14.3,100.29,100.29,0,0,1,6.26,14,83,83,0,0,1,5,26.29,73.09,73.09,0,0,1-2.89,22.1,57.92,57.92,0,0,1-6.85,15.3c-1.12,1.69-.43,3.74,1.63,4.77a76.88,76.88,0,0,0,10,4.2,70.6,70.6,0,0,0,12.05,2.5c11.72,1.56,25.29-1.05,32.85-8.55,4.2-6.52,6.4-15.66,6.71-25.79a104.91,104.91,0,0,0-4.39-31.95A97.64,97.64,0,0,0,3556.42,2599.53Z"/><path class="cls-6" d="M3439.09,2587.86a75.42,75.42,0,0,0-11.64,7.65,79.5,79.5,0,0,0-9.83,9.16c-5.86,6.39-10.26,13.37-12.37,19.75a34.9,34.9,0,0,0-.92,17.35,57.08,57.08,0,0,0,2.39,8.77,80.83,80.83,0,0,0,3.66,8.44,31.22,31.22,0,0,0,4.15,6.51,16.61,16.61,0,0,0,6.64,4.67,52.61,52.61,0,0,1,6.07-18.15,104.42,104.42,0,0,1,11-16.36c7.51-9.39,17.3-17.82,29.77-21.24l-15.94-24.09C3445.13,2588.23,3444.64,2583.4,3439.09,2587.86Z"/><path class="cls-7" d="M3492,2604.78c-4.52-9.05-10.44-16.34-18-20.73a46.66,46.66,0,0,0-18.64-2.24,33.46,33.46,0,0,0-9,1.84,19.91,19.91,0,0,0-7.26,4.21,117.21,117.21,0,0,1,10.13,30.45,83.76,83.76,0,0,1,.53,26.74,71.72,71.72,0,0,1-6.56,21.32,57.55,57.55,0,0,1-9.43,13.91c-1.42,1.5-1.08,3.62.83,5,6.78,4.81,11.11,7.33,21.06,10.32,11.55,3.46,25.68,3,34.42-3.28,5.24-5.77,8.82-14.55,10.64-24.5a104,104,0,0,0,.39-32.24A100.52,100.52,0,0,0,3492,2604.78Z"/><path class="cls-6" d="M3386.21,2573.14c-1.45-1.22-2.91-1.51-6,.07a80.44,80.44,0,0,0-12.82,5.22,87.83,87.83,0,0,0-11.44,7c-7,5.1-12.76,11.08-16.11,16.89a34.67,34.67,0,0,0-4.38,16.8,64.89,64.89,0,0,0,2.53,18.11,31.22,31.22,0,0,0,2.83,7.19,18.5,18.5,0,0,0,2.36,3.28,16.09,16.09,0,0,0,3.29,2.66,52.61,52.61,0,0,1,9.55-16.62,88.2,88.2,0,0,1,6.65-7.18c2.37-2.32,4.86-4.55,7.39-6.69a79,79,0,0,1,7.26-5.45,64,64,0,0,1,8-4.65,58.34,58.34,0,0,1,8.65-3.38,44,44,0,0,1,4.57-1.08c1.54-.28,3.13-.53,4.74-.66l-11-26.59C3389.12,2576.48,3387.68,2574.33,3386.21,2573.14Z"/><path class="cls-7" d="M3422.9,2586.23a47.47,47.47,0,0,0-3.74-5.57,36.2,36.2,0,0,0-4.49-4.68,45.49,45.49,0,0,0-17.54-5.64,32.76,32.76,0,0,0-4.63-.21,29.6,29.6,0,0,0-4.45.32,21.19,21.19,0,0,0-7.87,2.76,121.51,121.51,0,0,1,3.94,31.8,84.25,84.25,0,0,1-4.58,26.36A71.26,71.26,0,0,1,3369,2651a61.76,61.76,0,0,1-6.17,7,47.91,47.91,0,0,1-5.86,4.84c-1.69,1.17-1.75,3.33-.13,5,5.85,6.06,9.69,9.39,19.09,14.26a53.26,53.26,0,0,0,8.7,3.51,47.19,47.19,0,0,0,9.23,1.91c1.55.17,3.08.26,4.59.28a36.32,36.32,0,0,0,4.46-.29,28.3,28.3,0,0,0,8.11-2.21c6.29-4.83,11.39-12.71,14.93-22.24a108.71,108.71,0,0,0,2.41-63.55A60.75,60.75,0,0,0,3422.9,2586.23Z"/><path class="cls-6" d="M3830.92,2481.64a67.5,67.5,0,0,1-4.23-17.85,55.41,55.41,0,0,1,0-9.38,43.24,43.24,0,0,1,1.88-9.41l-29.17,1.2c-2.79,2.52-5.27,3.32-7,4.36s-2.61,2.31-2.2,5.91a68.86,68.86,0,0,0-.08,7.18c.09,2.38.25,4.69.55,7a75.24,75.24,0,0,0,2.91,13.28c2.59,8.33,6.47,15.57,11,20.54a35.52,35.52,0,0,0,14.65,9.36,58.84,58.84,0,0,0,8.77,2.32,86,86,0,0,0,9.05,1.1,30.91,30.91,0,0,0,7.6-.23,15.29,15.29,0,0,0,7.26-3.19C3841.74,2505.91,3835.49,2494,3830.92,2481.64Z"/><path class="cls-7" d="M3900.4,2457.56a67.63,67.63,0,0,0-9.37-10.92,105.38,105.38,0,0,0-26.67-18.12,96.53,96.53,0,0,0-30.72-9.23c-10.12-1.12-19.54.05-27.5,4.33-9.51,7.66-17.91,22.1-15.93,32.85a107.71,107.71,0,0,1,31.55,6.76,82.28,82.28,0,0,1,23.1,13.54c12.62,10.49,19.46,23.34,21.92,31.78.57,1.95,2.55,2.76,4.64,1.89a77.17,77.17,0,0,0,9.62-4.63,65.84,65.84,0,0,0,9.67-7.24c8.81-7.56,15.67-19.26,15.1-29.78A38.48,38.48,0,0,0,3900.4,2457.56Z"/><path class="cls-6" d="M3784.22,2512.89a53.43,53.43,0,0,1,1.12-9.3,47.05,47.05,0,0,1,3-9.09l-29-2.56c-3.06,2.11-5.61,2.55-7.39,3.36s-2.85,1.91-2.9,5.5a70.26,70.26,0,0,0-1,7.07c-.21,2.34-.34,4.64-.35,7a77.43,77.43,0,0,0,1.13,13.5c1.42,8.56,4.26,16.3,8,21.86a35.19,35.19,0,0,0,13.19,11.32,65.83,65.83,0,0,0,17.23,5.82,31.08,31.08,0,0,0,7.6.77,15.49,15.49,0,0,0,7.7-2.24c-9-9.2-13.61-21.88-16.54-34.73A68.39,68.39,0,0,1,3784.22,2512.89Z"/><path class="cls-7" d="M3825.9,2482.51c-9.37-6-19.56-10.56-29.38-12.82a56.89,56.89,0,0,0-14.47-1.66,42.24,42.24,0,0,0-6.8.71,34.64,34.64,0,0,0-6.49,1.81,49.36,49.36,0,0,0-7.51,5.89,50.17,50.17,0,0,0-6.41,7.57,34.39,34.39,0,0,0-4.4,8.38,20.93,20.93,0,0,0-1.36,8.41,111.46,111.46,0,0,1,30.32,10.9,82.81,82.81,0,0,1,21.19,16.38,73.26,73.26,0,0,1,12.5,18.42,59,59,0,0,1,5.08,16c.3,2,2.16,3.08,4.36,2.47a76.63,76.63,0,0,0,10.24-3.44,71,71,0,0,0,10.61-6.06c1.22-.82,2.44-1.69,3.6-2.63s2.27-2,3.35-3a50.48,50.48,0,0,0,5.88-6.81,32.31,32.31,0,0,0,6-15.49c-1.18-7.67-5.56-16-12-23.81A105,105,0,0,0,3825.9,2482.51Z"/><path class="cls-6" d="M3732.1,2575.5a78.23,78.23,0,0,1,0-9.06,68.24,68.24,0,0,1,1.09-9.21,53.16,53.16,0,0,1,2.57-8.93,42.08,42.08,0,0,1,4.28-8.5l-28-7.22a14.94,14.94,0,0,1-4.37,1.39c-1.29.22-2.39.32-3.32.54-1.86.45-3,1.41-3.58,4.92a72.34,72.34,0,0,0-3.48,13.42,79.7,79.7,0,0,0-1.19,13.31c0,8.77,1.25,16.77,3.91,23a35,35,0,0,0,10.85,13.63,64.52,64.52,0,0,0,16,8.77,29.19,29.19,0,0,0,7.46,2.07,16.64,16.64,0,0,0,8.1-1,52.55,52.55,0,0,1-7.6-17.57A108.59,108.59,0,0,1,3732.1,2575.5Z"/><path class="cls-7" d="M3778.79,2533.42a108.68,108.68,0,0,0-13.28-9.72,90,90,0,0,0-14-7.12,56.92,56.92,0,0,0-14-3.73,37.42,37.42,0,0,0-13.34.4,46.82,46.82,0,0,0-15.42,10.78,39,39,0,0,0-3,3.63,28.44,28.44,0,0,0-2.45,3.76,20.43,20.43,0,0,0-2.54,8,117.83,117.83,0,0,1,27.85,15.87,83.33,83.33,0,0,1,18.28,19.51,72.32,72.32,0,0,1,9.4,20.24,63,63,0,0,1,1.89,9.1,50,50,0,0,1,.38,7.55c-.07,2.05,1.61,3.4,4,3.15a65.94,65.94,0,0,0,10.85-1.93,64.19,64.19,0,0,0,11.7-4.5,58.56,58.56,0,0,0,7.94-4.63,51.54,51.54,0,0,0,6.93-6.05,31.65,31.65,0,0,0,8.44-14.67c.07-7.74-3.16-16.69-8.44-25.33A104.31,104.31,0,0,0,3778.79,2533.42Z"/><path class="cls-6" d="M3652.71,2562.64c-1.82,0-3,.61-4.32,3.89a76.28,76.28,0,0,0-11.25,25.35c-2,8.5-2.39,16.77-1,23.33a35.22,35.22,0,0,0,7.88,15.5,68.44,68.44,0,0,0,13.62,12c4,2.81,8.91,5.43,14.57,4.61a53.34,53.34,0,0,1-3.47-18.83c0-1.62,0-3.24.08-4.87s.22-3.31.39-5c.33-3.31.81-6.61,1.37-9.87a87.05,87.05,0,0,1,2-8.84,67.67,67.67,0,0,1,3-8.74,50.34,50.34,0,0,1,10-15.54l-25.31-13.09C3656.89,2563.42,3654.51,2562.64,3652.71,2562.64Z"/><path class="cls-7" d="M3724.56,2576.62a104,104,0,0,0-23.9-21.39,66,66,0,0,0-12.86-6.34,43.84,43.84,0,0,0-6.41-1.66,32.25,32.25,0,0,0-6.37-.65,35.61,35.61,0,0,0-4.19,1.11,35.18,35.18,0,0,0-4.2,1.51,36.82,36.82,0,0,0-4.06,2.06,36.26,36.26,0,0,0-3.83,2.34,32.1,32.1,0,0,0-3.45,2.79,31.15,31.15,0,0,0-3,3,21.06,21.06,0,0,0-3.94,7.12,136.94,136.94,0,0,1,12.72,10.7,125.49,125.49,0,0,1,10.43,11.11,86.11,86.11,0,0,1,13.72,23,69.3,69.3,0,0,1,4.79,21.79,60.51,60.51,0,0,1-.23,9.35,43.49,43.49,0,0,1-1.45,7.52c-.57,2,.79,3.69,3.24,3.92,2.19.24,4.1.31,6,.36s3.66,0,5.52-.11a56.64,56.64,0,0,0,5.91-.69c2.09-.38,4.38-.9,7-1.57a54,54,0,0,0,17.45-7.94,41.18,41.18,0,0,0,6.83-6.12,26.54,26.54,0,0,0,4.66-7.1c1.5-7.81,0-17.12-3.67-26.55A103.18,103.18,0,0,0,3724.56,2576.62Z"/><path class="cls-6" d="M3951.32,2205.91a77.37,77.37,0,0,1-6.94-5.81,67.57,67.57,0,0,1-6.33-6.76,49.08,49.08,0,0,1-5.15-7.71,45.14,45.14,0,0,1-3.75-8.72l-23.55,16.66a15.71,15.71,0,0,1-1.77,4.28c-.66,1.15-1.29,2.07-1.72,2.94-.86,1.74-.88,3.26,1.45,6a74.05,74.05,0,0,0,8,11.49c1.49,1.76,3.1,3.45,4.68,5s3.21,3.09,4.88,4.5c6.67,5.62,13.87,9.67,20.36,11.45,11.39,3.17,23.46-.8,34.28-6.62,4.29-2.34,8.81-5.55,10.67-11a53.07,53.07,0,0,1-18.36-5.33A103.3,103.3,0,0,1,3951.32,2205.91Z"/><path class="cls-7" d="M4012.13,2168.61a41.06,41.06,0,0,0-1.89-8.68,26,26,0,0,0-3.91-7.37c-6-5.09-14.74-8.4-24.8-9.87a109.48,109.48,0,0,0-62.71,10.78c-8.79,4.73-16.1,10.76-20.13,18.38a37.35,37.35,0,0,0-1.79,9c-.1,1.59-.22,3.21-.22,4.83a38.72,38.72,0,0,0,.27,4.82,44.2,44.2,0,0,0,.83,4.67,30.44,30.44,0,0,0,1.29,4.38,20.36,20.36,0,0,0,4.49,7.2,112.79,112.79,0,0,1,30.09-11.24,83.2,83.2,0,0,1,26.7-1.35,73.1,73.1,0,0,1,21.53,5.85,64.38,64.38,0,0,1,8.17,4.38,49.46,49.46,0,0,1,6,4.51c1.53,1.34,3.64.93,5-1a62.19,62.19,0,0,0,5.51-9.39c.74-1.59,1.44-3.27,2.13-5.18a59.23,59.23,0,0,0,2-6.53,56.65,56.65,0,0,0,1.56-9,42.29,42.29,0,0,0,.2-4.63C4012.4,2171.67,4012.3,2170.13,4012.13,2168.61Z"/><path class="cls-6" d="M3934,2264.87a61.92,61.92,0,0,1-5.24-7.65,48.93,48.93,0,0,1-6.27-17.73l-25.89,13.22c-1.44,3.43-3.35,5.16-4.5,6.79s-1.38,3.17.5,6.25c.86,2.24,1.89,4.43,2.92,6.54s2.18,4.15,3.4,6.13a77.05,77.05,0,0,0,8.17,10.86c5.79,6.51,12.35,11.5,18.53,14.14a35.4,35.4,0,0,0,17.22,2.42,66.72,66.72,0,0,0,17.64-4.3c4.56-1.71,9.56-4.21,12.13-9.33-12.55-2.95-23.22-11.23-32.54-20.55A83.2,83.2,0,0,1,3934,2264.87Z"/><path class="cls-7" d="M4002.47,2227.62a38.86,38.86,0,0,0-9.69-7.88,65.5,65.5,0,0,0-13.23-5.8,104.41,104.41,0,0,0-31.92-4.57,109.39,109.39,0,0,0-16.39,1.3,88.51,88.51,0,0,0-15.29,3.72,57,57,0,0,0-13,6.26,37,37,0,0,0-9.87,9.09c-5.32,10.71-6.85,27.06-.55,36a117.21,117.21,0,0,1,16.31-4.82,96.2,96.2,0,0,1,15.15-2.15,82.62,82.62,0,0,1,26.64,2.59,73.62,73.62,0,0,1,20.41,8.94,59.49,59.49,0,0,1,12.82,10.82c1.3,1.54,3.49,1.46,5-.23a76,76,0,0,0,6.78-8.37c1-1.44,1.93-3,2.89-4.73s1.87-3.76,2.89-6.09a56.79,56.79,0,0,0,2.94-8.53,52.41,52.41,0,0,0,1.27-9,36.63,36.63,0,0,0-.51-8.74A28.28,28.28,0,0,0,4002.47,2227.62Z"/><path class="cls-6" d="M3918.73,2338.3a68.72,68.72,0,0,1-9.25-15.87c-.58-1.44-1.1-2.9-1.55-4.39s-.88-3-1.22-4.58a42.67,42.67,0,0,1-1-9.56l-27.55,9.74c-3.81,6.5-8.65,5.9-5.77,12.55a67.82,67.82,0,0,0,2,6.92c.77,2.25,1.6,4.44,2.55,6.57a75,75,0,0,0,6.66,11.88c4.93,7.24,10.76,13,16.57,16.43a35.4,35.4,0,0,0,16.78,4.59,57.42,57.42,0,0,0,9-.38,85.74,85.74,0,0,0,9-1.61,31.22,31.22,0,0,0,7.19-2.46,15.22,15.22,0,0,0,6-5.18C3936.19,2358.38,3926.72,2348.79,3918.73,2338.3Z"/><path class="cls-7" d="M3978.18,2294.45a66.37,66.37,0,0,0-12.22-7.66,104.59,104.59,0,0,0-30.88-9.28,98.12,98.12,0,0,0-32.09.36,56.42,56.42,0,0,0-13.81,4.43,37.93,37.93,0,0,0-11.12,7.77c-6.85,10.06-10.63,26.36-5.63,36.12a107.2,107.2,0,0,1,32.17-2.84,82.2,82.2,0,0,1,26.05,6.16c15.14,6.35,25.45,16.65,30.27,24,1.12,1.7,3.25,1.9,5,.45,6.17-5.2,9.74-8.55,15-17.12a50.42,50.42,0,0,0,4.05-8,51.31,51.31,0,0,0,2.52-8.64,31.28,31.28,0,0,0-.84-16.66A38.8,38.8,0,0,0,3978.18,2294.45Z"/><path class="cls-6" d="M3889,2401.81a67.35,67.35,0,0,1-7.19-16.91,47.54,47.54,0,0,1-1.35-18.92l-28.61,6.32c-2.33,3-4.66,4.22-6.14,5.56s-2.18,2.76-1.18,6.26a76.14,76.14,0,0,0,8,26.62c4,7.82,9.1,14.24,14.45,18.34,9.35,7.19,22.2,8.11,34.24,6.79a31.43,31.43,0,0,0,7.45-1.56,15.16,15.16,0,0,0,6.59-4.42C3903.89,2423.87,3895.68,2413.23,3889,2401.81Z"/><path class="cls-7" d="M3942.43,2356.72a104.73,104.73,0,0,0-29.39-13.27,106.9,106.9,0,0,0-16.14-3.27,86.06,86.06,0,0,0-15.73-.52,55.77,55.77,0,0,0-14.32,2.67,39.06,39.06,0,0,0-12.07,6.4,41.85,41.85,0,0,0-2.89,3.76,44.72,44.72,0,0,0-2.65,4.21,54.69,54.69,0,0,0-4,9.31,36.14,36.14,0,0,0-1.8,9.52,21.36,21.36,0,0,0,1.14,8.59,105.68,105.68,0,0,1,32.32,1.09,81.67,81.67,0,0,1,25.09,9.35c14.23,8.17,23.17,19.67,27,27.56.9,1.82,3,2.28,4.9,1.07a76.41,76.41,0,0,0,8.68-6.23,67.59,67.59,0,0,0,8.31-8.81c7.39-9,12.19-21.76,9.84-32.08C3957.51,2369.11,3950.85,2362.36,3942.43,2356.72Z"/><path class="cls-6" d="M3894.23,1909.71a53.08,53.08,0,0,1-15.79,10.86,108.94,108.94,0,0,1-18.58,6.41,71.38,71.38,0,0,1-18.09,2.57c-1.54,0-3-.09-4.6-.18s-3.11-.26-4.65-.5a41.85,41.85,0,0,1-9.07-2.49l-1.81,28.68c2.1,2.87,2.55,5.34,3.36,7s1.86,2.69,5.38,2.57a66.24,66.24,0,0,0,6.91.68c2.3.13,4.67.1,6.89.07a79.26,79.26,0,0,0,13.27-1.41,72.83,72.83,0,0,0,12.05-3.36,46,46,0,0,0,9.74-4.94,35.14,35.14,0,0,0,11.3-13.26,64.92,64.92,0,0,0,5.56-17.29,31.07,31.07,0,0,0,.65-7.72A15.93,15.93,0,0,0,3894.23,1909.71Z"/><path class="cls-7" d="M3881.76,1868.63a59.67,59.67,0,0,0-6.14-7,54.21,54.21,0,0,0-7.4-5.59,41.35,41.35,0,0,0-8-3.93,26.67,26.67,0,0,0-8.2-1.44c-7.69,1.59-15.71,6.45-23.06,13.41a104.2,104.2,0,0,0-19.37,25.76,102.34,102.34,0,0,0-11,30.18,67.3,67.3,0,0,0-.88,7.29c-.07,1.19-.1,2.37-.1,3.53s0,2.35.07,3.5a36,36,0,0,0,2.92,12.83c.85,1.17,1.71,2.4,2.68,3.57a40.29,40.29,0,0,0,3.17,3.39,56.44,56.44,0,0,0,7.46,5.76,31.89,31.89,0,0,0,8.21,3.8,33.28,33.28,0,0,0,4.16.88,17.25,17.25,0,0,0,4.06,0c.61-2.87,1.31-5.68,2.07-8.4s1.49-5.28,2.35-7.8a104.89,104.89,0,0,1,5.91-14.09,85.2,85.2,0,0,1,15.63-21.75,71.53,71.53,0,0,1,18-13.12,57.31,57.31,0,0,1,15.92-5.48c2-.34,3-2.24,2.31-4.46C3889.94,1881.67,3888.07,1876.89,3881.76,1868.63Z"/><path class="cls-6" d="M3922.12,1975.49a108.53,108.53,0,0,1-19.6,2.55,79.88,79.88,0,0,1-9,0,66.12,66.12,0,0,1-9.2-1.06,50.43,50.43,0,0,1-8.84-2.5,46.15,46.15,0,0,1-8.47-4.09l-7.43,27.56a16.13,16.13,0,0,1,.88,2.24,17.25,17.25,0,0,1,.41,2c.19,1.26.26,2.34.46,3.25.39,1.83,1.3,2.95,4.79,3.5,2.22.74,4.36,1.45,6.56,2s4.43,1.08,6.68,1.47,4.5.69,6.74.89,4.39.37,6.56.41c8.63.21,16.8-1,23-3.56a34.79,34.79,0,0,0,13.76-10.59,64.34,64.34,0,0,0,9.11-15.89c1.85-4.54,3.33-10,1.27-15.59A52.91,52.91,0,0,1,3922.12,1975.49Z"/><path class="cls-7" d="M3941.75,1944.83c-.15-.95-.3-1.86-.47-2.75-.33-1.79-.72-3.49-1.2-5.23s-1.08-3.54-1.82-5.5a57.21,57.21,0,0,0-2.85-6.46,61,61,0,0,0-4.89-8.08q-1.39-1.93-2.94-3.77a45.78,45.78,0,0,0-3.33-3.35,42.83,42.83,0,0,0-7.29-5.43,32.23,32.23,0,0,0-3.86-1.92,23.13,23.13,0,0,0-4-1.18c-7.95.11-16.77,3.43-25.26,9a103.1,103.1,0,0,0-23.63,21.92,104.92,104.92,0,0,0-16.2,27.65c-.89,2.34-1.59,4.63-2.23,7a53.34,53.34,0,0,0-1.43,6.88,40.24,40.24,0,0,0-.38,6.61,43.46,43.46,0,0,0,.72,6.35,34.48,34.48,0,0,0,4.33,7.75c.95,1.22,1.83,2.48,2.83,3.65a37.21,37.21,0,0,0,3.18,3.34,34.43,34.43,0,0,0,3.55,2.86,29.49,29.49,0,0,0,3.64,2.38,19.87,19.87,0,0,0,7.88,2.45,126.43,126.43,0,0,1,16.24-27.49,85.39,85.39,0,0,1,19.57-18.2,71.39,71.39,0,0,1,20.29-9.32,62.72,62.72,0,0,1,9.16-1.82,48,48,0,0,1,7.57-.28c2.05.1,3.41-1.58,3.17-4C3942,1946.8,3941.88,1945.79,3941.75,1944.83Z"/><path class="cls-6" d="M3934.9,2039.83c-3-.51-5.83-1.22-8.83-2a64.45,64.45,0,0,1-8.72-3.09,56.58,56.58,0,0,1-8.09-4.4,41.6,41.6,0,0,1-7.34-5.86l-13.35,25.27a15.17,15.17,0,0,1,.36,4.43c-.1,1.28-.27,2.36-.28,3.29,0,1.88.61,3.18,3.88,4.5,1,.62,2,1.22,3,1.79s2,1.14,3,1.68c2,1.07,4.08,2,6.19,2.94a94.72,94.72,0,0,0,12.71,4.24c8.38,2.12,16.62,2.73,23.25,1.6a34.78,34.78,0,0,0,15.74-7.34,54.66,54.66,0,0,0,6.6-6.25,71,71,0,0,0,5.76-7.25c2.81-4,5.46-9,4.69-15C3961.48,2043.05,3947.89,2042.09,3934.9,2039.83Z"/><path class="cls-7" d="M3980,2002.09a67.12,67.12,0,0,0-1.43-7,60.21,60.21,0,0,0-3-9.05,35.32,35.32,0,0,0-2.13-4.32c-.79-1.4-1.64-2.76-2.53-4.06a43.46,43.46,0,0,0-5.93-7,29.16,29.16,0,0,0-7.14-4.76,37.57,37.57,0,0,0-12.64-.38,54.77,54.77,0,0,0-6.86,1.32,73,73,0,0,0-7.1,2.29,103,103,0,0,0-27.76,16.43,119.8,119.8,0,0,0-12,11.25,95.67,95.67,0,0,0-9.74,12.31,62.7,62.7,0,0,0-6.53,12.64,35.51,35.51,0,0,0-2.53,12.66c.8,5.63,3.49,11.5,6.8,16.62,3.55,5,7.79,9.25,13,10.87a135.86,135.86,0,0,1,10.75-12.89,112.3,112.3,0,0,1,11.15-10.38,85.46,85.46,0,0,1,23.12-13.45,70.54,70.54,0,0,1,21.84-4.59,54.36,54.36,0,0,1,16.81,1.66c2,.55,3.68-.79,4-3.16a72.75,72.75,0,0,0,.42-11.23C3980.51,2006.07,3980.33,2004.18,3980,2002.09Z"/><path class="cls-6" d="M3972,2113.35a105.38,105.38,0,0,1-18.85-5.94,81.39,81.39,0,0,1-8.2-3.88,63.9,63.9,0,0,1-7.87-4.91,53.65,53.65,0,0,1-7-6.08,42.49,42.49,0,0,1-5.92-7.38l-18.41,22c.08,3.55-1.16,5.85-1.55,7.71s0,3.3,2.89,5.32c1.7,1.65,3.37,3.24,5.13,4.74s3.59,2.91,5.47,4.23,3.82,2.56,5.78,3.7,3.85,2.2,5.81,3.16c7.8,3.83,15.75,6.08,22.48,6.29a34.75,34.75,0,0,0,16.88-4.06,65.9,65.9,0,0,0,14.83-10.69c3.57-3.36,7.19-7.67,7.64-13.58A52.51,52.51,0,0,1,3972,2113.35Z"/><path class="cls-7" d="M4004.44,2063.73a34.15,34.15,0,0,0-1.13-4.67c-.46-1.53-1-3-1.57-4.49a43.21,43.21,0,0,0-4.24-8.11,30,30,0,0,0-5.91-6.21c-7.2-3.36-16.54-4.15-26.68-2.71a102.53,102.53,0,0,0-30.7,9.9,114.56,114.56,0,0,0-14.16,8.32,96,96,0,0,0-12.22,9.89,68.8,68.8,0,0,0-5,5.36,61.61,61.61,0,0,0-4.13,5.61,35.93,35.93,0,0,0-5.22,11.92c-.4,5.75,1,12.18,3.13,18a34.93,34.93,0,0,0,2,4.18,38.61,38.61,0,0,0,2.35,3.8,20.18,20.18,0,0,0,6.12,5.7,127.3,127.3,0,0,1,13.17-10.49q3.34-2.29,6.58-4.25t6.53-3.6a84.27,84.27,0,0,1,25.44-8.23,70.91,70.91,0,0,1,22.32.16,55.14,55.14,0,0,1,16.06,5.13c1.81,1,3.76,0,4.54-2.23a70.42,70.42,0,0,0,2.83-10.8,62.2,62.2,0,0,0,.83-12.78A60.76,60.76,0,0,0,4004.44,2063.73Z"/><path class="cls-4" d="M2178.33,1879.87a40.85,40.85,0,0,0-38.44-27H1288.45c-53.61,0-43.09,50-43.09,50l44.66,23.33,168.21,467.14a40.86,40.86,0,0,0,38.44,27h761.2c35.91,16.89,58.78,27.17,63.59,26.65,31.36-3.37,50.87-23.36,43.08-50Z"/><path class="cls-3" d="M2151.68,1906.53a40.86,40.86,0,0,0-38.44-27H1261.79a17.46,17.46,0,0,0-16.43,23.37L1431.58,2420a40.84,40.84,0,0,0,38.43,27h851.45a17.46,17.46,0,0,0,16.43-23.37Z"/><polygon class="cls-4" points="1739.97 2447.02 1921.02 2447.02 1883.22 2306.84 1739.97 2447.02"/><polygon class="cls-4" points="2102.91 2330.57 2113.86 2360.97 2127.63 2360.97 2116.68 2330.57 2102.91 2330.57"/><polygon class="cls-4" points="2073.93 2330.57 2084.88 2360.97 2098.64 2360.97 2087.7 2330.57 2073.93 2330.57"/><polygon class="cls-4" points="2044.95 2330.57 2055.9 2360.97 2069.66 2360.97 2058.72 2330.57 2044.95 2330.57"/><polygon class="cls-4" points="2015.97 2330.57 2026.92 2360.97 2040.68 2360.97 2029.73 2330.57 2015.97 2330.57"/><polygon class="cls-4" points="1604.32 2330.57 1615.26 2360.97 1629.03 2360.97 1618.08 2330.57 1604.32 2330.57"/><polygon class="cls-4" points="1575.33 2330.57 1586.28 2360.97 1600.05 2360.97 1589.1 2330.57 1575.33 2330.57"/><polygon class="cls-4" points="1546.35 2330.57 1557.3 2360.97 1571.06 2360.97 1560.12 2330.57 1546.35 2330.57"/><polygon class="cls-4" points="1517.37 2330.57 1528.32 2360.97 1542.08 2360.97 1531.13 2330.57 1517.37 2330.57"/><path class="cls-3" d="M1785.31,2619.52h0c.57-1.84,1.18-3.69,1.82-5.53,8.4-24.16,96.09-307.15,96.09-307.15l-8.64-45.78H1743.79S1641.9,2589.83,1633.5,2614s-12.6,50,33.61,50H2051.4v-20.91H1820.74C1797.9,2643.05,1777.63,2643.15,1785.31,2619.52Z"/><path class="cls-4" d="M1874.58,2261.06H1721S1619.07,2589.83,1610.67,2614s-12.61,50,33.61,50H1797.9c-46.21,0-42-25.82-33.61-50S1874.58,2261.06,1874.58,2261.06Z"/><path class="cls-10" d="M3411.39,1839.42c-5.6-20.22-10.24-56.84-18.45-71.68-12.28-22.19-77.78-107.16-98.72-91.72-12.07,8.9,10.15,38.87,27.86,59.44-19.41-19.58-48.64-44.34-61.26-30.89-8.27,8.82,1.66,25.27,16,41.42-13.43-8.89-26-13-32.28-3.84-6.58,9.7,9.51,31,26.67,49.46-14.39-11.61-29.39-20-35.79-11.38-15.45,20.76,56.44,46.86,63.55,105.24,5.38,44.14,16.64,69.26,28.15,86,8.39,12.17,16.89,19.89,23.38,27.28,31.19-13.91,59.94-36.19,82.93-57.52-1.51-12.56-4-27.08-7.62-44S3417.44,1861.28,3411.39,1839.42Z"/><path class="cls-10" d="M3271.2,1791.61c16.17,17.35,33.27,32.12,33.27,32.12S3288.26,1805.39,3271.2,1791.61Z"/><path class="cls-10" d="M3340.75,1755.78c-.74-.88-8.29-9.83-18.63-20.27C3331.67,1746.58,3339.9,1754.93,3340.75,1755.78Z"/><path class="cls-10" d="M3276.81,1746c19.89,22.38,48.22,44.17,48.22,44.17S3299.74,1761.15,3276.81,1746Z"/><path class="cls-11" d="M3342.16,1753.75c-7.52-8.12-15.34-16-23.59-23.36-20.22-18.1-35.72-26.27-34.82-25.66,21.34,14.4,48.73,43,56.26,51.16s15.43,15.82,22.95,23.92c.18.21.46-.09.29-.3C3356.48,1770.77,3349.69,1761.87,3342.16,1753.75Z"/><path class="cls-11" d="M3277.24,1746c-.89-.62-.93-.07-.16.71,9.85,10.06,47.8,50.28,57.12,60.76.15.16.33,0,.24-.24C3327.73,1793.33,3298.44,1760.77,3277.24,1746Z"/><path class="cls-11" d="M3268.31,1789.35c-.88-.63-.9.18-.11,1,15.47,15,27.72,26.72,45.19,45.61.27.29.84-.08.6-.46C3303.52,1818.76,3287.63,1803.15,3268.31,1789.35Z"/><path class="cls-10" d="M3416.2,1749.58c-19.78,9.48-23.26,18.16-23.26,18.16,7.34,13.29,17.56,85.15,29.82,116,.37-1.27.72-96.43,10.81-112.69C3442.68,1756.36,3436,1740.1,3416.2,1749.58Z"/><path class="cls-4" d="M3279.53,1220.43c146.56,93.71,272.71-92.75,272.71-92.75l-137.66-12.52C3400.93,1210.06,3279.53,1220.43,3279.53,1220.43Z"/><rect class="cls-18" x="3889.31" y="696.87" width="393.34" height="393.34" rx="43.75"/><path class="cls-14" d="M4148.79,915.09a36.17,36.17,0,0,0-36.92-6.58,33.44,33.44,0,0,0-10.52,6.58,31.44,31.44,0,0,0-7.08,9.71,28.85,28.85,0,0,0,0,24.07,30.33,30.33,0,0,0,7.08,9.61,34.48,34.48,0,0,0,10.52,6.47,36.8,36.8,0,0,0,26.3,0,36,36,0,0,0,10.62-6.47,29.46,29.46,0,0,0,7.08-33.68A29.62,29.62,0,0,0,4148.79,915.09Zm-10.52,28.21a17.21,17.21,0,0,1-7.69,9.11,11.24,11.24,0,0,1-5.56,1.41,12.94,12.94,0,0,1-10.12-5,17.87,17.87,0,0,1-4.24-12,19.54,19.54,0,0,1,1.11-6.57,16.69,16.69,0,0,1,3.13-5.46,17.23,17.23,0,0,1,4.56-3.75,11.21,11.21,0,0,1,5.56-1.41,12.16,12.16,0,0,1,5.46,1.31,14,14,0,0,1,4.55,3.64,19.86,19.86,0,0,1,3.14,5.47,19.48,19.48,0,0,1,.1,13.24Z"/><path class="cls-14" d="M4046.94,881a35.25,35.25,0,0,0,13-2.43A32.84,32.84,0,0,0,4070.6,872a31.44,31.44,0,0,0,7.08-9.71,28.62,28.62,0,0,0,0-24,30.08,30.08,0,0,0-7.08-9.71,34.24,34.24,0,0,0-10.62-6.47,36.5,36.5,0,0,0-26.19,0,34.56,34.56,0,0,0-10.52,6.47,30.08,30.08,0,0,0-7.08,9.71,28.62,28.62,0,0,0,0,24,31.44,31.44,0,0,0,7.08,9.71,33.13,33.13,0,0,0,10.52,6.57A35,35,0,0,0,4046.94,881Zm-13.25-37.22a17.16,17.16,0,0,1,7.68-9.1,11.26,11.26,0,0,1,5.57-1.42,12.93,12.93,0,0,1,10.11,5,17.87,17.87,0,0,1,4.25,12,19.55,19.55,0,0,1-1.11,6.58,16.89,16.89,0,0,1-3.14,5.46,17.11,17.11,0,0,1-4.55,3.74,11.14,11.14,0,0,1-5.56,1.42q-5.88,0-10.12-5.06a18.25,18.25,0,0,1-4.25-12.14A18.45,18.45,0,0,1,4033.69,843.78Z"/><polygon class="cls-14" points="4146.86 831.04 4134.52 820.12 4081.93 889.29 4024.89 955.85 4037.23 966.77 4091.64 896.38 4146.86 831.04"/><rect class="cls-18" x="2863.14" y="696.87" width="393.34" height="393.34" rx="43.75"/><path class="cls-14" d="M2982.25,896a37.55,37.55,0,0,0-10.53-5.85q-6.22-2.34-13.82-4.39-5.85-1.45-10.31-2.77a37.23,37.23,0,0,1-7.38-2.93,13.14,13.14,0,0,1-4.46-3.73,8.8,8.8,0,0,1-1.54-5.33,10.16,10.16,0,0,1,4.1-8.63q4.08-3.07,12.43-3.07a36.68,36.68,0,0,1,9.21,1.17,56.65,56.65,0,0,1,8.4,2.85,45.32,45.32,0,0,1,6.59,3.44,25.08,25.08,0,0,1,3.72,2.77l8.92-16.37a75,75,0,0,0-16.08-8.12,57.34,57.34,0,0,0-20.18-3.43,49.66,49.66,0,0,0-14.77,2.12,36.67,36.67,0,0,0-12.06,6.21,28.41,28.41,0,0,0-8.12,10.23,32.31,32.31,0,0,0-2.92,14,26.29,26.29,0,0,0,1.83,10.31,21.14,21.14,0,0,0,5.48,7.6,33.89,33.89,0,0,0,9.14,5.71,94.78,94.78,0,0,0,12.94,4.46q6.13,1.75,11.11,3.21a52,52,0,0,1,8.48,3.22,16.17,16.17,0,0,1,5.41,4.09,8.78,8.78,0,0,1,1.9,5.71q0,10.68-16.66,10.67a46.66,46.66,0,0,1-11.7-1.46,62.75,62.75,0,0,1-10.38-3.58,72.61,72.61,0,0,1-8.12-4.24,28.48,28.48,0,0,1-4.75-3.44l-8.92,17.4a71.3,71.3,0,0,0,20.47,9.94,78.09,78.09,0,0,0,23.1,3.51,61.68,61.68,0,0,0,14.55-1.68,36.79,36.79,0,0,0,12.28-5.34,26.44,26.44,0,0,0,8.49-9.57,30.12,30.12,0,0,0,3.14-14.26,27.85,27.85,0,0,0-2.34-12.06A24.18,24.18,0,0,0,2982.25,896Z"/><path class="cls-14" d="M3070.19,923.66V899.83q0-15.35-9.13-23.47t-25.67-8.11a56.55,56.55,0,0,0-31.87,9.79l6,12.43a56.22,56.22,0,0,1,12-6.43,34,34,0,0,1,12-2.19q8.49,0,12.8,4.09t4.31,11.7V902a40.5,40.5,0,0,0-8.7-2.48,56.21,56.21,0,0,0-10-.88,44.87,44.87,0,0,0-13.16,1.83,33.38,33.38,0,0,0-10.31,5,23,23,0,0,0-6.73,7.83,21.23,21.23,0,0,0-2.41,10,23.32,23.32,0,0,0,2,9.65,23.81,23.81,0,0,0,5.49,7.68,25,25,0,0,0,8.33,5.12,29,29,0,0,0,10.38,1.82,35.7,35.7,0,0,0,15.65-3.5,34,34,0,0,0,12.43-10.24l.43,4.24a10.7,10.7,0,0,0,3.73,6.58q3,2.49,8.56,2.49a43.82,43.82,0,0,0,8.62-1V929.51a4.75,4.75,0,0,1-3.58-1.46A6.9,6.9,0,0,1,3070.19,923.66Zm-19.59-2.33c0,2-1.07,3.9-3.21,5.55a17.18,17.18,0,0,1-6.95,4.68,25.52,25.52,0,0,1-9.43,1.76,13.78,13.78,0,0,1-9.36-3.3,10.43,10.43,0,0,1-3.8-8.26q0-5.25,4.82-8.7t12.43-3.43a41.43,41.43,0,0,1,7.9.8,49.14,49.14,0,0,1,7.6,2.12Z"/><path class="cls-14" d="M3119.69,930a14.71,14.71,0,0,1-3.88.59,7.34,7.34,0,0,1-5.84-2.34,9.64,9.64,0,0,1-2-6.58V839.44h-19.6v89q0,9.07,5,14t14.26,4.9a50.45,50.45,0,0,0,9.5-1,37.62,37.62,0,0,0,9.21-2.93l-2.63-14.91A25.9,25.9,0,0,1,3119.69,930Z"/><path class="cls-14" d="M3199.82,880.09a38.85,38.85,0,0,0-12.58-8.63,41.58,41.58,0,0,0-16.74-3.21,42.67,42.67,0,0,0-16.89,3.21,38.32,38.32,0,0,0-12.79,8.71,37.52,37.52,0,0,0-8.05,12.72,42.66,42.66,0,0,0-2.77,15.42,40.32,40.32,0,0,0,2.85,15.06,37.53,37.53,0,0,0,20.83,21.13,42.44,42.44,0,0,0,16.67,3.14q12.87,0,22.16-5.62A34.3,34.3,0,0,0,3206,927.61l-16.82-4.68a15,15,0,0,1-7.09,7.53,22.49,22.49,0,0,1-11,2.86,20.61,20.61,0,0,1-7.31-1.32,19.65,19.65,0,0,1-10.82-9.8,22.68,22.68,0,0,1-2.19-8H3210a15.36,15.36,0,0,0,.36-2.92c0-1.17.08-2.39.08-3.66a41.89,41.89,0,0,0-2.71-14.91A36.62,36.62,0,0,0,3199.82,880.09Zm-49.35,21.35a21,21,0,0,1,2-7.75,20.19,20.19,0,0,1,4.31-6,20.22,20.22,0,0,1,27.13-.07q5.63,5.19,6.36,13.82Z"/><rect class="cls-18" x="3312.18" y="632.19" width="522.71" height="522.71" rx="43.75"/><path class="cls-14" d="M3700.18,995.57a57.6,57.6,0,1,0,57.6,57.6A57.67,57.67,0,0,0,3700.18,995.57Zm0,104.06a46.46,46.46,0,1,1,46.45-46.46A46.51,46.51,0,0,1,3700.18,1099.63Z"/><polygon class="cls-14" points="3696.51 1060.08 3678.22 1041.79 3670.33 1049.67 3696.51 1075.84 3730.02 1042.32 3722.14 1034.44 3696.51 1060.08"/><rect class="cls-14" x="3389.11" y="1031.64" width="205.52" height="12.67"/><rect class="cls-14" x="3389.11" y="1062.04" width="97.43" height="12.67"/><path class="cls-14" d="M3700.18,835.94a57.61,57.61,0,1,0,57.6,57.6A57.67,57.67,0,0,0,3700.18,835.94Zm0,104.06a46.46,46.46,0,1,1,46.45-46.46A46.51,46.51,0,0,1,3700.18,940Z"/><polygon class="cls-14" points="3696.51 900.45 3678.22 882.16 3670.33 890.04 3696.51 916.22 3730.02 882.7 3722.14 874.81 3696.51 900.45"/><rect class="cls-14" x="3389.11" y="872.01" width="205.52" height="12.67"/><rect class="cls-14" x="3389.11" y="902.41" width="97.43" height="12.67"/><path class="cls-14" d="M3700.18,676.31a57.61,57.61,0,1,0,57.6,57.61A57.68,57.68,0,0,0,3700.18,676.31Zm0,104.06a46.46,46.46,0,1,1,46.45-46.45A46.51,46.51,0,0,1,3700.18,780.37Z"/><polygon class="cls-14" points="3696.51 740.82 3678.22 722.53 3670.33 730.42 3696.51 756.59 3730.02 723.07 3722.14 715.19 3696.51 740.82"/><rect class="cls-14" x="3389.11" y="712.38" width="205.52" height="12.67"/><rect class="cls-14" x="3389.11" y="742.79" width="97.43" height="12.67"/><path class="cls-5" d="M1994.2,617.86c-176,0-318.71,142.65-318.71,318.64a317,317,0,0,0,64.18,191.79,320.73,320.73,0,0,0,70,68,319.06,319.06,0,0,0,310.09,33.15,319.76,319.76,0,0,0,162.06-155.63,317.37,317.37,0,0,0,31-137.32C2312.84,760.51,2170.13,617.86,1994.2,617.86Z"/><path class="cls-7" d="M1920,954.21c-82.5-.28-148.52,109.35-180.3,174.08a320.73,320.73,0,0,0,70,68,317,317,0,0,0,70.46,37.79C1923.59,1147.91,2010.74,954.82,1920,954.21Z"/><path class="cls-7" d="M2027.3,765.33l-45.07,130.79s32.84,106.71,139.28,101.64S2262,888.49,2188.83,811.4,2027.3,765.33,2027.3,765.33Z"/><path class="cls-7" d="M2132.19,961.66c-13.67-5.88-39.44-11.14-69-14.08-29.73-3-63-3.69-90.63-.34-18.8,2.32-36.23,4-52.63,7-30.83,5.67-57,16.06-79.28,44.22-15.25,19.2-25,106.69-31,197.87a319.06,319.06,0,0,0,310.09,33.15,322,322,0,0,0,47.91-25.63C2159.87,1086.87,2146.34,967.74,2132.19,961.66Z"/><path class="cls-4" d="M1908.33,861c-9.13-1.29-18.55,11.86-21,29.36s2.92,32.75,12.06,34,18.55-11.85,21-29.35S1917.47,862.28,1908.33,861Z"/><path class="cls-7" d="M2063.23,947.58a134.58,134.58,0,0,0-14.63,0l71.15,281.87a319.76,319.76,0,0,0,162.06-155.63C2200.13,964.8,2100.68,949.35,2063.23,947.58Z"/><path class="cls-7" d="M1922.21,693c-58.93,3.13-35.47,41-35.47,41s-12,10.64-14.2,40.2c-3.17,43.59,24.5,68.92,24.5,68.92l178.32-19.35s1.29-65.22-16.39-93.88C2029,681.19,1981.14,689.83,1922.21,693Z"/><path class="cls-14" d="M2017.94,883l-74.72,21.93L1940,968.28s11,15.39,42.15,10.68c41.78-6.32,53.31-27.86,53.31-27.86l-5-71.83Z"/><path class="cls-4" d="M1941.37,940.67c18-2.87,73.49-21.71,87.08-58.7a23.35,23.35,0,0,0,1.61-7.07l-86.84,30Z"/><path class="cls-14" d="M2059,803.92c-15.13-5-31.59,7-31.59,7l11.4-27.12s-68.41-127.12-122.92-41.51c0,0-31.47,92.67-13.15,141.68s63.39,37.23,89.93,25.21,37.83-29.88,37.83-29.88,26.29,6.5,41.38-18.72S2074.11,808.94,2059,803.92Z"/><path class="cls-7" d="M1931.75,702.23s-13.08-2.84-23.47,17.81-1.57,50.67-1.57,50.67l22.41-46.62s-.79,17.78,29.91,58,68.37,28.83,68.37,28.83l19.69-29.77-28.69-65.75Z"/><path class="cls-14" d="M1942.33,950.84l-35.9,6.27s.76,48.11,68.3,54.19,112.89-61.22,112.89-61.22l-70.93-8.6Z"/><path class="cls-4" d="M2045.45,858.7c-9.14,1.26-14.59,16.48-12.18,34s11.78,30.7,20.92,29.44,14.6-16.48,12.18-34S2054.6,857.44,2045.45,858.7Z"/><path class="cls-3" d="M597.44,617.86c-176,0-318.64,142.65-318.64,318.64a316.68,316.68,0,0,0,34.93,145.11,296.46,296.46,0,0,0,16.81,28.84c2.46,3.83,5.06,7.52,7.66,11.21a319,319,0,0,0,74.09,74.16A305.57,305.57,0,0,0,456,1222.13c2.39,1.16,4.78,2.33,7.18,3.42a320.29,320.29,0,0,0,93,27,.61.61,0,0,1,.34.07c1.57.2,3.14.41,4.78.54a331.1,331.1,0,0,0,36.09,2,318.8,318.8,0,0,0,227.74-95.76c.68-.68,1.43-1.44,2.12-2.19l.82-.82c.75-.75,1.43-1.5,2.12-2.32A317.21,317.21,0,0,0,916.08,936.5C916.08,760.51,773.44,617.86,597.44,617.86Z"/><path class="cls-7" d="M694.29,887.7S571.11,779.23,532.4,810c0,0-102.9,39.36-108.15,155.82-7.59,168.34,194.16,129.32,194.16,129.32s114.26,11.85,145.87-72.39S694.29,887.7,694.29,887.7Z"/><path class="cls-4" d="M606.26,958.1a236.77,236.77,0,0,0-25.77,2.39,3.28,3.28,0,0,1-.82.14c-124,19.41-183.1,138.54-206.21,202.45a311.15,311.15,0,0,0,38.83,32.74A305.57,305.57,0,0,0,456,1222.13c2.39,1.16,4.78,2.33,7.18,3.42a320.29,320.29,0,0,0,93,27,.61.61,0,0,1,.34.07c1.57.2,3.14.41,4.78.54a331.1,331.1,0,0,0,36.09,2,316.2,316.2,0,0,0,158.78-42.38c1.5-.82,3-1.71,4.44-2.6,1.09-.68,2.25-1.37,3.35-2.05a317.47,317.47,0,0,0,61.17-48.73c.68-.68,1.43-1.44,2.12-2.19C805.36,1084.68,746.1,953,606.26,958.1Z"/><path class="cls-4" d="M686.91,997.06c-3.21-1.37-6.56-2.66-10-4a251.63,251.63,0,0,0-82.29-15.45c-.75-.07-1.5-.07-2.25-.07l-59.6,44.22-121.39,90.09s.34,37,1,84A305.57,305.57,0,0,0,456,1222.13c2.39,1.16,4.78,2.33,7.18,3.42a320.29,320.29,0,0,0,93,27,.61.61,0,0,1,.34.07c1.57.2,3.14.41,4.78.54a331.1,331.1,0,0,0,36.09,2,316.69,316.69,0,0,0,163.22-45c-12.85-91.65-27.07-185.84-27.07-185.84S717.19,1009.91,686.91,997.06Z"/><path class="cls-14" d="M663.16,928.89,590.91,915.8l-12.12-2.21,2.53,67.84s13,19.05,52.77,20.79c29.65,1.3,39.79-5.77,39.79-5.77l-5.41-34.21Z"/><path class="cls-4" d="M578.79,910.36a22.32,22.32,0,0,0,2.21,6.47c16.45,33.32,70.34,44.52,87.47,45.41l-5.31-33.35Z"/><path class="cls-14" d="M561.43,824.91l13.4,24.29s-16.64-9.61-30.31-3.39-23.08,32.26-6.41,54.39,40.67,13.41,40.67,13.41,12.36,15.61,38.45,24.23S686.75,953,699,905.2s-26.51-131.51-26.51-131.51C612.85,698.88,561.43,824.91,561.43,824.91Z"/><path class="cls-7" d="M561.93,750c-30.37,33-28.51,62.12-28.51,62.12l41.41,37.11s64-12.31,48.46-70.57c0,0,19.41-3,39.67,9.29s24.41,24.17,24.41,24.17,12.53-31.6-14.93-59.49S592.3,717,561.93,750Z"/><path class="cls-4" d="M676.73,993.1c-38.55,16.61-66.57-.41-82.16-15.52a95.36,95.36,0,0,1-14.08-17.09l-.27-.47-.55.61L533.4,1014.7l-.68,7L512,1243.53a314.63,314.63,0,0,0,44.22,9,.61.61,0,0,1,.34.07c1.57.2,3.14.41,4.78.54,55.44-95.27,129.11-228.21,125.56-256.1C686.23,992,683.08,990.36,676.73,993.1Z"/><path class="cls-4" d="M741,1085.5a3.72,3.72,0,0,0-.68,5c.34.48,30.69,44.84,15.86,122.28,1.5-.82,3-1.71,4.44-2.6,1.09-.68,2.25-1.37,3.35-2.05,12.85-76.89-16.82-119.95-18.18-121.86A3.34,3.34,0,0,0,741,1085.5Z"/><path class="cls-4" d="M571.23,898.21a12.15,12.15,0,1,0,12.15,12.15A12.14,12.14,0,0,0,571.23,898.21Z"/><circle class="cls-4" cx="1292.51" cy="953.55" r="488.92" transform="translate(-295.69 1193.23) rotate(-45)"/><path class="cls-4" d="M1588.14,1213.34l-199.07,117.84s179.71,266.46,433.29,104.32C1822.36,1435.5,1611.77,1377.54,1588.14,1213.34Z"/><g class="cls-19"><path class="cls-20" d="M1560.5,1146.46c-43.83-40.18-107.31-158.06-104.5-159.12l-292.56,52.19,12.18,707.32h418.79l-25.56-119.3s23.13-161.92,30.43-294.62c32.58-47,42.15-83.62,39.71-94.58S1616.41,1195.58,1560.5,1146.46Z"/><path class="cls-21" d="M1473.67,997.09s6.68-4,5.79-8.47-12.48-4.45-12.48-4.45,6.69-2.23,5.35-8.47-13.81-8-13.81-8,3.11-9.8-3.12-14.26-25.4.45-25.4.45,7.13-5.8,5.34-11.59-16,1.34-16,1.34,5.35-8.47,2.23-14.26-12,4.46-12,4.46,2.67-7.58-.45-11.14-4.9.44-11.58,6.23c0-2.67-11.59-5.79-11.59-5.79s4.9-6.68,3.12-11.14-13.37,3.12-13.37,3.12,5.35-13.81-.44-15.59-11.59,8.91-11.59,8.91l-12.92-6.69s9.8-11.58,6.24-16.48-25.84,9.35-25.84,9.35,6.68-10.69,4.45-13.36-20,7.57-20,7.57,7.13-5.79,4-11.58-18.27,7.57-18.27,7.57,5.35-9.36,0-13.81-16,7.57-16,7.57,0-6.68-4.46-11.14S1270,880.35,1270,880.35s-2.67-7.58-7.58-11.59-6.68,13.81-6.68,13.81-8.91-11.58-14.7-10.25.44,16,.44,16-8.91-7.13-12.92-6.24-3.12,16.48-2.67,17.82c0,0,25.39,35.2,49.9,45.45S1411.88,984,1411.88,984s-3.27,10-5.05,15.74,18.27,1.34,18.27,1.34-5.8,10.69-5.8,15.6,11.14-4.46,11.14-4.46,3.12,17.38,7.58,20.94,10.25-11.58,10.25-11.58,4,20.05,12.47,21.39,1.34-24.51,1.34-24.51,7.57,15.59,12.48,14.7-1.79-20.05-1.79-20.05,8.92.45,10.7-3.56S1473.67,997.09,1473.67,997.09Z"/><path class="cls-15" d="M1485.49,824.29c-.4-1.49-.64-2.26-.64-2.26Z"/><path class="cls-15" d="M1430.23,481.3c-39.93-68.45-152.64-108.3-274.33-28.44,0,0-121.67,42.14-135,243.68s-26.74,234.91-26.74,234.91l93.17,3.8,9.5-47.53,9.51,53.24s244.05-7.34,395.43,3.67c-1.66-63.31-13.41-109.8-16.3-120.34l-.64-2.26s.24.77.64,2.26l33.41,118.44s34.23,5.7,53.24,5.7c-15.21-43.73-47.08-164.2-56.59-221.24S1470.16,549.75,1430.23,481.3Z"/><path class="cls-11" d="M1546.33,684c-6.81,0-17.4,4.49-17.4,4.49l-112.19,84s-8.51,59.92-12.53,110.57c-2.32,29.61-3.17,56,.08,65.57,4.33,12.68,26.13,35.8,47.24,56.05l.15.08c21.73,20.8,37,57.75,37,57.75s45.52,24.83,56,20.89.93-69.59.93-69.59-6.18-14.85-6.18-24.05,35.41-149.38,35.41-149.38S1553.21,684,1546.33,684Z"/><path class="cls-22" d="M1460.65,845.8l-56.44,37.27c-2.32,29.61-3.17,56,.08,65.57,4.33,12.68,26.13,35.8,47.24,56.05l-24.61-25,77.65-17.32L1553,851.62l-20.26-71Z"/><path class="cls-10" d="M1537.08,776.59c-3.9,28.65,11.23,71.7,11.23,71.7v9.28s-46.78,67.56-42,96,33.11,36.21,33.11,36.21c6.73-42.37,44-126.12,44-126.12l-39.29-106.21Z"/><path class="cls-23" d="M1422.2,682.5l-52.13,252,124.28,27.94,52-270.17S1473.35,673.71,1422.2,682.5Z"/><polygon class="cls-24" points="1494.35 962.43 1504.61 962.43 1552.95 712.04 1546.36 692.26 1494.35 962.43"/><path class="cls-25" d="M1425.25,688.85l-44.44,232,113.54,23.44,46.15-242.73C1477.5,684.88,1425.25,688.85,1425.25,688.85Z"/><path class="cls-26" d="M1562.85,998.47s-44.95,18.89-63,28.49c-17.55,9.35-39.87,5.79-41.75,2.56.64,2.16,7.6,20.06,16.95,51.54,21.48,73.12,58.6,251.35,90.41,368s86.3,103,119.26,114c12.54,4.19,124.56-29.15,100.71-95.41C1699.14,1227.77,1590.76,1083,1562.85,998.47Z"/><path class="cls-10" d="M1407.86,848.13H1224.15c5.56,16.1,10.34,36.78,16.4,60.24,23,88.48-46.53,128.94-46.53,128.94s231.74,113.93,229.65-.3C1423.67,1037,1411.94,902.5,1407.86,848.13Z"/><path class="cls-27" d="M1261.73,891.34c-33.41-2.16,185.29,205.86,151,5.47C1412.75,896.81,1295.13,893.5,1261.73,891.34Z"/><path class="cls-10" d="M1443.2,613.42c-28.29-102.54-104.83-162-216.66-131.17s-130.19,126.38-101.9,228.92c2.42,8.75,81.12,84.73,84.72,92.81,0,0,24.05,166.95,191.5,122.54,8-2.14,16-4.77,20.93-11.14,87.35-112.69,33.25-223.79,33.09-224.5C1453.66,685.48,1443.2,613.42,1443.2,613.42Z"/><path class="cls-15" d="M1310.13,802.49l-3.55,5c26.35,18.62,49.49,21.31,65.28,19.8,13-1.24,21-5.32,21.73-5.7l-2.86-5.43C1389.29,816.92,1355,834.18,1310.13,802.49Z"/><path class="cls-28" d="M1309.89,654.87c-8.69-7.17-45.8,14.17-47.29,15.29-11.33,8.51-6.09,16.25-4,18.78,1.22,1.46,5.45-1.5,16.32-5.6,23.18-8.75,33.81-6.57,37.41-14.46C1314.44,664.21,1313.34,657.73,1309.89,654.87Z"/><path class="cls-28" d="M1429.23,642.84c-1.48-.39-34.26-6.22-38.66,1.94-1.75,3.25-.58,8.53,2.48,11.43,5.19,4.91,12.62-.05,33-.55,9.56-.23,13.71.71,14.18-.78C1441.05,652.31,1440.51,645.83,1429.23,642.84Z"/><path class="cls-15" d="M1385.28,721.64l-3.71,4.89c12.27,9.29,18.33,18.27,17.54,26-1,9.71-12.48,15.24-12.6,15.3l2.61,5.56c.6-.28,14.69-7,16.09-20.19C1406.28,743.07,1399.57,732.46,1385.28,721.64Z"/><path class="cls-10" d="M1158.69,728.66c-29.77,9.56-45.33,44-34.75,77s43.28,51.93,73,42.38,45.34-44,34.76-77S1188.46,719.11,1158.69,728.66Z"/><path class="cls-15" d="M1176.74,763c-12.72-4.09-23.61,2.44-24.07,2.72l3.2,5.24c.08,0,9-5.34,19.07-2.09,7.46,2.42,13.75,8.88,18.76,19.21-7.2,1.73-22.11,6.52-26,17.25l5.78,2.08c3.16-8.8,19.15-13.13,25-14.06l3.89-.61-1.54-3.62C1194.93,775,1186.8,766.21,1176.74,763Z"/><path class="cls-11" d="M1203,749.26s-.07,28.63,5.25,55c0,0,6.17,42.61,33.84,79.05A71.08,71.08,0,0,0,1203,749.26Z"/><path class="cls-11" d="M1434.14,777.76a71,71,0,0,0,30.51,51.82A222.41,222.41,0,0,0,1463,713.65,71,71,0,0,0,1434.14,777.76Z"/><path class="cls-15" d="M1292.29,706.87c-4.26,1.27-6,8.22-3.79,15.54s7.39,12.22,11.65,11,6-8.22,3.79-15.54S1296.56,705.61,1292.29,706.87Z"/><path class="cls-15" d="M1417.72,687.2c-3.88,1.15-5.43,7.49-3.45,14.16s6.73,11.14,10.62,10,5.43-7.49,3.45-14.16S1421.61,686,1417.72,687.2Z"/><path class="cls-20" d="M1497.74,1278.72c-3.87-13.51-29.52-107.28-47.2-168.17-1-3.49-2-6.88-3-10.13-5.48-18.64-9.91-33-12.22-39.16-.62-1.61-1.23-3.27-1.88-5v0c-2.79-7.31-5.85-15.36-8.81-23.15-7.47-19.53-14.26-37.34-14.26-37.34s-25.89-6.2-57.59-13.32c-44.74-10.1-101.15-22-112.62-21-8.46.75-54.31,15.61-105.74,34.79-68,25.38-145.63,58.36-159.84,76.6-7,9-4.46,45.74,2.76,94,.62,4,1.26,8.16,1.94,12.35,19.93,124.47,66.61,311.6,66.61,311.6s-16.06,8.91-17,12.49,15.15,13.37,15.15,13.37-33.87,262.9-30.3,264.67c2.26,1.13,189.39,4.76,335.34,5.91q14.63.12,28.58.19c32,.19,60.94.22,84.28.06,28.8-.22,48.94-.76,55.33-1.7,8-7.14-6.25-200.53-6.25-237.94S1503.08,1297.41,1497.74,1278.72Z"/><polygon class="cls-17" points="1289.78 1205.92 1301.67 1257.02 1329 1255.83 1315.93 1197.61 1289.78 1205.92"/><path class="cls-17" d="M1497.74,1278.72c-5.35-18.73-52.59-191.62-62.4-217.46-.62-1.61-1.23-3.27-1.88-5v0c-2.79-7.31-5.85-15.36-8.81-23.15-7.47-19.53-14.26-37.34-14.26-37.34s-25.89-6.2-57.59-13.32c28.53,83,90.38,264.62,98.58,301.93,9.24,57.5,10.5,408.85,10.63,503.13,28.8-.22,48.94-.76,55.33-1.7,8-7.14-6.25-200.53-6.25-237.94S1503.08,1297.41,1497.74,1278.72Z"/><path class="cls-17" d="M1240.18,961.45c-8.46.75-54.31,15.61-105.74,34.79,56.75,35.5,193.2,149.31,219.52,147.88,18.56-1,45.2-90.57,70.69-111-7.47-19.53-14.26-37.34-14.26-37.34S1259.79,959.65,1240.18,961.45Z"/><path class="cls-21" d="M1388.11,983.72l-5.94-5.34s12.77-11.59,6.53-12.78-14.85,5.65-14.85,5.65,8.91-14.56,0-16.34-13.66,7.13-13.66,7.13,3.27-18.12-17.23-10.1c8.61-8.62,8.61-14.56,3.86-15.15s-16.34,9.5-16.34,9.5,3-12.47-9.8-6.83c3.27-9.51,5.64-13.37,1.78-13.37s-14.85,8.91-14.85,8.91,1.48-9.2-1.78-8.31-7.13,8-7.13,8-1.79-9.21-13.67-7.43c7.73-8.32,6.54-13.07,3-13.07s-11.58,8.32-11.58,8.32,1.78-9.51-7.13-5.65c6.53-8.61,9.8-12.18,4.75-12.77s-14.85,5.35-14.85,5.35,2.67-13.37-3-13.37-13.67,9.51-13.67,9.51,1.49-19.31-4.45-16.34-7.73,11.58-7.73,11.58-1.78-16.63-5.35-13.07-3.56,10.7-3.56,10.7-4.75-14.86-9.51-11.59-3.56,18.72-3.56,18.72-13.37-13.37-17.53-6.54,5.05,16.93,5.05,16.93l-2.67,11.88s-9.8-14.55-13.37-8.61,6.83,19,6.83,19-23.46,3.57-22,10.4,12.48,5.64,12.48,5.64-13.67,8.91-7.13,15.15,15.15.6,15.15.6-10.1,13.37-2.38,16.93,13.67-4.46,13.67-4.46l4.16,4.76s-3,16.34,2.08,16.63,10.69-7.13,10.69-7.13-2.08,20.2,4.46,19.61a11.05,11.05,0,0,0,8.91-5.64s.59,13.66,7.13,13.07,8-3.87,8-3.87l6.53,4.46s-3.26,11.88,2.68,13.66,12.18-3.56,12.18-3.56-3.87,15.45,3,18.71,14.26-9.2,14.26-9.2l7.12,5s-7.42,11.28-2.08,13.66,14.86-5,14.86-5,.59,19.61,6.83,17.23,7.72-14.56,7.72-14.56,7.13,8.92,11.29-3.56c7.73,16,11.89,22,15.75,19.9s.29-20.79.29-20.79,11,12.18,16,7.72-.89-19.31-.89-19.31,19,4.76,21.1-3.56-9.51-12.78-9.51-12.78l4.45-3s15.15,6,18.13,0-10.4-11.88-10.4-11.88,18.42,3.57,17.23-3.86-11.29-10.69-11.29-10.69,27.63-6,24.66-14.56S1388.11,983.72,1388.11,983.72Z"/><path class="cls-17" d="M1287.4,1198.49c-30,2.31-248.42-25.17-310-31.64.62,4,1.26,8.16,1.94,12.35,68.38,11.28,292.07,36.23,312.56,32.66,16.53-2.87,126.48-77.78,158.68-101.31-1-3.49-2-6.88-3-10.13C1417.88,1122.53,1317,1196.23,1287.4,1198.49Z"/><path class="cls-17" d="M1089.56,1520.81l-87.79,10.08L996.61,1518s21.95,1.29,23.24-6.45-10.33-19.37-10.33-19.37,15.5-5.17,18.08-14.21,76.19-255.68,77.48-276.34-90.51-146.47-130.48-128.76c-5.86,2.59-29.64,52.57-29.64,52.57s-25.83,6.46-25.83,10.34,3.87,31,3.87,31S709.94,1576.08,724.14,1629c42.62,40,175.62,91.69,218.23,95.56s192.41-56.82,192.41-56.82L1105.08,1527Z"/><path class="cls-15" d="M1357.46,451.27c-79.85-43.74-251,1.9-270,104.57s43.73,180.63,58.94,178.73,57,22.81,57,22.81-5.7-85.56,1.91-91.26,148.3-58.94,148.3-58.94l-7.84-90.1L1388,596.91l58.8,4.56S1437.32,495,1357.46,451.27Z"/></g><polygon class="cls-20" points="1326.85 1527.71 1305.96 1495.46 1285.08 1527.71 1247.95 1537.61 1272.17 1567.45 1270.11 1605.82 1305.96 1592 1341.82 1605.82 1339.76 1567.45 1363.98 1537.61 1326.85 1527.71"/><polygon class="cls-20" points="1186.29 1527.71 1165.4 1495.46 1144.51 1527.71 1107.38 1537.61 1131.6 1567.45 1129.55 1605.82 1165.4 1592 1201.26 1605.82 1199.2 1567.45 1223.42 1537.61 1186.29 1527.71"/><polygon class="cls-20" points="1467.41 1527.71 1446.53 1495.46 1425.64 1527.71 1388.51 1537.61 1412.73 1567.45 1410.67 1605.82 1446.53 1592 1482.38 1605.82 1480.32 1567.45 1504.54 1537.61 1467.41 1527.71"/><polygon class="cls-20" points="2015.05 1309.79 1994.16 1277.54 1973.27 1309.79 1936.14 1319.69 1960.37 1349.52 1958.31 1387.89 1994.16 1374.08 2030.02 1387.89 2027.96 1349.52 2052.18 1319.69 2015.05 1309.79"/><polygon class="cls-20" points="550.44 1309.79 529.55 1277.54 508.66 1309.79 471.53 1319.69 495.75 1349.52 493.69 1387.89 529.55 1374.08 565.41 1387.89 563.35 1349.52 587.57 1319.69 550.44 1309.79"/><polygon class="cls-20" points="686.22 1309.79 665.34 1277.54 644.45 1309.79 607.32 1319.69 631.54 1349.52 629.48 1387.89 665.34 1374.08 701.19 1387.89 699.13 1349.52 723.35 1319.69 686.22 1309.79"/></svg>