<svg xmlns="http://www.w3.org/2000/svg" viewBox="0 0 4680 3120"><defs><style>.cls-1,.cls-6{fill:#fff;}.cls-1{opacity:0;}.cls-2{fill:#d37535;}.cls-3{fill:#f29651;}.cls-4{fill:#ffebbd;}.cls-5{fill:#105243;}.cls-7{fill:#d9dfe8;}.cls-8{fill:#b7c0ce;}.cls-9{fill:#e5a10a;}.cls-10{fill:#c18205;}.cls-11{fill:#ffc82b;}.cls-12{fill:#efd49e;}.cls-13{fill:#c7c365;}.cls-14{fill:#593b1f;}.cls-15{fill:#492e17;}.cls-16{fill:#063529;}.cls-17{fill:#e2cca6;}.cls-18{fill:#c48405;}.cls-19{fill:#ffcc5a;}.cls-20{fill:#ffe0a1;}.cls-21{fill:#777c84;}.cls-22{fill:#cbd2dd;}.cls-23{fill:#e6ebf4;}.cls-24{fill:#16292d;}.cls-25{fill:#472c16;}.cls-26{fill:#f5ae97;}.cls-27{fill:#ed856e;}.cls-28{fill:#351314;}.cls-29{fill:#072c35;}.cls-30{fill:#cb6655;}.cls-31{fill:#020202;}.cls-32{fill:#042b20;}.cls-33{fill:#b6ccc0;}.cls-34{fill:#cad1dd;}.cls-35{fill:#939caa;}.cls-36{fill:#6f7987;}.cls-37{fill:#bec4cc;}</style></defs><title>10</title><g id="_10" data-name="10"><rect class="cls-1" width="4680" height="3120"/><path class="cls-2" d="M3644,926.76l-64.28,18.83-11.21,13.91,1.92,10.06L3319.27,1011l-11.22-17.15h-97.5v42l.27.08a11.45,11.45,0,0,0,7.45,13.79l123.19,42.85c-623,315.71-999.26,405.68-999.26,405.68l21-158.13v-43.67l-67.72,53.79,5.49,16,11.25,2.67c-435.09,239.47-1137.65,487.6-1304.48,545.22a62.34,62.34,0,0,0-41.69,52.55c-7.67,74.65-14.13,240.17,54.85,381.18a62.46,62.46,0,0,0,76.88,31.52c149.88-52.93,501.72-169.86,833.8-374l39-197.39,234.55-92.17-11.81,54.9-13.86,20.75v43.67S3085,1503.59,3472.3,1210.46l18.19,135.19c1.63,12.1,18.43,13.81,22.45,2.29l130.39-373a11.39,11.39,0,0,0,.47-5.94l.2-.18Z"/><path class="cls-3" d="M3630.49,916l-410.3,67.63c-11.87,2-13.28,18.45-1.92,22.41l123.19,42.85c-623,315.71-999.26,405.68-999.26,405.68l21-158.13c-428.89,248-1181.95,514-1355.46,574a62.34,62.34,0,0,0-41.69,52.55c-7.67,74.65-14.13,240.17,54.85,381.18a62.46,62.46,0,0,0,76.88,31.52c149.88-52.93,501.72-169.86,833.8-374l39-197.39,234.55-92.17-25.67,119.32S3085,1459.92,3472.3,1166.79L3490.49,1302c1.63,12.1,18.43,13.81,22.45,2.28l130.39-373A11.6,11.6,0,0,0,3630.49,916Z"/><path class="cls-4" d="M1285.92,2077.4a166.52,166.52,0,0,1-10.57,58.82c-20,53.17-66.36,90.41-120.35,90.41a118.09,118.09,0,0,1-64-19c-39.94-25.56-66.93-74.29-66.93-130.22,0-82.42,58.62-149.24,130.92-149.24S1285.92,1995,1285.92,2077.4Z"/><ellipse class="cls-5" cx="1151.13" cy="2032.52" rx="46.96" ry="52.42"/><path class="cls-5" d="M1275.35,2136.22c-20,53.17-66.36,90.41-120.35,90.41a118.09,118.09,0,0,1-64-19c5.49-60.6,51.33-107.91,107.09-107.91C1228.42,2099.71,1255.8,2113.7,1275.35,2136.22Z"/><path class="cls-6" d="M1331,1949.89q-13.11,4.9-24.43,3.32a38.36,38.36,0,0,1-19.89-8.84q-8.58-7.27-13.41-19.7t-3.33-23.28a36.47,36.47,0,0,1,8.77-19.43q7.32-8.46,20.35-13.31a51.73,51.73,0,0,1,12.15-2.88,43.71,43.71,0,0,1,11.75.08,9.16,9.16,0,0,1,6.31,3.4,8.56,8.56,0,0,1,1.73,5.89,8,8,0,0,1-2.56,5.32c-1.54,1.43-3.73,2-6.48,1.53a29.94,29.94,0,0,0-8.34-.21,36.09,36.09,0,0,0-8,2q-11.57,4.32-14.91,13t1.41,20.92q4.77,12.19,13.28,16.59t20.12.08a35,35,0,0,0,7.17-3.71,32,32,0,0,0,6.29-5.57c1.92-2.18,4-3.26,6.09-3.25a8.19,8.19,0,0,1,5.49,2.05,8.11,8.11,0,0,1,.84,11.55,39.48,39.48,0,0,1-8.77,8.3A51.66,51.66,0,0,1,1331,1949.89Z"/><path class="cls-6" d="M1404.88,1922c-8.53,3.26-19.78,5.65-29.6,1.38-9.33-4-15.65-12.82-19.17-22.14q-7.53-19-15-38c-1.11-2.82-1.21-5.29-.29-7.39s2.81-3.69,5.7-4.79q8.76-3.32,12.25,5.49,7.53,19,15.12,38,3.83,9.59,10.23,12.74t14.85-.09c11.59-3.7,14.38-15.62,9.47-25.87q-7.64-19-15.22-38-3.51-8.81,5.22-12.17c2.8-1.07,5.24-1.14,7.32-.18s3.69,2.84,4.82,5.66q7.59,18.93,15.24,37.84c3.86,8,5.22,20.6,1.54,28.87C1423.11,1912.94,1413.24,1918.77,1404.88,1922Z"/><path class="cls-6" d="M1483.9,1891.33a73.69,73.69,0,0,1-15.2,4.15,51.06,51.06,0,0,1-14.49.37,8.33,8.33,0,0,1-5.83-2.95,8.77,8.77,0,0,1-1.9-5.64,7.31,7.31,0,0,1,2.11-5.19,7.45,7.45,0,0,1,6.25-1.8,44.88,44.88,0,0,0,11.66-.17A54.87,54.87,0,0,0,1478,1877q8.18-3.21,10.72-7.12a7.88,7.88,0,0,0,1-7.68,6.65,6.65,0,0,0-4.59-4.12c-2.17-.61-5.52-.53-10,.21l-13.91,2.36c-12.24,2.87-25.2-1.42-30.28-13.43a23.22,23.22,0,0,1-1.19-14.66,28.09,28.09,0,0,1,7.86-13.17,45.58,45.58,0,0,1,15.63-9.72,56.22,56.22,0,0,1,13-3.38,41.65,41.65,0,0,1,12.51.16,7.9,7.9,0,0,1,5.26,2.94,8.36,8.36,0,0,1,1.69,5.27,6.67,6.67,0,0,1-2.21,4.87c-1.42,1.33-3.65,1.93-6.58,1.7a36.65,36.65,0,0,0-9,.34,44.32,44.32,0,0,0-8.95,2.48c-4.75,1.87-8.06,4.21-9.92,7a8.8,8.8,0,0,0-1,8.58,7.14,7.14,0,0,0,4.5,4.3c2.13.71,5.32.71,9.58,0l13.88-2.36c12.16-2,25.26,0,30.61,12.41a22.63,22.63,0,0,1,1.27,14.41,27.46,27.46,0,0,1-7.81,13A47.38,47.38,0,0,1,1483.9,1891.33Z"/><path class="cls-6" d="M1554.11,1863.19q-4.3,1.72-7.53.31a9.88,9.88,0,0,1-5-5.63q-11.67-28-23.23-56.07c-8,3.19-12,4.78-19.94,8q-7.32,2.91-10.23-4.2t4.42-10q28.62-11.38,57.18-22.93,7.28-3,10.22,4.13t-4.34,10c-8,3.22-11.92,4.82-19.88,8q11.61,28,23.31,56c1.18,2.8,1.35,5.27.53,7.41S1557,1862,1554.11,1863.19Z"/><path class="cls-6" d="M1629.85,1832.66a44.09,44.09,0,0,1-22.66,3.39,38.44,38.44,0,0,1-19.65-8.44q-8.7-7-13.78-19.18t-4-23.17a37.17,37.17,0,0,1,7.77-19.54q6.64-8.54,18.37-13.35t22.57-3.47a38.07,38.07,0,0,1,19.51,8.32q8.65,7,13.79,19t4.17,23.19a37.12,37.12,0,0,1-7.65,19.73Q1641.66,1827.8,1629.85,1832.66Zm-6.19-14.57q9.87-4.06,12.53-13.15t-2.45-21.1q-5.16-12.15-13.45-16.56t-18.24-.33q-9.72,4-12.46,13T1592,1801q5.07,12,13.5,16.57T1623.66,1818.09Z"/><path class="cls-6" d="M1690.42,1807.23a8.39,8.39,0,0,1-6.72.35,8.93,8.93,0,0,1-4.53-5q-13.71-31.87-27.29-63.81-1.65-3.85-.4-6.78a9,9,0,0,1,5.14-4.55,10.06,10.06,0,0,1,5.84-.89,13.65,13.65,0,0,1,5.44,2.78q21.11,16.56,42.29,33,2.6-26.55,5.17-53.09a13.45,13.45,0,0,1,1.74-5.83,9.77,9.77,0,0,1,4.58-3.51,7.79,7.79,0,0,1,11.27,4.55q13.8,31.82,27.73,63.58,3.46,7.9-4.32,11.25c-5.26,2.25-9.06.74-11.36-4.53q-8.8-20.16-17.56-40.32-2.07,20.08-4.15,40.18a11.58,11.58,0,0,1-1.48,4.34,7.27,7.27,0,0,1-3.5,2.72,7.67,7.67,0,0,1-4.46.65,10.31,10.31,0,0,1-4.15-1.95q-16.1-12.2-32.13-24.44,8.61,20,17.26,40.07Q1698.25,1804,1690.42,1807.23Z"/><path class="cls-6" d="M1788.6,1764.25q-9,3.88-12.91-5-13.1-29.77-26.09-59.59-3.87-8.9,5.07-12.75,19.21-8.31,38.41-16.69,6.7-2.92,9.6,3.64t-3.77,9.62q-15.53,6.78-31.06,13.52c3.17,7.24,4.75,10.86,7.93,18.1q14.29-6.19,28.58-12.44,6.83-3,9.79,3.7t-3.88,9.67q-14.3,6.24-28.61,12.45c3.39,7.72,5.1,11.57,8.5,19.29q15.61-6.78,31.2-13.58,6.75-3,9.67,3.61t-3.77,9.63Q1807.94,1755.88,1788.6,1764.25Z"/><path class="cls-6" d="M1855.66,1736.13c-2.8,1.23-5.28,1.41-7.44.52a9.83,9.83,0,0,1-5.09-5.48q-13.56-30.33-27-60.72-3.82-8.65,4.84-12.47,13.32-5.87,26.61-11.78,12.92-5.73,22.68-2.64t14.79,14.22q3.87,8.63,2,16.34t-9.15,13.47q6.6-.85,13.34,4.14c5,3.8,7.48,5.7,12.48,9.49q4.18,3.12,4.37,7.3c.13,2.79-1.65,5-5.31,6.64a11.53,11.53,0,0,1-6.63,1.13,13.44,13.44,0,0,1-6.08-2.92c-7.72-5.84-11.58-8.77-19.27-14.62a10,10,0,0,0-5.93-2.35,15.1,15.1,0,0,0-6.21,1.45l-8.35,3.7c4,8.84,5.93,13.25,9.89,22.08,1.25,2.77,1.5,5.23.75,7.4S1858.45,1734.89,1855.66,1736.13Zm-10.8-46.82,15.26-6.77q13.71-6.09,8.81-17t-18.53-4.72c-6.09,2.71-9.14,4.06-15.24,6.75C1839,1676.25,1841,1680.6,1844.86,1689.31Z"/><path class="cls-6" d="M1324.84,2003.74q58-22.85,115.64-46.35t115.09-47.71q57.57-24.27,114.86-49.19,57.12-24.87,113.93-50.41t113.34-51.75l14-6.5c3.92-1.82,4.91-7.46,2.87-10.94-2.35-4-7-4.7-11-2.87q-56.2,26.16-112.73,51.68T1677.54,1840q-56.8,24.84-113.92,49-56.67,24-113.63,47.29-57.39,23.49-115,46.3l-14.36,5.67c-4,1.58-6.82,5.35-5.58,9.84,1,3.82,5.79,7.18,9.84,5.59Z"/><path class="cls-6" d="M1344.77,2065.71q43.39-15,86.39-31t85.57-33.27q43.15-17.42,85.84-35.93,42.12-18.26,83.75-37.6t82.76-39.75l10.37-5.17c3.75-1.87,5.1-7.47,2.87-10.94a8.2,8.2,0,0,0-11-2.87q-40.87,20.44-82.25,39.84-41.56,19.49-83.63,37.89c-28.33,12.39-54.43,23.42-83,35.07q-42.33,17.22-85.09,33.37t-85.91,31.18q-5.46,1.9-10.94,3.79c-4,1.37-7,5.55-5.59,9.85,1.27,3.91,5.61,7,9.85,5.58Z"/><path class="cls-6" d="M1364.8,2135.08q23.37-8.46,46.59-17.31t46.3-18.09q23.07-9.25,46-18.88,23.64-9.95,47.12-20.27,22.64-10,45.1-20.31l5.73-2.65a8,8,0,0,0,3.67-4.78,8.18,8.18,0,0,0-.8-6.16,8.09,8.09,0,0,0-4.78-3.68,9.12,9.12,0,0,0-6.17.81q-35.86,16.6-72.16,32.26-10.25,4.41-20.52,8.75l1.91-.81q-27.48,11.6-55.19,22.63t-55.64,21.5q-15.66,5.86-31.39,11.56a8.59,8.59,0,0,0-4.79,3.68,8.18,8.18,0,0,0-.8,6.16c1.25,3.86,5.63,7.12,9.84,5.59Z"/><path class="cls-2" d="M2215.3,521.71l-30.7,9-5.36,6.65.92,4.8-136.09,28.67-5.36-8.19-84.91-7.1V575.6l.12,0a5.47,5.47,0,0,0,3.56,6.59l97.19,27.57C1757.06,760.62,1794,707.56,1794,707.56L1804,632V611.15l-32.36,25.7,2.63,7.62,5.37,1.27c-207.85,114.4-543.47,232.94-623.17,260.46a29.8,29.8,0,0,0-19.92,25.11c-3.66,35.66-6.74,114.73,26.21,182.09a29.83,29.83,0,0,0,36.72,15.06c71.6-25.29,239.68-81.15,398.33-178.67l18.62-94.3,106.84-49L1715,886.91l-6.62,9.91v20.86s223.77-111.52,408.77-251.55l24.52,104.72c.78,5.77,16.65,6.59,18.57,1.09L2215,544.72a5.56,5.56,0,0,0,.22-2.84l.09-.08Z"/><path class="cls-3" d="M2208.85,516.56l-250.45,34.1a5.55,5.55,0,0,0-.92,10.71l97.19,27.57C1757.06,739.76,1794,686.69,1794,686.69l10-75.54c-204.89,118.48-564.64,245.56-647.53,274.19a29.78,29.78,0,0,0-19.92,25.1c-3.66,35.67-6.74,114.74,26.21,182.1a29.84,29.84,0,0,0,36.72,15.06c71.6-25.29,239.68-81.15,398.33-178.68l18.62-94.29,106.84-49L1708.4,896.82s223.77-111.52,408.77-251.55L2141.69,750c.78,5.78,16.65,6.6,18.57,1.09L2215,523.86A5.55,5.55,0,0,0,2208.85,516.56Z"/><path class="cls-4" d="M1289.38,984.23a79.61,79.61,0,0,1-5.05,28.1c-9.56,25.4-31.7,43.19-57.49,43.19a56.39,56.39,0,0,1-30.57-9.08c-19.08-12.21-32-35.49-32-62.21,0-39.37,28-71.29,62.54-71.29S1289.38,944.86,1289.38,984.23Z"/><ellipse class="cls-5" cx="1224.99" cy="962.79" rx="22.44" ry="25.04"/><path class="cls-5" d="M1284.33,1012.33c-9.56,25.4-31.7,43.19-57.49,43.19a56.39,56.39,0,0,1-30.57-9.08c2.62-29,24.52-51.55,51.16-51.55C1261.91,994.89,1275,1001.57,1284.33,1012.33Z"/><path class="cls-6" d="M1310.93,923.32a23.86,23.86,0,0,1-11.67,1.59,18.25,18.25,0,0,1-9.5-4.23,22.91,22.91,0,0,1-6.41-9.41,22.46,22.46,0,0,1-1.59-11.12,17.41,17.41,0,0,1,4.19-9.28,23.35,23.35,0,0,1,9.72-6.36,24.29,24.29,0,0,1,5.81-1.37,21,21,0,0,1,5.61,0,4.4,4.4,0,0,1,3,1.63,4.08,4.08,0,0,1,.82,2.81,3.77,3.77,0,0,1-1.22,2.54,3.56,3.56,0,0,1-3.1.74,13.64,13.64,0,0,0-4-.1,16.37,16.37,0,0,0-3.83.94q-5.52,2.06-7.12,6.22t.67,10q2.28,5.82,6.35,7.93t9.61,0a16.86,16.86,0,0,0,3.42-1.77,14.92,14.92,0,0,0,3-2.66,3.72,3.72,0,0,1,5.53-.58,3.88,3.88,0,0,1,.4,5.52,18.66,18.66,0,0,1-4.19,4A24.64,24.64,0,0,1,1310.93,923.32Z"/><path class="cls-6" d="M1346.21,910c-4.08,1.56-9.45,2.7-14.14.66-4.46-1.93-7.47-6.12-9.16-10.57q-3.6-9.06-7.17-18.13a4,4,0,0,1,2.58-5.82c2.79-1.06,4.74-.18,5.85,2.62q3.6,9.09,7.23,18.17c1.21,3.06,2.84,5.08,4.88,6.09a8.64,8.64,0,0,0,7.1,0c5.53-1.77,6.87-7.47,4.52-12.36q-3.64-9.08-7.27-18.15-1.68-4.2,2.5-5.81a4.43,4.43,0,0,1,3.49-.09,4.69,4.69,0,0,1,2.3,2.71q3.63,9,7.28,18.07c1.85,3.82,2.5,9.84.74,13.8C1354.92,905.67,1350.2,908.45,1346.21,910Z"/><path class="cls-6" d="M1384,895.35a35.38,35.38,0,0,1-7.26,2,24.78,24.78,0,0,1-6.93.18,4,4,0,0,1-2.78-1.41,4.19,4.19,0,0,1-.9-2.7,3.46,3.46,0,0,1,1-2.48,3.59,3.59,0,0,1,3-.86,20.9,20.9,0,0,0,5.57-.08,26,26,0,0,0,5.5-1.48q3.9-1.53,5.12-3.4a3.79,3.79,0,0,0,.48-3.67,3.22,3.22,0,0,0-2.2-2,12.24,12.24,0,0,0-4.8.11l-6.64,1.12c-5.85,1.38-12-.68-14.46-6.41a11.07,11.07,0,0,1-.57-7,13.39,13.39,0,0,1,3.75-6.28,21.73,21.73,0,0,1,7.47-4.65,26.37,26.37,0,0,1,6.22-1.61,19.77,19.77,0,0,1,6,.07,3.81,3.81,0,0,1,2.52,1.41,3.92,3.92,0,0,1,.8,2.51,3.17,3.17,0,0,1-1,2.33,4,4,0,0,1-3.14.81,17.91,17.91,0,0,0-4.32.16,21.32,21.32,0,0,0-4.28,1.19,9.65,9.65,0,0,0-4.74,3.37,4.21,4.21,0,0,0-.5,4.1,3.42,3.42,0,0,0,2.15,2.05,10,10,0,0,0,4.58,0l6.63-1.12c5.81-1,12.06,0,14.62,5.92a10.83,10.83,0,0,1,.61,6.88,13.11,13.11,0,0,1-3.73,6.23A22.62,22.62,0,0,1,1384,895.35Z"/><path class="cls-6" d="M1417.5,881.9a4.55,4.55,0,0,1-3.6.15,4.72,4.72,0,0,1-2.38-2.69q-5.58-13.38-11.1-26.79c-3.81,1.53-5.71,2.29-9.52,3.8q-3.51,1.39-4.89-2c-.93-2.26-.22-3.86,2.11-4.78q13.67-5.45,27.32-11c2.32-.94,3.94-.28,4.88,2s.25,3.85-2.08,4.79c-3.79,1.54-5.69,2.3-9.49,3.83q5.55,13.39,11.14,26.77a4.68,4.68,0,0,1,.25,3.54A4.3,4.3,0,0,1,1417.5,881.9Z"/><path class="cls-6" d="M1453.68,867.32a21.07,21.07,0,0,1-10.82,1.62,18.49,18.49,0,0,1-9.39-4,22.77,22.77,0,0,1-6.58-9.17,22.44,22.44,0,0,1-1.9-11.07,17.75,17.75,0,0,1,3.71-9.33,20.91,20.91,0,0,1,8.78-6.38,21.24,21.24,0,0,1,10.78-1.66,18.22,18.22,0,0,1,9.32,4,25.14,25.14,0,0,1,8.58,20.15,17.75,17.75,0,0,1-3.66,9.43A20.81,20.81,0,0,1,1453.68,867.32Zm-3-7a9.57,9.57,0,0,0,6-6.28q1.27-4.33-1.17-10.09t-6.42-7.9a9.82,9.82,0,0,0-8.72-.16,9.59,9.59,0,0,0-6,6.19q-1.32,4.27,1.13,10.08t6.45,7.92A9.73,9.73,0,0,0,1450.72,860.36Z"/><path class="cls-6" d="M1482.62,855.17a4,4,0,0,1-3.21.17,4.22,4.22,0,0,1-2.16-2.39q-6.55-15.23-13-30.48a4,4,0,0,1-.19-3.24,4.24,4.24,0,0,1,2.45-2.17,4.78,4.78,0,0,1,2.79-.43,6.5,6.5,0,0,1,2.6,1.33q10.08,7.9,20.2,15.77,1.25-12.68,2.47-25.36a6.44,6.44,0,0,1,.83-2.78,4.62,4.62,0,0,1,2.19-1.68,4.06,4.06,0,0,1,3.19-.22,4.17,4.17,0,0,1,2.19,2.39q6.6,15.2,13.25,30.38,1.66,3.76-2.06,5.37t-5.43-2.17q-4.2-9.63-8.39-19.26l-2,19.2a5.6,5.6,0,0,1-.7,2.07,3.58,3.58,0,0,1-1.68,1.3,3.69,3.69,0,0,1-2.13.31,4.92,4.92,0,0,1-2-.93q-7.69-5.82-15.35-11.68,4.11,9.58,8.24,19.15C1485.81,852.34,1485.11,854.13,1482.62,855.17Z"/><path class="cls-6" d="M1529.52,834.64q-4.29,1.86-6.17-2.39-6.25-14.22-12.46-28.47-1.85-4.24,2.42-6.09,9.18-4,18.35-8c2.14-.93,3.66-.35,4.59,1.74s.33,3.66-1.8,4.59l-14.84,6.46,3.78,8.65q6.84-3,13.66-5.94c2.17-1,3.73-.37,4.67,1.76s.33,3.67-1.85,4.62l-13.67,5.95,4.07,9.22,14.9-6.49q3.22-1.41,4.62,1.72t-1.8,4.6Q1538.77,830.64,1529.52,834.64Z"/><path class="cls-6" d="M1561.55,821.2a4.4,4.4,0,0,1-3.55.25,4.68,4.68,0,0,1-2.43-2.61q-6.48-14.51-12.9-29c-1.22-2.76-.45-4.74,2.31-6q6.36-2.8,12.71-5.63c4.11-1.82,7.72-2.25,10.84-1.26s5.46,3.25,7.06,6.8a11.87,11.87,0,0,1,1,7.8,11.6,11.6,0,0,1-4.37,6.43,8.7,8.7,0,0,1,6.37,2c2.38,1.82,3.58,2.72,6,4.54a4.55,4.55,0,0,1,2.08,3.48c.06,1.34-.78,2.39-2.53,3.18a5.6,5.6,0,0,1-3.17.54,6.4,6.4,0,0,1-2.91-1.4l-9.2-7a4.71,4.71,0,0,0-2.84-1.12,7.09,7.09,0,0,0-3,.69l-4,1.77c1.88,4.22,2.83,6.32,4.72,10.54a4.7,4.7,0,0,1,.36,3.54A4.27,4.27,0,0,1,1561.55,821.2Zm-5.16-22.36,7.3-3.24q6.54-2.91,4.2-8.13t-8.85-2.26l-7.28,3.23Z"/><path class="cls-6" d="M1308,949q27.69-10.9,55.25-22.14t55-22.79q27.49-11.6,54.87-23.5t54.43-24.08q27.13-12.19,54.14-24.72l6.68-3.1c1.87-.88,2.34-3.57,1.37-5.23a3.9,3.9,0,0,0-5.23-1.37q-26.85,12.5-53.85,24.68t-54.14,24.06q-27.15,11.86-54.43,23.41-27.06,11.46-54.28,22.59-27.42,11.22-55,22.12l-6.86,2.7a3.94,3.94,0,0,0-2.67,4.7c.5,1.83,2.77,3.43,4.7,2.67Z"/><path class="cls-6" d="M1317.49,978.65q41.54-14.32,82.29-30.77,41-16.54,81.07-35.17,22.31-10.37,44.3-21.37a3.86,3.86,0,0,0,1.37-5.22,3.91,3.91,0,0,0-5.23-1.38q-39.07,19.54-79.12,37.08-39.75,17.4-80.45,32.76-23,8.68-46.26,16.7a3.91,3.91,0,0,0-2.67,4.7,3.85,3.85,0,0,0,4.7,2.67Z"/><path class="cls-6" d="M1327.06,1011.79q45-16.31,88.89-35.63,12.18-5.35,24.25-10.95c1.87-.87,2.34-3.57,1.37-5.23a3.91,3.91,0,0,0-5.23-1.37c-28.42,13.16-57.14,25.31-86.38,36.52q-12.42,4.77-24.93,9.29a3.92,3.92,0,0,0-2.67,4.7,3.85,3.85,0,0,0,4.7,2.67Z"/><ellipse class="cls-7" cx="2344.04" cy="2559.31" rx="1374.49" ry="129.23"/><path class="cls-8" d="M3304.62,2500.7c-68.24,0-128.24,5.17-162.85,13-81.33-4.34-189.54-8-316.35-10.71-95.65-16.82-280.43-28.21-492.71-28.21-207.38,0-388.53,10.87-485.95,27.05-319.48,5.82-537.66,17.51-537.66,31,0,14.31,246.2,26.61,598.52,32,103.07,11.53,255.29,18.82,425.09,18.82,174.73,0,330.84-7.72,433.94-19.83,170-3.09,311.32-7.85,406.4-13.65,34.59,4.69,80.8,7.55,131.57,7.55,107.2,0,194.09-12.76,194.09-28.5S3411.82,2500.7,3304.62,2500.7Z"/><path class="cls-9" d="M2980.3,1374.34c22.43-.65,42.9,13.55,57.21,30.84s24.06,37.83,36.77,56.32c4.4,6.4,9.34,12.72,16.09,16.56,8.7,4.94,19.2,5.12,29,7.26a72.89,72.89,0,0,1,51.82,45c15.23,41-7.22,93.49,20.61,127.22,7.79,9.45,18.58,15.84,27.76,23.93,22.33,19.68,34.39,49,38.72,78.4s1.67,59.41-1.22,89q-4.29,43.88-9.18,87.69c-2,17.78-9.15,40.49-27,40.67-7.47.08-14.18-4.25-20.3-8.52a656.52,656.52,0,0,1-122.65-111c-29.63-34.55-56.88-81.65-38.55-123.31,4.3-9.77,11.12-19.59,9.13-30.07-1.18-6.26-5.38-11.48-9.71-16.14-18.88-20.31-43-35.54-59.91-57.53s-24.62-55.2-7.11-76.7c7.89-9.67,21-18.93,17.82-31-1.34-5.08-5.43-8.88-9.15-12.58C2951.91,1482.15,2901.06,1376.66,2980.3,1374.34Z"/><path class="cls-10" d="M3027.21,1502.48c-6.41-9.37-16.28-23.86-22.85-33.46l-25.71-34.74a2.63,2.63,0,1,1,4.11-3.27c8.9,11.43,17.89,22.8,26.66,34.35,6,8.46,16.08,22.55,22.06,31l1.58,2.21,1.49,2.27,11.87,18.22c6.84,10.13,16.69,26.37,22.92,37,20.3,33.39,39.27,70.19,56.42,106.46a626.87,626.87,0,0,0,23.75-90.45,4.6,4.6,0,0,1,9,1.66,637.39,637.39,0,0,1-25.89,97,4.59,4.59,0,0,1-1.92,2.37c2.82,6.07,5.6,12.13,8.31,18.13,15.87,36.18,30.45,73.52,43.46,111.46a438.27,438.27,0,0,0,34-61.81,4.6,4.6,0,0,1,8.4,3.76,446.64,446.64,0,0,1-37.68,67.63,4.38,4.38,0,0,1-1.09,1.1,1317.9,1317.9,0,0,1,39.92,146.27c4.61,20.41,8.55,43.62,12.06,64.07,2.14,14.33,4.06,28.69,6,43a2.86,2.86,0,1,1-5.68.75c-5.22-33.45-12.25-73.42-20-106.2-26.77-117.71-68.34-234.26-123.74-342.23l-.16,0a4.43,4.43,0,0,1-1.08-.13l-98.84-23.66a4.6,4.6,0,1,1,2.14-9l92.43,22.12q-12.87-24.54-26.69-48.45C3052.22,1541.65,3038.47,1520.28,3027.21,1502.48Z"/><path class="cls-11" d="M3295.9,1213.2c21.52,13.6,32.37,38.88,39.88,63.21s13.36,50.09,29.15,70.07c15.42,19.53,38.66,31.3,55.9,49.24,36.86,38.38,40.07,100.24,20.27,149.64-12,29.94-31.82,60.6-23.7,91.82,3.15,12.11,10.29,22.72,15.62,34,15,31.94,15.22,69.42,6.38,103.6s-26.12,65.57-45.08,95.35c-9.17,14.4-19.92,29.44-36.11,34.85-26.59,8.89-53.42-11.76-72.6-32.22-28.68-30.58-54.4-64.75-69.68-103.79s-19.43-83.51-5.33-123c4.41-12.34,10.55-24.18,12.9-37.07,8.22-45.18-31.32-86.41-32-132.32-.8-51.61,47.33-96.12,41.11-147.36-2.29-18.8-11.83-36-15.89-54.47C3207.23,1231.74,3254.62,1187.1,3295.9,1213.2Z"/><path class="cls-9" d="M3225.65,1454.1a4.61,4.61,0,0,1,6.38-1.31c18.1,11.91,35.81,24.85,52.94,37.36l29.83,21.79q-5.15-45.84-11.7-91.5c-4.68-32.54-10.74-66.16-17.37-98.49-2.86-14.73-7.83-33.67-11.21-48.71a2.63,2.63,0,0,1,5.07-1.37c29.44,108.46,43.24,220.41,53,332.11,26.83-30.65,53.14-62.35,78.28-94.34a4.6,4.6,0,1,1,7.23,5.69c-26.65,33.92-54.61,67.53-83.11,99.9a4.55,4.55,0,0,1-1.42,1.07c5.34,70.13,8.78,140.84,9.33,211.5a4.48,4.48,0,0,1,1.36.6l57.69-41.39a4.6,4.6,0,1,1,5.37,7.48L3349.37,1836a10.65,10.65,0,0,1-5.92,2c-.18,0-.35,0-.52,0,.22,60.81-1.73,121.58-6.52,181.89-1.07,14.92-3.53,34.76-5.11,50a2.87,2.87,0,1,1-5.7-.65c1.18-15.11,3.29-34.73,4.12-49.84,2.05-32.79,3.63-67.18,4.11-100q1.05-71.88-.89-143.83a519.07,519.07,0,0,1-84-69.3,4.6,4.6,0,1,1,6.57-6.45,509.72,509.72,0,0,0,77.1,64.4q-3.71-120.24-16.46-240l-.24-.15-36.37-26.56c-17-12.45-34.66-25.32-52.57-37.11A4.61,4.61,0,0,1,3225.65,1454.1Z"/><path class="cls-4" d="M3620.6,1385.18c-21.36.43-40.16,14.89-52.95,32s-21.11,37.1-32.33,55.28c-3.88,6.29-8.29,12.53-14.53,16.49-8,5.11-18,5.77-27.21,8.26a69.41,69.41,0,0,0-47.16,45.21c-12.57,39.69,11.24,88.56-13.64,121.94-7,9.34-16.93,15.93-25.28,24.05-20.31,19.76-30.4,48.16-33.15,76.36s1.2,56.57,5.33,84.59q6.14,41.52,12.84,83c2.72,16.82,10.59,38.07,27.62,37.41,7.1-.27,13.27-4.7,18.89-9a625,625,0,0,0,111.43-111.28c26.56-34.25,50.27-80.3,30.89-119.06-4.55-9.09-11.49-18.11-10.1-28.17.84-6,4.58-11.16,8.49-15.8,17-20.19,39.24-35.81,54.26-57.51s20.83-53.64,3.18-73.26c-7.95-8.83-20.86-17-18.4-28.64,1-4.89,4.75-8.69,8.12-12.38C3652.64,1486.36,3696.06,1383.67,3620.6,1385.18Z"/><path class="cls-12" d="M3410.85,1973.63a1343.72,1343.72,0,0,1,30.78-148.32c-.06-.08-.13-.15-.19-.24a264,264,0,0,1-21.15-40.79,253.59,253.59,0,0,1-14.16-43.73,2.89,2.89,0,0,1,5.47-1.73c10.64,25.71,21.54,52.52,32.24,78.35a1272,1272,0,0,1,71.22-196.1c-9.36-11.85-18.23-24-25.24-37.5a190.74,190.74,0,0,1-15.75-43.56,2.88,2.88,0,0,1,5.42-1.85c6.26,13.79,11.59,27.79,18.5,41.21,6.05,12.11,13.45,23.57,19.93,35.55q12.54-26.81,26.35-52.91c9.23-18,21.6-38.93,31.83-56.32,2.66-4.17,7-10.94,9.78-15.26,10.51-17,23.46-35.18,34.93-51.33a2.63,2.63,0,0,1,4.33,3s-22.83,34.33-22.86,34.35c-5.71,9.33-14.46,23.59-20.15,32.89-6.31,11.38-15.27,26.7-21.4,38.1-3.21,6.22-11,21.29-14.18,27.39-7.24,14.14-15.47,32-22.22,46.36q-6.21,13.71-12.1,27.62c7.43-3,14.91-5.77,22.39-8.54,27.19-10,54.73-20,82.39-28.62a2.88,2.88,0,0,1,2.09,5.34c-8.78,4.26-17.73,8.09-26.77,11.72-27,10.74-54.68,20.11-83,27a1413.9,1413.9,0,0,0-67.9,205.87q9.54-7,19.13-13.79c22.94-16.32,48.1-35.23,71-51.65a2.88,2.88,0,0,1,3.67,4.41,387.47,387.47,0,0,1-33.68,28.76c-19.62,14.87-40.12,28.64-61.93,40.1l-.06,0c-8.44,35-15.55,70.22-21.24,105.41-3.87,24-8,56.88-10.58,81.62a2.87,2.87,0,1,1-5.72-.47Q3405.23,2014.65,3410.85,1973.63Z"/><path class="cls-13" d="M3151,2090.67h.06l-.06,0Z"/><path class="cls-14" d="M3485.8,2090.67l-43.08,424.58a561.41,561.41,0,0,1-246.84.41l-1.81-.41-38.49-375.34-4.58-49.24Z"/><path class="cls-15" d="M3485.8,2090.67l-43.08,424.58a556.83,556.83,0,0,1-59.95,10.23c68.28-547.36-227.19-385.57-227.19-385.57l-4.58-49.24Z"/><path class="cls-16" d="M3507.44,2007v61.64a22,22,0,0,1-22,22l-120.81,4.58q-46.17,1.74-92.39,0l-120.86-4.58a22,22,0,0,1-22-22V2007a22,22,0,0,1,22-22l121.82,4.59q46.17,1.73,92.38,0L3485.4,1985A22,22,0,0,1,3507.44,2007Z"/><path class="cls-5" d="M3507.44,2007v32.65a22,22,0,0,1-22,22l-120.81,4.57q-46.17,1.76-92.39,0l-120.86-4.57a22,22,0,0,1-22-22V2007a22,22,0,0,1,22-22l121.82,4.59q46.17,1.73,92.38,0L3485.4,1985A22,22,0,0,1,3507.44,2007Z"/><path class="cls-17" d="M2566.2,1239.63c50.29-165.65,201.54-410.69-239.55-410.69s-289.83,245-239.54,410.69-18.19,387.89-18.19,387.89l257.73,45,257.74-45S2515.91,1405.27,2566.2,1239.63Z"/><path class="cls-6" d="M2099.76,1614.13l-7.52-1.31.41-1.58q.72-2.74,1.49-5.8l2.91.74c-.37,1.46-.73,2.88-1.08,4.24l4.3.75Z"/><path class="cls-6" d="M2099.91,1594.58l-2.92-.7c.92-3.82,1.83-7.72,2.71-11.6l2.93.67C2101.74,1586.84,2100.83,1590.75,2099.91,1594.58Zm453.46-.13c-.92-3.83-1.83-7.74-2.72-11.63l2.93-.66c.88,3.87,1.79,7.77,2.7,11.59Zm-448.16-23.17-2.94-.63c.83-3.84,1.65-7.76,2.44-11.66l2.94.6C2106.86,1563.49,2106,1567.43,2105.21,1571.28Zm442.87-.12c-.83-3.87-1.66-7.81-2.45-11.7l2.94-.6c.79,3.89,1.61,7.81,2.44,11.66ZM2110,1547.87l-2.95-.56c.75-3.9,1.48-7.84,2.18-11.72l2.95.53C2111.44,1540,2110.71,1544,2110,1547.87Zm433.36-.13c-.74-3.89-1.47-7.85-2.17-11.75l2.95-.53c.7,3.89,1.43,7.83,2.17,11.72Zm-429.14-23.38-3-.5c.66-3.9,1.3-7.85,1.91-11.76l3,.46C2115.48,1516.48,2114.84,1520.45,2114.18,1524.36Zm424.92-.13c-.65-3.91-1.29-7.88-1.9-11.8l3-.46c.61,3.9,1.25,7.86,1.9,11.76Zm-421.23-23.48-3-.43.29-2q.69-4.9,1.34-9.77l3,.39q-.64,4.88-1.34,9.8Zm417.55-.13-.27-1.91q-.71-5-1.36-9.92l3-.4q.66,4.93,1.36,9.9l.27,1.9ZM2121,1477.05l-3-.36c.47-4,.93-7.94,1.34-11.84l3,.32C2121.93,1469.08,2121.47,1473.08,2121,1477.05Zm411.3-.11c-.48-4-.93-8-1.35-11.86l3-.32c.41,3.9.86,7.88,1.34,11.82Zm-408.76-23.66-3-.28c.37-4,.72-8,1-11.87l3,.24C2124.27,1445.3,2123.92,1449.3,2123.54,1453.28Zm406.22-.08c-.37-4-.72-8-1-11.89l3-.24c.32,3.9.66,7.89,1,11.85Zm-404.31-23.76-3-.19c.26-4,.5-8,.7-11.9l3,.16C2126,1421.45,2125.72,1425.46,2125.45,1429.44Zm402.4,0c-.26-4-.5-8-.7-11.92l3-.16c.2,3.93.43,7.93.7,11.88Zm-401.18-23.84-3-.11c.14-4,.25-8,.33-11.9l3,.06C2126.93,1397.55,2126.82,1401.57,2126.67,1405.56Zm400,0c-.14-4-.25-8-.33-11.94l3,0c.08,3.91.19,7.91.33,11.89Zm-.46-23.88v-2c0-3.33,0-6.68.08-10l3,0c0,3.28-.08,6.62-.08,9.93v2Zm-399,0h-3v-2c0-3.32,0-6.67-.07-10l3,0c0,3.29.07,6.65.07,10Zm402.38-23.79-3-.1c.14-4,.31-8,.51-11.94l3,.15C2529.83,1349.88,2529.65,1353.88,2529.52,1357.86Zm-405.73,0c-.13-4-.31-8-.51-11.88l3-.16c.21,3.94.38,8,.52,11.94Zm407-23.74-3-.22c.29-4,.63-8,1-11.92l3,.29C2531.4,1326.15,2531.06,1330.14,2530.77,1334.1Zm-408.24,0c-.29-4-.62-7.95-1-11.85l3-.28c.37,3.92.7,7.93,1,11.91ZM2533,1310.42l-3-.35c.47-4,1-8,1.53-11.87l3,.42C2534,1302.5,2533.47,1306.47,2533,1310.42Zm-412.72,0c-.46-4-1-7.92-1.52-11.79l3-.42c.54,3.89,1.06,7.89,1.52,11.86Zm416.05-23.53-3-.49c.65-4,1.36-7.92,2.11-11.78l3,.57C2537.7,1279,2537,1282.94,2536.34,1286.87Zm-419.37,0c-.65-3.93-1.36-7.87-2.1-11.71l3-.56c.74,3.86,1.45,7.82,2.11,11.77Zm423.88-23.33-2.93-.65c.87-3.91,1.79-7.83,2.76-11.64l2.91.73C2542.63,1255.76,2541.71,1259.65,2540.85,1263.53Zm-428.39,0c-.86-3.89-1.78-7.78-2.74-11.57l2.91-.73c1,3.81,1.89,7.73,2.76,11.65Zm434.2-23-2.88-.82q.9-3.17,1.85-6.29.78-2.58,1.59-5.17l2.87.9q-.81,2.58-1.59,5.14Q2547.55,1237.36,2546.66,1240.49Zm-440,0c-.59-2.09-1.21-4.16-1.83-6.23q-.78-2.57-1.59-5.16l2.86-.89c.54,1.73,1.08,3.46,1.6,5.18q.95,3.12,1.85,6.28Zm447.08-22.71-2.85-.94c1.18-3.59,2.46-7.4,3.8-11.32l2.84,1C2556.17,1210.39,2554.9,1214.19,2553.72,1217.77Zm-454.14,0c-1.19-3.62-2.43-7.32-3.78-11.29l2.84-1c1.36,4,2.6,7.69,3.79,11.32Zm-7.68-22.55q-2-5.57-4-11.23l2.83-1q2,5.67,4,11.25Zm469.51,0-2.83-1q2-5.58,4-11.26l2.83,1Q2563.36,1189.64,2561.41,1195.21Zm-477.49-22.46-4-11.23,2.82-1,4,11.23Zm485.47,0-2.82-1,4-11.23,2.83,1Zm-493.5-22.45q-2-5.62-4-11.26l2.83-1q2,5.63,4,11.24Zm501.54,0-2.83-1q2-5.61,4-11.24l2.83,1Q2579.44,1144.65,2577.43,1150.26ZM2068,1127.75q-1.94-5.67-3.81-11.33l2.85-.94q1.88,5.65,3.8,11.3Zm517.29,0-2.83-1q1.92-5.64,3.79-11.29l2.85,1Q2587.24,1122.07,2585.3,1127.72Zm-524.78-22.67c-1.24-3.9-2.43-7.74-3.54-11.42l2.87-.86c1.11,3.66,2.29,7.49,3.52,11.38Zm532.28,0-2.86-.9c1.23-3.89,2.41-7.71,3.51-11.37l2.88.86C2595.22,1097.31,2594,1101.15,2592.8,1105Zm6.87-22.88-2.89-.81c1.1-3.91,2.14-7.77,3.09-11.48l2.91.75C2601.82,1074.35,2600.77,1078.23,2599.67,1082.16Zm-546,0c-1.11-3.94-2.16-7.83-3.12-11.56l2.91-.74c1,3.7,2,7.57,3.1,11.49Zm552-23.13-2.92-.68c.91-3.94,1.75-7.85,2.5-11.62l2.94.59C2607.39,1051.1,2606.54,1055,2605.62,1059Zm-557.94,0c-.92-4-1.77-7.91-2.52-11.7l2.94-.59c.75,3.76,1.59,7.67,2.5,11.62Zm562.61-23.44-3-.49c.14-.85.28-1.7.41-2.54.48-3.11.91-6.2,1.27-9.2l3,.36c-.37,3-.8,6.16-1.29,9.3C2610.57,1033.8,2610.43,1034.66,2610.29,1035.52Zm-567.28-.06c-.14-.84-.27-1.67-.4-2.51-.49-3.15-.93-6.3-1.3-9.35l3-.37c.37,3,.8,6.14,1.28,9.26.13.83.26,1.66.4,2.49Zm570.14-23.75-3-.22c.29-4,.47-8,.53-11.83l3,.05C2613.63,1003.59,2613.45,1007.63,2613.15,1011.71Zm-573-.06c-.29-4.08-.47-8.12-.53-12l3,0c.06,3.83.23,7.81.52,11.84Zm570.35-23.81c-.21-4-.55-8-1-11.76l3-.38c.49,3.87.85,7.9,1,12Zm-567.68-.06-3-.15c.21-4.09.56-8.13,1.06-12l3,.38C2043.37,979.81,2043,983.77,2042.82,987.78Zm564.64-23.32c-.85-3.89-1.89-7.71-3.08-11.36l2.85-.93a117.7,117.7,0,0,1,3.16,11.65Zm-561.6-.06-2.93-.64a117.72,117.72,0,0,1,3.17-11.65l2.85.93A115.36,115.36,0,0,0,2045.86,964.4Zm554.26-22.25a97.6,97.6,0,0,0-5.48-10.38l2.57-1.56a101.74,101.74,0,0,1,5.64,10.7Zm-546.91-.06-2.73-1.25a101.73,101.73,0,0,1,5.66-10.69l2.56,1.55A100.71,100.71,0,0,0,2053.21,942.09Zm534.76-20a108.53,108.53,0,0,0-7.72-8.86l2.15-2.09a111.08,111.08,0,0,1,7.94,9.11Zm-522.59-.05L2063,920.2a113,113,0,0,1,7.95-9.1l2.15,2.09A107,107,0,0,0,2065.38,922.05Zm506.25-16.82c-2.93-2.47-6.08-4.88-9.36-7.17l1.72-2.46c3.35,2.34,6.57,4.81,9.57,7.33Zm-489.89-.05-1.94-2.29c3-2.52,6.22-5,9.58-7.33l1.71,2.46C2087.81,900.31,2084.66,902.72,2081.74,905.18Zm470.6-13.5c-3.3-1.94-6.79-3.84-10.39-5.65l1.35-2.68c3.65,1.84,7.21,3.77,10.56,5.75Zm-451.31,0-1.52-2.58c3.36-2,6.91-3.91,10.57-5.74l1.34,2.68C2107.83,887.8,2104.33,889.7,2101,891.64ZM2531.22,881c-3.52-1.52-7.22-3-11-4.42l1.06-2.81c3.82,1.43,7.56,2.94,11.13,4.48Zm-409.07,0-1.18-2.75c3.57-1.54,7.31-3,11.13-4.47l1.05,2.81C2129.38,878,2125.68,879.48,2122.15,881Zm22.11-8.3-.29-1.22-.59-1.64.06,0h0c3.68-1.2,7.53-2.37,11.44-3.48l.82,2.88c-3.87,1.1-7.68,2.26-11.33,3.45Zm364.74,0c-3.71-1.21-7.5-2.36-11.33-3.45l.82-2.88c3.87,1.09,7.69,2.26,11.37,3.46l.12,0Zm-22.8-6.49c-3.76-.93-7.65-1.83-11.58-2.67l.63-2.94c4,.86,7.88,1.76,11.67,2.7Zm-319,0-.72-2.91c3.77-.93,7.7-1.84,11.67-2.69l.63,2.93C2174.82,864.36,2170.92,865.26,2167.18,866.18Zm295.79-5c-3.83-.71-7.77-1.4-11.72-2l.48-3c4,.64,7.94,1.33,11.79,2.05Zm-272.56,0-.55-2.95c3.82-.71,7.79-1.4,11.79-2.05l.48,3C2198.15,859.77,2194.21,860.46,2190.41,861.17Zm249.08-3.81c-3.86-.54-7.83-1.05-11.8-1.52l.36-3c4,.47,8,1,11.86,1.53Zm-225.6,0-.42-3c3.86-.53,7.85-1,11.86-1.53l.36,3C2221.69,856.31,2217.72,856.82,2213.89,857.36Zm202-2.82c-3.83-.39-7.82-.76-11.85-1.1l.25-3c4,.34,8,.71,11.91,1.1Zm-178.34,0-.31-3c3.9-.39,7.9-.76,11.91-1.09l.25,3C2245.38,853.77,2241.39,854.14,2237.52,854.53Zm154.62-2c-3.87-.27-7.87-.51-11.88-.73l.16-3c4,.21,8,.46,11.93.73Zm-130.9,0-.21-3c3.91-.27,7.92-.51,11.93-.73l.16,3C2269.13,852,2265.13,852.27,2261.24,852.53Zm107.12-1.28c-3.87-.16-7.88-.3-11.9-.41l.09-3c4,.12,8,.25,11.94.41Zm-83.34,0-.13-3c3.94-.16,8-.3,11.94-.41l.09,3C2293,851,2288.94,851.09,2285,851.25Zm59.54-.67q-5.89-.09-11.91-.13v-3c4,0,8,.07,11.94.13Zm-35.74,0,0-3c3.93-.06,7.92-.11,11.94-.13v3Q2314.71,850.48,2308.82,850.58Z"/><path class="cls-6" d="M2553.55,1614.13l-.51-3,4.3-.75c-.35-1.36-.71-2.78-1.08-4.24l2.9-.74q.78,3.06,1.5,5.8l.41,1.58Z"/><path class="cls-6" d="M2326.65,1653.79l-6.06-1.06.51-3,5.55,1,5.56-1,.51,3Zm17.7-3.1-.52-3,11.62-2,.52,3Zm-35.39,0-11.62-2,.52-3,11.62,2Zm58.63-4.06-.51-3,11.62-2,.51,3Zm-81.87,0-11.63-2,.52-3,11.62,2Zm105.12-4.06-.52-3,11.62-2,.52,3Zm-128.37,0-11.62-2,.52-3,11.62,2Zm151.61-4.06-.51-3,11.62-2,.51,3Zm-174.85,0-11.63-2,.52-3,11.62,2Zm198.1-4.07-.52-3,11.62-2,.52,3Zm-221.35,0-11.62-2,.52-3,11.62,2Zm244.59-4.06-.51-3,11.62-2,.51,3Zm-267.83,0-11.63-2,.52-3,11.62,2Zm291.08-4.06-.52-3,11.62-2,.52,3Zm-314.33,0-11.62-2,.52-3,11.62,2Zm-23.24-4.07-11.63-2,.52-3,11.62,2Zm360.81,0-.51-3,11.62-2,.51,3Zm23.25-4.06-.52-3,11.62-2,.52,3Zm-407.31,0-11.62-2,.52-3,11.62,2Z"/><rect class="cls-14" x="2014.73" y="1627.52" width="639.56" height="108.38" rx="54.19"/><path class="cls-6" d="M2600.1,1716.4H2068.92a34.69,34.69,0,0,1,0-69.38H2600.1a34.69,34.69,0,0,1,0,69.38ZM2068.92,1648a33.69,33.69,0,0,0,0,67.38H2600.1a33.69,33.69,0,0,0,0-67.38Z"/><path class="cls-9" d="M2080.8,998.79s-120.51,171.38-88.57,293.45,99.56,178.74,139.33,187.48,131.17-62,131.17-62L2301,1178.16l-101-143.74Z"/><path class="cls-18" d="M2158.84,1477.47v0c44-12.48,105.16-59.83,105.16-59.83l38.24-239.5L2238,1086.78l-85.82,19.38S1905.67,1087.07,2158.84,1477.47Z"/><path class="cls-9" d="M2670.91,1292.24C2639,1414.3,2571.35,1471,2531.58,1479.71c-7.25,1.59-16.21.55-26-2.22-44-12.48-105.16-59.83-105.16-59.83l-38.24-239.5,64.22-91.38,36.8-52.37,119.15-35.62S2702.85,1170.17,2670.91,1292.24Z"/><path class="cls-18" d="M2505.57,1477.47v0c-44-12.48-105.16-59.83-105.16-59.83l-38.24-239.5,64.22-91.38,85.82,19.38S2758.74,1087.07,2505.57,1477.47Z"/><rect class="cls-19" x="2284.27" y="1690.61" width="96.88" height="416.51"/><rect class="cls-20" x="2299.9" y="1690.61" width="28.62" height="416.51"/><rect class="cls-20" x="2336.68" y="1690.61" width="12.06" height="416.51"/><path class="cls-21" d="M2556.27,2447.62l-157.56-49-63.73-14-63.73,14-157.56,49H1951.41v50.51s286.34,69.89,767.13,0v-50.51Z"/><path class="cls-22" d="M2718.54,2447.62q-29,4.22-56.95,7.76-25,3.15-49.17,5.83-13.65,1.51-27.06,2.87l-3.82.4c-143.73,14.4-265.86,16.2-363.23,12.61q-15.72-.57-30.56-1.33c-152.72-7.74-236.33-28.14-236.33-28.14L2271.25,2348l63.72-14,63.74,14Z"/><polygon class="cls-23" points="2105.37 2469.93 2107.16 2468.53 2307.36 2348.04 2295.48 2345.31 2064.42 2465.71 2105.37 2469.93"/><path class="cls-23" d="M2328.53,2348l-110.22,129.05q-15.72-.57-30.56-1.33L2317.81,2348Z"/><path class="cls-23" d="M2661.59,2455.38q-25,3.15-49.17,5.83L2361.92,2348h19.23Z"/><path class="cls-23" d="M2585.36,2464.08l-3.82.4-232.8-113.83h4.11Z"/><path class="cls-24" d="M2396.06,2105.87v184.57c-72.37,18.07-126.7,0-126.7,0V2105.87a353.7,353.7,0,0,1,38-4.17C2331,2100.23,2363.12,2100.16,2396.06,2105.87Z"/><path d="M2396.06,2257.81v32.63c-72.37,18.07-126.7,0-126.7,0V2105.87a353.7,353.7,0,0,1,38-4.17S2291.19,2264.07,2396.06,2257.81Z"/><path class="cls-5" d="M2592.32,972.59s-100.42,291.34-100.42,445.07H2172.5c0-153.73-100.42-445.07-100.42-445.07a135,135,0,0,1,19.62-15.06c56-36.1,156.58-59.12,156.58-59.12s70.25-36.18,157.77,0C2406.05,898.41,2545.21,928,2592.32,972.59Z"/><path class="cls-6" d="M2127.07,1132.88l23.85-24.19,37.85-38.39,8.72-8.85h-2.8l22.5,24.17,35.82,38.47,8.18,8.79a2,2,0,0,0,2.79,0l24.49-24.21,38.86-38.39,8.93-8.83h-2.79l21.62,24.12,34.48,38.46,7.94,8.85a2,2,0,0,0,2.8,0l22.92-24.15,36.53-38.47,8.37-8.81h-2.8l23.86,24.19,37.86,38.39,8.73,8.85c1.79,1.81,4.58-1,2.79-2.8l-23.85-24.19-37.87-38.38-8.72-8.85a2,2,0,0,0-2.8,0l-22.93,24.14-36.52,38.47-8.37,8.81h2.8L2378.68,1106l-34.48-38.45-7.94-8.85a2,2,0,0,0-2.79,0l-24.5,24.2-38.85,38.4-8.93,8.82H2264l-22.49-24.16-35.82-38.48-8.18-8.78a2,2,0,0,0-2.8,0l-23.85,24.19L2133,1121.24l-8.73,8.84c-1.78,1.81,1,4.61,2.8,2.8Z"/><path class="cls-6" d="M2172.5,1417.66c0-153.73-100.42-445.07-100.42-445.07a135,135,0,0,1,19.62-15.06h0S2183.4,1137.66,2172.5,1417.66Z"/><path class="cls-6" d="M2491.9,1417.66c0-153.73,100.42-445.07,100.42-445.07a135,135,0,0,0-19.62-15.06h0S2481,1137.66,2491.9,1417.66Z"/><path class="cls-25" d="M2243.46,514.53c-6.38-22.79-.39-47.51,16.31-64.28,11.35-11.39,28.36-20.06,53.71-18.65,67.62,3.76,88.9,40.67,83.27,64.16s4.36,294.93,4.36,294.93,20.5,84.17-8.74,99.82-143.49,7-143.49,7-26.18-55.91,2.62-169.79C2273.38,641.17,2254,552.27,2243.46,514.53Z"/><path class="cls-11" d="M2267.11,499.42s34.28-36,102.3-3.88-100,29.13-100,29.13Z"/><path class="cls-9" d="M2270.33,862.94s38-26.74,110-2.76l11.12,28.09-128.76,13.12Z"/><path class="cls-26" d="M2372.3,906.81a101,101,0,0,1-14.07,8.57l-25.94,94.36-25.88-93.81a70.24,70.24,0,0,1-23.26-12.45,16.13,16.13,0,0,1-5.71-16.07c2.56-11.26,4.13-30.68,5-46,.19-3.36.35-6.52.48-9.36.15-3.44.27-6.42.36-8.69.11-3,.17-4.79.17-4.79h83.41c-.12,1.56-.2,3.16-.24,4.79-.08,3,0,6.16.13,9.34.11,2.92.31,5.87.57,8.82a302.14,302.14,0,0,0,7.67,43.93C2376.52,891.71,2377.59,903,2372.3,906.81Z"/><path class="cls-27" d="M2367.32,841.48c-38,9.77-66.09,6.17-84.88-.11.19-3.36.35-6.52.48-9.36.15-3.44.27-6.42.36-8.69h83.34c-.08,3,0,6.16.13,9.34C2366.86,835.58,2367.06,838.53,2367.32,841.48Z"/><path class="cls-26" d="M2472.79,718.57c.82,30-37.8,47.45-53.57,53.28-15.72,34.79-43.86,67-94.07,67-50.51,0-78.65-32.61-94.37-67.64-16.6-6.41-52.68-23.66-51.92-52.69.77-26,16.43-31.08,26.08-31.72a33.7,33.7,0,0,1,6.24.11l18.9-144,95.07-18.25,70.17,13.48L2423,563.52l16.19,123.62S2471.79,680.84,2472.79,718.57Z"/><path class="cls-27" d="M2439.15,687.15s-5.51,50.63-19.91,84.73C2419.24,771.88,2444.85,740.28,2439.15,687.15Z"/><path class="cls-27" d="M2211,687.15s5.5,50.63,19.9,84.73C2230.87,771.88,2205.26,740.28,2211,687.15Z"/><path class="cls-27" d="M2444.84,711.3c-2.24-5.85,4.36-11.43,9.78-8.29,4.5,2.61,8.31,8.35,4.9,20.9-6.63,24.38-20,13.83-19,6.42s7.65-10.64,4.43-18.79Z"/><path class="cls-27" d="M2205.75,711.3c2.24-5.85-4.36-11.43-9.78-8.29-4.5,2.61-8.31,8.35-4.9,20.9,6.63,24.38,20,13.83,19,6.42s-7.65-10.64-4.43-18.79Z"/><path class="cls-28" d="M2277.06,531s-11.34,98.29-88.07,120.58C2189,651.57,2243,611.57,2277.06,531Z"/><path class="cls-27" d="M2439.17,687.14c-103.49,5.06-121.68-90.27-121.68-90.27-17.42,105.55-106.55,90.27-106.55,90.27l-6-.29a33.7,33.7,0,0,1,6.24.11l18.9-144,95.07-18.25,70.17,13.48L2423,563.52Z"/><path class="cls-14" d="M2439.17,687.14c-105.19-22-121-118.82-121-118.82s-15.89,92.39-107,118.64c-9.87-.94-15.63,2-15.63,2-20.22-39-11.29-105.82-11.29-105.82,22.35-113.31,131.27-79.8,131.27-79.8,181.14-54.26,145.3,188.09,145.3,188.09A31.27,31.27,0,0,0,2439.17,687.14Z"/><path class="cls-25" d="M2439.17,687.15c-105.19-22-121-118.82-121-118.82s-15.89,92.39-107,118.64c0,0,100.49-65.31,103.67-143.55C2314.85,543.42,2353.82,649.41,2439.17,687.15Z"/><path class="cls-25" d="M2349.52,584.62s15.31,67,92.6,60C2442.12,644.66,2381.12,630.19,2349.52,584.62Z"/><path class="cls-25" d="M2293.58,572.21s-19.29,57.93-80.25,73.09C2213.33,645.3,2254.8,623.37,2293.58,572.21Z"/><path class="cls-25" d="M2283.53,510.93s-64-5.85-80.08,90.1C2203.45,601,2227.82,522.05,2283.53,510.93Z"/><path class="cls-25" d="M2358.23,510.86s83.64-9.86,88.69,83.44C2446.92,594.3,2432.41,525.6,2358.23,510.86Z"/><path class="cls-29" d="M2357.09,673a11,11,0,0,1,5.83-5.21,13.56,13.56,0,0,1,9.15-.35c5.82,1.65,12.75,7.76,12.33,14.14-.17,2.63,2.81,4.7,5.19,4.54,2.91-.19,4.37-2.55,4.54-5.19.37-5.57-2.76-10.63-6.36-14.6a29.42,29.42,0,0,0-13.74-8.44c-9.74-2.73-21,1.53-25.62,10.68-2.86,5.6,5.83,10,8.68,4.43Z"/><path class="cls-29" d="M2267,680c.3-5.29,6.33-11,11.37-12.21,5.84-1.41,12,3.11,15.83,7.91,1.64,2.06,5.07,1.95,6.89.25a5,5,0,0,0,.25-6.89c-5.89-7.38-16-13.33-25.66-10.64-9.12,2.55-17.87,11.35-18.42,21.11a4.88,4.88,0,1,0,9.74.47Z"/><ellipse class="cls-29" cx="2284.55" cy="704.25" rx="8.69" ry="13.86" transform="translate(-1.07 3.48) rotate(-0.09)"/><ellipse class="cls-29" cx="2364.18" cy="704.13" rx="9.16" ry="14.62" transform="translate(-1.07 3.6) rotate(-0.09)"/><path class="cls-30" d="M2303.58,785.89,2348,772.43a4.42,4.42,0,0,1,5.71,3.91c.67,10.38-.24,32.33-19.26,36.73s-29.52-12.54-33.57-21.1A4.42,4.42,0,0,1,2303.58,785.89Z"/><polygon class="cls-16" points="2282.92 984.11 2319.02 963.81 2314.45 927.58 2286.4 918.72 2283.3 957.11 2282.92 984.11"/><polygon class="cls-16" points="2401.9 981.04 2352.19 954.38 2351.42 920.76 2381.62 915.39 2401.9 981.04"/><path class="cls-11" d="M2319,915.39s-37.65,47.2-36.1,68.72c0,0-41.24-44-34.63-85.69l22-35.48S2289,905.56,2319,915.39Z"/><path class="cls-9" d="M2319,915.39l13.27,94.35-26.23-76.64S2310.58,919,2319,915.39Z"/><polygon class="cls-9" points="2349.1 915.39 2332.29 1009.74 2366.87 925.97 2349.1 915.39"/><path class="cls-11" d="M2406.12,895.15,2401.9,981l-52.8-65.65s35.07-30.41,31.27-55.21Z"/><path class="cls-11" d="M2198.84,676.34s-9.89-172.86,120-172.86,131.8,172.86,131.8,172.86l10.19,4.08s18.49-198.16-142.26-198.16-128,196.9-128,196.9Z"/><path class="cls-5" d="M2419.24,771.87s20.49-37.58,19.93-84.73c0,0,7.1-23,35-1.88C2500.46,705.1,2466.1,812.44,2419.24,771.87Z"/><path class="cls-16" d="M2419.24,771.87s20.49-37.58,19.93-84.73c0,0,19.91-10.25,29,5.45S2461.89,786.76,2419.24,771.87Z"/><path class="cls-5" d="M2230.87,771.87s-20.49-37.58-19.93-84.73c0,0-7.1-23-35.05-1.88C2149.65,705.1,2184,812.44,2230.87,771.87Z"/><path class="cls-16" d="M2230.87,771.87s-20.49-37.58-19.93-84.73c0,0-19.91-10.25-29,5.45S2188.22,786.76,2230.87,771.87Z"/><path class="cls-16" d="M2221.47,765.28c5.1,6.67,12.94,11,20.28,14.74a128.88,128.88,0,0,0,24,9.44A126.86,126.86,0,0,0,2280,792.6a2.06,2.06,0,0,0,2.46-1.4,2,2,0,0,0-1.4-2.46,125.07,125.07,0,0,1-46-17.09c-3.72-2.31-7.47-4.86-10.16-8.39a2.07,2.07,0,0,0-2.74-.71,2,2,0,0,0-.72,2.73Z"/><path class="cls-31" d="M2302.55,794.85a8.84,8.84,0,0,1-10.45,6.85c-4.78-1-13.67-6.89-12.67-11.67s11.5-6.62,16.27-5.63A8.84,8.84,0,0,1,2302.55,794.85Z"/><polygon class="cls-9" points="2192.95 2519.59 2168.11 2504.39 2157.97 2443.87 2195.91 2408.56 2231.99 2412.65 2239.55 2438.38 2192.95 2519.59"/><path class="cls-11" d="M2273,2384.08s5.08,28.77-21.45,66-29.64,54.33-29.64,54.33l-28.94,15.21,21.16-62.86c-.51.35-30.64,22.89-51.35,55.34-24.88,39-113,62.44-140.55,36.21-19.25-18.32,4-102.93,67-137.65s67.91-121.52,67.91-121.52l113.9,39.34Z"/><path class="cls-27" d="M2280.09,2327.51l-22.35,64.31-3.48,10s-33.79,9.13-62.06,49.77-102.89,44.43-126.89,24.88c-5.29-4.32-8.23-8.65-9.31-13-5.64-22.83,38.85-47.29,62.7-79.54,13.9-18.79,17.85-37.83,24.43-51.55C2163.2,2290.55,2280.09,2327.51,2280.09,2327.51Z"/><path class="cls-26" d="M2280.09,2327.51l-22.35,64.31c-10.55,4.1-37.72,17.33-61.29,51.21-30,43.09-109.08,47.1-134.54,26.37a37.13,37.13,0,0,1-5.91-6c-5.64-22.83,38.85-47.29,62.7-79.54,13.9-18.79,17.85-37.83,24.43-51.55C2163.2,2290.55,2280.09,2327.51,2280.09,2327.51Z"/><path class="cls-32" d="M2550.57,1552.67H2132.33s-39,43.64-40.62,85.87h127.51l120.22,153.93,120.28-153.93h131.46C2589.56,1596.31,2550.57,1552.67,2550.57,1552.67Z"/><path class="cls-16" d="M2591.18,1638.54s20.1,149.65-23.68,273.67-162.12,461.4-162.12,461.4-307.87,94.84-331.21-61.28c0,0,245-591.42,348.64-699.41C2503.4,1529,2589.25,1619.79,2591.18,1638.54Z"/><path class="cls-33" d="M2146.26,2385.42l-4.71-1.68c66.48-186.14,129.29-343.48,186.67-467.66,46-99.42,88.55-177.95,126.64-233.42,27.33-39.8,51.71-67,72.47-80.77,15.88-10.54,23.8-9.14,24.65-9l-.56,2.44-.5,2.45c-.29,0-29.76-4.11-94.48,91.38-37.84,55.84-80.12,134.33-125.68,233.31C2274,2045.86,2211.91,2201.6,2146.26,2385.42Z"/><polygon class="cls-9" points="2410.7 2497.9 2438.79 2490.22 2465.39 2434.91 2438.79 2390.44 2402.99 2384.31 2388.57 2406.92 2410.7 2497.9"/><path class="cls-11" d="M2371.59,2345.45s-12.89,26.23,2.23,69.34,13.33,60.44,13.33,60.44l23.55,22.67-2.8-66.27s21.86,29.09,33.9,67.46c13.84,44.11,91.12,91.44,124.9,73.92,23.59-12.23,24.79-100-26-150.88s-31.38-135.62-31.38-135.62l-120.34,6.06Z"/><path class="cls-27" d="M2560,2476.09c-1,6.6-5.36,12-14.67,16-28.51,12.1-99.11-12.31-114.94-59.23s-45.75-65.1-45.75-65.1l-.87-16.75-3.23-61.82s122.56-2.94,130.19,42.8c2.5,15,1,34.41,9.11,56.33C2532.43,2422.41,2563.18,2455.12,2560,2476.09Z"/><path class="cls-26" d="M2560,2476.09a35.59,35.59,0,0,1-8.47,4.9c-30.86,13.1-107.31-13.33-124.45-64.13-12.49-37-33.05-57.48-43.31-65.89l-3.23-61.82s122.56-2.94,130.19,42.8c2.5,15,1,34.41,9.11,56.33C2532.43,2422.41,2563.18,2455.12,2560,2476.09Z"/><path class="cls-5" d="M2091.71,1638.54s-20.09,149.65,23.68,273.67,153.2,436.26,153.2,436.26,307.86,94.84,331.21-61.28c0,0-236-566.28-339.71-674.27C2179.5,1529,2093.64,1619.79,2091.71,1638.54Z"/><path class="cls-6" d="M2512.53,2370.92c-121.22-325.53-219.59-555.41-292.36-683.27-56.08-98.51-75.46-96.86-75.65-96.82a.81.81,0,0,0,.23-.07l-1.68-4.71c3.27-1.17,22.29-2.35,75.81,89.36,91.32,156.46,212.64,463.63,298.33,693.77Z"/><path class="cls-34" d="M2589.31,1192.94l-50.1,266.93c-2,10.57-12.83,19-24.26,19H2145.27c-11.43,0-22.28-8.42-24.26-19l-2.48-13.24h0l-47.61-253.69c-3.12-16.6,6.24-30.34,21-30.34h476.44a20.56,20.56,0,0,1,12.38,4h0C2587.82,1171.8,2591.42,1181.72,2589.31,1192.94Z"/><rect class="cls-35" x="2126.11" y="1478.86" width="408" height="25.68" rx="12.84"/><path class="cls-36" d="M2139,1499.55a7.85,7.85,0,0,1,0-15.69h382.32a7.85,7.85,0,0,1,0,15.69Z"/><ellipse class="cls-6" cx="2330.11" cy="1323.64" rx="62.1" ry="25.48"/><path class="cls-37" d="M2589.31,1192.94l-50.1,266.93c-2,10.57-12.83,19-24.26,19H2145.27c-11.43,0-22.28-8.42-24.26-19l-2.48-13.24c479.73,26.52,462.18-280.07,462.18-280.07C2587.82,1171.8,2591.42,1181.72,2589.31,1192.94Z"/><rect class="cls-14" x="1415.69" y="1504.55" width="1826.45" height="48.12" rx="24.06"/><polygon class="cls-36" points="1473.47 2540.42 1404.87 2540.42 1606.25 1552.67 1674.85 1552.67 1473.47 2540.42"/><polygon class="cls-36" points="3184.36 2540.42 3252.95 2540.42 3051.57 1552.67 2982.98 1552.67 3184.36 2540.42"/><path class="cls-4" d="M1891.09,1363.22c37.89-33.87,60.57-76.83,60.57-123.59,0-109.35-123.94-198-276.81-198s-276.81,88.64-276.81,198,123.93,198,276.81,198c71.94,0,137.46-19.63,186.68-51.81h0l74.66,20.09-45.1-42.66Z"/><path class="cls-12" d="M1685.36,1291.22a77.69,77.69,0,0,0,.85-11.49,78.73,78.73,0,0,0-.89-11.76l-17.31-6.16a62,62,0,0,0-4.88-11.72l7.87-16.56a78.17,78.17,0,0,0-16.52-16.47l-16.59,7.89a62.73,62.73,0,0,0-11.62-4.8l-6.15-17.31a78.77,78.77,0,0,0-23.35,0l-6.16,17.31A62.35,62.35,0,0,0,1579,1225l-16.6-7.89a78.36,78.36,0,0,0-16.51,16.47l7.87,16.56a61.38,61.38,0,0,0-4.88,11.72l-17.32,6.16a79,79,0,0,0,0,23.25l17.27,6.14a61.62,61.62,0,0,0,4.9,11.91l-7.88,16.56a78.41,78.41,0,0,0,16.37,16.42l16.53-7.86a62,62,0,0,0,12,5l6.14,17.27a78.33,78.33,0,0,0,23.15,0l6.14-17.27a61.89,61.89,0,0,0,12-5l16.53,7.86a78.41,78.41,0,0,0,16.37-16.42l-7.87-16.56a61.62,61.62,0,0,0,4.9-11.91Zm-72.53,36.4a48.08,48.08,0,1,1,43.49-43.49A48.12,48.12,0,0,1,1612.83,1327.62Z"/><path class="cls-12" d="M1608.44,1232.86a46.89,46.89,0,1,0,46.89,46.89A46.94,46.94,0,0,0,1608.44,1232.86Zm0,85.59a38.71,38.71,0,1,1,38.71-38.7A38.7,38.7,0,0,1,1608.44,1318.45Z"/><path class="cls-12" d="M1746.88,1298.39a38.45,38.45,0,1,0,19.78,21.8A38.34,38.34,0,0,0,1746.88,1298.39Zm-5.65,64.84a31.95,31.95,0,1,1,19.3-40.85A31.94,31.94,0,0,1,1741.23,1363.23Z"/><path class="cls-12" d="M1781.71,1330.23l11.71-9.57a64.81,64.81,0,0,0-6.5-18.05l-15.17,0a51.08,51.08,0,0,0-7.06-7.75l1.51-15.06a64.9,64.9,0,0,0-17.42-8.2l-10.7,10.75a51,51,0,0,0-10.36-.49l-9.6-11.74a64.73,64.73,0,0,0-18.14,6.5l0,15.17a50.55,50.55,0,0,0-7.7,7l-15.08-1.51a64.26,64.26,0,0,0-8.25,17.39l10.72,10.67a50.82,50.82,0,0,0-.52,10.48l-11.74,9.6a64.06,64.06,0,0,0,6.44,18.07l15.12,0a51.5,51.5,0,0,0,7.12,7.89l-1.5,15.06a64.72,64.72,0,0,0,17.29,8.2l10.65-10.71a51.07,51.07,0,0,0,10.72.53l9.58,11.7a64.64,64.64,0,0,0,18-6.44l0-15.13a51.06,51.06,0,0,0,8-7.21l15,1.5a64.54,64.54,0,0,0,8.15-17.31l-10.73-10.68A50.79,50.79,0,0,0,1781.71,1330.23Zm-37.78,40.51a39.92,39.92,0,1,1,24.11-51A39.91,39.91,0,0,1,1743.93,1370.74Z"/><path class="cls-12" d="M1718.92,1126.5a48.94,48.94,0,1,0,46.12,32.44A48.71,48.71,0,0,0,1718.92,1126.5Zm13.71,87.06a40.49,40.49,0,1,1,24.46-51.78A40.49,40.49,0,0,1,1732.63,1213.56Z"/><path class="cls-12" d="M1783.94,1171.74l14.84-12.14a82.4,82.4,0,0,0-8.24-22.89l-19.23,0a64.88,64.88,0,0,0-8.94-9.83l1.9-19.08a81.66,81.66,0,0,0-22.07-10.39l-13.56,13.62a64.64,64.64,0,0,0-13.14-.62l-12.17-14.88a82.07,82.07,0,0,0-23,8.24l.05,19.22a65.56,65.56,0,0,0-9.75,8.82L1651.5,1130a81.87,81.87,0,0,0-10.45,22l13.59,13.53a64.46,64.46,0,0,0-.66,13.27L1639.09,1191a82.22,82.22,0,0,0,8.17,22.91l19.17-.05a64.73,64.73,0,0,0,9,10l-1.91,19.09a81.69,81.69,0,0,0,21.92,10.4l13.5-13.57a64.78,64.78,0,0,0,13.59.66l12.15,14.84a82.19,82.19,0,0,0,11.7-3.24,81,81,0,0,0,11.1-4.93l0-19.17a65.08,65.08,0,0,0,10.08-9.15l19,1.91a81.81,81.81,0,0,0,10.33-22l-13.6-13.53A64.93,64.93,0,0,0,1783.94,1171.74ZM1764.55,1197a50.41,50.41,0,1,1,1.88-38.54A50.09,50.09,0,0,1,1764.55,1197Z"/><path class="cls-5" d="M1676.77,1285a79,79,0,0,0,0-23.25l-17.32-6.16a61.7,61.7,0,0,0-4.87-11.73l7.86-16.55a77.89,77.89,0,0,0-16.51-16.47l-16.59,7.89a61.39,61.39,0,0,0-11.62-4.8l-6.16-17.31a78.7,78.7,0,0,0-23.34,0l-6.16,17.31a61.39,61.39,0,0,0-11.62,4.8l-16.59-7.89a78.13,78.13,0,0,0-16.51,16.47l7.86,16.55a62.36,62.36,0,0,0-4.87,11.73l-17.32,6.16a79,79,0,0,0,0,23.25l17.27,6.14a62.11,62.11,0,0,0,4.89,11.91l-7.87,16.56a78.12,78.12,0,0,0,16.37,16.41l16.53-7.85a62.15,62.15,0,0,0,12,5l6.15,17.27a78.26,78.26,0,0,0,23.14,0l6.15-17.27a62.15,62.15,0,0,0,12-5l16.53,7.85a78.12,78.12,0,0,0,16.37-16.41l-7.87-16.56a62.11,62.11,0,0,0,4.89-11.91Zm-72.53,36.4a48.08,48.08,0,1,1,43.48-43.49A48.12,48.12,0,0,1,1604.24,1321.4Z"/><path class="cls-5" d="M1599.85,1226.63a46.89,46.89,0,1,0,46.89,46.89A46.94,46.94,0,0,0,1599.85,1226.63Zm0,85.6a38.71,38.71,0,1,1,38.7-38.71A38.7,38.7,0,0,1,1599.85,1312.23Z"/><path class="cls-14" d="M1738.29,1292.17a38.45,38.45,0,1,0,19.77,21.8A38.27,38.27,0,0,0,1738.29,1292.17Zm-5.65,64.84a31.95,31.95,0,1,1,19.3-40.85A31.95,31.95,0,0,1,1732.64,1357Z"/><path class="cls-14" d="M1773.12,1324l11.71-9.57a65.1,65.1,0,0,0-2.55-9.16,64.32,64.32,0,0,0-4-8.9l-15.17,0a51.57,51.57,0,0,0-7.05-7.76l1.5-15.05a64.84,64.84,0,0,0-17.41-8.2l-10.7,10.75a51.1,51.1,0,0,0-10.36-.49l-9.6-11.74a66.27,66.27,0,0,0-9.32,2.57,64.92,64.92,0,0,0-8.82,3.93l0,15.17a51,51,0,0,0-7.69,7l-15.09-1.51a64.53,64.53,0,0,0-8.24,17.39l10.72,10.67a51.43,51.43,0,0,0-.53,10.47l-11.74,9.61a65.2,65.2,0,0,0,6.44,18.07l15.13,0a51,51,0,0,0,7.12,7.89l-1.51,15.06a64.67,64.67,0,0,0,17.29,8.19l10.66-10.7a50.37,50.37,0,0,0,10.72.52l9.58,11.71a64.64,64.64,0,0,0,18-6.44l0-15.13a51.52,51.52,0,0,0,8-7.21l15,1.5a64.54,64.54,0,0,0,8.15-17.31l-10.73-10.68A50.79,50.79,0,0,0,1773.12,1324Zm-37.79,40.51a39.93,39.93,0,1,1,24.12-51A39.85,39.85,0,0,1,1735.33,1364.52Z"/><path class="cls-3" d="M1710.33,1120.28a48.94,48.94,0,1,0,46.12,32.43A48.66,48.66,0,0,0,1710.33,1120.28Zm13.71,87.06a40.49,40.49,0,1,1,24.46-51.78A40.5,40.5,0,0,1,1724,1207.34Z"/><path class="cls-3" d="M1775.35,1165.52l14.84-12.14a82.09,82.09,0,0,0-8.24-22.89l-19.23,0a64.47,64.47,0,0,0-9-9.83l1.91-19.08a81.61,81.61,0,0,0-22.08-10.4L1720,1104.86a65.23,65.23,0,0,0-13.13-.63l-12.17-14.88a82.07,82.07,0,0,0-23,8.24l0,19.23a64.53,64.53,0,0,0-9.75,8.82l-19.13-1.91a81.87,81.87,0,0,0-10.45,22l13.59,13.52a65.3,65.3,0,0,0-.67,13.28l-14.88,12.17a81.91,81.91,0,0,0,8.17,22.91l19.17,0a64.22,64.22,0,0,0,9,10l-1.91,19.09a81.6,81.6,0,0,0,21.91,10.39l13.51-13.57a64.78,64.78,0,0,0,13.59.67l12.14,14.84a81.92,81.92,0,0,0,22.8-8.17l0-19.17a65.08,65.08,0,0,0,10.08-9.15l19,1.9a82.06,82.06,0,0,0,10.33-21.94l-13.6-13.54A64.84,64.84,0,0,0,1775.35,1165.52ZM1756,1190.76a50.41,50.41,0,1,1,1.88-38.54A50.08,50.08,0,0,1,1756,1190.76Z"/><path class="cls-4" d="M2874,524.74c-151.48,0-274.27,81.13-274.27,181.2a125.15,125.15,0,0,0,10.86,50.63h0l-68.94,32.69,84.65-5.44c44.1,61.09,138.43,103.31,247.7,103.31,151.47,0,274.27-81.12,274.27-181.2S3025.48,524.74,2874,524.74Z"/><circle class="cls-14" cx="2809.72" cy="709" r="17.58"/><circle class="cls-14" cx="2873.57" cy="709" r="17.58"/><circle class="cls-14" cx="2937.41" cy="709" r="17.58"/></g></svg>