<svg id="Layer_1" data-name="Layer 1" xmlns="http://www.w3.org/2000/svg" viewBox="0 0 3665 3160.38"><defs><style>.cls-1{fill:#2847d4;}.cls-2,.cls-34{fill:none;stroke-linecap:round;stroke-miterlimit:10;}.cls-2{stroke:#6981f1;}.cls-3{fill:#2a46d3;}.cls-4{fill:#307cf2;}.cls-5{fill:#3580f7;}.cls-6{fill:#2944e3;}.cls-7{fill:#15ca75;}.cls-8{fill:#9abcff;}.cls-9{fill:#facf47;}.cls-10{fill:#edb341;}.cls-11{fill:#83d897;}.cls-12{fill:#ffa89e;}.cls-13{fill:#fff;}.cls-14{fill:#bdd5ff;}.cls-15{fill:#e0564f;}.cls-16{fill:#ff867f;}.cls-17{fill:#1a2241;}.cls-18{fill:#f76559;}.cls-19{fill:#e66e6e;}.cls-20{opacity:0.49;}.cls-21{fill:#b7c4ee;}.cls-22{fill:#d1def6;}.cls-23{fill:#563d3a;}.cls-24{fill:#3b2c2a;}.cls-25{fill:#cb6161;}.cls-26{fill:#0c2d60;}.cls-27{fill:#071d3f;}.cls-28{opacity:0.2;}.cls-29{fill:#2645d3;}.cls-30{fill:#212ca8;}.cls-31{fill:#23aa53;}.cls-32{fill:#5fc37a;}.cls-33{opacity:0.23;}.cls-34{stroke:#cb6161;stroke-width:0.75px;}.cls-35{fill:#4772ed;}.cls-36{fill:#2a5fed;}.cls-37{fill:#ff897f;}.cls-38{opacity:0.25;}.cls-39{fill:#1f6457;}.cls-40{opacity:0.46;}.cls-41{fill:#355ee3;}.cls-42{fill:#2b4bb7;}.cls-43{fill:#ffaba0;}.cls-44{fill:#75a6f9;}</style></defs><g id="element"><g id="_2" data-name="2"><path class="cls-1" d="M1772.63,790.81a7.32,7.32,0,0,1-7-5.17c-19.75-64.18-52.66-99.51-92.68-99.51h-.2a70.91,70.91,0,0,0-21,3.31c-2.91,25.53-12.76,45.1-24.11,52.28-7.1,4.48-15,4.49-21.71,0-8-5.36-10.9-14.28-7.83-24.47,4.26-14.14,19.58-29.38,39.75-38.23a130.55,130.55,0,0,0-1.28-24.33c-5-34.72-28.21-97.13-126.63-124.89-124.52-35.12-216.28-11.29-272.77,70.83-5.08,7.4-7.4,10.77-12.26,10.77a7.32,7.32,0,0,1-3.63-13.69c.86-1.06,2.42-3.34,3.83-5.38,60.42-87.85,157.59-113.63,288.8-76.62,106.39,30,131.6,98.64,137.16,136.88a147.2,147.2,0,0,1,1.55,21.39,84.65,84.65,0,0,1,20.09-2.52h.24c27.33,0,77.3,14.35,106.69,109.85a7.32,7.32,0,0,1-7,9.48Zm-136.81-94.33c-12.51,7.3-21.33,17.14-23.69,25-1.7,5.65.75,7.28,1.92,8.07,1.59,1.05,3.17,1.42,5.77-.22C1625.89,725.5,1632.51,713.44,1635.82,696.48Zm-410.94-99.71h0Zm0,0h0Z" transform="translate(-147 -437.51)"/><path class="cls-2" d="M2331.53,769.93" transform="translate(-147 -437.51)"/><rect class="cls-3" x="1985.21" y="128.32" width="382.7" height="253.53" rx="4.29"/><path class="cls-4" d="M2339.89,717.44a28.25,28.25,0,0,1-31.08,0l-106.15-71.38-58.26-39.17c-20.19-13.58-9.6-42.66,15.54-42.66h328.83c25.14,0,35.73,29.08,15.54,42.66L2446,646.06Z" transform="translate(-147 -437.51)"/><path class="cls-1" d="M2498.55,551.63a7.32,7.32,0,0,1-1.12-14.56c11.23-1.77,41.39-10.08,46-27,3.53-13-8.21-31.08-34-52.14a7.32,7.32,0,0,1,9.27-11.34c31.44,25.72,44.13,47.75,38.81,67.34-8.05,29.58-55.83,37.33-57.86,37.65A7.4,7.4,0,0,1,2498.55,551.63Z" transform="translate(-147 -437.51)"/><path class="cls-1" d="M2498.57,505a6.82,6.82,0,0,1-1-.07,7.33,7.33,0,0,1-6.26-8.25l8.06-59.16,79.56,2.6a7.33,7.33,0,0,1,7.08,7.56,7.24,7.24,0,0,1-7.56,7.08l-66.35-2.18-6.28,46.08A7.33,7.33,0,0,1,2498.57,505Z" transform="translate(-147 -437.51)"/></g><g id="_3" data-name="3"><polygon class="cls-5" points="2855.91 1982.65 2371.17 1982.65 2508.3 1507.47 2993.05 1507.47 2855.91 1982.65"/><rect class="cls-6" x="2371.17" y="1982.65" width="484.75" height="12.76"/><path class="cls-7" d="M2723.94,2057a3.67,3.67,0,0,1-2.67-1.15l-19.18-20.39L2681,2054.68a3.66,3.66,0,1,1-4.93-5.41l26.47-24.08,24.11,25.63a3.65,3.65,0,0,1-2.66,6.17Z" transform="translate(-147 -437.51)"/><path class="cls-7" d="M2974,2302.84h-.09l-326.48-8,50.51-259.65a3.66,3.66,0,0,1,7.19,1.41l-48.86,251.13,317.82,7.77a3.67,3.67,0,0,1-.09,7.33Z" transform="translate(-147 -437.51)"/><path class="cls-7" d="M2961.34,2324.43a3.66,3.66,0,0,1-2.52-6.33l20.39-19.18L2960,2277.78a3.66,3.66,0,1,1,5.42-4.93l24.07,26.47-25.62,24.12A3.68,3.68,0,0,1,2961.34,2324.43Z" transform="translate(-147 -437.51)"/><path class="cls-7" d="M2716.88,2229.57a12,12,0,1,1-12-11.9A12,12,0,0,1,2716.88,2229.57Z" transform="translate(-147 -437.51)"/><path class="cls-7" d="M2842.59,2179.47a12,12,0,1,1-12-11.89A12,12,0,0,1,2842.59,2179.47Z" transform="translate(-147 -437.51)"/><path class="cls-7" d="M2956.29,2119.88a12,12,0,1,1-12-11.9A12,12,0,0,1,2956.29,2119.88Z" transform="translate(-147 -437.51)"/><path class="cls-7" d="M2704.92,2233.29a3.67,3.67,0,0,1-3.48-4.79c.18-.56,18.66-56,70.09-57.1,24.94-.57,47.9,2.19,68.16,4.58,18.95,2.25,35.32,4.19,45.21,2.08,39.66-8.45,55.78-58.71,55.94-59.21a3.66,3.66,0,0,1,7,2.18c-.7,2.24-17.61,54.86-61.41,64.19-11.06,2.36-27.19.45-47.59-2-20-2.37-42.68-5.06-67.14-4.54-46.18,1-63.11,51.53-63.28,52A3.67,3.67,0,0,1,2704.92,2233.29Z" transform="translate(-147 -437.51)"/></g><g id="_1" data-name="1"><path class="cls-1" d="M902.4,3543.45c-28.21,0-61.89-10.79-100.7-32.32C722,3466.88,655,3452.67,602.81,3468.86c-46.06,14.28-63.5,48.34-63.66,48.68a7.33,7.33,0,0,1-13.14-6.48c.79-1.61,20-39.73,72-56,56.25-17.65,127.17-3.08,210.79,43.31,56.44,31.31,100.07,38.59,129.66,21.61,39.41-22.6,41.22-81.75,41.24-82.35a7.32,7.32,0,1,1,14.64.34c-.06,2.77-2.09,68-48.59,94.71Q926.89,3543.46,902.4,3543.45Zm-37-93.61c-24.17,0-52.89-10.89-85.82-32.6-63.81-42.07-117.77-56.83-160.38-43.87-42.24,12.86-58.14,49.76-58.3,50.13a7.32,7.32,0,0,1-13.53-5.61c.73-1.77,18.43-43.44,67.28-58.44,47-14.45,105.21.87,173,45.56,43.81,28.87,78.22,37.11,102.3,24.46,37.52-19.7,39.32-84.81,39.33-85.47a7.33,7.33,0,0,1,14.65.29c-.06,3-2,74.36-47.13,98.13A66.39,66.39,0,0,1,865.44,3449.84Zm-28.8-122.41c-24.17,0-52.88-10.89-85.82-32.6C687,3252.76,633,3238,590.44,3251c-42.24,12.86-58.14,49.76-58.3,50.13a7.32,7.32,0,0,1-13.53-5.61c.73-1.76,18.44-43.44,67.28-58.44,47-14.46,105.22.87,173,45.55,43.8,28.87,78.22,37.12,102.29,24.47,37.53-19.71,39.33-84.81,39.34-85.47a7.33,7.33,0,0,1,14.65.29c-.06,3-2,74.36-47.13,98.13A66.54,66.54,0,0,1,836.64,3327.43Z" transform="translate(-147 -437.51)"/></g><g id="_4" data-name="4"><polygon class="cls-3" points="2669.9 3113.95 3291.78 3113.95 3428.91 2807.8 2807.03 2807.8 2669.9 3113.95"/><path class="cls-5" d="M3311.33,3296.33a105.24,105.24,0,1,1-105.24,107.5c0,.8.08,1.6.12,2.41l105,.11.12-110" transform="translate(-147 -437.51)"/><path class="cls-8" d="M3194.26,3394.4c-.08-1.6-.25-3.17-.25-4.79a105.24,105.24,0,0,1,105.24-105.24v110Z" transform="translate(-147 -437.51)"/><path class="cls-8" d="M2963.6,3328.69h200.92a3.66,3.66,0,0,0,0-7.32H2963.6a3.66,3.66,0,1,0,0,7.32Z" transform="translate(-147 -437.51)"/><path class="cls-8" d="M2946.06,3386.1H3147a3.67,3.67,0,1,0,0-7.33H2946.06a3.67,3.67,0,0,0,0,7.33Z" transform="translate(-147 -437.51)"/><path class="cls-8" d="M2931.71,3454.66h200.91a3.66,3.66,0,1,0,0-7.32H2931.71a3.66,3.66,0,0,0,0,7.32Z" transform="translate(-147 -437.51)"/><path class="cls-1" d="M2809.61,3105.44a7.33,7.33,0,0,1-.24-14.65c114.62-3.75,223.82-70.35,271.73-165.72a232.25,232.25,0,0,0,19.12-155.32c-36.6,8.33-74.8,3.37-102.64-13.88-6.55-4.06-28.15-19-31.07-40.4-1.4-10.37,2-20.38,9.93-28.94,16.08-17.41,35.38-23.82,55.81-18.56,35.87,9.25,66.49,52,78,83.79l.21-.07c61.35-20.47,105.1-78,130-171,26-96.82,17.06-298.41,17-300.43a7.32,7.32,0,0,1,7-7.65,7.42,7.42,0,0,1,7.65,7c.39,8.36,9.1,205.88-17.46,304.89-26.28,98-73.23,158.93-139.55,181.06l-.77.25a246.87,246.87,0,0,1-20.16,165.8c-50.24,100-164.51,169.87-284.34,173.79Zm209-424.59c-11.3,0-21.83,5.23-31.42,15.61-5,5.4-7,11-6.18,17,1.63,12,13.61,23.32,24.27,29.93,24.44,15.15,58.19,19.5,90.85,12.25-10.62-28.6-38-65.88-67.55-73.51A40,40,0,0,0,3018.63,2680.85Z" transform="translate(-147 -437.51)"/></g><g id="FLY"><path class="cls-9" d="M1443.13,2275.69,1478,2296.9a3.21,3.21,0,0,0,2.67.3l95.92-32a3.19,3.19,0,0,1,2.88,5.62l-64.64,46.54a3.21,3.21,0,0,0-1.32,2.83l5.85,78.92a3.19,3.19,0,0,0,5.82,1.57l29.62-43.08a3.19,3.19,0,0,1,4.44-.82l57.32,39.22a3.19,3.19,0,0,0,4.74-1.39l82.29-193.07a3.19,3.19,0,0,0-3.81-4.32l-255.83,72.64A3.19,3.19,0,0,0,1443.13,2275.69Z" transform="translate(-147 -437.51)"/><path class="cls-10" d="M1513.76,2324l5.37,74.48a4.11,4.11,0,0,0,7.53,2.1l28.1-42a3.68,3.68,0,0,1,4.45-1.79l-43.93-33.61A1,1,0,0,0,1513.76,2324Z" transform="translate(-147 -437.51)"/><path class="cls-1" d="M1233.61,2406.69c-43.39,0-94.16-50.19-96.69-52.72a7.32,7.32,0,0,1,10.35-10.35c.66.65,66.53,65,102.25,44.46,15.47-8.89,25.87-23.81,35.94-38.25,15-21.54,30.56-43.82,62.26-44.52h1.17c41.82,0,73.58,49.51,74.92,51.64a7.32,7.32,0,0,1-12.38,7.82c-.29-.45-28.81-44.81-62.54-44.81H1348c-24.26.54-36.45,18-50.56,38.26-11,15.76-22.36,32.05-40.67,42.57A45.77,45.77,0,0,1,1233.61,2406.69Z" transform="translate(-147 -437.51)"/><path class="cls-10" d="M1479.51,2298l41.11,101.63a.63.63,0,0,0,1.2-.16l9.26-78.72a.57.57,0,0,1,.21-.4l74.83-63.78a.63.63,0,0,0-.6-1.07l-125.63,41.67A.62.62,0,0,0,1479.51,2298Z" transform="translate(-147 -437.51)"/></g></g><g id="_03" data-name="03"><g id="Bg"><circle class="cls-11" cx="3158.59" cy="1225.56" r="653.41" transform="translate(-88.47 2154.91) rotate(-45)"/></g><g id="_03-2" data-name="03"><path class="cls-12" d="M2820.28,1670l-5,115.5s106.91,56.58,139.23,61.29c0,0,11.44-73.17-14.17-152.09Z" transform="translate(-147 -437.51)"/><path class="cls-13" d="M3157.81,1235.32a39.07,39.07,0,0,1-14.26,4.06c-26,2.31-115.78,14-179.27,68-67.22,57.21-143.42,245.27-158.41,351.31a39.06,39.06,0,0,0,26.06,42.65l91.05,30.68a38.89,38.89,0,0,1,26.47,37.52l-.58,34.4c-.32,18.59,18.76,35.28,36.94,39.21,80.45,17.39,196.93,59,388.49-23.78,11.76-5.08,21.31-92.62,21.31-92.62,0-27.46,58.8-26.24,84.33-16.13l1.31.52a38.92,38.92,0,0,0,51.1-23.54c31.23-90.58,101.09-328.46,15.54-434.44-98-121.38-252.31-81.81-277.2-74.42a38.14,38.14,0,0,0-6.34,2.54Z" transform="translate(-147 -437.51)"/><path class="cls-14" d="M2984.22,1455.67c-17.94,89.74-37.49,253.26-35.08,354.83.25,10.58-3.85,32.79,9,37.14,54.22,18.4,109.62,27.68,166.93,29.22,72.4,2,147.09-7.71,213.37-38.19a314.86,314.86,0,0,0,35.89-19.26,41.19,41.19,0,0,0,19.16-34.61c.64-62.32,2.21-244.28.18-354.09-.12-6.37-9.48-6.71-10.09-.37-8.93,93.75-27.39,239-57.3,258.18-44.65,28.7-271.08,86.1-299.78,27.11-23.55-48.41-36.36-150.5-32.28-258.7C2994.43,1450.7,2985.44,1449.55,2984.22,1455.67Z" transform="translate(-147 -437.51)"/><path class="cls-12" d="M3315,1596.41,3166,1857.35s-23.61,36.92-98,45.44-28.21,32.23-2.64,30.17c0,0-110.18,96.42-96.44,115.15s32.55-2,32.55-2-35,18.22-18.92,32.32,37.26-8.9,37.26-8.9,5.53,26.77,56.93-1.73c0,0-6.09,26.65,33.72-4.3s258.67-191.27,369.87-386.4C3480.28,1677.11,3420,1553.37,3315,1596.41Z" transform="translate(-147 -437.51)"/><path class="cls-13" d="M3289.18,1641.48s18.73-63.38,69-40.66c52.57,23.78,117.53,61.93,145.11,92.48,11.17,12.38,24.12,11.69,30.25-3.81,37.73-95.37,128-364.16-8.73-461.8,0,0-107.63-81.32-186.56-33.48S3241.34,1588.86,3289.18,1641.48Z" transform="translate(-147 -437.51)"/><path class="cls-14" d="M3337.23,1411.93c14.8,47.42,37.13,133.18,25.81,189.17-.86,4.27-4.75,6.92-8.63,5.68-6.41-2.06-17.09-3.46-29.92,2.7-4.68,2.25-9.95-1.67-9.69-7.24l9-188.33C3324.23,1405.68,3334.79,1404.1,3337.23,1411.93Z" transform="translate(-147 -437.51)"/><path class="cls-15" d="M2912.06,956.22c-3.58,0-69.36-12-65.77,68.16,3.05,68.2,67,112.42,150.68,74.15S2912.06,956.22,2912.06,956.22Z" transform="translate(-147 -437.51)"/><path class="cls-12" d="M3108.19,1215.33l23.13,35.88s-15.15,50.23,25.51,44.65,112.41-63,127.56-121.19c0,0-48.63,0-106-89.29Z" transform="translate(-147 -437.51)"/><path class="cls-16" d="M3178.35,1085.38l-62.79,116.3a179.29,179.29,0,0,1-2.75,20.81l18.51,28.72s-15.15,50.23,25.51,44.65,112.42-63,127.56-121.19C3284.39,1174.67,3235.76,1174.67,3178.35,1085.38Z" transform="translate(-147 -437.51)"/><path class="cls-12" d="M3034.84,941.47s-71.75,8.37-67,96.87,34.68,196.13,111.22,196.13,116-162.65,65.78-246.36C3105.4,922.33,3034.84,941.47,3034.84,941.47Z" transform="translate(-147 -437.51)"/><path class="cls-16" d="M3100.22,1046.51s60.4,84.31.4,184.37l12.79-8.47c46.21-25.81,53.39-82.39,53.86-139.58Z" transform="translate(-147 -437.51)"/><path class="cls-17" d="M3092.72,1108a7.18,7.18,0,1,1-7.18-7.18A7.19,7.19,0,0,1,3092.72,1108Z" transform="translate(-147 -437.51)"/><path class="cls-18" d="M3125.93,1092s-8.07-67.61,30.5-61.59c31.89,5,39.46,53.82,3,75.35,0,0,12.36,35.08,57.8,27.9,0,0-9.57-37.67,5.38-72.35s33.49-123.78-56.8-111.82c0,0-13.16-.6-26.31-38.87s-51.43-43.65-90.89-23.32c0,0-27.51-26.31-91.49-8.37s-73,32.29-81.92,80.72c-8.4,45.37,52.85,116.21,121,111.43s90.89-35.88,90.89-35.88S3084.67,1074,3125.93,1092Z" transform="translate(-147 -437.51)"/><path class="cls-19" d="M3119.56,1221.19a3.67,3.67,0,0,1-2-6.72c.45-.3,45.11-30.6,39.44-83.26a3.67,3.67,0,0,1,7.29-.78c6.14,57.17-42.2,89.83-42.69,90.15A3.64,3.64,0,0,1,3119.56,1221.19Z" transform="translate(-147 -437.51)"/><path class="cls-19" d="M3054.93,1184a12.65,12.65,0,0,1-7.86-2.59c-8.79-6.73-7.3-24-7.1-25.89a3.66,3.66,0,0,1,7.29.75c-.39,3.87-.44,15.73,4.27,19.32.68.53,2.8,2.14,8.31,0a3.66,3.66,0,0,1,2.63,6.84A21.19,21.19,0,0,1,3054.93,1184Z" transform="translate(-147 -437.51)"/><path class="cls-13" d="M3082.59,1153c-.71,0-1.41,0-2.12,0-25-1.22-44.27-24-43-50.77s22.6-47.52,47.71-46.34,44.27,24,43,50.77l-3.66-.18,3.66.18a50.1,50.1,0,0,1-14.86,33.59A43.74,43.74,0,0,1,3082.59,1153Zm.54-89.88c-20.21,0-37.23,17.31-38.31,39.42-1.11,22.73,15,42.07,36,43.09A36.52,36.52,0,0,0,3108.2,1135a42.75,42.75,0,0,0,12.66-28.7c1.11-22.74-15-42.07-36-43.1C3084.28,1063.15,3083.7,1063.14,3083.13,1063.14Z" transform="translate(-147 -437.51)"/><path class="cls-13" d="M2995.27,1200.23c-.71,0-1.41,0-2.12,0-25-1.22-44.27-24-43-50.77a50.13,50.13,0,0,1,14.85-33.59,43.73,43.73,0,0,1,32.86-12.74c25,1.22,44.27,24,43,50.77a50.14,50.14,0,0,1-14.86,33.59A43.78,43.78,0,0,1,2995.27,1200.23Zm.52-89.88a36.5,36.5,0,0,0-25.63,10.72,42.8,42.8,0,0,0-12.66,28.7c-1.11,22.74,15,42.07,36,43.1a36.44,36.44,0,0,0,27.38-10.67,42.78,42.78,0,0,0,12.66-28.71c1.11-22.74-15-42.07-36-43.1C2997,1110.37,2996.37,1110.35,2995.79,1110.35Z" transform="translate(-147 -437.51)"/><path class="cls-13" d="M3031.76,1131.22a3.66,3.66,0,0,1-1.83-6.83l11.49-6.63a3.66,3.66,0,0,1,3.66,6.35l-11.5,6.62A3.58,3.58,0,0,1,3031.76,1131.22Z" transform="translate(-147 -437.51)"/><path class="cls-13" d="M3115.78,1077.86a3.68,3.68,0,0,1-3.4-5c1.86-4.64,18.77-45.3,39.74-46a3.66,3.66,0,0,1,.25,7.32c-13.77.47-28.63,30.06-33.19,41.42A3.66,3.66,0,0,1,3115.78,1077.86Z" transform="translate(-147 -437.51)"/><path class="cls-17" d="M3014.81,1147.48A7.17,7.17,0,1,1,3008,1140,7.18,7.18,0,0,1,3014.81,1147.48Z" transform="translate(-147 -437.51)"/><path class="cls-19" d="M3075,1207.39a40.19,40.19,0,0,1-16.28-3.52,3.66,3.66,0,0,1,3.21-6.58c.12,0,12.44,5.86,23.77.45,8.59-4.11,14.68-13.63,18.1-28.29a3.66,3.66,0,1,1,7.13,1.67c-3.95,17-11.41,28.16-22.15,33.26A32,32,0,0,1,3075,1207.39Z" transform="translate(-147 -437.51)"/><path class="cls-16" d="M3183.37,1070.33c-2.48,22.73-18.53,39.63-35.84,37.74s-29.33-21.85-26.85-44.59,18.53-39.63,35.85-37.74S3185.86,1047.6,3183.37,1070.33Z" transform="translate(-147 -437.51)"/><path class="cls-19" d="M3147.64,1079.15a2.75,2.75,0,0,1-2.67-2.1c-5.56-22.94,12.54-29.86,12.73-29.92a2.74,2.74,0,0,1,1.89,5.15c-.64.25-13.65,5.47-9.28,23.48a2.74,2.74,0,0,1-2,3.31A2.46,2.46,0,0,1,3147.64,1079.15Z" transform="translate(-147 -437.51)"/><path class="cls-17" d="M3063.15,1102.19l-.33,0a3.65,3.65,0,0,1-3.32-4c0-.49,1.17-12.18,10.93-19.14,7.3-5.21,17.22-6.3,29.48-3.22a3.66,3.66,0,1,1-1.77,7.1c-10.06-2.51-17.92-1.81-23.4,2-7,5-7.94,13.79-7.94,13.88A3.68,3.68,0,0,1,3063.15,1102.19Z" transform="translate(-147 -437.51)"/><path class="cls-17" d="M2991.39,1136.88a3.67,3.67,0,0,1-3.15-5.52c4.46-7.59,10-12.08,16.43-13.33,9-1.76,16.16,3.68,16.46,3.91a3.66,3.66,0,0,1-4.45,5.82c-.16-.12-5-3.66-10.68-2.52-4.26.85-8.11,4.16-11.45,9.83A3.67,3.67,0,0,1,2991.39,1136.88Z" transform="translate(-147 -437.51)"/><path class="cls-16" d="M3476.76,1683.07c1.17-2,2.38-4,3.52-6,0,0-60.27-123.74-165.25-80.7l-36.21,63.4C3302.92,1659.84,3367.71,1605.6,3476.76,1683.07Z" transform="translate(-147 -437.51)"/><g class="cls-20"><path class="cls-21" d="M2988.42,1798.77a2.75,2.75,0,0,1-.25-5.48c.08,0,8.2-.81,11.81-5.6,1.58-2.08,2.06-4.62,1.47-7.78l-.19-1c-2.05-11-3.81-20.42.81-25.75,2.29-2.62,5.88-3.89,10.64-3.62a2.75,2.75,0,0,1,2.62,2.87,2.69,2.69,0,0,1-2.87,2.62c-3.07-.13-5.1.43-6.24,1.74-2.89,3.32-1.2,12.37.44,21.13l.19,1c.87,4.71,0,8.79-2.5,12.13-5.1,6.72-15.26,7.69-15.69,7.73Zm184.95-42.25a2.75,2.75,0,0,1-.25-5.48c.08,0,8.2-.82,11.81-5.59,1.58-2.09,2.06-4.64,1.47-7.79l-.19-1c-2.05-11-3.81-20.42.81-25.73,2.29-2.63,5.87-3.89,10.64-3.63a2.75,2.75,0,0,1-.25,5.49c-3-.12-5.1.43-6.24,1.74-2.89,3.32-1.2,12.37.44,21.12l.19,1c.87,4.7,0,8.77-2.5,12.12-5.1,6.72-15.26,7.69-15.69,7.73Zm-242.57-41.34a21.09,21.09,0,1,1,21.08-21.08A21.1,21.1,0,0,1,2930.8,1715.18Zm0-36.67a15.59,15.59,0,1,0,15.59,15.59A15.6,15.6,0,0,0,2930.8,1678.51Zm184.61,34a21.08,21.08,0,0,1-20.45-26.18,21.08,21.08,0,1,1,20.45,26.18Zm0-36.68a15.59,15.59,0,1,0,3.76.46A15.61,15.61,0,0,0,3115.42,1675.86Zm128.84,13a21.08,21.08,0,1,1,21.08-21.08A21.1,21.1,0,0,1,3244.26,1688.82Zm0-36.67a15.59,15.59,0,1,0,15.58,15.59A15.61,15.61,0,0,0,3244.26,1652.15Zm271.43,15.75a21.1,21.1,0,0,1-20.5-26.19h0a21.08,21.08,0,1,1,20.5,26.19Zm-.07-36.69a15.63,15.63,0,0,0-15.1,11.83h0a15.59,15.59,0,1,0,18.89-11.37A15.72,15.72,0,0,0,3515.62,1631.21Zm-17.76,11.16h0Zm-447.27,8.91a2.75,2.75,0,0,1-.25-5.48c.08,0,8.2-.82,11.81-5.6,1.57-2.08,2-4.63,1.47-7.78l-.2-1c-2-11-3.81-20.42.82-25.74,2.29-2.63,5.91-3.86,10.64-3.63a2.75,2.75,0,0,1,2.62,2.87,2.67,2.67,0,0,1-2.87,2.62c-3.06-.13-5.1.43-6.24,1.74-2.89,3.32-1.2,12.37.43,21.13l.2,1c.87,4.71,0,8.79-2.5,12.13-5.1,6.72-15.26,7.69-15.69,7.73Zm-179.1-34.41a21.46,21.46,0,0,1-5.14-.63,21.08,21.08,0,0,1-15.36-25.55h0a21.08,21.08,0,1,1,40.91,10.18,21.09,21.09,0,0,1-20.41,16ZM2856.32,1592a15.61,15.61,0,0,0,11.36,18.9,15.6,15.6,0,0,0,18.9-11.36,15.59,15.59,0,0,0-30.26-7.54Zm315.79,23.61a28.09,28.09,0,0,1-4.74-.38,2.75,2.75,0,0,1,1-5.4c.08,0,8.11,1.44,12.88-2.18,2.08-1.58,3.24-3.9,3.53-7.09l.1-1c1-11.09,1.87-20.68,7.77-24.54,2.91-1.9,6.69-2.1,11.22-.6a2.74,2.74,0,0,1-1.73,5.21c-2.91-1-5-1-6.48,0-3.68,2.41-4.51,11.58-5.32,20.45l-.09,1c-.44,4.76-2.36,8.46-5.7,11C3180.68,1615,3175.71,1615.62,3172.11,1615.62Zm-242.31-12.14a2.75,2.75,0,0,1-.67-5.41c.08,0,8-2.1,10.78-7.38,1.23-2.31,1.31-4.9.23-7.92l-.35-1c-3.74-10.5-7-19.56-3.23-25.54,1.84-3,5.18-4.72,9.93-5.25a2.78,2.78,0,0,1,3,2.42,2.74,2.74,0,0,1-2.42,3c-3.05.35-5,1.23-5.9,2.71-2.33,3.72.76,12.4,3.75,20.79l.36,1c1.6,4.51,1.41,8.66-.57,12.36-4,7.44-13.85,10-14.27,10.11A3.16,3.16,0,0,1,2929.8,1603.48ZM3030.9,1569a21.08,21.08,0,0,1-20.45-26.18A21.08,21.08,0,1,1,3030.9,1569Zm0-36.68a15.62,15.62,0,0,0-15.14,11.83h0a15.59,15.59,0,1,0,18.9-11.37A15.72,15.72,0,0,0,3030.91,1532.35Zm-17.8,11.16h0Zm490.14,18.6a21.09,21.09,0,1,1,21.08-21.09A21.11,21.11,0,0,1,3503.25,1562.11Zm0-36.68a15.59,15.59,0,1,0,15.59,15.59A15.61,15.61,0,0,0,3503.25,1525.43Zm-55.81,31.89h-.21a2.74,2.74,0,0,1-2.53-3c.23-3-.27-5.11-1.55-6.3-3.22-3-12.31-1.58-21.11-.22l-1.06.16c-4.71.72-8.77-.23-12-2.87-6.56-5.3-7.22-15.49-7.25-15.92a2.75,2.75,0,0,1,5.49-.32c0,.08.56,8.22,5.23,12,2,1.63,4.54,2.19,7.73,1.7l1-.16c11-1.7,20.51-3.17,25.68,1.62,2.56,2.37,3.66,6,3.3,10.75A2.75,2.75,0,0,1,3447.44,1557.32ZM3141.28,1543a21.09,21.09,0,1,1,21.08-21.08A21.11,21.11,0,0,1,3141.28,1543Zm0-36.67a15.59,15.59,0,1,0,15.59,15.59A15.61,15.61,0,0,0,3141.28,1506.3Zm109,36a28.28,28.28,0,0,1-4.75-.38,2.75,2.75,0,0,1,1-5.4c.09,0,8.11,1.44,12.88-2.18,2.09-1.58,3.24-3.9,3.53-7.09l.09-1c1-11.1,1.88-20.69,7.78-24.55,2.92-1.9,6.7-2.11,11.23-.6a2.74,2.74,0,0,1-1.73,5.21c-2.91-1-5-1-6.48,0-3.69,2.41-4.52,11.59-5.33,20.46l-.09,1c-.43,4.76-2.35,8.46-5.7,11C3258.82,1541.63,3253.85,1542.27,3250.25,1542.27Zm298.18-9.57a27.1,27.1,0,0,1-4.75-.38,2.75,2.75,0,0,1,1-5.4c.09,0,8.12,1.44,12.89-2.17,2.08-1.59,3.23-3.91,3.52-7.1l.1-1c1-11.1,1.88-20.68,7.78-24.55,2.9-1.91,6.69-2.11,11.22-.6a2.75,2.75,0,0,1-1.73,5.22c-2.91-1-5-1-6.48,0-3.68,2.4-4.51,11.58-5.32,20.45l-.09,1c-.44,4.76-2.36,8.46-5.7,11C3557,1532.07,3552,1532.7,3548.43,1532.7Zm-668.12-17.54a28.28,28.28,0,0,1-4.75-.38,2.75,2.75,0,0,1,1-5.4c.08,0,8.11,1.44,12.89-2.18,2.08-1.58,3.23-3.89,3.52-7.09l.1-1c1-11.1,1.88-20.68,7.78-24.54,2.91-1.9,6.69-2.1,11.22-.6a2.75,2.75,0,0,1-1.73,5.22c-2.91-1-5-1-6.48,0-3.68,2.4-4.52,11.57-5.32,20.43l-.1,1.06c-.43,4.76-2.35,8.46-5.7,11C2888.88,1514.52,2883.91,1515.16,2880.31,1515.16Zm518.49-29.59a21.09,21.09,0,1,1,21.09-21.09A21.11,21.11,0,0,1,3398.8,1485.57Zm0-36.68a15.59,15.59,0,1,0,15.59,15.59A15.61,15.61,0,0,0,3398.8,1448.89Zm-195.3,21.77a21.09,21.09,0,1,1,21.08-21.09A21.1,21.1,0,0,1,3203.5,1470.66Zm0-36.68a15.59,15.59,0,1,0,15.59,15.59A15.6,15.6,0,0,0,3203.5,1434Zm-101.78,22.48a2.75,2.75,0,0,1-.47-5.45c.08,0,8.11-1.48,11.32-6.54a9.43,9.43,0,0,0,.83-7.87l-.28-1c-2.93-10.75-5.46-20-1.28-25.71,2.06-2.8,5.53-4.31,10.31-4.48a2.75,2.75,0,1,1,.19,5.49c-3.05.11-5,.84-6.08,2.24-2.6,3.54-.18,12.43,2.16,21l.28,1c1.25,4.62.74,8.75-1.51,12.29-4.53,7.11-14.58,8.91-15,9A2.56,2.56,0,0,1,3101.72,1456.46Zm-97-1.89a28.09,28.09,0,0,1-4.74-.38,2.75,2.75,0,0,1,1-5.4c.08,0,8.12,1.44,12.88-2.18,2.08-1.58,3.24-3.9,3.53-7.09l.1-1c1-11.1,1.87-20.68,7.77-24.54,2.91-1.91,6.69-2.11,11.23-.6a2.75,2.75,0,1,1-1.74,5.21c-2.9-1-5-1-6.48,0-3.68,2.41-4.51,11.58-5.32,20.45l-.09,1c-.44,4.76-2.35,8.46-5.7,11C3013.26,1453.93,3008.28,1454.57,3004.68,1454.57Zm500.16-2.49h-.21a2.75,2.75,0,0,1-2.53-3c.24-3-.27-5.11-1.54-6.29-3.23-3-12.33-1.58-21.12-.22l-1.05.16a14.77,14.77,0,0,1-12-2.88c-6.55-5.3-7.22-15.48-7.24-15.91a2.74,2.74,0,1,1,5.48-.32c0,.08.56,8.22,5.23,12,2,1.63,4.57,2.19,7.74,1.7l1-.16c11-1.69,20.52-3.17,25.69,1.62,2.55,2.36,3.66,6,3.29,10.75A2.75,2.75,0,0,1,3504.84,1452.08Zm56.61-.8a21.08,21.08,0,1,1,21.08-21.08A21.1,21.1,0,0,1,3561.45,1451.28Zm0-36.67A15.59,15.59,0,1,0,3577,1430.2,15.6,15.6,0,0,0,3561.45,1414.61Zm-612.07-2.82a21.09,21.09,0,1,1,21.09-21.09A21.11,21.11,0,0,1,2949.38,1411.79Zm0-36.68a15.59,15.59,0,1,0,15.6,15.59A15.6,15.6,0,0,0,2949.38,1375.11Zm307.45,21.12a2.74,2.74,0,0,1-.69-5.4c.08,0,8-2.14,10.74-7.45,1.22-2.31,1.27-4.9.18-7.92l-.36-1c-3.8-10.47-7.09-19.52-3.39-25.52,1.83-3,5.16-4.75,9.91-5.32a2.8,2.8,0,0,1,3.05,2.41,2.75,2.75,0,0,1-2.41,3c-3,.36-5,1.26-5.87,2.74-2.31,3.74.83,12.39,3.87,20.77l.36,1c1.63,4.5,1.47,8.66-.49,12.37-3.93,7.46-13.79,10.08-14.21,10.19A2.71,2.71,0,0,1,3256.83,1396.23Zm-172.12-12.45a21.12,21.12,0,1,1,10.82-3A21,21,0,0,1,3084.71,1383.78Zm-.07-36.69a15.58,15.58,0,0,0-15.1,11.83h0a15.59,15.59,0,1,0,18.89-11.36A15.86,15.86,0,0,0,3084.64,1347.09Zm-17.77,11.17h0Zm321.57,17.28h-.21a2.75,2.75,0,0,1-2.53-3c.23-3-.27-5.1-1.55-6.29-3.22-3-12.32-1.58-21.12-.22l-1,.16c-4.73.74-8.78-.24-12-2.87-6.56-5.3-7.22-15.49-7.25-15.92a2.75,2.75,0,0,1,5.49-.32c0,.08.56,8.22,5.23,12,2,1.64,4.55,2.19,7.73,1.71l1-.17c11-1.7,20.52-3.17,25.69,1.62,2.56,2.36,3.66,6,3.3,10.75A2.75,2.75,0,0,1,3388.44,1375.54Zm152-11.86a28.28,28.28,0,0,1-4.75-.38,2.75,2.75,0,0,1,1-5.4c.08,0,8.12,1.44,12.89-2.18,2.08-1.58,3.23-3.9,3.52-7.09l.1-1c1-11.1,1.88-20.69,7.78-24.55,2.9-1.92,6.69-2.11,11.22-.6a2.75,2.75,0,1,1-1.74,5.21c-2.89-1-5-1-6.47,0-3.68,2.41-4.51,11.58-5.32,20.46l-.1,1c-.43,4.76-2.35,8.46-5.7,11C3549,1363,3544.06,1363.68,3540.46,1363.68Zm-352.4-19.14a28.28,28.28,0,0,1-4.75-.38,2.75,2.75,0,0,1,1-5.4c.09,0,8.13,1.44,12.89-2.18,2.08-1.57,3.23-3.89,3.52-7.09l.1-1c1-11.1,1.88-20.68,7.78-24.54,2.91-1.9,6.69-2.1,11.22-.6a2.75,2.75,0,0,1-1.73,5.22c-2.91-1-5-1-6.48,0-3.68,2.4-4.52,11.57-5.32,20.44l-.1,1c-.43,4.76-2.35,8.46-5.7,11C3196.63,1343.9,3191.66,1344.54,3188.06,1344.54Zm-177.12-18.73a28.42,28.42,0,0,1-4.75-.38,2.75,2.75,0,0,1,1-5.4c.08,0,8.12,1.44,12.88-2.18,2.08-1.57,3.23-3.9,3.52-7.09l.1-1c1-11.1,1.88-20.68,7.78-24.54,2.91-1.91,6.69-2.11,11.22-.6a2.75,2.75,0,0,1-1.73,5.22c-2.91-1-5-1-6.48,0-3.68,2.4-4.51,11.57-5.32,20.44l-.09,1c-.44,4.76-2.36,8.46-5.71,11C3019.51,1325.17,3014.54,1325.81,3010.94,1325.81Zm290.6-14a21.09,21.09,0,1,1,21.08-21.09A21.11,21.11,0,0,1,3301.54,1311.76Zm0-36.67a15.59,15.59,0,1,0,15.59,15.58A15.61,15.61,0,0,0,3301.54,1275.09Zm186.56,32.68a21.08,21.08,0,1,1,21.08-21.08A21.1,21.1,0,0,1,3488.1,1307.77Zm0-36.67a15.59,15.59,0,1,0,15.59,15.59A15.6,15.6,0,0,0,3488.1,1271.1Zm-90.39,17.6a2.75,2.75,0,0,1-.7-5.4c.09,0,8-2.15,10.74-7.45,1.22-2.31,1.28-4.9.18-7.92l-.36-1c-3.8-10.48-7.08-19.52-3.39-25.52,1.83-3,5.16-4.75,9.91-5.31a2.75,2.75,0,0,1,.64,5.46c-3,.35-5,1.25-5.87,2.73-2.3,3.74.84,12.4,3.87,20.77l.37,1c1.63,4.49,1.46,8.66-.49,12.37-3.94,7.46-13.8,10.07-14.22,10.18A2.65,2.65,0,0,1,3397.71,1288.7Zm-33.41-65.08a21.38,21.38,0,0,1-5.13-.63,21.09,21.09,0,0,1-15.36-25.55h0a21.08,21.08,0,1,1,20.49,26.18Zm-.06-36.69a15.61,15.61,0,0,0-15.1,11.83h0A15.59,15.59,0,1,0,3368,1187.4,15.86,15.86,0,0,0,3364.24,1186.93Zm-17.77,11.17h0Z" transform="translate(-147 -437.51)"/></g><path class="cls-14" d="M3480.28,1677.11s35.64,24.51,53.22,12.38c0,0-13.51,39.69-53.56,21.17,0,0-9-3.42-16.67-1.6a1.83,1.83,0,0,1-2-2.79Z" transform="translate(-147 -437.51)"/></g></g><g id="_02" data-name="02"><g id="Bg-2" data-name="Bg"><path class="cls-22" d="M1828.28,872.18h-2.62c-135.39.52-244.45,111.44-244.45,246.83l2.38,869.74a26.25,26.25,0,0,0,24.7,26.17c85.27,5.07,233.89,8.34,312.93,8.34,365.69,0,569.21-132.66,569.21-495S2194,872.18,1828.28,872.18Z" transform="translate(-147 -437.51)"/></g><g id="Line"><rect class="cls-1" x="1390.71" y="1561.71" width="862.88" height="22.04" rx="1.33"/></g><g id="Head"><path class="cls-12" d="M1977.65,1488.4s10.76,55-23.92,56.21-100.06-13.55-149.49,10.76c0,0,87,112.55,281.44,90.49,168.63-19.13,191-86.9,191-86.9s-130.35,33.49-161.45-10.76-4.78-135.54-4.78-135.54Z" transform="translate(-147 -437.51)"/><path class="cls-23" d="M1947.35,1486s-50.22,10.76-78.93-45.45-28.7-190.15,23.92-235.59,73-23.92,73-23.92,35.88-43,123.18-12,139.93,100.46,132.75,203.31-56.21,136.33-156.67,112.41S1947.35,1486,1947.35,1486Z" transform="translate(-147 -437.51)"/><path class="cls-24" d="M2054,1482.42c3.44.74,6.94,1.52,10.59,2.39,100.46,23.92,149.49-9.56,156.67-112.41s-45.44-172.22-132.75-203.31-123.18,12-123.18,12a9.83,9.83,0,0,0-1.07-.9l2.27,6.08s114.08,47,102.14,182.33Z" transform="translate(-147 -437.51)"/><path class="cls-16" d="M2131.17,1377.52l-61.43-39s3.38,137.53-89.9,169.82C1998.5,1511.9,2093.63,1500.82,2131.17,1377.52Z" transform="translate(-147 -437.51)"/><path class="cls-16" d="M2111.39,1542c-25-46-1-129.32-1-129.32l-62.65,35.75c-14.8,22.93-35.93,47.5-67.91,59.92-3,17.94-3.91,35.51-26.11,36.28-34.68,1.19-100.06-13.55-149.49,10.76,0,0,24.76,32,77.33,58.5,82.63,41.68,184.22,9.89,229.29-70.93Z" transform="translate(-147 -437.51)"/><g id="Face"><path class="cls-12" d="M2004.36,1206.16s-88-3.18-89.35,140.33c-1.14,125.17,37.42,156.74,57.86,160.65,19.83,3.78,134-7.58,164.61-154.28S2045,1205.37,2004.36,1206.16Z" transform="translate(-147 -437.51)"/><path class="cls-25" d="M1966.28,1421.31a3.61,3.61,0,0,1-1.83-.5,15.62,15.62,0,0,1-7.55-10c-3.21-12.78,7.41-30.2,7.87-30.93a3.66,3.66,0,0,1,6.23,3.85c-2.64,4.28-9,17.19-7,25.3a8.47,8.47,0,0,0,4.12,5.49,3.66,3.66,0,0,1-1.84,6.83Z" transform="translate(-147 -437.51)"/><path class="cls-25" d="M2002.64,1435.54c-24.55,1.44-38.5,1.44-50.56,4.94-2,.58-3.91.57-3.09,2.48,4.78,11.27,16,31.76,33,27.1,15.81-4.32,21.92-22,24.2-32.81C2006.69,1435.15,2004.78,1435.41,2002.64,1435.54Z" transform="translate(-147 -437.51)"/><path class="cls-25" d="M1985.62,1513.87a2.75,2.75,0,0,1-.21-5.49c.63-.05,64.08-5.51,95.25-39.58a2.75,2.75,0,0,1,4.06,3.72c-32.65,35.66-96.19,41.13-98.88,41.34Z" transform="translate(-147 -437.51)"/><g id="eye"><path class="cls-17" d="M1924.27,1357.86a3.66,3.66,0,0,1-3.29-5.27c.3-.6,7.29-14.6,19.79-16,8-1,16,3.49,23.88,13.09a3.66,3.66,0,0,1-5.68,4.63c-6.15-7.55-12-11.07-17.37-10.45-8.42,1-14,11.87-14,12A3.65,3.65,0,0,1,1924.27,1357.86Z" transform="translate(-147 -437.51)"/><path class="cls-17" d="M2032.32,1357.05a3.64,3.64,0,0,1-2.82-1.32c-5.92-7.09-11.6-10.47-16.73-10.06-7,.57-11.54,8.07-11.59,8.15a3.66,3.66,0,0,1-6.32-3.69c.25-.45,6.41-10.84,17.25-11.75,7.69-.67,15.47,3.61,23,12.67a3.67,3.67,0,0,1-.47,5.16A3.71,3.71,0,0,1,2032.32,1357.05Z" transform="translate(-147 -437.51)"/><path class="cls-17" d="M1954.55,1369.05a8.28,8.28,0,1,1-8.27-8.78A8.53,8.53,0,0,1,1954.55,1369.05Z" transform="translate(-147 -437.51)"/><path class="cls-17" d="M2017.68,1371.12a8.29,8.29,0,1,1-8.28-8.79A8.54,8.54,0,0,1,2017.68,1371.12Z" transform="translate(-147 -437.51)"/></g></g><path class="cls-23" d="M1970.87,1287.09s-32.39,47.65-75.34,45c0,0-52.62-39.06-7.18-107.63s76.94-43.45,76.94-43.45,46-53.22,152.48,1.2c76.54,39.13,107,90.89,97.47,171.41s-92.28,49.43-92.28,49.43-8.18-36.67-42.46,1.6c0,0-18.34-31.1-10.36-71C2070.14,1333.73,1990.81,1331.74,1970.87,1287.09Z" transform="translate(-147 -437.51)"/><g id="tai"><path class="cls-16" d="M2072.77,1391.1c-8.39,19.94-4.77,40.49,8.08,45.9s30.07-6.37,38.47-26.3,4.78-40.49-8.07-45.9S2081.17,1371.17,2072.77,1391.1Z" transform="translate(-147 -437.51)"/><path class="cls-25" d="M2096.05,1420.15a3.65,3.65,0,0,1-2.64-6.19c6.45-6.74,9.46-13,8.69-18.12-.84-5.65-6.07-8.62-6.12-8.66a3.66,3.66,0,0,1,3.5-6.43c.34.19,8.4,4.64,9.85,13.89,1.18,7.58-2.39,15.78-10.64,24.38A3.61,3.61,0,0,1,2096.05,1420.15Z" transform="translate(-147 -437.51)"/><path class="cls-25" d="M2107.7,1401.15a3.66,3.66,0,0,1-1-7.18c2.65-.77,3.1-2,3.25-2.38.94-2.51-1.07-6.92-2.19-8.67a3.66,3.66,0,0,1,6.14-4c.56.85,5.38,8.56,2.92,15.19-.85,2.31-2.95,5.38-8.06,6.87A3.67,3.67,0,0,1,2107.7,1401.15Z" transform="translate(-147 -437.51)"/></g></g><path class="cls-26" d="M1881.78,1542.42S1734.68,1516.7,1707,1720c-27.24,199.89-41.85,254.73,148.3,373.13s370.73,65.77,458-110,92.08-297.78,33.48-374.32c0,0-25.91-39.86-73.35-49.83,0,0-100.06,69-207.69,61.79S1881.78,1542.42,1881.78,1542.42Z" transform="translate(-147 -437.51)"/><path class="cls-27" d="M2164.44,1818.77c-11.77,26-30.46,71.7-43,123.75a8.8,8.8,0,0,0,1.69,7.58c11.3,14,53.68,67.88,40.4,69.58-6.06.78-40.37-59.26-65.22-65.22,0,0-184.78-37.76-294.46-33.31,0,0,1.09-31.38,17.34-104.22,1-4.31,7.28-3.85,7.49.57,1.59,33.33,8.58,81.25,35.44,85.09,30.2,4.31,113.78,18,173.61,19.49a91.37,91.37,0,0,0,77.23-39.29l45.87-66A2,2,0,0,1,2164.44,1818.77Z" transform="translate(-147 -437.51)"/><path class="cls-27" d="M2273.44,1559s-100.06,69-207.69,61.79-184-78.33-184-78.33a97.2,97.2,0,0,0-13.47-1c15.66,23.55,123.29,102.48,230.93,91.32,86.8-9,168.47-54,186.08-70.43A104.35,104.35,0,0,0,2273.44,1559Z" transform="translate(-147 -437.51)"/><path class="cls-27" d="M1855.75,2093.43c190,118,370.33,65.33,457.56-110.32s92.08-297.78,33.48-374.32c0,0-25.91-39.86-73.35-49.83,0,0-9.39,6.46-25.45,15.21,52.63,50.5,124.5,197,54.36,343C2207.11,2115.34,2104.63,2143.49,1855.75,2093.43Z" transform="translate(-147 -437.51)"/><path class="cls-27" d="M1816.7,2063.15a4.28,4.28,0,0,1-2.59-7.7c46.56-35.23,32.68-120.71,32.53-121.57a4.29,4.29,0,0,1,8.45-1.44c.64,3.72,14.92,91.46-35.81,129.85A4.28,4.28,0,0,1,1816.7,2063.15Z" transform="translate(-147 -437.51)"/><g class="cls-28"><path class="cls-22" d="M1933.08,1876.47h0a8,8,0,0,0-9.42.08h0a8,8,0,0,1-12.68-7.19h0a8,8,0,0,0-4.78-8.11h0a8,8,0,0,1-.12-14.59h0a8,8,0,0,0,4.65-8.19h0a8,8,0,0,1,12.57-7.39h0a8,8,0,0,0,9.41-.08h0a8,8,0,0,1,12.69,7.19h0a8,8,0,0,0,4.77,8.11h0a8,8,0,0,1,.12,14.59h0a8,8,0,0,0-4.64,8.19h0A8,8,0,0,1,1933.08,1876.47ZM2086,1838.78h0a8,8,0,0,1,4.64-8.19h0a8,8,0,0,0-.12-14.58h0a8,8,0,0,1-4.77-8.12h0a8,8,0,0,0-12.69-7.19h0a8,8,0,0,1-9.41.08h0a8,8,0,0,0-12.57,7.39h0a8,8,0,0,1-4.64,8.19h0a8,8,0,0,0,.11,14.59h0a8,8,0,0,1,4.78,8.11h0a8,8,0,0,0,12.69,7.19h0a8,8,0,0,1,9.41-.07h0A8,8,0,0,0,2086,1838.78Zm153.08-35.08h0a8,8,0,0,1,4.64-8.19h0a8,8,0,0,0-.12-14.58h0a8,8,0,0,1-4.77-8.12h0a8,8,0,0,0-12.69-7.19h0a8,8,0,0,1-9.42.08h0a8,8,0,0,0-12.57,7.39h0a8,8,0,0,1-4.64,8.2h0a8,8,0,0,0,.12,14.58h0a8,8,0,0,1,4.77,8.11h0a8,8,0,0,0,12.69,7.19h0a8,8,0,0,1,9.42-.08h0A8,8,0,0,0,2239.05,1803.7Zm-143.51,130.75h0a8,8,0,0,1,4.64-8.19h0a8,8,0,0,0-.12-14.58h0a8,8,0,0,1-4.77-8.11h0a8,8,0,0,0-12.69-7.19h0a8,8,0,0,1-9.42.07h0a8,8,0,0,0-12.57,7.4h0A8,8,0,0,1,2056,1912h0a8,8,0,0,0,.12,14.58h0a8,8,0,0,1,4.77,8.12h0a8,8,0,0,0,12.69,7.19h0a8,8,0,0,1,9.42-.08h0A8,8,0,0,0,2095.54,1934.45Zm-246.83-314.92h0a9.76,9.76,0,0,1,5.68-10h0a9.74,9.74,0,0,0-.15-17.83h0a9.72,9.72,0,0,1-5.83-9.92h0a9.75,9.75,0,0,0-15.52-8.79h0a9.72,9.72,0,0,1-11.51.09h0a9.75,9.75,0,0,0-15.37,9h0a9.73,9.73,0,0,1-5.67,10h0a9.74,9.74,0,0,0,.14,17.83h0a9.75,9.75,0,0,1,5.84,9.92h0a9.74,9.74,0,0,0,15.51,8.79h0a9.75,9.75,0,0,1,11.51-.09h0A9.74,9.74,0,0,0,1848.71,1619.53Zm-73.24,149.15h0a8,8,0,0,0-9.41.08h0a8,8,0,0,1-12.69-7.19h0a8,8,0,0,0-4.77-8.11h0a8,8,0,0,1-.12-14.59h0a8,8,0,0,0,4.64-8.19h0a8,8,0,0,1,12.57-7.39h0a8,8,0,0,0,9.42-.08h0a8,8,0,0,1,12.68,7.19h0a8,8,0,0,0,4.78,8.11h0a8,8,0,0,1,.12,14.59h0a8,8,0,0,0-4.65,8.19h0A8,8,0,0,1,1775.47,1768.68ZM1918.73,1725h0a8,8,0,0,0-9.42.08h0a8,8,0,0,1-12.68-7.19h0a8,8,0,0,0-4.78-8.12h0a8,8,0,0,1-.12-14.58h0a8,8,0,0,0,4.64-8.19h0a8,8,0,0,1,12.57-7.4h0a8,8,0,0,0,9.42-.07h0a8,8,0,0,1,12.69,7.19h0a8,8,0,0,0,4.77,8.11h0a8,8,0,0,1,.12,14.58h0a8,8,0,0,0-4.64,8.19h0A8,8,0,0,1,1918.73,1725Zm165.83,6.38h0a8,8,0,0,0-9.41.07h0a8,8,0,0,1-12.69-7.19h0a8,8,0,0,0-4.77-8.11h0a8,8,0,0,1-.12-14.58h0a8,8,0,0,0,4.64-8.19h0a8,8,0,0,1,12.57-7.4h0a8,8,0,0,0,9.41-.07h0a8,8,0,0,1,12.69,7.18h0a8,8,0,0,0,4.77,8.12h0a8,8,0,0,1,.12,14.58h0a8,8,0,0,0-4.64,8.19h0A8,8,0,0,1,2084.56,1731.37Zm164.24-62.19h0a8,8,0,0,0-9.41.08h0a8,8,0,0,1-12.69-7.19h0a8,8,0,0,0-4.77-8.12h0a8,8,0,0,1-.12-14.58h0a8,8,0,0,0,4.64-8.19h0a8,8,0,0,1,12.57-7.4h0a8,8,0,0,0,9.41-.07h0a8,8,0,0,1,12.69,7.19h0a8,8,0,0,0,4.77,8.11h0a8,8,0,0,1,.12,14.58h0a8,8,0,0,0-4.64,8.19h0A8,8,0,0,1,2248.8,1669.18Zm98.86,55.81h0a8,8,0,0,0-9.41.08h0a8,8,0,0,1-12.69-7.19h0a8,8,0,0,0-4.77-8.12h0a8,8,0,0,1-.12-14.58h0a8,8,0,0,0,4.64-8.19h0a8,8,0,0,1,12.57-7.4h0a8,8,0,0,0,9.41-.07h0a8,8,0,0,1,12.69,7.19h0a8,8,0,0,0,4.78,8.11h0a8,8,0,0,1,.12,14.58h0a8,8,0,0,0-4.65,8.19h0A8,8,0,0,1,2347.66,1725Zm-38.26,192.94h0a8,8,0,0,0-9.42.08h0a8,8,0,0,1-12.69-7.19h0a8,8,0,0,0-4.77-8.12h0a8,8,0,0,1-.12-14.58h0a8,8,0,0,0,4.64-8.19h0a8,8,0,0,1,12.57-7.4h0a8,8,0,0,0,9.42-.07h0a8,8,0,0,1,12.68,7.19h0a8,8,0,0,0,4.78,8.11h0a8,8,0,0,1,.12,14.59h0a8,8,0,0,0-4.64,8.19h0A8,8,0,0,1,2309.4,1917.93Zm-100.46,73.35h0a8,8,0,0,0-9.42.08h0a8,8,0,0,1-12.69-7.19h0a8,8,0,0,0-4.77-8.12h0a8,8,0,0,1-.12-14.58h0a8,8,0,0,0,4.64-8.19h0a8,8,0,0,1,12.57-7.4h0a8,8,0,0,0,9.42-.07h0a8,8,0,0,1,12.69,7.19h0a8,8,0,0,0,4.77,8.11h0a8,8,0,0,1,.12,14.58h0a8,8,0,0,0-4.64,8.2h0A8,8,0,0,1,2208.94,1991.28Zm-95.68,141.92h0a8,8,0,0,0-9.41.07h0a8,8,0,0,1-12.69-7.19h0a8,8,0,0,0-4.77-8.11h0a8,8,0,0,1-.12-14.58h0a8,8,0,0,0,4.64-8.2h0a8,8,0,0,1,12.57-7.39h0a8,8,0,0,0,9.41-.08h0a8,8,0,0,1,12.69,7.19h0a8,8,0,0,0,4.78,8.12h0a8,8,0,0,1,.11,14.58h0a8,8,0,0,0-4.64,8.19h0A8,8,0,0,1,2113.26,2133.2Zm-51-105.25h0a8,8,0,0,0-9.42.08h0a8,8,0,0,1-12.68-7.19h0a8,8,0,0,0-4.78-8.11h0a8,8,0,0,1-.12-14.59h0a8,8,0,0,0,4.64-8.19h0a8,8,0,0,1,12.57-7.39h0a8,8,0,0,0,9.42-.08h0a8,8,0,0,1,12.69,7.19h0a8,8,0,0,0,4.77,8.12h0a8,8,0,0,1,.12,14.58h0a8,8,0,0,0-4.64,8.19h0A8,8,0,0,1,2062.24,2028Zm-118-20.72h0a8,8,0,0,0-9.41.07h0a8,8,0,0,1-12.69-7.19h0a8,8,0,0,0-4.78-8.11h0a8,8,0,0,1-.11-14.58h0a8,8,0,0,0,4.64-8.2h0a8,8,0,0,1,12.57-7.39h0a8,8,0,0,0,9.41-.08h0a8,8,0,0,1,12.69,7.19h0a8,8,0,0,0,4.77,8.12h0a8,8,0,0,1,.12,14.58h0a8,8,0,0,0-4.64,8.19h0A8,8,0,0,1,1944.24,2007.23Zm-154.67-94.08h0a8,8,0,0,0-9.42.07h0a8,8,0,0,1-12.68-7.19h0a8,8,0,0,0-4.78-8.11h0a8,8,0,0,1-.12-14.58h0a8,8,0,0,0,4.64-8.19h0a8,8,0,0,1,12.57-7.4h0a8,8,0,0,0,9.42-.08h0a8,8,0,0,1,12.69,7.19h0a8,8,0,0,0,4.77,8.12h0a8,8,0,0,1,.12,14.58h0a8,8,0,0,0-4.64,8.19h0A8,8,0,0,1,1789.57,1913.15Z" transform="translate(-147 -437.51)"/></g><g id="hand"><path class="cls-12" d="M1803.88,1921.15s-6.81-1.92-62.68-3.32c0,0-34.92-26.54-67-53.07s-65.65-43.3-71.23-33.53,21,46.1,37.71,57.27c0,0-100.57-34.92-145.26-23.74,0,0-46.09,11.17-19.55,40.5s73.39,95.73,236.81,92.93c0,0,42,30.37,55.92,33.16S1805.27,1943.49,1803.88,1921.15Z" transform="translate(-147 -437.51)"/><path class="cls-16" d="M1602.93,1985.9l1.75,1.67c28.89,7.13,64.21,11.37,108,10.62,0,0,42,30.37,55.92,33.16s36.71-87.86,35.32-110.2C1803.88,1921.15,1692.62,1988.3,1602.93,1985.9Z" transform="translate(-147 -437.51)"/></g></g><g id="_04" data-name="04"><g id="Bg-3" data-name="Bg"><path class="cls-22" d="M2076.79,2694.06c-393.51,0-712.52,342-712.52,764a823.23,823.23,0,0,0,9.27,123.22H2780.05a823.23,823.23,0,0,0,9.27-123.22C2789.32,3036.09,2470.31,2694.06,2076.79,2694.06Z" transform="translate(-147 -437.51)"/></g><g id="Face-2" data-name="Face"><path class="cls-16" d="M1877.63,2804.06s-59.33,101.29-66.56,149.05c0,0,152.43-7.74,156.28-23.16,1.45-5.78,19.54-93.33,19.54-93.33Z" transform="translate(-147 -437.51)"/><path class="cls-12" d="M2024.31,2652.61c39.06,71,24.63,171.42-21.65,198.81-34.52,20.42-123.53-16.21-157-90.06s-17.38-153.27,35.88-177.38S1990.74,2591.55,2024.31,2652.61Z" transform="translate(-147 -437.51)"/><path class="cls-16" d="M1963,2661.52s-99.12-13.75-107.8,69.46c-2.28,21.84-1.81,37.2.11,48.05,5.74,9.22,20.29,28.71,19.84,29.36,33.16,34.75,79.06,50.83,109.07,48.25.08-.29.13-.49.13-.49C1915.26,2774.39,1963,2661.52,1963,2661.52Z" transform="translate(-147 -437.51)"/><path class="cls-29" d="M1883,2768.77s56.12,32.39,45.26-87c0,0,93.34-4.34,109.62-63s6.51-114-112.87-111.79-176.91,99.85-176.91,99.85-74.89-25-55.35,80.32,110.7,164.42,141.09,169.31c25.92,4.16,51.55-14.66,53.72-50.47Z" transform="translate(-147 -437.51)"/><path class="cls-17" d="M1985.7,2692.66a3.66,3.66,0,0,1-3.23-5.38c5.14-9.65,20.22-25.93,40.6-18.52a3.66,3.66,0,1,1-2.5,6.88c-19.47-7.06-31.15,14.18-31.64,15.09A3.67,3.67,0,0,1,1985.7,2692.66Z" transform="translate(-147 -437.51)"/><path class="cls-25" d="M2014.51,2790.77a21.43,21.43,0,0,1-6.6-1c-8.16-2.64-14.22-10.11-18-22.22a3.66,3.66,0,1,1,7-2.19c3,9.69,7.47,15.56,13.22,17.43,8.57,2.81,17.9-4,18-4.08a3.66,3.66,0,0,1,4.38,5.87C2032.09,2784.87,2024.09,2790.77,2014.51,2790.77Z" transform="translate(-147 -437.51)"/><path class="cls-16" d="M1912.48,2764.42c3.37,21.31-6.25,40.54-21.48,42.95s-30.32-12.92-33.68-34.24,6.25-40.54,21.48-43S1909.11,2743.1,1912.48,2764.42Z" transform="translate(-147 -437.51)"/><path class="cls-25" d="M1884.87,2790.72a3.6,3.6,0,0,1-2.25-.78c-6.65-5.17-10.24-11.2-10.66-17.93-.69-11.13,7.79-19.74,8.15-20.11a3.67,3.67,0,0,1,5.19,5.18c-.07.06-6.53,6.71-6,14.52.29,4.52,2.93,8.75,7.84,12.56a3.67,3.67,0,0,1-2.25,6.56Z" transform="translate(-147 -437.51)"/><path class="cls-25" d="M1973.15,2859.81a2.75,2.75,0,0,1-.4,0c-1.72-.18-42.33-4.81-61.88-31.12a3.66,3.66,0,0,1,5.88-4.37c17.66,23.77,56.39,28.17,56.78,28.21a3.66,3.66,0,0,1-.38,7.3Z" transform="translate(-147 -437.51)"/><path class="cls-30" d="M1748.12,2606.89s-74.89-25-55.35,80.32,110.7,164.42,141.09,169.3c16.8,2.7,33.43-4.3,43.68-19.27C1748.73,2772.26,1748.12,2606.89,1748.12,2606.89Z" transform="translate(-147 -437.51)"/><path class="cls-17" d="M2027.89,2691.37a8.81,8.81,0,1,1-10.28-7.64A9,9,0,0,1,2027.89,2691.37Z" transform="translate(-147 -437.51)"/><path class="cls-12" d="M2042,2701.69s28.71,34.14,20.17,41.13-22.5,8.53-21.72,5.43S2042,2701.69,2042,2701.69Z" transform="translate(-147 -437.51)"/></g><g id="Body"><g id="HAND-2" data-name="HAND"><ellipse class="cls-31" cx="2660.89" cy="2745.44" rx="51.01" ry="92.6" transform="translate(-1109.62 3527.77) rotate(-64.5)"/><path class="cls-12" d="M2598.7,2711.85l60.41-127.51S2623.25,2438,2643.89,2409s54.08,52.29,52.15,58.88c0,0,60.55-123.9,97.51-123.1,0,0,12.37-16.54,25.2-14,23.76,4.68,14.25,36.18,14.25,36.18s36.26,5.35,16.05,47.54c0,0,33.88,37.45-18.42,115.9-68.46,102.67-47.36,45-72,102.41C2726,2709.07,2728.59,2779,2728.59,2779,2738.94,2783.22,2662.51,2752.85,2598.7,2711.85Z" transform="translate(-147 -437.51)"/><path class="cls-16" d="M2616.88,2673.48l-18.18,38.37c55.82,35.86,121.3,63.6,129.89,67.17,0,0-.34-9.57.85-25.39C2689,2731.42,2645.71,2697.64,2616.88,2673.48Z" transform="translate(-147 -437.51)"/><path class="cls-16" d="M2728.91,2779.15" transform="translate(-147 -437.51)"/></g><path class="cls-32" d="M1490.93,3198.75c6.28-18.37,49.2-283.63,547-285.08,452.91-1.32,529.88-177,540.08-208.67a3.92,3.92,0,0,1,5.78-2.12c17.53,10.69,85,50.24,162,74.47,15.71,10.74-197.79,407.43-524.12,443.1l-10.13,356L1488,3586.57S1472.11,3253.74,1490.93,3198.75Z" transform="translate(-147 -437.51)"/><path class="cls-31" d="M1589.09,3261.75c2.65,77.33,14.77,179.53,49,300.73a20,20,0,0,0,19.76,14.53l136-3.3c17.93-.43,26.3-22.33,13.22-34.6-49.61-46.54-133.77-141.61-178.84-283.85C1621.17,3233,1588.28,3238.4,1589.09,3261.75Z" transform="translate(-147 -437.51)"/><path class="cls-31" d="M2220.39,3226.61s-30.33,19.3-77.8-21.21c-15-12.77-37.61.42-34.18,19.8,9.57,54.17,36.23,124.62,109.81,133.82Z" transform="translate(-147 -437.51)"/><g class="cls-33"><path class="cls-13" d="M1697.76,3063a2.35,2.35,0,0,1-1.42-.47,2.41,2.41,0,0,1-.53-3.38l15.71-21.49-18-11a2.42,2.42,0,0,1,2.52-4.13l18.36,11.22,15.63-21.39a2.42,2.42,0,1,1,3.9,2.86l-15.39,21.06,20.7,12.65a2.41,2.41,0,0,1-2.52,4.12l-21-12.85-16,21.82A2.39,2.39,0,0,1,1697.76,3063Zm142.58-59.11,20.1-18.07,17.94,16.92a2.42,2.42,0,0,0,3.32-3.52L1864,2982.55l19.4-17.45a2.41,2.41,0,1,0-3.23-3.59l-19.7,17.71-15.66-14.76a2.42,2.42,0,0,0-3.31,3.52l15.37,14.48-19.8,17.81a2.4,2.4,0,0,0-.18,3.41,2.35,2.35,0,0,0,1.29.75A2.43,2.43,0,0,0,1840.34,3003.86Zm182.41-11.52,23.35-13.6,14.13,20.21a2.42,2.42,0,1,0,4-2.78l-13.9-19.88,22.54-13.13a2.42,2.42,0,0,0-2.43-4.18l-22.89,13.33-12.33-17.63a2.42,2.42,0,1,0-4,2.77l12.1,17.31-23,13.4a2.43,2.43,0,0,0-.87,3.31,2.45,2.45,0,0,0,1.12,1A2.4,2.4,0,0,0,2022.75,2992.34Zm32.12,117.29,23.35-13.61,14.13,20.21a2.42,2.42,0,0,0,4-2.77l-13.9-19.88,22.54-13.14a2.42,2.42,0,0,0-2.43-4.18l-22.89,13.34L2067.3,3072a2.42,2.42,0,1,0-4,2.78l12.1,17.3-23,13.41a2.42,2.42,0,0,0-.87,3.3,2.35,2.35,0,0,0,1.12,1A2.43,2.43,0,0,0,2054.87,3109.63Zm-147.67-10.7,23.35-13.6,14.13,20.2a2.42,2.42,0,1,0,4-2.77l-13.9-19.88,22.54-13.13a2.42,2.42,0,0,0-2.43-4.18L1932,3078.9l-12.33-17.63a2.42,2.42,0,0,0-4,2.77l12.1,17.31-23,13.4a2.43,2.43,0,0,0-.87,3.31,2.45,2.45,0,0,0,1.12,1A2.4,2.4,0,0,0,1907.2,3098.93ZM1966,3247l23.35-13.61,14.13,20.21a2.41,2.41,0,0,0,3.37.6,2.43,2.43,0,0,0,.6-3.37l-13.9-19.88,22.54-13.13a2.42,2.42,0,1,0-2.44-4.18l-22.88,13.33-12.33-17.63a2.42,2.42,0,1,0-4,2.77l12.09,17.31-23,13.4a2.43,2.43,0,0,0,.24,4.31A2.46,2.46,0,0,0,1966,3247Zm-201.32-68.68,23.35-13.61,14.13,20.21a2.42,2.42,0,1,0,4-2.77l-13.89-19.88,22.54-13.14a2.42,2.42,0,1,0-2.44-4.17l-22.88,13.33-12.33-17.64a2.42,2.42,0,0,0-4,2.78l12.1,17.3-23,13.41a2.41,2.41,0,0,0-.87,3.3,2.38,2.38,0,0,0,1.11,1A2.42,2.42,0,0,0,1764.69,3178.28Zm51.92,126.28L1840,3291l14.13,20.2a2.42,2.42,0,1,0,4-2.77l-13.89-19.88,22.54-13.13a2.42,2.42,0,1,0-2.44-4.18l-22.89,13.33L1829,3266.9a2.42,2.42,0,1,0-4,2.77l12.1,17.31-23,13.4a2.42,2.42,0,0,0-.88,3.31,2.45,2.45,0,0,0,1.12,1A2.43,2.43,0,0,0,1816.61,3304.56Zm-253.8-149.4,23.35-13.61,14.13,20.21a2.42,2.42,0,1,0,4-2.77l-13.9-19.88,22.54-13.13a2.42,2.42,0,0,0-2.43-4.18l-22.89,13.33-12.33-17.63a2.42,2.42,0,1,0-4,2.77l12.1,17.3-23,13.41a2.42,2.42,0,0,0-.87,3.31,2.38,2.38,0,0,0,1.12,1A2.43,2.43,0,0,0,1562.81,3155.16Zm93.6,133.2,23.35-13.61,14.13,20.21a2.42,2.42,0,1,0,4-2.77l-13.9-19.88,22.54-13.13a2.42,2.42,0,0,0-2.43-4.18l-22.89,13.33-12.33-17.63a2.42,2.42,0,1,0-4,2.77l12.1,17.31-23,13.4a2.42,2.42,0,0,0-.87,3.31,2.41,2.41,0,0,0,3.31.87Zm-144,52.2,23.35-13.6,14.13,20.2a2.42,2.42,0,1,0,4-2.77l-13.9-19.88,22.54-13.13a2.42,2.42,0,0,0,.87-3.31,2.39,2.39,0,0,0-3.3-.87l-22.89,13.33-12.33-17.63a2.42,2.42,0,1,0-4,2.77L1533,3323l-23,13.4a2.42,2.42,0,0,0-.87,3.31,2.41,2.41,0,0,0,3.31.87ZM1537,3523l23.35-13.61,14.13,20.21a2.42,2.42,0,0,0,4-2.77l-13.9-19.88,22.54-13.14a2.42,2.42,0,0,0-2.44-4.18L1561.78,3503l-12.33-17.64a2.42,2.42,0,0,0-4,2.78l12.1,17.3-23,13.41a2.41,2.41,0,0,0-.87,3.3,2.35,2.35,0,0,0,1.12,1A2.43,2.43,0,0,0,1537,3523Zm108.59-76.25,23.35-13.6,14.13,20.21a2.42,2.42,0,1,0,4-2.78l-13.9-19.88,22.54-13.13a2.42,2.42,0,0,0-2.43-4.18l-22.89,13.33L1658,3409.1a2.42,2.42,0,0,0-4,2.77l12.1,17.31-23,13.4a2.43,2.43,0,0,0-.87,3.31,2.45,2.45,0,0,0,1.12,1A2.4,2.4,0,0,0,1645.61,3446.76Zm90,88.2,23.35-13.6,14.13,20.21a2.42,2.42,0,1,0,4-2.78l-13.9-19.88,22.54-13.13a2.42,2.42,0,1,0-2.43-4.18l-22.89,13.34L1748,3497.3a2.42,2.42,0,0,0-4,2.77l12.1,17.31-23,13.4a2.42,2.42,0,0,0-.88,3.31,2.45,2.45,0,0,0,1.12,1A2.4,2.4,0,0,0,1735.61,3535Zm57.6-109.8,23.35-13.6,14.13,20.21a2.42,2.42,0,1,0,4-2.78l-13.9-19.88,22.54-13.13a2.42,2.42,0,1,0-2.43-4.18L1818,3405.13l-12.33-17.63a2.42,2.42,0,1,0-4,2.77l12.1,17.31-23,13.4a2.42,2.42,0,0,0-.88,3.31,2.45,2.45,0,0,0,1.12,1A2.4,2.4,0,0,0,1793.21,3425.16ZM1958,3378.74l23.35-13.6,14.13,20.2a2.42,2.42,0,1,0,4-2.77l-13.9-19.88,22.54-13.13a2.42,2.42,0,1,0-2.44-4.18l-22.88,13.33-12.33-17.63a2.42,2.42,0,1,0-4,2.77l12.09,17.31-23,13.4a2.42,2.42,0,1,0,2.43,4.18Zm-38.78,158,23.35-13.6,14.13,20.21a2.42,2.42,0,0,0,4-2.77l-13.89-19.89,22.54-13.13a2.42,2.42,0,1,0-2.44-4.18L1944,3516.74l-12.33-17.64a2.42,2.42,0,0,0-4,2.77l12.1,17.31-23,13.4a2.41,2.41,0,0,0-.87,3.31,2.4,2.4,0,0,0,3.3.87Zm197.41.65L2140,3523.8,2154.1,3544a2.42,2.42,0,0,0,4-2.77l-13.89-19.88,22.54-13.14a2.42,2.42,0,0,0-2.44-4.18l-22.88,13.34-12.33-17.64a2.42,2.42,0,0,0-4,2.78l12.1,17.3-23,13.41a2.42,2.42,0,0,0,.24,4.3A2.42,2.42,0,0,0,2116.62,3537.41Zm-36-111.61,23.35-13.6,14.13,20.21a2.42,2.42,0,0,0,4-2.77l-13.89-19.88,22.54-13.14a2.42,2.42,0,0,0-2.44-4.18l-22.88,13.34-12.33-17.64a2.42,2.42,0,0,0-4,2.77l12.1,17.31-23,13.41a2.41,2.41,0,0,0-.88,3.3,2.45,2.45,0,0,0,1.12,1A2.4,2.4,0,0,0,2080.62,3425.8Zm81,12.6,23.35-13.6L2199.1,3445a2.42,2.42,0,0,0,4-2.77l-13.9-19.88,22.54-13.14a2.42,2.42,0,0,0-2.44-4.18l-22.88,13.34-12.33-17.64a2.42,2.42,0,0,0-4,2.77l12.1,17.31-23,13.41a2.41,2.41,0,1,0,2.43,4.17Zm-31.8-157.24,23.35-13.61,14.13,20.21a2.39,2.39,0,0,0,3.36.6,2.42,2.42,0,0,0,.6-3.37l-13.9-19.88L2179.9,3252a2.42,2.42,0,1,0-2.44-4.18l-22.88,13.33-12.33-17.63a2.42,2.42,0,1,0-4,2.77l12.1,17.31-23,13.4a2.42,2.42,0,0,0,.25,4.31A2.46,2.46,0,0,0,2129.82,3281.16ZM2212,2996l15.95-21.82,21,12.85a2.41,2.41,0,0,0,2.52-4.12l-20.7-12.65,15.39-21.06a2.42,2.42,0,0,0-3.9-2.86l-15.63,21.39-18.36-11.22a2.41,2.41,0,1,0-2.52,4.12l18,11-15.7,21.5a2.41,2.41,0,0,0,.52,3.38,2.38,2.38,0,0,0,1.43.47A2.4,2.4,0,0,0,2212,2996Zm140.63-58.12,20.09-18.07,17.95,16.91a2.39,2.39,0,0,0,3.41-.1,2.42,2.42,0,0,0-.1-3.42l-17.65-16.63,19.4-17.45a2.41,2.41,0,1,0-3.23-3.59l-19.7,17.71-15.66-14.76a2.42,2.42,0,1,0-3.31,3.52l15.36,14.48-19.8,17.8a2.42,2.42,0,1,0,3.24,3.6ZM2410.61,3074l20.1-18.07,17.94,16.91a2.42,2.42,0,1,0,3.32-3.52l-17.65-16.64,19.39-17.44a2.42,2.42,0,1,0-3.23-3.6l-19.7,17.71-15.65-14.76a2.42,2.42,0,0,0-3.32,3.52l15.37,14.49-19.8,17.8a2.42,2.42,0,0,0-.18,3.42,2.41,2.41,0,0,0,3.41.18Zm108-57.6,20.1-18.07,17.94,16.91a2.42,2.42,0,1,0,3.32-3.52l-17.65-16.64,19.4-17.44a2.42,2.42,0,1,0-3.24-3.6l-19.69,17.71L2523.13,2977a2.42,2.42,0,0,0-3.32,3.52l15.37,14.49-19.8,17.8a2.42,2.42,0,0,0,3.23,3.6Zm97.14-125.65,20.1-18.07,17.94,16.92a2.42,2.42,0,0,0,3.32-3.52l-17.66-16.64,19.4-17.45a2.41,2.41,0,1,0-3.23-3.59l-19.7,17.71-15.66-14.76a2.42,2.42,0,0,0-3.31,3.52l15.36,14.48-19.79,17.81a2.41,2.41,0,1,0,3.23,3.59Zm-403.48,261.64,20.1-18.07,17.94,16.92a2.42,2.42,0,0,0,3.32-3.52L2236,3131.11l19.39-17.44a2.42,2.42,0,0,0-3.23-3.6l-19.7,17.71L2216.79,3113a2.42,2.42,0,0,0-3.32,3.52l15.37,14.48-19.8,17.81a2.4,2.4,0,0,0-.18,3.41,2.35,2.35,0,0,0,1.29.75A2.42,2.42,0,0,0,2212.27,3152.42Zm88.48-85.24,20.09-18.07,17.95,16.92a2.42,2.42,0,0,0,3.31-3.52l-17.65-16.64,19.4-17.44a2.42,2.42,0,0,0-3.24-3.6l-19.69,17.71-15.66-14.76a2.42,2.42,0,1,0-3.31,3.52l15.36,14.48-19.8,17.81a2.42,2.42,0,0,0-.18,3.41,2.37,2.37,0,0,0,1.3.75A2.4,2.4,0,0,0,2300.75,3067.18Zm273.66-259.56,20.1-18.07,17.94,16.92a2.42,2.42,0,1,0,3.32-3.52l-17.65-16.64,19.4-17.44a2.42,2.42,0,0,0-3.24-3.6L2594.59,2783l-15.66-14.76a2.42,2.42,0,0,0-3.32,3.52l15.37,14.48-19.8,17.81a2.41,2.41,0,0,0-.18,3.41,2.41,2.41,0,0,0,3.41.18Zm-66.9,83.3,23.35-13.61,14.13,20.21a2.42,2.42,0,0,0,4-2.77l-13.9-19.88,22.54-13.14a2.42,2.42,0,1,0-2.43-4.18l-22.89,13.34-12.33-17.64a2.42,2.42,0,0,0-4,2.78l12.1,17.3-23,13.41a2.42,2.42,0,0,0,2.44,4.18Z" transform="translate(-147 -437.51)"/></g></g><path class="cls-1" d="M2780.05,3597.89H1233.31a16.11,16.11,0,0,1,0-32.21H2780.05a16.11,16.11,0,0,1,0,32.21Z" transform="translate(-147 -437.51)"/></g><g id="_05" data-name="05"><g id="Bg-4" data-name="Bg"><path class="cls-22" d="M454.52,2015.27C268.88,2135.82,147,2338.68,147,2568.66c0,369.78,315.07,669.55,703.73,669.55,250.5,0,470.39-124.55,595.1-312.09Z" transform="translate(-147 -437.51)"/></g><g id="face-3" data-name="face"><path class="cls-12" d="M809,2143.37" transform="translate(-147 -437.51)"/><path class="cls-12" d="M816.21,2145.76" transform="translate(-147 -437.51)"/><path class="cls-10" d="M667.52,2302.42s-57-169.45,37.87-257.12c78.93-73,190.15-43,245.16-4.78,64.29,44.72,94.88,134.34,70.17,234.8s-65.38,63-28.71,190.55c0,0,31.89,81.32-20.73,124.37S743.26,2491.38,667.52,2302.42Z" transform="translate(-147 -437.51)"/><path class="cls-12" d="M874,2064s97.26,11.16,82.91,130.75-68.7,164.7-111.22,165.44c-46.24.79-132.75-105.64-88.1-219.65C795.59,2043.61,874,2064,874,2064Z" transform="translate(-147 -437.51)"/><path class="cls-17" d="M873.34,2187.5a3.66,3.66,0,0,1-3.1-1.71c-3.51-5.55-7.84-8.84-12.87-9.77-9.45-1.74-18.79,5.15-18.89,5.22a3.66,3.66,0,0,1-4.41-5.84c.48-.37,11.9-8.88,24.57-6.59,7.15,1.3,13.13,5.69,17.79,13.07a3.66,3.66,0,0,1-1.14,5A3.57,3.57,0,0,1,873.34,2187.5Z" transform="translate(-147 -437.51)"/><path class="cls-17" d="M943.69,2213.37a3.66,3.66,0,0,1-3.58-2.92c-1.18-5.67-3.61-9.4-7.42-11.41-8-4.21-19.53.54-19.65.59a3.66,3.66,0,0,1-2.85-6.75c.6-.25,14.8-6.15,25.88-.33,5.8,3,9.57,8.56,11.21,16.41a3.66,3.66,0,0,1-2.84,4.33A3.82,3.82,0,0,1,943.69,2213.37Z" transform="translate(-147 -437.51)"/><path class="cls-25" d="M876.41,2275.39a3.66,3.66,0,0,1-1.1-7.15,12.64,12.64,0,0,0,8.32-7.06c4.75-10.75-3.29-28.4-3.37-28.57a3.66,3.66,0,0,1,6.64-3.08c.39.84,9.52,20.8,3.44,34.6-2.4,5.43-6.71,9.16-12.83,11.09A3.5,3.5,0,0,1,876.41,2275.39Z" transform="translate(-147 -437.51)"/><path class="cls-25" d="M850.06,2308.11c-6.08,0-11.2-1.68-15.31-5-10.9-8.89-9.88-26.09-9.83-26.82a3.63,3.63,0,0,1,3.89-3.41,3.67,3.67,0,0,1,3.42,3.89c0,.14-.8,14.2,7.17,20.68,4.59,3.73,11.48,4.36,20.49,1.86a3.66,3.66,0,0,1,1.94,7.06A44.17,44.17,0,0,1,850.06,2308.11Z" transform="translate(-147 -437.51)"/><path class="cls-16" d="M798.44,2408.27c5.34-11.91,15.85-28.15,36.11-49.64,0,0-36.08-9.76-80.72-114.61-5.15-12.09-22.93-12.95-22.93-12.95s-4.78,65.22-79.48,116.22c0,0-43.19,56.6,48.19,108.81,94.88,54.22,136.34-31.49,136.34-31.49C820.52,2421,806,2413,798.44,2408.27Z" transform="translate(-147 -437.51)"/><path class="cls-16" d="M756.38,2144c-43,162,31.12,200.74,78.07,214.46-108.33-97.14-12.66-198.39-12.66-198.39S782.82,2129.34,756.38,2144Z" transform="translate(-147 -437.51)"/><path class="cls-25" d="M821,2358.31a3.73,3.73,0,0,1-1.18-.19c-2-.68-49-17.18-66.1-71.74a3.66,3.66,0,0,1,7-2.19c16,51,61,66.83,61.46,67a3.66,3.66,0,0,1-1.17,7.13Z" transform="translate(-147 -437.51)"/><path class="cls-9" d="M930.62,2123.83s-82.12,51-192.94,37.48c0,0-.2,92.68-27.31,123.77,0,0-87.1-221.44,79.53-282,0,0,143.51-18.34,210.48,90.89,0,0,29.9,39.46,28.71,126C1029.09,2219.91,933,2200.37,930.62,2123.83Z" transform="translate(-147 -437.51)"/><path class="cls-16" d="M781.77,2197.84c1.75,23-10.91,42.69-28.27,44s-32.86-16.24-34.61-39.23,10.91-42.7,28.27-44S780,2174.85,781.77,2197.84Z" transform="translate(-147 -437.51)"/><path class="cls-25" d="M748.63,2223.16a3.68,3.68,0,0,1-2.75-1.24c-14.87-16.81-5.77-33.83,1.11-40.48a3.66,3.66,0,0,1,5.1,5.26c-.61.59-14.62,14.65-.72,30.37a3.67,3.67,0,0,1-2.74,6.09Z" transform="translate(-147 -437.51)"/><path class="cls-17" d="M865.75,2204.86c-1,5.18-5.16,8.74-9.41,8s-6.92-5.6-6-10.77,5.16-8.74,9.41-8S866.7,2199.69,865.75,2204.86Z" transform="translate(-147 -437.51)"/><path class="cls-17" d="M921.38,2219.39c-1,5.17-5.16,8.74-9.41,8s-6.92-5.6-6-10.78,5.16-8.73,9.41-8S922.33,2214.22,921.38,2219.39Z" transform="translate(-147 -437.51)"/></g><g id="body-2" data-name="body"><path class="cls-34" d="M1376.1,2400.49" transform="translate(-147 -437.51)"/><path class="cls-35" d="M651.37,2347.27s-149.88-19.13-221.64,62.19-202.51,288.61-82.92,457.64c0,0,73.35,89.29,253.54,78.13s489.53-17.54,489.53-17.54,121.19-253.53-92.49-417.77c0,0-71.55-66-170.41-88.3,0,0-19.34,53.22-95.88,32.49S651.37,2347.27,651.37,2347.27Z" transform="translate(-147 -437.51)"/><path class="cls-36" d="M527.09,2612.37c-7.68,47-12.45,97.49-8.51,140.21a8.38,8.38,0,0,1-2.59,7c-6.42,5.9-20.54,22.38-17.67,51.38a2.59,2.59,0,0,0,4.94.8c5.73-13.48,25-30.6,48.68-35.05a6.73,6.73,0,0,1,1.1-.12c10.25-.32,167.15-4.51,244.64,38.29,0,0,.06,11.36,89.46,7.46a8.53,8.53,0,0,0,7.88-6.23c8.12-29.76,42-164.15,13.2-239-3.58-9.31-17.34-6.64-16.77,3.32,3.38,58.94,2.63,172.92-53.11,178.23-75.35,7.17-240.38,1.19-273.87-41.86-12.44-16-20.79-49.47-20.16-103C544.44,2603.19,528.81,2601.86,527.09,2612.37Z" transform="translate(-147 -437.51)"/><path class="cls-12" d="M802.14,2817.64c39.39-4.78,106-2.26,145.08,57.64,14.76,22.59,2.44,53.2-24.07,58.25a191.37,191.37,0,0,1-35.61,2.9c-34.52,0-62.75-.33-83.34-.69a37.89,37.89,0,0,1-37.15-39.55l1.88-42.6A37.84,37.84,0,0,1,802.14,2817.64Z" transform="translate(-147 -437.51)"/><path class="cls-37" d="M798.8,2818.35a37.76,37.76,0,0,0-29.87,35.24l-1.88,42.6a37.88,37.88,0,0,0,37.15,39.55c17.53.31,40.63.59,68.39.67C793.05,2912,794.68,2845.2,798.8,2818.35Z" transform="translate(-147 -437.51)"/><path class="cls-36" d="M884.69,2440.3A350.47,350.47,0,0,0,827,2421.62s-19.34,53.22-95.88,32.49-79.73-106.84-79.73-106.84-149.88-19.13-221.64,62.19c-58.79,66.63-157.1,217.83-124.94,363.26,20.5-73.25,42.82-266.19,207.06-334.76,0,0,65.55-36.44,161,44.65C757.41,2554.36,855.38,2489.55,884.69,2440.3Z" transform="translate(-147 -437.51)"/><g class="cls-38"><path class="cls-13" d="M888.77,2442l25.32,17.1a5,5,0,0,1,1.79,6.13l-11.5,26.94a4.89,4.89,0,0,1-8,1.49l-24.39-25.48a5.06,5.06,0,0,1-.73-6l10.57-18.55A4.88,4.88,0,0,1,888.77,2442Zm-276.15-41.85L581.53,2454a6.94,6.94,0,0,0,1.06,8.33l42.1,42.66a6.74,6.74,0,0,0,10.91-1.87l29-60.89a6.94,6.94,0,0,0-1.63-8.16L623,2398.45A6.74,6.74,0,0,0,612.62,2400.14Zm344.52,221.38-26.54,42.09a5.46,5.46,0,0,0,.11,6l28.52,41.6a5.29,5.29,0,0,0,8.94-.3l27.67-46.72a5.46,5.46,0,0,0-.43-6.18l-29.65-37A5.29,5.29,0,0,0,957.14,2621.52Zm-244.72-24.05-25.67,44.28a5.8,5.8,0,0,0,.85,6.94l36.64,37.82a5.64,5.64,0,0,0,9.31-1.86L755,2631.32a5.79,5.79,0,0,0-1.52-6.5l-32.45-28.77A5.63,5.63,0,0,0,712.42,2597.47ZM410.71,2488.74l-37.91,44.55a6.92,6.92,0,0,0-.14,8.75l34.15,42.87a6.7,6.7,0,0,0,11-.79L446,2536.36a6.9,6.9,0,0,0-.07-7.11l-24.37-39.66A6.69,6.69,0,0,0,410.71,2488.74Zm37.7,212.18-32.33,59.3a6.72,6.72,0,0,0,.68,7.44l39.68,48.94a6.52,6.52,0,0,0,10.93-1.21l29.72-59.33a6.73,6.73,0,0,0-.65-7.06l-37.07-48.92A6.52,6.52,0,0,0,448.41,2700.92ZM658,2823.73l-34.53,41.69a7.09,7.09,0,0,0-.25,8.69l34.16,46.39a6.86,6.86,0,0,0,11.24-.22l33.77-49.83a7.08,7.08,0,0,0-.52-8.61l-33.4-38.25A6.85,6.85,0,0,0,658,2823.73Z" transform="translate(-147 -437.51)"/></g><path class="cls-1" d="M1503.67,2956.35H374.72a16.11,16.11,0,1,1,0-32.21h1129a16.11,16.11,0,0,1,0,32.21Z" transform="translate(-147 -437.51)"/></g><g id="element-2" data-name="element"><rect class="cls-39" x="657.52" y="2468.46" width="593.51" height="30.3" rx="1.77"/><path class="cls-32" d="M1377.85,2934.3H1014.48c-19.63,0-34.06-17.62-29.36-35.86l101.73-395c3.33-12.93,15.45-22,29.36-22h363.37c19.63,0,34.06,17.63,29.36,35.87l-101.73,395C1403.88,2925.22,1391.76,2934.3,1377.85,2934.3Z" transform="translate(-147 -437.51)"/><path class="cls-31" d="M1081.11,2525.72l-96,372.72c-4.7,18.24,9.73,35.86,29.36,35.86h363.37c13.91,0,26-9.08,29.36-22l2.1-8.14Z" transform="translate(-147 -437.51)"/><g class="cls-40"><path class="cls-13" d="M1285.7,2719.81A26.71,26.71,0,1,1,1259,2693.1,26.71,26.71,0,0,1,1285.7,2719.81Z" transform="translate(-147 -437.51)"/></g></g></g><g id="_01" data-name="01"><g id="Bg-5" data-name="Bg"><path class="cls-11" d="M339.21,135H1053a46.11,46.11,0,0,1,46.11,46.11V1445.62a10.77,10.77,0,0,1-10.77,10.77H292.23a4.87,4.87,0,0,1-4.87-4.87V186.9A51.86,51.86,0,0,1,339.21,135Z"/></g><g id="head-2" data-name="head"><path d="M968.89,937.68S946.57,834,834.15,831.64s-177,122.78-169.82,232-27.9,137.93-112.42,181.78-214.46,225.63-48.63,244c0,0,292.6,54.21,379.9-201.71C883.18,1287.69,990,1061.26,968.89,937.68Z" transform="translate(-147 -437.51)"/><path class="cls-37" d="M835.63,1148.19s-41.26,91.41-54.78,102c-8.45,6.6-36.38,11.71-56.17,14.61-8.1,1.19-10.95,10.57-4.74,15.52l147.35,117.35c9.75,7.77,24.46,6.8,32.94-2.16l49.43-52.29a21.24,21.24,0,0,0,4.41-22.87l-10.68-25.86a58.2,58.2,0,0,1,.61-46.08l15.85-35.72Z" transform="translate(-147 -437.51)"/><path class="cls-9" d="M942.58,925.72S908.3,901.4,840.53,932.9c0,0-15.63,12.73-21.93,2.39-5.58-9.17,2-24.65,32.69-37.87,23.12-10,68.57-16.35,101.26,5.58,0,0,16.74,14.35,10,23.12S942.58,925.72,942.58,925.72Z" transform="translate(-147 -437.51)"/><path class="cls-12" d="M986,926.92s-173.4-38.27-157.86,157.86c0,0,15.79,157.81,125.57,161.45C1044,1249.22,1153.46,955.62,986,926.92Z" transform="translate(-147 -437.51)"/><path class="cls-37" d="M938.88,1244.61c-18-13.57-47.56-39.59-43.43-83.95C900,1111.81,943.16,1034,943.16,1034l-115.88,29.94c.08,6.66-16.82,31.67-16.24,39C811,1102.91,842.57,1227.94,938.88,1244.61Z" transform="translate(-147 -437.51)"/><g id="hair"><path d="M998,1035.15c.58,2.1-15.15,24.91-35,37.3-19.4,12.12-39.77,21.6-62.27,25.08-12.74,2-26.13,3.78-37.74,9.74-11.4,5.84-15.69,14.22-17.12,24.73-1,7.57-7.17,6.58-9.46,13.86-5.92,18.87-22.57,23.26-39.26,14.65-18-9.32-26.57-25-31.32-43.92-11.07-44.07-12-93.53,11.94-133.71C789.67,963,807,946.94,827,935.29c71.75-41.86,132.14-12,132.14-12s17.06-8.32,44.25-1.2c25.12,6.58,88.5,58.4,65.58,163.84C1069,1086,1017.73,1101.52,998,1035.15Z" transform="translate(-147 -437.51)"/></g><path class="cls-25" d="M976.87,1172.67a1.79,1.79,0,0,1-1-3.3c7.34-4.62,11.13-9.77,11.28-15.3.28-10.14-11.64-18.72-11.76-18.8a1.79,1.79,0,0,1,2.07-2.92c.55.39,13.59,9.75,13.27,21.81-.18,6.8-4.54,12.93-12.95,18.24A1.85,1.85,0,0,1,976.87,1172.67Z" transform="translate(-147 -437.51)"/><path class="cls-25" d="M942.5,1177.92l37.31,16.82s4.35,2.2,2.89,4.26c-4.89,6.87-14.87,16.61-30.21,11.73-14.54-4.62-18-19.43-15.1-32C938,1176.25,942.5,1177.92,942.5,1177.92Z" transform="translate(-147 -437.51)"/><path class="cls-17" d="M966.46,1097.27a2.67,2.67,0,0,1-2.08-1c-10.92-13.31-27-1.11-27.67-.58a2.68,2.68,0,0,1-3.3-4.23c7.16-5.59,23.72-12.49,35.12,1.41a2.68,2.68,0,0,1-2.07,4.38Z" transform="translate(-147 -437.51)"/><path class="cls-17" d="M1041.92,1116a2.68,2.68,0,0,1-2.47-1.65c-2.15-5.11-5.28-8.47-9.31-10-7.11-2.68-15,1.06-15,1.1a2.69,2.69,0,0,1-2.37-4.82c.4-.19,9.95-4.8,19.25-1.32,5.49,2,9.67,6.41,12.42,13a2.69,2.69,0,0,1-1.44,3.52A2.72,2.72,0,0,1,1041.92,1116Z" transform="translate(-147 -437.51)"/><path class="cls-37" d="M874.11,1116s1.4-42.55-26.21-39.66-29.4,48.33-16.24,68.06c11.68,17.53,22.72,24.52,33.49,15.25S874.11,1116,874.11,1116Z" transform="translate(-147 -437.51)"/><path class="cls-25" d="M847.9,1133.11a1.79,1.79,0,0,1-1.7-1.25c-4.52-14.4-2.32-26,6.55-34.41a2.55,2.55,0,0,1,.24-.23,1.79,1.79,0,0,1,2-1.29,2,2,0,0,1,1.55,1.3c.37,1.19-.42,1.94-1.33,2.81-2.9,2.77-11.74,11.18-5.6,30.74a1.79,1.79,0,0,1-1.17,2.25A2,2,0,0,1,847.9,1133.11Z" transform="translate(-147 -437.51)"/><path class="cls-25" d="M942.58,1246.42h-.15c-.61-.06-61.6-5.84-86.9-71.88a1.79,1.79,0,0,1,3.34-1.28c12.78,33.37,34.87,50.5,51.15,59,17.69,9.24,32.56,10.58,32.71,10.59a1.79,1.79,0,0,1-.15,3.57Z" transform="translate(-147 -437.51)"/><path class="cls-25" d="M844.63,1113.45h-.18a6.5,6.5,0,0,1-4.57-2.56c-4-5.06-2.63-16.07-2.46-17.31a1.78,1.78,0,0,1,2-1.53,1.8,1.8,0,0,1,1.54,2c-.4,3-.87,11.34,1.72,14.62a2.9,2.9,0,0,0,2.11,1.21,1.79,1.79,0,0,1-.17,3.57Z" transform="translate(-147 -437.51)"/><path class="cls-17" d="M961.8,1114c0,5.14-3.47,9.31-7.76,9.31s-7.76-4.17-7.76-9.31,3.48-9.31,7.76-9.31S961.8,1108.85,961.8,1114Z" transform="translate(-147 -437.51)"/><path class="cls-17" d="M1023.72,1128c-1.05,5-5.31,8.41-9.5,7.53s-6.75-5.67-5.69-10.7,5.3-8.41,9.5-7.53S1024.77,1123,1023.72,1128Z" transform="translate(-147 -437.51)"/></g><path class="cls-14" d="M739.08,1262c34.68,39.47,117.2,93.73,170.41,83.52,41.14-7.9,29-72.72,29-72.72,52.12-.38,186.22,32.66,260.37,152.25s57.4,259.51,28.7,336-114.81,123.18-205.7,122-236.79,7.18-236.79,7.18-118.4,22.72-119.59-55c-1.56-101.4-9.76-202.63-11-304.09-.49-41.62-.39-83.28,1.67-124.85,1.69-34.35,1.44-77.18,15.92-109C675.15,1290.71,739.08,1262,739.08,1262Z" transform="translate(-147 -437.51)"/><g id="element-3" data-name="element"><path class="cls-41" d="M1235.76,1882.26H987.21a11.3,11.3,0,0,1-10.31-15.57l135.79-342.11a11.13,11.13,0,0,1,10.31-7.08h248.55a11.31,11.31,0,0,1,10.31,15.57l-135.79,342.11A11.13,11.13,0,0,1,1235.76,1882.26Z" transform="translate(-147 -437.51)"/><path class="cls-42" d="M1112.69,1524.58,976.9,1866.69a11.31,11.31,0,0,0,10.31,15.57h248.55L1123,1517.5A11.13,11.13,0,0,0,1112.69,1524.58Z" transform="translate(-147 -437.51)"/><path class="cls-41" d="M1004.77,1862.52a1.79,1.79,0,0,1-.68-.13,1.8,1.8,0,0,1-1-2.34l114.61-279a1.79,1.79,0,0,1,3.31,1.36l-114.61,279.05A1.78,1.78,0,0,1,1004.77,1862.52Z" transform="translate(-147 -437.51)"/><rect class="cls-42" x="1336.61" y="1540.2" width="17.94" height="22.72" rx="1.05" transform="translate(406.64 -780.87) rotate(18.25)"/></g><g id="Hand-3" data-name="Hand"><path class="cls-43" d="M656.79,1699.82c2.22.36,47.83-.68,68.8-3.35q32.31-4.11,64.68-7.79c42.49-4.79,85.06-8.85,127.72-11.72,28.32-1.91,57.66-4.45,86-1.2,0,0,44.25-65.77,67-64.58s-14.35,55-14.35,55,51.43-6,70.56-15.54,57.8-21.93,55.41,21.92-83.71,85.31-128.36,81.33-46.24-4-67,6.37S765.59,1918.93,560.68,1856c0,0-81.32-14.35-61.39-82.12,9.06-30.8,27.27-60.72,57.36-74.6,15.28-7,32.27-9.2,49-7.69S639.67,1697.1,656.79,1699.82Z" transform="translate(-147 -437.51)"/><path class="cls-37" d="M723.93,1830.43c-131.55,12.76-114.81-74.14-64-131.55-17.07-2.72-37.66-5.84-54.35-7.34s-33.67.64-49,7.69c-30.09,13.88-48.3,43.8-57.36,74.6-19.93,67.77,61.39,82.12,61.39,82.12,110.11,33.84,219,6.67,299.48-27.32C844.13,1825.34,763.66,1826.58,723.93,1830.43Z" transform="translate(-147 -437.51)"/></g><path class="cls-14" d="M739.08,1262s-152.21.89-228.41,209c-39.11,106.8-73.7,278.29-38.88,346.33,0,0,19.53,49,40.66,0,16.15-37.48,34-63.2,67.17-88.1,44.65-33.49,84.91-21.53,100.26-48.24C703.06,1640.6,731.79,1355.13,739.08,1262Z" transform="translate(-147 -437.51)"/><path class="cls-44" d="M1053,1558c-8.21,13-9.73,30.83-13.33,51.83-6.65,38.79-132.75,52.62-198.12,57.6-58.85,4.49-120.39,18.34-143.51-12.76s-23.91-106.93-23.91-106.93c.45-11.12-15.4-13.61-18.37-2.88-17.63,63.77-47.37,125-82.5,144.5-49.49,27.49-94.43,90.6-100.95,129.13,3.18,7.17,21,43.26,40.16-1.17,16.15-37.48,34-63.2,67.17-88.1,33.92-25.44,55.41-26.71,80-26.68a484.66,484.66,0,0,0,49.55-1.62c29.06-2.36,244.24-29.48,291.58-21.9a3.1,3.1,0,0,0,3.17-1.33c6.2-9,35.87-51.15,55.26-61.55a10.15,10.15,0,0,0,5.64-8.69c.1-7.21,2.88-26.32,5.46-43.1C1071.86,1554.17,1058.43,1549.28,1053,1558Z" transform="translate(-147 -437.51)"/><g class="cls-38"><path class="cls-13" d="M800,1646.89c-30.76,3.56-57.46-1.39-77.63-14.46-15.59-10.1-26.43-24.48-33.54-40.86-21.41,10.2-43.44,15.35-65.87,15.35-73.61,0-121-56.61-123-59-3.42-4.16-.49-9.67,6.55-12.31s15.51-1.4,18.93,2.75c.54.66,42.69,50.78,100.72,50.74,18.58,0,37.43-5.38,56.3-16-10-38.67-3.79-83,7.6-108.11,7.26-16,22.43-26.7,41.63-29.36,18.16-2.48,35.95,3,46.57,14.41,18.66,20,16.64,60-45,112.34a229,229,0,0,1-20.09,15.26c6.46,18.47,16.88,32.84,30.56,41.69,15.81,10.25,35.7,13.25,60.76,9.16,50.16-8.19,89.62-52.16,109.82-90.58a171.61,171.61,0,0,0,14.93-38.2c-24.31,3.61-40.54.8-50-2.35-20.37-6.73-31.22-21.55-27.62-37.76,3.25-14.66,17.78-27,37.91-32.19,26-6.68,42.06-1.89,51,3.3,14.55,8.43,20.49,23.93,20.45,42.35,8.85-3.19,18.18-7.08,27.84-11.64,118.22-55.8,151.23-62,168.29-53.88,16,7.62,6.48,24.85-3.58,39-18,25.36-15.47,37.42-11.42,39.28,2.72,1.26,16.83,1,48.87-15,6.46-3.22,15.28-2.81,19.69.92s2.76,9.36-3.7,12.58c-37.77,18.83-65.76,24.29-83.21,16.26-18.63-8.58-17.17-29.81,4.1-59.77,7.8-11,9.3-16.17,9.49-18.32-8.35.57-37.08,7.33-133.23,52.71a327.13,327.13,0,0,1-45.19,17.66c-3.1,16-9.47,33-17.78,48.82-29.66,56.42-79.19,95.29-132.49,104C805.72,1646.15,802.84,1646.56,800,1646.89Zm-64.86-194-.36,0c-7.13,1-13.67,6.6-17.48,15-9.36,20.64-13.56,51.69-10.71,79.08q.46,4.38,1.14,8.59c1.16-1,2.31-1.91,3.47-2.89,53-44.92,55.86-77.92,42.24-92.53C748.58,1455.05,741.44,1452.21,735.13,1452.94Zm170.51-10.72a60.63,60.63,0,0,0-8,1.55c-9.54,2.46-16.26,8.54-18,16.27-1.56,7,1.4,16.82,14.86,21.27,9.42,3.11,22.36,3,37.79-.09,1.35-18.44-3.39-31.72-12.2-36.82C917.56,1442.93,913.46,1441.32,905.64,1442.22Z" transform="translate(-147 -437.51)"/></g><rect class="cls-1" x="278.82" y="1439.28" width="900.17" height="21.31" rx="1.29"/></g></svg>