<svg xmlns="http://www.w3.org/2000/svg" viewBox="0 0 4680 3120"><defs><style>.cls-1{isolation:isolate;}.cls-11,.cls-2{fill:#fff;}.cls-2{opacity:0;}.cls-3{fill:#caebff;}.cls-4{fill:#00a272;}.cls-5{fill:#006e5b;}.cls-6{fill:#2cd670;}.cls-7{fill:#00c796;}.cls-8{fill:#008c5d;}.cls-9{fill:#06378e;}.cls-10{fill:#e3faff;}.cls-12{fill:#5d5f61;}.cls-13{fill:#031d30;}.cls-14{fill:#78bfff;}.cls-15{fill:#1b29af;}.cls-16{fill:#353dc9;}.cls-17{fill:#b4d1fb;}.cls-18{fill:#ff8500;}.cls-19,.cls-34{fill:#e92411;}.cls-20,.cls-38{fill:#871b19;}.cls-21{fill:#e43d34;}.cls-22{fill:#e6e6e6;}.cls-23{fill:#474747;}.cls-24,.cls-54{opacity:0.5;}.cls-24,.cls-70{mix-blend-mode:multiply;}.cls-25{fill:#999;}.cls-26,.cls-35{fill:#ffd900;}.cls-27{fill:#f19f4d;}.cls-28{fill:#fa0;}.cls-29{fill:#ac1f24;}.cls-30{fill:#8fbaf9;}.cls-31{fill:#bbd5ef;}.cls-32{fill:#5177c4;}.cls-33,.cls-51{fill:#fbc5a9;}.cls-33,.cls-34,.cls-35,.cls-36,.cls-38,.cls-39,.cls-41,.cls-42,.cls-43,.cls-44,.cls-45,.cls-46,.cls-67{fill-rule:evenodd;}.cls-36,.cls-37{fill:#c62310;}.cls-39{fill:#dbdbdb;}.cls-40{fill:#9b9899;}.cls-41,.cls-52{fill:#f7a18a;}.cls-42{fill:#0637a2;}.cls-43{fill:#062368;}.cls-44{fill:#8d1b01;}.cls-45,.cls-49{fill:#5a1b01;}.cls-46,.cls-64{fill:#005aff;}.cls-47{fill:#0083ff;}.cls-48{fill:#c63e00;}.cls-50{fill:#4d2728;}.cls-53{fill:#7c2c19;}.cls-55{fill:#f3888a;}.cls-56{fill:#5b1e13;}.cls-57{fill:#3d2312;}.cls-58{fill:#ec4623;}.cls-59{fill:#eef6f9;}.cls-60{fill:#7b3e49;}.cls-61{fill:#dbe7e9;}.cls-62{fill:#77787b;}.cls-63{fill:#0f2a36;}.cls-65,.cls-67{fill:#1f00bd;}.cls-66{fill:#006;}.cls-68{fill:#c12b96;}.cls-69{fill:#fd4c5e;}.cls-70{opacity:0.29;}.cls-71{fill:#ae3d45;}.cls-72{fill:#f57e2e;}.cls-73{fill:#98ddfd;}.cls-74{opacity:0.56;}.cls-75{fill:#3f87ca;}.cls-76{fill:#e0f4ff;}.cls-77{fill:#ffc000;}.cls-78{fill:#c89100;}</style></defs><title>08</title><g class="cls-1"><g id="_18" data-name="18"><rect id="_08" data-name="08" class="cls-2" width="4680" height="3120"/><path class="cls-3" d="M3032.9,361.7c-880.77-37-690.68,545.19-870.91,326.78-344.89-418-959.74-426.49-1122.4,34.25C848.71,1263.4,1196.12,1558,895.29,1641c-429.66,118.53-398.56,859.68,84.18,855.25L3739.78,2508s193.59-214.05,42.12-444.37,20.21-90,172.16-491.33C4151.78,1050,3558.68,383.81,3032.9,361.7Z"/><path class="cls-4" d="M3550,1867.77c-89.1-14.23-82,93.44-30.3,185.13,30.88,54.72,41,178.69,41.88,276.46.49,52-1.61,96.57-4.57,119.41l51.61,16.7c.08.26.16.53.23.78.1-.2.19-.41.29-.62,20.88-46.51,116.47-265.06,116.13-367.84a111,111,0,0,0-2.35-23.89C3700.86,1976.43,3639,1882,3550,1867.77Z"/><path class="cls-5" d="M3650.19,2118.28c5.77-26,12.31-55.55-14-91.13-17.28-23.33-27.76-44.27-36.19-61.1-9-18-16.13-32.21-27.46-42a154.54,154.54,0,0,1-31-36.43,5,5,0,0,0-5.51-2.19,2.83,2.83,0,0,0-1.89,4.26c.45.82,11.39,20.12,32.85,38.66,10,8.67,16.84,22.27,25.47,39.49s19.2,38.35,36.87,62.21c24.54,33.15,18.57,60.08,12.79,86.13-2.32,10.46-4.51,20.33-4.75,30.45-.39,16.6,1.33,25.82,3.15,35.59,2,10.88,4.13,22.14,3.21,45.3-1.69,42.63-31.53,98-31.83,98.6-.88,1.61.12,3.69,2.22,4.65a4.45,4.45,0,0,0,.57.22c2,.63,4,.06,4.81-1.4,1.26-2.31,30.72-57,32.47-100.89.94-23.78-1.22-35.36-3.31-46.56-1.76-9.46-3.43-18.4-3.05-34.42C3645.79,2138.12,3647.93,2128.48,3650.19,2118.28Z"/><path class="cls-6" d="M3561.53,2329.36c-21.94-54.76-48.35-108.29-73.21-126.74-57.39-42.55-134.94-64.91-189.85-31.07s-.87,88.89,69.92,114.46c50.21,18.12,130.09,102.93,175.57,158.55l64.61,20.91c-1.27-4.25-3-9.86-5.05-16.54C3594.9,2421.19,3579.76,2374.86,3561.53,2329.36Z"/><path class="cls-4" d="M3551.86,2366.19c-10.73-15.64-17.63-22-24.3-28.17a114.88,114.88,0,0,1-18.34-20.53c-4.43-6.24-7.65-13.41-11.07-21-8.71-19.39-18.59-41.36-52.37-51.54-22.15-6.67-38.83-15.06-52.23-21.79-14.33-7.21-25.65-12.9-37.55-13.75a123.63,123.63,0,0,1-37.18-8.5,4,4,0,0,0-4.56,1.22,2.26,2.26,0,0,0,.82,3.63,128,128,0,0,0,39.4,9c10.55.76,21.38,6.21,35.09,13.1s30.53,15.35,53.19,22.18c31.47,9.48,40.48,29.53,49.2,48.92,3.5,7.79,6.81,15.14,11.48,21.72a118.4,118.4,0,0,0,19,21.23c6.48,6,13.19,12.18,23.63,27.41,19.23,28,26.57,77.66,26.64,78.16.21,1.44,1.84,2.3,3.63,1.91l.48-.13a3.2,3.2,0,0,0,2.4-3.19C3578.88,2444,3571.64,2395,3551.86,2366.19Z"/><path class="cls-7" d="M3821.14,1982.84c-36.55,24.51-68.47,66-95.92,115-65.88,117.57-105.86,278.34-121.7,351.14-1.11,5.1-2.09,9.76-3,13.94l8,2.6c.08.26.16.53.23.78.1-.2.19-.41.29-.62l69.71,22.56c3.7-6.85,9.09-16.81,15.71-28.89,7.84-14.28,17.41-31.55,27.95-50.21,42-74.36,99.56-170.83,124.85-188.94,42.19-30.2,99.3,5.44,149.67-73.6s220.55-104.13,197.22-179.33S3974.58,1879.92,3821.14,1982.84Z"/><path class="cls-4" d="M4135.85,1965c-1.27.08-128.16,8.14-212.28,58.8-30,18.07-52.42,25.91-70.42,32.21-32.7,11.44-52.44,18.34-76.7,70.86-18.95,41-45.3,84.88-68.56,123.59-21.53,35.85-40.13,66.8-46.55,85.37-13,37.69-20,118.11-20.24,121.52a4.22,4.22,0,0,0,2.89,4.35,4.75,4.75,0,0,0,.94.19,4.21,4.21,0,0,0,4.54-3.83c.07-.83,7.11-82.78,19.8-119.49,6.14-17.73,24.53-48.34,45.82-83.79,23.36-38.89,49.84-83,69-124.39,22.77-49.29,40.2-55.39,71.85-66.46,18.37-6.42,41.23-14.42,72-32.94,82.37-49.61,207.2-57.53,208.45-57.61a4.2,4.2,0,0,0-.5-8.38Z"/><path class="cls-8" d="M3828.16,2312.73c-30.11,12-71.33,55.21-105.7,96.36-25.43,30.46-47.12,59.79-57.76,74.54l29.39,9.51a20.87,20.87,0,0,0,2.41-3.08c9-14.12,23.65-35.3,35.07-42.43,17.69-11,41-12.3,56.1-20.67s40.52-10.7,58.83-20.95,10.8-30.63,31-30.28,50.46,2.21,50.46,2.21,65.73-12.26,66.51-50.12S3890,2288,3828.16,2312.73Z"/><path class="cls-4" d="M917.82,1980.21C845.21,1883,730,1808.83,624.12,1837.12s-44.75,144.18,58,220.28c61.3,45.42,133.79,177.91,183.14,285.89,26.25,57.4,46,107.89,54,134.68l65.49-7,.65.75c0-.26,0-.54,0-.82.16-61.91-1.9-351.55-53.1-465.36A135.14,135.14,0,0,0,917.82,1980.21Z"/><path class="cls-5" d="M889,2137c-6.63-9.62-12.9-18.7-20.4-36.66-4.49-10.75-6.89-22.49-9.42-34.92-6.47-31.73-13.81-67.7-60.62-94.13-30.69-17.33-52.68-35.37-70.35-49.87-18.89-15.5-33.82-27.74-51.22-33a187.64,187.64,0,0,1-52.42-25.07,6.11,6.11,0,0,0-7.19.3,3.43,3.43,0,0,0,0,5.66c.9.68,22.59,16.68,55.54,26.63,15.42,4.65,29.7,16.37,47.78,31.2,17.93,14.72,40.25,33,71.65,50.76,43.6,24.62,50.3,57.45,56.78,89.19,2.59,12.74,5,24.78,9.78,36.12,7.77,18.6,14.24,28,21.09,37.9,7.64,11.07,15.53,22.52,26,48.66,19.21,48.11,13.52,124.32,13.46,125.09-.18,2.21,2,4,4.76,4.05a6,6,0,0,0,.74,0c2.48-.26,4.49-1.91,4.65-3.93.25-3.18,5.87-78.43-13.89-127.94C905,2160.11,896.84,2148.34,889,2137Z"/><path class="cls-6" d="M865.21,2343.29c-51.4-49.88-107.16-96.19-143.86-104.35-84.68-18.82-181.73-5.27-225.9,59.42s43,99,134.14,92.35c64.64-4.72,195.17,49.82,273.11,89l82-8.76c-3.51-4.09-8.17-9.46-13.77-15.84C947.64,2428.62,907.93,2384.73,865.21,2343.29Z"/><path class="cls-4" d="M872.7,2388.92c-19.63-12-30.43-15.7-40.87-19.23a139.41,139.41,0,0,1-30.5-13.7c-8-4.73-15.11-11.09-22.65-17.82-19.26-17.19-41.08-36.67-83.57-31.25-27.86,3.55-50.51,2.5-68.7,1.65-19.45-.9-34.82-1.61-48.44,3.33a149.29,149.29,0,0,1-45.43,8.95,4.88,4.88,0,0,0-4.46,3.62,2.74,2.74,0,0,0,2.71,3.61c.9,0,22.37-.11,48.17-9.45,12.06-4.37,26.77-3.69,45.38-2.83s41.45,1.92,69.95-1.71c39.59-5,59.51,12.74,78.77,29.93,7.73,6.9,15,13.42,23.45,18.41A144.51,144.51,0,0,0,828,2376.6c10.16,3.44,20.65,7,39.77,18.71,35.19,21.59,67.86,73,68.19,73.5.94,1.5,3.17,1.65,5,.32a4.14,4.14,0,0,0,.46-.37c1.45-1.35,2-3.37,1.09-4.73C941.17,2461.88,908.91,2411.13,872.7,2388.92Z"/><path class="cls-7" d="M981.77,1830.63c-28.41,45.26-43.3,107-49.53,174.91-14.92,163,20.23,361,38.67,449.59q1.94,9.3,3.6,16.92l10.17-1.08.65.75c0-.26,0-.54,0-.82l88.46-9.46c.72-9.43,1.77-23.14,3.14-39.81,1.63-19.72,3.71-43.59,6.17-69.5,9.83-103.24,25.93-238.68,45-271.26,31.85-54.36,112.81-43.07,129.58-155.63s193.1-224.54,130-296.4S1101,1640.63,981.77,1830.63Z"/><path class="cls-4" d="M1322,1655.22c-1.37.72-138.1,72.39-206.34,170.18-24.34,34.88-45.31,54.65-62.17,70.54-30.61,28.85-49.08,46.27-50,116.51-.73,54.85-8.26,116.53-14.91,171-6.16,50.41-11.48,93.94-9.42,117.7,4.18,48.25,36.29,140.85,37.65,144.77a5.11,5.11,0,0,0,5.35,3.39,5.21,5.21,0,0,0,1.14-.26,5.1,5.1,0,0,0,3.14-6.49c-.33-.94-33-95.31-37.12-142.29-2-22.7,3.29-65.75,9.38-115.58,6.68-54.68,14.24-116.65,15-172.06.88-65.92,17.2-81.3,46.83-109.23,17.19-16.21,38.59-36.38,63.53-72.12,66.82-95.75,201.33-166.26,202.68-167a5.1,5.1,0,1,0-4.7-9Z"/><path class="cls-8" d="M1152.68,2193c-27.44,28.23-51.8,96.5-69.57,159.13-13.15,46.35-22.69,89.6-27.2,111.23l37.3-4a25.06,25.06,0,0,0,1.14-4.61c3-20.09,8.78-50.84,17.92-64.39,14.16-21,39.42-33.94,52-50.67s39.64-31.9,54.88-52.32-3.17-39.31,19.39-48.9,57-22.5,57-22.5,66.83-46.1,49-88.48S1209,2135,1152.68,2193Z"/><ellipse class="cls-9" cx="2304.31" cy="2512.64" rx="1435.48" ry="188.71"/><path class="cls-10" d="M2592.53,473.8a41.38,41.38,0,0,0-11.68,1.75c-8.65-52-46.4-91.17-91.67-91.17-36.58,0-68.23,25.58-83.6,62.83a64.85,64.85,0,0,0-16.93-2.27c-25,0-47.21,14.36-61.44,36.66a42.82,42.82,0,0,0-24.38-7.8c-24.34,0-44.57,21.31-48.86,49.44h387.42C2637.1,495.11,2616.88,473.8,2592.53,473.8Z"/><path class="cls-11" d="M1573.72,666.32a90.45,90.45,0,0,0-11.73.84c-9.16-54.63-63.12-96.58-128.35-96.58s-119,41.82-128.31,96.32c-3.55-.35-7.14-.58-10.8-.58-51.43,0-93.12,36.26-93.27,81h450.36a60.07,60.07,0,0,0,1.29-12C1652.91,697.21,1617.45,666.32,1573.72,666.32Z"/><path class="cls-11" d="M3658.3,756.42a73.75,73.75,0,0,0-9.59.69c-7.49-44.64-51.59-78.92-104.89-78.92S3446.55,712.36,3439,756.9c-2.9-.29-5.84-.48-8.83-.48-42,0-76.1,29.64-76.22,66.25H3722a49.43,49.43,0,0,0,1.05-9.85C3723,781.67,3694,756.42,3658.3,756.42Z"/><path class="cls-12" d="M2829.28,675.73H2194.39a135.2,135.2,0,0,0-134.86,134.81V2319.9a132.92,132.92,0,0,0,6.65,41.71c17.65,53.94,68.56,93.15,128.21,93.15h634.89c59.64,0,110.56-39.21,128.21-93.15a132.92,132.92,0,0,0,6.65-41.71V810.54a135.09,135.09,0,0,0-134.86-134.81Z"/><rect class="cls-12" x="2034.99" y="680.25" width="885.41" height="1770.79" rx="130.67"/><rect class="cls-13" x="2040.54" y="685.77" width="874.3" height="1758.45" rx="130.32"/><path class="cls-14" d="M2782.25,729.87H2674.88v9.51a52.72,52.72,0,0,1-52.72,52.72H2323.08a55.75,55.75,0,0,1-55.75-55.75v-6.48h-94a91.91,91.91,0,0,0-91.91,91.91V2172a91.88,91.88,0,0,0,91.91,91.9h608.93a91.91,91.91,0,0,0,91.9-91.9V821.78A91.91,91.91,0,0,0,2782.25,729.87Z"/><path class="cls-15" d="M2526.44,728h-97.32a9.28,9.28,0,1,0,0,18.55h97.32a9.28,9.28,0,1,0,0-18.55Z"/><path class="cls-15" d="M2382.67,723.91a12,12,0,1,0,11.95,12A11.93,11.93,0,0,0,2382.67,723.91Z"/><path class="cls-16" d="M2382.67,729.38a6.49,6.49,0,1,0,6.48,6.49A6.48,6.48,0,0,0,2382.67,729.38Z"/><path class="cls-13" d="M2945.52,1036a9.29,9.29,0,0,0-9.28,9.28v131.53a9.28,9.28,0,1,0,18.55,0V1045.25A9.28,9.28,0,0,0,2945.52,1036Z"/><path class="cls-13" d="M2945.52,1248.16a9.29,9.29,0,0,0-9.28,9.28V1389a9.28,9.28,0,1,0,18.55,0V1257.44A9.29,9.29,0,0,0,2945.52,1248.16Z"/><rect class="cls-13" x="2920.39" y="856.01" width="43.75" height="21.75"/><rect class="cls-15" x="2920.39" y="2254.36" width="43.75" height="21.75"/><circle class="cls-12" cx="2481.85" cy="2346.84" r="54.72" transform="translate(-219.18 255.98) rotate(-5.66)"/><path class="cls-11" d="M2801.37,2000.83c-27.8-67.36-70.88-123.73-123.66-162.47,0-1.34.1-2.65.1-4a203.18,203.18,0,0,0-79-161,131.13,131.13,0,0,0-41.91-145.13,90.45,90.45,0,0,0-154.4-91.85,87,87,0,0,0-5,7.19c-1.06,1.7-2.07,3.45-3,5.23q-1,1.9-2,3.87c-.31.65-.61,1.3-.91,2s-.58,1.33-.86,2c-.57,1.34-1.1,2.7-1.58,4.06-.26.7-.5,1.38-.73,2.08s-.45,1.38-.66,2.08c-.27.85-.51,1.7-.74,2.55-.16.56-.31,1.13-.46,1.7-.18.72-.35,1.43-.52,2.16s-.32,1.44-.46,2.17a87.22,87.22,0,0,0-1.33,8.76c-.08.77-.15,1.52-.21,2.29q-.26,3.45-.26,7a90.14,90.14,0,0,0,7.87,36.78,131.18,131.18,0,0,0-41.92,145.13,203.35,203.35,0,0,0-76.38,193.71c-37.3,35.92-68,81.54-89.55,133.74a224.39,224.39,0,0,0-102.36-3.76V2172a91.88,91.88,0,0,0,91.91,91.9h608.93a91.91,91.91,0,0,0,91.9-91.9V1993.3q-6.8-.42-13.69-.42A226,226,0,0,0,2801.37,2000.83Z"/><path class="cls-17" d="M2472.43,1401.07a90.42,90.42,0,0,0-70,35.33q-2.65,3.46-5,7.19c-1.06,1.7-2.07,3.45-3,5.23-.67,1.27-1.33,2.56-2,3.87-.31.65-.61,1.3-.91,2s-.58,1.33-.86,2c-.56,1.34-1.09,2.7-1.58,4.06-.26.7-.5,1.38-.73,2.08s-.45,1.38-.66,2.08c-.27.85-.51,1.7-.74,2.55-.16.56-.31,1.13-.46,1.7-.18.72-.35,1.43-.52,2.16s-.32,1.44-.46,2.17a87.22,87.22,0,0,0-1.33,8.76c-.08.77-.15,1.52-.21,2.29q-.26,3.45-.26,7a90.14,90.14,0,0,0,7.87,36.78,131.18,131.18,0,0,0-41.92,145.13,203.35,203.35,0,0,0-76.38,193.71c-37.3,35.92-68,81.54-89.55,133.74a224.39,224.39,0,0,0-102.36-3.76V2172a91.4,91.4,0,0,0,11.92,45.28c30.63-27.84,69-47.16,109.94-53.69,12.83-65.28,79.63-115.19,145.87-109-27.44-64.75-10.49-145.72,40.6-194-18.27-60.3,6.55-131.07,58.48-166.75-29-52-10.42-125.17,39.88-157C2461.5,1494.93,2470.09,1447.89,2472.43,1401.07Z"/><path class="cls-18" d="M2476.29,1453.31H2369.6s-13.24,99.74,0,110.52,25.55-35.94,25.55-35.94,5.93,124.85,81.14,179.71c75.2-54.86,81.13-179.71,81.13-179.71s12.32,46.72,25.55,35.94,0-110.52,0-110.52Z"/><path class="cls-19" d="M2476.29,1453.31H2399s-9.59,72.25,0,80.06,18.51-26,18.51-26,4.29,90.43,58.78,130.17c54.47-39.74,58.77-130.17,58.77-130.17s8.92,33.84,18.51,26,0-80.06,0-80.06Z"/><path class="cls-19" d="M2650.22,1221.63a449.7,449.7,0,0,0-37.48-27.05l-2.32,177.57a128.54,128.54,0,0,0,13.31,44.06c30.47,61,100.38,100.41,100.38,100.41l2.45-187.54C2727.06,1290.41,2683.59,1248.25,2650.22,1221.63Z"/><path class="cls-20" d="M2612.74,1194.59l-.16,12.33c32.36,23.32,96,75.17,95.41,121.91l-2.3,175.91c11,7.72,18.42,11.89,18.42,11.89l2.45-187.56C2727.38,1266.43,2612.74,1194.59,2612.74,1194.59Z"/><path class="cls-21" d="M2610.42,1372.15a128.54,128.54,0,0,0,13.31,44.06c9.82-23.2,24.55-45.5,24.55-45.5l1.94-149.08a449.7,449.7,0,0,0-37.48-27.05Z"/><path class="cls-22" d="M2333.77,1347.33,2321,1357.68s27.08,33.44,34.16,53c.65,1.82,1.3,3.64,1.93,5.49,6.24,17.93,11.28,35.95,11.28,35.95l213.7,2.79s5.52-17.88,12.22-35.64c.68-1.83,1.38-3.64,2.08-5.43,7.59-19.37,35.53-52.1,35.53-52.1l-12.52-10.67Z"/><path class="cls-23" d="M2368.35,1452.12l213.7,2.8s5.52-17.88,12.22-35.65l-237.2-3.1C2363.31,1434.11,2368.35,1452.12,2368.35,1452.12Z"/><g class="cls-24"><path class="cls-25" d="M2557.73,1350.26l-.16,12.38s-19.94,49.49-19.48,91.7l44,.57s5.52-17.88,12.22-35.64c.68-1.83,1.38-3.64,2.08-5.43,7.59-19.37,35.53-52.1,35.53-52.1l-12.52-10.67Z"/></g><path class="cls-26" d="M2559.71,626.57q-5-7.44-10-14.35a608.46,608.46,0,0,0-46.12-56.57,22.79,22.79,0,0,0-33-.43,606.73,606.73,0,0,0-47.59,55.35q-5.18,6.76-10.41,14.08l-1.92,2.69c-40.36,57-81.77,136.93-82.93,226L2321,1359.55l310.91,4.06,6.7-506.23c1.11-85-34.68-162.7-71.74-220C2564.46,633.65,2562.08,630.07,2559.71,626.57Z"/><path class="cls-27" d="M2428.67,1337.63c-17.52,10.89-62.51,1.77-65.19-9.17s-19-137.38-19-137.38l-2.2,168.75,128.49,1.68,3.07-168.74S2446.18,1326.73,2428.67,1337.63Z"/><path class="cls-28" d="M2559.71,626.57q-2.61-3.84-5.2-7.54l-1.09-1.55c-.42-.6-.83-1.19-1.25-1.77l-1.25-1.75-1.25-1.74q-1.5-2.09-3-4.13l-1.6-2.17-2.89-3.88-1.66-2.18-1.49-2-3-3.85-1.47-1.87c-.48-.63-1-1.24-1.45-1.85q-1.61-2-3.18-4c-.85-1.07-1.7-2.11-2.53-3.13q-4.24-5.22-8.23-9.88c-.57-.68-1.13-1.34-1.7-2-.26-.31-.52-.61-.79-.91l-.87-1q-3.3-3.81-6.31-7.17l-1.21-1.35q-.55-.63-1.11-1.23l-1.09-1.2-.23-.25-1.38-1.51-2-2.16a21.21,21.21,0,0,0-10.86-6.27c6.28,13.68,18.47,41.56,31.11,77.83C2543.27,685,2565,766,2564.43,844.26l-6.86,518.38,74.29,1,1.86-142.2,4.84-364c1.11-85-34.68-162.71-71.74-220Q2563.28,631.81,2559.71,626.57Z"/><path class="cls-19" d="M2227.19,1322.55l-2.46,187.55s106.23-56.27,117.43-141.46l2.32-177.56S2228,1259.9,2227.19,1322.55Z"/><path class="cls-20" d="M2319.46,1368.35c-7.87,59.85-62.65,105.43-94.54,127.25l-.18,14.5s106.22-56.27,117.42-141.46l2.32-177.56s-9.41,5.56-22.9,15Z"/><ellipse class="cls-20" cx="2482.56" cy="897.46" rx="110.09" ry="106.78" transform="translate(1552.76 3368.09) rotate(-89.25)"/><path class="cls-3" d="M2563.77,858.77a90.27,90.27,0,0,0-12.07-19.37c-.43-.54-.88-1.07-1.33-1.6a87.78,87.78,0,0,0-8.67-8.9c-1.81-1.62-3.67-3.15-5.6-4.61a89.15,89.15,0,0,0-33.89-15.83h0a88.86,88.86,0,0,0-18.45-2.18c-49.47-.65-90.12,39.58-90.84,89.88h0v.13a92.39,92.39,0,0,0,3.35,26,93.6,93.6,0,0,0,3.86,11.08q1.76,4.15,3.89,8.09a88.8,88.8,0,0,0,5.71,9.16c.4.57.81,1.13,1.23,1.69A89.73,89.73,0,0,0,2459,985.47a88.25,88.25,0,0,0,22.37,3.16c49.51.65,90.18-39.65,90.84-90,0-1.33,0-2.66,0-4A91.45,91.45,0,0,0,2563.77,858.77Z"/><g class="cls-24"><path class="cls-25" d="M2472.4,1369.59s-2.34,44.33,12.38,84.06l37.2.48,1.06-81.54-39.59-21Z"/></g><path class="cls-19" d="M2471.52,1370.33c4.29,85.39,60,143.78,60,143.78l2.46-187.55c.81-62.65-60.17-133.79-60.17-133.79Z"/><path class="cls-20" d="M2473.71,1202.73c18.86,27.57,44.45,72.74,43.91,114.36l-2.31,176.4a189,189,0,0,0,16.24,20.62l2.46-187.55c.81-62.65-60.17-133.79-60.17-133.79Z"/><path class="cls-11" d="M2551.7,839.4,2411,952.34A89.73,89.73,0,0,0,2459,985.47l113.18-90.81a91.45,91.45,0,0,0-8.41-35.89A90.27,90.27,0,0,0,2551.7,839.4Z"/><path class="cls-11" d="M2502.21,808.46h0l-109.29,87.7h0v.13a92.39,92.39,0,0,0,3.35,26,93.6,93.6,0,0,0,3.86,11.08l136-109.11a89.15,89.15,0,0,0-33.89-15.83Z"/><path class="cls-27" d="M2549.67,612.23l-126.75-1.66q-5.18,6.76-10.41,14.08l-1.92,2.7c22.07,3.12,95.37,12.61,156.23,10-2.36-3.68-4.74-7.26-7.11-10.76C2556.35,621.62,2553,616.82,2549.67,612.23Z"/><path class="cls-19" d="M2553.42,617.48c-.42-.6-.83-1.19-1.25-1.77l-1.25-1.75c-1.42-2-2.83-3.94-4.25-5.87l-1.6-2.17-2.89-3.88-1.66-2.18-1.5-2q-1.48-1.95-3-3.84c-.48-.63-1-1.26-1.47-1.88s-1-1.24-1.45-1.85q-1.61-2-3.18-4l-2.53-3.12q-4.26-5.22-8.23-9.88c-.57-.68-1.13-1.34-1.7-2l-.78-.91-.88-1q-3.3-3.81-6.3-7.17l-.7-.77c-.17-.2-.35-.39-.52-.58q-.55-.63-1.11-1.23l-1.09-1.2-.23-.25c-.46-.52-.93-1-1.38-1.51l-2-2.16a21.38,21.38,0,0,0-30.92-.4,609.69,609.69,0,0,0-59.07,70.51l47.33.62,99.87,1.31q-2.61-3.84-5.2-7.54Z"/><path class="cls-29" d="M2507.2,559.65l-1.09-1.2-.23-.25c-.46-.52-.93-1-1.38-1.51l-2-2.16a21.38,21.38,0,0,0-30.92-.4,609.69,609.69,0,0,0-59.07,70.51l47.33.62c6.82-15.3,15.15-33.79,23.85-45.46,6.79-9.08,16.45-14.79,25.14-18.34-.17-.2-.35-.39-.52-.58Q2507.76,560.25,2507.2,559.65Z"/><rect class="cls-30" x="3026.01" y="2004.01" width="269.03" height="146.25"/><rect class="cls-30" x="2999.52" y="2120.12" width="322" height="330.97"/><rect class="cls-31" x="3071.51" y="503.12" width="178.03" height="1500.89"/><rect class="cls-30" x="3071.51" y="503.12" width="18.79" height="1500.89"/><rect class="cls-30" x="3230.74" y="503.12" width="18.79" height="1500.89"/><path class="cls-30" d="M3233.92,496.71l-154.29,75c-4.84,2.35-4.84,10.45,0,12.8l141.12,68.63-141.12,68.61c-4.84,2.36-4.84,10.45,0,12.81l141.12,68.62-141.12,68.61c-4.84,2.35-4.84,10.45,0,12.8l141.12,68.63-141.12,68.64c-4.84,2.36-4.84,10.46,0,12.81l141.12,68.63L3079.63,1172c-4.84,2.36-4.84,10.45,0,12.81l141.12,68.64-141.12,68.65c-4.84,2.35-4.84,10.45,0,12.81l141.12,68.63q-70.55,34.34-141.12,68.65c-4.84,2.35-4.84,10.46,0,12.81l141.12,68.64-141.12,68.62c-4.84,2.36-4.84,10.46,0,12.81l141.13,68.65-141.13,68.66c-4.84,2.36-4.84,10.46,0,12.81l141.13,68.65-141.13,68.69c-4.84,2.36-4.84,10.45,0,12.81l154.29,75.1c8.57,4.18,16.09-8.62,7.49-12.81l-141.13-68.69,141.13-68.7c4.85-2.36,4.85-10.45,0-12.81l-141.13-68.64,141.13-68.67c4.85-2.36,4.85-10.45,0-12.8l-141.12-68.65L3241.41,1560c4.85-2.36,4.85-10.46,0-12.81l-141.12-68.65,141.12-68.65c4.85-2.35,4.85-10.45,0-12.8l-141.12-68.64,141.12-68.65c4.85-2.36,4.85-10.45,0-12.81l-141.12-68.64,141.12-68.63c4.85-2.35,4.85-10.45,0-12.81l-141.12-68.62,141.12-68.64c4.85-2.36,4.85-10.46,0-12.82l-141.12-68.62,141.12-68.6c4.85-2.36,4.85-10.46,0-12.81L3100.3,728.19l141.11-68.6c4.85-2.36,4.85-10.46,0-12.81l-141.12-68.63q70.56-34.32,141.12-68.63C3250,505.34,3242.49,492.54,3233.92,496.71Z"/><rect class="cls-32" x="3071.51" y="459.44" width="178.03" height="114.73"/><rect class="cls-31" x="2682.66" y="459.44" width="795.19" height="114.73"/><rect class="cls-30" x="2682.66" y="555.37" width="795.19" height="18.8"/><rect class="cls-30" x="2682.66" y="459.44" width="795.19" height="18.79"/><rect class="cls-30" x="2682.66" y="459.44" width="49" height="114.73"/><rect class="cls-30" x="3428.86" y="459.44" width="48.99" height="114.73"/><rect class="cls-30" x="3400.87" y="557.58" width="77.08" height="41.5"/><rect class="cls-30" x="3071.51" y="364.49" width="178.03" height="209.68"/><path class="cls-30" d="M2961.1,559l-5.25-6-5.24,6Z"/><path class="cls-30" d="M3292.7,559q-2.61-3-5.24-6l-5.25,6Z"/><path class="cls-30" d="M2795.29,559q-2.61-3-5.24-6l-5.24,6Z"/><path class="cls-30" d="M3126.9,559l-5.25-6-5.24,6Z"/><path class="cls-30" d="M3033.52,474.58l5.24,6,5.25-6Z"/><path class="cls-30" d="M2867.71,474.58l5.24,6,5.24-6Z"/><path class="cls-30" d="M3375.65,464.09c-2.53-2.9-8-2.9-10.49,0L3287.46,553q2.63,3,5.24,6h-10.49l5.25-6-77.64-88.94a7.4,7.4,0,0,0-10.49,0L3121.65,553l5.25,6h-10.49l5.24-6L3044,464.09a7.41,7.41,0,0,0-10.49,0L2955.85,553l5.25,6h-10.49l5.24-6q-38.82-44.47-77.66-88.94a7.4,7.4,0,0,0-10.48,0q-38.84,44.46-77.66,88.94,2.63,3,5.24,6h-10.48l5.24-6q-38.82-44.47-77.65-88.94c-6.3-7.22-16.75,3.32-10.48,10.49l82.89,94.94a7.4,7.4,0,0,0,10.48,0q38.84-44.46,77.66-88.94l-5.24-6h10.48l-5.24,6q38.82,44.48,77.66,88.94c2.54,2.9,8,2.9,10.49,0q38.83-44.46,77.66-88.94l-5.24-6H3044l-5.25,6,77.65,88.94c2.53,2.91,8,2.9,10.49,0l77.67-88.94-5.24-6h10.49l-5.25,6,77.64,88.94a7.4,7.4,0,0,0,10.49,0l77.71-88.94-5.25-6h10.49l-5.24,6,77.7,88.94c6.3,7.22,16.75-3.31,10.49-10.48Q3417.13,511.57,3375.65,464.09Z"/><path class="cls-30" d="M3365.16,474.58l5.25,6,5.24-6Z"/><path class="cls-30" d="M3199.33,474.58l5.24,6,5.25-6Z"/><path class="cls-30" d="M3078.93,371.68l-373.72,90.5c-9.29,2.25-5.36,16.55,3.94,14.31L3082.88,386C3092.18,383.74,3088.23,369.43,3078.93,371.68Z"/><path class="cls-30" d="M3468.43,462.18l-229.78-90.5c-8.92-3.51-12.74,10.84-4,14.31l229.79,90.5C3473.41,480,3477.23,465.64,3468.43,462.18Z"/><path class="cls-11" d="M2699.74,941.58c0,9.56,14.84,9.56,14.84,0V574.05h-14.84Z"/><path class="cls-11" d="M2706.16,912.11a34,34,0,1,0,34,34A34,34,0,0,0,2706.16,912.11Z"/><path class="cls-11" d="M2712.5,996.12V954.93c0-8.07-12.58-8.07-12.58,0v45.67a6.4,6.4,0,0,0,.09,2,6.05,6.05,0,0,0,1.6,3.22l.31.31a6.23,6.23,0,0,0,4,1.66c9.33.5,17.17,5.17,21.53,12.8s4.37,16.65.1,24.9c-4.05,7.81-11,12.11-19.69,12.11a28.57,28.57,0,0,1-25.08-15.47,5.54,5.54,0,0,0-5.07-3.3,6.82,6.82,0,0,0-5.65,3.23,6.23,6.23,0,0,0-.26,6.17,40.08,40.08,0,0,0,35.74,21.92h0a34.21,34.21,0,0,0,29.08-15.63c7.41-11.26,8.67-24.49,3.51-36.3A38.55,38.55,0,0,0,2712.5,996.12Z"/><path class="cls-33" d="M1456.4,1349.64c-8.39,41-29.35,131.46-29.35,131.46,6.36,44.21,32.59,89.27,71.46,100.81,13.69,4.06,31.57,1.37,42.12-7.65,18.58-15.88,24.61-59.9,29.51-93.85C1465.71,1456.17,1456.4,1349.64,1456.4,1349.64Z"/><path class="cls-34" d="M1917.11,1888.2c-11.18-25.38-22.66-50.56-33.18-71.47-43-85.63-51-169.83-114.7-231.5-1-.93-1.92-1.85-2.9-2.76-5.9-5.51-14.51-11.25-24.9-17-52.55-29.19-150.71-59.22-174-63.23.08,14.68-15.76,89.4-29.37,118,12.8,93.54,23.92,184,43.39,269.27,19.34,84.73,42.79,156,72.44,229,32.18-9.07,64.27-17.68,95.34-27.87-6.78-43.85-20.1-104.38-27.91-147.19,16,15.11,43.19,52.4,64.32,68.57,17.26,13.21,43.06,32.68,67.64,38.29,11.48,2.62,27.1,4.06,38.28,0,21-7.6,36.45-24.67,44.68-39.56,5.8-10.5,10.3-27.3,8.93-46C1943.24,1938.37,1928.09,1913.13,1917.11,1888.2Z"/><path class="cls-35" d="M1618.48,2008.17c-34.24-110.47-57.77-238.63-71.47-372.66-.61-6-2.82-12.31-2.55-16.59.49-7.87,5.71-19.32,7.66-30.63,2-11.63,8.68-49.75,9.91-61-5.23,23.24-20.73,46.17-31.61,50.76-24.88,10.5-59.28-12.94-74-29.35,8.55,28,35.42,51.12,52.61,74.77-27.63,51.6-53.37,145.41-78.13,217.48-18.66,54.3-36.29,109.11-58.71,159.52-7.55,17-16.7,33.13-21.69,51.06,98.1-3.36,145.11,54.6,201.64,97,37-8.54,72.12-21.71,107.67-31.68-1.55-10.09-7.81-14.15-12-23.2C1635.78,2067.36,1627.78,2038.16,1618.48,2008.17Z"/><path class="cls-34" d="M1433.43,1493.86c.06-2.19-5.36-9.46-7-10-104.45,10-190.7,39.91-255.94,89.11,3.81,15,10.64,19.06,16.59,33.18,22.62,53.68,35.89,133.15,30.63,209.3-5,72.75-21.66,140.83-45.94,195.26-26,58.34-54.88,105.92-85.51,157-20.57,34.28-41.34,80.91-52.32,128.9-4,17.64-8.6,37.67-7.66,52.32,2,30.64,63.56,120.27,114.86,128.9-6.44-80.41,22-181.4,45.94-224.61,13.89-25,34.61-45.62,53.6-66.37,19.24-21,38.72-40.71,57.43-61.25,37.93-41.65,64.94-91.53,89.34-149.32,23.83-56.47,44-115,63.81-174.84,19.07-57.65,34.06-119.74,57.71-177.92-6.06-11.63-11.28-16.52-19.43-26.27C1460.78,1562.71,1447.53,1533.67,1433.43,1493.86Z"/><path class="cls-36" d="M1769.23,1585.23c-1-.93-1.92-1.85-2.9-2.76-5.9-5.51-14.51-11.25-24.9-17-82.4,181.64-20.09,378-20.09,378s-21.49-160.46,51.07-353.87Z"/><path class="cls-37" d="M1171.81,1572.15c42.33,44.42,70.51,238.73,61.26,385.41,5.13-1.51,11.78-3.63,19.52-6.18,15-120.08,2.13-323.69-57.16-395.24C1188.13,1560.7,1179,1566.84,1171.81,1572.15Z"/><path class="cls-38" d="M1437.54,1508.64a179.12,179.12,0,0,1-8.71-35.24c.35-2.06-1.29-3.08-4-1.77-43,22.38-54.22,94.31-34,129.4,12.53,21.71,31.06,37.51,31.9,67.64.32,11.17,36.17,1.78,40.35-6.89,8.88-18.38,20.75-39.56,46-38.28-5.46-11.41-15.16-20.43-23-30.63C1467.89,1569.18,1449.18,1541.26,1437.54,1508.64Z"/><path class="cls-38" d="M1611.08,1589.76c-3.47-33.18-15.09-79-26.7-93.91-3.7-4.77-9.7-4.52-16.59-1.27a1104.87,1104.87,0,0,1-29.71,125.62c6.86,8.37,19.49,7.29,27.39,14.13,16.11,14,24.56,45.56,46,56C1597,1658,1614.8,1625.38,1611.08,1589.76Z"/><path class="cls-39" d="M1709.09,1623.28l-70.67,6c-11.77-1-21.25,9.14-21.19,22.71l.85,172.6c.06,13.57,9.64,25.43,21.41,26.47l70.69-6c11.77,1,21.24-9.13,21.18-22.71l-.84-172.59C1730.45,1636.17,1720.86,1624.33,1709.09,1623.28Z"/><path class="cls-40" d="M1629.14,1825l-.88-176.8c0-8,3.14-14.76,8.12-18.94-10.81.24-19.21,10-19.14,22.77l.84,172.59c.06,13.58,9.64,25.43,21.42,26.47l5.6-.47C1635.94,1846.8,1629.18,1836.51,1629.14,1825Z"/><path class="cls-40" d="M1706.65,1635l-3,.22a10.1,10.1,0,1,0,1.49,20.15l3-.21a8.65,8.65,0,0,0,1.43-.21,10.11,10.11,0,0,0-2.93-20Z"/><path class="cls-33" d="M1691.08,1671.75c-3.31-.54-11.69,1.94-12,5.93-.45,6.26,7.25,9.62,11,11.79,5.21,3.06,9.56,5,13.15,7.27,8.87,5.62,24.1,19.21,22.55,21.71-1.3,2.11-11.14-3.22-16.44-4.73-10.43-3-28.74-5.43-42.68.42-4.11,1.73-8.93,6.09-8.23,9.46,1.43,6.79,22.44,5.6,28.08,6.21,11,1.18,28,5.36,26.91,8.19-.61,1.58-6.71-.62-9.93-1.35-8.71-2-22.12-4.14-34-.73-5.11,1.47-15.86,7-14.68,12.83,1.57,7.65,17.58,5.55,24.64,6,4.46.26,9.29,1,13.37,1.58s11.84,1.68,11.27,4.39c-.46,2.17-4.5.94-6.6.59-8.29-1.36-18.26-3.39-30.65,1.22-4.52,1.69-14.66,7.91-12,14.4,2,4.91,15.26,4.49,20.93,4.68,9,.3,15.65-.41,21.57,2.82.1,4-2.34,7.76-2.39,12.46-.18,14.44,9.53,29.65,18.57,34.57a34.79,34.79,0,0,1,8.69,29.16s27.24-9.64,51.36-3.87c.68-5.44,1.32-11,1.88-16.64,2.77-28.11,3.88-58.92-6.44-91.78C1755.46,1705.23,1726.64,1677.49,1691.08,1671.75Z"/><path class="cls-41" d="M1704.38,1779.2c-8.57.09-39.33,2.93-44.89-12.17-3,2.81-6.12,5.47-4.83,9.35,1.93,5.78,13.38,4.88,21.06,5.21,9.21.4,15.67.8,21.71,3.36a59.77,59.77,0,0,0-1.9,7.81c-2.25,14.77,8,33.13,18.46,38.54-3.21-6.38-7.94-13-10.11-21.57C1701.1,1798.81,1702.74,1787.89,1704.38,1779.2Z"/><path class="cls-41" d="M1700.37,1692.42c-7.78-5.4-21.23-15.09-4.55-20-10.49-3.06-22.64,1.32-14.43,12,2.89,3.75,11.81,7.27,16.61,9.75a114.64,114.64,0,0,1,18.64,12.44C1712.25,1700.33,1706.92,1697,1700.37,1692.42Z"/><path class="cls-41" d="M1666.8,1719.17c-1.7-2.33-.68-3.84,1.17-5.49-7.36,2.45-13.14,9.76-7.58,13.35,4.4,2.84,12.51,2.41,20.37,2.58,8.31.18,17.75,2.05,23.16,3.26C1695,1728.18,1674,1729.05,1666.8,1719.17Z"/><path class="cls-41" d="M1661.9,1745.78a4.11,4.11,0,0,1-.92-5.68c-2.11,1.13-7.73,5.45-5.5,9.67,3,5.59,15,5.38,23.55,5.63,10,.27,19.4,1,24.29,3.25C1699.39,1752.42,1673,1754.25,1661.9,1745.78Z"/><path class="cls-34" d="M1867.34,1852.47c-27-24.08-52.6-45.46-77.85-62.54-14.35,13.09-72.74,76.58-72.74,76.58,6.26,25.72,29.68,71.82,40.84,90.61,17.19,29,38.25,57.85,57.43,74,16,13.46,47.82,30.42,76.56,19.14,32.45-12.72,62.39-46.82,52.89-96.89C1936.24,1910,1896.83,1878.79,1867.34,1852.47Z"/><path class="cls-37" d="M1904.2,2028.58c-28.75,11.28-60.61-5.68-76.57-19.14-19.17-16.17-40.23-45.07-57.43-74-10.32-17.37-31.08-58.05-39.11-84.42-8.47,9.12-14.34,15.51-14.34,15.51,6.26,25.72,29.68,71.82,40.84,90.61,17.19,29,38.25,57.85,57.43,74,16,13.46,47.82,30.42,76.56,19.14,20.52-8.05,40-24.66,49.18-48.42A89.38,89.38,0,0,1,1904.2,2028.58Z"/><path class="cls-41" d="M1607.34,1766.26c-5.52-1.77-15.27,15-22.32,23.14-14.35,16.52-30.74,30.25-43,45.79-6.07,7.66-11.18,17.12-13.47,26.86,12-11.83,24.36-25.68,41-36,9.82-6,22.57-9.61,28.78-15.56C1604.78,1804.36,1617,1769.35,1607.34,1766.26Z"/><path class="cls-33" d="M1660,1832.3c-7.74-1.37-23.74-4.17-33.06-4.78,19.93-14.4,62.29-32.88,53.82-42.65-10.75-2.69-33.57,10.05-65.15,18-21.35,5.39-42.91,16.78-59.81,29.86-13.19,10.22-23.26,24.6-35.9,36-4.74,4.27-18.45,14.23-37.33,27.94a64.38,64.38,0,0,1,12.26,24.72,245.29,245.29,0,0,0,15.47,41.81c11.62-14.09,26.4-12,33.77-17.09,4.47-3.1,12.28-2,18.31-4.13,10.63-3.73,19.72-11,32.9-19.8,11.25.23,20.6-5.47,31.59-4.21,10.75,1.22,42.26,9.33,43.17,4.1,2.33-13.52-33-20.92-51.4-33.24,16.36-.71,13-3,28.83-.66,16,2.36,46.49,13.1,48.71,3.16,1.17-5.3-12-10.08-18.56-12.64-14.63-5.69-49.51-15.15-54.16-20.48,25.53-8.06,40.86-2.68,64.15-1.89,7.37.25,24.27,2,24.1-3.89C1711.45,1843,1667.33,1833.59,1660,1832.3Z"/><path class="cls-34" d="M1233.07,1957.56c9.32-147.77-18.39-342.89-61.26-385.41-75.64,45.58-100.51,150.15-116.13,265.45a1024.21,1024.21,0,0,0-8.94,154.42c1,52.74,9.78,99.6,38.29,123.79,71.76,60.92,232.38-23.49,292.25-54.88,46-24.09,176.11-113.57,176.11-113.57s-22.78-67.22-30.62-88.07C1472.4,1872.41,1283.34,1942.75,1233.07,1957.56Z"/><path class="cls-37" d="M1394.77,2021.49c-59.87,31.38-220.49,115.8-292.25,54.88-28.51-24.19-37.24-71-38.29-123.79a1025.6,1025.6,0,0,1,8.93-154.42c7.58-55.93,17.35-109.3,34-154.67-27.94,52.18-41.6,121-51.5,194.11a1024.21,1024.21,0,0,0-8.94,154.42c1,52.74,9.78,99.6,38.29,123.79,71.76,60.92,232.38-23.49,292.25-54.88,46-24.09,176.11-113.57,176.11-113.57s-3.2-9.44-7.61-22.34C1505.63,1952.21,1428.08,2004,1394.77,2021.49Z"/><path class="cls-42" d="M1920.78,2031.63c-10.64,10.06-27.42,21.9-48.78,21.9a95.56,95.56,0,0,1-10.83-.41c-99.15,35.1-198.93,65.63-311.6,91.6,34.58,33.26,75.67,60.17,116.13,86.78,40.85,26.87,80.68,55.44,123.79,79.12,23.11-25.9,41.54-56.2,62.54-85.5,20-27.87,43.4-54,65.08-81.68,20.28-25.89,41.23-54.21,65.09-81.67s48-59.31,83-71c-32.74,6.51-91.87,21.22-132.72,36.57C1928.09,2028.94,1925.12,2030,1920.78,2031.63Z"/><path class="cls-43" d="M1436,2373.16c-15,17.38-24.54,40.18-40.83,56.15-5.75,5.64-14.33,7.27-17.87,15.32,63.35,16.83,154.72,14.1,211.85-6.39-57.52-15.23-111.18-34.3-151.87-66.36C1436.17,2371.65,1436.05,2372.38,1436,2373.16Z"/><path class="cls-44" d="M2044.73,2346.36c-8.06,3.32-12.62,14.39-19.14,21.69-16.56,18.56-38,35-57.43,52.33-9.81,8.76-18.32,18.73-28.08,26.8s-22.37,13.24-28.07,24.25c71.73,18.21,195.49,15.32,233.54-31.91,12.56-15.59,12.14-34.65,0-51C2127.12,2363.59,2074.45,2350.77,2044.73,2346.36Z"/><path class="cls-45" d="M1908.78,2473.45s156.37-30.19,134.93-127.09Z"/><path class="cls-46" d="M1499.8,2101.34c-11.15-8.41-22.53-16.6-34.47-24-22.47-14-46.88-25.1-75.29-29.61-18.2-2.9-51.7-.33-70.19,7.66-30.73,13.28-62.09,39.29-85.51,65.08-45.46,50.06-85.44,121.35-97,204.2-6.41,46-1.81,88.62,23,122.51,18.87,25.79,52.91,48.17,95.72,51.05,49.23,3.3,88.41-14.77,122.51-34.47,34.5-19.9,61.83-44,88.06-68.9,48.17,28.87,110.08,44.74,181.22,54.87,10.4,1.48,22.58,5.2,29.36,3.83,10.56-2.14,25-21.91,33.18-31.91,29.79-36.23,53.79-75.16,77.84-114.86-68.13-39.41-131.67-80.63-197.81-131.44C1560.92,2152.69,1531.76,2125.42,1499.8,2101.34Z"/><path class="cls-47" d="M1319.85,2055.38c-30.73,13.29-62.09,39.3-85.51,65.09-45.47,50.07-85.44,121.35-97,204.2-6.41,46-1.82,88.61,23,122.51,12.83,17.54,32.7,33.49,57.56,42.81a120.76,120.76,0,0,1-27-26.49c-24.79-33.9-29.39-76.48-23-122.51,11.54-82.85,51.52-154.13,97-204.2,23.42-25.79,54.78-51.8,85.5-65.08,18.5-8,52-10.55,70.2-7.66a181.14,181.14,0,0,1,44.82,13.37c-22.51-14-47-25.18-75.4-29.69C1371.83,2044.84,1338.34,2047.39,1319.85,2055.38Z"/><path class="cls-42" d="M1307.9,2272.6s15.06,99.24,158.71,122.25C1466.61,2394.85,1373.48,2346,1307.9,2272.6Z"/><path class="cls-44" d="M1702.71,2619.47c6.28-12.66,11.86-21.39,28.23-31.69-21.56-41.82-40.49-86.66-89.49-101-9.58,5.72-15.31,11.05-25.52,15.31-24.33,10.16-66.87,10.25-74,31.91-4.33,13.11-.14,31,6.38,42.11,9.82,16.76,31.52,28.59,42.11,47.22,6,10.55,8.49,21.22,11.49,33.19,5.2,20.72,10.09,43.43,23,58.7,14.23,16.87,43,35.06,62.54,40.84,20,5.9,48.75,7.52,51-11.48,1.12-9.28-4.86-17-10.21-25.53C1713.24,2695,1685.2,2654.76,1702.71,2619.47Z"/><path class="cls-48" d="M1709.55,2742.72c-19.58-5.78-48.3-24-62.53-40.83-12.88-15.27-17.77-38-23-58.71-3-12-5.5-22.63-11.49-33.18-10.59-18.64-32.29-30.47-42.11-47.22-6.52-11.11-10.72-29-6.39-42.11a19.31,19.31,0,0,1,2.87-5.33c-12.09,3.86-21.91,9.19-25,18.62-4.33,13.11-.14,31,6.38,42.11,9.82,16.76,31.52,28.59,42.11,47.22,6,10.55,8.49,21.22,11.49,33.19,5.2,20.72,10.09,43.43,23,58.7,14.23,16.87,43,35.06,62.54,40.84,19.18,5.66,46.43,7.33,50.58-9.39C1728.8,2747.08,1718.33,2745.32,1709.55,2742.72Z"/><path class="cls-49" d="M1641.45,2486.74c9,59.11,89,101.29,89,101.29H1732C1720.89,2515.34,1641.45,2486.74,1641.45,2486.74Z"/><path class="cls-46" d="M2143,2033.69c-15.13-18.36-34.14-40-60-43.39-16.34-2.16-32,3.27-43.38,10.2-19.4,11.83-38.87,35.14-56.15,54.89-52.07,59.43-99.41,121.88-146.76,185-32.27,43.05-62.26,86.68-91.89,128.9-26.78,38.13-54,74.93-88.07,105.92-4,3.68-15.31,11.49-15.31,11.49a131.76,131.76,0,0,1,39.51,25.64c21.68,20.17,37.3,46.92,49.41,75.47a1.3,1.3,0,0,1,.08.17c72.11-36.38,141.45-83.93,203.26-134.46,62.11-50.79,116.32-108.89,165.9-172.28a496.41,496.41,0,0,0,44.66-67.65l.72-1.32,1.45-2.66c1-1.78,1.93-3.58,2.89-5.38s1.92-3.61,2.87-5.45,1.89-3.67,2.83-5.53h0q1.39-2.79,2.74-5.62h0c14-29.26,24.13-62.13,14.56-100.36C2167.63,2068.45,2155.84,2049.26,2143,2033.69Z"/><path class="cls-47" d="M2144.27,2187a496.41,496.41,0,0,1-44.66,67.65c-43.91,56.14-308.85,200.27-418.65,257.75,21.68,20.17,37.3,46.92,49.41,75.47a1.3,1.3,0,0,1,.08.17c72.11-36.38,141.45-83.93,203.26-134.46,62.11-50.79,116.32-108.89,165.9-172.28a496.41,496.41,0,0,0,44.66-67.65l.72-1.32,1.45-2.66c1-1.78,1.93-3.58,2.89-5.38s1.92-3.61,2.87-5.45,1.89-3.67,2.83-5.53h0c.92-1.87,1.84-3.74,2.74-5.62h0c11.86-24.84,20.93-52.31,17.56-83.42C2172,2135.21,2157.73,2162.36,2144.27,2187Z"/><path class="cls-47" d="M1499.8,2101.34c-11.15-8.41-22.53-16.6-34.47-24l.11.08c72.12,51.83,239.5,230,251.31,240.4,26.47,23.42-39.56,135.74-39.56,135.74l111-146.77c-68.13-39.41-131.67-80.63-197.81-131.44C1560.92,2152.69,1531.76,2125.42,1499.8,2101.34Z"/><path class="cls-50" d="M1463.74,1406.54l-2.44-1.42C1462.1,1405.61,1462.92,1406.08,1463.74,1406.54Z"/><path class="cls-50" d="M1661.24,1223c-1.51-6.8,1.09-13.47,4.33-19.26s7.22-11.27,8.81-17.79c2.65-10.92-2.17-23.44-10.83-31.87s-20.62-13-32.33-14c-15.15-1.31-31.7,2.45-44.59-6.39-7.54-5.18-12.18-13.8-19.8-18.87-10.22-6.8-23.79-5.54-33.74,0s-14,17.15-24.11,22.38a68.5,68.5,0,0,1-11.87,5c-17.21,5.13-36.29.54-54.5,1.13s-38.29,9.38-41.3,28.56c-2.14,13.59,5.07,28.28,3.12,41.91-2.76,19.26-21.93,28.66-31.13,44.84-8.2,14.43-7.56,34.77,1.6,50.31,5.4,9.15,13.29,16.44,18.89,25.46s8.54,21.39,3,29.29c-2.06,2.91-5.14,5-6.38,8.47-2.14,6,2,12.84,6,18.19,9.6,12.78,20.78,25.25,34.84,30.81s31.47,1.9,37.45-11.81l-4.91-2.85c-.82-.46-1.64-.93-2.44-1.42l2.44,1.42c22.06,12.26,49.07,11.42,68.1-2.38,6.23-4.52,11.64-10.27,17-16,26.75,6.26,56.54-10,74.83-28,11.77-11.55,21.53-26,23.24-42.76,1.66-16.35-3.17-33.83-9.86-49.61,7.19.61,14.49,1.21,21.4-.16s13.5-5,16.6-11.07c2.72-5.3,3.09-15.75,1.44-21.81C1669.84,1236.21,1662.74,1229.83,1661.24,1223Z"/><path class="cls-51" d="M1497.08,1234.34c.31.55,10.23,18.29,10.94,37.76.6,16.28-8.82,31.36-23.37,38.69l-.22.1c-3.6-13.7-15-23.72-28.5-23.69-16.38,0-29.63,14.78-29.6,33,0,17.33,12.14,31.48,27.46,32.74l-24,122.76c85.79,60.63,135.13,33.95,135.13,33.95l7.79-59.15s38.37,19.46,52.06-10.94-4.61-153.32-6.81-172.12C1617.91,1267.4,1560.08,1276.9,1497.08,1234.34Z"/><path class="cls-52" d="M1497.07,1234.33s9.32,16.42,10.79,35.13c31.52,7.54,75.93,14.37,111,5-.4-3-.71-5.41-.9-7C1617.91,1267.39,1560.07,1276.89,1497.07,1234.33Z"/><path class="cls-52" d="M1513.28,1408.61s10.94,67.32,54.51,86l4.87-44.12S1527.05,1427.4,1513.28,1408.61Z"/><path class="cls-53" d="M1462.11,1193.58a2.17,2.17,0,1,0-2.56,3.5c.12.09,11.79,8.65,15.85,16.25a2.19,2.19,0,0,0,1.92,1.14,2.07,2.07,0,0,0,1-.26,2.16,2.16,0,0,0,.89-2.93C1474.7,1202.81,1462.62,1194,1462.11,1193.58Z"/><path class="cls-53" d="M1651.47,1247c-12.29,14.9-33.66,18.25-33.88,18.28a2.17,2.17,0,0,0,.32,4.32l.32,0c.94-.14,23.22-3.61,36.58-19.82a2.17,2.17,0,0,0-3.34-2.76Z"/><path class="cls-52" d="M1454.34,1300.12a2.17,2.17,0,1,0-4,1.66l8.37,20.17-15.66,2.18a2.17,2.17,0,0,0,.3,4.32l.3,0,18.44-2.57a2.17,2.17,0,0,0,1.7-3Z"/><path class="cls-52" d="M1595.72,1319.22c-3.72-7.16-1.88-17.93-1.86-18a2.17,2.17,0,0,0-4.28-.75c-.08.49-2.12,12.31,2.29,20.8a81,81,0,0,0,5,7.51c5.1,7.16,12.8,18,11,23.22-.45,1.31-1.59,2.23-3.51,2.82-13.48,4.12-20.67,4.16-20.74,4.16h0a2.17,2.17,0,0,0,0,4.34h0c.51,0,8-.07,22-4.35,3.3-1,5.43-2.89,6.35-5.57,2.49-7.33-5.32-18.32-11.59-27.14A77.16,77.16,0,0,1,1595.72,1319.22Z"/><g class="cls-54"><path class="cls-55" d="M1519.73,1319.5c-13.75-2.25-25.75,1.1-26.79,7.5s9.24,13.4,23,15.66,25.74-1.1,26.79-7.5S1533.48,1321.76,1519.73,1319.5Z"/></g><path class="cls-56" d="M1556.4,1299.14c-2.7,0-4.88,2.84-4.87,6.34s2.19,6.32,4.89,6.32,4.88-2.84,4.87-6.34S1559.09,1299.14,1556.4,1299.14Z"/><path class="cls-56" d="M1606.25,1302.65c-2.67-.39-5.24,2.1-5.75,5.56s1.25,6.57,3.92,7,5.24-2.09,5.74-5.55S1608.91,1303,1606.25,1302.65Z"/><path class="cls-56" d="M1572.56,1277.12c-13.86-9-27.71-.35-28.3,0a4.34,4.34,0,0,0,4.66,7.32c.39-.24,9.8-6,18.92-.07a4.34,4.34,0,1,0,4.72-7.28Z"/><path class="cls-56" d="M1595.39,1282.27a4.34,4.34,0,0,0,4.4,7.48c.9-.52,9-4.85,15.8,2.76a4.34,4.34,0,0,0,6.49-5.76C1612.72,1276.23,1600.53,1279.22,1595.39,1282.27Z"/><path class="cls-57" d="M1566.62,1377.12a49.57,49.57,0,0,0,.4,11.75c1.18,7.3,4.6,15,14,13.74a20.92,20.92,0,0,0,11.43-5.56c8.47-7.62,11.69-20.38,11.69-20.38A60.1,60.1,0,0,1,1566.62,1377.12Z"/><path class="cls-58" d="M1567,1388.87c1.18,7.3,4.6,15,14,13.74a20.92,20.92,0,0,0,11.43-5.56C1588,1388.53,1576.49,1386.06,1567,1388.87Z"/><path class="cls-59" d="M1541.17,1272.22a32.63,32.63,0,0,0-24.71,10.42,41,41,0,0,0-1.7,53.6,32.57,32.57,0,0,0,24,12h1a32.65,32.65,0,0,0,23.7-10.44,39.9,39.9,0,0,0,10.84-26.48C1575,1290.35,1560.11,1272.82,1541.17,1272.22Zm29.66,39a36.43,36.43,0,0,1-9.88,24.19,28.61,28.61,0,0,1-43.52-1.38,37.47,37.47,0,0,1,1.55-49,29.2,29.2,0,0,1,21.18-9.36h.9C1558.08,1276.24,1571.44,1292.16,1570.83,1311.19Z"/><path class="cls-59" d="M1627.49,1275c-19-.65-34.89,16-35.55,36.9s14.21,38.48,33.14,39.08l1,0a32.67,32.67,0,0,0,23.7-10.44,40.93,40.93,0,0,0,1.7-53.6A32.59,32.59,0,0,0,1627.49,1275Zm29.67,39a36.5,36.5,0,0,1-9.88,24.18,29.12,29.12,0,0,1-22.08,9.35c-17-.54-30.38-16.46-29.78-35.49.59-18.7,14.44-33.55,31.07-33.55h.89a29.12,29.12,0,0,1,21.45,10.74A36.46,36.46,0,0,1,1657.16,1313.93Z"/><path class="cls-59" d="M1570.8,1305.43a1.74,1.74,0,1,0,1.49,3.15c.15-.07,14.93-6.91,20.33.31a1.74,1.74,0,1,0,2.79-2.09C1588.31,1297.31,1571.51,1305.09,1570.8,1305.43Z"/><path class="cls-59" d="M1508.92,1299.52,1461.79,1285a1.74,1.74,0,0,0-1,3.33l47.13,14.48a1.79,1.79,0,0,0,.51.07,1.74,1.74,0,0,0,.51-3.4Z"/><path class="cls-60" d="M1589.88,1176.39c-27.42,7.61-52.18-13.33-52.18-13.33,14.48,40.75,45.93,23.75,68,28.71s28,26.13,28,26.13,14.86-8.76,9.53-27S1617.31,1168.77,1589.88,1176.39Z"/><path class="cls-61" d="M1420.6,1749.37a13.84,13.84,0,1,0,13.84,13.84A13.84,13.84,0,0,0,1420.6,1749.37Z"/><circle class="cls-61" cx="1392.92" cy="1848.21" r="13.84"/><path class="cls-19" d="M1821.92,880.54c-96.92,96.92-96.93,254,0,351s254,96.91,350.93,0,96.91-254,0-350.94S1918.83,783.63,1821.92,880.54Z"/><path class="cls-11" d="M1852.85,911.48c-79.83,79.83-79.84,209.25,0,289.08s209.25,79.82,289.06,0,79.83-209.25,0-289.08S1932.68,831.65,1852.85,911.48Z"/><path class="cls-19" d="M1888.89,947.52a153.43,153.43,0,1,0,217,0A153.42,153.42,0,0,0,1888.89,947.52Z"/><path class="cls-11" d="M1929.44,988.07a96.09,96.09,0,1,0,135.89,0A96.09,96.09,0,0,0,1929.44,988.07Z"/><path class="cls-19" d="M1972.65,1031.29a35,35,0,1,0,49.47,0A35,35,0,0,0,1972.65,1031.29Z"/><path class="cls-62" d="M1844.32,879l22-65.26-96.53-96.54-22.07,65.25-19.71-19.71a17,17,0,1,0-24,24l19.72,19.72-65.26,22.05L1755.07,925,1820.32,903l160.94,161a17,17,0,1,0,24-24Z"/><polygon class="cls-63" points="1747.76 782.41 1844.32 878.96 1866.37 813.7 1769.83 717.16 1747.76 782.41"/><polygon class="cls-63" points="1658.52 828.47 1755.07 925.02 1820.32 902.96 1723.78 806.42 1658.52 828.47"/><rect class="cls-64" x="3131.75" y="1455.76" width="678.84" height="439.03" rx="29.3"/><path class="cls-65" d="M3781.28,1455.76H3161.05a29.29,29.29,0,0,0-29.3,29.3v30.32h678.83v-30.32A29.29,29.29,0,0,0,3781.28,1455.76Z"/><path class="cls-6" d="M3249.14,1468.86a16.71,16.71,0,1,0,16.71,16.71A16.71,16.71,0,0,0,3249.14,1468.86Z"/><path class="cls-26" d="M3205.57,1468.86a16.71,16.71,0,1,0,16.71,16.71A16.71,16.71,0,0,0,3205.57,1468.86Z"/><path class="cls-19" d="M3160.88,1468.86a16.71,16.71,0,1,0,16.7,16.71A16.71,16.71,0,0,0,3160.88,1468.86Z"/><path class="cls-11" d="M3316.23,1729q0,10.1-7.92,10.09t-8-10.09v-22.94h-11.89v23.3q0,9.38,5.2,14.47t14.56,5.11q9.36,0,14.56-5.11t5.19-14.47v-23.3h-11.71Z"/><path class="cls-11" d="M3365.11,1708a24,24,0,0,0-9.9-1.89H3336v42h11.89v-11h7.33a24,24,0,0,0,9.9-1.89,14.87,14.87,0,0,0,6.49-5.38,14.86,14.86,0,0,0-6.49-21.89Zm-5.1,18.2a8.31,8.31,0,0,1-5.53,1.59h-6.6v-12.31h6.6a8.2,8.2,0,0,1,5.53,1.62,5.72,5.72,0,0,1,1.86,4.56A5.64,5.64,0,0,1,3360,1726.15Z"/><path class="cls-11" d="M3411.77,1708.64a27.85,27.85,0,0,0-12.25-2.58h-19.88v42h19.88a27.71,27.71,0,0,0,12.25-2.59,19.52,19.52,0,0,0,8.29-7.32,22.46,22.46,0,0,0,0-22.22A19.61,19.61,0,0,0,3411.77,1708.64Zm-4.05,26.91a12.22,12.22,0,0,1-8.68,3.06h-7.51v-23.06H3399a12.22,12.22,0,0,1,8.68,3.06c2.18,2,3.27,4.87,3.27,8.47A11.06,11.06,0,0,1,3407.72,1735.55Z"/><path class="cls-11" d="M3442.15,1706.06l-18.55,42h12.13l3.3-8.17h17.77l3.31,8.17h12.37l-18.62-42Zm.36,25.1,5.41-13.45,5.4,13.45Z"/><polygon class="cls-11" points="3469.78 1715.49 3482.69 1715.49 3482.69 1748.1 3494.58 1748.1 3494.58 1715.49 3507.43 1715.49 3507.43 1706.06 3469.78 1706.06 3469.78 1715.49"/><rect class="cls-11" x="3511.87" y="1706.06" width="11.89" height="42.03"/><polygon class="cls-11" points="3560.57 1728.46 3542.01 1706.06 3532.22 1706.06 3532.22 1748.1 3543.87 1748.1 3543.87 1725.7 3562.43 1748.1 3572.22 1748.1 3572.22 1706.06 3560.57 1706.06 3560.57 1728.46"/><path class="cls-11" d="M3602.48,1715.07a13.35,13.35,0,0,1,10.21,4.68l7.57-6.84a20.49,20.49,0,0,0-7.81-5.71,26.92,26.92,0,0,0-10.57-2,25.69,25.69,0,0,0-12.07,2.79,20.9,20.9,0,0,0-8.35,7.78,22.74,22.74,0,0,0,0,22.58,20.9,20.9,0,0,0,8.29,7.77,25,25,0,0,0,11.89,2.8,33.07,33.07,0,0,0,9.37-1.38,27.63,27.63,0,0,0,8.28-4v-17.41h-10.5v11.53a15.26,15.26,0,0,1-6.43,1.38,12.31,12.31,0,0,1-6.18-1.53,10.68,10.68,0,0,1-4.21-4.27,12.68,12.68,0,0,1-1.5-6.21,11.3,11.3,0,0,1,12-12Z"/><path class="cls-11" d="M3631.72,1735.13a6.8,6.8,0,0,0-4.89,1.86,6.41,6.41,0,0,0-1.95,4.86,6.48,6.48,0,0,0,2,4.86,7.13,7.13,0,0,0,9.76,0,6.53,6.53,0,0,0,2-4.86,6.46,6.46,0,0,0-1.92-4.86A6.8,6.8,0,0,0,3631.72,1735.13Z"/><path class="cls-11" d="M3648.72,1735.13a6.81,6.81,0,0,0-4.9,1.86,6.41,6.41,0,0,0-2,4.86,6.48,6.48,0,0,0,2,4.86,7.13,7.13,0,0,0,9.76,0,6.53,6.53,0,0,0,1.95-4.86,6.46,6.46,0,0,0-1.92-4.86A6.78,6.78,0,0,0,3648.72,1735.13Z"/><path class="cls-11" d="M3665.71,1735.13a6.8,6.8,0,0,0-4.89,1.86,6.38,6.38,0,0,0-2,4.86,6.48,6.48,0,0,0,2,4.86,7.13,7.13,0,0,0,9.76,0,6.53,6.53,0,0,0,2-4.86,6.46,6.46,0,0,0-1.92-4.86A6.78,6.78,0,0,0,3665.71,1735.13Z"/><path class="cls-66" d="M3639.58,1798.94H3306.67a20.67,20.67,0,1,0,0,41.34h332.91a20.67,20.67,0,1,0,0-41.34Z"/><polygon class="cls-11" points="3419.71 1620.04 3421.55 1619.99 3419.71 1620.04 3419.71 1620.04"/><path class="cls-11" d="M3462.52,1663.41a46.35,46.35,0,0,1-33-13.64,44.51,44.51,0,0,1-13.42-28.37l-11.15,1.25-.15,0h-.15c-.87,0-2,.08-3.15.22l-.72.09a62,62,0,0,0,103.55,39.64l-10.92-10.92A46.22,46.22,0,0,1,3462.52,1663.41Z"/><path class="cls-11" d="M3462,1555.22h0a61.67,61.67,0,0,0-43.87,18.17c-1.38,1.38-2.68,2.82-3.91,4.3l11,11a48,48,0,0,1,3.83-4.38A46.6,46.6,0,0,1,3508.6,1616q7.65-1.26,15.34-2.48a62,62,0,0,0-61.92-58.34Z"/><polygon class="cls-11" points="3414.23 1577.69 3402.91 1566.37 3396.49 1609.78 3439.79 1603.25 3425.21 1588.67 3414.23 1577.69"/><polygon class="cls-11" points="3493.4 1651.7 3504.32 1662.62 3515.49 1673.79 3522.02 1630.49 3478.61 1636.91 3493.4 1651.7"/><path class="cls-67" d="M3295.11,1836.75a20.53,20.53,0,0,0,11.56,3.53h8.07l21.5-41.34h-20.4Z"/><polygon class="cls-67" points="3339.17 1840.28 3360.73 1840.28 3382.23 1798.94 3361.84 1798.94 3339.17 1840.28"/><polygon class="cls-67" points="3385.17 1840.28 3406.74 1840.28 3428.24 1798.94 3407.84 1798.94 3385.17 1840.28"/><polygon class="cls-67" points="3431.17 1840.28 3452.74 1840.28 3474.24 1798.94 3453.84 1798.94 3431.17 1840.28"/><polygon class="cls-67" points="3477.17 1840.28 3498.73 1840.28 3520.23 1798.94 3499.84 1798.94 3477.17 1840.28"/><polygon class="cls-67" points="3523.16 1840.28 3544.74 1840.28 3566.24 1798.94 3545.84 1798.94 3523.16 1840.28"/><polygon class="cls-67" points="3569.17 1840.28 3590.74 1840.28 3612.24 1798.94 3591.83 1798.94 3569.17 1840.28"/><path class="cls-67" d="M3639.58,1798.94h-1.74l-22.67,41.34h21.56l18.05-34.68A20.64,20.64,0,0,0,3639.58,1798.94Z"/><rect class="cls-68" x="906.89" y="829.23" width="417.11" height="354.54" rx="57.88"/><path class="cls-11" d="M1115.45,887.86a118.64,118.64,0,1,0,118.64,118.64A118.77,118.77,0,0,0,1115.45,887.86Zm0,16.38c18.52,0,39,38.23,40.89,94.07h-81.78C1076.41,942.47,1096.93,904.24,1115.45,904.24Zm-34.37,6c-13.2,19.75-21.8,51.12-22.91,88.12h-44.63A102.49,102.49,0,0,1,1081.08,910.19Zm-67.54,104.5h44.63c1.11,37,9.71,68.38,22.91,88.12A102.48,102.48,0,0,1,1013.54,1014.69Zm101.91,94.08c-18.52,0-39-38.24-40.89-94.08h81.78C1154.49,1070.53,1134,1108.77,1115.45,1108.77Zm34.37-6c13.2-19.74,21.8-51.11,22.91-88.12h44.63A102.48,102.48,0,0,1,1149.82,1102.81Zm22.91-104.5c-1.11-37-9.71-68.37-22.91-88.12a102.49,102.49,0,0,1,67.54,88.12Z"/><rect class="cls-69" x="2568.18" y="2213.87" width="710.67" height="144.49"/><g class="cls-70"><rect class="cls-71" x="2568.18" y="2213.87" width="710.67" height="35.07"/></g><polygon class="cls-72" points="2612.55 2248.96 2677.45 2248.96 2694.84 2213.87 2629.97 2213.87 2612.55 2248.96"/><polygon class="cls-72" points="2758.72 2248.96 2823.59 2248.96 2840.97 2213.87 2776.11 2213.87 2758.72 2248.96"/><polygon class="cls-72" points="2904.86 2248.96 2969.72 2248.96 2987.11 2213.87 2922.24 2213.87 2904.86 2248.96"/><polygon class="cls-72" points="3050.99 2248.96 3115.82 2248.96 3133.21 2213.87 3068.38 2213.87 3050.99 2248.96"/><polygon class="cls-72" points="3197.13 2248.96 3261.92 2248.96 3278.85 2214.85 3278.85 2213.87 3214.51 2213.87 3197.13 2248.96"/><rect class="cls-73" x="2656.65" y="2358.38" width="50.1" height="215.77"/><rect class="cls-73" x="3144.18" y="2358.38" width="50.1" height="215.77"/><rect class="cls-73" x="2656.65" y="2191.29" width="50.1" height="22.44"/><rect class="cls-73" x="3144.18" y="2191.29" width="50.1" height="22.44"/><g class="cls-74"><polygon class="cls-75" points="2656.65 2383.1 2695.36 2383.1 2695.36 2574.14 2706.74 2574.14 2706.74 2383.1 2706.74 2358.38 2706.74 2358.22 2656.65 2358.22 2656.65 2383.1"/></g><g class="cls-74"><polygon class="cls-75" points="3144.18 2383.1 3179.47 2383.1 3179.47 2574.14 3194.28 2574.14 3194.28 2383.1 3194.28 2358.38 3194.28 2358.22 3144.18 2358.22 3144.18 2383.1"/></g><g class="cls-74"><polygon class="cls-75" points="2695.36 2210.92 2656.65 2210.92 2656.65 2213.75 2706.74 2213.75 2706.74 2213.73 2706.74 2210.92 2706.74 2191.29 2695.36 2191.29 2695.36 2210.92"/></g><g class="cls-74"><polygon class="cls-75" points="3179.47 2210.92 3144.18 2210.92 3144.18 2213.75 3194.28 2213.75 3194.28 2213.73 3194.28 2210.92 3194.28 2191.29 3179.47 2191.29 3179.47 2210.92"/></g><polygon class="cls-11" points="2568.18 2338.43 2568.18 2358.37 2623.16 2358.37 2694.84 2213.87 2629.97 2213.87 2568.18 2338.43"/><polygon class="cls-11" points="2704.44 2358.37 2769.3 2358.37 2840.97 2213.87 2776.11 2213.87 2704.44 2358.37"/><polygon class="cls-11" points="2850.57 2358.37 2915.44 2358.37 2987.11 2213.87 2922.24 2213.87 2850.57 2358.37"/><polygon class="cls-11" points="2996.71 2358.37 3061.57 2358.37 3133.21 2213.87 3068.38 2213.87 2996.71 2358.37"/><polygon class="cls-11" points="3142.84 2358.37 3207.67 2358.37 3278.85 2214.85 3214.51 2213.87 3142.84 2358.37"/><polygon class="cls-76" points="2612.55 2248.96 2677.45 2248.96 2694.84 2213.87 2629.97 2213.87 2612.55 2248.96"/><polygon class="cls-76" points="2758.72 2248.96 2823.59 2248.96 2840.97 2213.87 2776.11 2213.87 2758.72 2248.96"/><polygon class="cls-76" points="2904.86 2248.96 2969.72 2248.96 2987.11 2213.87 2922.24 2213.87 2904.86 2248.96"/><polygon class="cls-76" points="3050.99 2248.96 3115.82 2248.96 3133.21 2213.87 3068.38 2213.87 3050.99 2248.96"/><polygon class="cls-76" points="3197.13 2248.96 3261.92 2248.96 3278.85 2214.85 3214.51 2213.87 3197.13 2248.96"/><circle class="cls-69" cx="2680.39" cy="2159.94" r="44.67" transform="translate(266.84 4614.45) rotate(-84.35)"/><path class="cls-11" d="M2680.39,2139.7a20.24,20.24,0,1,0,20.24,20.24A20.24,20.24,0,0,0,2680.39,2139.7Z"/><circle class="cls-69" cx="3168.94" cy="2159.94" r="44.67" transform="translate(-145.14 230.08) rotate(-4.07)"/><path class="cls-11" d="M3168.94,2139.7a20.24,20.24,0,1,0,20.24,20.24A20.25,20.25,0,0,0,3168.94,2139.7Z"/><path class="cls-19" d="M3626.76,968.58l-32.93,1.69a130.36,130.36,0,0,0-27.51-33.67l8.22-31.93-38.05-20.45L3514.4,908.7a130.7,130.7,0,0,0-43.27-4.35L3454.37,876,3413,888.41l1.69,32.92A130.72,130.72,0,0,0,3381,948.85l-31.93-8.22-20.45,38,24.48,22.09a130.38,130.38,0,0,0-4.36,43.26l-28.39,16.77,12.45,41.36,32.93-1.69a130.56,130.56,0,0,0,27.51,33.67l-8.22,31.93,38.06,20.45,22.08-24.48a130.44,130.44,0,0,0,43.27,4.36l16.76,28.38,41.37-12.45-1.69-32.92a130.56,130.56,0,0,0,33.67-27.52l31.93,8.22,20.44-38L3606.46,1070a130.35,130.35,0,0,0,4.36-43.26l28.39-16.77ZM3503.15,1113A81,81,0,1,1,3557.38,1012,81,81,0,0,1,3503.15,1113Z"/><path class="cls-37" d="M3457.9,938.37a81,81,0,0,0-57.53,81,80.95,80.95,0,0,1,160.3,12.65,81,81,0,0,0-102.77-93.62Z"/><path class="cls-37" d="M3612,1110.7l-31.93-8.22a130.39,130.39,0,0,1-33.67,27.52l.92,17.92a130.6,130.6,0,0,0,31.3-26l31.93,8.21,20.44-38-6-5.45Z"/><path class="cls-37" d="M3506.68,1175.37,3489.91,1147a130.37,130.37,0,0,1-43.26-4.35l-22.09,24.48-34.94-18.78-4.57,17.74,38.06,20.45,22.08-24.48a130.44,130.44,0,0,0,43.27,4.36l16.76,28.38,41.37-12.45-1-18.68Z"/><path class="cls-37" d="M3367.21,1081.06l-32.92,1.69-7.71-25.61-6.2,3.66,12.45,41.36,32.93-1.69a130.42,130.42,0,0,0,24.67,31l4.3-16.71A130.39,130.39,0,0,1,3367.21,1081.06Z"/><path class="cls-37" d="M3328.65,978.68l22.62,20.41a131.6,131.6,0,0,1,3.31-17.73l-18.43-16.64Z"/><path class="cls-37" d="M3612.28,1007.3A130,130,0,0,1,3612,1026l27.26-16.1-4.74-15.75Z"/><path class="cls-19" d="M3459,996.23c-16.81,8.75-26.22,28.41-22.77,47a44.36,44.36,0,0,0,64.44,31.24c16.81-8.75,26.22-28.41,22.77-47A44.36,44.36,0,0,0,3459,996.23Z"/><path class="cls-37" d="M3520.27,1017.54a44.2,44.2,0,0,1-84.41,12.62,41.94,41.94,0,0,0-.2,9.44,44.34,44.34,0,1,0,88.27-8.46A45.79,45.79,0,0,0,3520.27,1017.54Z"/><path class="cls-77" d="M3736.82,1240.56l-24.63,1.26a98.12,98.12,0,0,0-20.59-25.19l6.15-23.9-28.48-15.29-16.53,18.31a97.58,97.58,0,0,0-32.37-3.26l-12.55-21.24-31,9.31,1.27,24.64a97.8,97.8,0,0,0-25.2,20.59l-23.89-6.15-15.3,28.48,18.32,16.52a97.67,97.67,0,0,0-3.27,32.38l-21.24,12.54,9.32,31,24.64-1.27a97.59,97.59,0,0,0,20.59,25.2l-6.15,23.89,28.47,15.3,16.53-18.32a97.6,97.6,0,0,0,32.37,3.26l12.55,21.25,30.95-9.32-1.26-24.64a97.71,97.71,0,0,0,25.19-20.59l23.9,6.15L3740,1333l-18.32-16.53a97.89,97.89,0,0,0,3.26-32.37l21.24-12.55Zm-92.49,108a60.63,60.63,0,1,1,40.58-75.54A60.64,60.64,0,0,1,3644.33,1348.6Z"/><path class="cls-78" d="M3610.46,1218a60.61,60.61,0,0,0-43,60.59,60.57,60.57,0,0,1,119.95,9.47,60.63,60.63,0,0,0-76.91-70.06Z"/><path class="cls-78" d="M3725.74,1346.91l-23.89-6.16a97.71,97.71,0,0,1-25.19,20.59l.68,13.42a97.74,97.74,0,0,0,23.42-19.48l23.9,6.15L3740,1333l-4.53-4.08Z"/><path class="cls-78" d="M3647,1395.3l-12.55-21.24a97.87,97.87,0,0,1-32.37-3.26l-16.53,18.31-26.15-14-3.41,13.27,28.47,15.3,16.53-18.32a97.6,97.6,0,0,0,32.37,3.26l12.55,21.25,30.95-9.32-.72-14Z"/><path class="cls-78" d="M3542.61,1324.73,3518,1326l-5.77-19.16-4.64,2.73,9.32,31,24.64-1.27a97.33,97.33,0,0,0,18.46,23.17l3.22-12.5A97.71,97.71,0,0,1,3542.61,1324.73Z"/><path class="cls-78" d="M3513.75,1248.12l16.93,15.27a97.91,97.91,0,0,1,2.47-13.27l-13.79-12.45Z"/><path class="cls-78" d="M3726,1269.53a97.89,97.89,0,0,1-.25,14l20.4-12-3.55-11.79Z"/><path class="cls-77" d="M3605,1265.37a30.84,30.84,0,0,0-11.24,21.44c-2.35,30.38,31.06,48.12,55,28.89a30.84,30.84,0,0,0,11.24-21.43C3662.31,1263.88,3628.9,1246.14,3605,1265.37Z"/><path class="cls-78" d="M3657.13,1277.19a33.07,33.07,0,0,1-63.16,9.45,31.42,31.42,0,0,0-.15,7.06,33.18,33.18,0,0,0,66.06-6.33A34,34,0,0,0,3657.13,1277.19Z"/></g></g></svg>