<?xml version="1.0" encoding="utf-8"?>
<!-- Generator: Adobe Illustrator 27.5.0, SVG Export Plug-In . SVG Version: 6.00 Build 0)  -->
<svg version="1.1" xmlns="http://www.w3.org/2000/svg" xmlns:xlink="http://www.w3.org/1999/xlink" x="0px" y="0px"
	 viewBox="0 0 3000 2000" style="enable-background:new 0 0 3000 2000;" xml:space="preserve">
<style type="text/css">
	.st0{fill:#FFFFFF;}
	.st1{fill:#FFC84F;}
	.st2{fill:#309343;}
	.st3{fill:#F94E4E;}
	.st4{fill:#4EBDF3;}
	.st5{fill:#247231;}
	.st6{fill:#53AD62;}
	.st7{fill:#06123F;}
	.st8{fill:#F1D5D1;}
	.st9{fill:#E1E1F9;}
	.st10{fill:#010101;}
	.st11{fill:#231F20;}
	.st12{fill:#FE8499;}
	.st13{fill:#4C4C4C;}
	.st14{fill:#011A21;}
	.st15{fill:#FFB029;}
	.st16{fill:#172E35;}
</style>
<g id="Background">
	<rect class="st0" width="3000" height="2000"/>
</g>
<g id="Illustration">
	<g>
		<g>
			<g>
				<path class="st1" d="M908,360.5v149.3c0,4.7,3.8,8.5,8.5,8.5h13c4.7,0,8.5-3.8,8.5-8.5V360.5c0-4.7-3.8-8.5-8.5-8.5h-13
					C911.8,352,908,355.8,908,360.5z"/>
			</g>
			<g>
				<path class="st2" d="M856.6,444.3v68.1c0,3.2,2.6,5.9,5.9,5.9h18.2c3.2,0,5.9-2.6,5.9-5.9v-68.1c0-3.2-2.6-5.9-5.9-5.9h-18.2
					C859.2,438.4,856.6,441.1,856.6,444.3z"/>
			</g>
			<g>
				<path class="st3" d="M805.2,380.9v129.5c0,4.4,3.5,7.9,7.9,7.9h14.1c4.4,0,7.9-3.5,7.9-7.9V380.9c0-4.4-3.5-7.9-7.9-7.9h-14.1
					C808.7,373,805.2,376.5,805.2,380.9z"/>
			</g>
			<g>
				<path class="st4" d="M753.7,455.2v57.6c0,3,2.4,5.4,5.4,5.4h19.1c3,0,5.4-2.4,5.4-5.4v-57.6c0-3-2.4-5.4-5.4-5.4h-19.1
					C756.1,449.8,753.7,452.2,753.7,455.2z"/>
			</g>
		</g>
		<g>
			<g>
				<path class="st5" d="M736.9,1563.3c0,0-0.4-9.7,7.3-19.4c7.7-9.6,7.1-9.6,16.7-19.9c9.6-10.3,25.4-7.7,32.1-8.7
					c6.8-1,25.1-3.5,38.6,8s20.2,23.1,29.9,31.8c9.6,8.7,22.5,22.8,16.1,38.6s-10.9,20.9-7.4,42.1c3.5,21.2-13.2,38.9-18.3,40.5
					c-5.1,1.6-33.3,2.6-46.4-25.1c-13.1-27.6,17.1-38.6,12.3-58.5c-4.8-19.9-16.7-26.4-26.4-28.9c-9.6-2.6-25.7-12.5-35.4-8.4
					c-9.6,4.2-8.6,4.4-13.8,5.8C742.3,1561.3,739.3,1563,736.9,1563.3z"/>
			</g>
			<g>
				<path class="st5" d="M728.2,1514.4c0,0-14.4-22-27.7-21.6s-17.6-6-48-3.4c-30.4,2.6-18.3-22.7-48.4-18.9
					c-30.1,3.9-45.9,15.4-63.1,8.6c-17.1-6.9-18.9-3.4-24.9-22.7c-6-19.3-0.4-10.3-9-23.1c-8.6-12.9,14.6-9.4,20.6-12.9
					s7.7-4.3,15.4-11.6c7.7-7.3,25.7-17.1,46.3-11.1c20.6,6,23.1,10.3,34.3,10.3c11.1,0,28.7-11.6,48,6c19.3,17.6,14.6,21,31.9,29.6
					c17.4,8.6,33.2,26.6,30.2,47.6S728.2,1514.4,728.2,1514.4z"/>
			</g>
			<g>
				<path class="st6" d="M792.4,1477.4c0,0,7.1-21,20.8-27c13.7-6,18.9-15.4,19.3-34.3c0.4-18.9,8.6-21.9,12.9-27
					c4.3-5.1,12-22.3,8.6-36c-3.4-13.7-3-18,0.9-24.9s3.9-23.6-8.6-24.4c-12.4-0.9-13.7,2.6-33,14.6c-19.3,12-33,3.9-41.1,9.9
					s-16.3,21-16.7,27.6c-0.4,6.6-9.1,17.4-18.5,21.6c-9.4,4.3-23.1,18-15.8,39c7.3,21,10.2,25.6,9.4,38.6s10.7,21.4,12.4,32.6
					c1.7,11.1,5.8,26,3.9,31.7c0,0,10.7-18,16.9-21c6.2-3,11.8-1.5,18.4-6C788.8,1487.9,792.4,1477.4,792.4,1477.4z"/>
			</g>
			<g>
				<path class="st2" d="M702.4,1395.8c0,0,4.2-19.4,13.4-30.9s10.4-25.1,5.3-37.3c-5.1-12.2-5.6-18.6,3-32.8s10.6-23.8,4.8-41.8
					s-7.1-19.3-7.8-40.5c-0.6-21.2-24.4-27-29.6-24.4c-5.1,2.6-12.9,10.3-17.4,24.4c-4.5,14.1-5.1,22.5-14.1,28.9
					c-9,6.4-16.7,9.6-14.8,36.6c1.9,27-10.2,38.6-10.3,50.8c0,12.2,6.4,19.3,14.1,34.7s6.9,22.5,13.5,35.4s14.3,14.1,21,18
					c6.7,3.9,27.9,4,32.2,12.4C715.8,1429.4,698.8,1408.1,702.4,1395.8z"/>
			</g>
			<g>
				<path class="st7" d="M725.5,1595.8c0-17.8,7-37,23.7-45.5c12.7-7.1,26.5-15.9,41.8-13.8c13.6,1.4,26.4,7.5,36.1,17
					c6.1,5.4,11.1,12.2,13.3,20.1c1.5,5.2,2.1,10.7,1.2,16.1c-1.1,5.2-2.5,10.3-2.6,15.7c-0.2,5.3,0.8,10.5,2.7,15.5
					c0.9,2.5,2.2,4.8,3.2,7.3c1,2.5,1.3,5.3,1.2,8c-0.3,5.4-2.3,10.5-4.5,15.3c-2.1,4.9-5.1,9.5-5.6,14.9c0.4-5.4,3.4-10.1,5.4-15
					c2.1-4.9,4.1-9.9,4.2-15.2c0.1-2.6-0.3-5.3-1.3-7.7c-1-2.4-2.4-4.8-3.3-7.3c-2-5-3.1-10.4-3-15.8c0-5.4,1.4-10.6,2.4-15.9
					c0.8-5.2,0.1-10.5-1.4-15.5c-2.3-7.6-7.1-14-13.1-19.2c-9.6-9-22-14.7-35.1-15.9c-13.4-1.6-25.3,5.6-36.5,12
					c-1.9,1.1-5,2.9-6.8,4.1c-10.9,7.2-16.2,20.2-17.6,32.8c-0.3,2.5-0.4,5.2-0.4,7.7L725.5,1595.8L725.5,1595.8z"/>
			</g>
			<g>
				<path class="st7" d="M719.1,1609.1c2.9-22,5.9-44,6.8-66.1c0.1-5.1-0.2-10.3,0-15.4c0.3-6.9,0.9-13.7,1.3-20.5
					c0.2-5,0.7-10-0.6-14.9c-5.5-14.1-18-24.8-32.2-29.6c-16.5-5.8-28.5-19-43-28.1c-4.3-2.7-9-4.8-14.1-4.5
					c-11.9,0.8-23.3,5.2-35.3,6.1c-6.8,0.6-13.8,0.3-20.5-1.3c-6.6-1.6-13.4-2.9-20.2-3.6c-3.4-0.4-6.8-0.6-10.2-0.8
					c-2.5-0.2-7.7-0.2-10.2-1c2.7,0.8,7.3,0.7,10.2,0.9c10.3,0.3,20.5,1.7,30.5,4c6.6,1.5,13.5,1.7,20.3,1
					c6.8-0.7,13.4-2.3,20.1-3.9c6.7-1.4,13.5-3.6,20.5-2.3c6.8,1.7,12.5,6,18.1,10c5.5,4.1,10.9,8.3,16.5,12.2
					c5.6,3.8,11.5,7.3,17.9,9.4c2.5,0.9,4.9,1.8,7.3,2.9c3.9,1.9,7.7,4.2,11,7c6.7,5.5,12.5,12.7,15.7,20.8c1.5,5.1,1,10.6,0.9,15.8
					c-0.3,6.9-0.9,13.7-1.1,20.5c-0.2,5.1,0.2,10.3,0.1,15.4c-0.6,22.3-3.4,44.5-6.1,66.6C723.1,1609.7,719.1,1609.1,719.1,1609.1
					L719.1,1609.1z"/>
			</g>
			<g>
				<path class="st7" d="M808.1,1355.9c-0.7,16.5-5.1,33.7-15.8,46.7c-6.9,8.7-15.4,16.1-21.1,25.6c-5.9,9.5-7.5,20.6-7.7,31.7
					c-0.6,11.2-1.6,22.4-4.7,33.2c-1.8,6.8-5.1,13-8,19.4c-0.9,2.3-2.1,5.4-2.9,7.7c-7.4,22.3-13.6,45.2-17.3,68.3
					c-0.8,5.3-1.3,10.8-1.1,16.2c0,0-4,0.2-4,0.2c-0.1-4.2,0.2-8.7,0.8-12.8c3.7-24.8,10.9-49.2,19.1-72.8c0.9-2.4,2.1-5.5,3.1-7.8
					c2.9-6.2,6.3-12.3,8.2-19c3.2-10.6,4.3-21.7,5.1-32.7c0.3-11.1,2.2-22.7,8.4-32.2c5.9-9.5,14.5-16.9,21.6-25.5
					C802.6,1389.4,807.2,1372.4,808.1,1355.9L808.1,1355.9z"/>
			</g>
			<g>
				<path class="st7" d="M699.9,1241.5c-2.2,3.4-3.1,7.5-4.1,11.4c-2.6,11.9-3.4,24.1-4.3,36.3c-0.8,16.2-2.5,32.4-5.6,48.4
					c-2.9,16.3-5.7,32,2.7,47.2c1.8,3.6,3.4,7.5,4.5,11.5c2.2,7.8,7.7,13.9,13.3,19.6c2.8,2.9,5.8,5.8,8.2,9.2
					c2.2,3.5,3.5,7.3,5.7,10.8c7.3,12.4,12.7,25.9,15.3,40c0,0,1,6.1,1,6.1c0.6,4.7,1.2,10.6,1.4,15.3c0.8,23.4-1.6,46.9-4.2,70.1
					c-1.4,14.1-3.8,28.1-3.9,42.2c0,1.9,0.2,3.9,0.7,5.4l-3.8,1.3c-1.3-4.5-0.8-8.5-0.6-12.9c0.9-12.2,2.7-24.3,4.1-36.4
					c2.8-23.1,5.4-46.3,4.9-69.6c-0.2-4.6-0.7-10.4-1.3-15c0,0-1-6-1-6c-1.8-9.9-4.8-19.6-9.1-28.7c-2.5-5.5-5.7-10.7-8.4-16.2
					c-0.8-1.9-1.5-3.6-2.7-5.3c-4.6-6.6-11.2-11.7-15.9-18.4c-2.4-3.4-4.4-7.1-5.5-11.1c-1-3.9-2.5-7.7-4.3-11.3
					c-7.3-13.7-6.1-27.3-3.5-42c1.9-9.9,3.8-20,5-30c1-8,1.5-16.2,2.1-24.3c1-12.1,1.9-24.4,4.6-36.2
					C696.7,1249,697.6,1244.9,699.9,1241.5L699.9,1241.5z"/>
			</g>
			<g>
				<polygon class="st7" points="599.6,1586.7 605.1,1626.3 802.3,1626.3 807.9,1586.7 				"/>
			</g>
			<g>
				<polygon class="st0" points="605.1,1626.3 627.5,1786.3 779.9,1786.3 802.3,1626.3 				"/>
				<path class="st7" d="M781.6,1788.3H625.8l-23-164h201.8L781.6,1788.3z M629.3,1784.3h148.9l21.9-156H607.4L629.3,1784.3z"/>
			</g>
			<g>
				<path class="st2" d="M715.8,1557.4c0,0,0.1-20.7-15-29.6s-32.1-11.5-42.8-16s-46.6-7.1-60.4,9c-13.8,16.1-12.9,16.7-15.4,30.9
					c-2.6,14.1-7.1,24.4-11.2,32.5c-4.2,8-10.9,27.3-2.2,47.9c8.7,20.6,9.6,28,14.5,37.3c4.8,9.3,30.2,19.9,40.8,19.6
					c10.6-0.3,24.1-29.3,21.5-46c-2.6-16.7-2.6-23.1,4.2-32.5c6.8-9.3,1.3-20.6,12.9-34.4c11.5-13.8,18.9-16.4,29.9-22.5
					C703.4,1547.5,715.8,1557.4,715.8,1557.4z"/>
			</g>
			<g>
				<path class="st7" d="M718.7,1586.6c-0.1-15.9-2.6-36.9-14.5-48.5c-4.2-4-9.7-5.7-15.2-7c-16-3.5-36.5-3-51.1,5.1
					c-12.7,6.9-8,19.7-10.8,31.2c-1.5,5.9-4.7,11.2-8.3,16c-5.3,7-12.5,13-13.8,22.1c-1.5,8.9,3.1,17.2,7.3,24.8
					c1.4,2.6,2.8,5.3,3.5,8.2c0.7,2.7-0.4,6.2-0.8,8.9c-2.3,11.6-2.2,24.1,3.9,34.5c-6.3-10.4-6.5-23-4.4-34.6c0,0,0.7-4.4,0.7-4.4
					c1-4.5-1.6-8.5-3.6-12.3c-4.4-7.6-9.2-16.1-7.8-25.3c0.9-6,4.2-11.4,8.2-15.9c1.9-2.2,3.8-4.5,5.6-6.9c3.5-4.7,6.5-9.9,7.8-15.5
					c1.4-5.6,0.6-11.6,1.5-17.6c0.9-6.9,3.8-11.5,9.8-15c15-8.6,36.2-9.5,52.9-6.1c6,1.3,12.2,3.2,16.7,7.5
					c12.9,12.1,16,34,16.3,50.9C722.7,1586.7,718.7,1586.6,718.7,1586.6L718.7,1586.6z"/>
			</g>
		</g>
		<g>
			<g>
				<path class="st8" d="M2411.1,625.8h-210.6c-15.9,0-28.7-12.9-28.7-28.7V406.6c0-15.9,12.9-28.7,28.7-28.7h210.6
					c15.9,0,28.7,12.9,28.7,28.7V597C2439.8,612.9,2427,625.8,2411.1,625.8z"/>
			</g>
			<g>
				<path class="st0" d="M2405.1,497.5h-198.5c-6.4,0-11.6-5.2-11.6-11.6v-57.7c0-6.4,5.2-11.6,11.6-11.6h198.5
					c6.4,0,11.6,5.2,11.6,11.6v57.7C2416.7,492.2,2411.5,497.5,2405.1,497.5z"/>
				<path class="st7" d="M2405.1,499.5h-198.5c-7.5,0-13.6-6.1-13.6-13.6v-57.7c0-7.5,6.1-13.6,13.6-13.6h198.5
					c7.5,0,13.6,6.1,13.6,13.6v57.7C2418.7,493.3,2412.6,499.5,2405.1,499.5z M2206.5,418.5c-5.3,0-9.6,4.3-9.6,9.6v57.7
					c0,5.3,4.3,9.6,9.6,9.6h198.5c5.3,0,9.6-4.3,9.6-9.6v-57.7c0-5.3-4.3-9.6-9.6-9.6H2206.5z"/>
			</g>
			<g>
				<rect x="2194.9" y="524.5" class="st0" width="24.1" height="24.1"/>
			</g>
			<g>
				<rect x="2260.8" y="524.5" class="st0" width="24.1" height="24.1"/>
			</g>
			<g>
				<rect x="2326.7" y="524.5" class="st0" width="24.1" height="24.1"/>
			</g>
			<g>
				<rect x="2392.6" y="524.5" class="st0" width="24.1" height="24.1"/>
			</g>
			<g>
				<rect x="2194.9" y="569.8" class="st0" width="24.1" height="24.1"/>
			</g>
			<g>
				<rect x="2260.8" y="569.8" class="st0" width="24.1" height="24.1"/>
			</g>
			<g>
				<rect x="2326.7" y="569.8" class="st0" width="24.1" height="24.1"/>
			</g>
			<g>
				<rect x="2392.6" y="569.8" class="st0" width="24.1" height="24.1"/>
			</g>
			<g>
				<g>
					<path class="st3" d="M2474.6,579.4h-132.4c-12.6,0-22.8,10.2-22.8,22.8V660c0,1.9,0.2,3.7,0.7,5.5l-14.2,25.7l28.2-9.8
						c2.5,1,5.2,1.5,8.1,1.5h132.4c12.6,0,22.8-10.2,22.8-22.8v-57.9C2497.4,589.6,2487.2,579.4,2474.6,579.4z"/>
				</g>
				<g>
					<polygon class="st0" points="2396.2,670.5 2357.4,636.1 2367.4,624.8 2395.5,649.8 2451.5,592.6 2462.3,603.1 					"/>
				</g>
			</g>
		</g>
		<g>
			<g>
				<path class="st8" d="M2057.4,1783h-966.9c-33.4,0-60.4-27.1-60.4-60.4V418.8c0-33.4,27.1-60.4,60.4-60.4h966.9
					c33.4,0,60.4,27.1,60.4,60.4v1303.7C2117.8,1755.9,2090.7,1783,2057.4,1783z"/>
			</g>
			<g>
				<path class="st0" d="M2004.3,1636.4h-860.8c-33.4,0-60.4-27.1-60.4-60.4V471.6c0-33.4,27.1-60.4,60.4-60.4h860.8
					c33.4,0,60.4,27.1,60.4,60.4V1576C2064.8,1609.4,2037.7,1636.4,2004.3,1636.4z"/>
				<path class="st7" d="M2004.3,1638.4h-860.8c-34.4,0-62.4-28-62.4-62.4V471.6c0-34.4,28-62.4,62.4-62.4h860.8
					c34.4,0,62.4,28,62.4,62.4V1576C2066.8,1610.4,2038.8,1638.4,2004.3,1638.4z M1143.5,413.1c-32.2,0-58.4,26.2-58.4,58.4V1576
					c0,32.2,26.2,58.4,58.4,58.4h860.8c32.2,0,58.4-26.2,58.4-58.4V471.6c0-32.2-26.2-58.4-58.4-58.4H1143.5z"/>
			</g>
			<g>
				<circle class="st0" cx="1573.9" cy="1711.1" r="51.4"/>
			</g>
			<g>
				<path class="st8" d="M1260.4,632.9h-88.8c-19.2,0-34.7-15.5-34.7-34.7v-54.1c0-19.2,15.5-34.7,34.7-34.7h88.8
					c19.2,0,34.7,15.5,34.7,34.7v54.1C1295.1,617.4,1279.6,632.9,1260.4,632.9z"/>
			</g>
			<g>
				<path class="st2" d="M1941.4,551H1383c-3.4,0-6.2-2.8-6.2-6.2v-29c0-3.4,2.8-6.2,6.2-6.2h558.4c3.4,0,6.2,2.8,6.2,6.2v29
					C1947.6,548.2,1944.9,551,1941.4,551z"/>
			</g>
			<g>
				<path class="st9" d="M1815.1,632.9h-432c-3.4,0-6.2-2.8-6.2-6.2v-29c0-3.4,2.8-6.2,6.2-6.2h432c3.4,0,6.2,2.8,6.2,6.2v29
					C1821.3,630.1,1818.5,632.9,1815.1,632.9z"/>
			</g>
			<g>
				<path class="st10" d="M1218.4,594.6c-11.1,0-22.2-4.4-30.5-13l-19.7-20.6l10.8-10.4l19.7,20.6c10,10.5,26.4,11.3,37.4,1.8
					l77-66.4l9.8,11.4l-77,66.4C1238,591.2,1228.1,594.6,1218.4,594.6z"/>
			</g>
			<g>
				<path class="st8" d="M1260.4,860h-88.8c-19.2,0-34.7-15.5-34.7-34.7v-54.1c0-19.2,15.5-34.7,34.7-34.7h88.8
					c19.2,0,34.7,15.5,34.7,34.7v54.1C1295.1,844.5,1279.6,860,1260.4,860z"/>
			</g>
			<g>
				<path class="st3" d="M1627.2,778H1381c-2.3,0-4.1-1.9-4.1-4.1v-33.2c0-2.3,1.9-4.1,4.1-4.1h246.2c2.3,0,4.1,1.9,4.1,4.1v33.2
					C1631.3,776.2,1629.5,778,1627.2,778z"/>
			</g>
			<g>
				<path class="st9" d="M1815.1,860h-432c-3.4,0-6.2-2.8-6.2-6.2v-29c0-3.4,2.8-6.2,6.2-6.2h432c3.4,0,6.2,2.8,6.2,6.2v29
					C1821.3,857.2,1818.5,860,1815.1,860z"/>
			</g>
			<g>
				<path class="st10" d="M1218.4,821.6c-11.1,0-22.2-4.4-30.5-13l-19.7-20.6l10.8-10.4l19.7,20.6c10,10.5,26.4,11.3,37.4,1.8
					l77-66.4l9.8,11.4l-77,66.4C1238,818.3,1228.1,821.6,1218.4,821.6z"/>
			</g>
			<g>
				<path class="st8" d="M1260.4,1087.1h-88.8c-19.2,0-34.7-15.5-34.7-34.7v-54.1c0-19.2,15.5-34.7,34.7-34.7h88.8
					c19.2,0,34.7,15.5,34.7,34.7v54.1C1295.1,1071.6,1279.6,1087.1,1260.4,1087.1z"/>
			</g>
			<g>
				<path class="st1" d="M1841.7,1005.1h-459.2c-3.1,0-5.6-2.5-5.6-5.6v-30.2c0-3.1,2.5-5.6,5.6-5.6h459.2c3.1,0,5.6,2.5,5.6,5.6
					v30.2C1847.3,1002.6,1844.8,1005.1,1841.7,1005.1z"/>
			</g>
			<g>
				<path class="st9" d="M1815.1,1087.1h-432c-3.4,0-6.2-2.8-6.2-6.2v-29c0-3.4,2.8-6.2,6.2-6.2h432c3.4,0,6.2,2.8,6.2,6.2v29
					C1821.3,1084.3,1818.5,1087.1,1815.1,1087.1z"/>
			</g>
			<g>
				<path class="st10" d="M1218.4,1048.7c-11.1,0-22.2-4.4-30.5-13l-19.7-20.6l10.8-10.4l19.7,20.6c10,10.5,26.4,11.3,37.4,1.8
					l77-66.4l9.8,11.4l-77,66.4C1238,1045.3,1228.1,1048.7,1218.4,1048.7z"/>
			</g>
			<g>
				<path class="st0" d="M1260.4,1314.2h-88.8c-19.2,0-34.7-15.5-34.7-34.7v-54.1c0-19.2,15.5-34.7,34.7-34.7h88.8
					c19.2,0,34.7,15.5,34.7,34.7v54.1C1295.1,1298.7,1279.6,1314.2,1260.4,1314.2z"/>
				<path class="st7" d="M1260.4,1316.2h-88.8c-20.2,0-36.7-16.5-36.7-36.7v-54.1c0-20.2,16.5-36.7,36.7-36.7h88.8
					c20.2,0,36.7,16.5,36.7,36.7v54.1C1297.1,1299.7,1280.7,1316.2,1260.4,1316.2z M1171.7,1192.8c-18,0-32.7,14.7-32.7,32.7v54.1
					c0,18,14.7,32.7,32.7,32.7h88.8c18,0,32.7-14.7,32.7-32.7v-54.1c0-18-14.7-32.7-32.7-32.7H1171.7z"/>
			</g>
			<g>
				<path class="st4" d="M1519.4,1232.2H1380c-1.7,0-3.1-1.4-3.1-3.1v-35.2c0-1.7,1.4-3.1,3.1-3.1h139.4c1.7,0,3.1,1.4,3.1,3.1v35.2
					C1522.5,1230.8,1521.1,1232.2,1519.4,1232.2z"/>
			</g>
			<g>
				<path class="st9" d="M1815.1,1314.2h-432c-3.4,0-6.2-2.8-6.2-6.2v-29c0-3.4,2.8-6.2,6.2-6.2h432c3.4,0,6.2,2.8,6.2,6.2v29
					C1821.3,1311.4,1818.5,1314.2,1815.1,1314.2z"/>
			</g>
			<g>
				<path class="st0" d="M1260.4,1541.3h-88.8c-19.2,0-34.7-15.5-34.7-34.7v-54.1c0-19.2,15.5-34.7,34.7-34.7h88.8
					c19.2,0,34.7,15.5,34.7,34.7v54.1C1295.1,1525.7,1279.6,1541.3,1260.4,1541.3z"/>
				<path class="st7" d="M1260.4,1543.3h-88.8c-20.2,0-36.7-16.5-36.7-36.7v-54.1c0-20.2,16.5-36.7,36.7-36.7h88.8
					c20.2,0,36.7,16.5,36.7,36.7v54.1C1297.1,1526.8,1280.7,1543.3,1260.4,1543.3z M1171.7,1419.8c-18,0-32.7,14.7-32.7,32.7v54.1
					c0,18,14.7,32.7,32.7,32.7h88.8c18,0,32.7-14.7,32.7-32.7v-54.1c0-18-14.7-32.7-32.7-32.7H1171.7z"/>
			</g>
			<g>
				<path class="st3" d="M1746,1459.3h-364.2c-2.8,0-5-2.3-5-5v-31.4c0-2.8,2.3-5,5-5H1746c2.8,0,5,2.3,5,5v31.4
					C1751,1457.1,1748.8,1459.3,1746,1459.3z"/>
			</g>
			<g>
				<path class="st9" d="M1815.1,1541.3h-432c-3.4,0-6.2-2.8-6.2-6.2v-29c0-3.4,2.8-6.2,6.2-6.2h432c3.4,0,6.2,2.8,6.2,6.2v29
					C1821.3,1538.5,1818.5,1541.3,1815.1,1541.3z"/>
			</g>
		</g>
		<g>
			<g>
				<path class="st2" d="M2374.8,1548.5c0,0-5.1-24.4,21.2-32.8c26.4-8.4,34.7-9.6,43.1-21.9c8.4-12.2,19.3-30.2,39.9-30.9
					c20.6-0.6,17.4,7.7,41.1,0c0,0,17.4,21.2-6.4,42.7c-23.8,21.6-17.4,1.6-34.7,38.3c-17.4,36.6-34.7,27-39.9,26.4
					c-5.1-0.6-31.5-10.3-41.8-3.2c-10.3,7.1-22.3,28.3-36.5,16.7C2346.5,1572.3,2374.8,1548.5,2374.8,1548.5z"/>
			</g>
			<g>
				<path class="st2" d="M2195.7,1544c0,0,6.1,7.7,20.2,0c14.1-7.7,36-8.7,44,0c8,8.7,10.3,9.6,26.7,11.2s33.5,12.3,42.4,29.9
					c9,17.6,10.6,9.3,14.8,14.1c4.2,4.8,5.5,22.6,5.5,22.6s-10.3-8.4-26.1-12c-15.8-3.5-25.7,4.8-39.5,0.6
					c-13.8-4.2-16.7-14.1-31.5-13.2c-14.8,1-28,8.4-39.9-4.2c-11.9-12.5-9.3-13.8-19-19C2183.8,1569.1,2184.2,1544,2195.7,1544z"/>
			</g>
			<g>
				<path class="st6" d="M2338.1,1560.3c0,0-10.3-23.1-15-28.7c-4.7-5.6-3-21-3-33.4s-12-25.3-6.4-41.1
					c5.6-15.9,17.6-31.7,15.4-58.7s0.4-37.7,9-46.7c8.6-9,9.9-19.3,8.1-29.1c-1.7-9.9,0.9-38.1,14.1-42.4
					c13.3-4.3,23.1-0.4,26.1,16.3c3,16.7,0,26.6,16.7,48c16.7,21.4,1.7,47.6,0,54.4c-1.7,6.9-4.3,15.9,1.3,29.1
					c5.6,13.3-2.6,36-18.4,46.3c-15.9,10.3-20.4,19.7-20.3,25.3s9.1,19.7-4.2,34.7s-17.8,32.5-17.8,32.5L2338.1,1560.3z"/>
			</g>
			<g>
				<path class="st7" d="M2357.4,1651.7c-2.7-24.5-5.1-72.9,13.9-91c5.5-4.8,11-9.7,18.1-12.1c4.7-1.4,9.4-1.6,14.1-3
					c7.9-2.3,15.5-6.1,22.5-10.3c0,0,2.9-2,2.9-2c7.9-5.4,14.2-12.6,20.4-19.8c9.5-11.5,20-20.5,34.8-24
					c-14.7,3.8-25,12.9-34.2,24.5c-6.1,7.3-12.4,14.8-20.3,20.3c0,0-2.9,2.1-2.9,2.1c-7.2,4.5-14.7,8.4-22.8,10.9
					c-4.5,1.4-9.5,1.8-13.9,3.2c-6.5,2.3-12,7.3-17.1,12c-13.5,13.4-14.1,42.2-13.8,60.3c0.3,9.5,1,19,2.2,28.3L2357.4,1651.7
					L2357.4,1651.7z"/>
			</g>
			<g>
				<path class="st7" d="M2355.3,1666.2c-1.1-18.7-3.6-41.2-13.8-57.3c-2.2-3.3-5-5.9-8.2-8.3c-6.5-5-12.2-10.8-18.1-16.2
					c-5.9-5.4-12.4-10.1-20.2-12.1c-3.8-1-7.9-1.3-11.9-1.9c-6-0.7-11.8-2.9-17.6-4.6c-6-1.6-11.6,1.7-16.9,4.2
					c-8.4,4.4-13.4,7-23.1,4.3c3.9,0.9,8,1.5,11.9,0.4c7.8-2.3,14.1-8,22.1-9.8c4.1-0.9,8.2,0.7,12,1.8c3.8,1.2,7.7,2,11.7,2.5
					c3.9,0.5,8.2,0.7,12.1,1.7c4,1,7.8,2.6,11.3,4.7c10.4,6.4,18.4,16,28.1,23c1.6,1.2,3.4,2.4,4.8,3.9
					c10.1,10.4,13.7,25.6,16.6,39.3c1.5,8,2.5,16.1,3,24.3L2355.3,1666.2L2355.3,1666.2z"/>
			</g>
			<g>
				<path class="st7" d="M2362.1,1382c3.2,15.6,5.6,31.9,2.6,47.6c-1.7,9.7-8.9,17.1-14.4,24.7c-3.3,4.4-5.9,9.5-6.4,15
					c-0.3,2.3-0.2,4.7,0,7.1c0.9,7.9,3,15.6,6,22.9c2.4,6,6,11.6,6.7,18.1c0.4,3.3,0,6.6-0.7,9.8c-1.5,6.3-3.6,12.4-5.5,18.5
					c-1.9,6.1-3.7,12.2-5,18.4c-1.2,6.1-1.9,12.4-1.2,18.7c4.7,31.5,11.5,62.8,17.5,94.1c0,0-3.9,0.8-3.9,0.8
					c-5.2-28.3-10.5-56.6-15-85c-0.6-3.9-1.2-8-1.5-12c-0.2-5.7,0.5-11.4,1.7-17c2.7-12.5,7.7-24.5,10.9-36.8
					c1.6-6.1,0.9-12.3-1.8-18.1c-4.7-10.2-8.7-20.9-9.7-32.2c-0.1-1.2-0.1-2.5-0.1-3.6c0.1-1.9,0.3-4.2,0.6-6.1
					c2.5-11.3,12.2-18.8,17.7-28.4C2368.8,1423.5,2365.3,1398.2,2362.1,1382L2362.1,1382z"/>
			</g>
			<g>
				<polygon class="st0" points="2413.8,1782.7 2309.5,1782.7 2290.4,1646.1 2432.9,1646.1 				"/>
				<path class="st7" d="M2415.5,1784.7h-107.7l-19.7-140.6h147.1L2415.5,1784.7z M2311.3,1780.7H2412l18.6-132.6h-137.9
					L2311.3,1780.7z"/>
			</g>
			<g>
				<rect x="2294.2" y="1671.7" class="st10" width="135" height="3"/>
			</g>
		</g>
		<g>
			<g>
				<path class="st3" d="M2339.5,1733.7c5.9,5.9,7.3,11.1,6.3,15.3c-2.2,9.9-17.1,15.1-17.1,15.1l-97.8,21
					c-2.7-2.8-4.9-6.4-6.6-10.4c-7.3-17.2-6.3-41.8-6.3-41.8s50.3-34.6,51.5-35.5c-0.6,0.7,3.9,9.4,4.2,10.1
					c3.3,6.5,7.8,12.8,14,16.9C2303.4,1734.8,2325,1719.1,2339.5,1733.7z"/>
			</g>
			<g>
				<path class="st11" d="M2345.8,1749c-2.2,9.9-17.1,15.1-17.1,15.1l-97.8,21c-2.7-2.8-4.9-6.4-6.6-10.4
					C2248.7,1769.7,2317.8,1755.9,2345.8,1749z"/>
			</g>
			<g>
				<path class="st10" d="M2223.2,874.2c0,0-10.9,1.6-12.5,4.5s14.1,14.2,15.1,10.6S2223.2,874.2,2223.2,874.2z"/>
			</g>
			<g>
				<path class="st3" d="M2162.2,1779c-2.3,8-6.1,11.7-10.3,13c-9.7,2.9-21.5-7.6-21.5-7.6l-65.8-75.4c1.1-3.8,3.3-7.4,5.9-10.8
					c11.5-14.8,33.5-25.7,33.5-25.7s54.6,27.2,56,27.9c-0.8-0.2-6.4,8-6.8,8.6c-4,6.1-7.4,13-8,20.4
					C2143.7,1748,2168,1759.3,2162.2,1779z"/>
			</g>
			<g>
				<path class="st11" d="M2151.9,1791.9c-9.7,2.9-21.5-7.6-21.5-7.6l-65.8-75.4c1.1-3.8,3.3-7.4,5.9-10.8
					C2086.6,1717.1,2132.3,1770.9,2151.9,1791.9z"/>
			</g>
			<g>
				<path class="st10" d="M2279.8,1168.8l75.1,242c3.1,9.8,1.5,20.5-4.2,29.1l-90.2,135.6l28.3,136.3l-82.3,30.9l-19.9-65.6
					l-31.5,39.9l-63.6-49l68.1-101.4l-79.1-315.8c-0.4-1.7-0.7-3.4-1-5.1c-1.7-12.4-6.8-61.6,14.2-84.1
					C2117.8,1135.7,2279.8,1168.8,2279.8,1168.8z"/>
			</g>
			<g>
				<path class="st10" d="M2112.6,781.3c0,0-1-23.8-5.1-32.8c-4.2-9-2.2-42.4,15.8-49.5c18-7.1,20.6-2.6,20.6-2.6
					s4.5-24.8,32.1-24.4c27.6,0.3,32.9,13.5,49.2,16.7c16.3,3.2,26.4,4.5,34.4,0.6c0,0,9,3.5,3.5,14.8c0,0,18,26-10.6,46.3
					c-28.6,20.2-87.8,45.3-111.2,41.5C2117.8,788,2112.6,781.3,2112.6,781.3z"/>
			</g>
			<g>
				<path class="st12" d="M2135.6,890.7c0,0,2.8-36.1-7.5-59.9c-10.3-23.8-19.9-18-23.8-29.9c-3.9-11.9-2.6-30.2,5.5-32.1
					c8-1.9,17.7,0.6,19,7.4c0,0,4.2-20.2,2.6-29.6c-1.6-9.3,19.6-20.2,30.5-8c10.9,12.2,29.6,28.6,52.7,27.3s37.9-15.4,37.9-15.4
					s-6.4,19.9-4.8,30.5c1.6,10.6,12.2,67.2-17,80.7c0,0-9.8,4.2-17.7,5.8c0,0,4.6,14.5,10.3,19.9
					C2229,892.8,2162.1,915.7,2135.6,890.7z"/>
			</g>
			<g>
				<path class="st4" d="M2130.3,894.1l-76,40.9c-7.7,4.1-13.4,11-16.2,19.2c-12.2,36.2-44.9,138.7-38.6,179.7
					c7.7,50.1,46.3,48.9,83.6,27.6l-0.5,14.3c-0.1,2.5,1.7,4.7,4.1,5.1c22.8,4.1,131.5,21.8,196.3-4c0,0,3.9-64.3,0-68.8
					c0,0,20.6,17.7,33.1,26c12.5,8.4,31.5,10.9,39.9,0c8.4-10.9,0-43,0-43l-42.1-153.7c-2.7-9.8-9.6-17.9-18.8-22.1l-61.6-28.1
					l-10.3-13.2c0,0,1.1,18-21.2,18.9c-22.3,0.9-58.7,1.5-66.4-4.1C2135.6,889,2133.4,892.4,2130.3,894.1z"/>
			</g>
			<g>
				<path class="st10" d="M2078.4,1071.7l-2.6-1.4c6.1-11.1-0.1-40.9-0.2-41.2l2.9-0.6C2078.8,1029.6,2085,1059.6,2078.4,1071.7z"/>
			</g>
			<g>
				<polygon class="st10" points="2179.2,974.2 2266.5,967 2277.2,978.1 2269.1,988.3 				"/>
			</g>
			<g>
				<polygon class="st0" points="2179.2,974.2 2277.2,978.1 2275.1,1123.4 2168.5,1126.8 				"/>
				<path class="st7" d="M2166.4,1128.9l10.9-156.7l101.9,4l-2.2,149.1L2166.4,1128.9z M2181,976.3l-10.4,148.4l102.4-3.3l2.1-141.4
					L2181,976.3z"/>
			</g>
			<g>
				<path class="st12" d="M2131.2,1044.1c0,0,6.3-13.7,12.7-23.6c6.4-9.9,4.3-23.4,14.8-28.1s18.6-6.2,18.4,0s-10.7,10.7-11.6,13.7
					c-0.9,3-0.2,11.1,3.4,10s14.4-10.9,18.4-16.9c4.1-6,16.5-3,8.6,10.5c0,0,9.6,1.9,4.5,13.9c0,0,10.5,10.1,2.8,18.2
					c-7.7,8.1-14.4,14.3-14.4,14.3s5.4,9.3-4.9,13.7c-10.3,4.4-16.1,9.1-25.9,9.7C2148.2,1080.3,2128.5,1064.9,2131.2,1044.1z"/>
			</g>
			<g>
				<path class="st10" d="M2167.4,1033.7l-1.5-2.6c7-4,25.7-15.6,28.7-22l2.7,1.3C2193.3,1018.9,2168.4,1033.1,2167.4,1033.7z"/>
			</g>
			<g>
				<path class="st10" d="M2175.4,1045.9l-1.2-2.8c0.2-0.1,20.5-8.7,24.9-20l2.8,1.1C2197,1036.7,2176.2,1045.6,2175.4,1045.9z"/>
			</g>
			<g>
				<path class="st10" d="M2175.2,1065l-0.9-2.9c0.1,0,9.5-3.1,13.6-7l2.1,2.2C2185.4,1061.8,2175.6,1064.9,2175.2,1065z"/>
			</g>
			<g>
				<path class="st10" d="M2174.5,919.2c-5.8,0-11.3-0.3-16.2-0.9c-28.2-3.1-35.9-19.2-36.2-19.9l2.7-1.3
					c0.1,0.2,7.5,15.3,33.8,18.2c25.8,2.8,70.2,0,73.3-28.1l3,0.3C2232.2,912.5,2200.6,919.2,2174.5,919.2z"/>
			</g>
			<g>
				<path class="st10" d="M2139,911.3l-2.9-0.9c1.7-5.4,6-18.2,8.9-19.7l1.4,2.7C2145.1,894.3,2141.5,903.4,2139,911.3z"/>
			</g>
			<g>
				<path class="st10" d="M2152,916.1c0-2-0.2-19.8,5.4-24.1l1.8,2.4c-3.3,2.6-4.4,14.7-4.2,21.7L2152,916.1z"/>
			</g>
			<g>
				<path class="st10" d="M2175,917.9l-3-0.5c1.1-7.4,2.2-20.2,0.2-23l2.5-1.7C2177.9,897.4,2175.5,914.5,2175,917.9z"/>
			</g>
			<g>
				<path class="st10" d="M2192.6,916.2l-3-0.2c0.4-6.8-0.3-18.6-3.9-21.2l1.7-2.4C2193.5,896.7,2192.7,914.2,2192.6,916.2z"/>
			</g>
			<g>
				<path class="st10" d="M2207.8,914.3l-2.7-1.3c1.6-3.2-1.9-13.6-4.4-19.4l2.7-1.2C2204.1,894.1,2210.5,908.8,2207.8,914.3z"/>
			</g>
			<g>
				<path class="st10" d="M2221,908.3l-2.9-0.7c1.1-4.6-4.3-13.1-6.5-16l2.4-1.8C2214.9,891,2222.7,901.6,2221,908.3z"/>
			</g>
			<g>
				<path class="st4" d="M2040.6,1103.7c0.4-1.7,65.6-60.4,89.1-68.6c0,0,16.3,44.1,28.3,45c0,0,7.7,12-11.1,29.1
					s-45.6,44-63.9,52.7L2040.6,1103.7z"/>
			</g>
			<g>
				<path class="st10" d="M2147.9,1110.4l-2-2.2c17.6-16,11.2-26.8,10.9-27.2l2.5-1.6C2159.6,1079.9,2167.5,1092.6,2147.9,1110.4z"
					/>
			</g>
			<g>
				<path class="st10" d="M2157.9,1081.7c-12.6-0.9-27.9-41.4-29.6-46l2.8-1c4.4,12,17.9,43.4,27,44L2157.9,1081.7z"/>
			</g>
			<g>
				<path class="st10" d="M2083.7,1163.4l-1.3-2.7c14.6-6.9,35.4-26.3,52-41.9c4.1-3.8,7.9-7.4,11.5-10.6l2,2.2
					c-3.6,3.2-7.4,6.8-11.4,10.6C2118.8,1137.5,2098.7,1156.2,2083.7,1163.4z"/>
			</g>
			<g>
				<path class="st10" d="M2041.9,1104.5c0,0,0.1-0.1,0.2-0.4l-2.9-0.7c0.5-1.9,22.4-21.1,36.4-32.7c17.5-14.4,41-32.6,53.7-37
					l1,2.8C2107.5,1044.4,2044.9,1100.3,2041.9,1104.5z"/>
			</g>
			<g>
				<path class="st10" d="M2196,870.9c-22.4,0-42.1-9-43.1-9.5l1.3-2.7c0.3,0.1,30.9,14.2,58.4,7.3l0.7,2.9
					C2207.5,870.3,2201.6,870.9,2196,870.9z"/>
			</g>
			<g>
				<path class="st13" d="M2208.5,707.9l-0.1-3c12.3-0.4,45.3-4.2,49.8-16.1l2.8,1.1C2254.9,706.1,2210.4,707.8,2208.5,707.9z"/>
			</g>
			<g>
				<path class="st13" d="M2228,733.7c-1.1,0-1.8-0.1-1.8-0.1l0.4-3l-0.2,1.5l0.2-1.5c0.9,0.1,22.5,2.6,35.1-27.1l2.8,1.2
					C2253.1,731.5,2234,733.7,2228,733.7z"/>
			</g>
			<g>
				<path class="st12" d="M2289.9,1070c0,0,0.4-12.8-12.6-20.5c-13.1-7.7-1.9-15.6,11.4-6.6c13.3,9,13.1,15.6,25.1,21.9
					s12.8,39.7,6.2,44.6c-6.5,4.9-16.9,12.9-39,7.3c-22.1-5.6-34.1-17.6-36.4-21.6c-2.4-4.1-4.5-10.9,3.2-10.3c0,0-9-14.5,1.9-14.6
					c0,0-8.6-15.8-1.3-17.7s7.9,9.2,17.1,14.6C2274.6,1072.2,2285.4,1075.2,2289.9,1070z"/>
			</g>
			<g>
				<g>
					<path class="st4" d="M2317.1,1134.2c0,0,33.9-19.9,16.9-55.9c0,0-4.7-11.8-21.6-15c0,0,9.4,20.1,3.9,31.3s-8.3,18.3-20.5,23.8
						L2317.1,1134.2z"/>
				</g>
				<g>
					<path class="st10" d="M2317.8,1135.5l-1.5-2.6c1.3-0.8,32.5-19.6,16.3-54c-0.2-0.5-4.2-9.9-17.8-13.5c2.4,6,7.3,20.6,2.7,29.8
						c-0.4,0.9-0.8,1.7-1.3,2.5c-4.8,9.7-8.2,16.6-20,22l-1.2-2.7c10.8-4.9,13.7-10.8,18.6-20.6c0.4-0.8,0.8-1.7,1.3-2.5
						c5.2-10.4-3.8-29.8-3.9-30l-1.2-2.7l2.9,0.5c17.5,3.3,22.6,15.4,22.8,15.9C2352.7,1114.5,2318.2,1135.3,2317.8,1135.5z"/>
				</g>
			</g>
			<g>
				<path class="st10" d="M2275.2,1088c-0.8-0.2-18.6-4.7-26.9-17.2l2.5-1.7c7.7,11.5,25,15.9,25.2,16L2275.2,1088z"/>
			</g>
			<g>
				<path class="st10" d="M2275.1,1102.9c-0.9-0.2-22.1-4.7-28.8-17.6l2.7-1.4c6,11.6,26.5,16,26.7,16L2275.1,1102.9z"/>
			</g>
			<g>
				
					<rect x="2171.6" y="1564.9" transform="matrix(0.9715 -0.2372 0.2372 0.9715 -322.6942 561.7736)" class="st14" width="3" height="113.8"/>
			</g>
			<g>
				<polygon class="st0" points="2236.1,1442.5 2254.7,1409.7 2205.5,1277.2 				"/>
			</g>
			<g>
				
					<rect x="2231.5" y="1274.7" transform="matrix(0.9834 -0.1816 0.1816 0.9834 -221.8418 429.2188)" class="st14" width="3" height="302.7"/>
			</g>
			<g>
				<path class="st10" d="M2228.8,898.3c-3.7-7.2-6.7-10.7-8.1-12.1c-17.9,18.9-82.6,4.9-85.4,4.2l0.6-2.9
					c0.7,0.2,68.3,14.9,83.4-4.4l0.8-1.1l1.1,0.7c0.2,0.1,4.4,2.9,10.2,14.1L2228.8,898.3z"/>
			</g>
			<g>
				<path class="st10" d="M2327.6,1122.8c-0.1-0.1-9.6-9.2-21.5-7l-0.5-3c13.4-2.4,23.7,7.4,24.1,7.9L2327.6,1122.8z"/>
			</g>
			<g>
				<path class="st10" d="M2328.9,1105.3c0-0.2-0.7-5.7-12.3-6.1l0.1-3c14.5,0.5,15.1,8.6,15.2,8.9L2328.9,1105.3l1.5-0.1
					L2328.9,1105.3z"/>
			</g>
			<g>
				<path class="st10" d="M2331.7,1087.4c-4.4-6.6-13.2-7.1-13.3-7.1l0.1-3c0.4,0,10.3,0.6,15.6,8.4L2331.7,1087.4z"/>
			</g>
			<g>
				<path class="st10" d="M2151.5,1105.5c-25.9-2.7-45.8-54.4-46.7-56.6l2.8-1.1c0.2,0.5,20.1,52.1,44.2,54.7L2151.5,1105.5z"/>
			</g>
			<g>
				<path class="st10" d="M2115.7,1066.5l-2.8-1.1c3.5-8.8,20.3-19.5,21-19.9l1.6,2.5C2135.3,1048.1,2118.8,1058.6,2115.7,1066.5z"
					/>
			</g>
			<g>
				<path class="st10" d="M2121.6,1079.8c-0.1,0-0.2,0-0.4,0l0.4-3c0,0,0.1,0,0.1,0c2.6,0,11.9-8.3,19.1-16.2l2.2,2
					C2139.3,1066.8,2126.9,1079.8,2121.6,1079.8z"/>
			</g>
			<g>
				<path class="st10" d="M2131.9,1092.7l-1.5-2.6c4.4-2.5,16.2-10.3,17.6-16.8l2.9,0.6C2149,1083,2132.6,1092.3,2131.9,1092.7z"/>
			</g>
		</g>
		<g>
			<g>
				<path class="st12" d="M1091.8,879.8l8.3-38.3c0.7-3.3,2.8-6.2,5.7-8c5.2-3.2,13.3-8.2,16.5-10.5c4.7-3.4,8.8,5.8,1.9,12
					s-10.7,18.5-5.4,16c5.4-2.5,24.2-23.1,27.4-27.4c3.2-4.3,16.7-25.8,20.1-25.3c3.4,0.5,9.2,3.1,0,21.3c0,0,7.5,5.9-0.2,19.5
					c0,0,10.9,6.9,0.2,23.8c-10.7,16.9-11.1,20.8-16.7,26.8s-23.6,19.1-28.9,20.8S1091.8,879.8,1091.8,879.8z"/>
			</g>
			<g>
				<path class="st10" d="M1132.7,862.6l-2.2-2c8.9-10.1,32.5-37.2,34.6-41.6l2.7,1.3C1165.1,825.9,1134,861.1,1132.7,862.6z"/>
			</g>
			<g>
				<path class="st10" d="M1138,875.1l-2.1-2.2c7.5-7.2,27.2-27.4,28.7-34.2l2.9,0.6C1165.6,848.3,1140.9,872.4,1138,875.1z"/>
			</g>
			<g>
				<g>
					<path class="st15" d="M817.5,1745.3c-0.8,9.5-4.2,14.5-8.5,16.8c-10.2,5.5-25.8-3.5-25.8-3.5l-90.9-69c0.4-4.5,1.9-9,4.1-13.5
						c9.5-19.1,31.4-36.5,31.4-36.5s67.3,17.8,69,18.2c-1,0-5.3,10.4-5.6,11.2c-3.1,7.7-5.3,16.3-4.2,24.6
						C789.7,1715,819.4,1721.9,817.5,1745.3z"/>
				</g>
				<g>
					<path class="st11" d="M809,1762.1c-10.2,5.5-25.8-3.5-25.8-3.5l-90.9-69c0.4-4.5,1.9-9,4.1-13.5
						C718.8,1693.6,782.2,1743.1,809,1762.1z"/>
				</g>
				<g>
					<path class="st16" d="M927.5,713c17,1.3,22.2-3.5,22.2-3.5s6.9,5.8,13.7,0.5c0,0,14.1,4.8,15.3-8.2c0,0,16.2-6.6,4.5-16.9
						c0,0,10.4-15.3-2.9-20.7c0,0-2.9-15.1-25.9-11.9c0,0-2.7-12.7-15.9-10.9c0,0-6.9-12.1-23.3-1.9c0,0-12.9-7.1-21.1,0
						c0,0-15.6-3.9-19.8,8.8c0,0-30.3-5.1-43,15.8c0,0-11.9,4.5-15.6,12.8c0,0-24.4,37.8-6.1,63.5L927.5,713z"/>
				</g>
				<g>
					<path class="st12" d="M831.1,859.2c0,0,11.6-6.5,10.9-33.5c-0.6-27-4.8-42.4-7.7-46.9c-2.9-4.5-9.5-4.5-17.6-19.3
						c-8.1-14.8-11.7-23.5-4.6-33.4s20.8-6.9,24.8,0c0,0,26.1-28.5,36.7-15.3c10.6,13.2,45,2,54,2.1c9,0.1,18.6-1,22.2-3.5
						c-1.3,7.4-2.1,15.1-1.8,22.6c0.2,6,2.1,11,3.6,16.7c3.9,14.3,6.1,30.2,2.7,45c-4,17.2-16.2,26.7-31.5,33.9c0,0-2.6,28.3,9.3,44
						c11.9,15.8-82.9,19.3-91.9,11.2S831.1,859.2,831.1,859.2z"/>
				</g>
				<g>
					<path class="st15" d="M1077.9,1712.6c7.4,6,9.6,11.7,9,16.6c-1.3,11.5-17.5,19.2-17.5,19.2L961,1784.1c-3.4-2.9-6.3-6.7-8.7-11
						c-10.4-18.6-12.2-46.6-12.2-46.6s52.8-45.3,54.1-46.5c-0.6,0.8,5.6,10.2,6,10.9c4.6,6.9,10.4,13.6,17.9,17.5
						C1037.1,1718.3,1059.7,1697.8,1077.9,1712.6z"/>
				</g>
				<g>
					<path class="st11" d="M1086.9,1729.2c-1.3,11.5-17.5,19.2-17.5,19.2L961,1784.1c-3.4-2.9-6.3-6.7-8.7-11
						C979.3,1764.6,1056.1,1740.4,1086.9,1729.2z"/>
				</g>
				<g>
					<path class="st3" d="M753.4,1234l59.4,171.8l-100.6,231.4l81.3,44.2l69.4-132l63,187.6l96.4-37.6l-82.3-288l37-69.3
						c2.7-5.1,4.2-10.9,4.1-16.7l-0.8-165.8c0-4.5-1.5-9-4.2-12.6l-4.4-5.9l-215.6,13.3l-5.4,58.5C750.1,1220,751,1227.2,753.4,1234
						z"/>
				</g>
				<g>
					
						<rect x="918.6" y="1250" transform="matrix(0.97 -0.2432 0.2432 0.97 -296.3362 263.8044)" class="st7" width="3" height="163.9"/>
				</g>
				<g>
					
						<rect x="836.4" y="1401.6" transform="matrix(0.944 -0.3298 0.3298 0.944 -440.4464 359.0015)" class="st7" width="3" height="152"/>
				</g>
				<g>
					
						<rect x="897.2" y="1226.6" transform="matrix(0.9569 -0.2905 0.2905 0.9569 -390.6988 324.853)" class="st7" width="3" height="503.3"/>
				</g>
				<g>
					
						<rect x="700" y="1571.4" transform="matrix(0.4492 -0.8934 0.8934 0.4492 -966.1875 1578.649)" class="st7" width="194.3" height="3"/>
				</g>
				<g>
					<path class="st1" d="M837.9,851.5l-78.5,28.7c-3.7,1.4-6.8,4-8.7,7.5l-78.5,144.8c-3.3,6.1-3.1,13.5,0.6,19.3l63.5,102.3
						c0,0,28.3-0.6,60.1-38.6c0,0-23,27.9,34,44.6c57,16.7,114.4,12,136.7-5.1c14.5-11.1,17.6-30.4,17.3-47.6
						c-0.3-21.2-2.3-42.7-4.1-63.8c0,0,1.7,20.6,20.6,21.4c18.9,0.9,32.1-11.6,50.1-33c18-21.4,66.9-103.7,66.9-103.7
						s-40-17.5-49.3-43.5l-38.6,54.3c0,0-15.1-28.4-19.7-49.3c-1-4.7-4.3-8.5-8.8-10.3l-70.5-28.2c0,0-8.7,26.4-41.5,25.7
						S837.9,851.5,837.9,851.5z"/>
				</g>
				<g>
					<path class="st10" d="M793.9,1111.9c-3-11.5-38.6-68.2-39-68.7l-0.9-1.5l1.6-0.7c21.3-9.1,44.9-58.3,46.1-60.9
						c11.7-40.2-25.5-70-25.9-70.3l1.9-2.4c0.4,0.3,39.2,31.3,26.9,73.6l-0.1,0.2c-1,2.1-23.8,50.4-46.1,61.7
						c5.7,9.2,35.5,57.1,38.4,68.1L793.9,1111.9z"/>
				</g>
				<g>
					<path class="st10" d="M981.8,1044.1l-2.9-0.8c4.2-15.6-10-103.9-10.1-104.8l3-0.5C972.3,941.7,986.1,1027.9,981.8,1044.1z"/>
				</g>
				<g>
					<path class="st10" d="M1006.2,973.9l-2.4-1.8c0.2-0.3,20.2-26.9,25-33.7l2.4,1.7C1026.4,947,1006.4,973.6,1006.2,973.9z"/>
				</g>
				<g>
					<path class="st10" d="M857.6,917.5c-0.3,0-0.5,0-0.8-0.1c-2.9-0.4-4.9-3.2-6.3-8.4c-5-19.3-34.6-48.5-34.9-48.8l2.1-2.1
						c1.2,1.2,30.5,30.1,35.7,50.2c1,3.7,2.3,5.9,3.8,6.2c4.2,0.6,11.2-10.5,14.6-15.9c0.9-1.5,1.7-2.7,2.4-3.6
						c1.2-1.7,2.6-3.9,4-6.2c5.1-8.1,8.3-13,11.3-13.1c0,0,0,0,0,0c4.3,0,31.3,22.2,35.4,27c4.8-1.3,24.7-34.7,25.5-43l3,0.3
						c-0.8,8.1-20.4,43.5-27.8,45.6c-1.2,0.3-2.2,0-2.9-0.8c-4.1-5.1-30.2-25.6-33.3-26.1c-1.6,0.2-6.2,7.7-8.7,11.7
						c-1.5,2.3-2.8,4.5-4.1,6.3c-0.6,0.8-1.4,2.1-2.3,3.5C868.6,909.4,863,917.5,857.6,917.5z"/>
				</g>
				<g>
					<path class="st11" d="M772.1,1221.8l-0.9-2.8c0.3-0.1,29.8-10.2,53.3-41.9l2.4,1.8C802.7,1211.3,772.4,1221.7,772.1,1221.8z"/>
				</g>
				<g>
					<path class="st12" d="M769.2,1181.2c0,0,5.1,21.9,16.2,32.1c0,0,31.3-17.7,40.3-36.3c0,0,18,10.1,23.1,7.9
						c5.1-2.1,4.5-4.3,0-10.3s-15.4-15.2-19.3-19.9c-3.9-4.7-13.8-8.2-18.7-9.3C805.9,1144.4,767.8,1168.6,769.2,1181.2z"/>
				</g>
				<g>
					<path class="st10" d="M900.1,836.2c-16.3,0-32-7-33-7.4l1.2-2.7c0.3,0.2,35.1,15.5,53.4,0.5l1.9,2.3
						C917,834.3,908.5,836.2,900.1,836.2z"/>
				</g>
				<g>
					<path class="st10" d="M838.2,759.4l-3.1-5.1c-0.3-0.2-1.8-1-6.9,0.5l-0.8-2.9c3.1-0.9,5.3-1.1,6.9-1c-1.1-2.9-4.1-7.5-12.3-9.3
						l0.6-2.9c14.5,3.1,15.3,14.4,15.3,14.5L838.2,759.4z"/>
				</g>
				<g>
					<path class="st1" d="M736.3,1154.3c0,0,13.8,32.5,26.7,29.6c12.9-2.9,46-34.1,49.5-40.8c0,0-1.3-20.9-16.1-27.3
						C781.6,1109.3,736.3,1154.3,736.3,1154.3z"/>
				</g>
				<g>
					<path class="st10" d="M737.4,1155.3l-2.2-2c1.7-1.8,40.7-43.4,61.5-39l0.2,0l0.2,0.1c0.2,0.1,18.4,11,15.1,31.3l-3-0.5
						c2.8-17.4-11.5-26.9-13.5-28.1C776.5,1113.5,737.8,1154.9,737.4,1155.3z"/>
				</g>
			</g>
			<g>
				<path class="st1" d="M1068.6,884.9c0,0,8.7-19.1,14.4-19.1c5.7,0,47.7,41.1,46,48c-1.7,6.9-4.3,12.4-11.1,14.6
					C1111.1,930.6,1064.3,923.7,1068.6,884.9z"/>
			</g>
			<g>
				<path class="st10" d="M1117.5,929.9c-38-10.8-50.2-44.1-50.3-44.4l2.8-1c0.1,0.3,11.8,32.2,48.3,42.6L1117.5,929.9z"/>
			</g>
		</g>
		<g>
			<g>
				<path class="st2" d="M555,596.6h182.4c17.4,0,31.4,11.4,31.4,25.5v64.6c0,2.1-0.3,4.2-0.9,6.1l19.5,28.7l-38.9-11
					c-3.5,1.1-7.2,1.7-11.1,1.7H555c-17.4,0-31.4-11.4-31.4-25.5v-64.6C523.6,608,537.7,596.6,555,596.6z"/>
			</g>
			<g>
				<rect x="567.6" y="629.5" class="st0" width="151.7" height="13.5"/>
			</g>
			<g>
				<rect x="567.6" y="665.5" class="st0" width="103.5" height="13.1"/>
			</g>
		</g>
		<g>
			<rect x="451" y="1783.3" class="st10" width="2098" height="6"/>
		</g>
		<g>
			<g>
				<polygon class="st10" points="1333,456.5 1328,453.2 1399,346.1 1462.3,429.8 1544.3,286 1610,406.1 1731.6,230.2 1736.6,233.6 
					1609.4,417.6 1544.2,298.3 1463,440.7 1399.4,356.5 				"/>
			</g>
			<g>
				<circle class="st1" cx="1459.4" cy="435.1" r="19.7"/>
			</g>
			<g>
				<circle class="st3" cx="1398.9" cy="353.8" r="19.7"/>
			</g>
			<g>
				<circle class="st4" cx="1547.6" cy="295.1" r="19.7"/>
			</g>
			<g>
				<circle class="st2" cx="1607.2" cy="411.6" r="19.7"/>
			</g>
		</g>
	</g>
	<g id="Layer_1">
	</g>
</g>
</svg>
