<svg xmlns="http://www.w3.org/2000/svg" viewBox="0 0 4680 3120"><defs><style>.cls-1,.cls-11{fill:#fff;}.cls-1{opacity:0;}.cls-2{fill:#d9dfe8;}.cls-3{fill:#b7c0ce;}.cls-4{fill:#ffc82b;}.cls-5{fill:#593b1f;}.cls-6{fill:#ffebbd;}.cls-7{fill:#efd49e;}.cls-8{fill:#cead72;}.cls-9{fill:#105243;}.cls-10{fill:#f29651;}.cls-12{fill:#063529;}.cls-13{fill:#e5a10a;}.cls-14{fill:#fff6e3;}.cls-15{fill:#fe9;}.cls-16{fill:#979faa;}.cls-17{fill:#fab243;}.cls-18{fill:#231409;}.cls-19{fill:#f5ae97;}.cls-20{fill:#ed856e;}.cls-21{fill:#d37535;}.cls-22{fill:#af5d25;}.cls-23{fill:#3d2412;}.cls-24{fill:#49181b;}.cls-25{fill:#351314;}.cls-26{fill:#5a1f20;}.cls-27{fill:#072c35;}.cls-28{fill:#ff735d;}.cls-29{fill:#1a2e35;}.cls-30{opacity:0.3;}</style></defs><title>05</title><g id="_05" data-name="05"><rect class="cls-1" width="4680" height="3120"/><path class="cls-2" d="M3796,2575.4c0,25.19-72.31,48.78-198.48,69-81,13-184.18,24.66-304.68,34.47h0c-255.34,20.79-588.45,33.38-952.8,33.38-354.48,0-679.38-11.92-931.88-31.7-116.33-9.13-217.29-19.93-298.7-32C966.68,2627.44,884,2602.32,884,2575.4c0-75.6,651.86-136.89,1456-136.89S3796,2499.8,3796,2575.4Z"/><path class="cls-3" d="M3597.5,2644.45c-81,13-184.18,24.66-304.68,34.47h0c-43.15-4.07-88.67-9-135.66-14.87-147.27-18.32-278.45-41.45-366.45-63.14-92.24,19-259.57,31.73-450.69,31.73-176.91,0-333.43-10.9-428.88-27.6-87.45,20.48-211.27,41.85-349.23,59-53.62,6.67-105.32,12.19-153.77,16.55-116.33-9.13-217.29-19.93-298.7-32,74.45-26.81,242.81-60,440-84.5,123.49-15.34,236.83-24.66,323.66-27.56,87.88-21,264-35.32,466.88-35.32,199.87,0,373.74,13.9,462.89,34.38,90.52.78,221.6,10.46,366.68,28.5C3356.74,2587.39,3517.9,2618.43,3597.5,2644.45Z"/><path class="cls-4" d="M1167.12,2342c-27,0-52.54-6.9-74-19.95-36.81-22.39-58.79-61.77-58.79-105.33V574.44c0-72.35,58-126.91,134.81-126.91a167.15,167.15,0,0,1,27.88,2.38l730.34,124.25c31.39,5.33,60.48,22.7,81.9,48.88,21.19,25.87,32.86,57.93,32.86,90.25V2061.46c0,66.74-50.1,128.43-114.05,140.45l-730.35,137.2A167.1,167.1,0,0,1,1167.12,2342Zm2.05-1880.61c-69,0-121,48.6-121,113.05V2216.72c0,38.68,19.49,73.63,52.14,93.48,19.26,11.73,42.35,17.93,66.76,17.93a152.53,152.53,0,0,0,28.07-2.65l730.35-137.2c57.61-10.83,102.74-66.53,102.74-126.82V713.29c0-29.13-10.56-58.06-29.72-81.46-19.3-23.6-45.4-39.22-73.49-44L1194.72,463.59A152.13,152.13,0,0,0,1169.17,461.39Z"/><path class="cls-5" d="M1190.07,2298.21c-27.54,5.18-54.32,1.07-75.29-11.7-24.6-15-38.82-40.44-38.82-69.79V574.44c0-56.75,51.82-94.11,114.11-83.51l730.35,124.24c21.54,3.67,41.64,15.84,56.67,34.22s23.45,41.16,23.45,63.9V2061.46c0,46.6-35.57,91.19-80.12,99.55Z"/><path class="cls-6" d="M1978.71,710V2065.13c0,33.95-25.9,66.2-58.29,72.11l-730.35,133.18c-20.69,3.77-39.72.23-54.26-8.73-17-10.49-27.83-28.35-27.83-50.35V579.25c0-40.89,37.09-67.93,82.09-60.53L1920.42,639c16.14,2.65,30.67,11.88,41.16,24.62S1978.71,692.92,1978.71,710Z"/><path class="cls-7" d="M1978.71,710V2065.13c0,33.95-25.9,66.2-58.29,72.11l-730.35,133.18c-20.69,3.77-39.72.23-54.26-8.73L1961.58,663.57C1972.17,676.42,1978.71,692.92,1978.71,710Z"/><path class="cls-8" d="M1861.91,854l-653.22-77.17c-22.22-2.62-40.37,13.44-40.37,35.89V982.84c0,22.45,18.15,41.89,40.37,43.41l653.22,44.66c16.67,1.14,30.08-13.54,30.08-32.78V892.39C1892,873.16,1878.58,856,1861.91,854Z"/><path class="cls-8" d="M1861.91,1157.86l-653.22-31.62a38.29,38.29,0,0,0-40.37,38.7v170.11a40.5,40.5,0,0,0,40.37,40.6l653.22-.89c16.67,0,30.08-15.64,30.08-34.87V1194.15C1892,1174.91,1878.58,1158.67,1861.91,1157.86Z"/><path class="cls-8" d="M1861.91,1461.72l-653.22,13.92c-22.22.47-40.37,19.06-40.37,41.52v170.1c0,22.45,18.15,39.37,40.37,37.79l653.22-46.44c16.67-1.18,30.08-17.73,30.08-37V1495.91C1892,1476.67,1878.58,1461.36,1861.91,1461.72Z"/><path class="cls-8" d="M1861.91,1765.57,1208.69,1825c-22.22,2-40.37,32.27-40.37,67.55v267.24c0,35.28,18.15,60.81,40.37,57.05l653.22-110.55c16.67-2.82,30.08-29.59,30.08-59.81v-229C1892,1787.33,1878.58,1764.05,1861.91,1765.57Z"/><path class="cls-9" d="M1880.81,835,1227.58,757.8c-22.21-2.62-40.37,13.44-40.37,35.89v170.1c0,22.46,18.16,41.9,40.37,43.42l653.23,44.66c16.66,1.14,30.08-13.54,30.08-32.78V873.35C1910.89,854.12,1897.47,836.94,1880.81,835Z"/><path class="cls-10" d="M1422.78,905.87a61.63,61.63,0,0,1-21.21,47c-13.49,11.81-32.39,18.35-53.47,16.71A86.37,86.37,0,0,1,1293.43,944c-13.8-14-22.35-32.53-22.35-52.12,0-39.61,34.78-68,77-63.51C1389.62,832.79,1422.78,867.46,1422.78,905.87Z"/><path class="cls-11" d="M1378.4,884.4c0,15.58-13.52,27-30.3,25.49s-30.68-15.55-30.68-31.32,13.79-27.17,30.68-25.45S1378.4,868.82,1378.4,884.4Z"/><path class="cls-11" d="M1401.57,952.88c-13.49,11.81-32.39,18.35-53.47,16.71A86.37,86.37,0,0,1,1293.43,944c11.88-15.43,32-24.46,54.67-22.48A72.34,72.34,0,0,1,1401.57,952.88Z"/><polygon class="cls-4" points="1496.26 840.87 1506.78 862.48 1530.16 868.16 1513.27 882.36 1517.27 905.22 1496.26 892.58 1475.06 901.24 1479.12 878.98 1461.86 861.17 1485.68 860.31 1496.26 840.87"/><polygon class="cls-4" points="1580.13 849.87 1590.29 871.08 1612.85 876.62 1596.55 890.59 1600.41 913.04 1580.13 900.67 1559.68 909.21 1563.6 887.33 1546.95 869.88 1569.93 868.99 1580.13 849.87"/><polygon class="cls-4" points="1661.09 858.56 1670.9 879.38 1692.68 884.78 1676.94 898.54 1680.67 920.6 1661.09 908.48 1641.35 916.9 1645.13 895.4 1629.06 878.27 1651.24 877.36 1661.09 858.56"/><polygon class="cls-12" points="1739.29 866.95 1748.76 887.4 1769.81 892.67 1754.6 906.23 1758.2 927.9 1739.29 916.01 1720.21 924.33 1723.87 903.19 1708.34 886.38 1729.77 885.45 1739.29 866.95"/><polygon class="cls-12" points="1814.22 874.99 1823.38 895.09 1843.74 900.24 1829.03 913.59 1832.51 934.9 1814.22 923.24 1795.77 931.44 1799.31 910.65 1784.3 894.15 1805.02 893.2 1814.22 874.99"/><path class="cls-11" d="M1726.34,958.81l-249.4-21.61a7.76,7.76,0,0,1-7.12-7.43h0a6.27,6.27,0,0,1,7.12-6.16l249.4,22.32a7.14,7.14,0,0,1,6.37,7h0A5.78,5.78,0,0,1,1726.34,958.81Z"/><path class="cls-11" d="M1837.68,998.33l-360.74-28.81a7.68,7.68,0,0,1-7.12-7.37h0a6.32,6.32,0,0,1,7.12-6.22l360.74,29.84a6.82,6.82,0,0,1,6.06,6.77h0A5.61,5.61,0,0,1,1837.68,998.33Z"/><path class="cls-4" d="M1880.81,1138.82l-653.23-31.62a38.29,38.29,0,0,0-40.37,38.7V1316a40.5,40.5,0,0,0,40.37,40.6l653.23-.89c16.66,0,30.08-15.64,30.08-34.87V1175.11C1910.89,1155.87,1897.47,1139.63,1880.81,1138.82Z"/><path class="cls-11" d="M1422.78,1241.65a66.34,66.34,0,0,1-21.21,48.5c-13.49,12.75-32.39,20.6-53.47,20.43a80.25,80.25,0,0,1-54.67-21.78c-13.8-13.08-22.35-31-22.35-50.55,0-39.61,34.78-70.45,77-68.89C1389.62,1170.89,1422.78,1203.25,1422.78,1241.65Z"/><path class="cls-12" d="M1378.4,1223.29c0,15.58-13.52,27.93-30.3,27.6s-30.68-13.41-30.68-29.19,13.79-28.13,30.68-27.59S1378.4,1207.71,1378.4,1223.29Z"/><path class="cls-12" d="M1401.57,1290.15c-13.49,12.75-32.39,20.6-53.47,20.43a80.25,80.25,0,0,1-54.67-21.78c11.88-16.25,32-26.69,54.67-26.28C1370.55,1262.92,1390.16,1273.89,1401.57,1290.15Z"/><polygon class="cls-11" points="1496.26 1171.54 1506.78 1192.41 1530.16 1196.46 1513.27 1211.83 1517.27 1234.42 1496.26 1223.25 1475.06 1233.38 1479.12 1210.84 1461.86 1194.24 1485.68 1191.71 1496.26 1171.54"/><polygon class="cls-11" points="1580.13 1174.69 1590.29 1195.19 1612.85 1199.15 1596.55 1214.27 1600.41 1236.45 1580.13 1225.49 1559.68 1235.45 1563.6 1213.3 1546.95 1197.01 1569.93 1194.52 1580.13 1174.69"/><polygon class="cls-11" points="1661.09 1177.73 1670.9 1197.87 1692.68 1201.75 1676.94 1216.61 1680.67 1238.41 1661.09 1227.65 1641.35 1237.45 1645.13 1215.68 1629.06 1199.68 1651.24 1197.22 1661.09 1177.73"/><polygon class="cls-11" points="1739.29 1180.67 1748.76 1200.46 1769.81 1204.27 1754.6 1218.88 1758.2 1240.3 1739.29 1229.73 1720.21 1239.38 1723.87 1217.98 1708.34 1202.26 1729.77 1199.83 1739.29 1180.67"/><polygon class="cls-13" points="1814.22 1183.48 1823.38 1202.94 1843.74 1206.67 1829.03 1221.05 1832.51 1242.12 1814.22 1231.73 1795.77 1241.22 1799.31 1220.18 1784.3 1204.74 1805.02 1202.33 1814.22 1183.48"/><path class="cls-11" d="M1823.12,1275.07l-346.18-5.86a7.12,7.12,0,0,1-7.12-6.93h0a6.8,6.8,0,0,1,7.12-6.66l346.18,6.84a6.35,6.35,0,0,1,6.1,6.42h0A6.08,6.08,0,0,1,1823.12,1275.07Z"/><path class="cls-11" d="M1689.09,1303.68l-212.15-2.15a7.05,7.05,0,0,1-7.12-6.87h0a6.87,6.87,0,0,1,7.12-6.72l212.15,2.76a6.57,6.57,0,0,1,6.48,6.56h0A6.4,6.4,0,0,1,1689.09,1303.68Z"/><path class="cls-9" d="M1880.81,1442.68l-653.23,13.92c-22.21.47-40.37,19.06-40.37,41.51v170.11c0,22.45,18.16,39.37,40.37,37.79l653.23-46.44c16.66-1.18,30.08-17.73,30.08-37V1476.87C1910.89,1457.63,1897.47,1442.32,1880.81,1442.68Z"/><path class="cls-12" d="M1422.78,1577.44c0,19-8.06,36.66-21.21,50a82.23,82.23,0,0,1-53.47,24.17c-21.26,1.31-40.65-5.63-54.67-18a64.68,64.68,0,0,1-22.35-49c0-39.61,34.78-72.87,77-74.25C1389.62,1509,1422.78,1539,1422.78,1577.44Z"/><path class="cls-11" d="M1378.4,1562.17c0,15.58-13.52,28.88-30.3,29.71s-30.68-11.27-30.68-27.05,13.79-29.08,30.68-29.72S1378.4,1546.59,1378.4,1562.17Z"/><path class="cls-11" d="M1401.57,1627.41a82.23,82.23,0,0,1-53.47,24.17c-21.26,1.31-40.65-5.63-54.67-18a71.43,71.43,0,0,1,54.67-30.1C1370.55,1602.35,1390.16,1612,1401.57,1627.41Z"/><polygon class="cls-10" points="1496.26 1502.2 1506.78 1522.35 1530.16 1524.76 1513.27 1541.31 1517.27 1563.62 1496.26 1553.91 1475.06 1565.53 1479.12 1542.7 1461.86 1527.3 1485.68 1523.12 1496.26 1502.2"/><polygon class="cls-10" points="1580.13 1499.5 1590.29 1519.3 1612.85 1521.69 1596.55 1537.94 1600.41 1559.85 1580.13 1550.3 1559.68 1561.7 1563.6 1539.27 1546.95 1524.14 1569.93 1520.04 1580.13 1499.5"/><polygon class="cls-12" points="1661.09 1496.9 1670.9 1516.36 1692.68 1518.72 1676.94 1534.68 1680.67 1556.22 1661.09 1546.82 1641.35 1558 1645.13 1535.97 1629.06 1521.09 1651.24 1517.08 1661.09 1496.9"/><polygon class="cls-12" points="1739.29 1494.39 1748.76 1513.52 1769.81 1515.86 1754.6 1531.53 1758.2 1552.7 1739.29 1543.45 1720.21 1554.43 1723.87 1532.78 1708.34 1518.14 1729.77 1514.21 1739.29 1494.39"/><polygon class="cls-12" points="1814.22 1491.98 1823.38 1510.8 1843.74 1513.11 1829.03 1528.52 1832.51 1549.34 1814.22 1540.23 1795.77 1551 1799.31 1529.72 1784.3 1515.32 1805.02 1511.47 1814.22 1491.98"/><path class="cls-11" d="M1726.34,1588.05l-249.4,13.17a6.54,6.54,0,0,1-7.12-6.43h0a7.41,7.41,0,0,1,7.12-7.16l249.4-12.46a6,6,0,0,1,6.37,6.11h0A6.82,6.82,0,0,1,1726.34,1588.05Z"/><path class="cls-11" d="M1668.52,1622.13l-191.58,11.42a6.5,6.5,0,0,1-7.12-6.39h0a7.47,7.47,0,0,1,7.12-7.21l191.58-10.87a6.1,6.1,0,0,1,6.53,6.15h0A7,7,0,0,1,1668.52,1622.13Z"/><path class="cls-14" d="M1880.81,1746.53,1227.58,1806c-22.21,2-40.37,32.27-40.37,67.55v267.24c0,35.28,18.16,60.8,40.37,57l653.23-110.54c16.66-2.82,30.08-29.59,30.08-59.81v-229C1910.89,1768.29,1897.47,1745,1880.81,1746.53Z"/><path class="cls-12" d="M1430,2104.7l-71,11.14v-174.7c0-7.8,6.76-14.93,15.09-15.91l41.11-4.87c8.16-1,14.75,4.49,14.75,12.18Z"/><path class="cls-10" d="M1543.29,2086.92l-67.63,10.61V1870.9c0-8.73,7.4-16.6,16.48-17.56l35-3.72c8.92-.94,16.13,5.27,16.13,13.88Z"/><path class="cls-4" d="M1653.51,2069.61,1589,2079.73V2005a11,11,0,0,1,9.37-10.49l46-6.39a7.74,7.74,0,0,1,9.14,7.79Z"/><path class="cls-12" d="M1267.43,1857.66v238.58c0,11-.46,22,0,33v.45c0,2.59,2.32,3.89,4.62,3.53l15.26-2.4,41.51-6.52,61.16-9.6,74.58-11.71,82-12.86,82.75-13,76.89-12.08,65.19-10.23,46.85-7.35c7.35-1.16,14.78-2.07,22.09-3.47.31-.06.63-.1.94-.15,4.64-.73,2.67-7.78-1.94-7l-15.26,2.39-41.51,6.52-61.16,9.6L1646.79,2067l-82,12.87-82.74,13-76.9,12.07L1340,2115.15l-46.85,7.36c-7.32,1.15-14.83,1.93-22.09,3.47-.31.06-.63.09-.94.14l4.63,3.53V1891.08c0-11,.45-22,0-33,0-.15,0-.31,0-.46,0-4.7-7.31-4.71-7.31,0Z"/><path class="cls-12" d="M1862.5,1802.87l-206.81,21.41a6.49,6.49,0,0,1-7.36-6.55h0a8.3,8.3,0,0,1,7.36-8l206.81-20.75a6.06,6.06,0,0,1,6.69,6.29h0A7.75,7.75,0,0,1,1862.5,1802.87Z"/><path class="cls-12" d="M1862.5,1833.42l-125.21,13.84a6.27,6.27,0,0,1-7.1-6.4h0a8.16,8.16,0,0,1,7.1-7.95l125.21-13.43a6,6,0,0,1,6.69,6.24h0A7.81,7.81,0,0,1,1862.5,1833.42Z"/><path class="cls-10" d="M1880.81,531.12,1227.58,408.4c-22.21-4.17-40.37,10.62-40.37,33.08v170.1c0,22.45,18.16,43.16,40.37,46.23L1880.81,748c16.66,2.3,30.08-11.44,30.08-30.67V571.6C1910.89,552.36,1897.47,534.25,1880.81,531.12Z"/><path class="cls-11" d="M1261.4,578a11.77,11.77,0,0,1-7.12-3.44,10.24,10.24,0,0,1-2.5-7.18V506q0-9,9.86-7.34l41.19,7.05q7.28,1.23,7.28,7.84t-7.28,5.49l-32.22-5.42v19.08l29.59,4.86c4.94.82,7.4,3.42,7.4,7.83s-2.46,6.31-7.4,5.52l-29.59-4.79v24.18Q1270.61,579.44,1261.4,578Z"/><path class="cls-11" d="M1329.91,587.65q-9.57-1.5-9.58-10.39V517.63q0-8.89,9.58-7.25l40.89,7q7.08,1.2,7.08,7.72t-7.08,5.43l-33-5.55v18l30.31,5q7.2,1.18,7.2,7.81t-7.2,5.46l-30.31-4.91v19.26l33,5.21q7.08,1.13,7.08,7.63T1370.8,594Z"/><path class="cls-11" d="M1400.36,598.58q-9.3-1.44-9.31-10.21V529.6q0-8.77,9.31-7.18l39.73,6.8q6.87,1.17,6.87,7.59t-6.87,5.37l-32-5.39v17.79l29.45,4.85q7,1.16,7,7.68t-7,5.4L1408,567.74v19l32,5.06q6.87,1.08,6.87,7.5t-6.87,5.46Z"/><path class="cls-11" d="M1468.82,609.21q-9.06-1.4-9.06-10.05V541.22q0-8.64,9.06-7.09l21.65,3.7q19.85,3.39,30.64,14.88t10.78,29.2q0,17.76-10.78,25.73t-30.64,4.93Zm8.24-12.22,12.41,2q24.79,3.93,24.76-19.92t-24.76-27.9L1477.06,549Z"/><path class="cls-11" d="M1553.62,622.38q-8.73-1.36-8.74-9.85v-56.9q0-8.49,8.74-7l25.9,4.43q12,2.06,18.49,8.24a19.88,19.88,0,0,1,6.49,15,14.8,14.8,0,0,1-3,9.49,14.13,14.13,0,0,1-8.24,4.92,22.52,22.52,0,0,1,9.77,7.81A19.9,19.9,0,0,1,1606.5,610q0,9.72-6.9,14.07t-18.91,2.5Zm7.2-42.23,15.82,2.6q12.13,2,12.12-7.14t-12.12-11.07l-15.82-2.67Zm0,31.33,17.63,2.79q6.39,1,9.35-.91t3-6.8a10.13,10.13,0,0,0-3-7.64q-3-2.86-9.35-3.9l-17.63-2.86Z"/><path class="cls-11" d="M1620.55,633.7a8.3,8.3,0,0,1-6.28-3.87q-1.89-3.18.11-7.1l26.68-53.4a9.82,9.82,0,0,1,3.94-4.41,8.09,8.09,0,0,1,5.27-.69,10.69,10.69,0,0,1,5.25,2.49,15.09,15.09,0,0,1,3.81,5.71l26.37,61.51q1.93,4.57.16,7.09c-1.19,1.68-3.1,2.31-5.75,1.9a9.29,9.29,0,0,1-5.36-2.46,16.33,16.33,0,0,1-3.32-5.61l-4.3-10.48-34-5.38-4.27,9.2a12.14,12.14,0,0,1-3.33,4.68A6.56,6.56,0,0,1,1620.55,633.7ZM1650.06,582l-11.49,25.4,23.33,3.76-11.63-29.13Z"/><path class="cls-11" d="M1728.59,650.65a44.79,44.79,0,0,1-19.53-7.58,39,39,0,0,1-12.56-14.79,45.35,45.35,0,0,1-4.4-20.24q0-11.16,4.4-18.7a24.32,24.32,0,0,1,12.56-10.69q8.14-3.17,19.53-1.21a45,45,0,0,1,10.1,3,42,42,0,0,1,8.87,5,9.42,9.42,0,0,1,3.75,5.15,7,7,0,0,1-.44,5,5.29,5.29,0,0,1-3.51,2.82q-2.37.6-5.35-1.6a26.68,26.68,0,0,0-6.25-3.66,30.5,30.5,0,0,0-6.67-1.93q-10.08-1.7-15.26,3.35t-5.17,16.08q0,11,5.17,17.81t15.26,8.37a26.72,26.72,0,0,0,6.52.23,21.88,21.88,0,0,0,6.4-1.5,6.36,6.36,0,0,1,5.55.13,8.22,8.22,0,0,1,3.51,3.77,7.51,7.51,0,0,1,.54,5,5.51,5.51,0,0,1-3.36,3.84,26.2,26.2,0,0,1-9.06,2.5A40,40,0,0,1,1728.59,650.65Z"/><path class="cls-11" d="M1770.09,656.89a8.75,8.75,0,0,1-5.68-3,9.51,9.51,0,0,1-2-6.21V591.33c0-2.53.66-4.36,2-5.51s3.2-1.5,5.68-1.07q7.53,1.29,7.53,9.16v23.6l.19,0,25.8-23.29a10.4,10.4,0,0,1,3.42-2.14,8.11,8.11,0,0,1,4.09-.24,7.21,7.21,0,0,1,4.8,2.6,6.34,6.34,0,0,1,1.35,4.43,5.81,5.81,0,0,1-2.11,4l-22.66,20,24,30.09a9.17,9.17,0,0,1,2.25,5.39,5,5,0,0,1-1.63,4c-1.12,1-2.76,1.3-4.94,1a8.72,8.72,0,0,1-4.47-1.88,28.29,28.29,0,0,1-3.71-4l-26.19-32.38-.19,0v25q0,3.79-1.91,5.58T1770.09,656.89Z"/><path class="cls-11" d="M1851,669.63a59.3,59.3,0,0,1-12.11-3.25,43,43,0,0,1-10.56-5.68,7.89,7.89,0,0,1-3.34-4.51,7.3,7.3,0,0,1,.28-4.84,4.81,4.81,0,0,1,3.06-2.86c1.39-.43,3.08,0,5,1.29a35.11,35.11,0,0,0,8.46,4.69A43.49,43.49,0,0,0,1851,657c4.53.72,7.77.5,9.75-.66a5.52,5.52,0,0,0,3-5.05,6.45,6.45,0,0,0-2.07-4.82q-2.07-2-7.24-4l-10.68-4.07q-17.94-6.84-18-22.22a17.32,17.32,0,0,1,3.43-11,17.78,17.78,0,0,1,9.56-6.1,32.53,32.53,0,0,1,14.15-.33,46.18,46.18,0,0,1,10.35,3.09,36.49,36.49,0,0,1,8.9,5.38,7.69,7.69,0,0,1,2.89,4.29,6.83,6.83,0,0,1-.33,4.43,4.23,4.23,0,0,1-3,2.52q-2.1.52-5.19-1.56a31.12,31.12,0,0,0-6.57-3.54,35.08,35.08,0,0,0-7.16-2q-5.94-1-9.21.85a6.12,6.12,0,0,0-3.27,5.69,6.91,6.91,0,0,0,2,4.94q2,2.1,6.91,4l10.65,4.1q18.18,7.08,18.16,21.48a17,17,0,0,1-3.32,10.72,17.48,17.48,0,0,1-9.35,6A33.45,33.45,0,0,1,1851,669.63Z"/><path class="cls-4" d="M3538.73,2343.32a163.71,163.71,0,0,1-28.27-2.5l-730.71-128.41c-29.32-5.15-57.07-21-78.13-44.64-23.78-26.68-37.42-61.78-37.42-96.28V704.33c0-68,51.05-129.31,116.22-139.68l730.7-116.28A163.91,163.91,0,0,1,3537,446.3c31.38,0,60.5,9.24,84.2,26.72,32.31,23.78,50.84,60.75,50.84,101.42V2216.72C3672,2288.89,3614.7,2343.32,3538.73,2343.32ZM3537,460.17a150.67,150.67,0,0,0-23.65,1.89L2782.6,578.34c-58.62,9.33-104.53,64.67-104.53,126V2071.49c0,31.14,12.36,62.88,33.91,87.05,19,21.32,43.91,35.6,70.17,40.22l730.71,128.4a150,150,0,0,0,25.87,2.29c68.06,0,119.39-48.46,119.39-112.73V574.44c0-36.21-16.47-69.11-45.19-90.26C3591.62,468.47,3565.35,460.17,3537,460.17Z"/><path class="cls-5" d="M2787,2171.44c-20.18-3.55-39.43-14.7-54.26-31.35-17.12-19.2-26.89-44.17-26.89-68.6V704.33c0-47.24,36.06-91.42,81.15-98.6l730.71-116.28c29.45-4.68,57.48,1.33,78.8,17.05,21.82,16.07,33.92,40.24,33.92,67.94V2216.72c0,56.76-51.14,93.94-112.72,83.12Z"/><path class="cls-6" d="M3598.79,578.88V2211.76c0,40.91-36.62,67.83-81.13,60.24L2787,2147.36c-15.19-2.6-29-10.94-39.39-22.56-12.07-13.44-19.63-31.32-19.63-49.84V701.22c0-34.42,26.24-66.36,59-71.41L3517.66,517.3c22-3.39,42.11,1.63,56.81,12.58C3589.45,541,3598.79,558.28,3598.79,578.88Z"/><path class="cls-7" d="M3598.79,578.88V2211.76c0,40.91-36.62,67.83-81.13,60.24L2787,2147.36c-15.19-2.6-29-10.94-39.39-22.56L3574.47,529.88C3589.45,541,3598.79,558.28,3598.79,578.88Z"/><path class="cls-8" d="M3488.35,793.9l-650,70.47c-16.76,1.81-30.25,28-30.25,58.56v231.29c0,30.53,13.49,54.8,30.25,54.21l650-22.93c21.87-.77,39.74-30,39.74-65.19V853.38C3528.09,818.15,3510.22,791.53,3488.35,793.9Z"/><path class="cls-10" d="M3465.09,409l-650,114.22c-16.75,2.95-30.25,21.07-30.25,40.5V710.91c0,19.43,13.5,33.44,30.25,31.28l650-84c21.88-2.83,39.74-23.32,39.74-45.74V442.59C3504.83,420.16,3487,405.12,3465.09,409Z"/><path class="cls-11" d="M2849.17,666.31a55.54,55.54,0,0,1-12.55.38,32.68,32.68,0,0,1-10.83-2.62,5.38,5.38,0,0,1-3.4-3.63,8.09,8.09,0,0,1,.29-5.08,7.69,7.69,0,0,1,3.11-3.93,5.74,5.74,0,0,1,5.17-.25,26.49,26.49,0,0,0,8.7,2.19,40.31,40.31,0,0,0,9.51-.28q7.08-1,10.2-3.81a8.23,8.23,0,0,0,3.11-6.26,4.9,4.9,0,0,0-2.18-4.4c-1.44-.94-4-1.55-7.59-1.83l-11.1-.79q-18.46-1.29-18.44-17.18a23.49,23.49,0,0,1,3.5-12.52,29.09,29.09,0,0,1,9.81-9.56,39.67,39.67,0,0,1,14.66-5.21,42.08,42.08,0,0,1,10.84-.35,27.07,27.07,0,0,1,9.41,2.56,5.23,5.23,0,0,1,3.08,3.53,7.69,7.69,0,0,1-.35,4.79,7.11,7.11,0,0,1-3.18,3.69,6.46,6.46,0,0,1-5.5.14,23.91,23.91,0,0,0-6.91-1.48,33.34,33.34,0,0,0-7.49.35q-6.2,1-9.57,4a9.18,9.18,0,0,0-3.38,7,5.22,5.22,0,0,0,2.06,4.49q2.05,1.51,7.15,1.86l11.13.75c12.79.93,19.22,6.47,19.22,16.64a22.93,22.93,0,0,1-3.53,12.42,28.38,28.38,0,0,1-9.91,9.36A41.06,41.06,0,0,1,2849.17,666.31Z"/><path class="cls-11" d="M2920.61,656q-10.52,1.51-18.41-2.06A25.93,25.93,0,0,1,2890,642.6q-4.35-7.77-4.35-19.12A46.75,46.75,0,0,1,2890,603a40.1,40.1,0,0,1,12.17-15,40.92,40.92,0,0,1,18.47-7.61q10.65-1.71,18.65,1.71a25.68,25.68,0,0,1,12.49,11.25q4.47,7.85,4.47,19.25a47.15,47.15,0,0,1-4.47,20.78A40,40,0,0,1,2920.61,656Zm0-13.72a19.89,19.89,0,0,0,14-8.47q5.05-7.17,5-18.55t-5-17q-5-5.54-14-4.11a20,20,0,0,0-13.79,8.44q-5,7-5,18.43t5,16.92Q2911.82,643.57,2920.61,642.28Z"/><path class="cls-11" d="M2976.76,646.74c-2.7.39-4.73,0-6.11-1.27s-2.07-3.18-2.07-5.84V582a9.77,9.77,0,0,1,2.07-6.47,9.44,9.44,0,0,1,6-3.11q8-1.27,8,7V631.8l28-4.13q7.05-1,7.06,5.86t-7.06,8Z"/><path class="cls-11" d="M3057.58,636.24q-16,2.31-24.36-4.68t-8.31-23.11V572.33a9,9,0,0,1,8.26-9.71q8.17-1.3,8.18,7.11v36.35q0,9.17,4.16,13.18t12.07,2.87q16.22-2.39,16.23-21V564.6q0-8.48,8.32-9.81,4-.64,6.12,1.23t2.12,6v36.59q0,16.36-8.35,25.87T3057.58,636.24Z"/><path class="cls-11" d="M3132.29,625.25c-2.8.4-4.92,0-6.39-1.36s-2.2-3.33-2.2-6.07V563l-19.4,3q-7.1,1.13-7.09-5.78t7.09-8l56.19-9q7.26-1.15,7.26,5.84t-7.26,8.13l-19.68,3.09v55a10.18,10.18,0,0,1-2.16,6.73A9.74,9.74,0,0,1,3132.29,625.25Z"/><path class="cls-11" d="M3184,617.78c-2.86.41-5,0-6.53-1.36s-2.24-3.36-2.24-6.13V548.65q0-8.74,8.77-10.16t8.69,7.4v61.85Q3192.73,616.53,3184,617.78Z"/><path class="cls-11" d="M3246.32,609q-12,1.74-21-2a28.53,28.53,0,0,1-13.93-12q-5-8.24-5-20.36a47.6,47.6,0,0,1,5-21.86,44.23,44.23,0,0,1,13.87-16.16,48.8,48.8,0,0,1,21.05-8.34q12.13-1.93,21.27,1.61a28.32,28.32,0,0,1,14.24,11.88q5.1,8.33,5.1,20.52a47.91,47.91,0,0,1-5.1,22.23,44.35,44.35,0,0,1-14.24,16.32A48.42,48.42,0,0,1,3246.32,609Zm0-14.65a23.24,23.24,0,0,0,15.92-9.19q5.76-7.71,5.76-19.86t-5.7-18.12c-3.79-3.9-9.13-5.3-16-4.23a23.33,23.33,0,0,0-15.72,9.17q-5.67,7.57-5.67,19.73t5.67,18Q3236.29,595.84,3246.32,594.36Z"/><path class="cls-11" d="M3309.55,599.67q-8.52,1.23-8.51-7.19v-64a10.26,10.26,0,0,1,2.19-6.85,9.24,9.24,0,0,1,5.84-3.18,8,8,0,0,1,4.86.4,16,16,0,0,1,4,3.24l38.75,40.67V519.27q0-8.39,8.69-9.78t8.72,7v65.65a9.6,9.6,0,0,1-2.06,6.27,8.51,8.51,0,0,1-5.57,3,9.36,9.36,0,0,1-5.38-.47,15.57,15.57,0,0,1-4.28-3.35l-38.75-40.86V590Q3318.08,598.43,3309.55,599.67Z"/><path class="cls-11" d="M3422.34,583.62a78,78,0,0,1-15.77.67,44.53,44.53,0,0,1-13.59-2.71,6.26,6.26,0,0,1-4.27-4,8.18,8.18,0,0,1,.36-5.7,9,9,0,0,1,3.91-4.46,7.94,7.94,0,0,1,6.48-.39,36.25,36.25,0,0,0,10.92,2.28,57.55,57.55,0,0,0,12-.5c5.93-.87,10.21-2.36,12.81-4.47s3.91-4.48,3.91-7.09a5.23,5.23,0,0,0-2.73-4.89q-2.73-1.54-9.54-1.9l-13.95-.65q-23.19-1.08-23.16-18.87a24.53,24.53,0,0,1,4.4-14.1,35.77,35.77,0,0,1,12.31-10.93,54.79,54.79,0,0,1,18.42-6.15,59.18,59.18,0,0,1,13.63-.63,36.55,36.55,0,0,1,11.83,2.67,5.92,5.92,0,0,1,3.87,3.89,7.81,7.81,0,0,1-.43,5.38,8.59,8.59,0,0,1-4,4.21q-2.8,1.47-6.92.27a32.74,32.74,0,0,0-8.69-1.51,47.25,47.25,0,0,0-9.42.55q-7.77,1.23-12,4.7t-4.24,7.94a5.54,5.54,0,0,0,2.58,5q2.58,1.66,9,1.94l14,.62c16.09.76,24.18,6.85,24.18,18.26a24,24,0,0,1-4.44,14,35.29,35.29,0,0,1-12.47,10.7A56.49,56.49,0,0,1,3422.34,583.62Z"/><path class="cls-8" d="M3144.66,1366.48c-144.4-.46-255.51,111.4-255.49,249.82a268.74,268.74,0,0,0,28.59,120l.12.26c.57,1.13,1.15,2.26,1.73,3.39l.49.94q.77,1.47,1.56,2.94c.24.46.48.91.73,1.36.48.88,1,1.76,1.45,2.63.3.55.62,1.1.93,1.65.45.8.9,1.59,1.36,2.38.36.63.73,1.26,1.1,1.89l1.28,2.15c.43.72.87,1.43,1.31,2.14s.76,1.26,1.15,1.88c.53.85,1.07,1.69,1.61,2.53.32.5.63,1,1,1.49q1.29,2,2.63,4c35.57,57.92,130.5,130.33,130.5,168.16v18.45l-6.16-.75v32.38l-1.42,0c-5.64-.15-9.58,4.41-8.79,10.17a12.77,12.77,0,0,0,10.2,10.59h0v15.32l-1.42,0c-5.65-.18-9.58,4.34-8.8,10.11a12.89,12.89,0,0,0,10.21,10.66c.27,0,.55.06.82.09a75.47,75.47,0,0,0,4.21,15.76c-5.56-.11-9.41,4.34-8.64,10a13.07,13.07,0,0,0,10.24,10.76,11.33,11.33,0,0,0,1.44.16l9.17.4c13.53,17.33,33.31,29.33,54.49,32.55l25.12,3.81c25.46,3.87,49.39-5.3,63.27-24.42a58.71,58.71,0,0,0,3.53-5.52l7.12.32c6.06.26,10.3-4.38,9.46-10.38a13.75,13.75,0,0,0-9.52-10.77,65.87,65.87,0,0,0,.7-9.58v-6.87l1.52.06a8.88,8.88,0,0,0,9.46-10.45,13.58,13.58,0,0,0-11-11V2012l1.52,0a9,9,0,0,0,9.47-10.52,13.44,13.44,0,0,0-11-11v-15.9l-6.58-.8v-19c0-39,105.17-93.9,146.8-149.18h0c1.06-1.27,2.1-2.56,3.14-3.85.37-.46.73-.93,1.1-1.4.65-.83,1.3-1.65,1.94-2.49.46-.59.9-1.19,1.35-1.78s1.08-1.43,1.61-2.16,1-1.35,1.48-2l1.38-1.94c.53-.75,1.06-1.51,1.58-2.27l1.17-1.71c.57-.84,1.13-1.69,1.69-2.54l.94-1.43c.61-1,1.22-1.9,1.82-2.86l.66-1c.68-1.1,1.35-2.19,2-3.3l.24-.4c22.2-37.17,34.87-80.8,34.86-128.12C3429.08,1492.27,3297.86,1367,3144.66,1366.48Z"/><path class="cls-4" d="M2866.12,1599.87c0-137.76,110-249.43,253-249.43,151.62,0,281.45,124.22,281.47,277.46,0,61.08-21.06,116-56.36,158.68h0c-41.2,55.14-145.28,110.11-145.27,148.94v44.36c0,8.85-7.39,15.1-16.47,13.94l-43.54-5.52-39.35-5-42.13-5.35a18.18,18.18,0,0,1-15.57-17.51v-43c0-37.64-94-109.34-129.22-166.85h0C2883.3,1706.82,2866.13,1654.78,2866.12,1599.87Z"/><path class="cls-11" d="M3149.62,1985.28c-.32-6.67-5.15-113.26,3.5-205.4a308,308,0,0,1-67.49-5.75c8.48,92.68,3.78,197,3.47,203.52l-4.64-.8c.07-1.6,4.94-109.42-3.71-203.76-76.63-17.1-110.17-62.71-116.15-103.53-3.49-23.81,4.43-46.83,18.9-54.81,8.82-4.87,19.52-5.39,31-1.47,18.11,6.21,35.45,22.92,46.31,44.76,12.6,25.33,20.09,66.66,24.42,111.35a288.72,288.72,0,0,0,34,4.83,284.57,284.57,0,0,0,34.42.93c4.45-44.63,12.18-85.58,25.31-109.77,11.43-21.06,29.9-36.26,49.47-40.63,12.52-2.8,24.35-1,34.17,5.13,16.27,10.21,25.27,35.76,21.31,60.67-6.76,42.53-44.12,85-125.69,89.12-8.86,94-3.84,204.34-3.76,206Zm92.53-357a46.13,46.13,0,0,0-12.44,1.1c-18.31,4.07-35.68,18.44-46.54,38.4-12.65,23.29-20.18,63.27-24.57,107.14,78.1-4.45,113.84-44.88,120.28-85.41,3.6-22.69-4.56-46.65-18.91-55.67A36.83,36.83,0,0,0,3242.15,1628.28Zm-240.29-13a29.51,29.51,0,0,0-16.07,3.48c-12.8,7-20,28.7-16.82,50.43,5.71,39,37.89,82.46,111.33,99.15-4.25-43.83-11.52-84.11-23.61-108.46-10.28-20.69-26.55-36.48-43.47-42.29A42.28,42.28,0,0,0,3001.86,1615.27Z"/><path class="cls-15" d="M3351.54,1641.1c-9.23-.51-16.69-8-16.69-16.65,0-97.5-68.86-183.49-164.3-208.31a15.23,15.23,0,1,1,7.66-29.47c110.22,28,190.1,126.91,190.12,239.54C3368.33,1635,3360.8,1641.61,3351.54,1641.1Z"/><path class="cls-15" d="M3114,1393.72a15.4,15.4,0,0,0,15.31,15.23,15.07,15.07,0,0,0,15.4-15,15.4,15.4,0,0,0-15.4-15.23A15.07,15.07,0,0,0,3114,1393.72Z"/><path class="cls-13" d="M3400,1644.27c-16.33,112.5-112.31,220.37-280.83,203.64-157.89-15.69-236.27-134.7-252.57-233.27,2.77,49.42,19.35,96.11,46.06,136h0c35.23,57.51,129.22,129.21,129.22,166.85v43a18.18,18.18,0,0,0,15.57,17.51l42.13,5.35,39.35,5,43.54,5.52c9.08,1.16,16.47-5.09,16.47-13.94v-44.36c0-38.83,104.07-93.8,145.27-148.94h0C3376.3,1747.75,3396.58,1698.81,3400,1644.27Z"/><path class="cls-2" d="M3205.44,1955.23l-169.66-20.14v78.37a75.16,75.16,0,0,0,10.5,37.62h0c13,22.37,35.8,38.19,60.5,41.86l24.87,3.7c25.2,3.74,48.88-5.48,62.61-24.55h0a60.82,60.82,0,0,0,11.18-35.79Z"/><path class="cls-16" d="M3035.77,1987.94a11.18,11.18,0,0,0,1.42.13L3207,1992.4a8.91,8.91,0,0,0,9.36-10.5,13.21,13.21,0,0,0-12.37-11l-169.56-3.61c-5.59-.12-9.49,4.42-8.71,10.15A12.62,12.62,0,0,0,3035.77,1987.94Z"/><path class="cls-16" d="M3035.78,2023.8a11.2,11.2,0,0,0,1.42.15l169.75,5.57a8.85,8.85,0,0,0,9.37-10.43,13.34,13.34,0,0,0-12.38-11.09l-169.56-4.86c-5.58-.16-9.48,4.36-8.71,10.09A12.74,12.74,0,0,0,3035.78,2023.8Z"/><path class="cls-16" d="M3042.34,2060.25a9.78,9.78,0,0,0,1.42.15l161.06,6.47a8.77,8.77,0,0,0,9.36-10.36,13.45,13.45,0,0,0-12.37-11.17l-160.87-5.79c-5.6-.2-9.51,4.29-8.73,10A12.89,12.89,0,0,0,3042.34,2060.25Z"/><rect class="cls-17" x="3114.94" y="1238.92" width="8.28" height="82.55"/><rect class="cls-17" x="3214.09" y="1304.16" width="85.68" height="8.28" transform="translate(710.78 3724.15) rotate(-65.38)"/><rect class="cls-17" x="3334.65" y="1388.72" width="89.7" height="8.28" transform="translate(-99.78 2513.43) rotate(-40.25)"/><rect class="cls-17" x="2984.4" y="1270.74" width="8.28" height="80" transform="translate(-274.81 1308.69) rotate(-23.65)"/><rect class="cls-17" x="2879.42" y="1350.42" width="8.28" height="77.56" transform="translate(-110.43 2520.93) rotate(-46.43)"/><path class="cls-14" d="M3465.09,769.35l-650,70.47c-16.75,1.82-30.25,28-30.25,58.56v231.29c0,30.53,13.5,54.8,30.25,54.21l650-22.93c21.88-.77,39.74-30,39.74-65.19V828.83C3504.83,793.6,3487,767,3465.09,769.35Z"/><path class="cls-10" d="M2981.14,1122.24l-61.1,2.86v-161A14.24,14.24,0,0,1,2932.76,950l35.41-2.94a11.86,11.86,0,0,1,13,12.11Z"/><path class="cls-4" d="M3086,1117.34l-63.74,3V901.74a17.09,17.09,0,0,1,15.22-16.69l33-3.11a13.86,13.86,0,0,1,15.52,14Z"/><path class="cls-9" d="M3197.8,1112.12l-66.62,3.11V1039.8a10.12,10.12,0,0,1,9.45-9.88l47.49-3a8.86,8.86,0,0,1,9.68,8.79Z"/><path class="cls-12" d="M2845,885.8v212.72c0,9.8-.42,19.71,0,29.5v.41a3.69,3.69,0,0,0,3.65,3.66l15.17-.71,41.08-1.92,60.72-2.84,74.33-3.47,80.86-3.78,82.16-3.84,76.35-3.56,64.53-3,46.54-2.17c7.3-.34,14.61-.6,21.9-1l1,0c4.69-.22,4.71-7.53,0-7.31l-15.16.71L3357,1101l-60.71,2.83-74.34,3.48-80.85,3.77L3059,1115l-76.35,3.57-64.53,3-46.54,2.18c-7.25.34-14.67.25-21.9,1-.31,0-.64,0-1,0l3.66,3.65V915.71c0-9.8.42-19.7,0-29.5,0-.13,0-.27,0-.41,0-4.7-7.31-4.71-7.31,0Z"/><path class="cls-12" d="M3441.46,834.21l-241.34,23.34a6.86,6.86,0,0,1-7.81-6.81h0a8.7,8.7,0,0,1,7.81-8.36l241.34-24.06c4.74-.47,8.59,2.71,8.59,7.1h0C3450.05,829.82,3446.2,833.75,3441.46,834.21Z"/><path class="cls-12" d="M3441.46,869l-151.4,13.66c-4.46.4-8.08-2.72-8.08-7h0a8.87,8.87,0,0,1,8.08-8.46l151.4-14.1c4.74-.45,8.59,2.76,8.59,7.15h0C3450.05,864.68,3446.2,868.59,3441.46,869Z"/><polygon class="cls-12" points="2878.05 1091.45 2873.27 1088.19 2948.51 977.61 2948.94 977.3 3050.85 906.28 3170.36 1058.62 3165.82 1062.19 3049.68 914.14 2952.68 981.74 2878.05 1091.45"/><path class="cls-18" d="M1995.83,1289.57c-2.41,8.73-11.39,13.2-19.92,11.3a12.41,12.41,0,0,1-1.49-.39h-.82c-1.1,0-2.21,0-3.3,0l-1.06,0a33.2,33.2,0,0,0-3.66.8c-4.24,1.12-7.3,2.6-12.13,5.94a29.37,29.37,0,0,0-4.6,4.11c-.81.81-1.56,1.67-2.35,2.5-.31.34-.58.6-.79.81h0a6,6,0,0,1-.45.66,76.28,76.28,0,0,0-8,14c-4.4,10.3-7,23-9.36,34.46q-7.79,38.68-12.11,77.85c-6.07,54.31-7.92,109-7.53,163.65.81,109.87,10.6,219.4,14,329.18,1.7,54.61,1.83,109.3-1.55,163.85-3.26,52.67-8.7,106.39-25.72,156.64-16.1,47.55-43,90.91-80.42,124.67-36.67,33.14-85.91,62-137.18,57-47.92-4.72-87-35.4-116.43-71.8q-1.8-2.23-3.58-4.49c-29.83-37.91-53.46-80.32-71-125.22-3.2-8.19,3.55-17.77,11.31-19.9a15,15,0,0,1,9.36.32c4.77,1.74,8.54,5.87,10.54,11,4.21,10.75,8.53,20.7,13.73,31.36a487.25,487.25,0,0,0,36.59,62.24c4.48,6.55,9,12.86,13.79,19a246.2,246.2,0,0,0,28.36,31q3.59,3.32,7.33,6.43c.91.76,1.82,1.5,2.73,2.24l.89.72.12.09a1,1,0,0,1,.13.09l0,0c4.07,3.08,8.31,6,12.67,8.64a155,155,0,0,0,15.2,8.14l.86.4.44.2-.14-.07c1.23.51,2.47,1,3.7,1.42q3.63,1.34,7.33,2.43c20.85,6.14,41.48,4.76,63.17-2.53,42.12-14.16,80-48.21,105.08-84,28.63-40.92,43-88.2,50.83-137.25,8.1-50.79,10.15-104.58,10.61-156.72.47-54.37-1.61-108.75-4.35-163-5.48-108.34-13.75-216.82-9.76-325.38,2-54.57,7.23-109.12,17.14-162.85,4.47-24.27,9-50.34,23.79-70.77,15.28-21.08,40.34-34.25,66.56-28.48l.09,0C1993.09,1271.58,1998,1281.46,1995.83,1289.57Z"/><path class="cls-5" d="M1984,1275.34c-2.39,8.72-11.38,13.19-19.9,11.3-.82-.19-1.28-.32-1.53-.4h-.78c-1.11,0-2.22,0-3.32,0l-1.06,0a34.18,34.18,0,0,0-3.64.8c-4.26,1.12-7.31,2.6-12.14,5.94A29.45,29.45,0,0,0,1937,1297c-.81.8-1.55,1.66-2.35,2.49l-.72.75h0l0,0a7.38,7.38,0,0,1-.46.68,75.7,75.7,0,0,0-8,14c-4.41,10.29-7,23-9.37,34.45q-7.75,38.68-12.11,77.85c-6.07,54.32-7.91,109-7.51,163.65.81,109.87,10.59,219.4,14,329.18,1.69,54.61,1.82,109.3-1.54,163.85-3.26,52.69-8.72,106.39-25.74,156.65-16.1,47.54-43,90.9-80.4,124.66-36.69,33.15-85.92,62-137.19,57-43.57-4.29-79.86-30.05-108.18-62.05-29.83-37.91-53.46-80.32-71-125.22-3.2-8.19,3.55-17.77,11.31-19.9a15,15,0,0,1,9.36.32c3.81,9.52,7.78,18.53,12.43,28.11a491.87,491.87,0,0,0,36.59,62.23,326.86,326.86,0,0,0,25.63,33.22,246.2,246.2,0,0,0,28.36,31q3.59,3.32,7.33,6.43c.91.76,1.82,1.5,2.73,2.24l.89.72.12.09a1,1,0,0,1,.13.09l0,0c4.07,3.08,8.31,6,12.67,8.64a155,155,0,0,0,15.2,8.14l.86.4.3.13c1.23.51,2.47,1,3.7,1.42q3.63,1.34,7.33,2.43c20.85,6.14,41.48,4.76,63.17-2.53,42.12-14.16,80-48.21,105.08-84,28.63-40.92,43-88.2,50.83-137.25,8.1-50.79,10.15-104.58,10.61-156.72.47-54.37-1.61-108.75-4.35-163-5.48-108.34-13.75-216.82-9.76-325.38,2-54.57,7.23-109.12,17.14-162.85,4.47-24.27,9-50.34,23.79-70.77,15.28-21.08,40.34-34.25,66.56-28.48A15.18,15.18,0,0,1,1984,1275.34Z"/><path class="cls-18" d="M2665.19,1289.57c2.4,8.73,11.38,13.2,19.91,11.3a12.41,12.41,0,0,0,1.49-.39h.82c1.1,0,2.21,0,3.31,0l1.05,0a33.2,33.2,0,0,1,3.66.8c4.24,1.12,7.31,2.6,12.14,5.94a30.3,30.3,0,0,1,4.6,4.11c.81.81,1.56,1.67,2.34,2.5.31.34.58.6.79.81h0a6,6,0,0,0,.45.66,75.71,75.71,0,0,1,7.95,14c4.41,10.3,7.05,23,9.36,34.46q7.79,38.68,12.12,77.85c6.06,54.31,7.91,109,7.52,163.65-.81,109.87-10.6,219.4-14,329.18-1.7,54.61-1.82,109.3,1.55,163.85,3.26,52.67,8.7,106.39,25.73,156.64,16.1,47.55,43,90.91,80.41,124.67,36.67,33.14,85.91,62,137.19,57,47.91-4.72,87-35.4,116.42-71.8,1.21-1.49,2.4-3,3.59-4.49,29.83-37.91,53.45-80.32,71-125.22,3.2-8.19-3.55-17.77-11.31-19.9a15,15,0,0,0-9.36.32c-4.77,1.74-8.54,5.87-10.54,11-4.2,10.75-8.53,20.7-13.73,31.36a487.25,487.25,0,0,1-36.59,62.24c-4.48,6.55-9,12.86-13.79,19a246.2,246.2,0,0,1-28.36,31q-3.58,3.32-7.32,6.43l-2.74,2.24-.89.72-.12.09-.13.09,0,0c-4.07,3.08-8.31,6-12.67,8.64a156,156,0,0,1-15.19,8.14l-.87.4-.44.2.14-.07c-1.23.51-2.46,1-3.7,1.42-2.42.89-4.85,1.7-7.33,2.43-20.85,6.14-41.48,4.76-63.17-2.53-42.11-14.16-80-48.21-105.08-84-28.63-40.92-43-88.2-50.83-137.25-8.1-50.79-10.14-104.58-10.61-156.72-.47-54.37,1.61-108.75,4.35-163,5.48-108.34,13.75-216.82,9.77-325.38-2-54.57-7.24-109.12-17.14-162.85-4.48-24.27-9-50.34-23.8-70.77-15.28-21.08-40.34-34.25-66.56-28.48l-.09,0C2667.93,1271.58,2663,1281.46,2665.19,1289.57Z"/><path class="cls-5" d="M2677,1275.34c2.39,8.72,11.38,13.19,19.9,11.3.82-.19,1.29-.32,1.53-.4h.78c1.11,0,2.22,0,3.32,0l1.06,0a34.18,34.18,0,0,1,3.64.8c4.26,1.12,7.31,2.6,12.14,5.94A29,29,0,0,1,2724,1297c.81.8,1.55,1.66,2.35,2.49l.72.75h0l0,0a7.38,7.38,0,0,0,.46.68,76.34,76.34,0,0,1,8,14c4.4,10.29,7,23,9.36,34.45q7.77,38.68,12.11,77.85c6.07,54.32,7.92,109,7.51,163.65-.81,109.87-10.58,219.4-14,329.18-1.7,54.61-1.83,109.3,1.53,163.85,3.26,52.69,8.72,106.39,25.74,156.65,16.1,47.54,43,90.9,80.4,124.66,36.69,33.15,85.92,62,137.19,57,43.57-4.29,79.86-30.05,108.19-62.05,29.83-37.91,53.45-80.32,71-125.22,3.2-8.19-3.55-17.77-11.31-19.9a15,15,0,0,0-9.36.32c-3.81,9.52-7.78,18.53-12.43,28.11a490.68,490.68,0,0,1-36.59,62.23A325.43,325.43,0,0,1,3079.3,2339a246.2,246.2,0,0,1-28.36,31q-3.58,3.32-7.32,6.43l-2.74,2.24-.89.72-.12.09-.13.09,0,0c-4.07,3.08-8.31,6-12.67,8.64a156,156,0,0,1-15.19,8.14l-.87.4-.3.13c-1.23.51-2.46,1-3.7,1.42-2.42.89-4.85,1.7-7.33,2.43-20.85,6.14-41.48,4.76-63.17-2.53-42.11-14.16-80-48.21-105.08-84-28.63-40.92-43-88.2-50.83-137.25-8.1-50.79-10.14-104.58-10.61-156.72-.47-54.37,1.61-108.75,4.35-163,5.48-108.34,13.75-216.82,9.77-325.38-2-54.57-7.24-109.12-17.14-162.85-4.48-24.27-9-50.34-23.8-70.77-15.28-21.08-40.34-34.25-66.56-28.48A15.18,15.18,0,0,0,2677,1275.34Z"/><path class="cls-19" d="M1996.06,1214.9s-63.24,26.85-47.43,73.64,55.65,43,74.63,25.93,22.82-69.56,22.82-69.56Z"/><path class="cls-19" d="M2682.75,1198.4s63.24,26.84,47.43,73.64-55.65,43-74.62,25.93-22.82-69.56-22.82-69.56Z"/><path class="cls-19" d="M2237.37,2314.15a318.24,318.24,0,0,1-9.19,60c-16.61,65.89-48.85,101.83-48.85,101.83-55.12-42.6-107.33-41.12-107.33-41.12l2.21-3,28.23-38.19a100,100,0,0,0,17-36.85l6.81-29.45,9.49-40.79,101.23,27.4Z"/><path class="cls-20" d="M2237.37,2314.15a318.24,318.24,0,0,1-9.19,60c-7.14-1.78-13.93-3.69-20.47-5.79a286.23,286.23,0,0,1-81.49-41l9.49-40.79,101.23,27.4Z"/><path class="cls-10" d="M2255.65,2456.7c-.7-22.86-.73-50.28,1.06-77,2.63-40,9.49-78.43,24.59-97.83L2236.94,2314l-.1.09-29.13,54.27L2170,2438.56c-58.19-35.07-87.34-14.94-95.83-6.64a37,37,0,0,0-2.7,3h-.05s-36.64,54.62-60.52,72a39.2,39.2,0,0,1-6.09,3.71c-21.86,10.28,47.7,81.65,157.72,36.08a67.84,67.84,0,0,0,29.76-24.46l9.39-13.67,57,2.89,0-.15C2258.48,2509.16,2256.5,2486.93,2255.65,2456.7Z"/><path class="cls-21" d="M2258.69,2511.41l-57-2.89c-64.32,105.22-243.29,26.49-190.78-1.66h0c30.61,40,183.06,69.23,215.14-83.56l29.52,33.4c.85,30.23,2.83,52.46,3,54.56Z"/><path class="cls-22" d="M2259.23,2511.43l-57-2.89s22.95-36.38,24.41-85.22l4.06,86.88Z"/><path class="cls-19" d="M2466.65,2317.38a317.92,317.92,0,0,0,4.63,60.56c11.59,67,41,105.23,41,105.23,58.19-38.32,110.14-32.89,110.14-32.89l-2-3.15-25.26-40.2a100.14,100.14,0,0,1-14.15-38l-4.56-29.88-6.38-41.39-103,19.68Z"/><path class="cls-20" d="M2466.65,2317.38a317.92,317.92,0,0,0,4.63,60.56c7.25-1.24,14.17-2.63,20.85-4.23a286.35,286.35,0,0,0,84.35-34.7l-6.38-41.39-103,19.68Z"/><path class="cls-10" d="M2430.55,2512.32l-.06.14,57,1.43h0a118,118,0,0,0,64.35,52.81c90.89,30.36,150.92-25.08,131.8-35.9a39.11,39.11,0,0,1-5.78-4.16c-22.51-19.11-54.92-76.34-54.92-76.34h-.05a32,32,0,0,0-2.46-3.16c-7.84-8.91-35.39-31.19-96.06-.61l-32.26-72.81-24.94-56.31-.1-.1-41.8-35.48c13.59,20.48,17.52,59.35,17.13,99.41-.24,26.82-2.34,54.16-4.76,76.91C2434.53,2488.21,2430.87,2510.23,2430.55,2512.32Z"/><path class="cls-21" d="M2430.49,2512.46l57,1.43c69,113.32,238.89,40.74,190.37,12.75h-.05c-33.54,37.54-187.77,55.2-208.22-99.58l-32,31.08c-3.13,30.07-6.79,52.09-7.11,54.18Z"/><path class="cls-22" d="M2430,2512.44l57,1.43s-20.14-38-17.9-86.83l-10.62,86.33Z"/><path class="cls-5" d="M2645.91,2311.23c-68.69,58.63-173.38,57.64-237.71,49.9-34.12-4.1-56.87-10.09-56.87-10.09-188,39.85-305.25-31.51-305.25-31.51,31.05-450.55,106.44-822.5,131-935.32h0c5-22.94,7.9-35.17,7.9-35.17s252.15-65.53,303,0c4.52,5.82,9.48,18.18,14.77,35.9C2557.06,1566.72,2645.91,2311.23,2645.91,2311.23Z"/><path class="cls-23" d="M2408.2,2361.13c-34.12-4.1-56.87-10.09-56.87-10.09l.14-839.08Z"/><path class="cls-23" d="M2502.79,1384.94c-182.7,73.85-325.68-.73-325.68-.73,5-22.94,7.9-35.17,7.9-35.17s252.15-65.53,303,0C2492.54,1354.86,2497.5,1367.22,2502.79,1384.94Z"/><path class="cls-9" d="M2610.08,1105.66s-43.23,3.87-77.16,16.54c-2,.75-4,1.54-5.91,2.34-15.82,6.65-28.72,15.45-32.71,26.93-.15.43-.3.88-.44,1.33-9.74,30.16-9.5,100.69-8,148.44.87,27.74,2.16,47.8,2.16,47.8-166.86,58.74-303,0-303,0,8-81.43-2.42-196.24-2.42-196.24-12.4-12-27-20-41.65-25.18-39-13.82-78.49-8.18-78.49-8.18s16-46.73,50.73-153.52,154.26-105.77,154.26-105.77h132.28s97.38-11.78,151.07,107.92S2610.08,1105.66,2610.08,1105.66Z"/><path class="cls-24" d="M2271.29,522.64s9-56.61,65.53-51.32,73.15,36.86,67.69,56.36-5.68,247.09-5.68,247.09,14.5,71.14-10.49,83.32-120.05-4.54-120.05-4.54-20.47-41.83,7.25-136.28S2271.29,522.64,2271.29,522.64Z"/><path class="cls-4" d="M2296.21,517.08s29.84-29,85.78,0-84.63,21.22-84.63,21.22Z"/><path class="cls-21" d="M2287,831.13s32.68-21.18,92.24,1.18l8.42,23.87-108.24,6.91Z"/><path class="cls-19" d="M2374,853.27c-2.13-10.2-5.21-28-5.23-44.43a94.27,94.27,0,0,1,.55-11.83l-69.85-2.64s-.32,4.58-.87,11.27c-1.09,13.24-3.29,34.83-6.34,46.21a13.5,13.5,0,0,0,4.27,13.64,58.91,58.91,0,0,0,19.09,11.17L2342,958.41,2359,877.84A83.8,83.8,0,0,0,2371,871.1C2375.58,868.06,2375,858.59,2374,853.27Z"/><path class="cls-20" d="M2368.72,808.84c-33.38,8.26-56.39,3-70.17-3.2.55-6.69.87-11.27.87-11.27l69.85,2.64A94.27,94.27,0,0,0,2368.72,808.84Z"/><path class="cls-19" d="M2461.49,707.1c-.26,25.17-33.15,38.54-46.55,42.92-14.26,28.63-38.84,54.75-80.89,53.16-42.29-1.6-64.82-29.8-76.88-59.62-13.69-5.9-43.36-21.49-41.8-45.76,1.46-21.72,14.73-25.51,22.84-25.75a27.92,27.92,0,0,1,5.22.3l20.39-120L2344,540.06l58.33,13.51,22.37,22.12,9.64,104S2461.84,675.48,2461.49,707.1Z"/><path class="cls-20" d="M2434.32,679.72S2428.1,722,2415,750C2415,750,2437.41,724.39,2434.32,679.72Z"/><path class="cls-20" d="M2243.24,672.5s3,42.57,14,71.58C2257.23,744.08,2236.78,716.8,2243.24,672.5Z"/><path class="cls-20" d="M2438.31,700.13a5.75,5.75,0,0,1,8.46-6.63c3.69,2.33,6.69,7.25,3.44,17.65-6.32,20.21-17.15,11-16.13,4.77s6.74-8.66,4.31-15.59C2438.36,700.26,2438.34,700.19,2438.31,700.13Z"/><path class="cls-20" d="M2238.11,692.55a5.74,5.74,0,0,0-7.93-7.24c-3.85,2-7.22,6.72-4.76,17.34,4.78,20.62,16.28,12.21,15.72,6s-6.06-9.14-3.11-15.87A1.19,1.19,0,0,0,2238.11,692.55Z"/><path class="cls-25" d="M2303.54,543.83S2290.92,625.78,2226,642C2226,642,2272.46,610.22,2303.54,543.83Z"/><path class="cls-20" d="M2434.34,679.72c-86.82,1-99-79.44-99-79.44-17.94,87.83-92.08,72.21-92.08,72.21l-5-.44a27.92,27.92,0,0,1,5.22.3l20.39-120L2344,540.06l58.33,13.51,22.37,22.12Z"/><path class="cls-26" d="M2434.34,679.72C2347,658,2336.8,576.39,2336.8,576.39s-16.23,76.86-93.37,96c-8.23-1.11-13.15,1.17-13.15,1.17-15.7-33.31-6.1-89-6.1-89,22.3-94.18,112.45-62.66,112.45-62.66C2490,482.19,2452.34,684,2452.34,684A26.16,26.16,0,0,0,2434.34,679.72Z"/><path class="cls-25" d="M2434.34,679.72C2347,658,2336.8,576.4,2336.8,576.4s-16.23,76.86-93.37,96c0,0,86.21-51.5,91.35-116.91C2334.78,555.44,2364.06,645.42,2434.34,679.72Z"/><path class="cls-25" d="M2362.51,591s10.7,56.61,75.64,53.21C2438.15,644.24,2387.53,630.19,2362.51,591Z"/><path class="cls-25" d="M2316.06,578.87s-18,47.9-69.51,58.66C2246.55,637.53,2282,620.48,2316.06,578.87Z"/><path class="cls-25" d="M2309.59,527.23s-53.42-6.92-69.91,72.91C2239.68,600.14,2262.59,534.79,2309.59,527.23Z"/><path class="cls-25" d="M2372.14,529.54s70.35-5.6,71.62,72.68C2443.76,602.22,2433.79,544.23,2372.14,529.54Z"/><path class="cls-20" d="M2348.11,752.9a8.92,8.92,0,0,1-3.61,5.28,11.11,11.11,0,0,1-7.21,2.06c-4.94-.17-11.65-3.68-12.56-8.83-.38-2.13-3.15-3.19-5-2.6-2.28.72-3,2.88-2.6,5,.79,4.5,4.27,7.92,7.91,10.36a24,24,0,0,0,12.57,4c8.28.28,16.36-5.3,18.29-13.48,1.17-5-6.6-6.84-7.78-1.83Z"/><path class="cls-27" d="M2365.61,677.07a9.16,9.16,0,0,1,5-4.19,11.41,11.41,0,0,1,7.67,0c4.82,1.57,10.44,6.9,9.88,12.23-.22,2.2,2.21,4,4.2,4,2.45-.07,3.74-2,4-4.2.49-4.66-2-9-4.87-12.43a24.64,24.64,0,0,0-11.23-7.5c-8.07-2.6-17.6.62-21.8,8.13-2.56,4.6,4.57,8.58,7.14,4Z"/><path class="cls-27" d="M2289.91,680.07c.42-4.43,5.65-9,9.91-9.87,4.93-1,9.95,3,13,7.13A4.09,4.09,0,0,0,2319,672c-4.69-6.37-13-11.67-21.14-9.72-7.72,1.84-15.33,8.94-16.1,17.09a4.09,4.09,0,1,0,8.14.71Z"/><ellipse class="cls-27" cx="2303.87" cy="700.94" rx="11.61" ry="7.28" transform="translate(1519.82 2977.87) rotate(-87.92)"/><ellipse class="cls-27" cx="2370.56" cy="703.36" rx="12.25" ry="7.68" transform="translate(1581.67 3046.84) rotate(-87.92)"/><polygon class="cls-12" points="2293.73 932.99 2324.6 917.14 2321.92 886.66 2298.71 878.35 2294.9 910.4 2293.73 932.99"/><polygon class="cls-12" points="2393.46 934.19 2356.91 913.79 2357.33 885.62 2378.56 878.58 2393.46 934.19"/><path class="cls-10" d="M2326.14,876.59s-33,38.34-32.41,56.4c0,0-33.14-38.11-26.29-72.84l19.58-29S2301.32,867.41,2326.14,876.59Z"/><path class="cls-21" d="M2326.14,876.59,2342,958.41,2314.72,891S2319,879.31,2326.14,876.59Z"/><polygon class="cls-21" points="2351.33 877.55 2342.02 958.41 2365.87 886.97 2351.33 877.55"/><path class="cls-10" d="M2399.71,862.41l-6.25,71.78-42.13-56.64s30.32-24.36,27.93-45.24Z"/><path class="cls-12" d="M2182.59,1152.8c-12.4-12-27-20-41.65-25.18a104.46,104.46,0,0,0,10.21-33.37c3.88-32.92,27.06-108.47,48.88-118.16C2200,976.09,2153,1062.19,2182.59,1152.8Z"/><path class="cls-12" d="M2532.92,1122.2c-18.45,6.89-34.15,16.38-38.62,29.27-.15.43-.3.88-.44,1.33h-.1c29.58-90.61-17.43-176.71-17.43-176.71,21.82,9.69,45,85.24,48.87,118.16A102.12,102.12,0,0,0,2532.92,1122.2Z"/><path class="cls-12" d="M2527,1124.54c-15.82,6.65-28.72,15.45-32.71,26.93-.15.43-.3.88-.44,1.33-9.74,30.16-9.5,100.69-8,148.44-21-90.14-147.34-50.39-220.23-71.79-73.44-21.58,5.13-48.17,114.4-51s122.76-66.86,122.76-66.86Z"/><path class="cls-10" d="M2533.3,1076.34l75.11,21.43A115.81,115.81,0,0,1,2688,1240.91l-4.38,15.36a115.8,115.8,0,0,1-143.13,79.59l-75.11-21.43a53.67,53.67,0,0,1-36.89-66.35L2467,1113.24A53.69,53.69,0,0,1,2533.3,1076.34Z"/><path class="cls-22" d="M2476.68,1317.66s38.65-29.65,64.36-123.9c18.86-69.15,2.6-114.47,2.6-114.47l-9.1-2.59s-1.22,104.56-15,126.66-46.87,113.16-46.87,113.16Z"/><path class="cls-10" d="M2433.62,1178.85c24.47-85.75,46-161.33,91.1-141.92,24.69,10.63,27,82.87,2.5,168.62s-64.26,143.31-91.1,141.92C2390.38,1345.09,2409.15,1264.6,2433.62,1178.85Z"/><ellipse class="cls-28" cx="2466.58" cy="1188.25" rx="161.46" ry="41.06" transform="translate(647.18 3234.16) rotate(-74.08)"/><ellipse class="cls-21" cx="2466.58" cy="1188.25" rx="161.46" ry="41.06" transform="translate(647.18 3234.16) rotate(-74.08)"/><path class="cls-29" d="M2483.53,1143.21c-4,14.07-10.89,24.44-15.35,23.17s-4.83-13.72-.82-27.78,10.89-24.45,15.35-23.17S2487.55,1129.14,2483.53,1143.21Z"/><path class="cls-29" d="M2458.53,1237.86c-4,14.07-10.89,24.44-15.36,23.16s-4.83-13.71-.81-27.78,10.89-24.44,15.35-23.16S2462.54,1223.79,2458.53,1237.86Z"/><path class="cls-10" d="M2209.66,1317.35l-73.79,25.58a115.8,115.8,0,0,1-147.35-71.48l-5.23-15.1A115.8,115.8,0,0,1,2054.77,1109l73.8-25.58a53.68,53.68,0,0,1,68.3,33.14l45.93,132.49A53.67,53.67,0,0,1,2209.66,1317.35Z"/><g class="cls-30"><path class="cls-22" d="M2117.45,1087.27s-14.62,46.47,18.46,138.4c24.27,67.43,63.6,95.2,63.6,95.2l8.94-3.1s-59-86.3-60.46-112.31-26.61-119.55-26.61-119.55Z"/></g><path class="cls-10" d="M2232.42,1176.19c29.21,84.26,54.95,158.51,6.9,168.5-26.32,5.47-69.66-52.36-98.87-136.61s-29.68-154.23-6.9-168.5C2172.36,1015.26,2203.21,1091.94,2232.42,1176.19Z"/><path class="cls-28" d="M2238.83,1174c29.2,84.26,35.51,158.58,14.09,166s-62.48-54.86-91.68-139.11-35.52-158.58-14.09-166S2209.62,1089.72,2238.83,1174Z"/><path class="cls-21" d="M2238.83,1174c29.2,84.26,35.51,158.58,14.09,166s-62.48-54.86-91.68-139.11-35.52-158.58-14.09-166S2209.62,1089.72,2238.83,1174Z"/><path class="cls-2" d="M2304.62,1115l-118.47,41.07a.69.69,0,0,1-.7-.16q-16.56-16.39-12.36-35.62a.69.69,0,0,1,.44-.5L2292,1078.7a19.2,19.2,0,0,1,24.43,11.86h0A19.19,19.19,0,0,1,2304.62,1115Z"/><path class="cls-2" d="M2338.54,1212.84l-118.86,41.21c-10.32-10.18-15.84-21.86-12.58-36.29l118.86-41.2a19.19,19.19,0,0,1,24.43,11.85h0A19.19,19.19,0,0,1,2338.54,1212.84Z"/></g></svg>