<?xml version="1.0" encoding="UTF-8"?><svg id="Layer_1" xmlns="http://www.w3.org/2000/svg" viewBox="0 0 512 512"><g><g><rect x="327.73829" y="305.38515" width="178.26166" height="138.89456" rx="7.0598" ry="7.0598" fill="#fff"/><path d="m506,312.44179v12.25132h-178.26321s0-12.25132,0-12.25132c0-3.89725,3.15934-7.05664,7.05664-7.05664h164.14992c3.89719,0,7.05664,3.1594,7.05664,7.05664Z" fill="#c6d7fb"/><path d="m497.09034,314.88752c0,2.40916-1.95301,4.36216-4.36216,4.36216s-4.36216-1.95301-4.36216-4.36216c0-2.40916,1.95301-4.36216,4.36216-4.36216s4.36216,1.95301,4.36216,4.36216Z" fill="#feb161"/><path d="m485.70067,314.88752c0,2.40916-1.95301,4.36216-4.36216,4.36216s-4.36216-1.95301-4.36216-4.36216c0-2.40916,1.95301-4.36216,4.36216-4.36216s4.36216,1.95301,4.36216,4.36216Z" fill="#ff6587"/><circle cx="469.94884" cy="314.88752" r="4.36216" fill="#587cf7"/></g><rect x="348.04742" y="340.92206" width="138.58685" height="85.84111" fill="#c6d7fb"/></g><g><g><rect x="303.26029" y="71.29267" width="178.26166" height="138.89456" rx="7.0598" ry="7.0598" fill="#fff"/><path d="m481.52199,78.34932v12.25132h-178.26321v-12.25132c0-3.89725,3.15934-7.05664,7.05664-7.05664h164.14992c3.89719,0,7.05664,3.1594,7.05664,7.05664Z" fill="#c6d7fb"/><path d="m472.61234,80.79505c0,2.40916-1.95301,4.36216-4.36216,4.36216s-4.36216-1.95301-4.36216-4.36216c0-2.40916,1.95301-4.36216,4.36216-4.36216s4.36216,1.95301,4.36216,4.36216Z" fill="#feb161"/><circle cx="456.8605" cy="80.79505" r="4.36216" fill="#ff6587"/><circle cx="445.47083" cy="80.79505" r="4.36216" fill="#587cf7"/></g><rect x="323.56941" y="106.82958" width="138.58685" height="85.84111" fill="#c6d7fb"/></g><g><g><path d="m6.00005,284.8641v124.77496c0,3.89736,3.16244,7.0598,7.0598,7.0598h164.14949c3.89736,0,7.05237-3.16244,7.05237-7.0598v-124.77496c0-3.89736-3.15501-7.0598-7.05237-7.0598H13.05985c-3.89736,0-7.0598,3.16244-7.0598,7.0598Z" fill="#fff"/><path d="m6,284.86094v12.25132s178.26321,0,178.26321,0v-12.25132c0-3.89725-3.15934-7.05664-7.05664-7.05664H13.05664c-3.89719,0-7.05664,3.1594-7.05664,7.05664Z" fill="#c6d7fb"/><circle cx="19.27182" cy="287.30667" r="4.36216" fill="#feb161"/><circle cx="30.66149" cy="287.30667" r="4.36216" fill="#ff6587"/><circle cx="42.05116" cy="287.30667" r="4.36216" fill="#587cf7"/></g><rect x="25.36573" y="313.3412" width="138.58685" height="85.84111" transform="translate(189.31831 712.52352) rotate(-180)" fill="#c6d7fb"/></g><g><g><path d="m72.19409,75.24963v124.77496c0,3.89736,3.16244,7.0598,7.0598,7.0598h164.14949c3.89736,0,7.05237-3.16244,7.05237-7.0598v-124.77496c0-3.89736-3.15501-7.0598-7.05237-7.0598H79.25389c-3.89736,0-7.0598,3.16244-7.0598,7.0598Z" fill="#fff"/><path d="m72.19404,75.24647v12.25132s178.26321,0,178.26321,0v-12.25132c0-3.89725-3.15934-7.05664-7.05664-7.05664H79.25069c-3.89719,0-7.05664,3.1594-7.05664,7.05664Z" fill="#c6d7fb"/><circle cx="85.46586" cy="77.6922" r="4.36216" fill="#feb161"/><circle cx="96.85553" cy="77.6922" r="4.36216" fill="#ff6587"/><circle cx="108.24521" cy="77.6922" r="4.36216" fill="#587cf7"/></g><rect x="91.55978" y="103.72673" width="138.58685" height="85.84111" transform="translate(321.7064 293.29458) rotate(-180)" fill="#c6d7fb"/></g><path d="m316.81212,310.53283l-13.60424,13.60428c-1.79972,1.79964-4.72312,1.79964-6.51594,0l-7.0883-7.0814c-3.81997,2.24785-7.86738,4.15779-12.25281,5.50927v10.23251c0,2.5857-2.02025,4.606-4.60596,4.606h-19.3342c-2.11688,0-3.86139-1.35148-4.41994-3.26146-.12407-.4206-.19292-.87566-.19292-1.34453v-9.2189c-2.30306-.55851-4.54401-1.26184-6.72283-2.09617l7.109-18.886c3.75786,1.42731,7.83287,2.20648,12.09406,2.20648,13.39062,0,25.00895-7.66747,30.57343-18.92047l21.0511,1.33767c-1.02048,3.18558-2.30306,6.2333-3.84758,9.14996l3.10975,3.06838,4.64737,4.57839c1.79972,1.79968,1.79972,4.72325,0,6.51598Z" fill="#587cf7"/><path d="m277.85417,218.83341l-5.9919,19.28593c-4.10262-1.74451-8.61211-2.70986-13.3423-2.70986-15.80377,0-29.13227,10.67382-32.95915,25.31234l-19.26518-6.41944c.64138-2.16511,1.39975-4.27504,2.28926-6.3229.77218-1.80654,1.64115-3.56481,2.60641-5.26105l-6.40568-6.40564c-1.79956-1.79968-1.79956-4.72325,0-6.52289l13.59734-13.71459c1.79972-1.79964,4.72329-1.79964,6.52284,0l6.40568,6.40564c4.04757-2.35815,8.32257-4.15779,12.92852-5.39202v-9.674c0-2.5857,2.02715-4.606,4.61286-4.606h19.22394c2.5857,0,4.60596,2.02029,4.49569,4.606v9.674c1.78575.50334,3.55787,1.08251,5.28167,1.74447Z" fill="#cf3367"/><path d="m247.11542,303.28596l-7.109,18.886c-2.17899-.82743-4.28897-1.78584-6.31612-2.85463l-6.74337,6.74354c-1.79972,1.79964-4.72329,1.79964-6.52301,0l-13.60424-13.59738c-1.79956-1.79964-1.79956-4.7232,0-6.52284l6.07472-6.06778c-2.47544-4.04749-4.49569-8.43287-5.84713-13.15608h-8.99138c-2.5857,0-4.61286-2.02029-4.61286-4.606v-19.34106c0-2.5857,2.02715-4.60604,4.61286-4.60604h8.42593c.15858-.59988.32405-1.19976.50334-1.79274l19.26518,6.41944c-.71696,2.75118-1.10313,5.64718-1.10313,8.63972,0,14.60406,9.14306,26.98783,21.96822,31.85585Z" fill="#ff6587"/><path d="m327.34803,258.90838v19.3342c0,2.5857-2.02025,4.606-4.60596,4.606h-10.34282c-.26901,1.01358-.55855,2.00649-.87571,2.9925l-21.0511-1.33767c2.23404-4.51636,3.48902-9.61883,3.48902-15.03156,0-14.12828-8.55016-26.1811-20.72015-31.35251l5.9919-19.28593c2.50978.95844,4.93018,2.08927,7.19856,3.42694l7.41926-7.41926c1.79972-1.79964,4.71639-1.79964,6.51611,0l13.7145,13.59734c1.79972,1.79964,1.79972,4.72325,0,6.52289l-7.30209,7.30891c2.24785,3.70963,3.93041,7.75711,5.17141,12.02525h10.90137c2.47544,0,4.60596,2.02719,4.49569,4.6129Z" fill="#feb161"/><g><path d="m316.73768,341.10545l10.17133-9.27107-11.45734-17.06875-5.90405-9.90222c-7.29518.93535-.65461,9.35281-.65461,9.35281l-5.61158,10.45181,3.64759-.46767,9.28279,14.5669.52587,2.3382Z" fill="#f3dade"/><path d="m368.25962,426.35175l1.37904-20.68564-.06212-19.91338c-.66882-4.24747-.45502-8.59145.62757-12.75614l6.62621-25.40888,14.71444-1.37904,9.19137,1.84105,22.06468,7.81225c-3.37876,2.896-3.20637,12.75614-2.28926,21.4717.83429,7.89503,2.28926,14.84541,2.28926,14.84541l.53768,21.37516.37927,14.94191-55.45815-2.1444Z" fill="#feb161"/><path d="m376.83302,347.59116l-21.14532-2.75809-35.85511-26.66149-11.03234,11.9517s18.84691,28.04053,29.41957,35.39543,34.47606,11.03234,34.47606,11.03234l4.13713-28.95989Z" fill="#feb161"/><g><g><path d="m388.98806,351.78277c1.02456-2.1938.59097-4.17658.3802-6.51931-.52915-5.8816-1.0583-11.76319-1.58745-17.64479-.4196-4.66392-.8392-9.32784-1.25879-13.99176.01109.12324-4.25426,3.6183-4.60694,4.11671-2.7983,3.95454-2.09188,8.03013-1.25558,12.43801.45891,2.41877-.49069,4.88658-1.71616,7.02182-1.3171,2.29488-4.20955,5.05362-2.78826,7.86653.54449,1.07761,1.60233,1.89072,2.79129,2.10068,1.18874.20992,2.61178-.09221,3.45191.77459.24411.25186.39998.57396.59783.86358,1.06323,1.55641,3.15328,1.98121,5.03462,2.09705.1905.01173.39666.02768.54026.15342.1218.10665.17258.27014.24185.41646.18463.38999.53927.69577.95219.821l-.77696-.51398Z" fill="#32235a"/><g><path d="m406.436,354.65456c-.00161-.30159-.02903-.60466-.07521-.90553-.12193-.77198-.18189-1.62737-.19241-2.53797l.26762,3.44351Z" fill="#f3dade"/><path d="m385.99241,357.20437c6.27362,2.56211,16.355.27192,19.68993-6.21609,2.46046-4.78675,1.92466-12.48053,3.43897-17.86884l-15.363,5.01266-5.18304,1.69412-1.57607,13.38731c-.00763.17006-.01758.33894-.0334.50775l-.97339,3.48309Z" fill="#f3dade"/></g><path d="m386.99932,353.21416c11.63688-.524,16.35731-12.01841,16.35731-12.01841l-9.5977-3.06313-5.1843,1.69432-1.57531,13.38723Z" fill="#dc7b8e"/><path d="m389.79703,312.94928s-6.775.95006-6.98445,11.7005c0,0-3.94063,14.26427.51167,19.6292,0,0,2.10856,5.44555,13.44037,1.82721,1.30538-.41682,2.52203-1.07747,3.57822-1.95052,1.97888-1.63577,5.30562-4.64113,7.03445-7.64288,2.56061-4.44598,5.58281-11.46364,5.58281-11.46364l-1.42272-9.11089s-18.25235-10.70878-21.74036-2.98898Z" fill="#f3dade"/><path d="m389.42626,316.37956s-4.66704,2.05873-6.75163,7.41126c0,0-.44746-15.13543,10.83657-9.23019l-4.08494,1.81894Z" fill="#32235a"/><path d="m380.72554,319.55523s7.52756-16.10557,20.96158-12.58419c8.90211,2.33345,15.6489,8.24886,15.3123,18.19824-.10236,3.02566-.5674,6.30993,1.27072,8.97761,1.07485,1.55993,2.99397,2.37133,4.03889,3.90012.74449,1.08924,1.50031,3.79184.88769,5.11248-.2325.50121-.67013.87185-1.09452,1.22562-.6885.57394-1.43039,1.17183-2.32016,1.28023-.37511.0457-.7602.00067-1.12916.08234-.95133.21057-1.50932,1.15856-2.12526,1.91353-1.47064,1.8026-3.86156,2.81127-6.17896,2.60674-.8749-.07721-1.73496-.31517-2.61324-.31892-1.1817-.00505-3.68034.73442-4.38086-.60845-.65037-1.24673.34558-4.83735.74671-6.11036,1.04422-3.31387,3.20003-4.26368,5.95285-5.86613l-2.12423-7.63589c1.05857-1.23469-1.77081-2.81112-3.26036-6.66001-2.83458-7.32435-17.56605-10.0883-23.944-3.51295Z" fill="#32235a"/><path d="m408.55215,339.3145c.91127-.2303,2.57231-.64998,3.74062-2.19317,1.18912-1.57079,1.4896-3.80626.6815-5.56939-.20676-.45115-.53839-1.17468-1.27505-1.61812-1.28345-.77262-3.27227-.37925-5.11075,1.03837-.49763.38371-.84503.9351-1.01334,1.54053-.96809,3.48225-.79298,6.23605.46497,6.92426.6406.35038,1.50226.13269,2.51206-.12249Z" fill="#f3dade"/><path d="m393.85329,321.96367c1.90797,2.11288,4.05777,4.25955,6.42909,5.853,1.98415,1.33328,2.82221,2.90511,2.97729,5.39949.12542,2.01726-.17689,4.05333.08293,6.05772.25983,2.0044,1.2544,4.0969,3.12113,4.8718-1.01586-2.1278-1.15035-4.66035-.36556-6.88377.88201-2.49885,3.23778-4.81959,3.54221-7.50201.24768-2.18235-2.20416-3.85835-3.16411-5.65169-.99075-1.85087-1.96498-3.66651-3.26936-5.32408-3.66824-4.66152-8.80256-6.28338-13.78066-2.40455-.18801.14652,4.15965,5.288,4.42704,5.58411Z" fill="#32235a"/></g><path d="m407.76575,336.83834l.52498-.08153c-.56808-3.63898,2.59526-4.31931,2.73037-4.34627l-.10318-.52079c-.0383.00739-3.79926.79952-3.15217,4.94858Z" fill="#dc7b8e"/><path d="m408.15741,334.58329c1.08071-.58888,2.71588.5107,2.73156.52137l.29968-.43832c-.07784-.05349-1.91995-1.29461-3.28524-.54931l.254.46626Z" fill="#dc7b8e"/><g><path d="m388.02035,328.75334c.03634.36789.00799.79236-.07695,1.15215-.08494.35979-.17393.78021-.31951,1.13595-.29116.71147-.69955,1.3542-1.22516,1.9282-.26281.287-.58221.5093-.79247.92163-.14963.41638-.17798.84085-.02441,1.27748.15762.37599.37992.69538.72756.96224.287.26281.63868.46903.99037.67525-.287-.26281-.63463-.52967-.86099-.78843-.287-.26281-.5093-.58221-.60628-.95414s-.13332-.73982.06885-1.03087c.14153-.2951.46498-.57804.72779-.86504.58626-.56994.99869-1.27331,1.23326-2.04948.14558-.35574.17393-.78021.26292-1.20064-.03634-.36789-.00799-.79236-.10497-1.1643Z" fill="#dc7b8e"/><path d="m388.5328,336.58404c-.23851-.07684-.48917.02824-.566.26675.05659.06469.12128.0081.18597-.04849s.18597-.04849.3032.02025c.18192.01215.41638.14963.5417.09709.01215-.18192-.28295-.32345-.46486-.3356Z" fill="#dc7b8e"/><g><path d="m390.52141,339.64053c-.06874.11723-.19002.10913-.3113.10103l-.36384-.0243-.72767-.0486c-.48512-.0324-.96618-.12544-1.44724-.21848-.48106-.09304-.95808-.24672-1.43509-.4004-.47701-.15368-.95403-.30736-1.29356-.6955.27485.44473.74376.71969,1.21672.934s.94998.368,1.43104.46104,1.02277.19013,1.51193.16189c.24256.0162.48917-.02824.79236-.00799.12128.0081.24661-.04444.37194-.09698.06064.00405.24661-.04444.25471-.16572Z" fill="#dc7b8e"/><path d="m388.01888,340.63067c-.10913-.19002-.22636-.25876-.40422-.33155-.12128-.0081-.3032-.02025-.49727.14952.10913.19002.22636.25876.40422.33155.12128.0081.3032.02025.49727-.14952Z" fill="#dc7b8e"/></g><ellipse cx="394.00666" cy="335.79235" rx="1.09394" ry="2.6133" transform="translate(32.7033 706.54514) rotate(-86.17885)" fill="#dc7b8e"/><ellipse cx="383.59033" cy="332.10835" rx="1.09389" ry="1.76238" transform="translate(-119.3859 398.8347) rotate(-48.44256)" fill="#dc7b8e"/><ellipse cx="384.96264" cy="328.89843" rx="1.27628" ry=".7293" transform="translate(3.67911 662.05497) rotate(-81.6556)" fill="#32235a"/><ellipse cx="393.89242" cy="331.63419" rx="1.27628" ry=".7293" transform="translate(8.60617 673.22895) rotate(-81.6556)" fill="#32235a"/><path d="m396.91802,330.50491c.25066-.10508.45688-.45676.3518-.70742-.9376-2.3772-3.37128-2.41793-3.49256-2.42603-.3032-.02025-.566.26675-.65095.62653-.02025.3032.26675.56601.56994.58626.12938-.11318,1.83133-.06041,2.44965,1.62545.04849.18597.22231.3194.46486.3356.12128.0081.18597-.04849.30725-.04039Z" fill="#32235a"/><path d="m384.46311,326.38391c1.43521-.51324,2.62369-.0684,2.62369-.0684.29915.08089.61044-.02014.75197-.31523s-.02014-.61044-.31523-.75197c-.06064-.00405-1.54827-.52978-3.35137.0198-.3113.10103-.51752.45271-.41244.70337.04849.18597.2789.38409.46081.39624l.24256.0162Z" fill="#32235a"/></g></g><path d="m382.73957,409.11371s1.17905.17928,3.62689.21375c-1.38594.11721-2.62021.05517-3.62689-.21375Z" fill="#32235a"/><g opacity=".25"><path d="m377.91292,418.42225c16.96902-2.37886,32.93845-11.77013,33.42798-12.05972-12.50784,2.62707-20.68564,3.02697-24.97444,2.96493,10.97022-.87571,31.88346-12.28037,31.88346-12.28037l-6.01951-18.65844-2.25475.04137,10.53591-1.09636c.83429,7.89503,2.28926,14.84541,2.28926,14.84541l.53768,21.37516-45.42558,4.86802Z" fill="#32235a"/></g><path d="m369.98254,376.04134l-.68817-.04916c1.37568-19.26013,6.82518-22.87743,7.05682-23.02186l.36496.58448-.18248-.29224.1845.29123c-.05387.03468-5.39227,3.67453-6.73563,22.48755Z" fill="#ec7738"/><path d="m377.25753,410.14639l-.06868-.68615c13.57899-1.35783,32.80276-9.54455,32.99534-9.62704l.27204.63363c-.19393.08316-19.51399,8.31095-33.1987,9.67956Z" fill="#ec7738"/><rect x="344.69608" y="349.3926" width="13.17986" height=".6895" transform="translate(-143.63378 377.53093) rotate(-48.08765)" fill="#ec7738"/><g><path d="m407.2903,423.30147s-4.31496,2.70788-11.19199,1.30925c-6.87702-1.39863-8.64839-1.71183-5.54414,1.39449,0,0,4.33986.76735,2.64558,3.52722-.4686.76331-1.19445,1.33155-2.02254,1.67287-2.57822,1.06266-9.80422,4.15051-9.43178,5.23044,0,0,.09357.63307.96077,1.53994,0,0-.24338,3.31362,2.02321,2.89235,0,0,.10859,2.48531,2.72675,2.40021,0,0,1.86764.67274,4.43151-.65501,0,0-.36005,1.64891,2.30509,1.29811,0,0,6.71626-2.53676,12.56135-6.34186,7.19948-4.6868,7.97349-5.57749,7.97349-5.57749,0,0-2.13024-10.03559-7.13244-8.86496l-.30486.17444Z" fill="#f3dade"/><g><path d="m396.34437,440.95769c-.0098.00686-.02023.01324-.03124.01881l-4.21319,2.13191c-.12576.06365-.27931.01324-.34295-.11253s-.01289-.27925.11253-.34295l4.21319-2.13191c.12576-.06365.27931-.01324.34295.11253.05808.11476.02121.25245-.08129.32414Z" fill="#dc7b8e"/><path d="m394.76674,437.86987c-.0051.00357-.01056.00708-.01615.01038-.27491.16341-6.77385,4.00065-10.036,3.56287-.13984-.01864-.2377-.14723-.21911-.28673.01885-.13998.14785-.23812.28673-.21911,3.08702.41432,9.64182-3.45651,9.70778-3.49566.12115-.07198.27764-.03214.34962.08901.06867.11556.03555.2634-.07286.33923Z" fill="#dc7b8e"/><path d="m393.79915,433.65715c-.00408.00286-.00831.00551-.01254.00816-.29065.17959-7.16656,4.40123-10.95452,4.83147-.14004.01585-.26629-.08466-.28229-.2249-.01536-.13977.0846-.26595.2249-.28229,3.67454-.41719,10.67379-4.71507,10.74408-4.75847.11972-.07402.27705-.0369.35101.08318.07136.1155.03941.26587-.07064.34285Z" fill="#dc7b8e"/></g></g><g><path d="m422.80116,355.86541s25.74208,29.87927,27.12112,51.02458c0,0-11.49202,18.84691-39.99223,29.41957l-7.81457-15.62915,23.44372-18.38723-13.3308-23.9034c-3.7651-10.57972-.44105-18.17224,10.57277-22.52438Z" fill="#feb161"/><path d="m413.42575,380.19935c-1.14808-8.61195-.21076-14.31531,2.78704-16.95118,2.3709-2.0854,5.11417-1.38544,5.22865-1.3548l-.17709.66629c-.02424-.00606-2.5177-.63027-4.60579,1.21441-1.92918,1.70428-3.93714,5.92153-2.54867,16.33438l-.68413.0909Z" fill="#ec7738"/><rect x="431.7301" y="397.95304" width=".68942" height="14.12198" transform="translate(-108.15131 647.6676) rotate(-67.33663)" fill="#ec7738"/></g></g><g><path d="m212.45076,297.98815l-3.64759-.46887-1.37904,2.17201s-.0069.0069-.02761.02757c-.36547.4275-4.81975,5.59891-10.72209,12.1356l-7.85357-6.70217,8.94997-13.33536,2.50995-3.73029,5.90217-9.90152c7.29519.93084.65501,9.34991.65501,9.34991l5.6128,10.45312Z" fill="#f3dade"/><path d="m207.42413,299.69129s-.0069.0069-.02761.02757c-.36547.4275-4.81975,5.59891-10.72209,12.1356-10.54971,11.70116-25.70537,27.7739-30.27682,28.86335l-9.30854,2.75809-6.20569-20.68564,10.34282-4.48189,36.54463-26.49144,1.03428-.74465,8.61902,8.61902Z" fill="#f3dade"/><path d="m147.4698,399.67178l-1.37904-20.68564.06212-19.91338c.66882-4.24747.45502-8.59145-.62757-12.75614l-6.62621-25.40888-14.71444-1.37904-9.19137,1.84105-22.06468,7.81225c3.37876,2.896,3.20637,12.75614,2.28926,21.4717-.83429,7.89503-2.28926,14.84541-2.28926,14.84541l-.53768,21.37516-.37927,14.94191,55.45815-2.1444Z" fill="#587cf7"/><path d="m170.45191,342.56572c-11.59072,4.86802-27.4152,7.30201-27.4152,7.30201l-4.13713-28.95989,21.14066-2.75809.79288-.58608,9.61879,25.00205Z" fill="#587cf7"/><path d="m132.98985,382.43374s-1.17905.17928-3.62689.21375c1.38594.11721,2.62021.05517,3.62689-.21375Z" fill="#32235a"/><g opacity=".25"><path d="m137.8165,391.74228c-16.96902-2.37886-32.93845-11.77013-33.42798-12.05972,12.50784,2.62707,20.68564,3.02697,24.97444,2.96493-10.97022-.87571-31.88346-12.28037-31.88346-12.28037l6.01951-18.65844,2.25475.04137-10.53591-1.09636c-.83429,7.89503-2.28926,14.84541-2.28926,14.84541l-.53768,21.37516,45.42558,4.86802Z" fill="#32235a"/></g><g opacity=".25"><path d="m145.74672,349.36145c-1.34335-18.81302-6.68176-22.45287-6.73563-22.48755l.36698-.58347c.23164.14444,5.68114,3.76173,7.05682,23.02186l-.68817.04916Z" fill="#32235a"/></g><g opacity=".25"><path d="m138.47173,383.46649c-13.68471-1.36861-33.00477-9.5964-33.1987-9.67956l.27204-.63363c.19258.08249,19.41635,8.26921,32.99534,9.62704l-.06868.68615Z" fill="#32235a"/></g><g><path d="m108.43912,396.6215s4.31496,2.70788,11.19199,1.30925c6.87702-1.39863,8.64839-1.71183,5.54414,1.39449,0,0-4.33986.76735-2.64558,3.52722.4686.76331,1.19445,1.33155,2.02254,1.67287,2.57822,1.06266,9.80422,4.15051,9.43178,5.23044,0,0-.09357.63307-.96077,1.53994,0,0,.24338,3.31362-2.02321,2.89235,0,0-.10859,2.48531-2.72675,2.40021,0,0-1.86764.67274-4.43151-.65501,0,0,.36005,1.64891-2.30509,1.29811,0,0-6.71626-2.53676-12.56135-6.34186-7.19948-4.6868-7.97349-5.57749-7.97349-5.57749,0,0,2.13024-10.03559,7.13244-8.86496l.30486.17444Z" fill="#f3dade"/><g><path d="m119.38505,414.27772c.0098.00686.02023.01324.03124.01881l4.21319,2.13191c.12576.06365.27931.01324.34295-.11253s.01289-.27925-.11253-.34295l-4.21319-2.13191c-.12576-.06365-.27931-.01324-.34295.11253-.05808.11476-.02121.25245.08129.32414Z" fill="#dc7b8e"/><path d="m120.96269,411.1899c.0051.00357.01056.00708.01615.01038.27491.16341,6.77385,4.00065,10.036,3.56287.13984-.01864.2377-.14723.21911-.28673-.01885-.13998-.14785-.23812-.28673-.21911-3.08702.41432-9.64182-3.45651-9.70778-3.49566-.12115-.07198-.27764-.03214-.34962.08901-.06867.11556-.03555.2634.07286.33923Z" fill="#dc7b8e"/><path d="m121.93027,406.97718c.00408.00286.00831.00551.01254.00816.29065.17959,7.16656,4.40123,10.95452,4.83147.14004.01585.26629-.08466.28229-.2249.01536-.13977-.0846-.26595-.2249-.28229-3.67454-.41719-10.67379-4.71507-10.74408-4.75847-.11972-.07402-.27705-.0369-.35101.08318-.07136.1155-.03941.26587.07064.34285Z" fill="#dc7b8e"/></g></g><g><path d="m90.17023,375.61321l22.44472,22.67962-5.17141,11.03234s-31.37322-13.79043-38.61319-28.95989l1.37904-8.96378,3.10285-10.68758,19.3066,6.89521-2.4486,8.00407Z" fill="#f3dade"/><path d="m103.4995,351.70878l-12.13564,21.76819-21.85779-7.55717c7.46067-18.20338,23.42302-36.73771,23.42302-36.73771,11.01163,4.35778,14.33517,11.94942,10.57042,22.52669Z" fill="#587cf7"/><g opacity=".25"><path d="m102.99303,353.51945l-.68413-.0909c1.07334-8.04565.14545-13.6332-2.68132-16.15931-2.31771-2.07025-5.13841-1.3952-5.16737-1.38847l-.16699-.66865c.12861-.03266,3.20654-.76898,5.79359,1.54301,3.0483,2.72341,4.02602,8.36381,2.90622,16.76432Z" fill="#32235a"/></g></g><g><path d="m129.84563,284.39127s5.35909-.45597,3.53295,6.11019c0,0-1.14124,2.93708-.82517,8.68631l-2.20805-4.40226-3.65078-5.53602s-2.34046-5.50647,3.15104-4.85823Z" fill="#32235a"/><path d="m112.68123,328.77053c-2.59897-1.70862-3.11493-4.10158-2.85508-7.63555.52622-7.15675-3.1708-14.16408-3.1708-14.16408l15.32697,4.48586s5.1721,1.51665,5.17211,1.51676c.29681,4.29913.54648,8.2184,1.13766,12.36446.63343,4.44236-2.23525,5.92216-6.42291,5.73265-2.36886-.1072-4.76768-.34406-6.97997-1.19771-.86374-.33328-1.59398-.69874-2.20797-1.10239Z" fill="#f9dae1"/><path d="m128.62957,325.13902c-11.51023-.16528-16.0147-9.90204-16.0147-9.90204l9.38741-3.31616,5.17212,1.51665c.70543,4.70201-.78981,9.93847,1.45517,11.70154Z" fill="#dc7b8e"/><path d="m125.13333,286.46196s6.72078.73333,7.25309,11.34574c0,0,4.32417,13.97026.08881,19.40426,0,0-1.91788,5.44268-13.22043,2.2117-1.30201-.3722-2.52376-.98792-3.59343-1.81831-2.00416-1.55582-5.38113-4.42366-7.17966-7.33632-2.66384-4.314-5.86146-11.15422-5.86146-11.15422l1.12949-9.04236s17.7046-11.13015,21.38358-3.6105Z" fill="#f9dae1"/><g><ellipse cx="129.77336" cy="299.97531" rx=".81957" ry="1.37277" transform="translate(-34.7936 17.58546) rotate(-6.83818)" fill="#32235a"/><ellipse cx="119.94981" cy="302.72167" rx=".81957" ry="1.37277" transform="translate(-35.19048 16.43535) rotate(-6.83818)" fill="#32235a"/><path d="m116.97823,301.3485c.17838-.02139.34034-.13522.41474-.31265.78571-1.87067,2.74274-1.84828,2.76103-1.84819.28574.00837.52113-.21907.52756-.50408s-.21932-.5211-.50408-.52756c-.10878-.00345-2.68133-.03096-3.73587,2.48026-.11036.2627.01295.56513.2759.67546.08527.03596.17491.04704.26072.03675Z" fill="#202648"/><path d="m130.67185,297.14753c.18989-.02277.35958-.15047.42658-.343.09358-.26931-.04878-.56338-.31809-.65695-1.91194-.66428-3.53945-.12701-3.60802-.10407-.26996.0915-.41451.38444-.323.6544.09113.26899.38128.41565.65271.32371h0c.01321-.00412,1.37523-.4423,2.93945.10101.07653.02661.15507.03394.23037.02491Z" fill="#202648"/><path d="m127.87302,308.06524c.11508-.0138.2263-.06622.31239-.15674l1.06276-1.11794c.04393-.04638.07882-.10031.10322-.15932.1949-.47408.20677-.89145.03515-1.24113-.28705-.58429-.96455-.76977-1.56205-.93362-.2986-.08169-.67016-.18356-.79682-.3044-.47423-.45221-.48466-1.55921-.2208-2.36818.0883-.27097-.05982-.56231-.33078-.65061-.27091-.0878-.56181.05976-.65061.33078-.35547,1.09048-.35377,2.63046.4898,3.43478.31522.30074.7836.42907,1.23651.55316.34872.09548.82628.22626.90846.39303.02794.0573.01606.16988-.03165.3096l-.99134,1.04263c-.19628.20651-.18807.53316.01847.72968.11599.11019.26994.15593.4173.13826Z" fill="#dc7b8e"/><path d="m122.17208,312.65593c.58827,1.4363,1.87289,3.03176,4.65552,2.67454.46466-.06754,1.99704-.35025,2.85923-1.62189.49803-.73454.59633-1.5393.68252-2.2449.11069-.90625.03135-1.66341-.05521-2.16387,0,0-2.34855,1.06538-8.63701,1.28337,0,0,.05071.99064.49495,2.07275Z" fill="#dc7b8e"/><path d="m123.91649,312.40222l4.62702-.67297c1.15755-.16836,1.96527-1.25056,1.77475-2.40467-.00136-.00824-.00274-.0165-.00412-.02476,0,0-2.34855,1.06538-8.63701,1.28337,0,0,.00026.00505.0009.01484.07476,1.13833,1.10956,1.96839,2.23847,1.8042Z" fill="#fefcfb"/></g><path d="m132.05367,288.79353s-11.18238,6.38138-20.36169,3.00179c0,0,2.01653,5.91867-2.80541,9.29714l2.85416,7.68504-5.29861-1.60478s-1.04706-2.38946-4.17007-4.41934c-2.17688-1.41492-3.31763-5.67099-1.63527-10.58013.74509-2.17418,2.43813-3.89459,4.57048-4.75208l-.07017-1.47973s1.38592-8.71022,15.99096-6.73419c1.02209.13829,2.00492.49189,2.89602,1.01126l7.72811,4.50417s4.56385,2.25293.30149,4.07084Z" fill="#32235a"/><g><path d="m107.40608,313.072c-.90708-.1999-2.56048-.56414-3.76119-2.05307-1.22211-1.51556-1.58658-3.71455-.84175-5.48054.19057-.45188.49624-1.17659,1.21045-1.6369,1.24434-.80201,3.22071-.47366,5.07958.87094.50315.36395.86298.89807,1.04756,1.49098,1.06164,3.41029.97204,6.13566-.24966,6.85353-.62214.36548-1.47984.17654-2.48499-.04494Z" fill="#f9dae1"/><g><path d="m105.85306,311.11061c.02602-.00312.05206-.0103.07731-.02196,1.53448-.70781,2.40032-1.60343,2.57355-2.66241.25324-1.5472-1.07914-2.82584-1.13585-2.8797-.1035-.09697-.26672-.09313-.36444.01046-.098.10337-.09341.2665.00971.36453.01204.0115,1.19168,1.14857.98096,2.42396-.14513.87848-.91215,1.64373-2.27998,2.27471-.12938.05967-.18587.21288-.1262.34225.04805.10438.15687.16112.26495.14816Z" fill="#dc7b8e"/><path d="m108.14853,308.99468c.12309-.01476.22102-.1166.22675-.24443.00653-.14239-.1036-.26293-.24599-.26945-1.55865-.07144-2.69313-1.65093-2.70443-1.66684-.08221-.11627-.24384-.14358-.35945-.06221-.11627.08221-.14445.24293-.06249.35923.05198.07371,1.28857,1.80211,3.10291,1.88526.01456.00079.02869.00011.0427-.00157Z" fill="#dc7b8e"/></g></g></g></g><g><path d="m159.65641,81.69682c-5.15673,9.5442-.58223,22.22287-5.92936,31.66171-1.54963,2.73543-3.84266,4.99425-5.3784,7.7375s-2.18234,6.37377-.33225,8.91564c5.07988-.51211,10.19965-1.03212,15.077-2.5417,4.87735-1.50958,9.55591-4.09636,12.73278-8.09322,3.51184-4.41829,4.89245-10.11151,6.17975-15.6067,1.15638-4.9363,2.31276-9.8726,3.46913-14.80891.88431-3.77494-.50409-6.93007-2.88305-10.06718-6.08344-8.02217-19.0754-7.05445-22.9356,2.80286Z" fill="#32235a"/><g><path d="m227.23828,209.38497c-1.42541-5.02035,8.76607-7.63292,8.76607-7.63292,0,0,.90089.76451,5.87258,7.96156,4.16432,5.78947,7.03414,12.56499,7.03414,12.56499.46353,2.70957-1.21165,2.43507-1.21165,2.43507,1.42628,2.51737.83211,4.47826.83211,4.47826.20946,2.70353-2.33726,2.89717-2.33726,2.89717.51331,2.261-2.88682,2.16057-2.88682,2.16057-.86176.87902-1.51088,1.03957-1.51088,1.03957-1.06605.4244-4.49147-6.83365-5.70138-9.40454-.37088-.84967-1.0177-1.60814-1.78969-2.03715-2.85573-1.61275-3.45078,2.85112-3.45078,2.85112-3.03012,3.25222-2.831,1.45793-1.64552-5.63178s-1.78246-11.38412-1.78246-11.38412l-.18846-.2978Z" fill="#f3dade"/><g><path d="m245.61884,220.10794c-.15681.01582-.20055.21033-.12516.32945l2.32486,4.20089c.01582.15681.17264.14099.32945.12517s.20055-.21033.12516-.32945l-2.36255-4.26046h0c-.07539-.11912-.26989-.16286-.29176-.0656Z" fill="#dc7b8e"/><path d="m242.43048,221.79203c-.11912.07538-.16286.26989-.08747.38901.03769.05956,4.28114,6.6331,4.02994,9.79499-.02187.09725.09121.27594.24802.26011.09725.02187.27594-.09121.26011-.24802.29494-3.35639-3.87313-9.81081-4.06159-10.10861h0c-.07538-.11912-.2322-.1033-.38901-.08747Z" fill="#dc7b8e"/><path d="m238.17837,222.9815c-.11912.07539-.16286.26989-.08747.38901.03769.05956,4.76136,6.99651,5.33566,10.80378.01582.15681.15077.23824.30758.22242s.23824-.15077.22242-.30759c-.61199-3.86683-5.20072-10.72235-5.38918-11.02015h0c-.07539-.11912-.26989-.16286-.38901-.08747Z" fill="#dc7b8e"/></g></g><polygon points="206.70877 151.39122 236.00434 201.75205 227.23828 209.38497 192.09994 164.78577 206.70877 151.39122" fill="#f3dade"/><path d="m186.31633,158.42089c-1.05201.17587-1.68185.2607-1.68185.2607,0,0,.08359-1.12253.24791-2.97161.1206-1.29851.27367-2.95433.46208-4.82812,1.05017-10.19605,3.2137-26.80417,6.19678-27.12484,0,0,5.73354,7.12323,10.7234,14.29562,1.6232,2.32534,3.16178,4.66049,4.40468,6.75544l.05686.09781c.3188.5422.61291,1.06026.88809,1.56203.10182.18014.18294.35758.25053.53327,2.71995,6.87669-15.77923,10.47461-21.54848,11.41971Z" fill="#feb161"/><path d="m212.34547,155.25458l-18.13459,18.09472-7.89455-14.92841-1.43394-2.71091-1.69037-3.19631,2.15245-1.63181,16.92018-12.82922c1.6232,2.32534,3.16178,4.66049,4.40468,6.75544l.05686.09781,1.13862,2.09529,4.48065,8.25339Z" fill="#feb161"/><path d="m191.53994,123.75531l-.28955,3.86825-1.49638,19.91338-.13787,1.87548-.04141.53094c.11043.83429-.99287,4.73011-2.86835,8.41213-.06902.13791-.13787.27583-.20689.40684-.0069.0138-.0138.02071-.02071.03447l-6.50904,18.81706-3.22691,11.95628h-22.19565c-.26901.15172-.58616.3241-.95853.50334,0,0-1.84097-.28269-2.93047.38617l-2.95807-.88951-7.79162-2.33749-8.68787-2.60637-8.93617-2.68225-.87571-.26202.19999-.5378,4.99903-13.47327,3.06143-8.24665,2.49598-6.72283,1.88238-5.07491s3.62689-6.10915,6.97804-13.30775c2.3236-5.00593,3.93714-10.32902,4.25429-14.54198.11026-1.52386.05522-2.9098-.19999-4.07509-.13097-.59298.0069-1.19286.32405-1.66863.29662-.44821.75854-.79983,1.31709-.94464,2.68216-.71023,5.28857-1.15149,7.81906-1.35838,5.09566-.4275,9.8947.08274,14.50065,1.25493.06212.0138.11733.02761.17928.04137l4.2957.57231,1.3309.17928,3.66813.48958.2483.17924,5.45405,3.97165.72403.53094.39307.28959,2.73048,1.98582,3.47521,2.53053Z" fill="#feb161"/><path d="m166.45604,176.6288s-1.17352-.21253-3.50039-.97328c1.27315.56007,2.4609.90142,3.50039.97328Z" fill="#32235a"/><g opacity=".25"><path d="m168.00523,186.99922c-15.28207-7.75017-27.34574-21.81027-27.71499-22.24288,10.98124,6.5391,18.58801,9.56786,22.66542,10.89919-10.09425-4.38392-26.18233-21.95104-26.18233-21.95104l11.74185-15.70035,2.11963.76991-9.61186-4.4519c-3.34807,7.19847-6.97714,13.30213-6.97714,13.30213l-7.43642,20.0471,41.39584,19.32784Z" fill="#32235a"/></g><g opacity=".25"><path d="m189.90975,149.65245l-.66663-.17642c4.82665-18.23292.9555-23.40669.91644-23.45652l.536-.43331c.17238.21177,4.15531,5.40002-.78581,24.06625Z" fill="#32235a"/></g><g opacity=".25"><path d="m171.30749,179.38233c-12.50296-5.72996-28.11281-19.77559-28.26903-19.91666l.46193-.51175c.15555.14073,15.68863,14.116,28.09395,19.80152l-.28685.6269Z" fill="#32235a"/></g><g><path d="m158.53938,202.79513s-.28955.57231-1.40648,1.15153c0,0,0,.00686-.00707.02757-.02054.06203-.06885.22755-.15167.44821-.33096.8481-1.17905,2.45469-2.68907,1.59965,0,0-.0069.02761-.02761.06898-.04831.08964-.13097.26202-.26884.45507-.43449.62059-1.39285,1.49629-3.06143.8619,0,0-1.98591.03447-3.98562-2.05476,0,0,0,.0138-.00673.03447-.0138.07584-.06212.26202-.18618.4413-.27591.38613-.91712.74469-2.40642.0069,0,0-5.52997-4.57843-9.82568-10.07394-1.31709-1.68239-2.33757-3.0132-3.11665-4.06815-.0069.0069-.0069,0-.0138-.0138-.66191-.89637-1.16542-1.58589-1.53072-2.10993-.94472-1.35143-1.07569-1.66863-1.07569-1.66863,0,0,.97907-1.63416,2.44093-3.27523,1.93052-2.17201,4.70241-4.35088,7.17786-2.79945l.2345.26892s1.04118,1.2825,3.22691,2.5581c1.64115.95844,3.93714,1.91689,6.93662,2.30302,6.30215.82743,8.35691,1.13082,5.75067,2.61327-.26901.15172-.58616.3241-.95853.50334,0,0-1.84097-.28269-2.93047.38617-.59289.35852-.96526.99287-.71713,2.09613.19999.87571.70333,1.64797,1.37214,2.23404,2.09617,1.84101,7.92949,7.10896,7.22617,8.00533Z" fill="#f3dade"/><g><path d="m143.26486,202.34453c.00705.00966.01485.01908.02345.02792l3.29481,3.38235c.09835.10097.25994.10305.36091.0047s.1027-.26.0047-.36091l-3.29481-3.38235c-.09835-.10097-.25994-.10305-.36091-.0047-.09214.08974-.10188.23195-.02816.33299Z" fill="#dc7b8e"/><path d="m145.75811,199.9347c.00367.00503.00769.01012.01191.01506.20711.24369,5.11159,5.98013,8.33953,6.62326.13833.02769.27258-.06225.30022-.20023.02754-.13854-.06269-.27319-.20023-.30022-3.05467-.60856-8.0011-6.39488-8.05082-6.4533-.09129-.10736-.25224-.12039-.35959-.0291-.10242.08706-.119.23765-.04102.34454Z" fill="#dc7b8e"/><path d="m148.03882,196.26298c.00294.00403.00608.0079.00921.01178.21676.2641,5.35326,6.48637,8.79731,8.12108.12734.06038.27936.00622.33994-.12127.05984-.12725.00616-.27901-.12127-.33994-3.34098-1.58561-8.56946-7.91997-8.6219-7.98381-.08927-.10882-.25014-.1247-.35902-.03508-.10495.08613-.12345.23874-.04429.34723Z" fill="#dc7b8e"/></g></g><g><path d="m128.15831,156.29845l13.88265,28.72983-8.46789,8.76076s-25.21022-23.21421-27.14291-39.91136l4.2098-8.03297,6.39924-9.10504,16.02969,12.78036-4.91058,6.77843Z" fill="#f3dade"/><path d="m148.5156,138.0044l-18.53573,16.65998-18.22864-14.23343c10.53766-12.0381,26.46533-22.46096,32.04728-25.93434,1.22856-.76447,2.82125-.56794,3.84625.45341,7.23565,7.20984,7.35363,14.90539.87084,23.05439Z" fill="#feb161"/><g opacity=".25"><path d="m147.44897,139.55305l-.6168-.30773c3.61864-7.2558,4.55461-12.83897,2.70624-16.14584-1.51371-2.70758-4.4159-2.99578-4.44485-2.99847l.05926-.68683c.13265.01111,3.28263.31311,4.98085,3.33785,2.00123,3.5641,1.09758,9.21696-2.68469,16.80102Z" fill="#32235a"/></g></g><g><g><path d="m181.69444,124.79159c-.0264-2.3854,1.16964-3.98798,2.31226-6.00422,2.86862-5.06192,5.73725-10.12384,8.60587-15.18576,2.27473-4.01394,4.54946-8.02789,6.82418-12.04183-.06011.10606,2.34438,4.97784,2.45806,5.56874.74179,3.85563-.8925,7.21697-3.00283,10.32953-1.98666,2.93024-3.15507,5.82546-6.08907,8.08362-2.73789,2.10723-6.10351,3.42828-9.56698,3.57496l-1.5415,5.67496Z" fill="#32235a"/><path d="m186.93121,114.23153c-.82614,2.59097-1.65229,5.18193-2.47843,7.7729-.44839,1.40623-.92467,2.80686-1.34603,4.22146-.52481,1.76187-1.72153,2.54199-3.68258,2.49025-1.26798-.03345-2.49434-.4738-3.6252-1.0483-2.76096-1.40263-5.05288-3.67516-6.55565-6.37622-1.14661-2.0609-1.72979-3.59314-1.08914-5.71964.77846-2.58389,1.90334-4.75017,2.07315-7.52995.06797-1.11272,1.36904-7.85137.99855-8.19052l11.74434,10.75046,3.96099,3.62958Z" fill="#f3dade"/><path d="m182.89627,126.88534c-10.22798-5.20643-9.78511-17.44108-9.78511-17.44108l9.85829,1.1579,3.96204,3.63027-4.03522,12.65291Z" fill="#dc7b8e"/><path d="m196.77404,89.61881s5.69222,3.60991,1.50466,13.34103c0,0-2.26989,14.40254-8.4483,17.40413,0,0-4.10828,4.02785-12.80312-3.83083-1.00161-.90529-1.82437-1.99324-2.4167-3.20647-1.10979-2.27311-2.87153-6.32369-3.201-9.72067-.48798-5.03136-.34344-12.55803-.34344-12.55803l4.98473-7.59573s20.73553-2.17969,20.72316,6.16657Z" fill="#f3dade"/><path d="m195.71057,92.84756s3.34961,3.74671,3.04151,9.39773c0,0,6.56169-13.39821-5.96642-12.69237l2.92491,3.29464Z" fill="#32235a"/><path d="m168.33974,112.58352c.71132-1.27923,2.80594-3.7899,2.85299-5.23523.04094-1.25796-1.84552-3.10263-2.53142-4.06793l5.01383-5.98677c-.44728-1.53868,2.73301-1.80156,5.63603-4.64874,5.52439-5.41812,19.86721-1.90229,22.91365,6.59333,0,0-.19908-17.51424-13.68568-19.82264-5.80619-.9938-12.20435-.29672-16.75935,3.75561-3.77891,3.3619-6.03305,8.26493-6.70633,13.23074-.5495,4.05286-.37738,10.98242,3.14408,13.76222.79275.62579.44466,1.31429.05407,2.24569l.06814.17372Z" fill="#32235a"/><path d="m169.21514,105.64169c-.7239-.57753-2.04348-1.63014-2.46365-3.49028-.42762-1.89338.21262-4.02146,1.65529-5.27453.36913-.32064.96117-.83486,1.80263-.93292,1.46604-.17087,3.09041.99155,4.16302,3.01179.29033.54683.37761,1.18295.28222,1.79468-.54868,3.51848-1.8266,5.91807-3.23541,6.02358-.71739.05365-1.40191-.49237-2.2041-1.13232Z" fill="#f3dade"/><path d="m189.46563,96.0561c-2.57189,1.11924-5.37451,2.17037-8.15073,2.63495-2.32294.38873-3.71463,1.45797-4.86901,3.63294-1.11934,2.11562-1.61475,4.52369-3.3985,6.19285-.49881-3.52174-2.04846-8.40191-.91991-11.89099.666-2.05893,3.54806-2.56482,5.13928-3.78319,1.64227-1.25746,3.25538-2.49003,5.10038-3.44641,5.18861-2.68958,10.4555-2.0551,13.34343,3.45131.10905.20798-5.88451,3.05168-6.24494,3.20854Z" fill="#32235a"/></g><path d="m170.92855,103.74001l-.43786-.28682c1.9908-3.03388-.57063-4.9318-.68088-5.01098l.30454-.42528c.03136.02222,3.08349,2.2637.8142,5.72308Z" fill="#dc7b8e"/><path d="m171.49494,101.55725c-.73-.96823-2.6447-.64715-2.66311-.64396l-.09049-.51526c.09161-.01632,2.24959-.38016,3.17127.84425l-.41767.31497Z" fill="#dc7b8e"/><g><path d="m191.93583,104.5222c-.18234.3153-.32966.7077-.39988,1.06509-.07022.35739-.16149.77084-.17566,1.14928-.02833.75687.0765,1.49979.3145,2.22873.119.36447.3151.69394.33594,1.14948-.03521.43449-.18254.8269-.49803,1.15616-.29445.2732-.62391.46931-1.04444.56726-.36447.119-.76396.16089-1.16344.20278.36447-.119.785-.21695,1.09342-.35699.36447-.119.69394-.3151.93233-.60935s.42073-.60955.35779-.95298c-.00688-.32238-.18194-.7079-.30093-1.07237-.29405-.74999-.37784-1.54896-.2724-2.34085.01416-.37844.16149-.77084.25276-1.18429.18234-.3153.32966-.7077.56806-1.00195Z" fill="#dc7b8e"/><path d="m188.2889,111.33975c.24528.02813.42741.22443.39928.46971-.0771.03501-.11211-.04209-.14713-.1192s-.14713-.1192-.28029-.10523c-.16817-.06314-.43449-.03521-.52556-.13336.06314-.16817.38552-.17505.55369-.11191Z" fill="#dc7b8e"/><g><path d="m185.2606,113.27283c.01396.13316.12608.17525.23819.21735l.33634.12628.67269.25256c.44846.16837.91796.28069,1.38747.393.46951.11231.96006.16857,1.45061.22483.49055.05626.9811.11252,1.44373-.09755-.42761.28717-.96026.34303-1.47186.34283s-1.00215-.05646-1.47166-.16877-.99507-.24568-1.42248-.47011c-.22423-.08419-.42741-.22443-.7077-.32966-.11211-.04209-.20318-.14024-.29425-.23839-.05606-.02105-.20318-.14024-.16109-.25236Z" fill="#dc7b8e"/><path d="m187.10301,115.17978c.17525-.12608.30842-.14004.49763-.13296.11211.04209.28029.10523.38532.33654-.17525.12608-.30842.14004-.49763.13296-.11212-.04209-.28029-.10523-.38532-.33654Z" fill="#dc7b8e"/></g><ellipse cx="183.69967" cy="108.40152" rx="1.07781" ry="2.57476" transform="translate(17.64649 242.27758) rotate(-69.42153)" fill="#dc7b8e"/><ellipse cx="194.54518" cy="109.33554" rx="1.73639" ry="1.07776" transform="translate(-23.59641 62.2576) rotate(-17.15781)" fill="#dc7b8e"/><ellipse cx="194.62032" cy="105.89688" rx="1.25746" ry=".71855" transform="translate(39.02897 263.63892) rotate(-73.94478)" fill="#32235a"/><ellipse cx="185.49457" cy="104.71709" rx="1.25746" ry=".71855" transform="translate(33.56085 254.01561) rotate(-73.94478)" fill="#32235a"/><path d="m183.23945,102.4724c-.18214-.1963-.22403-.59579-.02773-.77792,1.8088-1.75134,4.009-.79737,4.12112-.75527.28029.10523.39928.46971.32906.8271-.10523.28029-.46971.39928-.74999.29405-.07002-.15421-1.61858-.79957-2.85953.46142-.1192.14713-.32946.1961-.55369.11191-.11212-.04209-.14713-.1192-.25924-.16129Z" fill="#32235a"/><path d="m196.09196,103.84403c-1.07885-1.04464-2.32628-1.12923-2.32628-1.12923-.30133-.04918-.53953-.26652-.54641-.5889s.26652-.53953.5889-.54641c.05606.02105,1.60482.15481,2.99897,1.38179.23819.21735.28009.61683.08379.79897-.1192.14713-.40657.23111-.57474.16797l-.22423-.08419Z" fill="#32235a"/></g></g></g><g><g><path d="m67.45643,360.26846c-.06466,7.86197-2.71556,15.20476-5.7544,22.02836-2.00434,4.59851-4.26731,9.12285-6.59493,13.49886-.45259.89003-.96984,1.78007-1.48709,2.59593h-5.7544l-.58191.14834c0-.07417.06466-.07417.06466-.14834h-4.7199c.32328-1.33505.64656-2.6701,1.0345-3.93099.06466-.29668.19397-.59336.25863-.89003.06466-.14834.06466-.29668.12931-.44502,1.74572-6.30441,3.55609-12.53466,5.81906-18.54239.38794-1.03837.84053-2.07675,1.22847-3.11512,2.6509-6.30441,6.59493-14.53723,12.73727-15.50144.71122-.14834,1.55175-.07417,2.26297.29668.32328.14834.58191.44502.84053.7417.45259.89003.51725,2.07675.51725,3.26346Z" fill="#4eb548"/><polygon points="47.93026 398.39162 52.77948 397.42741 49.67598 398.39162 47.93026 398.39162" fill="#40937d"/><path d="m59.56837,369.09464c-1.0345,2.22509-2.069,4.52434-3.1035,6.8236l6.85356-2.59594-7.17684,3.48597c-.32328.81586-.71122,1.63173-1.0345,2.44759-.58191,1.40922-1.22847,2.89261-1.81037,4.30183l6.14234-1.92841-6.46562,2.6701c-.96984,2.37343-1.93969,4.74685-2.90953,7.12028l5.1725-1.63173-5.49578,2.37342c-.84053,2.07675-1.6164,4.15349-2.39228,6.23024h-1.55175c.38794-.89003.77587-1.78007,1.09916-2.74427l-.06466-1.78007-.32328-5.78523.58191,4.67268.25863,2.00258c.77587-1.85424,1.55175-3.63431,2.32762-5.48855l-.58191-7.41696.96984,6.52692c1.09916-2.44759,2.19831-4.89519,3.29746-7.34279l-1.09915-8.90035,1.48709,8.08448c.19397-.51919.45259-.9642.64656-1.48339.51725-1.11254,1.09916-2.29926,1.6164-3.4118l-.12931-10.60625.58191,9.64204c.96984-1.92841,1.87503-3.93099,2.84487-5.78522h0c.25863-.51919.51725-.9642.71122-1.48339h-.06466l.51725-8.38116.06466,7.41696c1.74572-3.33763,3.49144-6.60109,5.36647-9.86455-1.87503,3.48597-3.62075,7.04611-5.36647,10.68042v.14834h-.06466c-.19397.37085-.38794.7417-.58191,1.18671l5.81906-2.52177-6.14234,3.33763Z" fill="#89d987"/></g><g><path d="m16.76598,360.12012c0,7.86197,2.71556,15.20476,5.68974,22.02836,2.00434,4.67268,4.20265,9.19703,6.59493,13.57303.45259.89003.96984,1.78007,1.48709,2.59593h5.7544l.58191.14834c0-.07417-.06466-.07417-.06466-.14834h4.7199c-.32328-1.33505-.64656-2.6701-1.0345-3.93099-.06466-.29668-.19397-.59336-.25863-.89003-.06466-.14834-.06466-.29668-.12931-.44502-1.74572-6.30441-3.49143-12.53466-5.7544-18.54239-.38794-1.03837-.84053-2.07675-1.22847-3.11512-2.58625-6.30441-6.53028-14.53723-12.67261-15.57561-.71122-.14834-1.55175-.07417-2.26297.29668-.32328.14834-.58191.44502-.84053.7417-.51725.9642-.5819,2.15091-.5819,3.26346Z" fill="#4eb548"/><polygon points="36.22749 398.39162 31.37828 397.35324 34.48177 398.39162 36.22749 398.39162" fill="#40937d"/><path d="m24.58938,369.02047c1.0345,2.22509,2.069,4.52434,3.03884,6.8236l-6.72424-2.6701,7.17684,3.48597c.32328.81586.71122,1.63173,1.0345,2.44759.58191,1.40922,1.22847,2.89261,1.81037,4.30183l-6.14234-1.92841,6.46562,2.74427c.96984,2.37342,1.93969,4.74685,2.90953,7.12028l-5.1725-1.63173,5.49578,2.37342c.84053,2.07675,1.6164,4.15349,2.39228,6.23024h1.55175c-.38794-.89003-.77587-1.78007-1.09916-2.74427l.12931-1.78007.32328-5.78523-.58191,4.67268-.38794,2.07674c-.77587-1.85424-1.55175-3.70848-2.32762-5.48855l.58191-7.41696-.96984,6.52692c-1.09916-2.44759-2.19831-4.96936-3.29747-7.34279l1.09916-8.97451-1.48709,8.08448c-.19397-.51919-.45259-.9642-.64656-1.48339-.51725-1.11254-1.09916-2.29926-1.6164-3.4118l.12931-10.60625-.64656,9.64204c-.96984-1.92841-1.87503-3.93099-2.84487-5.8594h0c-.25862-.51919-.45259-.9642-.71122-1.48339h.06466l-.45259-8.38116-.06466,7.41696c-1.74572-3.33763-3.49143-6.60109-5.36646-9.86455,1.87503,3.48597,3.62075,7.04611,5.36646,10.68041v.14834h.06466c.19397.37085.38794.7417.51725,1.18671l-5.81906-2.52177,6.20699,3.4118Z" fill="#89d987"/></g><g><path d="m50.25788,369.83634c-.12931,1.55756-.32328,3.18929-.45259,4.74685-.51725,4.67268-1.16381,9.34536-1.93969,13.94388-.25863,1.40922-.51725,2.89261-.77587,4.30184-.06466.37085-.12931.7417-.25863,1.11254-.32328,1.55756-.71122,3.04095-1.22847,4.45017h-10.53896c-.12931-1.55756-.19397-3.11512-.25862-4.67268-.45259-9.86455-.84053-19.7291-.06466-29.51948.64656-8.45533,2.00434-19.80327,8.4053-24.40178.77587-.51919,1.68106-.9642,2.58625-.9642.38794,0,.84053.14834,1.16381.37085.90519.66753,1.42244,1.92841,1.87503,3.18929,2.71556,8.52949,2.39228,18.17154,1.48709,27.44273Z" fill="#89d987"/><path d="m41.91724,370.28135c-.12931,1.92841-.32328,3.85682-.45259,5.71106l6.07768-5.63688-6.14234,6.67526c-.25863,3.18929-.45259,6.37858-.64656,9.4937l5.1725-4.74685-5.1725,5.78523c-.12931,2.81845-.32328,5.56272-.45259,8.38116l3.6854-2.89261,1.93969-1.48339-2.00434,1.92841-3.62075,3.4118c0,.44502-.06466.96421-.06466,1.40922h-1.68106c.12931-1.78007.25863-3.48597.38794-5.26604l-3.16815-8.08448,3.23281,6.8236c.19397-2.4476.38794-4.96936.64656-7.41696l-3.29747-7.7878,3.42678,6.60109c.32328-3.33763.64656-6.67526.96984-10.01289l-4.39662-9.19703,4.52593,8.08448c.06466-.66753.12931-1.33505.19397-2.00258.19397-1.55756.38794-3.11512.58191-4.67268l-3.94403-11.57045,4.138,10.2354c.32328-2.6701.71122-5.34021,1.09916-8.01031h0c.06466-.66753.19397-1.33505.25863-2.00258l-.06466.07417-2.58625-9.56787,2.71556,8.15865c.71122-4.67268,1.48709-9.34536,2.39228-13.94388-.77587,4.89519-1.48709,9.86455-2.069,14.83391l.06466.14834h-.06466c-.06466.51919-.12931,1.03837-.19397,1.55756l5.43112-6.15607-5.62509,7.41695c-.32328,3.04095-.64656,6.15607-.96984,9.27119l6.53028-6.8236-6.59493,8.01031c-.06466,1.11254-.19397,2.15092-.25862,3.26346Z" fill="#4eb548"/></g></g><g><g><path d="m471.92787,154.51628c-.06466,7.86197-2.71556,15.20476-5.7544,22.02836-2.00434,4.59851-4.26731,9.12285-6.59493,13.49886-.45259.89003-.96984,1.78007-1.48709,2.59593h-5.7544l-.58191.14834c0-.07417.06466-.07417.06466-.14834h-4.7199c.32328-1.33505.64656-2.6701,1.0345-3.93099.06466-.29668.19397-.59336.25863-.89003.06466-.14834.06466-.29668.12931-.44502,1.74572-6.30441,3.55609-12.53466,5.81906-18.54239.38794-1.03837.84053-2.07675,1.22847-3.11512,2.6509-6.30441,6.59493-14.53723,12.73727-15.50144.71122-.14834,1.55175-.07417,2.26297.29668.32328.14834.58191.44502.84053.7417.45259.89003.51725,2.07675.51725,3.26346Z" fill="#4eb548"/><polygon points="452.4017 192.63944 457.25092 191.67523 454.14742 192.63944 452.4017 192.63944" fill="#40937d"/><path d="m464.03981,163.34246c-1.0345,2.22509-2.069,4.52434-3.1035,6.8236l6.85356-2.59594-7.17684,3.48597c-.32328.81586-.71122,1.63173-1.0345,2.44759-.58191,1.40922-1.22847,2.89261-1.81037,4.30183l6.14234-1.92841-6.46562,2.6701c-.96984,2.37343-1.93969,4.74685-2.90953,7.12028l5.1725-1.63173-5.49578,2.37342c-.84053,2.07675-1.6164,4.15349-2.39228,6.23024h-1.55175c.38794-.89003.77587-1.78007,1.09916-2.74427l-.06466-1.78007-.32328-5.78523.58191,4.67268.25863,2.00258c.77587-1.85424,1.55175-3.63431,2.32762-5.48855l-.58191-7.41696.96984,6.52692c1.09916-2.44759,2.19831-4.89519,3.29746-7.34279l-1.09915-8.90035,1.48709,8.08448c.19397-.51919.45259-.9642.64656-1.48339.51725-1.11254,1.09916-2.29926,1.6164-3.4118l-.12931-10.60625.58191,9.64204c.96984-1.92841,1.87503-3.93099,2.84487-5.78522h0c.25863-.51919.51725-.9642.71122-1.48339h-.06466l.51725-8.38116.06466,7.41696c1.74572-3.33763,3.49144-6.60109,5.36647-9.86455-1.87503,3.48597-3.62075,7.04611-5.36647,10.68042v.14834h-.06466c-.19397.37085-.38794.7417-.58191,1.18671l5.81906-2.52177-6.14234,3.33763Z" fill="#89d987"/></g><g><path d="m421.23742,154.36794c0,7.86197,2.71556,15.20476,5.68974,22.02836,2.00434,4.67268,4.20265,9.19703,6.59493,13.57303.45259.89003.96984,1.78007,1.48709,2.59593h5.7544l.58191.14834c0-.07417-.06466-.07417-.06466-.14834h4.7199c-.32328-1.33505-.64656-2.6701-1.0345-3.93099-.06466-.29668-.19397-.59336-.25863-.89003-.06466-.14834-.06466-.29668-.12931-.44502-1.74572-6.30441-3.49143-12.53466-5.7544-18.54239-.38794-1.03837-.84053-2.07675-1.22847-3.11512-2.58625-6.30441-6.53028-14.53723-12.67261-15.57561-.71122-.14834-1.55175-.07417-2.26297.29668-.32328.14834-.58191.44502-.84053.7417-.51725.9642-.5819,2.15091-.5819,3.26346Z" fill="#4eb548"/><polygon points="440.69893 192.63944 435.84972 191.60106 438.95321 192.63944 440.69893 192.63944" fill="#40937d"/><path d="m429.06082,163.26829c1.0345,2.22509,2.069,4.52434,3.03884,6.8236l-6.72424-2.6701,7.17684,3.48597c.32328.81586.71122,1.63173,1.0345,2.44759.58191,1.40922,1.22847,2.89261,1.81037,4.30183l-6.14234-1.92841,6.46562,2.74427c.96984,2.37342,1.93969,4.74685,2.90953,7.12028l-5.1725-1.63173,5.49578,2.37342c.84053,2.07675,1.6164,4.15349,2.39228,6.23024h1.55175c-.38794-.89003-.77587-1.78007-1.09916-2.74427l.12931-1.78007.32328-5.78523-.58191,4.67268-.38794,2.07674c-.77587-1.85424-1.55175-3.70848-2.32762-5.48855l.58191-7.41696-.96984,6.52692c-1.09916-2.44759-2.19831-4.96936-3.29747-7.34279l1.09916-8.97451-1.48709,8.08448c-.19397-.51919-.45259-.9642-.64656-1.48339-.51725-1.11254-1.09916-2.29926-1.6164-3.4118l.12931-10.60625-.64656,9.64204c-.96984-1.92841-1.87503-3.93099-2.84487-5.8594h0c-.25862-.51919-.45259-.9642-.71122-1.48339h.06466l-.45259-8.38116-.06466,7.41696c-1.74572-3.33763-3.49143-6.60109-5.36646-9.86455,1.87503,3.48597,3.62075,7.04611,5.36646,10.68041v.14834h.06466c.19397.37085.38794.7417.51725,1.18671l-5.81906-2.52177,6.20699,3.4118Z" fill="#89d987"/></g><g><path d="m454.72932,164.08416c-.12931,1.55756-.32328,3.18929-.45259,4.74685-.51725,4.67268-1.16381,9.34536-1.93969,13.94388-.25863,1.40922-.51725,2.89261-.77587,4.30184-.06466.37085-.12931.7417-.25863,1.11254-.32328,1.55756-.71122,3.04095-1.22847,4.45017h-10.53896c-.12931-1.55756-.19397-3.11512-.25862-4.67268-.45259-9.86455-.84053-19.7291-.06466-29.51948.64656-8.45533,2.00434-19.80327,8.4053-24.40178.77587-.51919,1.68106-.9642,2.58625-.9642.38794,0,.84053.14834,1.16381.37085.90519.66753,1.42244,1.92841,1.87503,3.18929,2.71556,8.52949,2.39228,18.17154,1.48709,27.44273Z" fill="#89d987"/><path d="m446.38868,164.52917c-.12931,1.92841-.32328,3.85682-.45259,5.71106l6.07768-5.63688-6.14234,6.67526c-.25863,3.18929-.45259,6.37858-.64656,9.4937l5.1725-4.74685-5.1725,5.78523c-.12931,2.81845-.32328,5.56272-.45259,8.38116l3.6854-2.89261,1.93969-1.48339-2.00434,1.92841-3.62075,3.4118c0,.44502-.06466.96421-.06466,1.40922h-1.68106c.12931-1.78007.25863-3.48597.38794-5.26604l-3.16815-8.08448,3.23281,6.8236c.19397-2.4476.38794-4.96936.64656-7.41696l-3.29747-7.7878,3.42678,6.60109c.32328-3.33763.64656-6.67526.96984-10.01289l-4.39662-9.19703,4.52593,8.08448c.06466-.66753.12931-1.33505.19397-2.00258.19397-1.55756.38794-3.11512.58191-4.67268l-3.94403-11.57045,4.138,10.2354c.32328-2.6701.71122-5.34021,1.09916-8.01031h0c.06466-.66753.19397-1.33505.25863-2.00258l-.06466.07417-2.58625-9.56787,2.71556,8.15865c.71122-4.67268,1.48709-9.34536,2.39228-13.94388-.77587,4.89519-1.48709,9.86455-2.069,14.83391l.06466.14834h-.06466c-.06466.51919-.12931,1.03837-.19397,1.55756l5.43112-6.15607-5.62509,7.41695c-.32328,3.04095-.64656,6.15607-.96984,9.27119l6.53028-6.8236-6.59493,8.01031c-.06466,1.11254-.19397,2.15092-.25862,3.26346Z" fill="#4eb548"/></g></g><g><g><path d="m317.94556,216.52633s-2.96794,4.29441-1.78246,11.38412,1.3846,8.88401-1.64552,5.63178c0,0-.59505-4.46387-3.45078-2.85112-.77198.42901-1.4188,1.18747-1.78969,2.03715-1.2099,2.57089-4.63533,9.82894-5.70138,9.40454,0,0-.64912-.16055-1.51088-1.03957,0,0-3.40013.10043-2.88682-2.16057,0,0-2.54672-.19363-2.33726-2.89717,0,0-.59417-1.96089.83211-4.47826,0,0-1.67517.2745-1.21165-2.43507,0,0,2.86981-6.77552,7.03414-12.56499,4.97169-7.19706,5.87258-7.96156,5.87258-7.96156,0,0,10.19148,2.61257,8.76607,7.63292l-.18846.2978Z" fill="#f3dade"/><g><path d="m299.4617,227.01711h0l-2.36255,4.26046c-.07539.11912-.03165.31363.12516.32945s.31363.03165.32945-.12517l2.32486-4.20089c.07539-.11912.03165-.31363-.12516-.32945-.02187-.09725-.21637-.05352-.29176.0656Z" fill="#dc7b8e"/><path d="m302.55281,228.72306h0c-.18846.2978-4.35653,6.75222-4.06159,10.10861-.01582.15681.16286.26989.26011.24802.15681.01583.26989-.16286.24802-.26011-.2512-3.16189,3.99225-9.73543,4.02994-9.79499.07539-.11912.03165-.31363-.08747-.38901-.15681-.01582-.31363-.03165-.38901.08747Z" fill="#dc7b8e"/><path d="m306.80492,229.91253h0c-.18846.2978-4.77719,7.15332-5.38918,11.02015-.01582.15681.0656.29176.22242.30759s.29176-.0656.30758-.22242c.5743-3.80727,5.29797-10.74422,5.33566-10.80378.07539-.11912.03165-.31363-.08747-.38901s-.31363-.03165-.38901.08747Z" fill="#dc7b8e"/></g></g><polygon points="338.66353 158.23478 309.36796 208.59561 318.13403 216.22853 353.27236 171.62933 338.66353 158.23478" fill="#f3dade"/><path d="m359.05597,165.26444c1.05201.17587,1.68185.2607,1.68185.2607,0,0-.08359-1.12253-.24791-2.97161-.1206-1.29851-.27367-2.95433-.46208-4.82812-1.05017-10.19605-3.2137-26.80417-6.19678-27.12484,0,0-5.73354,7.12323-10.7234,14.29562-1.6232,2.32534-3.16178,4.66049-4.40468,6.75544l-.05686.09781c-.3188.5422-.61291,1.06026-.88809,1.56203-.10182.18014-.18294.35758-.25053.53327-2.71995,6.87669,15.77923,10.47461,21.54848,11.41971Z" fill="#ff6587"/><path d="m333.02684,162.09813l18.13459,18.09472,7.89455-14.92841,1.43394-2.71091,1.69037-3.19631-2.15245-1.63181-16.92018-12.82922c-1.6232,2.32534-3.16178,4.66049-4.40468,6.75544l-.05686.09781-1.13862,2.09529-4.48065,8.25339Z" fill="#ff6587"/><path d="m423.96383,188.52894l-.88261.26892h-.0069l-8.92236,2.67535-4.00616,1.19976-4.68188,1.40665-10.7497,3.22005c-1.08933-.66886-2.93047-.37923-2.93047-.37923-3.94404-1.93069-2.16502-2.21338,4.79214-3.11665,1.7238-.22755,3.21328-.63435,4.48879-1.13082h-33.44178l-2.22024-8.21908-6.50904-18.81702c-.0069-.0069-.0069-.02071-.0138-.02761-.07575-.13791-.14477-.27578-.21379-.40679-1.87548-3.68206-2.97861-7.57787-2.86835-8.41907l-.04141-.52404v-.0069l-.13787-1.86858-1.49621-19.92718-.28971-3.85444,6.13684-4.47499,3.75096-2.73738.41378-.29649,2.72358-1.98582,5.72979-.7585h.00707l1.78575-.24132,1.77212-.23446c1.22737-.31715,2.46837-.58608,3.73025-.80673,5.85403-1.01358,12.05282-.91017,18.76875.8619.55165.14481,1.01358.48958,1.31709.94464.31715.47577.45502,1.07565.32405,1.67553-.2552,1.16529-.31025,2.55124-.19999,4.07509.31715,4.21296,1.93069,9.53609,4.25429,14.54198,3.35115,7.1986,6.97804,13.30089,6.97804,13.30089l1.88238,5.07487,2.49615,6.72283,3.06143,8.25355,4.99903,13.47327.19999.5378Z" fill="#ff6587"/><path d="m378.91626,183.47236s1.17352-.21253,3.50039-.97328c-1.27315.56007-2.4609.90142-3.50039.97328Z" fill="#32235a"/><g opacity=".25"><path d="m418.76481,174.51786l-9.10182,4.24747-29.78729,13.90763h-.31715c14.23165-7.90879,25.17443-20.65803,25.52609-21.07177-10.98403,6.53665-18.58947,9.56366-22.66448,10.89443,10.08762-4.37844,26.1811-21.94743,26.1811-21.94743l-11.74257-15.70041-2.12378.77226,2.00661-.93084.6136-.28273,6.99167-3.24076c3.35115,7.1986,6.97804,13.30089,6.97804,13.30089l1.88238,5.07487,2.49615,6.72283,3.06143,8.25355Z" fill="#32235a"/></g><g opacity=".25"><path d="m355.46219,156.49615c-4.94045-18.66623-.95819-23.85481-.78581-24.06658l.536.43297c-.03905.05017-3.90953,5.22427.91644,23.45719l-.66663.17642Z" fill="#32235a"/></g><g opacity=".25"><path d="m374.06445,186.22603l-.28685-.6269c12.40532-5.68586,27.93908-19.66078,28.09463-19.80152l.46193.51175c-.15622.14107-15.76674,14.18636-28.2697,19.91666Z" fill="#32235a"/></g><g><path d="m416.59272,194.74843s-.24813.61368-2.59951,3.7648c0,.01376-.0069.01376-.0069.01376-.78598,1.05499-1.80646,2.39266-3.13045,4.082-4.2957,5.49546-9.82568,10.0739-9.82568,10.0739-1.48931.73779-2.13051.37923-2.40625-.0069-.13114-.18618-.17238-.37923-.18618-.44821-.0069-.02066-.0069-.02757-.0069-.02757-1.99971,2.08237-3.98545,2.05476-3.98545,2.05476-1.67566.64125-2.63402-.24822-3.06143-.86876-.13804-.19309-.2276-.35856-.26901-.44821-.02071-.04137-.02761-.06894-.02761-.06894-1.51001.855-2.36501-.7585-2.68907-1.6066-.08282-.21375-.13097-.37923-.15167-.4413-.0069-.02066-.0069-.03447-.0069-.03447-1.11711-.57922-1.40665-1.14463-1.40665-1.14463-.70333-.90327,5.13-6.16432,7.22617-8.00533.66882-.59298,1.17215-1.36524,1.37214-2.24094.2483-1.10322-.12407-1.73761-.71713-2.09613-1.08933-.66886-2.93047-.37923-2.93047-.37923-3.94404-1.93069-2.16502-2.21338,4.79214-3.11665,1.7238-.22755,3.21328-.63435,4.48879-1.13082.93782-.35856,1.75141-.76536,2.44783-1.17219,2.18573-1.2756,3.22708-2.565,3.22708-2.565l.23433-.26202c2.47544-1.55832,5.25423.63435,7.17802,2.79945.3653.4137.70316.82053.99977,1.19976.88934,1.15839,1.44099,2.07547,1.44099,2.07547Z" fill="#f3dade"/><g><path d="m402.10745,209.18809c-.00705.00966-.01485.01908-.02345.02792l-3.29481,3.38235c-.09835.10097-.25994.10305-.36091.0047s-.1027-.26-.0047-.36091l3.29481-3.38235c.09835-.10097.25994-.10305.36091-.0047.09214.08974.10188.23195.02816.33299Z" fill="#dc7b8e"/><path d="m399.61419,206.77826c-.00367.00503-.00769.01012-.01191.01506-.20711.24369-5.11159,5.98013-8.33953,6.62326-.13833.02769-.27258-.06225-.30022-.20023-.02754-.13854.06269-.27319.20023-.30022,3.05467-.60856,8.0011-6.39488,8.05082-6.4533.09129-.10736.25224-.12039.35959-.0291.10242.08706.119.23765.04102.34454Z" fill="#dc7b8e"/><path d="m397.33348,203.10653c-.00294.00403-.00608.0079-.00921.01178-.21676.2641-5.35326,6.48637-8.79731,8.12108-.12734.06038-.27936.00622-.33994-.12127-.05984-.12725-.00616-.27901.12127-.33994,3.34098-1.58561,8.56946-7.91997,8.6219-7.98381.08927-.10882.25014-.1247.35902-.03508.10495.08613.12345.23874.04429.34723Z" fill="#dc7b8e"/></g></g><g><path d="m417.214,163.142l-13.88265,28.72983,8.46789,8.76076s25.21022-23.21421,27.14291-39.91136l-4.2098-8.03297-6.39924-9.10504-16.02969,12.78036,4.91058,6.77843Z" fill="#f3dade"/><path d="m396.85671,144.84796l18.53573,16.65998,18.22864-14.23343c-10.53766-12.0381-26.46533-22.46096-32.04728-25.93434-1.22856-.76447-2.82125-.56794-3.84625.45341-7.23565,7.20984-7.35363,14.90539-.87084,23.05439Z" fill="#ff6587"/><g opacity=".25"><path d="m397.92297,146.39642c-3.78227-7.58406-4.68524-13.23659-2.68469-16.80102,1.69822-3.0244,4.8482-3.3264,4.98085-3.33751l.05926.68683c-.02895.00269-2.93114.29089-4.44418,2.99847-1.84837,3.30687-.91308,8.88971,2.70556,16.1455l-.6168.30773Z" fill="#32235a"/></g></g><g><path d="m346.51252,100.14165s-4.29483,2.27068.29941,6.36823c0,0,2.30153,1.67443,4.86904,6.1974l-.47207-4.42341.07052-5.98948s-.9107-5.32712-4.7669-2.15274Z" fill="#32235a"/><path d="m380.13008,125.30532c2.0677-6.039-4.40336-12.76514-4.96927-19.33148l-9.45564,10.89367-3.1894,3.67828c1.04658,1.90537,2.44221,3.5762,3.54393,5.44187.73228,1.24007.85022,3.52137,1.59207,4.49989,2.07531,2.73741,7.61291.51866,9.67633-1.26732,1.46133-1.26484,2.34248-2.57291,2.80197-3.91491Z" fill="#f9dae1"/><path d="m367.33605,130.51034c8.66548-5.74671,7.33316-15.34507,7.33316-15.34507l-8.75258,2.0646-3.1894,3.67828c1.45715,4.40706,4.66302,8.44398,4.60882,9.60219Z" fill="#dc7b8e"/><path d="m351.10443,99.41379s-4.74872,3.83938.02945,12.16327c0,0,3.53672,12.72718,9.40874,14.78788,0,0,4.1153,3.19906,11.12577-4.77572.80758-.91866,1.43524-1.98318,1.84252-3.13654.76308-2.16095,1.92857-5.98928,1.87278-9.08081-.08264-4.57894-.99337-11.33813-.99337-11.33813l-5.27416-6.31932s-18.8885.18883-18.01173,7.69937Z" fill="#f9dae1"/><path d="m346.98459,104.56506c2.04007-.34616,4.05347-.51774,6.06785-1.07306,1.87016-.51556,3.70284-1.19766,5.41743-2.10955.53453-.28429,2.08809-1.64605,2.62471-1.56786.28099.04094.74566.79379.97049.99017.36784.32128.76962.59996,1.23175.76784.68567.24907,1.46311.22178,2.13935-.04545.83562-.33022.71436-.58351,1.49765-.16238,1.21179.65151,2.23966,1.17512,3.6608,1.23192l1.58429,7.2334,3.24249-3.80702c-.13842-.86759-.02134-1.8107.14024-2.66396.35964-1.89919,2.42087-3.70345.7553-5.60303-.4861-.55439-1.21808-.95479-1.41038-1.66659-.1123-.41569-.01156-.85452.05405-1.28008.37374-2.42404-.39565-5.93752-3.4213-6.06016-.70294-.02849-1.43317.19757-2.09598-.03826-.67019-.23846-1.10504-.89355-1.73395-1.22594-1.03246-.54568-2.10237.47448-2.90507.11316-.3338-.15026-.69422-.89317-1.06631-1.13772-.48776-.32058-1.06092-.51438-1.64552-.53483-1.48848-.05206-2.09849,1.364-3.33065,1.49712-.62345.06735-1.4341-.40289-2.10075-.42649-.73869-.02616-1.48347.09814-2.16792.37942-1.57198.64601-2.78525,2.10134-3.13787,3.7639-1.03426-.14905-2.1279.18351-2.90409.88311s-1.22018,1.75291-1.17901,2.79703c-.00352-.08927-1.52061.83192-1.64553.95273-.51185.495-.83116,1.0849-1.0607,1.751-.53496,1.55235-.52691,3.31866-.15952,4.90809.38987,1.68673.74345,2.44481,2.57816,2.1335Z" fill="#32235a"/><g><path d="m377.56988,110.97643c.59163-.59487,1.6701-1.6791,1.85534-3.39685.1885-1.74844-.60845-3.59735-2.03685-4.57552-.36548-.2503-.95166-.6517-1.71916-.65268-1.33719-.00173-2.6786,1.21294-3.43444,3.14245-.20459.52227-.21717,1.10385-.06787,1.64452.85874,3.1098,2.25778,5.13694,3.53668,5.08579.65123-.02612,1.21068-.58855,1.8663-1.24772Z" fill="#f9dae1"/><g><path d="m377.79209,108.72762c-.02129.01034-.04459.01759-.06947.02107-1.51166.21154-2.60695-.04617-3.25575-.76625-.94802-1.05198-.56002-2.67425-.54324-2.74286.03129-.12422.15719-.20102.28203-.17003.12494.03069.20113.15689.17064.28173-.00353.01462-.34459,1.45472.43837,2.32092.53929.59664,1.49584.80355,2.84334.61501.12745-.01784.24519.07099.26303.19844.01447.10278-.04052.19903-.12897.24197Z" fill="#dc7b8e"/><path d="m375.01453,108.24083c-.10074.0489-.22488.01934-.29167-.07499-.0745-.10501-.04968-.25038.05533-.32488,1.14947-.81546,1.24015-2.56969,1.24097-2.58729.00569-.1285.11517-.22818.24275-.22281.1285.00569.2284.11405.22292.24245-.0035.08139-.09906,1.99863-1.43709,2.94787-.01068.00771-.02175.0141-.03321.01966Z" fill="#dc7b8e"/></g></g><g><path d="m355.42754,110.18707c.28511.33649.50121.75072.71731,1.16494.2161.41423.37175.8026.4584,1.26871.2423.85448.29469,1.735.15718,2.64153-.0774.43169-.18066.92383-.09402,1.38995.10394.50927.46679.91476.86406,1.15621.41457.2846.86355.40516,1.3384.46527s.9151.03391,1.39851-.00958c-.45755-.01696-.9151-.03391-1.36409-.15447-.43169-.0774-.85482-.25841-1.20894-.51715s-.59608-.61253-.66543-1.03549.02535-.8115.12861-1.30364c.13751-.90654.05053-1.87335-.25221-2.7537-.1298-.44882-.3459-.86305-.562-1.27728-.3024-.37964-.58751-.71613-.91578-1.03532Z" fill="#dc7b8e"/><path d="m361.27667,117.15842c-.25891.10377-.44865.38015-.34488.63906.1036.00856.11216-.09504.18117-.17278.05171-.12089.18117-.17278.26748-.20737.17261-.06918.49197-.14709.58684-.28528-.15548-.13802-.47484-.06011-.69061.02637Z" fill="#dc7b8e"/><g><path d="m365.17971,118.64926c.00873.14675-.10343.24179-.21559.33683s-.22432.19007-.35378.24196c-.24162.14692-.48324.29384-.72486.44076-.50053.25069-1.02692.56183-1.54475.76936-.50053.25069-1.06151.47552-1.59664.63991-.53512.16439-1.07025.32877-1.69184.27739.54402.23272,1.17418.1805,1.76975.04197s1.13069-.30291,1.67438-.5709,1.04422-.51868,1.55332-.87296c.24162-.14692.46594-.33699.67297-.57022.11216-.09504.20703-.23323.31919-.32826.11216-.09504.20703-.23323.13785-.40584Z" fill="#dc7b8e"/><path d="m363.54127,121.30927c-.24179-.10343-.43169-.0774-.56115-.02552-.17261.06918-.26748.20737-.35361.49231.24179.10343.43169.0774.56115.02552.15531-.11233.26748-.20737.35361-.49231Z" fill="#dc7b8e"/></g><ellipse cx="353.29889" cy="112.72348" rx=".79035" ry="1.30176" transform="translate(-15.37114 152.83704) rotate(-23.9055)" fill="#32235a"/><ellipse cx="362.70662" cy="110.19715" rx=".79035" ry="1.30176" transform="translate(-13.54036 156.4326) rotate(-23.9055)" fill="#32235a"/><path d="m364.49894,107.70332c-.17261.06918-.42296.06935-.57844-.06867-1.49422-1.10399-2.98709-.20517-3.0734-.17058-.28477.16422-.61287.09538-.82023-.1721-.16422-.28477-.09538-.61287.1721-.82023.0863-.03459,2.26088-1.35688,4.3856.19559.29367.23289.34573.6127.1387.84592-.05172.12089-.13802.15548-.22432.19007Z" fill="#32235a"/><path d="m351.23252,110.96686c-.21576.08647-.42296.06935-.63889-.09453-.23323-.20703-.28528-.58684-.07825-.82006,1.25074-1.50295,2.90799-1.86665,2.95115-1.88395.31936-.07791.65619.13768.69095.47434.07791.31936-.13768.65619-.47434.69095,0,0-1.3206.32894-2.31259,1.47777.0173.04315-.05171.12089-.13802.15548Z" fill="#32235a"/></g></g></g></svg>