<?xml version="1.0" encoding="UTF-8"?>
<svg id="Layer_1" data-name="Layer 1" xmlns="http://www.w3.org/2000/svg" viewBox="0 0 3000 2000">
  <defs>
    <style>
      .cls-1 {
        fill: #47bfa0;
      }

      .cls-1, .cls-2, .cls-3, .cls-4, .cls-5, .cls-6, .cls-7, .cls-8, .cls-9, .cls-10, .cls-11, .cls-12, .cls-13, .cls-14, .cls-15, .cls-16, .cls-17, .cls-18, .cls-19, .cls-20, .cls-21, .cls-22, .cls-23, .cls-24, .cls-25 {
        stroke-width: 0px;
      }

      .cls-2 {
        fill: #256d5c;
      }

      .cls-3 {
        fill: #fbc501;
      }

      .cls-4 {
        fill: #247be2;
      }

      .cls-5 {
        fill: #fd490a;
      }

      .cls-6 {
        fill: #95efd6;
      }

      .cls-6, .cls-9 {
        opacity: .32;
      }

      .cls-7 {
        fill: #cebba7;
      }

      .cls-8 {
        fill: #2b2a3b;
      }

      .cls-9 {
        fill: #c7fff0;
      }

      .cls-10 {
        fill: #fff;
      }

      .cls-11 {
        fill: #d39c02;
      }

      .cls-12 {
        fill: #af2900;
      }

      .cls-13 {
        fill: #e8b100;
      }

      .cls-14 {
        fill: #dd3b0a;
      }

      .cls-15 {
        fill: #231f20;
      }

      .cls-16 {
        fill: #297261;
      }

      .cls-17 {
        fill: #7ee0c7;
      }

      .cls-18 {
        fill: #bbe0ff;
      }

      .cls-19 {
        fill: #6eb7ff;
      }

      .cls-20 {
        fill: #3f9c89;
      }

      .cls-21 {
        fill: #fff8f0;
      }

      .cls-22 {
        fill: #f2e8dc;
      }

      .cls-23 {
        fill: #f97372;
      }

      .cls-24 {
        fill: #bf3232;
      }

      .cls-25 {
        fill: #8989a5;
      }
    </style>
  </defs>
  <rect class="cls-10" width="3000" height="2000"/>
  <g>
    <path class="cls-8" d="m1989.46,1128.58c-2.71,153.23-16.69,305.94-40.97,454.97-2.91,10.62-6.17,20.85-9.78,30.7-.38,1.11-.76,2.19-1.21,3.26-3.44,9.26-7.18,18.21-11.27,26.82-.45,1.08-.97,2.15-1.49,3.19-112.67,233.47-433.35,219-661.93,180.49-65.15-10.41-140.46-15.89-182.44-73.58-20.19-32.37-36.04-73.54-48.46-121.11-.28-1.11-.56-2.22-.87-3.36-2.29-8.98-4.44-18.18-6.49-27.58-.28-1.11-.52-2.25-.76-3.4-58.07-270.38-21.58-707.03-19.22-925.16,2.64-131.3,27.93-237.77,74.31-319.6,42.77-75.45,103.48-129.95,180.98-163.57,3.64-1.63,7.32-3.16,11.07-4.65,96.13-38.54,216.99-46.31,360.43-23.52,153.54,19.95,266.98,116.91,289.53,276.38,17.52,76.94,31.57,155.03,42.32,233.81.14,1.15.31,2.29.45,3.44,20.19,149.31,28.51,301.15,25.81,452.47Z"/>
    <path class="cls-3" d="m1963.65,676.11c-60.64-4.65-121.63-5.17-182.4-3.89-96.82,2.05-193.5,8.71-290.33,11.2-47.8,1.25-95.68,1.49-143.45-.38-30.94-1.21-72.61-7.42-75.62-45.93-3.26-41.11,35.56-64.94,66.19-82.84,42.67-24.94,85.23-49.99,127.73-75.21,42.91-25.46,85.76-51.07,128.49-76.81,21.37-12.87,42.7-25.78,64.04-38.72,18.94-11.52,39.13-22.41,54.74-38.44,15.44-15.82,26.61-39.62,19.05-61.82-6.38-18.7-24.04-29.87-41.53-36.84-17.62-7.04-36.53-10.93-54.98-15.06-20.78-4.65-41.66-8.67-62.69-12.14-84.71-13.95-170.95-18.25-256.64-13.25-18.84,1.08-37.64,2.64-56.41,4.65,3.64-1.63,7.32-3.16,11.07-4.65,30.87-2.95,61.89-4.72,92.9-5.27,84.85-1.53,169.95,6.1,253.1,23.14,20.29,4.13,40.8,8.36,60.64,14.4,15.54,4.72,31.36,11.14,43.47,22.31,29.38,27.2,15.44,68.44-10.82,92.07-16.1,14.5-35.52,25.01-53.91,36.18-21.33,12.94-42.67,25.85-64.04,38.72-43.19,25.98-86.41,51.83-129.78,77.53-43.02,25.5-86.24,50.72-129.36,76.11-18.32,10.79-37.74,22.72-49.02,41.35-11.27,18.66-13.5,44.82,3.78,60.67,14.47,13.22,36.01,15.26,54.67,16.17,24.28,1.15,48.67,1.49,72.99,1.56,48.43.1,96.82-1.35,145.18-3.37,97.51-4.02,195.06-10.16,292.75-9.37,36.6.31,73.23,1.67,109.73,4.48.14,1.15.31,2.29.45,3.44Z"/>
    <path class="cls-20" d="m2193.19,850.86c-3.04-73.59-5.78-147.2-9.12-220.78-2.57-56.66-8.11-119.08-48.2-163-41.02-44.93-104.71-58.97-163.29-57.68-19.05.42-38.01,2.26-56.89,4.73.48,1.03.86,2.15,1.13,3.36,52.01-6.67,105.02-8.47,154.58,10.81,28.55,11.11,54.72,29.13,72.56,54.32,17.28,24.4,26.09,53.48,30.83,82.72,5.05,31.2,5.76,62.92,7.05,94.44,1.49,36.19,2.98,72.38,4.48,108.57,1.49,36.19,2.98,72.38,4.48,108.57,1.26,30.5,4.69,62.22-1.04,92.47-4.44,23.45-16.64,46.12-38.12,56.28.79-13.96,2.2-28.39.33-42.17-1.5-11.13-6.22-21.98-16.29-27.8-17.05-9.85-42-3.41-51.37,14.09-10.22,19.1-1.85,44.43,15.38,56.44,14.16,9.87,32.32,10.42,48.21,4.68-.56,13.73-1.12,27.46-1.68,41.19-2.97,73.06-5.95,146.13-8.92,219.19-2.63,64.49-3.25,130.05-17.62,193.28-13.48,59.35-41.13,113.28-86.75,154.23-42.87,38.49-96.37,63.89-151.54,79.25-65.8,18.33-134.69,21.87-202.66,22.12-71.1.25-142.1-2.24-213.18.98-70.94,3.22-141.69,10.37-211.85,21.37-34.77,5.45-69.37,11.89-103.8,19.2-27.62,5.86-55.38,11.47-83.56,13.81-54.29,4.51-113.22-5.39-143.51-55.89-32.49-54.18-21.22-120.59-26-180.49-2.33-29.16-8.38-58.83-24.79-83.54-11.4-17.16-27.28-32.31-46.23-40.81-.45-3.8-.9-7.59-1.31-11.33-4.02-36.05-8.03-72.09-12.05-108.14-3.91-35.09-7.82-70.17-11.73-105.26-.25-2.19-3.72-2.22-3.47,0l24.74,222.05c.04.37.08.75.13,1.12-2.66-1.05-5.37-1.98-8.14-2.75-23.9-6.67-49.33-.78-67.07,16.79-15.64,15.49-24.24,39.63-15.39,60.78,8.06,19.26,28.97,33.38,49.98,32.83,21.58-.56,36.94-17.45,42.81-37.07,6.26-20.96,4.45-43.26,1.98-64.93.59.28,1.19.53,1.77.82,62.93,32.07,66.41,108.16,66.91,169.92.45,55.21,2.62,119.51,47.4,158.91,39.8,35.02,96.74,34.76,146.29,27.97,29.86-4.09,59.19-11.04,88.72-16.92,35.91-7.14,72.03-13.25,108.29-18.34,73.31-10.27,147.22-16.3,221.23-18.07,136.35-3.26,279.1,15.01,410.03-32.9,52.72-19.29,102.75-48.82,140.39-90.99,40.72-45.62,61.62-103.27,71.35-162.92,10.75-65.96,10.83-133.55,13.54-200.17,3.05-75.01,6.1-150.02,9.16-225.03.02-.56.06-1.13.08-1.69,6.5-2.8,12.53-6.63,17.6-11.35,18.56-17.31,24.78-43.06,26.52-67.5,2.36-33.05-1.02-66.74-2.38-99.78Zm-1376.96,663.71c-13.8,25.61-44.81,29.01-66.69,11.43-24.34-19.56-22.12-53.2-1.62-74.79,19.73-20.78,49.11-24.63,74.65-14.02,2.9,25.45,6.14,54.21-6.34,77.38Zm1332.26-498c-.15,3.55-.29,7.1-.43,10.65-2.94,1.14-6.01,2.1-9.28,2.77-15.1,3.08-31.76-.19-42.81-11.44-9.71-9.89-14.82-24.94-11.75-38.62,5.73-25.5,44.18-35.79,58.99-12.19,8.81,14.04,5.91,33.15,5.27,48.83Z"/>
    <g>
      <path class="cls-25" d="m1938.71,1614.25c-.38,1.11-.76,2.19-1.21,3.26l-222.82-50.3c-3.78-.87-6.42-4.16-6.42-8.05v-108.34c0-1.28-.52-2.46-1.42-3.36l-22.93-22.97c-1.56-1.56-2.43-3.61-2.43-5.83v-104.18h3.47v104.18c0,1.25.52,2.5,1.39,3.4l22.96,22.93c1.56,1.56,2.43,3.64,2.43,5.83v108.34c0,2.26,1.53,4.16,3.71,4.65l223.27,50.44Z"/>
      <rect class="cls-25" x="1681.47" y="1461.73" width="3.47" height="95.53"/>
      <path class="cls-25" d="m1655.67,1557.21c1.83,0,3.61-.61,5.09-1.77,2.01-1.58,3.16-3.94,3.16-6.5v-24.45c0-2.21-.86-4.28-2.42-5.84l-16.96-16.96c-.91-.91-1.41-2.11-1.41-3.39v-39.2c0-1.28.5-2.48,1.41-3.39l15.29-15.29c1.56-1.56,2.42-3.64,2.42-5.84v-61.6s-3.47,0-3.47,0v61.6c0,1.26-.51,2.5-1.4,3.39l-15.29,15.29c-1.56,1.56-2.42,3.63-2.42,5.84v39.2c0,2.21.86,4.28,2.42,5.84l16.96,16.96c.91.91,1.41,2.11,1.41,3.39v24.45c0,1.48-.67,2.85-1.83,3.77-1.17.91-2.65,1.24-4.1.89l-167.4-40.9c-2.15-.53-3.66-2.44-3.66-4.65v-120.32c0-1.26.51-2.5,1.4-3.39l20.84-20.85c1.56-1.56,2.42-3.63,2.42-5.84v-38.7s-3.47,0-3.47,0v38.7c0,1.28-.5,2.48-1.41,3.39l-20.84,20.85c-1.54,1.54-2.42,3.67-2.42,5.84v120.32c0,3.82,2.59,7.12,6.3,8.02l167.4,40.9c.66.16,1.32.24,1.98.24Z"/>
      <circle class="cls-25" cx="1683.21" cy="1461.73" r="7.68"/>
      <circle class="cls-25" cx="1683.21" cy="1553.19" r="7.68"/>
      <circle class="cls-25" cx="1660.96" cy="1376.8" r="7.68"/>
    </g>
    <path class="cls-25" d="m1926.22,1644.32c-.45,1.08-.97,2.15-1.49,3.19l-470.09-113.19-422.74,99.01c-.28-1.11-.56-2.22-.87-3.36l423.61-99.18.42.07,471.17,113.47Z"/>
    <path class="cls-17" d="m1110.72,621.31c-319.87,0-452.38,104.3-452.38,104.3v-232.44s132.52-104.3,452.38-104.3v232.44Z"/>
    <path class="cls-17" d="m1889.28,817.31c319.87,0,452.38,104.3,452.38,104.3v-232.44s-132.52-104.3-452.38-104.3v232.44Z"/>
    <path class="cls-20" d="m1231.91,556.73c240.84-24.55,521.26,19.58,521.26,19.58l15.06-262.07s-224.45-45.36-536.32-20.15v262.63Z"/>
    <path class="cls-17" d="m1705.06,354.39l-.28,5.76-.21,5.24-6.83,149.69c-135.02-25.01-266.77-20.47-266.77-20.47v-158.12c153.47-7.18,274.09,17.9,274.09,17.9Z"/>
    <path class="cls-2" d="m1704.79,360.15l-.21,5.24c-12.56,13.08-27.86,23.63-46.69,23.94-6.28.1-12.28-1.28-18.11-3.57-5.79-2.29-11.38-5.2-17.48-6.69-13.36-3.23-26.02,3.85-36.56,11.34-21.09,14.99-37.81,35.63-60.71,48.11-10.82,5.9-22.83,9.85-35.21,9.71-6.94-.07-13.88-1.32-20.81-.8-5.86.45-11.45,2.43-16.44,5.48-9.68,5.9-16.27,14.43-21.58,23.94v-6.56c6.07-9.68,13.74-18.07,24.73-22.97,5.52-2.43,11.31-3.54,17.35-3.47,6.83.04,13.67,1.18,20.5.83,12.59-.69,24.49-5.72,35.11-12.31,22.13-13.77,38.68-34.66,60.71-48.6,10.82-6.87,23.17-11.31,35.94-7.49,6.04,1.8,11.59,4.79,17.48,6.9,5.9,2.15,12,3.05,18.28,2.5,18.04-1.56,31.99-12.52,43.71-25.53Z"/>
    <g>
      <path class="cls-19" d="m969.99,1252.4s-28.74-30.94-32.34-40.23c-3.59-9.28-12.57.9-5.99,14.37,6.59,13.47,8.68,21.41,8.68,21.41,0,0-26.95-2.25-47.61-7.64-20.66-5.39-29.34.01-20.66,7.64,0,0-6.89,7.2,5.39,13.85,0,0-8.68,9.95,6.59,14.74,0,0-1.5,11.65,15.27,13.31,16.77,1.66,40.72,4.35,51.2,4.35s27.84-14.67,27.84-14.67l-8.38-27.14Z"/>
      <path class="cls-4" d="m924.08,1253.09c-17.08-3.48-34.32-6.13-51.66-7.93-1.88-.2-1.87,2.74,0,2.94,17.08,1.78,34.06,4.39,50.88,7.82,1.85.38,2.64-2.45.78-2.83Z"/>
      <path class="cls-4" d="m921.68,1264.38c-14.96-.63-29.85-2.4-44.54-5.32-1.85-.37-2.64,2.46-.78,2.83,14.94,2.97,30.09,4.79,45.32,5.43,1.89.08,1.89-2.86,0-2.94Z"/>
      <path class="cls-4" d="m922.81,1277.42c-12.94-1.14-25.88-2.29-38.82-3.43-1.88-.17-1.87,2.77,0,2.94,12.94,1.14,25.88,2.29,38.82,3.43,1.88.17,1.87-2.77,0-2.94Z"/>
      <path class="cls-4" d="m1358.51,1060.03c-18.42,32.68-56.96,98.9-85.86,148.47-5.86,10.06-11.34,19.39-16.17,27.65-6.49,11.14-18.11,17.17-29.94,17.17-.35,0-.66,0-1.01-.04-7.29-.21-14.57-2.71-20.78-7.67-5.14-4.13-8.85-9.51-10.93-15.4-3.02-8.53-2.67-18.21,1.53-26.82l12.56-25.74,1.8-3.71,32.51-66.64,24.56-50.37c29.1-69.31,65.74-76.21,85.41-58.9.87.76,1.73,1.6,2.53,2.46,12.42,13.32,16.34,37.29,3.78,59.53Z"/>
      <path class="cls-18" d="m1357.08,996.62l-2.36,3.88-29.76,48.98c-18.94,31.19-37.88,62.37-56.86,93.56-3.47,5.76-6.77,11.86-11.03,17.14-.8.97-1.63,1.94-2.5,2.84-4.68,4.96-10.72,8.08-17.24,9.92-9.54,2.71-19.7,2.81-29.42,4.72l1.8-3.71c9.92-1.63,20.16-1.91,29.73-5.31,6.87-2.39,12.18-6.8,16.37-12.63.21-.24.38-.48.56-.73,4.82-6.83,8.88-14.26,13.25-21.4,9.44-15.54,18.87-31.05,28.31-46.59,18.07-29.76,36.15-59.49,54.26-89.26.62-1.04,1.28-2.12,1.91-3.16,1.15-1.91,4.16-.17,2.98,1.73Z"/>
      <path class="cls-4" d="m1198.58,1292.7c-34.17,6.56-212.48,0-212.48,0l-1.87-39.37s98.83-11.03,145.67-17.66h.03c1.91-.28,3.75-.55,5.48-.83,5.17-.73,9.47-1.42,12.63-2.01,29.94-5.62,45.83-2.6,45.83-2.6l35.66,25.98s3.23,29.97-30.94,36.5Z"/>
      <path class="cls-18" d="m1135.41,1234.84c-4.65,4.96-9.37,9.92-14.05,14.88-4.02,4.27-8.05,8.53-12.11,12.77-3.19,3.37-6.52,6.63-11.03,8.01-5.1,1.56-10.79,1.21-16.03,1.39-5.86.24-11.73.45-17.62.66-23.62.9-47.25,1.77-70.91,2.67-2.22.07-2.22-3.4,0-3.47,12.9-.49,25.81-.97,38.68-1.46l34.38-1.28c5.72-.21,11.48-.42,17.21-.66,5.2-.17,11.24.35,15.96-2.29,4.34-2.43,7.67-6.8,11.07-10.37,3.92-4.16,7.84-8.29,11.79-12.45,2.39-2.53,4.75-5.06,7.15-7.56h.03c1.91-.28,3.75-.55,5.48-.83Z"/>
      <circle class="cls-19" cx="1209.54" cy="1246.16" r="22.37"/>
      <path class="cls-18" d="m1209.54,1261.6c-8.51,0-15.43-6.92-15.43-15.44s6.92-15.44,15.43-15.44,15.44,6.92,15.44,15.44-6.92,15.44-15.44,15.44Z"/>
      <circle class="cls-19" cx="986.11" cy="1272.74" r="21.34"/>
      <circle class="cls-18" cx="986.11" cy="1272.74" r="14.4"/>
    </g>
    <g>
      <path class="cls-19" d="m975.45,628.8s18.26-38.08,25.58-44.83c7.32-6.74-5.44-11.37-15.57-.31-10.12,11.07-16.74,15.92-16.74,15.92,0,0-7.78-25.9-10.33-47.09-2.55-21.2-10.76-27.3-14.68-16.42,0,0-9.22-3.77-10.91,10.09,0,0-12.44-4.43-11.3,11.53,0,0-11.39,2.88-6.79,19.09,4.6,16.21,10.87,39.48,14.71,49.23,3.84,9.75,23.85,20.53,23.85,20.53l22.18-17.74Z"/>
      <path class="cls-4" d="m957.99,586.34c-3.02-17.17-6.88-34.18-11.55-50.98-.51-1.82-3.24-.73-2.73,1.08,4.6,16.54,8.39,33.3,11.36,50.21.33,1.86,3.25,1.55,2.92-.31Z"/>
      <path class="cls-4" d="m946.61,588.24c-4.9-14.15-8.7-28.65-11.37-43.39-.33-1.85-3.26-1.55-2.92.31,2.71,14.99,6.57,29.76,11.55,44.15.62,1.79,3.35.71,2.73-1.08Z"/>
      <path class="cls-4" d="m934.89,594.07c-3.68-12.46-7.35-24.92-11.03-37.38-.53-1.81-3.27-.73-2.73,1.08,3.68,12.46,7.35,24.92,11.03,37.38.54,1.81,3.27.73,2.73-1.08Z"/>
      <path class="cls-4" d="m1296.79,919.82c-37.16-5.17-112.89-16.76-169.61-25.49-11.51-1.77-22.2-3.45-31.65-4.91-12.74-1.96-22.61-10.56-26.95-21.56-.13-.32-.24-.61-.34-.95-2.48-6.86-2.82-14.55-.48-22.14,1.96-6.29,5.6-11.71,10.33-15.81,6.83-5.94,15.97-9.16,25.51-8.4l28.55,2.25,4.12.32,73.92,5.83,55.87,4.4c75.16,1.69,95,33.24,86.1,57.89-.39,1.09-.85,2.2-1.36,3.26-7.85,16.44-28.71,28.87-54,25.33Z"/>
      <path class="cls-18" d="m1355.27,895.26l-4.48-.77-56.48-9.75c-35.96-6.2-71.92-12.4-107.89-18.63-6.63-1.12-13.52-1.95-19.99-3.99-1.2-.39-2.4-.8-3.56-1.28-6.33-2.54-11.45-7.01-15.55-12.41-6.01-7.88-9.83-17.3-15.17-25.64l4.12.32c5.15,8.63,9.16,18.06,15.83,25.72,4.74,5.51,10.79,8.84,17.75,10.61.3.11.59.18.88.25,8.12,1.98,16.52,3.04,24.77,4.49,17.92,3.09,35.8,6.18,53.72,9.27,34.32,5.91,68.6,11.84,102.93,17.78,1.2.2,2.44.42,3.64.62,2.2.37,1.69,3.81-.52,3.41Z"/>
      <path class="cls-4" d="m1021.71,856.26c-18.62-29.39-77.85-197.7-77.85-197.7l35.95-16.17s46.48,87.92,69.8,129.07v.03c.97,1.67,1.9,3.28,2.79,4.8,2.57,4.54,4.79,8.29,6.5,11.01,16.2,25.8,19.21,41.69,19.21,41.69l-11.11,42.7s-26.71,13.98-45.3-15.42Z"/>
      <path class="cls-18" d="m1052.4,776.28c-6.32-2.51-12.66-5.08-18.99-7.62-5.44-2.18-10.89-4.36-16.31-6.59-4.3-1.74-8.56-3.64-11.5-7.33-3.32-4.17-5.08-9.59-7.16-14.4-2.37-5.37-4.72-10.75-7.07-16.16-9.5-21.65-18.96-43.31-28.47-65-.88-2.04,2.35-3.31,3.23-1.27,5.18,11.83,10.36,23.66,15.53,35.46l13.79,31.52c2.29,5.25,4.59,10.53,6.92,15.77,2.07,4.78,3.79,10.58,7.98,14.01,3.85,3.14,9.14,4.64,13.71,6.5,5.31,2.12,10.59,4.26,15.91,6.41,3.23,1.3,6.45,2.57,9.66,3.88v.03c.97,1.67,1.9,3.28,2.79,4.8Z"/>
      <circle class="cls-19" cx="1069.02" cy="849.41" r="22.37"/>
      <path class="cls-18" d="m1054.66,855.06c-3.12-7.92.79-16.9,8.71-20.02s16.9.79,20.02,8.71c3.12,7.92-.79,16.9-8.71,20.02-7.92,3.12-16.9-.79-20.02-8.71Z"/>
      <circle class="cls-19" cx="962.43" cy="651.26" r="21.34"/>
      <circle class="cls-18" cx="962.43" cy="651.26" r="14.4"/>
    </g>
    <g>
      <path class="cls-19" d="m1584.41,465.31s-35.25-23.26-45-25.27c-9.75-2.02-1.18-12.55,13.19-8.27,14.37,4.28,22.55,5.04,22.55,5.04,0,0-6.66-26.21-15.37-45.7-8.72-19.49-4.82-28.94,4.13-21.63,0,0,5.97-7.98,14.55,3.04,0,0,8.38-10.2,15.62,4.07,0,0,11.25-3.4,15.64,12.87,4.4,16.26,11,39.45,12.72,49.78,1.73,10.34-9.89,29.88-9.89,29.88l-28.15-3.8Z"/>
      <path class="cls-4" d="m1577.53,419.92c-6.25-16.27-11.69-32.85-16.33-49.65-.5-1.82,2.4-2.29,2.9-.48,4.56,16.55,9.94,32.87,16.09,48.9.68,1.76-1.99,3-2.67,1.24Z"/>
      <path class="cls-4" d="m1588.27,415.69c-3.08-14.66-7.28-29.04-12.58-43.05-.67-1.76,2-3.01,2.67-1.24,5.39,14.25,9.68,28.89,12.81,43.8.39,1.85-2.51,2.33-2.9.48Z"/>
      <path class="cls-4" d="m1601.32,414.66c-3.26-12.57-6.52-25.15-9.78-37.72-.48-1.83,2.43-2.3,2.9-.48,3.26,12.57,6.52,25.15,9.78,37.72.47,1.83-2.43,2.3-2.9.48Z"/>
      <path class="cls-4" d="m1458.63,880.19c29.2-23.55,88.17-72.47,132.31-109.13,8.96-7.44,17.26-14.38,24.61-20.5,9.92-8.23,13.96-20.69,12.01-32.36-.06-.34-.11-.65-.2-.99-1.4-7.15-5.07-13.93-10.98-19.23-4.92-4.39-10.83-7.16-16.99-8.24-8.91-1.57-18.4.36-26.2,5.92l-23.32,16.62-3.37,2.39-60.38,43.03-45.64,32.52c-63.57,40.12-64.35,77.39-44.04,93.94.9.73,1.86,1.45,2.85,2.09,15.19,10.06,39.47,9.98,59.34-6.07Z"/>
      <path class="cls-18" d="m1395.84,889.23l3.44-2.97,43.42-37.42c27.64-23.82,55.29-47.64,82.92-71.49,5.11-4.37,10.59-8.63,15.09-13.7.83-.95,1.65-1.93,2.39-2.93,4.12-5.44,6.21-11.91,6.95-18.64,1.1-9.86-.47-19.9-.19-29.79l-3.37,2.39c.03,10.05,1.44,20.19-.34,30.2-1.23,7.17-4.7,13.13-9.76,18.23-.2.25-.42.46-.63.67-5.95,5.88-12.6,11.11-18.93,16.59-13.78,11.87-27.52,23.73-41.29,35.59-26.38,22.73-52.73,45.45-79.11,68.21-.92.79-1.88,1.61-2.8,2.4-1.69,1.44.51,4.14,2.2,2.66Z"/>
      <path class="cls-4" d="m1661.79,684.15c.84-34.78-34.98-209.58-34.98-209.58l-39.15,4.63s5.39,99.3,6.56,146.59v.03c.05,1.93.08,3.79.09,5.54.13,5.22.16,9.58.09,12.79-.61,30.45,4.98,45.63,4.98,45.63l31.5,30.9s30.1-1.75,30.9-36.53Z"/>
      <path class="cls-18" d="m1594.32,631.36c4.13-5.4,8.24-10.87,12.37-16.31,3.55-4.67,7.09-9.34,10.6-14.04,2.79-3.7,5.46-7.52,6.09-12.2.7-5.29-.58-10.84-1.27-16.04-.73-5.82-1.49-11.64-2.25-17.49-3-23.45-6.03-46.9-9.04-70.38-.3-2.2-3.72-1.63-3.42.57,1.64,12.81,3.29,25.62,4.93,38.39l4.4,34.12c.74,5.68,1.48,11.39,2.18,17.08.69,5.16,2.19,11.03.37,16.12-1.68,4.68-5.44,8.68-8.41,12.62-3.46,4.55-6.89,9.1-10.34,13.68-2.1,2.78-4.21,5.52-6.28,8.29v.03c.05,1.93.08,3.79.09,5.54Z"/>
      <circle class="cls-19" cx="1617.69" cy="702.62" r="22.37"/>
      <path class="cls-18" d="m1632.92,700.07c-1.4-8.39-9.37-14.08-17.77-12.68-8.4,1.4-14.09,9.37-12.68,17.77,1.4,8.4,9.37,14.09,17.77,12.69,8.4-1.4,14.09-9.37,12.68-17.77Z"/>
      <circle class="cls-19" cx="1607.13" cy="477.86" r="21.34"/>
      <circle class="cls-18" cx="1607.13" cy="477.86" r="14.4"/>
    </g>
    <g>
      <path class="cls-19" d="m1984.43,989.92s14.53-39.66,14.25-49.61c-.28-9.95,11.94-4.04,11.08,10.93-.86,14.97.28,23.1.28,23.1,0,0,23.97-12.51,40.94-25.47,16.96-12.97,27.06-11.35,22.01-.95,0,0,9.14,3.97.39,14.86,0,0,11.86,5.81-.37,16.14,0,0,5.89,10.17-8.93,18.18-14.82,8.02-35.86,19.77-45.52,23.83-9.66,4.06-31.35-2.75-31.35-2.75l-2.77-28.27Z"/>
      <path class="cls-4" d="m2027.02,972.78c14.4-9.82,29.28-18.93,44.57-27.31,1.66-.91,2.78,1.81,1.14,2.71-15.06,8.25-29.7,17.23-43.89,26.91-1.56,1.06-3.38-1.24-1.82-2.31Z"/>
      <path class="cls-4" d="m2033.6,982.26c13.56-6.37,26.59-13.77,39-22.14,1.56-1.05,3.39,1.25,1.82,2.31-12.63,8.52-25.89,16.07-39.68,22.54-1.71.8-2.85-1.91-1.14-2.71Z"/>
      <path class="cls-4" d="m2037.61,994.72c11.49-6.06,22.98-12.13,34.46-18.19,1.67-.88,2.8,1.83,1.14,2.71-11.49,6.06-22.98,12.13-34.46,18.19-1.67.88-2.8-1.83-1.14-2.71Z"/>
      <path class="cls-4" d="m1551.74,962.91c29.63,23,90.8,69.15,136.63,103.67,9.3,7.01,17.97,13.49,25.61,19.24,10.29,7.76,23.34,8.82,34.25,4.25.32-.13.61-.26.91-.42,6.64-3.01,12.39-8.13,16.19-15.11,3.14-5.79,4.48-12.19,4.12-18.43-.52-9.04-4.59-17.83-11.79-24.13l-21.54-18.87-3.1-2.73-55.77-48.87-42.14-36.94c-53.66-52.64-90.11-44.83-101.55-21.26-.5,1.04-.98,2.14-1.38,3.25-6.3,17.09-.63,40.71,19.55,56.35Z"/>
      <path class="cls-18" d="m1528.5,903.89l3.68,2.67,46.4,33.65c29.54,21.43,59.07,42.85,88.64,64.26,5.43,3.97,10.83,8.32,16.81,11.53,1.11.59,2.25,1.16,3.4,1.66,6.24,2.76,13.01,3.3,19.74,2.47,9.84-1.2,19.26-5.03,28.95-7.03l-3.1-2.73c-9.78,2.34-19.32,6.04-29.47,6.61-7.26.45-13.86-1.56-19.98-5.31-.29-.14-.54-.3-.79-.46-7.09-4.43-13.71-9.71-20.5-14.61-14.72-10.68-29.42-21.32-44.13-32-28.18-20.45-56.36-40.87-84.58-61.3-.98-.72-2-1.45-2.98-2.17-1.79-1.32-3.91,1.45-2.08,2.75Z"/>
      <path class="cls-4" d="m1789.25,1115.55c34.04-7.18,195.92-82.24,195.92-82.24l-13.51-37.03s-95.4,28.08-141.15,40.1h-.03c-1.87.5-3.67.95-5.38,1.37-5.05,1.33-9.28,2.35-12.42,3.03-29.78,6.41-43.26,15.34-43.26,15.34l-22.83,37.76s8.63,28.89,42.66,21.67Z"/>
      <path class="cls-18" d="m1825.1,1037.75c6.21,2.78,12.48,5.52,18.71,8.28,5.36,2.38,10.72,4.75,16.1,7.08,4.25,1.87,8.58,3.59,13.27,3.12,5.31-.53,10.42-3.06,15.31-4.92,5.5-2.05,10.99-4.12,16.5-6.22,22.13-8.31,44.25-16.66,66.42-24.98,2.07-.8.73-4-1.34-3.2-12.09,4.55-24.17,9.09-36.23,13.63l-32.2,12.12c-5.36,2.02-10.75,4.06-16.12,6.05-4.86,1.85-10.23,4.67-15.6,4.07-4.94-.56-9.7-3.3-14.22-5.28-5.22-2.32-10.44-4.61-15.7-6.92-3.19-1.41-6.34-2.83-9.52-4.21h-.03c-1.87.5-3.67.95-5.38,1.37Z"/>
      <circle class="cls-19" cx="1761.13" cy="1076.88" r="22.37"/>
      <path class="cls-18" d="m1767.11,1091.11c7.85-3.29,11.55-12.36,8.26-20.21-3.29-7.85-12.36-11.55-20.21-8.26-7.85,3.3-11.55,12.36-8.26,20.21,3.29,7.85,12.36,11.55,20.21,8.26Z"/>
      <circle class="cls-19" cx="1977.43" cy="1014.91" r="21.34"/>
      <circle class="cls-18" cx="1977.43" cy="1014.91" r="14.4"/>
    </g>
    <path class="cls-16" d="m1129.24,945.56h130.94s-60.23-32.51-100.72-32.51c0,0-14.35,1.99-23.49,13.69-9.15,11.7-8.89,18.3-8.89,18.3l2.16.52Z"/>
    <path class="cls-20" d="m1129.24,945.56s6.36-29.7,33.91-29.7,40.26,28.99,48.03,62.9c7.77,33.91,68.52,316.46,113.73,316.46h200.61c29.67,0,34.61,51.57-4.24,61.46l200.61-20.37v-96.18h-188.6l-98.19-329.81h-276.2s-26.31,2.47-33.89,34.24l4.22,1.01Z"/>
    <g>
      <path class="cls-23" d="m1759.95,793.23s12.36-9.67,14.42-12.9c2.06-3.24,9.12-17.07,18.54-23.84,9.42-6.77,15.3-20.9,21.48-27.66,6.18-6.77,12.36.59,5.59,8.53-6.77,7.95-12.65,28.84-12.65,28.84,0,0,19.13-7.65,30.02-19.13,10.89-11.48,13.24-4.12,13.24-4.12,0,0,3.53-6.77,8.53-2.65,5,4.12,0,10.59,0,10.59,0,0,5.33,2.65,2.22,11.18,0,0,3.07,5-.75,12.65-3.83,7.65-36.49,43.85-46.2,52.09-9.71,8.24-35.32,16.77-35.32,16.77l-19.13-50.37Z"/>
      <g>
        <path class="cls-15" d="m1815.18,777.61c-.56,0-1.11-.27-1.45-.78-.53-.8-.3-1.88.49-2.4,22.65-14.91,34.82-32.28,34.94-32.46.54-.79,1.62-.98,2.41-.44.79.54.99,1.62.44,2.41-.5.73-12.64,18.08-35.88,33.38-.29.19-.63.29-.96.29Z"/>
        <path class="cls-15" d="m1823.31,786.62c-.6,0-1.19-.32-1.51-.88-.47-.84-.18-1.89.66-2.36,16.15-9.1,35.11-33.3,35.3-33.54.59-.76,1.67-.89,2.44-.3.76.59.89,1.68.3,2.43-.79,1.02-19.57,24.99-36.33,34.43-.27.15-.56.22-.85.22Z"/>
        <path class="cls-15" d="m1831.44,797.16c-.53,0-1.06-.24-1.4-.71-.57-.77-.4-1.86.37-2.42,9.18-6.75,29.36-32.74,29.56-33,.59-.76,1.68-.89,2.44-.31.76.59.89,1.68.31,2.43-.84,1.08-20.69,26.64-30.26,33.68-.31.23-.67.34-1.03.34Z"/>
      </g>
    </g>
    <path class="cls-23" d="m1025.64,979.61s-39.12-25.63-45.19-42.49c-6.07-16.86-9.44-34.4-18.21-34.4s4.72,32.38,4.72,32.38c0,0-28.3-21.91-36.79-32.38-8.5-10.47-10.62-5.16-8.14,2.28,0,0-10.62-5.31-5.31,9.2,0,0-7.08-2.48-4.25,7.08,0,0-6.73,1.42-2.48,12.74,4.25,11.33,26.9,48.85,40.71,58.41,13.8,9.56,52.03,45.31,52.03,45.31l22.91-58.12Z"/>
    <path class="cls-5" d="m1806.69,852.91s-65.88,38.99-131.03,74.2c-.03.04-.11.04-.14.07-47.8,25.81-95.23,49.61-115.9,54.46-44.96,10.51-100.05-11.76-125.44-50.2-2.19-3.33-4.13-6.77-5.86-10.3-21.68-44.61,20.43-79.16,47.25-70.8,0,0,87.18,28.65,112.05,27.02,24.84-1.67,167-93.42,167-93.42l6.28,8.33,45.79,60.64Z"/>
    <path class="cls-14" d="m1674.57,928.14c-47.8,25.81-95.23,49.61-115.9,54.46-44.96,10.51-100.05-11.76-125.44-50.2-.21-11.1,1.67-21.26,6.94-28.76,16.89-23.9,55.16-39.3,55.16-39.3,0,0,57.62,85.62,72.61,93.35,12.87,6.66,68.9-14.12,106.64-29.56Z"/>
    <polygon class="cls-23" points="2093.81 1352.51 2014.95 1414.08 1927.46 1326.59 2010.62 1267.17 2061.54 1319.41 2093.81 1352.51"/>
    <polygon class="cls-10" points="2093.81 1352.51 2014.95 1414.08 1987.27 1386.4 2061.54 1319.41 2093.81 1352.51"/>
    <polygon class="cls-23" points="1853.85 1635.27 1747.49 1635.27 1745.79 1598.6 1743.19 1541.88 1845.94 1532.55 1850.38 1590.14 1853.85 1635.27"/>
    <polygon class="cls-10" points="1853.85 1635.27 1747.49 1635.27 1745.79 1598.6 1850.38 1590.14 1853.85 1635.27"/>
    <path class="cls-13" d="m1889.86,1543.58l-189.06,12.14-32.33-289.15-279.26,29.07c-75.04,1.73-105.74-172.62-105.74-172.62,0,0,247.52-77.81,364.81-112.19,3.19-.94,6.35-1.73,9.47-2.43,28.31-6.31,55.05-3.33,79.27,5.48,29.56,10.75,55.3,30.18,75.45,52.11,29.14,31.6,46.59,68.34,47.04,91.41.28,14.15,2.5,47.77,5.65,89.57,3.19,42.08,7.29,92.45,11.2,139.63,7.01,83.47,13.5,156.97,13.5,156.97Z"/>
    <path class="cls-11" d="m1876.37,1386.61l-200.3-230.55c-96.47,122.8-281.27,138.48-281.27,138.48l262.95-286.13,79.27,5.48c29.56,10.75,55.3,30.18,75.45,52.11l52.69,180.98c3.19,42.08,7.29,92.45,11.2,139.63Z"/>
    <path class="cls-5" d="m1387.72,705.4s-27.69-4.47-37.52,28.14c-9.83,32.6-34.39,30.37-34.39,62.97s57.61,29.03,57.61,29.03c0,0,79.05,18.76,87.09-4.47,8.04-23.22-11.17-26.8-12.51-59.4-1.34-32.6-15.18-76.37-60.29-56.27Z"/>
    <path class="cls-22" d="m1592.81,1117.9l-80.79,22.58-85.65,23.9-129.12,36.04s-38.92-181.29-35.04-267.85c3.89-86.55,24.32-84.12,39.89-90.92,7.25-3.19,22.41-4.89,36.43-5.83,16.06-1.04,30.7-1.08,30.7-1.08,0,0,21.65-.73,47.42,2.12,30.42,3.33,66.57,11.66,79.58,31.99,34.17,53.46,96.58,249.04,96.58,249.04Z"/>
    <path class="cls-7" d="m1457.92,1072.36c-8.2-64.42-64.2-226.56-64.76-228.19l3.28-1.13c.57,1.63,56.68,164.12,64.93,228.89l-3.44.44Z"/>
    <path class="cls-5" d="m1592.81,1117.9l-80.79,22.58c-17.69-71.77-46.73-187.64-60.29-231.07-16.79-53.67-30.77-68.89-35.07-72.54,30.42,3.33,67.69,9.93,80.7,30.25,34.17,53.46,95.46,250.78,95.46,250.78Z"/>
    <path class="cls-5" d="m1426.36,1164.38l-129.12,36.04s-10.37-48.22-19.84-106.81c-6.04-37.29-11.76-78.75-14.19-114.65-1.18-17.07-1.6-32.89-1.01-46.38,3.89-86.55,24.32-84.12,39.89-90.92,7.25-3.19,22.41-4.89,36.43-5.83,0,0,28.9,34.86,44.34,107.96,10.62,50.34,31.53,158.26,43.5,220.6Z"/>
    <path class="cls-12" d="m1277.4,1093.61c-6.04-37.29-11.76-78.75-14.19-114.65l56.55-63.1s2.29,104.42-42.36,177.76Z"/>
    <polygon class="cls-21" points="1394.78 859.3 1382.48 889.55 1338.52 835.83 1370.8 823.66 1409.38 823.66 1416.65 836.87 1431.04 879.01 1394.78 859.3"/>
    <path class="cls-23" d="m1409.36,827.22c.52,11.03-7.81,26.37-18.32,26.64-10.51.28-23.69-12.11-21.82-19.12,1.04-3.85,1.77-12.38,2.19-19.32.35-5.69.52-10.3.52-10.3l34.73-4.3s.42,3.12.97,7.56c.66,5.41,1.42,12.77,1.73,18.84Z"/>
    <path class="cls-24" d="m1407.63,808.39c-.69,1.49-1.46,2.98-2.32,4.37-2.74,4.51-6.73,8.43-11.69,10.2-7.35,2.64-16.16-.14-21.2-6.18-.35-.42-.69-.87-1.01-1.35.35-5.69.52-10.3.52-10.3l34.73-4.3s.42,3.12.97,7.56Z"/>
    <path class="cls-23" d="m1360.03,748.72s-11.17,63.87,27.24,63.87,43.77-55.38,43.77-55.38c0,0-34.39-2.23-41.53-30.82,0,0-10.72,24.12-29.48,22.33Z"/>
    <path class="cls-3" d="m1283.64,1130.24s-9.56,190.88,111.14,164.31c120.7-26.57,281.27-179.06,281.27-179.06l235.66,268.01,132.85-125.92s-224.11-294.57-265.69-328.08c-41.59-33.5-76.15-20.53-153.64,18.48-77.49,39.01-341.58,182.25-341.58,182.25Z"/>
    <path class="cls-11" d="m1682.02,1127.09c-.49,0-.98-.21-1.32-.61l-55.56-65.43c-.62-.73-.53-1.83.2-2.45s1.83-.53,2.44.2l55.56,65.43c.62.73.53,1.83-.2,2.45-.33.28-.72.41-1.12.41Z"/>
    <path class="cls-22" d="m1748.89,1623.09s39.86,9.37,55.39,0c15.53-9.37,49.03-32.36,66.19,12.19,17.16,44.55,91.52,50.3,85.8,71.85-5.72,21.56-220.15,5.03-220.15,5.03,0,0-13.21-86.17,12.76-89.07Z"/>
    <path class="cls-22" d="m2008.09,1398.24s38.99-12.52,47.47-28.55c8.48-16.03,25.34-53,63.01-23.67,37.66,29.33,104.35-4.07,110.56,17.35,6.21,21.42-186.07,117.77-186.07,117.77,0,0-55.73-67.04-34.97-82.91Z"/>
    <path class="cls-10" d="m1873.07,1639.16c-9.97.2-19.54,3.74-27.3,9.96-1.74,1.4.73,3.84,2.45,2.45,7.02-5.63,15.87-8.77,24.85-8.95,2.23-.04,2.24-3.51,0-3.47Z"/>
    <path class="cls-10" d="m1879.08,1648.05c-9.97.2-19.54,3.74-27.3,9.96-1.74,1.4.73,3.84,2.45,2.45,7.02-5.63,15.87-8.77,24.85-8.95,2.23-.04,2.24-3.51,0-3.47Z"/>
    <path class="cls-10" d="m1885.1,1656.93c-9.97.2-19.54,3.74-27.3,9.96-1.74,1.4.73,3.84,2.45,2.45,7.02-5.63,15.87-8.77,24.85-8.95,2.23-.04,2.24-3.51,0-3.47Z"/>
    <path class="cls-10" d="m1892.67,1663.34c-9.97.2-19.54,3.74-27.3,9.96-1.74,1.4.73,3.84,2.45,2.45,7.02-5.63,15.87-8.77,24.85-8.95,2.23-.04,2.24-3.51,0-3.47Z"/>
    <path class="cls-10" d="m2118.38,1347.36c-9.67,2.41-18.22,7.99-24.41,15.78-1.39,1.75,1.56,3.58,2.94,1.85,5.6-7.05,13.52-12.07,22.24-14.25,2.16-.54,1.4-3.92-.77-3.38Z"/>
    <path class="cls-10" d="m2129.31,1350.95c-9.67,2.41-18.22,7.99-24.41,15.78-1.39,1.75,1.56,3.58,2.94,1.85,5.6-7.05,13.52-12.07,22.24-14.25,2.16-.54,1.4-3.92-.77-3.38Z"/>
    <path class="cls-10" d="m2140.24,1354.54c-9.67,2.41-18.22,7.99-24.41,15.78-1.39,1.75,1.56,3.58,2.94,1.85,5.6-7.05,13.52-12.07,22.24-14.25,2.16-.54,1.4-3.92-.77-3.38Z"/>
    <path class="cls-10" d="m2151.18,1358.13c-9.67,2.41-18.22,7.99-24.41,15.78-1.39,1.75,1.56,3.58,2.94,1.85,5.6-7.05,13.52-12.07,22.24-14.25,2.16-.54,1.4-3.92-.77-3.38Z"/>
    <path class="cls-5" d="m1319.93,909.89c0,15.71-2.71,31.46-7.87,46.49-17.66,51.24-56.44,144.59-110.66,167.21-75.73,31.64-215.29-73.23-215.29-73.23l6.35-14.71,35.84-82.95,134.63,65.43,112.36-156.8c20.16-28.1,32.02-12.73,38.85,9.57,3.89,12.7,5.79,25.85,5.79,38.99Z"/>
    <g>
      <path class="cls-15" d="m941.2,964.66c-.55,0-1.09-.26-1.43-.75l-28.74-41.65c-.55-.79-.35-1.87.44-2.41.79-.54,1.87-.35,2.41.44l28.74,41.65c.55.79.35,1.87-.44,2.41-.3.21-.64.31-.99.31Z"/>
      <path class="cls-15" d="m949.07,957.08c-.51,0-1.02-.23-1.36-.66l-32.35-41.15c-.59-.75-.46-1.84.29-2.44.74-.59,1.84-.46,2.43.29l32.35,41.15c.59.75.46,1.84-.29,2.44-.32.25-.69.37-1.07.37Z"/>
      <path class="cls-15" d="m952.72,942.19c-.48,0-.97-.2-1.31-.6l-30.69-35.47c-.63-.72-.55-1.82.18-2.45.72-.62,1.82-.55,2.45.18l30.69,35.47c.63.72.55,1.82-.18,2.45-.33.28-.73.42-1.13.42Z"/>
    </g>
    <rect class="cls-20" x="1454.64" y="1288.84" width="10.88" height="364.62"/>
    <polygon class="cls-20" points="1454.64 1653.45 1255.1 1707.56 1664.01 1707.56 1465.53 1653.45 1454.64 1653.45"/>
    <path class="cls-20" d="m747.36,1152.8v28.31c0,10.67,37.52,19.31,83.81,19.31s83.81-8.65,83.81-19.31v-28.31h-167.62Z"/>
    <ellipse class="cls-1" cx="831.17" cy="1152.8" rx="83.81" ry="19.31"/>
    <path class="cls-17" d="m900,1152.79c-10.41,4.06-34.14,8.91-68.83,8.91s-58.42-4.86-68.83-8.91c10.41-4.02,34.1-8.92,68.83-8.92s58.42,4.89,68.83,8.92Z"/>
    <path class="cls-9" d="m900,798.78v354.02c-10.41,4.06-34.14,8.91-68.83,8.91s-58.42-4.86-68.83-8.91v-354.02c10.41,4.02,34.13,8.91,68.83,8.91s58.42-4.89,68.83-8.91Z"/>
    <path class="cls-6" d="m831.17,807.68c-34.7,0-58.43-4.87-68.83-8.91,10.4-4.04,34.12-8.91,68.83-8.91s58.43,4.87,68.83,8.91c-10.4,4.04-34.13,8.91-68.83,8.91Z"/>
    <g>
      <path class="cls-25" d="m1220.33,1312.96v104.18c0,2.19-.87,4.27-2.39,5.83l-22.97,22.93c-.9.9-1.39,2.12-1.39,3.4v108.3c0,3.92-2.67,7.21-6.45,8.08l-162.6,36.7c-.28-1.11-.52-2.25-.76-3.4l162.6-36.7c2.19-.49,3.75-2.43,3.75-4.68v-108.3c0-2.22.83-4.27,2.39-5.83l22.97-22.97c.9-.87,1.39-2.12,1.39-3.37v-104.18h3.47Z"/>
      <rect class="cls-25" x="1216.87" y="1460.19" width="3.47" height="95.53"/>
      <path class="cls-25" d="m1246.15,1555.68c-1.83,0-3.61-.61-5.09-1.77-2.01-1.58-3.16-3.94-3.16-6.5v-24.45c0-2.21.86-4.28,2.42-5.84l16.96-16.96c.91-.91,1.41-2.11,1.41-3.39v-39.2c0-1.28-.5-2.48-1.41-3.39l-15.29-15.29c-1.56-1.56-2.42-3.64-2.42-5.84v-61.6h3.47v61.6c0,1.26.51,2.5,1.4,3.39l15.29,15.29c1.56,1.56,2.42,3.63,2.42,5.84v39.2c0,2.21-.86,4.28-2.42,5.84l-16.96,16.96c-.91.91-1.41,2.11-1.41,3.39v24.45c0,1.48.67,2.85,1.83,3.77,1.17.91,2.65,1.24,4.1.89l167.4-40.9c2.15-.53,3.66-2.44,3.66-4.65v-120.32c0-1.26-.51-2.5-1.4-3.39l-20.84-20.85c-1.56-1.56-2.42-3.63-2.42-5.84v-38.7h3.47v38.7c0,1.28.5,2.48,1.41,3.39l20.84,20.85c1.54,1.54,2.42,3.67,2.42,5.84v120.32c0,3.82-2.59,7.12-6.3,8.02l-167.4,40.9c-.66.16-1.32.24-1.98.24Z"/>
      <circle class="cls-25" cx="1218.61" cy="1460.19" r="7.68"/>
      <circle class="cls-25" cx="1218.61" cy="1551.65" r="7.68"/>
      <circle class="cls-25" cx="1240.86" cy="1375.26" r="7.68"/>
    </g>
    <circle class="cls-25" cx="1218.61" cy="1312.94" r="7.68"/>
    <circle class="cls-25" cx="1395.78" cy="1315.91" r="7.68"/>
    <path class="cls-2" d="m800.97,455.91c-31.94,9.58-62.84,22.66-91.92,38.98-8.21,4.61-16.27,9.47-24.17,14.58-1.87,1.21-.13,4.21,1.75,3,27.77-17.93,57.47-32.84,88.49-44.28,8.83-3.26,17.76-6.23,26.78-8.94,2.13-.64,1.22-3.99-.92-3.34Z"/>
    <path class="cls-2" d="m765.55,497.62c-25.62,10.07-50.42,22.15-74.12,36.16-1.92,1.13-.18,4.13,1.75,2.99,23.44-13.86,47.95-25.86,73.29-35.81,2.05-.81,1.16-4.16-.92-3.35Z"/>
    <path class="cls-2" d="m975.92,445.88c-45.95,5.83-91.41,15.31-135.82,28.47-12.55,3.72-25.01,7.73-37.38,12.01-2.1.73-1.2,4.08.92,3.35,43.48-15.07,88.16-26.65,133.5-34.53,12.88-2.24,25.81-4.18,38.77-5.83,2.19-.28,2.21-3.75,0-3.47Z"/>
    <circle class="cls-20" cx="1053.53" cy="560.2" r="29.06"/>
    <path class="cls-2" d="m1036.85,475.28c-11.63,4.91-20.82,13.52-30.45,21.42-9.73,7.98-21.49,15.86-34.6,15.64-6.82-.12-12.64-3.14-18.71-5.89-5.6-2.54-11.34-4.18-17.54-4.02-12.26.31-23.72,6.25-33.09,13.81-19.86,16.03-33.34,40.97-58.47,49.84-5.77,2.04-11.88,3.01-17.99,2.37-6.98-.73-13.5-3.64-20.28-5.25-11.95-2.85-24.27-.92-35.46,3.84-24.61,10.46-40.61,32.39-58.62,51.07-2.3,2.39-4.65,4.73-7.06,7.01-1.49,1.41.77,3.67,2.26,2.26,18.97-17.93,33.98-40.8,57.21-53.75,10.85-6.05,23.35-9.81,35.85-8.27,6.78.84,13.11,3.54,19.71,5.16,5.97,1.47,12.02,1.7,18.07.59,25.69-4.73,41.2-27.88,58.57-44.97,9.02-8.87,19.48-16.79,32.06-19.59,6.09-1.36,12.41-1.24,18.35.74,6.21,2.08,11.78,5.79,18.18,7.37,12.18,3,24.57-2.03,34.6-8.72,10.47-6.99,19.14-16.35,29.8-23.08,2.7-1.71,5.52-3.24,8.46-4.48,1.86-.79,1.04-3.88-.85-3.08Z"/>
    <path class="cls-2" d="m873.71,609.52c-40.95,8.84-81.16,21.05-120.09,36.53-11.01,4.38-21.91,9.02-32.71,13.89-2.03.92-.27,3.91,1.75,3,38.04-17.19,77.49-31.22,117.85-41.9,11.31-2.99,22.69-5.71,34.12-8.18,2.18-.47,1.26-3.82-.92-3.35Z"/>
    <ellipse class="cls-2" cx="709.96" cy="623.04" rx="7.96" ry="10.78"/>
    <ellipse class="cls-2" cx="775.6" cy="568.83" rx="7.96" ry="10.78"/>
    <ellipse class="cls-2" cx="851.25" cy="563.27" rx="7.96" ry="10.78"/>
    <ellipse class="cls-2" cx="933.6" cy="506.16" rx="7.96" ry="10.78"/>
    <ellipse class="cls-2" cx="1035.95" cy="477.83" rx="7.96" ry="10.78"/>
    <g>
      <path class="cls-2" d="m1276.55,456.46v54.14c0,2.89,7.85,2.25,7.85-.65v-54.14c0-2.89-7.85-2.25-7.85.65Z"/>
      <path class="cls-2" d="m1303.89,393.78v114.57c0,2.89,7.85,2.25,7.85-.65v-114.57c0-2.89-7.85-2.25-7.85.65Z"/>
      <path class="cls-2" d="m1332.95,391.38v114.57c0,2.89,7.85,2.25,7.85-.65v-114.57c0-2.89-7.85-2.25-7.85.65Z"/>
      <path class="cls-2" d="m1362.4,347.4v156.12c0,2.89,7.85,2.25,7.85-.65v-156.12c0-2.89-7.85-2.25-7.85.65Z"/>
      <path class="cls-2" d="m1391.33,342.5v158.64c0,2.89,7.85,2.25,7.85-.65v-158.64c0-2.89-7.85-2.25-7.85.65Z"/>
    </g>
    <path class="cls-2" d="m1313.34,309.43c-17.78-.51-35.56.83-53.07,3.96-2.19.39-1.26,3.73.92,3.35,17.2-3.07,34.67-4.34,52.14-3.83,2.23.06,2.23-3.4,0-3.47Z"/>
    <path class="cls-2" d="m1282.29,326.73c-.27-.99-1.2-1.35-2.13-1.21-5.77.85-11.55,1.7-17.32,2.56-.93.14-1.44,1.31-1.21,2.13.27.99,1.2,1.35,2.13,1.21,5.77-.85,11.55-1.7,17.32-2.56.93-.14,1.44-1.31,1.21-2.13Z"/>
    <path class="cls-2" d="m1738,350.79c-2.97,44.36-5.95,88.71-8.92,133.07-.85,12.67-1.7,25.35-2.55,38.02-.15,2.23,3.32,2.11,3.47-.1,2.97-44.36,5.95-88.71,8.92-133.07.85-12.67,1.7-25.35,2.55-38.02.15-2.23-3.32-2.11-3.47.1Z"/>
    <ellipse class="cls-2" cx="1469.64" cy="445.3" rx="6.32" ry="8.04"/>
    <ellipse class="cls-2" cx="1623.71" cy="378.09" rx="6.32" ry="8.04"/>
    <path class="cls-6" d="m796.9,865.01v234.89c0,2.23,3.47,2.24,3.47,0v-234.89c0-2.23-3.47-2.24-3.47,0Z"/>
    <path class="cls-6" d="m816.36,932.79v153.69c0,2.23,3.47,2.24,3.47,0v-153.69c0-2.23-3.47-2.24-3.47,0Z"/>
    <path class="cls-6" d="m829.11,1071.04v49.66c0,2.23,3.47,2.24,3.47,0v-49.66c0-2.23-3.47-2.24-3.47,0Z"/>
    <path class="cls-6" d="m861.99,890.51v231.54c0,2.23,3.47,2.24,3.47,0v-231.54c0-2.23-3.47-2.24-3.47,0Z"/>
    <path class="cls-14" d="m1319.93,909.89c0,15.71-2.71,31.46-7.87,46.49-17.66,51.24-56.44,144.59-110.66,167.21-75.73,31.64-215.29-73.23-215.29-73.23l6.35-14.71c8.33,5.65,135.08,91.06,187.64,73.44,54.36-18.25,101.3-80.38,139.7-198.78.04-.14.1-.28.14-.41Z"/>
    <path class="cls-15" d="m1374.6,755.98c-1.27-.11-2.6.04-3.82.41-1.36.41-2.55,1.08-3.67,1.96-.33.25-.51.84-.51,1.23,0,.43.19.93.51,1.23.33.3.76.53,1.23.51.49-.02.84-.21,1.23-.51-.43.33-.03.03.06-.04.11-.08.23-.15.34-.23.23-.15.47-.28.71-.4.11-.06.23-.11.34-.16.26-.09.51-.19.77-.26.26-.08.53-.14.8-.19.09-.02.18-.03.27-.05h.09c.55-.06,1.1-.06,1.64-.01.91.08,1.77-.86,1.73-1.73-.05-1.01-.76-1.65-1.73-1.73Z"/>
    <path class="cls-15" d="m1408.92,757.39c-2.67-1.39-5.81-1.73-8.7-.85-.87.26-1.51,1.23-1.21,2.13.28.88,1.2,1.49,2.13,1.21.3-.09.6-.17.9-.23.14-.03.27-.05.41-.07.06,0,.12-.01.18-.02.58-.05,1.16-.06,1.74,0,.04,0,.35.04.34.04.08.01.17.03.19.03.29.05.57.12.85.2s.55.17.82.27c.04.01.07.03.11.04.02,0,.01,0,.05.03.15.07.3.14.45.22.8.42,1.92.23,2.37-.62.42-.8.24-1.93-.62-2.37Z"/>
    <path class="cls-15" d="m1374.36,765.05c-.3-.3-.79-.53-1.23-.51-.45.02-.91.17-1.23.51-.31.34-.51.76-.51,1.23v3.26c0,.44.19.91.51,1.23.3.3.8.53,1.23.51.45-.02.91-.17,1.23-.51.31-.34.51-.76.51-1.23v-3.26c0-.44-.19-.91-.51-1.23Z"/>
    <path class="cls-15" d="m1399.52,765.29c-.21-.36-.62-.7-1.04-.8-.44-.1-.94-.08-1.34.17-.35.23-.74.6-.8,1.04l-.53,3.89c-.07.23-.08.46-.03.69.01.23.08.45.2.65.21.36.62.7,1.04.8.44.1.94.08,1.34-.17.35-.23.74-.6.8-1.04.18-1.3.35-2.59.53-3.89.07-.23.08-.46.03-.69-.01-.23-.08-.45-.21-.65Z"/>
    <path class="cls-24" d="m1386.31,777.12c-.94-.28-1.93-.19-2.89-.18-.02,0-.04,0-.05-.01,0-.01,0-.03.01-.04.08-.23.17-.46.25-.68.08-.21.16-.41.24-.62.05-.12.1-.25.15-.37,0-.01,0,0,0-.02.38-.87.78-1.73,1.22-2.58.42-.8.23-1.92-.62-2.37-.8-.42-1.93-.24-2.37.62-.56,1.08-1.06,2.18-1.53,3.3-.49,1.18-1.12,2.44-.83,3.75.27,1.22,1.38,2.09,2.56,2.37.54.13,1.1.15,1.65.13.25,0,.51-.02.76-.02.02,0,.13,0,.22.01.07.02.27.06.31.07.87.26,1.93-.31,2.13-1.21.21-.93-.28-1.85-1.21-2.13Z"/>
    <path class="cls-24" d="m1392.12,781.54c-.66-.6-1.81-.73-2.45,0-.78.89-1.65,1.7-2.58,2.43-.68.51-1.37.98-2.11,1.4-.79.45-1.12,1.59-.62,2.37.51.8,1.53,1.1,2.37.62,2.02-1.14,3.87-2.63,5.39-4.37.31-.35.51-.75.51-1.23,0-.43-.19-.93-.51-1.23Z"/>
    <path class="cls-20" d="m2308.4,872.94c-25.14-10.84-50.8-20.43-76.91-28.69-2.13-.68-3.05,2.67-.92,3.34,25.81,8.17,51.21,17.62,76.08,28.34,2.03.88,3.8-2.11,1.75-2.99Z"/>
    <path class="cls-20" d="m2313.96,706.21c-24.36-14.06-50.16-25.55-76.9-34.27-2.13-.69-3.04,2.65-.92,3.35,26.47,8.63,51.96,20,76.07,33.92,1.94,1.12,3.69-1.88,1.75-3Z"/>
    <g>
      <path class="cls-20" d="m2018.63,792.53c-28.77-2.95-57.71-4.13-86.63-3.47-8.3.19-16.6.53-24.89,1.01-2.22.13-2.23,3.6,0,3.47,28.87-1.68,57.84-1.58,86.7.35,8.28.55,16.56,1.26,24.82,2.11,2.22.23,2.2-3.24,0-3.47Z"/>
      <path class="cls-20" d="m1947.66,604.02c-14.51-1.01-29.05-1.32-43.59-.95-2.23.06-2.24,3.53,0,3.47,14.54-.37,29.08-.06,43.59.95,2.23.15,2.22-3.31,0-3.47Z"/>
      <path class="cls-20" d="m2085.26,667.52c-11.59-5.23-23.37-10.54-35.92-12.95-6.23-1.2-12.59-1.66-18.91-1.06-6.49.62-12.85,2.13-19.32,2.96-6.48.83-12.75.69-19.02-1.29-5.58-1.76-11.05-4.17-17.01-4.09-5.71.08-11.12,2.13-16.52,3.76-5.88,1.77-11.48,2.62-17.46.73-6.04-1.9-11.54-5.3-17.89-6.15-5.18-.7-10.6.19-14.36,4.08-1.55,1.6.9,4.06,2.45,2.45,8.03-8.28,20.74.49,29.23,3.07,5.42,1.65,10.75,1.37,16.17-.05,5.4-1.41,10.66-3.73,16.25-4.29,5.92-.6,11.29,1.53,16.79,3.37,5.69,1.9,11.37,2.71,17.37,2.28,6.1-.43,12.1-1.76,18.13-2.7,6.18-.97,12.38-1.23,18.6-.47,13.94,1.72,27,7.61,39.67,13.34,2.02.91,3.79-2.08,1.75-2.99Z"/>
      <path class="cls-20" d="m2035.96,705.33c-16.88-4.8-34.46-9.74-52.18-8.06-8.51.81-16.4,3.86-24.75,5.4-4.37.8-8.74.86-13.08-.17-4.2-1-8.19-2.66-12.28-4.03-7.54-2.53-16.57-3.95-23.46,1.03-1.79,1.29-.06,4.31,1.75,2.99,6.29-4.55,14.34-2.88,21.16-.56,7.84,2.67,15.19,5.57,23.64,4.55,8.12-.98,15.76-4.18,23.84-5.37,8.57-1.27,17.37-.75,25.89.64,9.68,1.58,19.14,4.23,28.56,6.9,2.15.61,3.07-2.73.92-3.34Z"/>
      <path class="cls-20" d="m2017.13,759.73c-7.45-9.95-20.83-9.99-31.98-8.13-7.65,1.28-15.51,3.34-23.31,2.15-7.11-1.09-13.57-4.71-20.74-5.52-6.24-.7-12.74.87-16.68,6.02-1.35,1.78,1.66,3.5,2.99,1.75,3.27-4.29,9.43-4.99,14.41-4.2,6.42,1.01,12.29,4.14,18.7,5.23,12.78,2.16,25.04-3.79,37.79-2.89,5.93.42,12.13,2.41,15.82,7.34,1.32,1.77,4.33.04,2.99-1.75Z"/>
    </g>
    <path class="cls-20" d="m2277.81,738.47c-6.46-4.23-13.72-7.23-21.32-8.67-7.31-1.38-15.52-.3-22.16-4.16-3.21-1.87-5.95-4.42-9.11-6.35-2.93-1.78-6.14-3.15-9.45-4.05-6.9-1.89-14.24-1.78-21.08.29-2.13.65-1.22,4,.92,3.35,6.73-2.04,13.87-2.02,20.58.11,3.49,1.1,6.71,2.79,9.68,4.91,2.83,2.02,5.49,4.31,8.68,5.77,6.57,3,14.05,2.16,21,3.48,7.34,1.39,14.25,4.23,20.49,8.32,1.87,1.22,3.61-1.78,1.75-3Z"/>
    <path class="cls-20" d="m2269.95,774.64c-9.51-8.89-23.13-8.69-34.78-12.84-6.92-2.46-12.04-7.69-18.55-10.87-6.58-3.21-13.81-4.56-21.07-3.33-2.2.37-1.27,3.72.92,3.35,7.15-1.22,14.46.63,20.69,4.2,3.07,1.75,5.79,4,8.74,5.93,2.61,1.71,5.4,3.03,8.34,4.07,10.95,3.9,24.33,3.61,33.25,11.95,1.63,1.52,4.09-.92,2.45-2.45Z"/>
    <path class="cls-20" d="m2265.64,802.25c-3.5-4.73-9.18-5.81-14.73-6.28-3.06-.26-6.24-.42-9.13-1.55-3.26-1.27-4.79-3.77-6.53-6.63-3.17-5.21-8.21-8.43-14.19-9.53-7.15-1.31-14.34.37-21.28,2.07-2.17.53-1.25,3.88.92,3.35,6.5-1.59,13.4-3.36,20.09-1.94,2.94.62,5.85,1.79,8.15,3.75,2.28,1.94,3.45,4.57,5.12,6.98,3.15,4.56,7.97,6.05,13.26,6.65,5.11.58,11.9.26,15.32,4.89,1.31,1.78,4.33.05,2.99-1.75Z"/>
    <polygon class="cls-20" points="2130.72 686.14 2058.41 741.22 2111.29 792.45 2151.64 767.89 2130.72 686.14"/>
    <path class="cls-17" d="m756.42,768.96c3.38,11.35,12.34,20.31,23.71,23.69,1.49.44,1.49,2.48,0,2.92-11.37,3.38-20.33,12.34-23.71,23.71-.44,1.49-2.48,1.49-2.92,0-3.38-11.37-12.33-20.33-23.69-23.71-1.48-.44-1.48-2.48,0-2.92,11.35-3.38,20.31-12.33,23.69-23.69.44-1.48,2.48-1.48,2.92,0Z"/>
    <path class="cls-3" d="m2046,284.17c3.38,11.35,12.34,20.31,23.71,23.69,1.49.44,1.49,2.48,0,2.92-11.37,3.38-20.33,12.34-23.71,23.71-.44,1.49-2.48,1.49-2.92,0-3.38-11.37-12.33-20.33-23.69-23.71-1.48-.44-1.48-2.48,0-2.92,11.35-3.38,20.31-12.33,23.69-23.69.44-1.48,2.48-1.48,2.92,0Z"/>
    <path class="cls-3" d="m2054.84,1663.98c2.22,7.46,8.1,13.34,15.57,15.56.98.29.98,1.63,0,1.92-7.47,2.22-13.35,8.1-15.57,15.57-.29.98-1.63.98-1.92,0-2.22-7.47-8.1-13.35-15.56-15.57-.98-.29-.98-1.63,0-1.92,7.46-2.22,13.34-8.1,15.56-15.56.29-.98,1.63-.98,1.92,0Z"/>
    <path class="cls-3" d="m883.54,773.35c2.22,7.46,8.1,13.34,15.57,15.56.98.29.98,1.63,0,1.92-7.47,2.22-13.35,8.1-15.57,15.57-.29.98-1.63.98-1.92,0-2.22-7.47-8.1-13.35-15.56-15.57-.98-.29-.98-1.63,0-1.92,7.46-2.22,13.34-8.1,15.56-15.56.29-.98,1.63-.98,1.92,0Z"/>
    <path class="cls-17" d="m965.63,1678.68c3.03,10.18,11.07,18.21,21.27,21.25,1.33.4,1.33,2.22,0,2.62-10.2,3.03-18.23,11.07-21.27,21.27-.4,1.33-2.22,1.33-2.62,0-3.03-10.2-11.06-18.23-21.25-21.27-1.33-.4-1.33-2.22,0-2.62,10.18-3.03,18.21-11.06,21.25-21.25.4-1.33,2.22-1.33,2.62,0Z"/>
  </g>
</svg>