<?xml version="1.0" encoding="iso-8859-1"?>
<!-- Generator: Adobe Illustrator 25.0.0, SVG Export Plug-In . SVG Version: 6.00 Build 0)  -->
<svg version="1.1" xmlns="http://www.w3.org/2000/svg" xmlns:xlink="http://www.w3.org/1999/xlink" x="0px" y="0px" width="500px"
	 height="500px" viewBox="0 0 500 500" enable-background="new 0 0 500 500" xml:space="preserve">
<g id="Background">
</g>
<g id="Object">
	<g>
		<g>
			<g>
				<path fill="#E5E9F9" d="M206.418,126.405H48.879c-6.375,0-11.543-5.168-11.543-11.543V85.293
					c0-6.375,5.168-11.543,11.543-11.543h157.54c6.375,0,11.543,5.168,11.543,11.543v29.569
					C217.961,121.237,212.793,126.405,206.418,126.405z"/>
				<g>
					<g>
						<circle fill="#87C12B" cx="68.092" cy="100.078" r="16.72"/>
						<path fill="#FFFFFF" d="M77.806,92.727c-0.696-0.696-1.824-0.696-2.52,0L64.65,103.363c-0.093,0.094-0.2,0.113-0.273,0.113
							c-0.073,0-0.18-0.02-0.274-0.113l-3.205-3.205c-0.696-0.696-1.824-0.696-2.52,0c-0.696,0.696-0.696,1.824,0,2.52l3.205,3.205
							c0.747,0.746,1.738,1.157,2.794,1.157c1.056,0,2.048-0.411,2.794-1.157l10.636-10.636
							C78.502,94.551,78.502,93.423,77.806,92.727z"/>
					</g>
					<g>
						<path fill="#CDD7FC" d="M95.617,92.923c25.115,0,50.23,0,75.345,0c7.152,0,14.304,0,21.456,0c1.448,0,1.45-2.25,0-2.25
							c-25.115,0-50.23,0-75.345,0c-7.152,0-14.304,0-21.456,0C94.169,90.673,94.167,92.923,95.617,92.923L95.617,92.923z"/>
						<path fill="#CDD7FC" d="M96.3,100.434c9.788,0,19.576,0,29.365,0c1.448,0,1.45-2.25,0-2.25c-9.788,0-19.576,0-29.365,0
							C94.852,98.184,94.85,100.434,96.3,100.434L96.3,100.434z"/>
						<path fill="#CDD7FC" d="M133.176,100.776c10.471,0,20.942,0,31.413,0c1.448,0,1.45-2.25,0-2.25c-10.471,0-20.942,0-31.413,0
							C131.728,98.526,131.726,100.776,133.176,100.776L133.176,100.776z"/>
						<path fill="#CDD7FC" d="M98.519,109.483c9.902,0,19.804,0,29.706,0c1.448,0,1.45-2.25,0-2.25c-9.902,0-19.804,0-29.706,0
							C97.071,107.233,97.069,109.483,98.519,109.483L98.519,109.483z"/>
					</g>
				</g>
			</g>
			<g>
				<path fill="#E5E9F9" d="M206.418,191.432H48.879c-6.375,0-11.543-5.168-11.543-11.543V150.32
					c0-6.375,5.168-11.543,11.543-11.543h157.54c6.375,0,11.543,5.168,11.543,11.543v29.569
					C217.961,186.264,212.793,191.432,206.418,191.432z"/>
				<g>
					<g>
						<circle fill="#87C12B" cx="68.092" cy="165.104" r="16.72"/>
						<path fill="#FFFFFF" d="M77.806,157.753c-0.696-0.696-1.824-0.696-2.52,0L64.65,168.39c-0.093,0.094-0.2,0.113-0.273,0.113
							c-0.073,0-0.18-0.02-0.274-0.113l-3.205-3.205c-0.696-0.696-1.824-0.696-2.52,0c-0.696,0.696-0.696,1.824,0,2.52l3.205,3.205
							c0.747,0.746,1.738,1.157,2.794,1.157c1.056,0,2.048-0.411,2.794-1.157l10.636-10.636
							C78.502,159.577,78.502,158.449,77.806,157.753z"/>
					</g>
					<g>
						<path fill="#CDD7FC" d="M95.617,157.949c25.115,0,50.23,0,75.345,0c7.152,0,14.304,0,21.456,0c1.448,0,1.45-2.25,0-2.25
							c-25.115,0-50.23,0-75.345,0c-7.152,0-14.304,0-21.456,0C94.169,155.699,94.167,157.949,95.617,157.949L95.617,157.949z"/>
						<path fill="#CDD7FC" d="M96.3,165.461c9.788,0,19.576,0,29.365,0c1.448,0,1.45-2.25,0-2.25c-9.788,0-19.576,0-29.365,0
							C94.852,163.211,94.85,165.461,96.3,165.461L96.3,165.461z"/>
						<path fill="#CDD7FC" d="M133.176,165.803c10.471,0,20.942,0,31.413,0c1.448,0,1.45-2.25,0-2.25c-10.471,0-20.942,0-31.413,0
							C131.728,163.553,131.726,165.803,133.176,165.803L133.176,165.803z"/>
						<path fill="#CDD7FC" d="M98.519,174.509c9.902,0,19.804,0,29.706,0c1.448,0,1.45-2.25,0-2.25c-9.902,0-19.804,0-29.706,0
							C97.071,172.259,97.069,174.509,98.519,174.509L98.519,174.509z"/>
					</g>
				</g>
			</g>
			<g>
				<path fill="#E5E9F9" d="M206.418,256.458H48.879c-6.375,0-11.543-5.168-11.543-11.543v-29.569
					c0-6.375,5.168-11.543,11.543-11.543h157.54c6.375,0,11.543,5.168,11.543,11.543v29.569
					C217.961,251.29,212.793,256.458,206.418,256.458z"/>
				<g>
					<g>
						<circle fill="#87C12B" cx="68.092" cy="230.131" r="16.72"/>
						<path fill="#FFFFFF" d="M77.806,222.78c-0.696-0.696-1.824-0.696-2.52,0L64.65,233.417c-0.093,0.094-0.2,0.113-0.273,0.113
							c-0.073,0-0.18-0.02-0.274-0.113l-3.205-3.205c-0.696-0.696-1.824-0.696-2.52,0c-0.696,0.696-0.696,1.824,0,2.52l3.205,3.205
							c0.747,0.746,1.738,1.157,2.794,1.157c1.056,0,2.048-0.411,2.794-1.157L77.806,225.3
							C78.502,224.604,78.502,223.476,77.806,222.78z"/>
					</g>
					<g>
						<path fill="#CDD7FC" d="M95.617,222.976c25.115,0,50.23,0,75.345,0c7.152,0,14.304,0,21.456,0c1.448,0,1.45-2.25,0-2.25
							c-25.115,0-50.23,0-75.345,0c-7.152,0-14.304,0-21.456,0C94.169,220.726,94.167,222.976,95.617,222.976L95.617,222.976z"/>
						<path fill="#CDD7FC" d="M96.3,230.488c9.788,0,19.576,0,29.365,0c1.448,0,1.45-2.25,0-2.25c-9.788,0-19.576,0-29.365,0
							C94.852,228.238,94.85,230.488,96.3,230.488L96.3,230.488z"/>
						<path fill="#CDD7FC" d="M133.176,230.829c10.471,0,20.942,0,31.413,0c1.448,0,1.45-2.25,0-2.25c-10.471,0-20.942,0-31.413,0
							C131.728,228.579,131.726,230.829,133.176,230.829L133.176,230.829z"/>
						<path fill="#CDD7FC" d="M98.519,239.536c9.902,0,19.804,0,29.706,0c1.448,0,1.45-2.25,0-2.25c-9.902,0-19.804,0-29.706,0
							C97.071,237.286,97.069,239.536,98.519,239.536L98.519,239.536z"/>
					</g>
				</g>
			</g>
			<g>
				<path fill="#E5E9F9" d="M206.418,321.485H48.879c-6.375,0-11.543-5.168-11.543-11.543v-29.569
					c0-6.375,5.168-11.543,11.543-11.543h157.54c6.375,0,11.543,5.168,11.543,11.543v29.569
					C217.961,316.317,212.793,321.485,206.418,321.485z"/>
				<g>
					<g>
						<circle fill="#87C12B" cx="68.092" cy="295.158" r="16.72"/>
						<path fill="#FFFFFF" d="M77.806,287.807c-0.696-0.696-1.824-0.696-2.52,0L64.65,298.443c-0.093,0.094-0.2,0.113-0.273,0.113
							c-0.073,0-0.18-0.02-0.274-0.113l-3.205-3.205c-0.696-0.696-1.824-0.696-2.52,0c-0.696,0.696-0.696,1.824,0,2.52l3.205,3.205
							c0.747,0.746,1.738,1.157,2.794,1.157c1.056,0,2.048-0.411,2.794-1.157l10.636-10.636
							C78.502,289.631,78.502,288.503,77.806,287.807z"/>
					</g>
					<g>
						<path fill="#CDD7FC" d="M95.617,288.003c25.115,0,50.23,0,75.345,0c7.152,0,14.304,0,21.456,0c1.448,0,1.45-2.25,0-2.25
							c-25.115,0-50.23,0-75.345,0c-7.152,0-14.304,0-21.456,0C94.169,285.753,94.167,288.003,95.617,288.003L95.617,288.003z"/>
						<path fill="#CDD7FC" d="M96.3,295.514c9.788,0,19.576,0,29.365,0c1.448,0,1.45-2.25,0-2.25c-9.788,0-19.576,0-29.365,0
							C94.852,293.264,94.85,295.514,96.3,295.514L96.3,295.514z"/>
						<path fill="#CDD7FC" d="M133.176,295.856c10.471,0,20.942,0,31.413,0c1.448,0,1.45-2.25,0-2.25c-10.471,0-20.942,0-31.413,0
							C131.728,293.606,131.726,295.856,133.176,295.856L133.176,295.856z"/>
						<path fill="#CDD7FC" d="M98.519,304.563c9.902,0,19.804,0,29.706,0c1.448,0,1.45-2.25,0-2.25c-9.902,0-19.804,0-29.706,0
							C97.071,302.313,97.069,304.563,98.519,304.563L98.519,304.563z"/>
					</g>
				</g>
			</g>
			<g>
				<path fill="#E5E9F9" d="M206.418,386.512H48.879c-6.375,0-11.543-5.168-11.543-11.543V345.4c0-6.375,5.168-11.543,11.543-11.543
					h157.54c6.375,0,11.543,5.168,11.543,11.543v29.569C217.961,381.344,212.793,386.512,206.418,386.512z"/>
				<g>
					<g>
						<circle fill="#87C12B" cx="68.092" cy="360.184" r="16.72"/>
						<path fill="#FFFFFF" d="M77.806,352.833c-0.696-0.696-1.824-0.696-2.52,0L64.65,363.47c-0.093,0.094-0.2,0.113-0.273,0.113
							c-0.073,0-0.18-0.02-0.274-0.113l-3.205-3.205c-0.696-0.696-1.824-0.696-2.52,0c-0.696,0.696-0.696,1.824,0,2.52l3.205,3.205
							c0.747,0.746,1.738,1.158,2.794,1.158c1.056,0,2.048-0.411,2.794-1.158l10.636-10.636
							C78.502,354.657,78.502,353.529,77.806,352.833z"/>
					</g>
					<g>
						<path fill="#CDD7FC" d="M95.617,353.029c25.115,0,50.23,0,75.345,0c7.152,0,14.304,0,21.456,0c1.448,0,1.45-2.25,0-2.25
							c-25.115,0-50.23,0-75.345,0c-7.152,0-14.304,0-21.456,0C94.169,350.779,94.167,353.029,95.617,353.029L95.617,353.029z"/>
						<path fill="#CDD7FC" d="M96.3,360.541c9.788,0,19.576,0,29.365,0c1.448,0,1.45-2.25,0-2.25c-9.788,0-19.576,0-29.365,0
							C94.852,358.291,94.85,360.541,96.3,360.541L96.3,360.541z"/>
						<path fill="#CDD7FC" d="M133.176,360.883c10.471,0,20.942,0,31.413,0c1.448,0,1.45-2.25,0-2.25c-10.471,0-20.942,0-31.413,0
							C131.728,358.633,131.726,360.883,133.176,360.883L133.176,360.883z"/>
						<path fill="#CDD7FC" d="M98.519,369.589c9.902,0,19.804,0,29.706,0c1.448,0,1.45-2.25,0-2.25c-9.902,0-19.804,0-29.706,0
							C97.071,367.339,97.069,369.589,98.519,369.589L98.519,369.589z"/>
					</g>
				</g>
			</g>
		</g>
		<g>
			<g>
				<path fill="#98ADEA" d="M445.42,314.082c0.276,4.836,0.551,9.672,0.827,14.507c0.662,11.61,1.324,23.219,1.985,34.829
					c0.798,13.997,1.596,27.993,2.394,41.99c0.69,12.102,1.38,24.203,2.07,36.305c0.336,5.897,0.555,11.815,1.009,17.705
					c0.006,0.082,0.009,0.165,0.014,0.248c0.082,1.44,2.333,1.449,2.25,0c-0.276-4.836-0.551-9.672-0.827-14.507
					c-0.662-11.61-1.324-23.219-1.985-34.829c-0.798-13.997-1.596-27.993-2.394-41.99c-0.69-12.102-1.38-24.203-2.07-36.305
					c-0.336-5.897-0.556-11.815-1.009-17.705c-0.006-0.082-0.009-0.165-0.014-0.248C447.588,312.643,445.337,312.633,445.42,314.082
					L445.42,314.082z"/>
			</g>
			<g>
				<path fill="#98ADEA" d="M366.857,314.082c0.276,4.836,0.551,9.672,0.827,14.507c0.662,11.61,1.324,23.219,1.985,34.829
					c0.798,13.997,1.596,27.993,2.394,41.99c0.69,12.102,1.38,24.203,2.07,36.305c0.336,5.897,0.555,11.815,1.009,17.705
					c0.006,0.082,0.009,0.165,0.014,0.248c0.082,1.44,2.333,1.449,2.25,0c-0.276-4.836-0.551-9.672-0.827-14.507
					c-0.662-11.61-1.324-23.219-1.985-34.829c-0.798-13.997-1.596-27.993-2.394-41.99c-0.69-12.102-1.38-24.203-2.07-36.305
					c-0.336-5.897-0.556-11.815-1.009-17.705c-0.006-0.082-0.009-0.165-0.014-0.248
					C369.025,312.643,366.774,312.633,366.857,314.082L366.857,314.082z"/>
			</g>
			<g>
				<path fill="#98ADEA" d="M224.416,314.082c-0.276,4.836-0.551,9.672-0.827,14.507c-0.662,11.61-1.324,23.219-1.985,34.829
					c-0.798,13.997-1.596,27.993-2.394,41.99c-0.69,12.102-1.38,24.203-2.07,36.305c-0.229,4.02-0.458,8.041-0.688,12.061
					c-0.107,1.873-0.308,3.768-0.322,5.644c-0.001,0.082-0.009,0.165-0.014,0.248c-0.082,1.447,2.168,1.442,2.25,0
					c0.276-4.836,0.551-9.672,0.827-14.507c0.662-11.61,1.324-23.219,1.985-34.829c0.798-13.997,1.596-27.993,2.394-41.99
					c0.69-12.102,1.38-24.203,2.07-36.305c0.229-4.02,0.458-8.041,0.688-12.061c0.107-1.873,0.308-3.768,0.322-5.644
					c0.001-0.082,0.009-0.165,0.014-0.248C226.748,312.636,224.498,312.641,224.416,314.082L224.416,314.082z"/>
			</g>
			<g>
				<path fill="#98ADEA" d="M274.003,314.082c-0.276,4.836-0.551,9.672-0.827,14.507c-0.662,11.61-1.324,23.219-1.985,34.829
					c-0.798,13.997-1.596,27.993-2.394,41.99c-0.69,12.102-1.38,24.203-2.07,36.305c-0.229,4.02-0.458,8.041-0.688,12.061
					c-0.107,1.873-0.308,3.768-0.322,5.644c-0.001,0.082-0.009,0.165-0.014,0.248c-0.082,1.447,2.168,1.442,2.25,0
					c0.276-4.836,0.551-9.672,0.827-14.507c0.662-11.61,1.324-23.219,1.985-34.829c0.798-13.997,1.596-27.993,2.394-41.99
					c0.69-12.102,1.38-24.203,2.07-36.305c0.229-4.02,0.458-8.041,0.688-12.061c0.107-1.873,0.308-3.768,0.322-5.644
					c0.001-0.082,0.009-0.165,0.014-0.248C276.336,312.636,274.086,312.641,274.003,314.082L274.003,314.082z"/>
			</g>
			<g>
				<path fill="#CDD7FC" d="M215.751,306.081h153.044c3.666,0,6.638-2.972,6.638-6.638v-4.792c0-3.666-2.972-6.638-6.638-6.638
					H215.751c-3.666,0-6.638,2.972-6.638,6.638v4.792C209.112,303.109,212.084,306.081,215.751,306.081z"/>
				<path fill="#E5E9F9" d="M371.877,306.081h88.668c3.666,0,6.638-2.972,6.638-6.638v-4.792c0-3.666-2.972-6.638-6.638-6.638
					h-88.668c-3.666,0-6.638,2.972-6.638,6.638v4.792C365.238,303.109,368.21,306.081,371.877,306.081z"/>
				
					<rect x="354.666" y="306.081" transform="matrix(-1 -3.852308e-11 3.852308e-11 -1 811.0881 621.7123)" fill="#CDD7FC" width="101.756" height="9.55"/>
				<rect x="222.516" y="306.081" fill="#98ADEA" width="132.15" height="9.55"/>
			</g>
		</g>
		<g>
			<polygon fill="#E5E9F9" points="460.41,461.766 346.247,461.766 323.117,377.353 435.178,377.353 			"/>
			<polygon fill="#CDD7FC" points="449.255,461.766 346.247,461.766 323.117,377.353 424.023,377.353 			"/>
			<polygon fill="#CDD7FC" points="434.817,377.353 430.289,393.874 411.686,461.766 297.515,461.766 317.813,393.874 
				322.755,377.353 			"/>
			<polygon fill="#FFFFFF" points="300.201,459.766 324.244,379.353 432.195,379.353 410.161,459.766 			"/>
			<polygon fill="#13337E" points="434.817,377.353 430.289,393.874 317.813,393.874 322.755,377.353 			"/>
			<g>
				<g>
					<path fill="#FFC720" d="M342.982,382.631c0.397,0.671,0.097,1.385-0.477,1.818c-2.851,2.153-6.963,2.197-10.034,0.468
						c-2.754-1.544-4.395-4.474-4.766-7.563c-0.018-0.088-0.027-0.168-0.035-0.256c-0.318-3.221,0.918-6.972,3.954-8.516
						c3-1.518,6.848-1.297,9.628,0.635c2.63,1.827,4.227,4.933,4.139,8.137h-2.639c0.035-2.683-1.385-5.225-3.821-6.433
						c-2.047-1.024-5.048-1.024-6.857,0.512c-1.615,1.359-2.03,3.874-1.712,5.922c0.035,0.229,0.071,0.441,0.124,0.653
						c0.53,2.215,1.986,4.201,4.166,5.022c2.197,0.838,4.633,0.556,6.521-0.865C341.747,381.721,342.656,382.074,342.982,382.631z"
						/>
					<path fill="#FFC720" d="M363.536,382.631c0.389,0.671,0.097,1.385-0.476,1.818c-2.851,2.153-6.963,2.197-10.034,0.468
						c-2.754-1.544-4.395-4.474-4.766-7.563c-0.018-0.088-0.027-0.168-0.035-0.256c-0.318-3.221,0.909-6.972,3.954-8.516
						c3-1.518,6.848-1.297,9.628,0.635c2.63,1.827,4.219,4.933,4.13,8.137h-2.648c0.053-2.683-1.359-5.225-3.804-6.433
						c-2.047-1.024-5.048-1.024-6.857,0.512c-1.615,1.359-2.03,3.874-1.712,5.922c0.027,0.229,0.071,0.441,0.124,0.653
						c0.53,2.215,1.986,4.201,4.157,5.022c2.206,0.838,4.642,0.556,6.531-0.865C362.3,381.721,363.21,382.074,363.536,382.631z"/>
					<path fill="#FFC720" d="M384.09,382.631c0.389,0.671,0.097,1.385-0.477,1.818c-2.85,2.153-6.963,2.197-10.034,0.468
						c-2.754-1.544-4.395-4.474-4.766-7.563c-0.018-0.088-0.027-0.168-0.035-0.256c-0.318-3.221,0.909-6.972,3.945-8.516
						c3.001-1.518,6.857-1.297,9.637,0.635c2.63,1.827,4.219,4.933,4.13,8.137h-2.648c0.053-2.683-1.359-5.225-3.804-6.433
						c-2.047-1.024-5.048-1.024-6.857,0.512c-1.615,1.359-2.03,3.874-1.712,5.922c0.027,0.229,0.071,0.441,0.124,0.653
						c0.53,2.215,1.977,4.201,4.157,5.022c2.206,0.838,4.642,0.556,6.531-0.865C382.854,381.721,383.763,382.074,384.09,382.631z"/>
					<path fill="#FFC720" d="M404.643,382.631c0.389,0.671,0.097,1.385-0.477,1.818c-2.85,2.153-6.963,2.197-10.034,0.468
						c-2.754-1.544-4.395-4.474-4.766-7.563c-0.018-0.088-0.027-0.168-0.035-0.256c-0.318-3.221,0.909-6.972,3.945-8.516
						c3-1.518,6.857-1.297,9.637,0.635c2.63,1.827,4.219,4.933,4.13,8.137h-2.648c0.053-2.683-1.359-5.225-3.804-6.433
						c-2.047-1.024-5.048-1.024-6.857,0.512c-1.615,1.359-2.03,3.874-1.712,5.922c0.027,0.229,0.071,0.441,0.124,0.653
						c0.53,2.215,1.977,4.201,4.157,5.022c2.206,0.838,4.642,0.556,6.531-0.865C403.408,381.721,404.317,382.074,404.643,382.631z"
						/>
					<path fill="#FFC720" d="M425.197,382.631c0.389,0.671,0.097,1.385-0.477,1.818c-2.85,2.153-6.963,2.197-10.034,0.468
						c-2.754-1.544-4.395-4.474-4.765-7.563c-0.018-0.088-0.027-0.168-0.035-0.256c-0.327-3.221,0.909-6.972,3.945-8.516
						c3-1.518,6.857-1.297,9.628,0.635c2.638,1.827,4.227,4.933,4.139,8.137h-2.648c0.053-2.683-1.359-5.225-3.812-6.433
						c-2.039-1.024-5.039-1.024-6.849,0.512c-1.615,1.359-2.03,3.874-1.712,5.922c0.026,0.229,0.071,0.441,0.124,0.653
						c0.53,2.215,1.977,4.201,4.157,5.022c2.206,0.838,4.642,0.556,6.531-0.865C423.962,381.721,424.871,382.074,425.197,382.631z"
						/>
				</g>
			</g>
			<path fill="#5A71E5" d="M351.642,409.031c-6.076,0.584-10.526,5.154-12.665,10.635c-2.286,5.858-2.96,13.558-0.161,19.342
				c5.178,10.703,19.741,12.523,30.11,10.469c6.11-1.211,12.252-3.896,16.908-8.094c4.751-4.284,6.715-10.219,6.476-16.522
				c-0.222-5.832-1.757-12.074-5.467-16.699c-3.816-4.757-10.014-6.741-15.943-6.938c-3.46-0.115-6.995,0.516-10.073,2.143
				c-2.861,1.512-5.142,3.884-6.98,6.513c-1.897,2.712-3.568,5.81-4.565,8.975c-0.93,2.952-1.141,6.31,0.785,8.917
				c0.851,1.152,2.805,0.031,1.943-1.136c-3.145-4.256,0.541-10.514,2.904-14.294c2.925-4.677,7.087-8.067,12.694-8.739
				c5.244-0.629,11.624,0.526,15.686,4.09c3.911,3.431,5.687,8.663,6.438,13.674c0.821,5.484,0.364,11.453-3.163,15.965
				c-3.383,4.328-8.708,7.159-13.845,8.829c-9.32,3.031-22.016,2.984-29.333-4.537c-4.606-4.734-4.692-11.741-3.31-17.837
				c1.311-5.779,5.103-11.885,11.56-12.506C353.07,411.143,353.085,408.892,351.642,409.031L351.642,409.031z"/>
		</g>
		<g>
			<g>
				<ellipse fill="#13337E" cx="177.461" cy="170.242" rx="39.386" ry="32.649"/>
				<path fill="#13337E" d="M157.172,132.873c0,0-3.533-16.113-0.014-27.225c3.519-11.112,13.52-12.038,13.52-12.038
					s16.853-21.298,41.3-5.556s9.522,51.857,9.522,51.857L157.172,132.873z"/>
				<g>
					<g>
						<path fill="#FFD9DE" d="M232.451,212.89l4.662,1.152l-46.764,22.064l-48.635-22.064v-21.659c0,0,24.582-7.087,27.845-12.274
							c0.876-1.395,1.51-3.389,1.962-5.558c1.246-5.902,1.186-13.106,1.186-13.106l16.706,3.694l16.711-3.694
							c0,0-0.073,8.482,1.524,14.58c0.415,1.587,0.945,3.014,1.62,4.085C212.53,185.297,232.451,212.89,232.451,212.89z"/>
						<path fill="#F995A6" d="M207.648,176.025c-4.906,2.509-10.637,3.952-16.765,3.952c-7.247,0-13.941-2.017-19.362-5.425
							c1.246-5.902,1.186-13.106,1.186-13.106l16.706,3.694l16.711-3.694C206.123,161.446,206.05,169.928,207.648,176.025z"/>
					</g>
					<g>
						<g>
							
								<ellipse transform="matrix(0.2025 -0.9793 0.9793 0.2025 41.4324 333.1824)" fill="#F9BBC6" cx="225.275" cy="141.154" rx="10.249" ry="8.43"/>
							<g>
								<path fill="#F995A6" d="M223.66,146.802c-0.186,0-0.347-0.137-0.372-0.325c-0.242-1.819-0.169-3.649,0.218-5.438
									c0.312-1.456,0.791-2.611,1.462-3.529c0.84-1.15,2.023-1.925,3.249-2.127c0.212-0.028,0.397,0.105,0.431,0.31
									s-0.104,0.396-0.31,0.431c-1.032,0.17-2.04,0.837-2.765,1.829c-0.607,0.832-1.044,1.894-1.335,3.245
									c-0.368,1.705-0.438,3.448-0.206,5.181c0.027,0.205-0.117,0.395-0.322,0.422
									C223.693,146.801,223.676,146.802,223.66,146.802z"/>
								<path fill="#F995A6" d="M227.843,144.056c-0.03,0-0.061-0.004-0.092-0.012c-0.2-0.05-0.322-0.254-0.271-0.455
									c0.174-0.693-0.143-1.538-0.808-2.152c-0.178-0.165-0.329-0.268-0.476-0.323c-0.357-0.141-0.779-0.049-1.229,0.046
									c-0.289,0.062-0.589,0.125-0.899,0.136c-0.203,0.001-0.38-0.155-0.388-0.362c-0.007-0.207,0.155-0.381,0.362-0.388
									c0.244-0.008,0.5-0.062,0.771-0.119c0.534-0.112,1.088-0.231,1.651-0.013c0.237,0.091,0.465,0.241,0.716,0.473
									c0.863,0.797,1.267,1.93,1.025,2.887C228.164,143.942,228.011,144.056,227.843,144.056z"/>
							</g>
						</g>
						<g>
							
								<ellipse transform="matrix(0.9793 -0.2025 0.2025 0.9793 -25.361 34.3928)" fill="#F9BBC6" cx="155.421" cy="141.154" rx="8.43" ry="10.249"/>
							<g>
								<g>
									<path fill="#F995A6" d="M157.036,146.802c-0.016,0-0.033-0.001-0.05-0.003c-0.205-0.027-0.35-0.217-0.322-0.422
										c0.231-1.731,0.162-3.475-0.205-5.181c-0.293-1.354-0.729-2.416-1.335-3.246c-0.725-0.991-1.733-1.658-2.766-1.828
										c-0.205-0.034-0.343-0.227-0.31-0.431c0.033-0.205,0.216-0.343,0.431-0.31c1.226,0.202,2.41,0.978,3.25,2.126
										c0.669,0.917,1.147,2.071,1.462,3.53c0.386,1.791,0.459,3.62,0.217,5.438C157.383,146.665,157.222,146.802,157.036,146.802
										z"/>
									<path fill="#F995A6" d="M152.854,144.056c-0.168,0-0.321-0.113-0.363-0.283c-0.241-0.957,0.162-2.09,1.024-2.887
										c0.252-0.231,0.479-0.382,0.718-0.474c0.562-0.216,1.117-0.101,1.65,0.014c0.271,0.057,0.526,0.111,0.771,0.119
										c0.207,0.007,0.369,0.181,0.362,0.388s-0.158,0.364-0.388,0.362c-0.311-0.011-0.61-0.074-0.899-0.136
										c-0.449-0.095-0.871-0.186-1.228-0.047c-0.147,0.057-0.299,0.159-0.478,0.324c-0.664,0.614-0.98,1.459-0.807,2.152
										c0.051,0.201-0.071,0.405-0.271,0.455C152.914,144.052,152.884,144.056,152.854,144.056z"/>
								</g>
							</g>
						</g>
					</g>
					<g>
						<path fill="#FFD9DE" d="M221.499,127.717v15.565c0,17.055-13.826,30.881-30.881,30.881h-0.354
							c-17.055,0-30.881-13.826-30.881-30.881v-16.348c0-0.63,0.451-1.167,1.072-1.277c2.984-0.531,7.723-1.744,13.303-4.5
							c6.39-3.154,9.678-6.046,11.159-7.624c0.55-0.586,1.488-0.545,1.974,0.095c3.085,4.061,13.798,15.749,33.109,12.809
							C220.788,126.318,221.499,126.921,221.499,127.717z"/>
						<g>
							<g>
								<g>
									<ellipse fill="#13337E" cx="175.402" cy="135.429" rx="2.278" ry="3.594"/>
								</g>
								<g>
									<ellipse fill="#13337E" cx="205.127" cy="135.429" rx="2.278" ry="3.594"/>
								</g>
							</g>
						</g>
						<path fill="#F995A6" d="M190.061,135.815c0.199,0.731,0.439,1.505,0.338,2.273c-0.086,0.649-0.369,1.268-0.659,1.847
							c-0.678,1.354-1.531,2.564-2.453,3.759c-0.86,1.114-1.506,2.466-0.82,3.842c0.621,1.244,1.956,2.246,3.032,3.074
							c0.482,0.371,1.26,0.074,1.539-0.404c0.34-0.581,0.079-1.167-0.404-1.539c-0.488-0.376-0.946-0.796-1.378-1.234
							c-0.302-0.306-0.86-0.734-0.843-1.209c0.018-0.498,0.542-1.038,0.832-1.405c0.454-0.574,0.895-1.156,1.296-1.768
							c0.726-1.106,1.402-2.306,1.822-3.565c0.48-1.439,0.257-2.839-0.133-4.269C191.85,133.822,189.679,134.414,190.061,135.815
							L190.061,135.815z"/>
						<g>
							<path fill="#D35F78" d="M199.369,155.306c-0.163,2.005-0.98,3.827-2.242,5.248c-1.654,1.877-4.08,3.059-6.777,3.059
								c-2.635,0-5.005-1.126-6.659-2.923c-1.328-1.439-2.193-3.312-2.363-5.384c-0.035-0.403,0.292-0.747,0.695-0.747h16.652
								c0.08,0,0.156,0.014,0.229,0.042C199.192,154.698,199.397,154.983,199.369,155.306z"/>
							<path fill="#FFFFFF" d="M198.903,154.601c-1.995,1.376-4.991,2.252-8.345,2.252c-3.385,0-6.409-0.893-8.4-2.294h16.516
								C198.754,154.559,198.83,154.573,198.903,154.601z"/>
							<path fill="#F995A6" d="M197.127,160.554c-1.654,1.877-4.08,3.059-6.777,3.059c-2.635,0-5.005-1.126-6.659-2.923
								c1.873-0.883,4.265-1.411,6.868-1.411C193.026,159.279,195.303,159.751,197.127,160.554z"/>
						</g>
						<g>
							<path fill="#13337E" d="M170.189,127.596c-0.225,0.062-0.412-0.179-0.297-0.381c0.479-0.838,1.751-2.338,4.724-2.338
								c4.126,0,6.434,2.352,5.812,3.283c-0.621,0.932-2.241-1.353-5.59-1.22C172.553,127.031,170.967,127.382,170.189,127.596z"/>
							<path fill="#13337E" d="M200.499,127.596c-0.225,0.062-0.412-0.179-0.297-0.381c0.479-0.838,1.751-2.338,4.724-2.338
								c4.126,0,6.434,2.352,5.812,3.283c-0.621,0.932-2.241-1.353-5.591-1.22C202.863,127.031,201.277,127.382,200.499,127.596z"/>
						</g>
						<g>
							<g>
								<ellipse fill="#F995A6" cx="172.517" cy="146.256" rx="6.922" ry="5.102"/>
								<ellipse fill="#F995A6" cx="208.545" cy="146.256" rx="6.922" ry="5.102"/>
							</g>
						</g>
					</g>
				</g>
			</g>
			<path fill="#13337E" d="M232.026,326.219c0,0,15.022,40.314,17.125,73.362s0,62.189,0,62.189H95.931
				c0,0,7.131-106.154,29.743-135.795S232.026,326.219,232.026,326.219z"/>
			<path fill="#5A71E5" d="M92.456,298.969c0,0-4.428-9.99,0-30.222c4.428-20.231,21.089-60.456,25.135-64.026
				c4.046-3.57,52.601-27.253,52.601-27.253s27.134,11.782,30.704,11.306s15.951-5.236,15.951-5.236s38.317,27.372,40.459,35.464
				c2.142,8.093,21.897,63.55,14.043,80.925c-7.854,17.375-33.798,18.089-33.798,18.089s-0.093,19.993,1.739,24.516
				c1.832,4.522,11.352,19.755,3.974,25.468c-7.378,5.712-44.747,6.902-68.786,6.664c-24.04-0.238-44.509-4.046-54.267-9.045
				s-10.473-13.805-7.616-20.231c2.856-6.426,5.95-7.616,5.712-12.853c-0.238-5.236-1.904-26.658-1.904-26.658L92.456,298.969z"/>
			<g>
				<path fill="#2140BF" d="M238.694,218.406c-5.06,6.718-1.975,15.45,0.619,22.458c1.576,4.258,2.838,8.474,2.674,13.064
					c-0.172,4.815-1.503,9.498-2.801,14.107c-0.393,1.396,1.777,1.992,2.17,0.598c1.228-4.361,2.437-8.763,2.799-13.297
					c0.357-4.471-0.436-8.726-1.902-12.939c-2.454-7.054-6.822-15.944-1.617-22.856
					C241.508,218.385,239.556,217.262,238.694,218.406L238.694,218.406z"/>
				<path fill="#2140BF" d="M235.161,317.586c-10.043,1.965-20.226,3.057-30.456,3.284c-1.446,0.032-1.451,2.282,0,2.25
					c10.428-0.231,20.819-1.362,31.055-3.364C237.179,319.477,236.578,317.308,235.161,317.586L235.161,317.586z"/>
				<path fill="#2140BF" d="M122.894,337.553c2.645,1.587,5.289,3.174,7.934,4.76c0.521,0.313,1.235,0.116,1.539-0.404
					c0.311-0.531,0.119-1.226-0.404-1.539c-2.645-1.587-5.289-3.174-7.934-4.76c-0.521-0.313-1.235-0.116-1.539,0.404
					C122.179,336.545,122.371,337.24,122.894,337.553L122.894,337.553z"/>
				<path fill="#2140BF" d="M138.396,344.641c17.481,7.922,36.448,12.377,55.634,13.015c5.462,0.182,10.93,0.045,16.377-0.391
					c1.434-0.115,1.446-2.366,0-2.25c-18.837,1.508-37.883-0.709-55.868-6.514c-5.108-1.649-10.118-3.587-15.007-5.803
					C138.223,342.106,137.077,344.044,138.396,344.641L138.396,344.641z"/>
				<path fill="#2140BF" d="M137.45,326.226c2.566,0.991,5.226,1.713,7.941,2.155c0.599,0.098,1.211-0.156,1.384-0.786
					c0.148-0.537-0.183-1.286-0.786-1.384c-2.715-0.443-5.375-1.164-7.941-2.155c-0.567-0.219-1.234,0.241-1.384,0.786
					C136.489,325.477,136.881,326.006,137.45,326.226L137.45,326.226z"/>
				<path fill="#2140BF" d="M223.431,213.597c-5.575,2.356-11.44,4-17.415,4.953c-1.426,0.227-0.821,2.396,0.598,2.17
					c6.184-0.986,12.187-2.743,17.952-5.18c0.564-0.238,0.676-1.06,0.404-1.539C224.638,213.417,223.988,213.361,223.431,213.597
					L223.431,213.597z"/>
				<path fill="#2140BF" d="M130.298,213.434c1.523,5.226,2.836,10.51,3.936,15.84c0.293,1.417,2.462,0.817,2.17-0.598
					c-1.1-5.331-2.413-10.615-3.936-15.84C132.064,211.449,129.892,212.039,130.298,213.434L130.298,213.434z"/>
			</g>
			<path fill="#FFD9DE" d="M184.528,259.786c0,0-13.86-10.556-18.382-10.794c-4.522-0.238-22.373-1.19-22.373-1.19l-4.809,15.709
				c0,0,10.862,14.757,18.07,16.661s15.539,1.904,15.539,1.904S179.584,264.868,184.528,259.786z"/>
			<g>
				<path fill="#FFD9DE" d="M127.119,245.25c0,0,40.256-49.093,40.441-51.172c0.185-2.079,1.022-16.284,0.879-18.501
					c-0.142-2.217-3.954-14.533-2.371-14.635c1.584-0.102,6.686,2.592,8.375,6.617c1.689,4.026,6.887,10.688,7.521,10.647
					c0.633-0.041,24.081-7.548,24.081-7.548s9.669-10.996,11.332-11.102c1.663-0.107,2.511,5.682,2.511,5.682
					s3.03,0.759,3.658,3.104c0.628,2.345-1.102,6.987-1.102,6.987s1.608,2.759,0.661,4.728
					c-0.947,1.969-11.532,15.408-12.126,15.447c-0.594,0.038-23.698,11.658-25.078,12.462c-1.379,0.804-38.023,74.589-38.023,74.589
					s-13.046-6.318-16.038-19.482C128.85,249.909,127.119,245.25,127.119,245.25z"/>
				<g>
					<path fill="#F995A6" d="M218.933,164.537c-3.621,7.162-10.483,11.642-17.598,14.858c-1.317,0.595-0.175,2.535,1.136,1.943
						c7.443-3.364,14.623-8.183,18.405-15.665C221.528,164.383,219.588,163.243,218.933,164.537L218.933,164.537z"/>
					<path fill="#F995A6" d="M221.777,173.832c-3.135,4.797-7.183,8.984-11.882,12.267c-0.497,0.347-0.728,0.985-0.404,1.539
						c0.288,0.492,1.039,0.753,1.539,0.404c5.027-3.512,9.333-7.939,12.689-13.074C224.514,173.752,222.567,172.624,221.777,173.832
						L221.777,173.832z"/>
				</g>
				<path fill="#F995A6" d="M164.922,246.602c-4.134,9.541-9.073,18.767-13.837,28.003c-0.492,0.954-1.047,1.897-1.486,2.878
					c-0.587,1.311,1.352,2.456,1.943,1.136c1.218-2.722,2.756-5.34,4.114-7.994c2.651-5.184,5.281-10.38,7.823-15.619
					c1.166-2.404,2.324-4.816,3.387-7.268C167.435,246.423,165.497,245.276,164.922,246.602L164.922,246.602z"/>
				<path fill="#F995A6" d="M169.802,174.549c-1.217-2.903-1.978-5.977-2.693-9.035c-0.16-0.684-0.338-1.394-0.366-2.099
					c-0.013-0.122-0.013-0.244,0-0.366c-0.172,0.133-0.19,0.173-0.052,0.121c0.254,0.006,0.459,0.036,0.706,0.108
					c1.169,0.341,2.278,0.988,3.246,1.717c4.6,3.467,6.535,9.263,9.583,13.935c0.788,1.208,2.737,0.082,1.943-1.136
					c-2.883-4.417-4.777-9.542-8.636-13.267c-1.603-1.547-3.702-3.067-5.929-3.518c-1.048-0.212-2.249-0.031-2.833,0.97
					c-0.633,1.084-0.152,2.708,0.101,3.837c0.709,3.157,1.508,6.342,2.762,9.332c0.237,0.564,0.742,0.955,1.384,0.786
					C169.547,175.793,170.037,175.109,169.802,174.549L169.802,174.549z"/>
				<path fill="#F995A6" d="M182.097,179.861c8.928-2.435,17.471-6.273,25.179-11.4c1.999-1.33,3.908-2.791,5.92-4.101
					c0.88-0.573,1.782-1.136,2.724-1.601c0.561-0.277,1.404-0.722,1.995-0.253c0.326,0.258,0.437,0.783,0.541,1.157
					c0.231,0.837,0.259,1.776,0.843,2.467c0.623,0.739,1.534,1.038,2.092,1.88c1.348,2.036,0.881,4.65,0.372,6.873
					c-0.323,1.409,1.846,2.011,2.17,0.598c0.775-3.379,1.129-7.557-1.838-10.038c-0.273-0.228-0.707-0.408-0.942-0.664
					c-0.29-0.315-0.319-0.839-0.411-1.232c-0.166-0.715-0.371-1.437-0.775-2.058c-0.983-1.505-2.744-1.678-4.317-1.061
					c-3.74,1.465-6.908,4.407-10.248,6.578c-3.405,2.213-6.969,4.181-10.655,5.886c-4.271,1.975-8.709,3.562-13.247,4.8
					C180.103,178.072,180.695,180.243,182.097,179.861L182.097,179.861z"/>
			</g>
			<path fill="#5A71E5" d="M140.035,225.181c1.592-1.719,4.453-0.546,4.383,1.796c-0.152,5.119,0.421,12.229,3.638,18.921
				c5.95,12.377,14.995,21.421,13.805,22.849c-1.19,1.428-22.135,43.557-36.892,49.031s-24.754,0.952-30.704-10.235
				c-5.95-11.187,3.332-27.372,16.899-47.127C120.49,246.838,133.077,232.696,140.035,225.181z"/>
			<path fill="#2140BF" d="M155.949,277.663c-5.55,14.328-13.226,28.969-27.071,36.817c-3.583,2.031-7.444,3.462-11.498,4.199
				c-1.423,0.258-0.82,2.427,0.598,2.17c15.902-2.889,27.35-15.773,34.405-29.54c2.168-4.231,4.02-8.617,5.736-13.048
				C158.642,276.91,156.467,276.325,155.949,277.663L155.949,277.663z"/>
			<path fill="#2140BF" d="M263.088,280.38c-10.6-7.132-22.584-11.849-34.815-15.358c-6.135-1.76-12.347-3.233-18.578-4.605
				c-3.108-0.684-6.222-1.343-9.336-1.998c-3.388-0.714-6.819-1.56-10.27-1.905c-3.079-0.308-5.209,0.96-7.051,3.336
				c-1.946,2.511-3.835,5.079-5.635,7.696c-1.815,2.638-3.516,5.361-4.949,8.226c-1.356,2.711-2.728,5.713-3.243,8.72
				c-0.549,3.206,1.747,4.89,3.944,6.77c2.357,2.017,4.791,3.944,7.289,5.784c5.01,3.691,10.296,7.006,15.797,9.916
				c12.206,6.458,25.439,10.93,39.071,13.139c1.417,0.23,2.026-1.938,0.598-2.17c-23.143-3.751-45.194-14.06-62.745-29.638
				c-1.188-1.055-2.062-1.9-1.707-3.603c0.319-1.53,0.881-3.041,1.456-4.491c1.113-2.806,2.563-5.475,4.151-8.038
				c1.58-2.549,3.315-4.997,5.094-7.41c0.855-1.159,1.707-2.325,2.589-3.463c0.962-1.24,2.033-2.406,3.684-2.569
				c1.507-0.149,3.072,0.242,4.546,0.508c1.783,0.321,3.559,0.684,5.332,1.055c3.031,0.634,6.061,1.275,9.088,1.932
				c5.812,1.262,11.61,2.599,17.35,4.159c13.08,3.555,25.903,8.344,37.206,15.949C263.157,283.133,264.285,281.185,263.088,280.38
				L263.088,280.38z"/>
			<g>
				<path fill="#5A71E5" d="M126.75,380.025c23.978,7.722,49.335,11.105,74.5,9.941c7.107-0.329,14.189-1.035,21.227-2.074
					c1.427-0.211,0.821-2.379-0.598-2.17c-24.62,3.634-49.889,2.795-74.221-2.423c-6.857-1.47-13.634-3.294-20.309-5.444
					C125.967,377.41,125.375,379.582,126.75,380.025L126.75,380.025z"/>
				<path fill="#5A71E5" d="M215.196,405.988c-18.199,6.927-36.878,12.552-55.877,16.824c-1.412,0.318-0.814,2.487,0.598,2.17
					c18.999-4.273,37.678-9.897,55.877-16.824C217.134,407.647,216.553,405.471,215.196,405.988L215.196,405.988z"/>
				<path fill="#5A71E5" d="M175.846,426.237c3.487,0.447,6.999,0.65,10.514,0.608c1.447-0.017,1.451-2.267,0-2.25
					c-3.515,0.042-7.027-0.161-10.514-0.608c-0.604-0.077-1.125,0.572-1.125,1.125C174.721,425.785,175.24,426.16,175.846,426.237
					L175.846,426.237z"/>
			</g>
			<path fill="#2140BF" d="M136.931,226.328c-12.392,9.236-21.169,22.19-28.135,35.807c-2.11,4.125-4.073,8.324-5.983,12.545
				c-0.592,1.309,1.346,2.454,1.943,1.136c6.312-13.955,13.36-27.909,23.955-39.155c2.876-3.053,5.991-5.883,9.355-8.391
				C139.214,227.416,138.094,225.462,136.931,226.328L136.931,226.328z"/>
		</g>
		<path fill="#13337E" d="M32.817,463.27c28.491,0,56.981,0,85.472,0c27.525,0,55.051,0,82.576,0c27.178,0,54.357,0,81.535,0
			c27.45,0,54.9,0,82.349,0c28.198,0,56.397,0,84.595,0c3.688,0,7.377,0,11.065,0c1.93,0,1.934-3,0-3c-28.491,0-56.981,0-85.472,0
			c-27.525,0-55.051,0-82.576,0c-27.178,0-54.357,0-81.535,0c-27.45,0-54.9,0-82.349,0c-28.198,0-56.397,0-84.595,0
			c-3.688,0-7.377,0-11.065,0C30.887,460.27,30.884,463.27,32.817,463.27L32.817,463.27z"/>
		<g>
			<g>
				<g>
					<polygon fill="#13337E" points="393.368,284.349 393.368,288.296 334.24,288.296 334.24,284.349 353.546,284.349 
						340.145,258.356 333.632,245.723 372.746,240.723 381.081,258.356 					"/>
					<polygon fill="#4D69A3" points="389.07,284.349 389.07,288.296 329.941,288.296 329.941,284.349 349.248,284.349 
						335.847,258.356 329.334,245.723 368.447,240.723 376.782,258.356 					"/>
					<rect x="329.941" y="284.349" fill="#13337E" width="59.129" height="3.947"/>
					<polygon fill="#13337E" points="376.782,258.356 335.847,258.356 329.334,245.723 368.447,240.723 					"/>
				</g>
				<path fill="#13337E" d="M372.672,145.116h-15.91h-49.737c-2.921,0-5.415,2.107-5.905,4.986l-16.031,94.336
					c-0.621,3.656,2.196,6.993,5.905,6.993h65.768h15.91h49.737c2.921,0,5.415-2.107,5.905-4.986l16.031-94.336
					c0.621-3.656-2.196-6.993-5.905-6.993H372.672z"/>
				<path fill="#4D69A3" d="M367.976,145.116h-15.91h-49.737c-2.921,0-5.415,2.107-5.905,4.986l-16.031,94.336
					c-0.621,3.656,2.196,6.993,5.905,6.993h65.768h15.91h49.737c2.921,0,5.415-2.107,5.905-4.986l16.031-94.336
					c0.621-3.656-2.196-6.993-5.905-6.993H367.976z"/>
				<path fill="#FFFFFF" d="M433.431,153.185l-15.435,90.784c-0.141,0.874-0.9,1.509-1.783,1.509H288.399
					c-0.733,0-1.182-0.406-1.386-0.644c-0.203-0.238-0.521-0.75-0.397-1.474l15.426-90.784c0.15-0.874,0.9-1.509,1.783-1.509H431.64
					c0.732,0,1.182,0.406,1.385,0.644C433.228,151.95,433.546,152.462,433.431,153.185z"/>
			</g>
			<g>
				<g>
					<path fill="#5A71E5" d="M353.503,175.408h-42.719c-1.929,0-3.246-1.564-2.94-3.493l1.423-8.983
						c0.306-1.929,2.117-3.493,4.047-3.493h42.719c1.929,0,3.246,1.564,2.94,3.493l-1.423,8.983
						C357.244,173.844,355.432,175.408,353.503,175.408z"/>
					<path fill="#2140BF" d="M314.151,164.731c4.766,0,9.532,0,14.298,0c1.448,0,1.45-2.25,0-2.25c-4.766,0-9.532,0-14.298,0
						C312.703,162.481,312.7,164.731,314.151,164.731L314.151,164.731z"/>
					<path fill="#2140BF" d="M314.094,168.399c0.524,0,1.048,0,1.572,0c0.288,0,0.591-0.125,0.796-0.33
						c0.11-0.102,0.187-0.223,0.233-0.362c0.07-0.134,0.103-0.279,0.097-0.433c-0.013-0.291-0.109-0.593-0.329-0.796
						c-0.22-0.202-0.491-0.329-0.796-0.329c-0.524,0-1.048,0-1.572,0c-0.288,0-0.591,0.125-0.796,0.329
						c-0.11,0.102-0.187,0.223-0.233,0.362c-0.07,0.134-0.103,0.279-0.097,0.433c0.013,0.291,0.109,0.593,0.329,0.795
						C313.518,168.272,313.789,168.399,314.094,168.399L314.094,168.399z"/>
					<path fill="#2140BF" d="M318.959,168.399c3.568,0,7.136,0,10.705,0c1.448,0,1.45-2.25,0-2.25c-3.568,0-7.136,0-10.705,0
						C317.512,166.149,317.509,168.399,318.959,168.399L318.959,168.399z"/>
					<path fill="#2140BF" d="M332.735,165.554c4.666,0,9.332,0,13.998,0c1.448,0,1.45-2.25,0-2.25c-4.666,0-9.332,0-13.998,0
						C331.287,163.304,331.284,165.554,332.735,165.554L332.735,165.554z"/>
				</g>
				<g>
					<path fill="#CDD7FC" d="M383.158,194.866H340.44c-1.929,0-3.246-1.564-2.94-3.493l1.423-8.983
						c0.306-1.929,2.117-3.493,4.047-3.493h42.719c1.929,0,3.246,1.564,2.94,3.493l-1.423,8.983
						C386.9,193.302,385.088,194.866,383.158,194.866z"/>
					<path fill="#98ADEA" d="M343.806,184.188c4.766,0,9.532,0,14.298,0c1.448,0,1.45-2.25,0-2.25c-4.766,0-9.532,0-14.298,0
						C342.359,181.938,342.356,184.188,343.806,184.188L343.806,184.188z"/>
					<path fill="#98ADEA" d="M343.749,187.856c0.524,0,1.048,0,1.572,0c0.288,0,0.591-0.125,0.796-0.329
						c0.11-0.102,0.187-0.223,0.233-0.362c0.07-0.134,0.103-0.279,0.097-0.433c-0.013-0.291-0.109-0.593-0.329-0.795
						c-0.22-0.202-0.491-0.33-0.796-0.33c-0.524,0-1.048,0-1.572,0c-0.288,0-0.591,0.125-0.796,0.33
						c-0.11,0.102-0.187,0.223-0.233,0.362c-0.07,0.134-0.103,0.279-0.097,0.433c0.013,0.291,0.109,0.593,0.329,0.796
						C343.174,187.729,343.445,187.856,343.749,187.856L343.749,187.856z"/>
					<path fill="#98ADEA" d="M348.615,187.856c3.568,0,7.136,0,10.705,0c1.448,0,1.45-2.25,0-2.25c-3.568,0-7.136,0-10.705,0
						C347.167,185.606,347.165,187.856,348.615,187.856L348.615,187.856z"/>
					<path fill="#98ADEA" d="M362.39,185.012c4.666,0,9.332,0,13.998,0c1.448,0,1.45-2.25,0-2.25c-4.666,0-9.332,0-13.998,0
						C360.943,182.762,360.94,185.012,362.39,185.012L362.39,185.012z"/>
				</g>
				<g>
					<path fill="#5A71E5" d="M347.339,214.323h-42.719c-1.929,0-3.246-1.564-2.94-3.493l1.423-8.983
						c0.306-1.929,2.117-3.493,4.047-3.493h42.719c1.929,0,3.246,1.564,2.94,3.493l-1.423,8.983
						C351.08,212.759,349.268,214.323,347.339,214.323z"/>
					<path fill="#2140BF" d="M307.987,203.646c4.766,0,9.532,0,14.298,0c1.448,0,1.45-2.25,0-2.25c-4.766,0-9.532,0-14.298,0
						C306.539,201.396,306.537,203.646,307.987,203.646L307.987,203.646z"/>
					<path fill="#2140BF" d="M307.93,207.314c0.524,0,1.048,0,1.572,0c0.288,0,0.591-0.125,0.795-0.329
						c0.11-0.102,0.187-0.223,0.233-0.362c0.07-0.134,0.103-0.279,0.097-0.433c-0.013-0.291-0.109-0.593-0.33-0.795
						c-0.22-0.202-0.491-0.33-0.795-0.33c-0.524,0-1.048,0-1.572,0c-0.288,0-0.591,0.126-0.795,0.33
						c-0.11,0.102-0.187,0.223-0.233,0.362c-0.07,0.134-0.103,0.279-0.097,0.433c0.013,0.291,0.109,0.593,0.33,0.796
						C307.355,207.186,307.625,207.314,307.93,207.314L307.93,207.314z"/>
					<path fill="#2140BF" d="M312.796,207.314c3.568,0,7.136,0,10.705,0c1.448,0,1.45-2.25,0-2.25c-3.568,0-7.136,0-10.705,0
						C311.348,205.064,311.346,207.314,312.796,207.314L312.796,207.314z"/>
					<path fill="#2140BF" d="M326.571,204.469c4.666,0,9.332,0,13.998,0c1.448,0,1.45-2.25,0-2.25c-4.666,0-9.332,0-13.998,0
						C325.123,202.219,325.121,204.469,326.571,204.469L326.571,204.469z"/>
				</g>
				<g>
					<path fill="#CDD7FC" d="M376.995,233.781h-42.719c-1.929,0-3.246-1.564-2.94-3.493l1.423-8.983
						c0.306-1.929,2.117-3.493,4.047-3.493h42.719c1.929,0,3.246,1.564,2.94,3.493l-1.423,8.983
						C380.736,232.217,378.924,233.781,376.995,233.781z"/>
					<path fill="#98ADEA" d="M337.643,223.103c4.766,0,9.532,0,14.298,0c1.448,0,1.45-2.25,0-2.25c-4.766,0-9.532,0-14.298,0
						C336.195,220.853,336.193,223.103,337.643,223.103L337.643,223.103z"/>
					<path fill="#98ADEA" d="M337.586,226.771c0.524,0,1.048,0,1.572,0c0.288,0,0.591-0.126,0.796-0.33
						c0.11-0.102,0.187-0.223,0.233-0.362c0.07-0.134,0.103-0.279,0.097-0.433c-0.013-0.291-0.109-0.593-0.329-0.796
						c-0.22-0.202-0.491-0.329-0.796-0.329c-0.524,0-1.048,0-1.572,0c-0.288,0-0.591,0.125-0.796,0.329
						c-0.11,0.102-0.187,0.223-0.233,0.362c-0.07,0.134-0.103,0.279-0.097,0.433c0.013,0.291,0.109,0.593,0.329,0.795
						C337.011,226.644,337.281,226.771,337.586,226.771L337.586,226.771z"/>
					<path fill="#98ADEA" d="M342.452,226.771c3.568,0,7.136,0,10.705,0c1.448,0,1.45-2.25,0-2.25c-3.568,0-7.136,0-10.705,0
						C341.004,224.521,341.002,226.771,342.452,226.771L342.452,226.771z"/>
					<path fill="#98ADEA" d="M356.227,223.927c4.666,0,9.332,0,13.998,0c1.448,0,1.45-2.25,0-2.25c-4.666,0-9.332,0-13.998,0
						C354.779,221.677,354.777,223.927,356.227,223.927L356.227,223.927z"/>
				</g>
			</g>
			<path fill="#E5E9F9" d="M433.431,153.185l-15.435,90.784c-0.141,0.874-0.9,1.509-1.783,1.509h-26.255l15.073-94.411h26.608
				c0.732,0,1.182,0.406,1.385,0.644C433.228,151.95,433.546,152.462,433.431,153.185z"/>
		</g>
		<g>
			<path fill="#13337E" d="M273.749,141.08h-5.404c-1.189,0-2.153-0.964-2.153-2.153v-3.544c0-1.189,0.964-2.153,2.153-2.153h5.404
				c1.189,0,2.153,0.964,2.153,2.153v3.544C275.901,140.116,274.938,141.08,273.749,141.08z"/>
			<path fill="#13337E" d="M276.515,138.157h-10.938c-1.624,0-2.941-1.317-2.941-2.941v-4.841c0-1.624,1.317-2.941,2.941-2.941
				h10.938c1.624,0,2.941,1.317,2.941,2.941v4.841C279.456,136.84,278.14,138.157,276.515,138.157z"/>
			<path fill="#13337E" d="M277.89,131.546h-13.688c-2.033,0-3.681-1.648-3.681-3.681v-6.059c0-2.033,1.648-3.681,3.681-3.681
				h13.688c2.033,0,3.681,1.648,3.681,3.681v6.059C281.571,129.898,279.923,131.546,277.89,131.546z"/>
			<path fill="#FFC720" d="M298.961,85.453c0-15.417-12.498-27.915-27.915-27.915c-15.418,0-27.773,12.237-27.914,27.654
				c-0.085,9.268,4.348,17.505,11.23,22.642c2.143,1.6,3.353,4.162,3.353,6.837v4.878c0,2.697,2.186,4.883,4.883,4.883h16.897
				c2.697,0,4.883-2.186,4.883-4.883v-4.913c0-2.738,1.336-5.272,3.518-6.927C294.619,102.614,298.961,94.541,298.961,85.453z"/>
			<path fill="#FFFFFF" d="M278.076,86.037h-0.37c-2.026,0-3.612,1.993-3.612,4.536v2.338h-7.076v-2.338
				c0-2.544-1.587-4.536-3.612-4.536h-0.37c-2.026,0-3.612,1.993-3.612,4.536c0,2.544,1.587,4.536,3.612,4.536h1.784v29.293h2.198
				V95.11h7.076v29.293h2.198V95.11h1.784c2.026,0,3.612-1.993,3.612-4.536C281.688,88.03,280.101,86.037,278.076,86.037z
				 M264.819,92.911h-1.784c-0.669,0-1.414-0.96-1.414-2.338s0.745-2.338,1.414-2.338h0.37c0.669,0,1.414,0.96,1.414,2.338V92.911z
				 M278.076,92.911h-1.784v-2.338c0-1.378,0.745-2.338,1.414-2.338h0.37c0.669,0,1.414,0.96,1.414,2.338
				S278.744,92.911,278.076,92.911z"/>
		</g>
		<g>
			<circle fill="#CDD7FC" cx="369.207" cy="91.798" r="38.227"/>
			<circle fill="#FFFFFF" cx="369.207" cy="91.798" r="29.993"/>
			<g>
				<path fill="#98ADEA" d="M368.043,78.116c0,4.679,0,9.357,0,14.036c0,1.448,2.25,1.45,2.25,0c0-4.679,0-9.357,0-14.036
					C370.293,76.668,368.043,76.666,368.043,78.116L368.043,78.116z"/>
				<path fill="#98ADEA" d="M368.58,92.759c6.232,4.413,12.269,9.092,18.098,14.026c1.099,0.93,2.698-0.654,1.591-1.591
					c-5.974-5.057-12.166-9.854-18.553-14.377C368.532,89.978,367.407,91.928,368.58,92.759L368.58,92.759z"/>
			</g>
			<circle fill="#CDD7FC" cx="369.207" cy="91.798" r="4.117"/>
		</g>
	</g>
</g>
</svg>
