<svg xmlns="http://www.w3.org/2000/svg" xmlns:xlink="http://www.w3.org/1999/xlink" viewBox="0 0 4680 3120"><defs><style>.cls-1{fill:#fdd1ac;}.cls-2{fill:#c1b918;}.cls-3{fill:#ff9b80;}.cls-4{fill:#40bfe0;}.cls-5{fill:#3d354d;}.cls-19,.cls-6{fill:#fff;}.cls-7{fill:#fff3c6;}.cls-8{fill:#053734;}.cls-9{fill:#e4f6f8;}.cls-10{fill:#6c8c06;}.cls-11{fill:#7c3839;}.cls-12{fill:#dd5c23;}.cls-13{fill:#ffc15e;}.cls-14{fill:#76914c;}.cls-15{fill:#fff0cf;}.cls-16{fill:#ff8e69;}.cls-17{fill:#86cae2;}.cls-18{fill:#3b809e;}.cls-19,.cls-30,.cls-40,.cls-43,.cls-47{stroke:#28acc1;}.cls-19,.cls-26,.cls-30,.cls-33,.cls-47,.cls-74,.cls-85,.cls-86{stroke-miterlimit:10;}.cls-19,.cls-47{stroke-width:7px;}.cls-20{fill:#be2041;}.cls-21{fill:#f0623c;}.cls-22{clip-path:url(#clip-path);}.cls-23{fill:#bf713c;}.cls-24{fill:#7cc1be;}.cls-25{clip-path:url(#clip-path-2);}.cls-26,.cls-30,.cls-33,.cls-40,.cls-43,.cls-47,.cls-72,.cls-74,.cls-85,.cls-86,.cls-97{fill:none;}.cls-26{stroke:#fdc848;}.cls-26,.cls-40,.cls-43,.cls-72,.cls-97{stroke-linecap:round;}.cls-26,.cls-72{stroke-width:8px;}.cls-27{fill:#723e42;}.cls-28{fill:#eaa775;}.cls-29{opacity:0.37;}.cls-30{stroke-width:12px;}.cls-31{clip-path:url(#clip-path-3);}.cls-32{fill:#bddee0;}.cls-33{stroke:#a7a340;stroke-width:11px;}.cls-34{fill:#327a78;}.cls-35{fill:#4aa890;}.cls-36{clip-path:url(#clip-path-4);}.cls-37{fill:#17617a;}.cls-38{clip-path:url(#clip-path-5);}.cls-39{fill:#a1dfd2;}.cls-40,.cls-43,.cls-72,.cls-97{stroke-linejoin:round;}.cls-40{stroke-width:13px;}.cls-41{fill:#148466;}.cls-42{fill:#1f9982;}.cls-43{stroke-width:10px;stroke-dasharray:29.95 29.95;}.cls-44{clip-path:url(#clip-path-6);}.cls-45{fill:#ff717c;}.cls-46{fill:#e5d0c3;}.cls-48{clip-path:url(#clip-path-7);}.cls-49{fill:#a6e2d6;}.cls-50{fill:#28acc1;}.cls-51{fill:#57c4af;}.cls-52{fill:#cff9f9;}.cls-53{fill:#cbf4ea;}.cls-54{clip-path:url(#clip-path-8);}.cls-55{fill:#770a24;}.cls-56{clip-path:url(#clip-path-9);}.cls-57{fill:#601e11;}.cls-58{fill:#e7f9f9;}.cls-59{fill:#c93c20;}.cls-60{opacity:0.69;}.cls-61{fill:#f16f4d;}.cls-62{clip-path:url(#clip-path-10);}.cls-63{fill:#920a0a;}.cls-64{clip-path:url(#clip-path-11);}.cls-65{fill:#bc2222;}.cls-66{clip-path:url(#clip-path-12);}.cls-67{fill:#1f99b5;}.cls-68{clip-path:url(#clip-path-13);}.cls-69{fill:#2b233b;}.cls-70{clip-path:url(#clip-path-14);}.cls-71{fill:#d0f0f4;}.cls-72{stroke:#26aabf;}.cls-73{fill:#70cedf;}.cls-74,.cls-97{stroke:#fff;}.cls-74{stroke-width:4px;opacity:0.56;}.cls-75{clip-path:url(#clip-path-15);}.cls-76{fill:#aa8022;}.cls-77{fill:#d6af4a;}.cls-78{clip-path:url(#clip-path-16);}.cls-79{fill:#f3d597;}.cls-80{fill:#1aa6ad;}.cls-81{fill:#50d4e2;}.cls-82{clip-path:url(#clip-path-17);}.cls-83{fill:#a0e4ea;}.cls-84{clip-path:url(#clip-path-18);}.cls-85{stroke:#be2041;}.cls-85,.cls-86{stroke-width:5px;}.cls-86{stroke:#f76b89;}.cls-87{fill:#ef6139;}.cls-88{clip-path:url(#clip-path-19);}.cls-89{fill:#055451;}.cls-90{clip-path:url(#clip-path-20);}.cls-91{clip-path:url(#clip-path-21);}.cls-92{fill:#465602;}.cls-93{fill:#7caa09;}.cls-94{clip-path:url(#clip-path-22);}.cls-95{clip-path:url(#clip-path-23);}.cls-96{fill:#6d2729;}.cls-97{stroke-width:6px;}.cls-98{clip-path:url(#clip-path-24);}.cls-99{fill:#d33c31;}.cls-100{clip-path:url(#clip-path-25);}.cls-101{fill:#efa335;}.cls-102{opacity:0.55;}.cls-103{opacity:0.34;}.cls-104{fill:#f18d5b;}.cls-105{clip-path:url(#clip-path-26);}.cls-106{fill:#ea3654;}.cls-107{clip-path:url(#clip-path-27);}.cls-108{fill:#d8234a;}.cls-109{fill:#8fa866;}.cls-110{clip-path:url(#clip-path-28);}.cls-111{clip-path:url(#clip-path-29);}.cls-112{clip-path:url(#clip-path-30);}.cls-113{fill:#739040;}</style><clipPath id="clip-path"><path class="cls-1" d="M3807.6,2760H911.48c-81.81,0-145.66-63.84-145.66-142.6h0a142.6,142.6,0,0,1,142.6-142.6H3804.54a142.59,142.59,0,0,1,142.6,142.6h0C3947.14,2696.16,3883.3,2760,3807.6,2760Z"/></clipPath><clipPath id="clip-path-2"><path class="cls-2" d="M884.31,2484S848.75,2313.82,782,2153.79c-69.73-167.29-75.08-329.63,48.14-294.46s110.28,242.6,109.18,372.5S884.31,2484,884.31,2484Z"/></clipPath><clipPath id="clip-path-3"><path class="cls-9" d="M1346.63,2104.57C847.3,1920.93,725.7,1567.35,797.45,1081.08s482.28-792.59,1145.27-657.37,597,317.36,1040.87,383.6,789.42,180.06,717,752.8-518.35,701.05-1280.26,686.12S1559.67,2182.91,1346.63,2104.57Z"/></clipPath><clipPath id="clip-path-4"><path class="cls-17" d="M2464,2091.44l-162.55,341.29c-21.3,44.73,11.31,96.38,60.85,96.38h543.62a19.32,19.32,0,0,0,19.32-19.32h0a19.32,19.32,0,0,0-19.32-19.32H2739.4c-49.53,0-82.14-51.63-60.86-96.35L2813,2111.47Z"/></clipPath><clipPath id="clip-path-5"><path class="cls-18" d="M3455.36,2025.52H1780.88a59.5,59.5,0,0,1-58-46.27L1490.76,962.32a59.52,59.52,0,0,1,58-72.76H3223.27a59.51,59.51,0,0,1,58,46.27l232.09,1016.93A59.51,59.51,0,0,1,3455.36,2025.52Z"/></clipPath><clipPath id="clip-path-6"><path class="cls-19" d="M2139.3,1413.16H1578.41a49.57,49.57,0,0,1-48.38-38.77l-23.68-106.15a49.57,49.57,0,0,1,48.38-60.37h560.88a49.57,49.57,0,0,1,48.38,38.78l23.69,106.14A49.57,49.57,0,0,1,2139.3,1413.16Z"/></clipPath><clipPath id="clip-path-7"><path class="cls-19" d="M3181.34,1375.55H2594.06a36.64,36.64,0,0,1-35.73-28.49l-29.08-127.4a36.66,36.66,0,0,1,35.74-44.81h587.27a36.67,36.67,0,0,1,35.74,28.5l29.07,127.4A36.65,36.65,0,0,1,3181.34,1375.55Z"/></clipPath><clipPath id="clip-path-8"><path class="cls-20" d="M1257.17,993.82s44.15,16.31,33.11,87.49c0,0-14.42,50.5,25.22,80.85s30.67,101.44,23.77,117.3,84.86,71.54,82.1,131.32-78.65,145.67-342.2,138.72-178.92-133-155.92-161.5,0-92.19,34-131.64,50.6-62.46,47.84-126.85,9.19-141.21,76.12-177.77S1240.61,948.29,1257.17,993.82Z"/></clipPath><clipPath id="clip-path-9"><path class="cls-3" d="M1262,1068s2.54,89.11-6.43,118.09-53,38.86-81.8,21.08-32.19-49.06-32.19-49.06-29.75-4.3-30-40.48,33.73-27.6,33.73-27.6,14.26-25.89,19.47-44C1164.72,1046,1212.93,1083.75,1262,1068Z"/></clipPath><clipPath id="clip-path-10"><path class="cls-21" d="M1290.23,2111.76s-38.78,65.16-54.49,98.34-126,230.59-128.36,250.26,7.23,75.41,13.79,82.47,38.3,48.84,26,73.4-44,2.27-75.85-13.45c-29.18-14.39-17.48-58.24-34.83-61.06-3.66,5-17.48,36.94-17.48,36.94l-30.48-14.43s19.65-47.79,23.17-64.29,11.16-39.62,27.17-52.51,26.08-34.88,38.47-66.65,60.5-177.39,82.61-230.32,34.08-72,34.08-72Z"/></clipPath><clipPath id="clip-path-11"><path class="cls-3" d="M1225,2092.67V2204.9c0,37.72-15.64,269.53-9.2,288.85s39.86,66.84,49.06,70.52,57,28.52,56.42,56.73-39.86,21.44-76.35,20.85c-33.42-.54-41.83-46.41-59.18-41.39-1.22,6.2,0,42,0,42h-34.65s-2.76-53-6.74-69.89-7.06-41.7,2.14-60.71,8.9-43.85,6.44-78.81-21.79-191.33-24.53-250.21,0-81.87,0-81.87Z"/></clipPath><clipPath id="clip-path-12"><path class="cls-4" d="M1247.71,1256.65c-21.28,11.26-24.07,45.53.64,85.32s89.47,141.5,89.47,141.5,49.76-5.66,62.41-51.64c0,0-48-72.43-79.9-122.1S1276.49,1241.43,1247.71,1256.65Z"/></clipPath><clipPath id="clip-path-13"><path class="cls-5" d="M1131.3,1243l-2.61.31s-75.74,21.92-78.5,32.27,6.44,133.62,60.71,269.76c0,0-70.83,112.69-77.27,224.92s85.55,350.94,85.55,350.94,40.48,19.32,92.91,20.24,78.19-26.68,78.19-26.68,36.8-162.82,53.36-266.77-44.16-255.73-47.84-296.21.92-83.71,12.88-130.62,4.6-59.34-16.1-88.77-21.21-80-21.21-80l-64.18-5.06Z"/></clipPath><clipPath id="clip-path-14"><path class="cls-6" d="M1079.17,1536.13s48.37,44.42,128,38.28,108.31-36.93,108.31-36.93l14.17-213.27s-39.22-95.38-41-98.83-207.4,5.1-209.47,2.9-83.25.13-87.85,0,87.85,307.85,87.85,307.85"/></clipPath><clipPath id="clip-path-15"><path class="cls-4" d="M1072.73,1272.58c25.29,2.84,41.39,36.34,32.65,86.47S1072.73,1538,1072.73,1538s-51.06,14.26-81.41-27.13c0,0,18.86-92.45,30.81-155.47S1038.54,1268.75,1072.73,1272.58Z"/></clipPath><clipPath id="clip-path-16"><path class="cls-7" d="M1364.42,1592.65,847,1763.91s-44.84,53.12,20,102.8l534.69-166.27s-31.74-22.08-40-57.27S1364.42,1592.65,1364.42,1592.65Z"/></clipPath><clipPath id="clip-path-17"><path class="cls-6" d="M1151.2,1466.2,794.16,1878s-11.37,68.59,69.77,78.1l374.41-416.36s-38.56-2.74-63.68-28.74S1151.2,1466.2,1151.2,1466.2Z"/></clipPath><clipPath id="clip-path-18"><path class="cls-3" d="M985.34,1537.48s-27.14,64.43-18.86,87.88,164.66,165.13,179.38,171.11,90.15,4.13,97.51-15.18-41.17-32-89-29.67c0,0-115.68-113.84-116.14-135s11.32-53.82,11.32-53.82Z"/></clipPath><clipPath id="clip-path-19"><path class="cls-8" d="M3223.73,1053.3s-37.56,8.13-54.12-48.75-.3-70.68,7.36-69.15,12.27,18.09,12.27,18.09,1.53-37.41,17.78-42,20.24,17.79,20.24,17.79,2.15-31.89,21.77-35.57S3269,919.46,3269,919.46s38.94-28.83,97.82-24.53,89.84,66.54,86.77,122.65-68.38,119.89-75.43,120.35-26.06-32.65-26.06-32.65Z"/></clipPath><clipPath id="clip-path-20"><path class="cls-5" d="M3701.62,2527.44s4.6,34-12,43.23-87.92,29.09-119.13,47.61c-24.35,14.45-15.3,69.95,29,72.9,43.14,2.87,141.68-11,184.9-25.76,29.09-10,12.19-76.81,7.59-83.71s-8.51-54.27-8.51-54.27Z"/></clipPath><clipPath id="clip-path-21"><rect class="cls-10" x="3045.53" y="2432.59" width="395.25" height="241.93" rx="57.74"/></clipPath><clipPath id="clip-path-22"><path class="cls-5" d="M3183.34,2248.49s8.54,33.27-6.83,44.34S3092.58,2332,3063.75,2354c-22.5,17.2-7,71.26,37.29,69,43.18-2.18,139.44-27.42,180.63-47.16,27.73-13.29,3.14-77.71-2.23-84s-14.79-52.91-14.79-52.91Z"/></clipPath><clipPath id="clip-path-23"><path class="cls-11" d="M3429.29,1694.59l-22.54,5.17s-234.11,50-282.41,98-41.82,169.72-5.73,309.08,46.46,165.58,46.46,165.58,68.28,30.36,115.19-23.45c0,0-45.53-251.49-34.49-278.22s267.69-109.52,302.18-99.86,60.29,266.45,78.87,390.49,59.12,282.87,59.12,282.87,98.81,29.76,109-11c2.76-11-11-220.77-11-331.16s-2.76-227.74,0-314-11.21-163.64-15.18-193.48Z"/></clipPath><clipPath id="clip-path-24"><path class="cls-12" d="M3288.59,1329.27c7.65-49.85,19.31-92.91,29.89-92.91s69.45,134.31,60.72,167.42-41.4,119.4-105.79,156.52-129.25,21.48-180.76-39.69c-38.74-46-68.11-122.69-80.3-157.9a23.47,23.47,0,0,1,10.75-28.17l36.4-20.32a23.46,23.46,0,0,1,32.26,9.65c17.66,34,55.49,97.84,99.32,118.09C3251.79,1470,3283.24,1364.08,3288.59,1329.27Z"/></clipPath><clipPath id="clip-path-25"><path class="cls-13" d="M3411.39,1166.22l3.22-2.3s113.15-37.79,144.73-32.58,99,95.36,138.6,225.07,60.71,219.63,75.43,337c0,0-112.7,83.29-231.59,64.93s-130.39-59.76-130.39-59.76,18.86-84.63-9.66-193.18-81.87-226.91-86.47-249-1.84-23.61,36.18-56.73Z"/></clipPath><clipPath id="clip-path-26"><path class="cls-14" d="M3362.58,1470.65l150.26-115.09a38,38,0,0,1,53.6,7.56l150.34,203.21a27.9,27.9,0,0,1-5.82,39L3567.13,1712a27.89,27.89,0,0,1-37.68-4.12l-171-196.76A27.9,27.9,0,0,1,3362.58,1470.65Z"/></clipPath><clipPath id="clip-path-27"><path class="cls-15" d="M3362.58,1488.07,3521,1366.76a27.9,27.9,0,0,1,39.4,5.56l156.42,211.43a27.9,27.9,0,0,1-5.82,39L3567.13,1729.4a27.9,27.9,0,0,1-37.68-4.11l-171-196.76A27.91,27.91,0,0,1,3362.58,1488.07Z"/></clipPath><clipPath id="clip-path-28"><path class="cls-16" d="M3527.52,1593.69s-59,7.46-68,8.77-12.73,17.33-15.58,22.6-12.5,18.65-9.65,31.81,44.53,51.11,59.23,51.11,64.94-27,81.39-60.55Z"/></clipPath><clipPath id="clip-path-29"><path class="cls-12" d="M3521.19,1171.2c-19.7,50.27,39.32,89.27,82.1,130s44.15,104.18-11.73,185.59c-34.17,49.77-57,78.91-69.56,94a20.92,20.92,0,0,0,.5,27.35l40.06,44.63a20.89,20.89,0,0,0,29.2,1.88c15.91-13.74,42.25-38.82,72.24-76.84,49-62.09,93.83-105.56,88.31-191.45s-62.09-157-97.28-199.73S3552.92,1090.21,3521.19,1171.2Z"/></clipPath><clipPath id="clip-path-30"><path class="cls-16" d="M3214.07,1021.57s12.42,104.4,31.28,133.38,61.17,24.84,86.93,2.76,33.81-63.47,33.81-63.47,26.9-7.59,25.75-41.86-43.23-42.77-51.74-17.71l.92,35.42-25.76-65.54s-20.47,18.4-52,21.62S3214.07,1021.57,3214.07,1021.57Z"/></clipPath></defs><title>02</title><g id="_02" data-name="02"><rect id="_02-2" data-name="02" class="cls-6" width="4680" height="3120"/><path class="cls-1" d="M3807.6,2760H911.48c-81.81,0-145.66-63.84-145.66-142.6h0a142.6,142.6,0,0,1,142.6-142.6H3804.54a142.59,142.59,0,0,1,142.6,142.6h0C3947.14,2696.16,3883.3,2760,3807.6,2760Z"/><g class="cls-22"><rect class="cls-23" x="1454.13" y="2578.27" width="1155.89" height="16.28" rx="8.14"/><rect class="cls-23" x="2501.57" y="2664.8" width="506.52" height="16.28" rx="8.14"/><rect class="cls-23" x="1645.43" y="2641.11" width="506.52" height="16.28" rx="8.14"/></g><path class="cls-24" d="M853.37,2466.39s-86.66-90.69-87.54-203.62,119.93-160.8,187.33-93.53,124.2-6.52,238.06,10.68,52.39,85.5,153.25,104.74,75-19.26,203.84,5.25,84.16,92.79,175.2,104.17S1868,2462.86,1868,2462.86Z"/><path class="cls-9" d="M2576.2,465.08c-.1-136.12,254.25-59.59,457.37,27.71s271.49,190.1,223.94,230.75S3098.26,769.09,2908.13,704,2576.28,566.17,2576.2,465.08Z"/><path class="cls-2" d="M884.31,2484S848.75,2313.82,782,2153.79c-69.73-167.29-75.08-329.63,48.14-294.46s110.28,242.6,109.18,372.5S884.31,2484,884.31,2484Z"/><g class="cls-25"><path class="cls-26" d="M790.39,1909.93s106.39,114,94.61,550.41"/><path class="cls-26" d="M760.72,2023.63s63.89,29.34,101,78.36"/><path class="cls-26" d="M910.93,2118.55s-29.27,50.58-33.18,95.76"/></g><rect class="cls-27" x="803.46" y="2457.99" width="2861.81" height="16.81" rx="8.41"/><rect class="cls-28" x="1703.24" y="2484" width="1893.84" height="90.61" rx="45.3"/><g class="cls-29"><path class="cls-30" d="M1389.14,2072.92C889.81,1889.29,768.21,1535.71,840,1049.44s482.28-792.6,1145.27-657.37,597,317.36,1040.87,383.6,789.42,180.06,717.05,752.8-518.35,701-1280.26,686.12S1602.18,2151.27,1389.14,2072.92Z"/></g><path class="cls-9" d="M1346.63,2104.57C847.3,1920.93,725.7,1567.35,797.45,1081.08s482.28-792.59,1145.27-657.37,597,317.36,1040.87,383.6,789.42,180.06,717,752.8-518.35,701.05-1280.26,686.12S1559.67,2182.91,1346.63,2104.57Z"/><g class="cls-31"><path class="cls-32" d="M674.24,889.56C668.72,946,871.87,1684.65,1824.5,1903.12S3657.65,1733.51,3801.06,1417l38.54,525.86L3453.76,2508s-1579.26,17.48-1666.09,21.16-907.5-58.25-971.83-176.31-210.45-741.75-166.37-957S674.24,889.56,674.24,889.56Z"/></g><g class="cls-29"><path class="cls-33" d="M1868.84,1030.13H1308a49.56,49.56,0,0,1-48.38-38.77l-23.69-106.15a49.57,49.57,0,0,1,48.38-60.36h560.89a49.56,49.56,0,0,1,48.38,38.77l23.69,106.15A49.56,49.56,0,0,1,1868.84,1030.13Z"/></g><g class="cls-29"><path class="cls-33" d="M2159.72,887.89H1571.24a52,52,0,0,1-50.75-40.68l-24.85-111.37a52,52,0,0,1,50.76-63.33h588.47a52,52,0,0,1,50.76,40.68l24.85,111.37A52,52,0,0,1,2159.72,887.89Z"/></g><path class="cls-34" d="M1619.58,1703.71h43.5c15.86,0,27.62,11.67,27.73,27.62q.14,21.75,0,43.5c0,2.48.88,3.35,3.13,4,18.42,5.45,36.26,12.36,53,21.86,2.56,1.46,4,1.47,6.26-.85,10.22-10.55,20.71-20.83,31.12-31.19s28.32-9.57,38.29.92c9.32,9.82,19.13,19.18,28.72,28.76,11.12,11.12,22.16,22.32,33.37,33.35,10.38,10.21,10.43,27.8-.07,38.28s-20.9,20.94-31.45,31.31c-1.57,1.55-1.7,2.68-.65,4.53a251.57,251.57,0,0,1,22.58,54.72c.58,2,1.63,2.44,3.58,2.43q21.91-.12,43.82,0c13.72.07,25,9.42,27.28,22.48a25.37,25.37,0,0,1,.31,4.36q0,44.28-.09,88.55c0,15.66-11.68,27.09-27.4,27.07-14.61,0-29.21.05-43.82-.06-2.29,0-3.27.75-3.84,2.9-5,18.73-12.62,36.37-22,53.27-1.51,2.72-1.41,4.24.92,6.5,10.47,10.15,20.68,20.57,31,30.86,10,9.94,10.19,26.87.09,37.32-9.91,10.26-20.16,20.2-30.25,30.29-10.91,10.91-21.69,21.93-32.73,32.7s-27.49,10.54-38.57-.57c-10.3-10.32-20.66-20.58-30.92-30.93-1.47-1.48-2.57-1.77-4.5-.7-17.46,9.67-35.6,17.72-55,22.75-2.13.55-2.34,1.8-2.34,3.63,0,14.71,0,29.42,0,44.13,0,15.28-11.44,27.13-26.67,27.18q-44.74.17-89.5.08c-14.69,0-26.27-12.49-26.32-28.15,0-14.4-.06-28.79.07-43.18,0-2.38-.87-3.15-3-3.78-18.41-5.47-36.27-12.33-53-21.86-2.73-1.55-4.27-1.48-6.56.87-10.09,10.39-20.46,20.5-30.68,30.76s-27.74,10.32-37.81.18q-13.42-13.54-27-27c-12.16-12.15-24.37-24.25-36.47-36.45-9.87-10-9.69-27.42.27-37.37q16-16,32.12-32a2.66,2.66,0,0,0,.52-3.78,257.79,257.79,0,0,1-22.85-55.27c-.64-2.22-1.92-2.25-3.68-2.25-14.48,0-29,.1-43.44,0-10.32-.09-18.53-4.34-24-13.28a24.4,24.4,0,0,1-3.81-13c0-30,0-60.08.11-90.12a26.39,26.39,0,0,1,26.24-26c14.92,0,29.83-.06,44.75,0,2.36,0,3.46-.59,4.09-3,5-18.84,12.74-36.54,22.09-53.57,1.3-2.36,1.41-3.68-.73-5.75-10.6-10.31-21-20.81-31.4-31.34a26.81,26.81,0,0,1,0-37.29c11-11.28,22.24-22.26,33.36-33.4,9.2-9.22,18.56-18.3,27.49-27.77,12.17-12.91,30.65-12.78,42.84.71,9.28,10.27,19.49,19.68,29.24,29.52,1.18,1.2,2.11,1.19,3.52.41,17.63-9.79,36-17.8,55.54-23,2-.54,2.22-1.66,2.22-3.38q-.06-22.52,0-45a26.44,26.44,0,0,1,26.46-26.43c7.51,0,15,0,22.53,0h22.22Zm2.49,517.06c101.31-.69,185.42-84.4,184.2-189-1.18-101.92-84.87-183.77-185.32-184.31a186.9,186.9,0,0,0-188.14,189.31C1434,2138.54,1519,2222.92,1622.07,2220.77Z"/><path class="cls-35" d="M2104.35,2012.73l24.61,4.58a15.53,15.53,0,0,1,12.78,18.55q-2.2,12.33-4.6,24.61a2,2,0,0,0,1.35,2.61,144,144,0,0,1,27.69,18c1.29,1.1,2.12,1.26,3.63.18,6.89-4.89,13.91-9.6,20.9-14.36s17-2.44,21.56,4.55c4.25,6.54,8.81,12.87,13.22,19.3,5.12,7.46,10.19,15,15.37,22.39a15.72,15.72,0,0,1-4.08,21.65c-7,4.8-14,9.65-21.09,14.4a1.82,1.82,0,0,0-.85,2.5,144.39,144.39,0,0,1,7,33.34c.12,1.18.67,1.55,1.77,1.75q12.42,2.23,24.8,4.6a15.73,15.73,0,0,1,13.06,15.6,14.07,14.07,0,0,1-.28,2.5q-4.68,25.05-9.38,50.1c-1.67,8.85-9.47,14.09-18.36,12.42-8.26-1.55-16.53-3-24.79-4.65a1.9,1.9,0,0,0-2.48,1.23,134.09,134.09,0,0,1-18.05,27.83c-1.14,1.38-1.24,2.25-.16,3.77,4.85,6.85,9.53,13.82,14.29,20.73a15.49,15.49,0,0,1-3.88,21.13c-6.69,4.76-13.54,9.3-20.31,14-7.32,5-14.58,10.12-22,15s-16.67,3.06-21.77-4.39c-4.74-6.92-9.52-13.82-14.23-20.76a1.83,1.83,0,0,0-2.48-.87,136.09,136.09,0,0,1-33.5,7.08c-1.26.09-1.51.77-1.7,1.81-1.52,8.33-3.1,16.64-4.63,25a15.23,15.23,0,0,1-18,12.57q-25.33-4.62-50.64-9.39c-8.31-1.56-13.55-9.84-11.93-18.7,1.5-8.15,3-16.3,4.59-24.43.26-1.34-.16-1.87-1.28-2.44a143.94,143.94,0,0,1-27.68-18c-1.38-1.16-2.26-1.29-3.8-.2-6.81,4.82-13.74,9.44-20.6,14.17a15.65,15.65,0,0,1-21.41-3.88q-6.18-9.09-12.41-18.12c-5.6-8.16-11.23-16.29-16.79-24.47-4.54-6.67-2.59-16.53,4.09-21.11q10.76-7.36,21.54-14.7a1.53,1.53,0,0,0,.69-2.09,149,149,0,0,1-7.1-33.67c-.13-1.33-.85-1.48-1.85-1.67-8.19-1.51-16.39-3-24.57-4.59-5.83-1.14-10-4.41-12.18-10.05a14.07,14.07,0,0,1-.78-7.76c3.19-17,6.33-34,9.56-51a15.19,15.19,0,0,1,17.59-12c8.44,1.56,16.88,3.11,25.31,4.75,1.34.25,2,0,2.63-1.26a136.11,136.11,0,0,1,18.14-28c1-1.2,1.19-1.94.2-3.34-4.91-6.95-9.7-14-14.47-21a15.44,15.44,0,0,1,3.94-21.1c7.39-5.22,14.93-10.25,22.39-15.38,6.18-4.24,12.43-8.39,18.49-12.82,8.24-6,18.68-4,24.16,4.93,4.17,6.78,9,13.18,13.43,19.78a1.42,1.42,0,0,0,2,.6,140,140,0,0,1,33.85-7.16c1.21-.1,1.44-.71,1.62-1.68q2.34-12.75,4.74-25.49a15.21,15.21,0,0,1,17.75-12.16c4.26.76,8.5,1.57,12.75,2.37l12.57,2.34Zm-53.09,292.82c57.4,10.29,113.81-28.21,124.15-87.51,10.07-57.79-28.66-112.93-85.44-123.82a107.57,107.57,0,0,0-126.4,87.28C1953.51,2239.2,1992.69,2295.9,2051.26,2305.55Z"/><path class="cls-17" d="M2464,2091.44l-162.55,341.29c-21.3,44.73,11.31,96.38,60.85,96.38h543.62a19.32,19.32,0,0,0,19.32-19.32h0a19.32,19.32,0,0,0-19.32-19.32H2739.4c-49.53,0-82.14-51.63-60.86-96.35L2813,2111.47Z"/><g class="cls-36"><rect class="cls-37" x="2294.81" y="2490.47" width="810.43" height="38.64" rx="19.32"/><rect class="cls-37" x="2360.65" y="2127.91" width="576.36" height="78.65"/></g><path class="cls-18" d="M1453.39,853.05l-24.23-8.61-44.22,62.81a60.19,60.19,0,0,0-9.59,47.55l247.5,1130.05a73.65,73.65,0,0,0,72,57.9H3486.87A60.22,60.22,0,0,0,3533,2121.3l42-49.86Z"/><path class="cls-17" d="M3530.41,2091.44H1735.92a59.52,59.52,0,0,1-58-46.27L1415.72,896.39a59.51,59.51,0,0,1,58-72.75H3268.22a59.51,59.51,0,0,1,58,46.27l262.19,1148.78A59.51,59.51,0,0,1,3530.41,2091.44Z"/><path class="cls-18" d="M3455.36,2025.52H1780.88a59.5,59.5,0,0,1-58-46.27L1490.76,962.32a59.52,59.52,0,0,1,58-72.76H3223.27a59.51,59.51,0,0,1,58,46.27l232.09,1016.93A59.51,59.51,0,0,1,3455.36,2025.52Z"/><g class="cls-38"><path class="cls-6" d="M3433.29,2050.43H1758.8a59.51,59.51,0,0,1-58-46.27L1468.69,987.23a59.51,59.51,0,0,1,58-72.76H3201.19a59.5,59.5,0,0,1,58,46.27l232.1,1016.94A59.51,59.51,0,0,1,3433.29,2050.43Z"/></g><rect class="cls-39" x="1598.27" y="1010.66" width="1568.88" height="16.1" rx="8.05"/><polygon class="cls-40" points="2553.69 1942.87 1776.23 1942.87 1576.55 1067.95 2354.01 1067.95 2553.69 1942.87"/><polygon class="cls-41" points="2382.75 1193.88 1605.29 1193.88 1576.55 1067.95 2354.01 1067.95 2382.75 1193.88"/><polygon class="cls-42" points="3255.2 1193.88 2477.74 1193.88 2449 1067.95 3226.46 1067.95 3255.2 1193.88"/><polygon class="cls-40" points="3321.06 1482.45 2543.61 1482.45 2449 1067.95 3226.46 1067.95 3321.06 1482.45"/><path class="cls-43" d="M2342.92,1440.48h-599.3a30.81,30.81,0,0,1-30-23.94l-31.75-139.12a30.79,30.79,0,0,1,30-37.64h599.3a30.79,30.79,0,0,1,30,23.94l31.75,139.11A30.8,30.8,0,0,1,2342.92,1440.48Z"/><path class="cls-43" d="M3219.11,1440.48h-599.3a30.81,30.81,0,0,1-30-23.94L2558,1277.42a30.79,30.79,0,0,1,30-37.64h599.3a30.78,30.78,0,0,1,30,23.94l31.75,139.11A30.8,30.8,0,0,1,3219.11,1440.48Z"/><path class="cls-6" d="M2139.3,1413.16H1578.41a49.57,49.57,0,0,1-48.38-38.77l-23.68-106.15a49.57,49.57,0,0,1,48.38-60.37h560.88a49.57,49.57,0,0,1,48.38,38.78l23.69,106.14A49.57,49.57,0,0,1,2139.3,1413.16Z"/><g class="cls-44"><path class="cls-45" d="M1964.53,1267.29H1567.05c-5.86,0-11.6-4.75-12.83-10.61h0c-1.22-5.86,2.53-10.6,8.39-10.6h397.48c5.86,0,11.6,4.74,12.83,10.6h0C1974.14,1262.54,1970.39,1267.29,1964.53,1267.29Z"/><path class="cls-46" d="M1978.23,1319.3H1580.75c-5.86,0-11.6-4.74-12.83-10.6h0c-1.22-5.86,2.53-10.61,8.39-10.61h397.48c5.86,0,11.6,4.75,12.83,10.61h0C1987.84,1314.56,1984.09,1319.3,1978.23,1319.3Z"/><path class="cls-46" d="M1992,1375H1594.55c-5.86,0-11.6-4.75-12.83-10.61h0c-1.23-5.85,2.53-10.6,8.38-10.6h397.49c5.86,0,11.6,4.75,12.82,10.6h0C2001.64,1370.21,1997.89,1375,1992,1375Z"/><ellipse class="cls-46" cx="2077.49" cy="1310.52" rx="63" ry="74.02" transform="translate(-294.42 1948.83) rotate(-47.31)"/></g><path class="cls-47" d="M2139.3,1413.16H1578.41a49.57,49.57,0,0,1-48.38-38.77l-23.68-106.15a49.57,49.57,0,0,1,48.38-60.37h560.88a49.57,49.57,0,0,1,48.38,38.78l23.69,106.14A49.57,49.57,0,0,1,2139.3,1413.16Z"/><path class="cls-6" d="M3181.34,1375.55H2594.06a36.64,36.64,0,0,1-35.73-28.49l-29.08-127.4a36.66,36.66,0,0,1,35.74-44.81h587.27a36.67,36.67,0,0,1,35.74,28.5l29.07,127.4A36.65,36.65,0,0,1,3181.34,1375.55Z"/><g class="cls-48"><ellipse class="cls-46" cx="2674.67" cy="1274.95" rx="62.37" ry="80.18" transform="translate(-50.72 2437.53) rotate(-48.59)"/><path class="cls-45" d="M2987,1230.46H2767.12c-5.08,0-10.24-4.12-11.52-9.2h0c-1.28-5.08,1.8-9.2,6.88-9.2h219.86c5.08,0,10.23,4.12,11.51,9.2h0C2995.13,1226.34,2992.05,1230.46,2987,1230.46Z"/><path class="cls-46" d="M3132.1,1280.77H2779.78c-5.08,0-10.23-4.12-11.51-9.2h0c-1.28-5.08,1.8-9.2,6.88-9.2h352.32c5.08,0,10.24,4.12,11.52,9.2h0C3140.27,1276.65,3137.18,1280.77,3132.1,1280.77Z"/><path class="cls-46" d="M3144.77,1331.08H2792.45c-5.08,0-10.23-4.12-11.51-9.2h0c-1.28-5.08,1.8-9.2,6.88-9.2h352.32c5.08,0,10.24,4.12,11.51,9.2h0C3152.93,1327,3149.85,1331.08,3144.77,1331.08Z"/><path class="cls-45" d="M2612.7,1261.5c6.41,1.81,12.58,4,18.7,6.36s12.12,4.85,18.07,7.5,11.82,5.39,17.63,8.27c2.9,1.45,5.81,2.88,8.68,4.39s5.76,3,8.6,4.54l-9.94,2.6,2.89-4.76,3-4.73c2-3.16,4-6.27,6-9.37s4.16-6.18,6.23-9.27,4.24-6.11,6.46-9.11q6.55-9.08,13.64-17.79,3.55-4.37,7.27-8.62t7.75-8.32q-1.83,5.43-4,10.65t-4.45,10.36q-4.64,10.24-9.82,20.15c-1.69,3.33-3.51,6.57-5.27,9.86s-3.6,6.51-5.5,9.71-3.74,6.43-5.69,9.59l-2.89,4.77-3,4.72,0,.06a7.45,7.45,0,0,1-9.89,2.54c-2.84-1.57-5.63-3.21-8.42-4.85s-5.57-3.33-8.34-5c-5.54-3.38-11-6.9-16.4-10.51s-10.73-7.39-16-11.3S2617.65,1266,2612.7,1261.5Z"/></g><path class="cls-47" d="M3181.34,1375.55H2594.06a36.64,36.64,0,0,1-35.73-28.49l-29.08-127.4a36.66,36.66,0,0,1,35.74-44.81h587.27a36.67,36.67,0,0,1,35.74,28.5l29.07,127.4A36.65,36.65,0,0,1,3181.34,1375.55Z"/><path class="cls-49" d="M2385.19,1669.59h-582.9a38.8,38.8,0,0,1-37.82-30.16l-28.1-123.13a38.78,38.78,0,0,1,37.82-47.41h582.9A38.79,38.79,0,0,1,2394.9,1499l28.1,123.13A38.79,38.79,0,0,1,2385.19,1669.59Z"/><path class="cls-49" d="M2437.48,1898.7h-582.9a38.8,38.8,0,0,1-37.82-30.16l-28.1-123.13a38.78,38.78,0,0,1,37.81-47.41h582.91a38.79,38.79,0,0,1,37.81,30.15l28.1,123.13A38.79,38.79,0,0,1,2437.48,1898.7Z"/><path class="cls-35" d="M2852.12,1681.3,2807.53,1697a124,124,0,0,1,11.1,29.88c12.73,55.78-20,101-73.19,101-34.84,0-69.79-19.43-93.33-48.53l-36.81,27.49c35.86,44.34,89.12,74,142.21,74,81,0,130.93-68.91,111.53-153.91A188.86,188.86,0,0,0,2852.12,1681.3Z"/><path class="cls-45" d="M2807.53,1697l44.59-15.66c-32.82-62.77-99-108.37-164.86-108.37l12.07,52.91C2742.58,1625.84,2786,1655.76,2807.53,1697Z"/><path class="cls-15" d="M2626.14,1726.84c-12.73-55.78,20-101,73.19-101l-12.07-52.91c-81,0-130.93,68.91-111.53,153.91,6.68,29.28,20.72,56.66,39.57,80l36.81-27.49A130.11,130.11,0,0,1,2626.14,1726.84Z"/><polygon class="cls-45" points="3013.87 1852.97 2972.62 1852.97 2937.01 1696.96 2978.26 1696.96 3013.87 1852.97"/><polygon class="cls-45" points="3087.61 1852.97 3046.37 1852.97 3021.97 1746.08 3063.22 1746.08 3087.61 1852.97"/><polygon class="cls-45" points="3161.36 1852.97 3120.11 1852.97 3106.79 1794.61 3148.04 1794.61 3161.36 1852.97"/><polygon class="cls-45" points="3235.11 1852.97 3193.86 1852.97 3165.72 1729.68 3206.97 1729.68 3235.11 1852.97"/><polygon class="cls-45" points="3308.85 1852.97 3267.61 1852.97 3224.5 1664.1 3265.74 1664.1 3308.85 1852.97"/><polygon class="cls-45" points="3382.6 1852.97 3341.35 1852.97 3282.83 1596.54 3324.07 1596.54 3382.6 1852.97"/><polygon class="cls-50" points="3440.81 1880.74 2927.09 1880.74 2924.09 1867.63 3437.82 1867.63 3440.81 1880.74"/><path class="cls-6" d="M1773.65,1109H1763.1a3.63,3.63,0,0,1-3.54-2.84l-.34-1.53a3.62,3.62,0,0,1,3.54-4.41h36a3.63,3.63,0,0,1,3.54,2.84l.33,1.54a3.62,3.62,0,0,1-3.54,4.4h-7.52a3.63,3.63,0,0,0-3.54,4.41l8.8,39.88a3.62,3.62,0,0,1-3.54,4.41h-3.06a3.62,3.62,0,0,1-3.54-2.85l-9.49-43A3.64,3.64,0,0,0,1773.65,1109Z"/><path class="cls-6" d="M1863.21,1128.37c4.26,19.28-5,30.28-20.86,30.28-16.21,0-29.17-12.37-32.89-29.25-3.9-17.66,4.44-30.11,20.64-30.11C1846.9,1099.29,1859.6,1112,1863.21,1128.37Zm-42.71.86c2.58,11.68,10.52,21,20.58,21s13.79-9.38,11.14-21.4c-2.39-10.83-10-21.07-20.51-21.07S1817.89,1117.37,1820.5,1129.23Z"/><path class="cls-6" d="M1890.38,1127.8h0a3.63,3.63,0,0,1-3.54,4.41h-14.33a3.63,3.63,0,0,1-3.54-2.84h0a3.63,3.63,0,0,1,3.54-4.41h14.33A3.63,3.63,0,0,1,1890.38,1127.8Z"/><path class="cls-6" d="M1893.92,1104.83a3.62,3.62,0,0,1,3.14-4.39,115.2,115.2,0,0,1,12.47-.64c10.74,0,18.65,2.22,24.91,6.66,6.55,4.52,11.46,11.34,13.63,21.14,2.25,10.24.45,17.91-3.92,22.86-4.56,5.2-13.1,7.85-24.28,7.85-4.71,0-8.57-.21-11.69-.49A3.6,3.6,0,0,1,1905,1155Zm19.81,42.25a3.62,3.62,0,0,0,3.45,2.84c1,0,2,0,3,0,13.67.08,20.11-7.42,16.89-22-2.71-12.71-11.65-20-24.78-20-1,0-2,0-2.86.07a3.62,3.62,0,0,0-3.32,4.4Z"/><path class="cls-6" d="M2008.36,1128.37c4.25,19.28-5,30.28-20.87,30.28-16.2,0-29.17-12.37-32.89-29.25-3.9-17.66,4.44-30.11,20.65-30.11C1992.05,1099.29,2004.74,1112,2008.36,1128.37Zm-42.71.86c2.58,11.68,10.51,21,20.57,21s13.8-9.38,11.14-21.4c-2.39-10.83-10-21.07-20.51-21.07S1963,1117.37,1965.65,1129.23Z"/><path class="cls-6" d="M2033.35,1100.23h3.07a3.61,3.61,0,0,1,3.53,2.84l9.49,43a3.63,3.63,0,0,0,3.54,2.84h17.8a3.63,3.63,0,0,1,3.54,2.85l.34,1.53a3.62,3.62,0,0,1-3.54,4.41h-26.69a3.63,3.63,0,0,1-3.54-2.85l-11.08-50.22A3.62,3.62,0,0,1,2033.35,1100.23Z"/><path class="cls-6" d="M2082,1103.07l11.08,50.23a3.62,3.62,0,0,1-3.54,4.41h-3.07a3.63,3.63,0,0,1-3.54-2.85l-11.08-50.22a3.62,3.62,0,0,1,3.54-4.41h3.07A3.63,3.63,0,0,1,2082,1103.07Z"/><path class="cls-6" d="M2103.07,1151.45a3.63,3.63,0,0,1,4.81-3.26A32.54,32.54,0,0,0,2118,1150c6.73,0,9.79-3.16,8.76-7.85-1-4.35-4.43-6.91-12.34-9.55-10.22-3.41-17.39-8.44-19.21-16.71-2.07-9.38,4.19-16.55,16.64-16.55a36.65,36.65,0,0,1,11.78,1.84,3.63,3.63,0,0,1,2.46,3.73l-.08,1a3.61,3.61,0,0,1-4.59,3.19,28,28,0,0,0-7.84-1.13c-6.65,0-8.76,3.58-8,6.9,1,4.44,4.76,6.48,13.09,9.47,10.81,3.75,16.78,8.78,18.61,17,2,9.22-3.2,17.23-18,17.23a42.11,42.11,0,0,1-13.87-2.5,3.62,3.62,0,0,1-2.34-3.55Z"/><path class="cls-6" d="M2147.68,1109h-10.55a3.63,3.63,0,0,1-3.54-2.84l-.34-1.53a3.62,3.62,0,0,1,3.54-4.41h36a3.63,3.63,0,0,1,3.54,2.84l.33,1.54a3.62,3.62,0,0,1-3.54,4.4h-7.52a3.63,3.63,0,0,0-3.54,4.41l8.8,39.88a3.62,3.62,0,0,1-3.54,4.41h-3.06a3.62,3.62,0,0,1-3.54-2.85l-9.49-43A3.64,3.64,0,0,0,2147.68,1109Z"/><path class="cls-6" d="M2757.69,1104.83a3.63,3.63,0,0,1,3.14-4.39,115.2,115.2,0,0,1,12.47-.64c10.74,0,18.65,2.22,24.92,6.66,6.54,4.52,11.45,11.34,13.62,21.14,2.26,10.24.45,17.91-3.91,22.86-4.57,5.2-13.11,7.85-24.28,7.85-4.72,0-8.58-.21-11.7-.49a3.61,3.61,0,0,1-3.19-2.83Zm19.81,42.25a3.62,3.62,0,0,0,3.45,2.84c1,0,2,0,3,0,13.67.08,20.11-7.42,16.9-22-2.72-12.71-11.66-20-24.79-20-1.05,0-2,0-2.86.07a3.62,3.62,0,0,0-3.32,4.4Z"/><path class="cls-6" d="M2872.13,1128.37c4.25,19.28-5,30.28-20.87,30.28-16.2,0-29.16-12.37-32.89-29.25-3.89-17.66,4.45-30.11,20.65-30.11C2855.82,1099.29,2868.52,1112,2872.13,1128.37Zm-42.71.86c2.58,11.68,10.51,21,20.58,21s13.79-9.38,11.14-21.4c-2.39-10.83-10-21.07-20.51-21.07S2826.81,1117.37,2829.42,1129.23Z"/><path class="cls-6" d="M2887,1154.86l-11.08-50.22a3.62,3.62,0,0,1,3.54-4.41h5.72a3.62,3.62,0,0,1,2.79,1.32l19.19,23.33a209,209,0,0,1,14.06,19.27h.17c-2.37-7.68-4.26-15.1-6.2-23.88l-3.45-15.63a3.62,3.62,0,0,1,3.54-4.41h2.3a3.63,3.63,0,0,1,3.54,2.84l11.08,50.23a3.62,3.62,0,0,1-3.54,4.41h-4.6a3.62,3.62,0,0,1-2.81-1.34l-19.49-23.9c-5.06-6.31-10.46-13.39-14.7-19.87l-.24.08c2.06,7.42,3.82,15,5.91,24.48l3.56,16.14a3.62,3.62,0,0,1-3.53,4.41h-2.22A3.63,3.63,0,0,1,2887,1154.86Z"/><path class="cls-6" d="M2967.3,1132.21h-12.64a3.63,3.63,0,0,0-3.54,4.41l2.13,9.63a3.64,3.64,0,0,0,3.54,2.85h18.4a3.61,3.61,0,0,1,3.53,2.84l.31,1.36a3.63,3.63,0,0,1-3.54,4.41H2948.2a3.63,3.63,0,0,1-3.54-2.85l-11.08-50.22a3.62,3.62,0,0,1,3.54-4.41h26a3.61,3.61,0,0,1,3.53,2.84l.31,1.37a3.63,3.63,0,0,1-3.54,4.4h-13.92a3.63,3.63,0,0,0-3.54,4.41l1.67,7.59a3.63,3.63,0,0,0,3.54,2.84H2967a3.63,3.63,0,0,1,3.54,2.85l.28,1.27A3.62,3.62,0,0,1,2967.3,1132.21Z"/><ellipse class="cls-51" cx="1869.41" cy="1567.68" rx="62.37" ry="80.18" transform="translate(-542.87 1932.71) rotate(-48.59)"/><path class="cls-52" d="M2181.72,1523.2H1961.86c-5.08,0-10.24-4.12-11.51-9.2h0c-1.28-5.08,1.8-9.2,6.88-9.2h219.85c5.08,0,10.24,4.12,11.52,9.2h0C2189.88,1519.08,2186.8,1523.2,2181.72,1523.2Z"/><path class="cls-52" d="M2326.85,1573.51H1974.53c-5.08,0-10.24-4.12-11.52-9.2h0c-1.28-5.08,1.81-9.2,6.89-9.2h352.32c5.08,0,10.23,4.12,11.51,9.2h0C2335,1569.39,2331.93,1573.51,2326.85,1573.51Z"/><path class="cls-52" d="M2339.52,1623.82H1987.2c-5.08,0-10.24-4.12-11.52-9.2h0c-1.28-5.08,1.8-9.2,6.88-9.2h352.32c5.08,0,10.24,4.12,11.52,9.2h0C2347.68,1619.7,2344.6,1623.82,2339.52,1623.82Z"/><ellipse class="cls-51" cx="1932.62" cy="1798.35" rx="62.37" ry="80.18" transform="translate(-694.46 2058.2) rotate(-48.59)"/><path class="cls-52" d="M2244.93,1753.86H2025.07c-5.08,0-10.23-4.12-11.51-9.2h0c-1.28-5.08,1.8-9.19,6.88-9.19h219.85c5.08,0,10.24,4.11,11.52,9.19h0C2253.09,1749.74,2250,1753.86,2244.93,1753.86Z"/><path class="cls-52" d="M2390.06,1804.17H2037.74c-5.08,0-10.24-4.12-11.52-9.2h0c-1.28-5.08,1.81-9.19,6.89-9.19h352.32c5.08,0,10.23,4.11,11.51,9.19h0C2398.22,1800.05,2395.14,1804.17,2390.06,1804.17Z"/><path class="cls-52" d="M2402.73,1854.48H2050.41c-5.08,0-10.24-4.11-11.52-9.19h0c-1.28-5.09,1.8-9.2,6.88-9.2H2398.1c5.08,0,10.23,4.11,11.51,9.2h0C2410.89,1850.37,2407.81,1854.48,2402.73,1854.48Z"/><rect class="cls-53" x="1937.87" y="949.33" width="911.18" height="36.16" rx="18.08"/><rect class="cls-35" x="1543.45" y="949.33" width="316.54" height="36.16" rx="18.08"/><ellipse class="cls-28" cx="1235.36" cy="2612.21" rx="270.18" ry="70.98"/><path class="cls-20" d="M1257.17,993.82s44.15,16.31,33.11,87.49c0,0-14.42,50.5,25.22,80.85s30.67,101.44,23.77,117.3,84.86,71.54,82.1,131.32-78.65,145.67-342.2,138.72-178.92-133-155.92-161.5,0-92.19,34-131.64,50.6-62.46,47.84-126.85,9.19-141.21,76.12-177.77S1240.61,948.29,1257.17,993.82Z"/><g class="cls-54"><path class="cls-55" d="M1265.91,985.48l-8.74,8.34s19.32,51.49-17.48,50.11-92.45-30.35-92.45-30.35-5.52,32.65-33.12,58.87-21.61,93-31.27,143.55-56.21,45-57.08,120.45-67.57,50.6-44.11,168.81,318.73,54,364.05,32.22,116.13-94.77,110.62-145.83-83.26-209.73-91.07-227.67-62.56-149-63.48-151.78S1265.91,985.48,1265.91,985.48Z"/></g><path class="cls-21" d="M1133.44,1145.58v94.81s3.37,19.93,33.12,20.54,36.79-15,36.79-15v-40.79L1152.61,1149Z"/><path class="cls-3" d="M1262,1068s2.54,89.11-6.43,118.09-53,38.86-81.8,21.08-32.19-49.06-32.19-49.06-29.75-4.3-30-40.48,33.73-27.6,33.73-27.6,14.26-25.89,19.47-44C1164.72,1046,1212.93,1083.75,1262,1068Z"/><g class="cls-56"><path class="cls-21" d="M1281.43,1091.77s-79.57,10.73-111.15-31l-19.63,45.38s-33.38-11.5-42.21,19.78l-7-67.16,90-51s-3.06-16.1,11.2,0,48.75,38.41,48.75,38.41l30,13.1Z"/><ellipse class="cls-57" cx="1190.23" cy="1115.8" rx="7.69" ry="10.43"/><ellipse class="cls-57" cx="1244.8" cy="1115.8" rx="7.69" ry="10.43"/><rect class="cls-57" x="1176.68" y="1090.62" width="26.68" height="5.52" rx="2.76"/><rect class="cls-57" x="1231.95" y="1090.62" width="26.68" height="5.52" rx="2.76"/><path class="cls-58" d="M1190.36,1169.57h30.71a3.42,3.42,0,0,1,3.25,4.53c-1.89,5.45-6.66,13.87-18.17,13.87s-16.7-8.24-19-13.69A3.42,3.42,0,0,1,1190.36,1169.57Z"/><rect class="cls-59" x="1215.89" y="1119.9" width="12.11" height="34.8" rx="6.06"/><g class="cls-60"><circle class="cls-61" cx="1167.17" cy="1145.58" r="23.23"/></g><g class="cls-60"><circle class="cls-61" cx="1269.43" cy="1145.58" r="23.23"/></g></g><path class="cls-21" d="M1290.23,2111.76s-38.78,65.16-54.49,98.34-126,230.59-128.36,250.26,7.23,75.41,13.79,82.47,38.3,48.84,26,73.4-44,2.27-75.85-13.45c-29.18-14.39-17.48-58.24-34.83-61.06-3.66,5-17.48,36.94-17.48,36.94l-30.48-14.43s19.65-47.79,23.17-64.29,11.16-39.62,27.17-52.51,26.08-34.88,38.47-66.65,60.5-177.39,82.61-230.32,34.08-72,34.08-72Z"/><g class="cls-62"><path class="cls-63" d="M1032.17,2431.57l11.74,4.78s12.81,18.12,13.45,53.37,52.07,79.16,63.67,50.6,46,78,46,78l-54.28,26.48S980.58,2572,979.15,2571.75s-50.84-20.35-34.57-32.28S1032.17,2431.57,1032.17,2431.57Z"/></g><path class="cls-3" d="M1225,2092.67V2204.9c0,37.72-15.64,269.53-9.2,288.85s39.86,66.84,49.06,70.52,57,28.52,56.42,56.73-39.86,21.44-76.35,20.85c-33.42-.54-41.83-46.41-59.18-41.39-1.22,6.2,0,42,0,42h-34.65s-2.76-53-6.74-69.89-7.06-41.7,2.14-60.71,8.9-43.85,6.44-78.81-21.79-191.33-24.53-250.21,0-81.87,0-81.87Z"/><g class="cls-64"><path class="cls-65" d="M1133.9,2513.47l12.57-1.63s20.09,9.45,38,39.8,84.32,43.2,80.33,12.63,76.55,43.12,76.55,43.12l-32.24,51.88s-150.86,1.84-152.24,2.3-54.27,7.36-46-11S1133.9,2513.47,1133.9,2513.47Z"/></g><path class="cls-4" d="M1247.71,1256.65c-21.28,11.26-24.07,45.53.64,85.32s89.47,141.5,89.47,141.5,49.76-5.66,62.41-51.64c0,0-48-72.43-79.9-122.1S1276.49,1241.43,1247.71,1256.65Z"/><g class="cls-66"><path class="cls-67" d="M1327.54,1428c19.78,29.9,42.32,25.76,42.32,25.76s-5.52,20.23-9.66,23-12,12.1-22.08,11-54.28-13.53-53.82-22.4-23-74.19-29-94S1307.76,1398.09,1327.54,1428Z"/></g><path class="cls-5" d="M1131.3,1243l-2.61.31s-75.74,21.92-78.5,32.27,6.44,133.62,60.71,269.76c0,0-70.83,112.69-77.27,224.92s85.55,350.94,85.55,350.94,40.48,19.32,92.91,20.24,78.19-26.68,78.19-26.68,36.8-162.82,53.36-266.77-44.16-255.73-47.84-296.21.92-83.71,12.88-130.62,4.6-59.34-16.1-88.77-21.21-80-21.21-80l-64.18-5.06Z"/><g class="cls-68"><path class="cls-69" d="M1017,1844.78s230-86.3,243.81,9.7-42.32,315.87-42.32,315.87l128-27.6L1363,1795s-7.82-212.35-17.25-225.73-75.66-60.27-75.66-60.27l-152.5,50.52s-80.47,8.32-91.39,25.8S998.62,1788.74,1017,1844.78Z"/><path class="cls-6" d="M1079.17,1536.13s48.37,44.42,128,38.28,108.31-36.93,108.31-36.93l14.17-213.27s-39.22-95.38-41-98.83-207.4,5.1-209.47,2.9-83.25.13-87.85,0,87.85,307.85,87.85,307.85"/><g class="cls-70"><path class="cls-71" d="M1311.44,1343.36c0,8.28,17.94,32.2-10.58,40.47s-160.06,6.9-156.38,19.78,22.38,37.72,62.71,41.86,56,12.42,50,49.67-32.66,82.79-32.66,82.79l82.33,4.14,20.06-58.87s-1.57-127.87,0-133.85,2.94-30.35,2.94-30.35Z"/></g><path class="cls-72" d="M1171.62,1256.43s57.86,54.75,76.53,149.84"/><circle class="cls-73" cx="1171.62" cy="1301.2" r="9.81"/><circle class="cls-73" cx="1186.64" cy="1335.39" r="9.81"/><circle class="cls-73" cx="1201.1" cy="1369.78" r="9.81"/><path class="cls-74" d="M1139.3,1547.9c-3.65,3.67-112.87,158-89.84,295.86s89.84,308,89.84,308"/><path class="cls-74" d="M1173.23,1544.92c-2.74,2.75-72.11,160.78-52.89,284s50.39,323.36,50.39,323.36"/><path class="cls-74" d="M1207.16,1541.93c-1.82,1.84-31.34,163.51-15.94,272.08s10.94,338.69,10.94,338.69"/><path class="cls-74" d="M1241.09,1538.94c-.91.92,9.42,166.25,21,260.19s-28.5,354-28.5,354"/><path class="cls-74" d="M1275,1536s50.19,169,58,248.29-68,369.34-68,369.34"/></g><path class="cls-4" d="M1072.73,1272.58c25.29,2.84,41.39,36.34,32.65,86.47S1072.73,1538,1072.73,1538s-51.06,14.26-81.41-27.13c0,0,18.86-92.45,30.81-155.47S1038.54,1268.75,1072.73,1272.58Z"/><g class="cls-75"><path class="cls-67" d="M1086.07,1272.19s8.35,38.33-2.76,95.29-40.71,176-40.71,176l36.57,9.12s15.87-35.26,22.08-86.36,23.3-88.34,21.31-111.11,0-51.75,0-51.75Z"/></g><path class="cls-21" d="M1400.61,1443.21s10.42,13.18,14.41,11.65,91.22-79.42,97.2-91.84,4.14-18.86,15.64-39.55,36.33-39.56,36.79-30.36-8.27,19.78-4.59,20.24,42.77-45.08,50.59-36.8,25.76,34.5,14.72,54.74-55.2,54.73-75,55.65c0,0-86.93,132.92-141.67,136.6-23,0-53.35-32.19-53.35-32.19Z"/><path class="cls-6" d="M1364,1451.74c-15,14-45.13,16.11-41.54,25.15s17.38,27.24,25,25.13,19-3,37.4-22.6,33.27-40.07,27.72-47-22-22.8-29.09-11.5S1374.47,1442,1364,1451.74Z"/><path class="cls-76" d="M1375.76,1613.66l11.65-8.28s16.25.92,26.37,24.23,16.87,72.67-12.11,70.83-66.38-16.56-66.38-16.56-9.51-28.82-8.28-32.5,11.34-23.31,12.57-23.61S1375.76,1613.66,1375.76,1613.66Z"/><path class="cls-77" d="M1380.67,1644s-9.2-31.89,6.74-38.64l-41.7,16.1v40.93Z"/><path class="cls-7" d="M1364.42,1592.65,847,1763.91s-44.84,53.12,20,102.8l534.69-166.27s-31.74-22.08-40-57.27S1364.42,1592.65,1364.42,1592.65Z"/><g class="cls-78"><path class="cls-79" d="M1264.07,1758.64s-113.5-8.11-113.5-16.22-24.32-89.17-24.32-89.17S988.44,1774.85,980.34,1783s-40.54,56.74-40.54,56.74l73,8.11s121.6,0,170.24-24.32S1264.07,1758.64,1264.07,1758.64Z"/></g><path class="cls-80" d="M1171.69,1478.45l5.78-13.07s14.43-7.52,35,7.33,51.66,53.82,25.82,67.06-65.51,19.72-65.51,19.72-22.92-19.9-23.74-23.69-2.17-25.83-1.28-26.72S1171.69,1478.45,1171.69,1478.45Z"/><path class="cls-81" d="M1208.15,1518.87s-43-14.93-30.68-53.49l-27.6,35.16,37.65,52Z"/><path class="cls-6" d="M1151.2,1466.2,794.16,1878s-11.37,68.59,69.77,78.1l374.41-416.36s-38.56-2.74-63.68-28.74S1151.2,1466.2,1151.2,1466.2Z"/><g class="cls-82"><path class="cls-83" d="M1053.3,1572.18c0,8.11-24.32,32.43,0,56.75l64.85,64.85s-24.32,40.54-24.32,48.64-32.43,8.11-32.43,8.11L964.12,1637l56.75-48.64,32.43-16.22"/></g><path class="cls-3" d="M985.34,1537.48s-27.14,64.43-18.86,87.88,164.66,165.13,179.38,171.11,90.15,4.13,97.51-15.18-41.17-32-89-29.67c0,0-115.68-113.84-116.14-135s11.32-53.82,11.32-53.82Z"/><g class="cls-84"><path class="cls-21" d="M972.23,1547.86s32.43,24.32,48.64,32.43S1053.3,1637,1053.3,1637v-89.18l-73-16.21Z"/></g><path class="cls-6" d="M1028.57,1527.4c20.13,8.09,50.6-1.84,50.6,8.73s-6.44,34.5-14.72,35.42-19.78,4.6-45.54-7.82-48.29-27.14-45.53-36.33,12.72-31.89,24.07-23.31S1014.47,1521.72,1028.57,1527.4Z"/><path class="cls-73" d="M1128.69,1234.51a3.82,3.82,0,0,1,5.47-3.45c7.66,3.67,22,9.76,34.24,10.4s26-4.44,33.46-7.64a3.82,3.82,0,0,1,5.33,3.52v8.8a3.79,3.79,0,0,1-.69,2.18c-3,4.33-15.87,20.56-38.1,17.36-21.79-3.13-35.26-17.14-38.78-21.25a3.81,3.81,0,0,1-.93-2.5Z"/><path class="cls-21" d="M1125.16,1113.16s15.87-11,14,2.52-9.27,25.3-12.34,17.25S1119.87,1121.43,1125.16,1113.16Z"/><path class="cls-85" d="M1026.16,1030.13s-23.57,40.46-31.85,105.44-58.07,102.23-64.17,142.94-1.38,94.75-62.09,145.69"/><path class="cls-86" d="M1107.78,964.59s-61,8.28-74.47,102.8-4.74,136.26-50,187S970.16,1355.09,937.73,1413s-16.55,82.1-16.55,82.1"/><path class="cls-86" d="M1074.11,1079.35s-7.82,113.15-30.36,155-43.69,57.5-48.75,125.11-41.4,75.43-34,128.32"/><ellipse class="cls-45" cx="2926.32" cy="961.14" rx="19.49" ry="24.23" transform="translate(256.9 2497.8) rotate(-48.11)"/><ellipse class="cls-45" cx="3020.84" cy="961.14" rx="19.49" ry="24.23" transform="translate(288.3 2568.16) rotate(-48.11)"/><ellipse class="cls-45" cx="3115.36" cy="961.14" rx="19.49" ry="24.23" transform="translate(319.71 2638.52) rotate(-48.11)"/><path class="cls-87" d="M3067.18,1318.13s-2.41-41.48-13.09-60.9-48.61-46-64.81-50.44-53.44,3.1-32.75,25.85,36.54,40,33.78,44.13-36.33-9-39.88,1.38,64,62,73.32,61.7Z"/><ellipse class="cls-28" cx="3392.33" cy="2649.25" rx="444.51" ry="70.98"/><path class="cls-8" d="M3223.73,1053.3s-37.56,8.13-54.12-48.75-.3-70.68,7.36-69.15,12.27,18.09,12.27,18.09,1.53-37.41,17.78-42,20.24,17.79,20.24,17.79,2.15-31.89,21.77-35.57S3269,919.46,3269,919.46s38.94-28.83,97.82-24.53,89.84,66.54,86.77,122.65-68.38,119.89-75.43,120.35-26.06-32.65-26.06-32.65Z"/><g class="cls-88"><path class="cls-89" d="M3156.12,994s25.07,21.53,72.67,21.69,81.87-10.88,95.44-43.54,32.43-18.86,48.3-49-55-59.8-55-59.8l-91.3,3s-67.84,25.07-70.6,28.06-8,15.18-9.43,29.9S3156.12,994,3156.12,994Z"/></g><path class="cls-5" d="M3701.62,2527.44s4.6,34-12,43.23-87.92,29.09-119.13,47.61c-24.35,14.45-15.3,69.95,29,72.9,43.14,2.87,141.68-11,184.9-25.76,29.09-10,12.19-76.81,7.59-83.71s-8.51-54.27-8.51-54.27Z"/><g class="cls-90"><path class="cls-87" d="M3669.88,2563.77s22.77,23.46,71.06,23.46,69-12.42,69-12.42l-25.53-74.51L3672,2512.72Z"/></g><rect class="cls-10" x="3045.53" y="2432.59" width="395.25" height="241.93" rx="57.74"/><g class="cls-91"><rect class="cls-92" x="3033.77" y="2452.01" width="420.39" height="54.27"/></g><rect class="cls-93" x="3016.3" y="2392.67" width="453.71" height="89.69" rx="37.66"/><path class="cls-5" d="M3183.34,2248.49s8.54,33.27-6.83,44.34S3092.58,2332,3063.75,2354c-22.5,17.2-7,71.26,37.29,69,43.18-2.18,139.44-27.42,180.63-47.16,27.73-13.29,3.14-77.71-2.23-84s-14.79-52.91-14.79-52.91Z"/><g class="cls-94"><path class="cls-87" d="M3156.06,2288.28s25.35,20.64,73.31,15,67.08-20.38,67.08-20.38l-34-71-110.24,25.47Z"/></g><path class="cls-11" d="M3429.29,1694.59l-22.54,5.17s-234.11,50-282.41,98-41.82,169.72-5.73,309.08,46.46,165.58,46.46,165.58,68.28,30.36,115.19-23.45c0,0-45.53-251.49-34.49-278.22s267.69-109.52,302.18-99.86,60.29,266.45,78.87,390.49,59.12,282.87,59.12,282.87,98.81,29.76,109-11c2.76-11-11-220.77-11-331.16s-2.76-227.74,0-314-11.21-163.64-15.18-193.48Z"/><g class="cls-95"><path class="cls-96" d="M3649.19,1717.47s55.06,19,73.06,252.1,62.16,630.54,62.16,630.54l79.11-23.92s9.2-871.6,7.36-896.67-97.51-54.16-97.51-54.16Z"/><path class="cls-96" d="M3537,1884.05v-11.27s-302.12,12.65-319,74.74,31.13,353.95,34.5,353.08,60.41,6.37,68-21.92,12.41-185.59,48.29-226.29S3537,1884.05,3537,1884.05Z"/><path class="cls-97" d="M3672.18,1719s45.6,114.77,57,286.84,30.48,518.68,56.11,593.33"/></g><path class="cls-12" d="M3288.59,1329.27c7.65-49.85,19.31-92.91,29.89-92.91s69.45,134.31,60.72,167.42-41.4,119.4-105.79,156.52-129.25,21.48-180.76-39.69c-38.74-46-68.11-122.69-80.3-157.9a23.47,23.47,0,0,1,10.75-28.17l36.4-20.32a23.46,23.46,0,0,1,32.26,9.65c17.66,34,55.49,97.84,99.32,118.09C3251.79,1470,3283.24,1364.08,3288.59,1329.27Z"/><g class="cls-98"><path class="cls-99" d="M3351.64,1321.91c-1.19,2.07,8.62,86.24-23.19,147s-87.7,108.31-153.24,84.86-102.8-86.93-123.5-131.09-43-100-43-100L2993.07,1333l-6.9,138,139.36,104.86s76.58,38.64,78.65,38.64,86.46-9.81,90.84-20.43,63.46-65.48,63.46-65.48L3387.7,1442s7.67-38,4.18-46.23S3351.64,1321.91,3351.64,1321.91Z"/></g><path class="cls-13" d="M3411.39,1166.22l3.22-2.3s113.15-37.79,144.73-32.58,99,95.36,138.6,225.07,60.71,219.63,75.43,337c0,0-112.7,83.29-231.59,64.93s-130.39-59.76-130.39-59.76,18.86-84.63-9.66-193.18-81.87-226.91-86.47-249-1.84-23.61,36.18-56.73Z"/><g class="cls-100"><path class="cls-101" d="M3589.94,1244.9s34.19,89.93,25.21,139.63S3426.57,1548.67,3404.49,1568s-24.41,105.76-24.41,105.76,46.52,75.09,123.32,77.12S3645.51,1716,3686,1673.74s94.75-202.34,94.75-202.34-37.72-117.75-63.47-138.91S3589.94,1244.9,3589.94,1244.9Z"/><g class="cls-102"><g class="cls-103"><polygon class="cls-6" points="2964.11 1759.91 2943.41 1752.67 3361.12 1132.9 3381.82 1140.13 2964.11 1759.91"/><polygon class="cls-6" points="3033.33 1759.91 3012.63 1752.67 3430.34 1132.9 3451.04 1140.13 3033.33 1759.91"/><polygon class="cls-6" points="3102.55 1759.91 3081.85 1752.67 3499.56 1132.9 3520.26 1140.13 3102.55 1759.91"/><polygon class="cls-6" points="3171.77 1759.91 3151.07 1752.67 3568.78 1132.9 3589.48 1140.13 3171.77 1759.91"/><polygon class="cls-6" points="3240.99 1759.91 3220.29 1752.67 3637.99 1132.9 3658.7 1140.13 3240.99 1759.91"/><polygon class="cls-6" points="3310.21 1759.91 3289.51 1752.67 3707.21 1132.9 3727.92 1140.13 3310.21 1759.91"/><polygon class="cls-6" points="3379.43 1759.91 3358.73 1752.67 3776.43 1132.9 3797.14 1140.13 3379.43 1759.91"/><polygon class="cls-6" points="3448.65 1759.91 3427.95 1752.67 3845.65 1132.9 3866.36 1140.13 3448.65 1759.91"/><polygon class="cls-6" points="3517.87 1759.91 3497.16 1752.67 3914.87 1132.9 3935.57 1140.13 3517.87 1759.91"/><polygon class="cls-6" points="3587.09 1759.91 3566.38 1752.67 3984.09 1132.9 4004.79 1140.13 3587.09 1759.91"/><polygon class="cls-6" points="3656.31 1759.91 3635.6 1752.67 4053.31 1132.9 4074.01 1140.13 3656.31 1759.91"/><polygon class="cls-6" points="3725.53 1759.91 3704.82 1752.67 4122.53 1132.9 4143.23 1140.13 3725.53 1759.91"/></g><g class="cls-103"><polygon class="cls-6" points="4111.82 1759.91 4132.86 1752.67 3744.38 1132.9 3723.34 1140.13 4111.82 1759.91"/><polygon class="cls-6" points="4042.6 1759.91 4063.64 1752.67 3675.16 1132.9 3654.12 1140.13 4042.6 1759.91"/><polygon class="cls-6" points="3973.38 1759.91 3994.42 1752.67 3605.94 1132.9 3584.9 1140.13 3973.38 1759.91"/><polygon class="cls-6" points="3904.16 1759.91 3925.2 1752.67 3536.72 1132.9 3515.68 1140.13 3904.16 1759.91"/><polygon class="cls-6" points="3834.94 1759.91 3855.99 1752.67 3467.5 1132.9 3446.46 1140.13 3834.94 1759.91"/><polygon class="cls-6" points="3765.72 1759.91 3786.77 1752.67 3398.28 1132.9 3377.24 1140.13 3765.72 1759.91"/><polygon class="cls-6" points="3696.5 1759.91 3717.55 1752.67 3329.06 1132.9 3308.02 1140.13 3696.5 1759.91"/><polygon class="cls-6" points="3627.28 1759.91 3648.33 1752.67 3259.84 1132.9 3238.8 1140.13 3627.28 1759.91"/><polygon class="cls-6" points="3558.06 1759.91 3579.11 1752.67 3190.62 1132.9 3169.58 1140.13 3558.06 1759.91"/><polygon class="cls-6" points="3488.84 1759.91 3509.89 1752.67 3121.41 1132.9 3100.36 1140.13 3488.84 1759.91"/><polygon class="cls-6" points="3419.63 1759.91 3440.67 1752.67 3052.18 1132.9 3031.14 1140.13 3419.63 1759.91"/><polygon class="cls-6" points="3350.41 1759.91 3371.45 1752.67 2982.97 1132.9 2961.92 1140.13 3350.41 1759.91"/></g></g></g><path class="cls-12" d="M3342.17,1170.82l-16.79,21.39s21.85,54,22.08,52.66,4-45.15,4-45.15l1.21-7.16Z"/><polygon class="cls-104" points="3369.23 1085.65 3401.73 1167.22 3391.88 1231.91 3351.45 1199.72 3328.45 1146.06 3369.23 1085.65"/><polygon class="cls-12" points="3396.44 1140.92 3372.53 1168.06 3404.72 1231.91 3414.61 1163.92 3396.44 1140.92"/><path class="cls-14" d="M3362.58,1470.65l150.26-115.09a38,38,0,0,1,53.6,7.56l150.34,203.21a27.9,27.9,0,0,1-5.82,39L3567.13,1712a27.89,27.89,0,0,1-37.68-4.12l-171-196.76A27.9,27.9,0,0,1,3362.58,1470.65Z"/><g class="cls-105"><polygon class="cls-106" points="3402.44 1426.51 3408.57 1459.31 3479.09 1424.05 3464.38 1378.97 3402.44 1426.51"/></g><path class="cls-15" d="M3362.58,1488.07,3521,1366.76a27.9,27.9,0,0,1,39.4,5.56l156.42,211.43a27.9,27.9,0,0,1-5.82,39L3567.13,1729.4a27.9,27.9,0,0,1-37.68-4.11l-171-196.76A27.91,27.91,0,0,1,3362.58,1488.07Z"/><g class="cls-107"><path class="cls-108" d="M3409.8,1441.83c-.62.92-2.05,13.11-2.05,13.11l12.78,16.33,64.7-48.75-12.72-18.65-13.35,4.42Z"/><path class="cls-109" d="M3605.73,1416.23s-69,144.47-104.88,162.77-86.24,62-86.24,62l12.66,109.85s82.29-23.29,109.68-36.91,90.86-58.63,115.7-105.8,49.67-67.55,49.67-67.55Z"/></g><path class="cls-16" d="M3527.52,1593.69s-59,7.46-68,8.77-12.73,17.33-15.58,22.6-12.5,18.65-9.65,31.81,44.53,51.11,59.23,51.11,64.94-27,81.39-60.55Z"/><g class="cls-110"><path class="cls-87" d="M3494.6,1582.36s49.91,63.47,42.35,77.38-60,48.24-60,48.24l52.5,17.31s62.49-44.75,66.16-56.47,24.84-17.59-.92-34.9-70.83-46.74-70.83-46.74Z"/></g><path class="cls-12" d="M3521.19,1171.2c-19.7,50.27,39.32,89.27,82.1,130s44.15,104.18-11.73,185.59c-34.17,49.77-57,78.91-69.56,94a20.92,20.92,0,0,0,.5,27.35l40.06,44.63a20.89,20.89,0,0,0,29.2,1.88c15.91-13.74,42.25-38.82,72.24-76.84,49-62.09,93.83-105.56,88.31-191.45s-62.09-157-97.28-199.73S3552.92,1090.21,3521.19,1171.2Z"/><g class="cls-111"><path class="cls-99" d="M3543.48,1124.59s87.08,37.26,141.58,133.85,64.72,131.08,37.19,207.67-189,213.87-189,213.87l31,15.18,98-26.34s77.27-173.74,80.72-182,42.78-139.07,42.78-139.07l-186.28-245Z"/></g><path class="cls-16" d="M3214.07,1021.57s12.42,104.4,31.28,133.38,61.17,24.84,86.93,2.76,33.81-63.47,33.81-63.47,26.9-7.59,25.75-41.86-43.23-42.77-51.74-17.71l.92,35.42-25.76-65.54s-20.47,18.4-52,21.62S3214.07,1021.57,3214.07,1021.57Z"/><g class="cls-112"><path class="cls-87" d="M3189.7,1037.89s32.19,10.12,67.38,3.68,52.66-17.47,52.66-17.47l32.2,49.9s1.61-24.38,11.5-35.42,36.33-15.17,36.33-15.17l-77.5-45.08-49.67-5.52-52.67,32.89-9,5.29Z"/><ellipse class="cls-57" cx="3288.8" cy="1063.87" rx="8.14" ry="11.15" transform="translate(-120.33 493.01) rotate(-8.42)"/><ellipse class="cls-57" cx="3234.22" cy="1072.92" rx="8.14" ry="11.15" transform="translate(-122.24 485.12) rotate(-8.42)"/><circle class="cls-61" cx="3325.38" cy="1094.85" r="25.53"/><circle class="cls-61" cx="3223.27" cy="1120.38" r="25.53"/></g><rect class="cls-57" x="3270.53" y="1037.09" width="28.52" height="6.32" rx="3.16" transform="translate(-137.74 642.42) rotate(-10.94)"/><rect class="cls-57" x="3219" y="1048.38" width="25.82" height="6.32" rx="3.16" transform="matrix(0.98, -0.19, 0.19, 0.98, -140.84, 632.59)"/><rect class="cls-59" x="3251.29" y="1075.84" width="14.98" height="38.02" rx="7.49" transform="translate(-125.19 488.95) rotate(-8.42)"/><circle class="cls-6" cx="3294.1" cy="1130.85" r="12.88"/><path class="cls-113" d="M953,2443.34s5-194.32-12.7-334.06,68-171.72,122.74-83.9-110.65,437.48-110.65,437.48Z"/><circle class="cls-6" cx="917.29" cy="1079.85" r="56.97"/><circle class="cls-6" cx="923.96" cy="961.24" r="30.6"/><circle class="cls-6" cx="926.68" cy="879.94" r="18.28"/></g></svg>