<svg xmlns="http://www.w3.org/2000/svg" width="1024" height="680" fill="none" viewBox="0 0 1024 680">
  <g clip-path="url(#a)">
    <rect width="1024" height="680" fill="#fff" rx="200"/>
    <path fill="#fff" d="M1024 0H0v680h1024V0Z"/>
    <path fill="#85D7C8" d="M400.093 558.059c18.21-.318 31.312-18.142 25.525-35.385-.141-.432-.3-.855-.459-1.288-4.939-13.097-13.986-13-27.062-30.489-15.117-20.224-10.567-30.437-23.431-38.851-11.371-7.435-29.475-8.97-39.061-.018-8.941 8.353-7.572 23.099-7.139 27.65 1.467 15.743 10.647 26.142 8.473 27.809-2.279 1.755-10.24-11.351-20.453-10.593-12.263.917-15.197 20.885-23.891 20.4-8.817-.494-16.203-21.635-18.032-37.739-1.467-12.904 1.519-14.756-.972-22.676-4.921-15.646-23.996-32.007-40.527-27.403-14.843 4.137-24.129 24.193-21.956 40.015 3.146 22.896 28.989 27.271 37.921 57.664.027.105.062.202.088.308 5.478 19.421 23.202 32.854 43.417 32.501l107.568-1.887-.009-.018Z"/>
    <path fill="#249B99" d="M412.966 444.426c-7.545 3.713-18.05 1.428-24.756-4.154-13.633-11.36-1.855-28.303-15.559-48.941-9.1-13.706-19.526-14.12-21.257-26.142-1.546-10.76 6.299-13.97 4.426-23.989-2.854-15.303-23.201-18.822-21.796-27.606.945-5.856 10.77-9.208 17.193-9.631 11.283-.75 22.768 6.826 25.684 16.237 3.826 12.348-9.63 19.694-6.008 30.366 3.596 10.61 18.121 6.915 33.865 19.853 14.614 12.013 21.099 30.808 20.401 46.33-.248 5.424-.998 22.164-12.193 27.668v.009Z"/>
    <path fill="#85D7C8" d="M830.527 331.709c-2.748-12.065-18.13-9.957-29.024-26.653-9.48-14.535-1.97-22.508-10.717-31.671-11.989-12.551-28.361.061-47.383-12.718-13.871-9.314-12.095-20.674-25.057-24.643-10.39-3.184-24.394.186-28.582 8.397-5.477 10.725 6.636 27.994 18.007 37.122 17.034 13.679 29.81 7.047 40.209 20.294 7.2 9.173 7.483 20.524 7.801 33.224.468 18.451-8.685 22.852-5.248 33.33 3.693 11.236 17.494 17.613 29.845 19.588 47.269 7.559 52.181-47.37 50.149-56.287v.017Z"/>
    <path fill="#B9F2E1" d="M726.395 568.907c31.506-.67 57.402-24.995 60.062-56.34l.026-.362c1.732-20.241 7.863-25.604 5.796-43.199-.424-3.616-4.365-33.815-24.067-40.897-5.734-2.064-15.25-3.043-18.872 1.614-5.84 7.506 9.94 21.52 5.752 35.543-3.782 12.666-19.747 23.108-28.123 19.589-10.805-4.542-13.12-34.141-8.022-55.988 2.173-9.313 5.478-16.316 2.88-26.273-.733-2.796-3.861-14.826-14.87-19.113-10.831-4.224-24.526.9-28.864 9.393-4.471 8.767 4.444 14.403 3.737 31.487-.141 3.466-.874 20.929-12.687 31.733-9.675 8.837-19.561 6.624-23.926 16.025-2.041 4.384-2.297 10.046-.397 14.782 4.523 11.272 17.802 8.529 23.475 19.024 5.009 9.279 1.59 24.307-6.291 29.908-5.045 3.581-10.187 2.073-13.032 6.756-2.324 3.819-1.175 8.529-.212 12.453 1.599 6.553 5.054 11.175 7.483 13.847 4.754.97 37.462.715 70.17.027l-.018-.009Z"/>
    <path fill="#85D7C8" d="M650.183 207.907c6.6-3.933 6.591-18.336 1.67-28.382-6.256-12.779-16.593-10.636-25.084-24.21-8.437-13.476-4.682-25.868-9.197-26.715-4.639-.873-13.942 11.21-12.546 22.544 1.299 10.583 10.691 10.416 17.564 25.039 6.061 12.903 1.865 19.659 9.198 26.715 4.939 4.753 13.394 7.99 18.395 5.009Z"/>
    <path fill="#B9F2E1" d="M272.283 336.763c-2.429 2.814-18.342-2.125-23.846-13.529-4.515-9.34 1.988-14.659-2.465-25.225-4.391-10.425-12.466-9.419-16.018-18.627-5.398-14.014 7.148-32.298 10.311-31.504 2.509.635-2.704 12.815 4.453 23.487 5.354 7.982 11.494 5.989 15.611 13.371 4.674 8.37-1.696 13.705.477 26.97 2.563 15.594 13.713 22.482 11.469 25.066l.008-.009Z"/>
    <path fill="#FFB750" d="M201.611 292.585c-3.499-1.852-6.397-4.621-8.085-8.237-1.714-3.678-2.297-8.211-1.457-12.189.132-.635.291-1.288.547-1.879.115-.273.265-.573.442-.82.071-.097.239-.353.194-.238.053-.141.133.035-.079-.053.159.062.239.071.433.194.583.362 1.051.944 1.484 1.473 1.917 2.372 3.552 5.38 4.497 8.273 1.538 4.674 1.432 9.666-.07 14.332-.566 1.746 2.182 2.496 2.747.758 2.836-8.811.645-18.389-5.239-25.462-1.016-1.226-2.536-2.69-4.285-2.329-1.458.3-2.288 1.694-2.801 2.964-1.687 4.198-1.299 9.463.053 13.688 1.67 5.23 5.354 9.42 10.178 11.986 1.617.856 3.057-1.596 1.441-2.452v-.009Z"/>
    <path fill="#249B99" d="M761.966 224.003c1.749-2.99 2.747-6.579 2.394-10.054-.486-4.631-3.366-8.767-7.157-11.369-2.314-1.588-6.44-3.792-9.126-1.746-1.617 1.234-1.838 3.651-1.644 5.512.248 2.302 1.14 4.569 2.836 6.191 1.75 1.676 4.02 2.699 5.743 4.446 1.926 1.949 3.305 4.374 4.33 6.888.689 1.693 3.375.749 2.685-.953-1.44-3.545-3.516-6.844-6.485-9.313-1.528-1.27-3.604-2.126-4.85-3.705-1.122-1.42-1.643-3.528-1.431-5.318.15-1.252.477-1.755 1.616-1.676 1.414.089 2.837.812 4.02 1.544 3.137 1.931 5.814 5.142 6.494 8.819.619 3.299-.327 6.668-1.996 9.517-.928 1.579 1.652 2.796 2.571 1.217Z"/>
    <path fill="#85D7C8" d="M285.298 132.79c.371-4.895-.522-9.702-2.448-14.2-1.581-3.669-3.896-8.105-7.51-10.178-3.755-2.161-7.024.935-8.128 4.498-.583 1.879-.636 4.11.345 5.874.927 1.658 2.633 2.523 4.276 3.343 2.624 1.323 5.001 2.866 6.962 5.08 1.643 1.852 2.88 4.031 3.852 6.297.716 1.676 3.172.23 2.456-1.437-1.537-3.581-3.808-6.88-6.873-9.323-1.715-1.367-3.588-2.372-5.531-3.36-1.29-.661-2.642-1.323-2.969-2.866-.406-1.897.998-7.012 3.764-5.874 1.431.591 2.589 2.037 3.481 3.245 1.202 1.641 2.2 3.44 3.039 5.283a27.535 27.535 0 0 1 2.439 13.609c-.142 1.826 2.712 1.817 2.845 0v.009Z"/>
    <path fill="#F79CAE" d="M219.988 402.426c-3.684-2.505-6.865-5.715-9.224-9.49-2.218-3.546-4.188-7.7-4.762-11.88-.089-.662-.159-1.385-.062-2.055.062-.432.177-.909.415-1.041 1.096-.617 3.322.794 4.232 1.376 3.013 1.958 4.188 4.445 4.921 7.832 1.167 5.415 1.847 10.963 2.342 16.475.168 1.808 3.013 1.826 2.845 0-.522-5.706-1.228-11.457-2.412-17.066-.38-1.808-.84-3.669-1.794-5.274-1.069-1.808-2.721-3.29-4.47-4.428-1.723-1.111-4.1-2.258-6.203-1.72-1.723.441-2.518 1.985-2.703 3.634-.212 1.976.256 4.048.812 5.945.725 2.469 1.75 4.859 2.951 7.135 2.766 5.256 6.759 9.666 11.672 13 1.519 1.032 2.942-1.429 1.44-2.452v.009Z"/>
    <path fill="#FFB750" d="M837.136 388.861c-1.485-.934-4.983-3.413-6.521-7.902-1.811-5.292-.503-12.215 2.324-13.009 2.032-.573 4.948 2.002 6.052 4.648.512 1.226.654 2.514 0 6.967a94.29 94.29 0 0 1-1.864 9.296h.009Z"/>
    <path fill="#FEE05C" d="M276.082 209.142c-2.412-1.614-5.787-4.251-8.852-8.282-4.648-6.112-8.774-15.672-6.097-18.107 1.679-1.526 5.779-.035 8.138 1.755 1.431 1.085 3.092 2.937 4.797 9.323.937 3.492 1.979 8.714 2.014 15.311Z"/>
    <path fill="#F79CAE" d="M356.006 140.075a28.688 28.688 0 0 1-6.803-4.904c-1.467-1.42-9.26-9.014-6.874-14.341 1.148-2.558 4.559-4.401 6.909-3.616 1.52.503 2.527 2.09 4.099 8.229a106.7 106.7 0 0 1 2.669 14.632Z"/>
    <path fill="#FFB750" d="M640.464 521.572c-2.668-1.165-7.121-3.581-10.47-8.361-3.375-4.807-5.999-12.533-3.49-14.632 1.988-1.667 7.28.132 9.772 3.483 1.414 1.897 1.396 3.581 2.094 8.362a140.89 140.89 0 0 0 2.094 11.148Z"/>
    <path fill="#F35A77" d="M281.03 233.881c.574 6.756 2.227 13.3 4.877 19.536.301.714 1.343.855 1.944.511.733-.414.813-1.243.512-1.94a59.62 59.62 0 0 1-4.488-18.107c-.159-1.808-3.004-1.825-2.845 0Zm-9.197 19.192c1.634 6.73 5.478 12.877 10.858 17.252.592.485 1.431.582 2.015 0 .503-.503.6-1.526 0-2.011-5.028-4.102-8.597-9.702-10.126-15.999-.432-1.773-3.18-1.023-2.747.758Z"/>
    <path fill="#F06291" d="M616.521 96.664c6.193 2.576 10.858 8.273 12.369 14.764.415 1.782 3.163 1.024 2.748-.758-1.759-7.532-7.245-13.794-14.358-16.749-.706-.29-1.563.318-1.749.997-.221.82.283 1.455.998 1.746h-.008Zm-48.179 30.675c1.122 5.936 4.427 11.448 9.153 15.232.601.476 1.432.582 2.015 0 .495-.494.601-1.526 0-2.011a23.505 23.505 0 0 1-8.42-13.97c-.141-.759-1.051-1.182-1.749-.997-.796.221-1.14.988-.999 1.746Z"/>
    <path fill="#F35A77" d="M447.247 139.59a80.517 80.517 0 0 1 9.321 11.095c.442.626 1.246.917 1.944.511.627-.361.954-1.314.512-1.94a83.841 83.841 0 0 0-9.763-11.668c-1.299-1.297-3.313.714-2.014 2.011v-.009Z"/>
    <path fill="#FFB750" d="M261.655 469.588c1.007 2.055 2.023 4.101 3.03 6.156.327.671 1.334.909 1.944.512.689-.441.866-1.226.512-1.94-1.007-2.055-2.023-4.102-3.03-6.157-.327-.67-1.334-.908-1.944-.511-.689.441-.866 1.226-.512 1.94Zm-4.745 8.291c.742 1.596 1.961 2.937 3.402 3.933.291.203.768.238 1.095.141.327-.088.689-.344.848-.652.177-.327.265-.732.142-1.094-.115-.37-.336-.626-.654-.847-.133-.097-.274-.194-.407-.291.098.071.195.15.292.221a8.61 8.61 0 0 1-1.52-1.526l.221.291a8.743 8.743 0 0 1-.972-1.605c-.141-.309-.539-.565-.848-.653-.344-.097-.795-.053-1.095.141-.301.194-.575.485-.654.847l-.053.379c0 .256.062.494.194.715h.009Z"/>
    <path fill="#F35A77" d="M296.492 183.83c-.707 2.557-1.414 5.106-2.121 7.655-.194.714.248 1.579.999 1.746.751.168 1.537-.229 1.749-.996.707-2.558 1.414-5.107 2.121-7.656.194-.714-.248-1.579-.999-1.746-.751-.168-1.537.229-1.749.997Z"/>
    <path fill="#F06291" d="M405.342 176.835c.468 2.091 1.572 4.04 3.083 5.548.53.529 1.493.565 2.014 0 .522-.564.566-1.446 0-2.011-.159-.167-.318-.326-.477-.503-.07-.079-.141-.167-.212-.247a1.733 1.733 0 0 1-.123-.158c.026.044.185.247.07.097a10.17 10.17 0 0 1-.751-1.164c-.106-.194-.203-.389-.3-.583-.027-.061-.053-.123-.088-.185-.018-.044-.098-.229-.009-.017.088.211.009.026 0-.018a1.189 1.189 0 0 0-.062-.15c-.168-.441-.301-.9-.407-1.367-.167-.723-1.042-1.217-1.749-.997-.76.247-1.166.971-.998 1.747l.009.008Z"/>
    <path fill="#DD4563" d="M259.534 377.325c6.635 1.491 9.754 8.432 10.24 14.614.309 3.925-.097 7.868-.45 11.775l-1.14 12.506c-.168 1.817 2.686 1.808 2.845 0l1.219-13.432c.389-4.322.742-8.661.133-12.983-.955-6.703-5.037-13.653-12.087-15.232-1.785-.396-2.545 2.338-.76 2.743v.009Zm575.242 57.743a65.793 65.793 0 0 0 11.142 16.105c1.254 1.34 3.269-.68 2.014-2.011a62.982 62.982 0 0 1-10.699-15.532c-.804-1.64-3.261-.203-2.457 1.438ZM400.65 489.874c.433 11.403 5.575 22.41 14.119 30.013 1.36 1.208 3.384-.794 2.014-2.011-7.996-7.1-12.882-17.313-13.288-28.002-.071-1.826-2.916-1.835-2.845 0Z"/>
    <path fill="#FEEA3B" d="M406.578 566.138c-4.408 5.318-10.478 10.804-17.829 10.777-7.183-.017-12.908-5.539-16.902-10.963-4.311-5.856-7.633-12.559-13.147-17.445-2.942-2.611-6.379-4.401-10.01-5.856-3.702-1.482-7.519-2.708-11.415-3.564-8.747-1.931-18.086-2.063-26.479 1.376-1.67.688-.937 3.44.76 2.743 7.607-3.113 15.956-3.219 23.934-1.596 3.985.811 7.89 2.011 11.68 3.475 3.685 1.429 7.183 3.228 10.09 5.944 5.46 5.107 8.694 12.004 13.262 17.825 4.276 5.451 10.09 10.416 17.317 10.875 8.464.538 15.7-5.46 20.771-11.581 1.158-1.402-.848-3.422-2.014-2.01h-.018Z"/>
    <path fill="#F79CAE" d="M815.604 297.419c14.711 7.902 26.135 22.243 29.881 38.586 1.078 4.719 1.352 9.949-1.44 14.147-1.016 1.526 1.449 2.954 2.456 1.437 5.195-7.805 1.758-18.486-1.626-26.318-3.534-8.167-8.879-15.575-15.47-21.555a62.1 62.1 0 0 0-12.361-8.74c-1.617-.865-3.057 1.587-1.44 2.452v-.009Z"/>
    <path fill="#F35A77" d="M695.578 222.265c-4.983 35.65-11.38 71.158-18.943 106.349-9.727 45.28-18.73 106.709-50.148 142.015-18.395 20.664-39.485 37.342-64.241 50.634-15.338 8.237-31.506 15.161-41.879 29.828-.044 0-.044.044-.044.044-10.32-13.547-26.488-18.442-41.57-24.731-24.571-10.257-45.563-24.527-63.816-43.243-31.604-32.394-39.732-94.565-48.674-137.764-7.244-34.97-13.226-70.275-17.803-105.695 61.661-33.365 122.933-72.154 174.125-120.504l.044.044c50.714 43.658 112.021 76.361 172.958 103.015l-.009.008Z"/>
    <path fill="#FFB750" d="M375.373 254.607c3.852 29.89 8.897 59.683 14.984 89.203 7.501 36.399 14.313 89.141 41.075 116.323 15.559 15.805 33.061 27.756 53.912 36.549 12.679 5.345 26.612 9.393 35.2 20.947 8.605-12.445 22.53-18.221 35.402-25.136 20.975-11.263 38.928-25.383 54.363-42.802 26.453-29.846 34.051-81.547 42.286-120.045 6.361-29.758 11.724-59.78 15.903-89.926-51.456-22.623-103.195-50.105-146.046-86.989-43.292 40.862-94.978 73.609-147.079 101.885v-.009Z"/>
    <path fill="#249B99" d="m564.34 290.477-.3 45.527-12.988.706c.097-15.179.185-30.366.283-45.545.123-15.567-13.085-31.134-29.475-29.881-16.133 1.235-30.296 16.572-29.81 32.994-.062 15.214-.132 30.428-.194 45.642l-12.988.706c.062-15.223.124-30.437.177-45.66.459-23.046 18.536-46.55 42.877-47.256 23.334-.679 43.257 19.28 42.409 42.785l.009-.018Z"/>
    <path fill="#249B99" d="m580.12 415.593-118.171 6.747c.123-35.614.247-71.228.362-106.842 39.52-2.099 79.031-4.207 118.551-6.306-.248 35.464-.495 70.937-.751 106.401h.009Z"/>
    <path fill="#B9F2E1" d="M526.304 369.281c1.935 9.226 2.898 13.838 4.824 23.055-8.402.468-12.608.706-21.01 1.182 2.023-9.446 3.039-14.173 5.072-23.619-2.951-1.694-4.93-4.825-4.913-8.547.027-5.821 4.762-10.698 10.567-11.015 5.805-.318 10.496 4.048 10.461 9.86-.018 3.722-2.032 7.065-5.001 9.093v-.009Z"/>
    <path fill="#DD4563" d="M746.009 482.359c3.455-.45 19.402 3.775 28.997 21.308a54.614 54.614 0 0 0 13.377-13.512 54.538 54.538 0 0 0 7.837-16.933 108.454 108.454 0 0 0-36.083-13.592c-5.831 13.106-8.296 9.631-14.128 22.729Z"/>
    <path fill="#DD4563" d="M773.814 495.544c.3 1.226.68 2.929 1.033 4.983.539 3.114 1.635 10.514.919 19.898-.689 8.996-2.73 15.928-4.073 20.364-1.705 5.654-2.977 8.176-2.43 12.198.681 5.045 3.729 8.82 6.176 11.219a159.281 159.281 0 0 0 20.339-17.719c17.608-18.195 27.645-37.307 33.424-51.384a76.542 76.542 0 0 0-10.152-8.167c-5.425-3.642-27.601-18.001-35.747-20.311-1.361 2.372-10.956 18.75-14.897 19.121 1.803 3.263 3.605 6.535 5.416 9.798h-.008Z"/>
    <path fill="#131E3F" d="M776.084 564.276c9.047-6.306 17.397-13.555 24.845-21.696 8.676-9.481 16.142-20.047 22.052-31.451 2.527-4.877 4.763-9.896 6.786-15.002.565-1.429-1.555-2.585-2.121-1.147-3.843 9.719-8.534 19.077-14.286 27.817-7.077 10.743-15.656 20.55-25.304 29.07-4.206 3.713-8.641 7.162-13.244 10.372-1.263.882 0 2.928 1.281 2.037h-.009Z"/>
    <path fill="#FEE05C" d="M777.798 533.769c2.059-1.702 5.001-2.355 7.59-1.817.636.132 1.299-.247 1.458-.891.15-.617-.248-1.314-.893-1.455-3.534-.732-7.147.229-9.913 2.514-.503.414-.38 1.296.053 1.702.521.494 1.202.361 1.705-.053Zm1.308-9.499c2.227-2.408 5.292-4.092 8.5-4.586.645-.097 1.183-.538 1.166-1.244-.018-.591-.601-1.261-1.246-1.164-3.896.6-7.492 2.443-10.178 5.345-1.051 1.138.707 2.787 1.758 1.64v.009Zm41.835-30.172c-7.236 17.71-17.317 33.956-30.579 47.803-3.799 3.968-7.801 7.726-11.954 11.315-1.175 1.015.601 2.646 1.758 1.641 14.517-12.56 26.806-27.35 35.792-44.337 2.624-4.965 4.974-10.081 7.103-15.285.583-1.42-1.537-2.575-2.12-1.146v.009Z"/>
    <path fill="#E3F2FD" d="M807.82 485.19c2.607 3.007 2.616 7.258.027 9.499-2.598 2.24-6.812 1.622-9.419-1.394-2.606-3.007-2.615-7.259-.026-9.499 2.598-2.24 6.812-1.614 9.418 1.394Z"/>
    <path fill="#DD4563" d="M712.524 372.35c.813-3.378 8.119-9.534 30.322-19.385a54.647 54.647 0 0 0-7.837-17.305 54.862 54.862 0 0 0-13.023-13.379 109.055 109.055 0 0 0-12.59 11.562 108.549 108.549 0 0 0-13.05 17.19c10.161 10.134 6.035 11.183 16.195 21.308l-.017.009Z"/>
    <path fill="#DD4563" d="M734.824 351.165c1.254.168 2.986.424 5.027.821 3.101.608 10.417 2.249 18.934 6.279 8.163 3.863 13.915 8.255 17.591 11.095 4.682 3.616 6.582 5.707 10.54 6.642 4.957 1.173 9.586-.309 12.705-1.738a159.155 159.155 0 0 0-9.277-25.304c-10.699-22.931-24.977-39.142-36.074-49.566a75.882 75.882 0 0 0-11.274 6.535c-5.354 3.748-26.726 19.271-31.815 26.036 1.731 2.117 13.615 16.934 12.537 20.735l11.106-1.535Z"/>
    <path fill="#131E3F" d="M799.904 373.691c-2.651-10.69-6.441-21.079-11.38-30.922-5.752-11.483-12.961-22.226-21.505-31.821-3.658-4.102-7.545-7.991-11.6-11.704-1.131-1.032-2.969.52-1.829 1.57 7.713 7.064 14.781 14.79 20.895 23.284 7.51 10.451 13.606 21.952 18.121 34a148.02 148.02 0 0 1 4.948 16.06c.371 1.5 2.739 1.041 2.367-.467h-.017Z"/>
    <path fill="#FEE05C" d="M771.993 361.158c-.848-2.531-.406-5.503 1.025-7.726.354-.547.239-1.296-.309-1.676-.521-.361-1.325-.238-1.679.309-1.952 3.034-2.35 6.747-1.201 10.143.203.617 1.078.811 1.608.555.645-.317.768-.988.556-1.605Zm-8.411-4.63c-1.458-2.937-1.926-6.403-1.245-9.561.141-.635-.08-1.296-.743-1.535-.556-.194-1.396.106-1.537.741-.831 3.855-.398 7.859 1.352 11.404.689 1.394 2.854.344 2.164-1.049h.009Zm-13.217-49.796c13.968 13.088 25.551 28.311 33.75 45.633 2.35 4.957 4.427 10.037 6.3 15.196.53 1.456 2.695.397 2.164-1.049-6.538-18.028-15.965-34.785-28.634-49.249-3.702-4.234-7.643-8.247-11.751-12.092-1.122-1.05-2.96.502-1.829 1.57v-.009Z"/>
    <path fill="#E3F2FD" d="M737.324 315.763c3.746-1.349 7.731.168 8.897 3.387 1.166 3.219-.928 6.924-4.674 8.282-3.746 1.349-7.731-.168-8.897-3.387-1.166-3.219.928-6.923 4.674-8.282Z"/>
    <path fill="#009688" d="M650.112 265.015a6727.673 6727.673 0 0 1-3.667 12.691c-14.587 20.365-23.943 38.869-29.889 52.522-6.194 14.226-12.157 31.16-14.039 52.115-1.944 21.715 2.332 27.306 4.108 29.255 3.605 3.952 12.201 9.587 39.228 4.093 19.314-3.925 54.293-14.8 95.2-50.546-4.109-1.773-14.631-6.959-22.362-18.857-7.519-11.562-8.129-22.913-8.137-27.402a213422.907 213422.907 0 0 1-56.148 34.705l14.869-57.372-4.771-35.579a8759.039 8759.039 0 0 0-14.392 4.375Z"/>
    <path fill="#FEE05C" d="M652.471 298.997a6988.298 6988.298 0 0 0-7.218 18.98c-4.109 10.848-8.217 21.688-12.228 32.571-1.255 3.414-2.536 6.818-3.685 10.266-.627 1.879-1.086 3.828-1.281 5.804-.229 2.293-.009 4.613 1.175 6.632 1.193 2.02 3.261 3.422 5.372 4.357a23.3 23.3 0 0 0 8.014 1.923c1.519.088 3.101.132 4.603-.203 1.785-.397 3.507-1.085 5.195-1.79 5.566-2.302 10.964-5.036 16.345-7.735 12.104-6.077 24.023-12.657 36.428-18.107a78.54 78.54 0 0 1 3.074-1.288c1.44-.564.575-2.813-.874-2.24-5.116 2.011-10.046 4.498-14.95 6.941-6.387 3.184-12.731 6.456-19.101 9.693-5.814 2.955-11.627 5.909-17.556 8.626-2.129.979-4.276 1.931-6.476 2.743-2.05.749-3.163 1.031-5.496 1.005-2.747-.035-5.539-.609-8.057-1.702-2.032-.882-4.038-2.214-4.886-4.357-.831-2.117-.459-4.498-.009-6.659.124-.582.265-1.155.398-1.737.088-.397-.089.246.061-.203.964-2.981 2.068-5.927 3.146-8.873 3.87-10.548 7.845-21.061 11.83-31.566 2.748-7.25 5.566-14.473 8.27-21.74.044-.115.088-.23.132-.335.548-1.447-1.643-2.444-2.199-.997l-.027-.009Z"/>
    <path fill="#FEE05C" d="M702.752 332.547c.433 6.668 1.644 13.583 5.522 19.183 3.923 5.671 10.099 9.155 15.992 12.436 1.361.759 2.341-1.446.998-2.196-5.531-3.078-11.353-6.341-15.037-11.66-3.64-5.256-4.674-11.792-5.072-18.036-.097-1.543-2.491-1.27-2.394.273h-.009Z"/>
    <path fill="#009688" d="M686.053 255.745c2.863 4.613 7.449 14.112 10.806 23.672 8.27 23.567 4.886 40.2 6.123 58.598 1.899 28.109 13.809 48.782 21.054 61.359 20.984 36.408 54.46 55.353 75.391 64.516-1.546 6.827-4.63 16.467-11.23 26.433-12.396 18.733-29.527 27.077-37.169 30.234-30.712-28.197-49.407-56.411-60.31-75.823-9.851-17.542-22.22-39.997-28.44-72.472-6.238-32.544-3.402-59.983-.283-77.172-.874-10.231-7.227-21.732-8.102-31.954 9.065-2.17 23.104-5.212 32.169-7.382l-.009-.009Z"/>
    <path fill="#1B2C56" d="M787.261 489.556c-7.625 11.465-18.219 20.761-30.482 27.014a83.288 83.288 0 0 1-6.193 2.849l1.201.185c-11.989-11.015-23.13-22.94-33.255-35.684a301.783 301.783 0 0 1-21.832-31.337c-5.027-8.29-9.622-16.836-13.863-25.559-5.654-11.616-10.743-23.549-14.834-35.808-4.126-12.365-7.448-25.33-7.74-38.436a64.48 64.48 0 0 1 .045-4.331c.062-1.526-2.315-1.923-2.386-.37-.565 13.079 2.315 26.141 6.096 38.586 3.888 12.797 8.986 25.224 14.693 37.316 4.25 9.005 8.853 17.842 13.898 26.433a301.164 301.164 0 0 0 20.789 30.842c9.746 12.701 20.498 24.643 32.072 35.711a290.964 290.964 0 0 0 4.798 4.49c.309.282.821.344 1.201.185 10.815-4.481 20.719-11.122 28.83-19.562a79.337 79.337 0 0 0 8.835-11.034c.848-1.279-1.007-2.813-1.864-1.526l-.009.036Zm-91.524-209.698c3.145 9.023 4.93 18.363 5.478 27.897.468 8.079.123 16.175.3 24.254.389 17.101 4.444 33.727 11.574 49.258 2.969 6.456 6.423 12.665 9.966 18.821.778 1.341 2.713-.088 1.953-1.42-6.997-12.144-13.253-24.615-16.999-38.18-2.403-8.714-3.728-17.684-4.046-26.715-.283-7.999.088-16.008-.248-24.007-.433-10.513-2.271-20.832-5.743-30.781-.512-1.464-2.756-.591-2.244.873h.009Z"/>
    <path fill="#FEE05C" d="M684.985 302.013c-.893 6.994-.99 14.094-.849 21.132.177 8.159.751 16.299 1.582 24.413 1.52 14.853 3.658 29.838 7.572 44.267 1.192 4.409 2.703 8.643 4.753 12.726 2.606 5.195 5.61 10.196 8.756 15.082 8.146 12.701 17.361 24.81 27.583 35.914 5.133 5.583 10.549 10.928 16.434 15.734 5.018 4.102 10.443 7.903 16.38 10.558a41.544 41.544 0 0 0 3.923 1.525c1.458.485 2.465-1.711.998-2.196-5.831-1.922-11.132-5.186-16.027-8.828-5.831-4.331-11.185-9.287-16.239-14.491-10.584-10.884-20.003-22.967-28.431-35.57-3.384-5.054-6.636-10.222-9.534-15.576-2.111-3.889-3.958-7.858-5.274-12.091-1.838-5.883-3.128-11.933-4.268-17.975-1.475-7.77-2.633-15.593-3.56-23.443-.963-8.114-1.67-16.263-2.041-24.422-.327-7.276-.415-14.596.168-21.864.123-1.517.274-3.034.468-4.542.194-1.534-2.182-1.914-2.386-.37l-.008.017Z"/>
    <path fill="#FEE05C" d="M781.341 462.523c-5.433 13.935-13.915 26.583-24.729 36.928-3.04 2.911-6.282 5.61-9.666 8.123-1.246.926.168 2.867 1.422 1.95 12.273-9.094 22.459-20.859 29.74-34.274a102.738 102.738 0 0 0 5.433-11.721c.566-1.438-1.634-2.434-2.2-.997v-.009Z"/>
    <path fill="#FF9D76" d="M649.856 220.96c-6.839 24.951-26.559 55.079-35.915 59.225-8.173 3.625-46.023-10.355-60.309-19.439-4.074-2.593 12.731-25.948 17.635-24.325 15.982 5.319 33.388 13.186 34.731 12.727 2.721-.917 19.693-21.705 32.054-35.676 13.845-15.655 14.525-2.46 11.804 7.488Zm-123.26 18.689c-3.216-1.349-27.999-2.134-27.99-7.496.009-5.363 31.542-3.863 31.542-3.863l-3.552 11.359Z"/>
    <path fill="#FF9D76" d="M574.12 240.276c-4.329-5.372-8.137-11.166-11.901-12.225-2.606-.732-30.658.477-35.049.212-4.382-.264-20.02.141-20.383 3.978-.512 5.424 17.998 5.371 19.977 8.149 6.821 9.57 32.752 23.716 32.752 23.716l14.613-23.822-.009-.008Z"/>
    <path fill="#FFF689" d="m575.189 236.959-22.194 32.448s34.422 17.198 47.551 16.89c12.529-.3 17.07-2.144 21.019-5.865 2.448-2.302 16.381-21.944 27.743-54.568 9.533-27.376-4.568-23.346-17.149-8.185-6.273 7.559-26.32 30.076-27.319 29.987-.998-.088-29.642-10.707-29.642-10.707h-.009Z"/>
    <path fill="#85D7C8" d="M596.571 223.641h-84.165v4.516h84.165v-4.516Z"/>
    <path fill="#85D7C8" d="M556.344 228.157h-56.289l-29.289-49.664h56.28l29.298 49.664Z"/>
    <path fill="#B9F2E1" d="M515.658 203.294c1.051 2.302.274 4.719-1.723 5.398-2.006.688-4.48-.626-5.531-2.92-1.051-2.302-.274-4.718 1.723-5.397 2.005-.688 4.479.626 5.531 2.919Z"/>
    <path fill="#FFF689" d="M718.046 293.185c-.203.185-88.122-.494-88.918-1.244-1.104-1.049 7.51-77.199 16.628-86.715 1.953-2.038 20.357-3.996 25.764-3.387 1.502.159 2.915.414 4.161.741.027.009.08.017.141.035 1.255.344 2.315.767 3.049 1.252 14.958 9.975 27.274 44.434 30.136 54.771 4.736 17.031 9.772 33.885 9.039 34.555v-.008Z"/>
    <path fill="#FFF689" d="M692.477 214.61c22.883 23.152 51.668 71.854 46.296 81.723-5.972 10.999-37.841-21.458-37.717-23.354.088-1.429-11.115-31.01-19.614-52.53-8.491-21.494 5.38-11.572 11.035-5.839Z"/>
    <path fill="#FF9D76" d="M738.782 296.334c-5.151 7.355-19.172 8.758-54.133 15.593-4.842.944-20.71-31.345-15.603-32.624 6.441-1.605 31.798-6.447 33.688-6.571 16.019-1.014 39.538 18.61 36.039 23.593l.009.009Z"/>
    <path fill="#FF9D76" d="M676.034 277.715s-14.816 2.232-22.229 5.813c-9.931 4.789-16.531 13.009-19.093 16.625-5.336 7.541-13.023 29.449-7.086 32.765 5.372 2.999 12.096-19.8 12.096-19.8s-10.7 22.111-3.561 24.536c7.139 2.426 13.43-24.483 13.43-24.483s-10.479 22.966-2.73 24.298c5.857 1.005 12.934-23.037 12.934-23.037s-8.87 19.8-2.889 21.097c6.609 1.428 14.534-20.356 14.534-20.356 15.762.741 23.564-5.336 28.6-10.328 1.219-1.209-24.014-27.13-24.014-27.13h.008Z"/>
    <path fill="#FFF689" d="m672.951 277.715 30.64 34.053s30.977-7.1 35.544-15.029c3.004-5.221-20.32-26.371-37.929-23.901l-28.255 4.877Z"/>
    <path fill="#FF9D76" d="M638.264 171.287c-4.55 10.981-2.094 22.42 5.486 25.551 7.581 3.131 17.415-3.228 21.974-14.208 4.55-10.981 2.094-22.42-5.487-25.551-7.581-3.131-17.414 3.228-21.973 14.208Z"/>
    <path fill="#FF9D76" d="M648.283 195.427c.733.608 1.74 1.579 2.598 3.007.326.547.671 1.217 1.298 3.017.442 1.27.999 3.016 1.52 5.15a22.894 22.894 0 0 0 3.87-.202c5.301-.732 9.233-3.176 11.53-4.931a52.647 52.647 0 0 1-2.244-6.606 52.49 52.49 0 0 1-1.591-9.296 25.601 25.601 0 0 0-3.278.724c-6.626 1.931-11.114 6.129-13.703 9.137Z"/>
    <path fill="#FF9D76" d="M662.296 178.916c-1.22 3.387-.08 6.897 2.553 7.841s5.761-1.032 6.98-4.418c1.219-3.387.079-6.897-2.554-7.841-2.632-.944-5.76 1.032-6.979 4.418Z"/>
    <path fill="#1B2C56" d="M640.57 163.976c.919 2.434 2.712 3.881 4.4 5.204 6.423 5.036 14.004 4.992 17.158 4.771.76 1.799 1.52 3.59 2.279 5.389.999-2.452 3.225-3.598 4.657-3.087 1.661.582 1.987 3.263 1.652 4.948-.469 2.408-2.474 3.651-2.872 3.89 2.845.343 6.618.229 9.692-1.95 6.971-4.939 6.3-17.524 2.253-25.33-5.407-10.425-19.658-17.745-29.624-12.806-6.759 3.343-12.016 12.55-9.595 18.971Z"/>
    <path fill="#1B2C56" d="M643.123 155.289c-2.597 4.621-3.145 10.786.301 15.161 2.942 3.731 8.102 4.877 12.608 3.978 3.012-.609 5.698-2.179 7.881-4.304 1.113-1.085 2.597.811 1.502 1.887-4.241 4.145-10.488 6.112-16.301 4.648-5.681-1.429-9.746-5.962-10.417-11.801-.415-3.616.424-7.303 2.2-10.469.751-1.332 2.995-.441 2.235.909l-.009-.009Zm-.972 20.937c-.583-.088-1.166-.185-1.749-.273-.088-.018-.168-.026-.256-.044a1.236 1.236 0 0 1-.795-.45c-.186-.238-.301-.6-.248-.899.053-.3.195-.609.451-.794.256-.185.574-.3.901-.247.583.088 1.166.185 1.749.273.089.018.168.027.257.044.309.044.6.203.795.45.185.238.3.6.247.9-.053.3-.194.608-.45.793-.257.186-.575.3-.902.247Z"/>
    <path fill="#B9F2E1" d="M641.886 176.782c-.671 4.26 1.025 8.061 3.791 8.493 2.765.433 5.548-2.663 6.22-6.923.671-4.26-1.025-8.061-3.791-8.493-2.765-.433-5.548 2.663-6.22 6.923Zm-9.48-2.187c-.609 3.88.619 7.303 2.757 7.638 2.129.335 4.356-2.54 4.965-6.421.61-3.881-.618-7.303-2.756-7.638-2.13-.335-4.356 2.54-4.966 6.421Z"/>
    <path fill="#1B2C56" d="M667.12 152.643c.83 5.829 6.246 9.887 12.095 9.057a10.673 10.673 0 0 0 9.074-12.074c-.831-5.83-6.247-9.887-12.096-9.058-5.84.829-9.904 6.236-9.073 12.075Z"/>
    <path fill="#1B2C56" d="M685.674 144.484c4.877 3.184 7.836 9.34 5.893 15.047-.884 2.584-2.722 4.833-5.098 6.182-2.35 1.341-5.734 1.861-7.925-.062-1.158-1.014.282-2.945 1.449-1.922 1.643 1.437 4.214.67 5.831-.432 1.793-1.218 3.11-3.114 3.666-5.204 1.229-4.586-1.493-9.225-5.265-11.695-1.299-.847.15-2.769 1.449-1.923v.009Zm-41.438 32.942c.071 1.041.69 1.852 1.388 1.808.698-.044 1.21-.926 1.139-1.967-.07-1.04-.689-1.852-1.387-1.808-.698.044-1.21.926-1.14 1.967Zm-9.338-1.464c.07 1.041.689 1.852 1.387 1.808.698-.044 1.21-.926 1.14-1.967-.071-1.04-.69-1.852-1.388-1.808-.698.044-1.21.926-1.139 1.967Zm14.622-1.455a5.451 5.451 0 0 0-.61-.82c-.044-.045-.088-.089-.123-.133-.159-.176.221.194.035.036a7.753 7.753 0 0 0-.318-.274 2.823 2.823 0 0 0-.371-.264c-.053-.036-.159-.08-.203-.124.141.079.168.097.088.053-.035-.018-.071-.044-.115-.062a5.511 5.511 0 0 0-.477-.211c-.097-.036-.185-.071-.283-.097-.07-.018-.327-.15-.088-.027-.15-.071-.398-.079-.557-.097-.168-.018-.344-.026-.512-.035.265-.018-.247-.009 0 0-.071 0-.15 0-.221.017-.124.009-.239.027-.362.045-.195.026-.389.07-.574.123-.61.168-1.308-.432-1.361-1.023-.071-.715.371-1.182 1.025-1.358 2.58-.697 5.539.485 6.918 2.778.176.291.3.547.247.899a1.231 1.231 0 0 1-.45.794c-.469.344-1.343.379-1.697-.194l.009-.026Zm-11.839-3.211a4.624 4.624 0 0 0-.813-.335c-.186-.062.238.053.097.026-.053-.008-.106-.026-.159-.035a2.717 2.717 0 0 0-.38-.053c-.062 0-.124-.009-.185-.017h-.08c-.106 0-.106 0 0 0 .177-.053-.018 0-.079 0-.08 0-.168.008-.248.026a4.275 4.275 0 0 0-.433.079c-.274.053.177-.061.027-.008-.062.026-.133.044-.195.061-.132.044-.256.106-.388.168l-.159.079c-.027.018-.23.133-.045.018.177-.106.009 0-.026.026-.053.036-.097.071-.15.106a3.179 3.179 0 0 0-.212.168 3.243 3.243 0 0 0-.31.291c-.203.203-.627.282-.901.247a1.238 1.238 0 0 1-.795-.45c-.185-.256-.309-.582-.247-.9.053-.326.212-.555.45-.793 1.546-1.579 4.171-1.967 6.114-.918.283.15.513.327.654.635.124.274.141.662.009.935-.247.538-.981.979-1.573.662l.027-.018Z"/>
    <path fill="#DD4563" d="M639.598 306.547c-4.497 5.944-7.201 13.044-7.943 20.444-.168 1.693 2.483 1.684 2.651 0 .698-6.941 3.375-13.556 7.58-19.113 1.025-1.358-1.272-2.681-2.288-1.331Zm7.572 5.265a218.799 218.799 0 0 0-5.708 18.38c-.433 1.65 2.121 2.355 2.554.706a218.792 218.792 0 0 1 5.707-18.38c.574-1.606-1.979-2.294-2.553-.706Zm10.266 1.446-3.278 11.757-.812 2.893c-.239.847-.654 1.799-.645 2.681 0 1.65 1.555 2.928 2.995 1.755.556-.458.468-1.393 0-1.869-.539-.556-1.326-.45-1.873 0l.344-.221h.707c.336.423.495.512.468.282-.017.177 0 .159.044-.053.195-.299.239-.846.336-1.19l.575-2.046 1.236-4.428 2.474-8.855c.46-1.64-2.094-2.346-2.553-.706h-.018Zm37.674-5.794c-7.024 3.184-14.667 4.895-22.38 5.063-1.705.035-1.705 2.681 0 2.645 8.208-.176 16.248-2.037 23.714-5.424 1.555-.705.203-2.981-1.334-2.284Zm-185.672-78.548c-1.105 2.69-.53 5.874 1.272 8.123 1.803 2.249 4.789 3.219 7.607 2.831.707-.097 1.096-1.006.928-1.632-.212-.767-.919-1.023-1.635-.926.221-.027-.167 0-.203.009-.141 0-.282.009-.424.009-.141 0-.283 0-.424-.018-.044 0-.424-.044-.203-.018a6.578 6.578 0 0 1-1.493-.397c.176.071-.168-.07-.203-.088-.124-.062-.248-.123-.372-.194a6.473 6.473 0 0 1-.706-.458c.159.114-.177-.142-.168-.142a5.4 5.4 0 0 1-.256-.238c-.16-.158-.425-.432-.504-.547-.574-.74-.963-1.728-1.078-2.645-.124-1.015 0-1.932.433-2.982.274-.661-.292-1.455-.928-1.631-.76-.212-1.36.256-1.634.926l-.009.018Zm158.574-28.25c-4.533 2.787-9.834 3.951-15.126 3.378-.716-.08-1.325.661-1.325 1.323 0 .776.609 1.243 1.325 1.323 5.716.626 11.574-.732 16.46-3.74 1.449-.891.124-3.184-1.334-2.284Z"/>
    <path fill="#DD4563" d="M686.663 243.53c3.941 4.921 6.732 10.725 8.164 16.854.309 1.315.963 3.017-.354 3.943-1.316.926-3.048 1.623-4.541 2.355a158.18 158.18 0 0 1-9.577 4.295 167.532 167.532 0 0 1-11.15 4.101c-1.131.37-1.246 1.755-.318 2.417a107.69 107.69 0 0 1 26.479 26.82 109.518 109.518 0 0 1 5.645 9.173c.822 1.49 3.11.159 2.289-1.332a110.367 110.367 0 0 0-24.315-30.102 115.259 115.259 0 0 0-8.755-6.852l-.319 2.416a170.264 170.264 0 0 0 21.735-8.846c1.564-.767 3.331-1.464 4.7-2.558 1.37-1.093 1.723-2.566 1.502-4.207-.468-3.484-1.669-6.932-3.074-10.134-1.608-3.677-3.72-7.082-6.229-10.222-1.06-1.331-2.925.556-1.873 1.87l-.009.009Zm-57.667 9.498c1.219 6.368.98 12.895.521 19.333-.459 6.518-.998 13.018-1.502 19.536-.132 1.702 2.518 1.693 2.651 0 .512-6.65 1.078-13.3 1.537-19.959.459-6.659.592-13.133-.645-19.606-.318-1.667-2.871-.962-2.553.705l-.009-.009ZM324.658 538.417a65.52 65.52 0 0 0 2.43 4.031c1.59 2.452 5.495 8.167 11.883 14.111 6.123 5.689 11.866 9.12 15.568 11.307 4.718 2.779 7.165 3.705 9.321 6.783 2.704 3.854 3.013 8.334 2.845 11.501a147.523 147.523 0 0 1-24.968.688c-23.414-1.35-42.259-8.062-55.035-14.015a69.598 69.598 0 0 1 1.776-11.915c1.396-5.874 7.457-29.538 11.548-36.214 2.42.767 19.243 5.891 22.149 3.678.831 3.351 1.653 6.703 2.483 10.063v-.018Z"/>
    <path fill="#131E3F" d="M365.919 584.315c-10.072 1.367-20.251 1.641-30.376.741-11.662-1.032-23.148-3.537-34.139-7.558-4.647-1.703-9.189-3.661-13.642-5.813-1.378-.661-2.235 1.553-.865 2.214 8.817 4.251 17.997 7.709 27.512 10.046 11.751 2.893 23.891 4.251 35.995 3.978a143.228 143.228 0 0 0 15.912-1.262c1.511-.203 1.122-2.549-.388-2.337l-.009-.009Z"/>
    <path fill="#FEE05C" d="M345.863 564.63c-3.181.167-6.238 1.896-8.075 4.48-.363.503-.283 1.296.256 1.658.53.353 1.272.282 1.661-.256a7.772 7.772 0 0 1 .707-.882c.044-.053.097-.097.141-.15.124-.123.247-.238.371-.352.256-.23.521-.441.804-.635.141-.097.283-.194.424-.283-.212.141.071-.044.097-.053.071-.044.15-.088.221-.123.301-.168.61-.309.928-.441l.477-.185c.079-.027.159-.053.247-.08.212-.07-.088.018.053-.017.689-.168 1.361-.3 2.077-.335.618-.036 1.095-.785.98-1.367-.15-.688-.698-1.015-1.369-.979Zm-6.547-5.653c-3.667-.291-7.298.688-10.346 2.725-.53.353-.557 1.199-.177 1.667.433.538 1.14.529 1.67.176 2.518-1.684 5.619-2.452 8.606-2.214 1.519.124 1.776-2.24.247-2.363v.009Zm-48.417 10.124c16.239 7.594 33.556 12.383 51.483 13.503 5.168.327 10.346.362 15.514.203.645-.018 1.069-.794.981-1.367-.106-.705-.733-.997-1.369-.979-17.512.538-34.917-1.808-51.457-7.673-4.859-1.72-9.621-3.713-14.286-5.892-1.387-.652-2.244 1.561-.866 2.214v-.009Z"/>
    <path fill="#E3F2FD" d="M295.016 552.661c.115 3.678 2.783 6.58 5.955 6.483 3.172-.097 5.655-3.166 5.531-6.844-.115-3.678-2.783-6.58-5.955-6.483-3.172.097-5.655 3.167-5.531 6.844Z"/>
    <path fill="#DD4563" d="M204.296 515.098c.018 1.155.071 2.76.221 4.657.23 2.884.954 9.701 3.737 17.877 2.669 7.832 6.07 13.521 8.279 17.155 2.81 4.63 4.515 6.579 4.948 10.283.548 4.631-1.29 8.679-2.916 11.369a145.028 145.028 0 0 1-22.114-11.095c-19.8-12.136-33.088-26.821-41.437-38.004a69.908 69.908 0 0 1 7.147-9.57c3.985-4.471 20.392-22.278 27.098-26.194 1.749 1.799 14.021 14.155 17.6 13.573-.857 3.316-1.706 6.624-2.563 9.94v.009Z"/>
    <path fill="#131E3F" d="M218.724 574.472c-9.436-3.519-18.439-8.052-26.85-13.582-9.683-6.359-18.536-13.926-26.241-22.578a148.554 148.554 0 0 1-9.17-11.457c-.893-1.226-2.678.309-1.794 1.526 5.699 7.84 12.087 15.152 19.287 21.652 8.897 8.026 18.846 14.896 29.536 20.321a139.073 139.073 0 0 0 14.481 6.35c1.423.529 2.183-1.694.76-2.223l-.009-.009Z"/>
    <path fill="#FEE05C" d="M210.481 547.898c-2.854-1.34-6.335-1.261-9.153.124-.557.273-.857 1.005-.557 1.57.292.555.981.846 1.573.555.3-.15.618-.282.936-.405.027-.009.345-.115.097-.036.062-.017.133-.044.195-.061.159-.045.327-.089.495-.133.326-.079.662-.141.998-.176l.504-.053c-.257.018.079 0 .106 0h.256c.336 0 .68.018 1.016.053a8.523 8.523 0 0 1 .751.106c.221.035-.08-.027.053.008.68.177 1.334.38 1.97.68.557.264 1.334-.177 1.493-.732.195-.671-.132-1.209-.733-1.491v-.009Zm-3.057-7.991c-3.066-1.975-6.688-2.813-10.311-2.46-.636.061-1.051.794-.936 1.376.132.67.742.996 1.378.934 2.995-.291 6.052.494 8.544 2.1 1.272.82 2.597-1.121 1.325-1.941v-.009Zm-47.012-13.838c10.602 14.235 23.466 26.512 38.583 35.888 4.356 2.699 8.853 5.159 13.447 7.435.575.282 1.299-.194 1.494-.732.238-.662-.168-1.209-.734-1.491-15.532-7.726-29.624-17.93-41.296-30.789-3.428-3.775-6.644-7.744-9.692-11.836-.91-1.218-2.694.317-1.793 1.525h-.009Z"/>
    <path fill="#E3F2FD" d="M171.73 513.651c-1.626 3.264-.663 7.047 2.156 8.441 2.818 1.393 6.414-.115 8.04-3.378 1.625-3.263.662-7.047-2.156-8.441-2.819-1.393-6.415.115-8.04 3.378Z"/>
    <path fill="#009688" d="M274.006 308.637a1020.16 1020.16 0 0 1-19.853 46.119c-11.494 24.995-20.1 43.728-31.992 62.99-10.788 17.489-27.919 41.32-54.654 66.333 2.341 5.08 14.94 16.854 20.992 23.134 14.136 14.65 31.409 18.416 38.442 19.527a811.106 811.106 0 0 0 41.994-74.377 813.025 813.025 0 0 0 49.954-125.875c-12.016-4.18-32.876-13.661-44.892-17.842l.009-.009Z"/>
    <path fill="#FEE05C" d="M298.117 341.941a2514.074 2514.074 0 0 0-36.922 63.599 2580.642 2580.642 0 0 0-17.724 32.121c-5.645 10.407-11.22 20.911-18.076 30.596a142.692 142.692 0 0 1-25.349 27.332c-1.131.944.31 2.716 1.441 1.773a145.767 145.767 0 0 0 23.148-24.193c7.068-9.349 12.784-19.588 18.368-29.863 11.68-21.521 23.572-42.917 35.827-64.12a2553.99 2553.99 0 0 1 21.134-35.887c.751-1.253-1.087-2.62-1.847-1.35v-.008Z"/>
    <path fill="#FEE05C" d="M189.851 487.651c6.335 9.137 15.161 16.475 25.26 21.15a60.38 60.38 0 0 0 8.888 3.29c1.405.405 2.253-1.729.83-2.135-10.425-2.972-19.994-8.749-27.433-16.625a60.316 60.316 0 0 1-5.769-7.126c-.84-1.208-2.616.238-1.776 1.437v.009Z"/>
    <path fill="#009688" d="M275.42 293.211c-2.501 3.44-6.088 18.654-6.848 25.975-.936 9.031 2.439 16.801 17.538 40.156 15.091 23.328 16.549 23.046 19.146 29.96 5.964 15.902 3.048 30.261.513 42.017-9.675 44.778-20.975 85.181-26.683 104.981 8.014 2.717 22.645 5.398 34.67 6.765 8.481.97 16.15 1.085 22.724.803 11.123-34.353 16.725-63.802 19.764-85.499 5.231-37.316 7.802-57.398-1.767-76.855-1.396-2.84-3.437-6.447-18.13-34.52-4.594-8.776-8.358-15.999-10.867-20.814.035-5.522.062-11.043.097-16.564-15.329-2.284-34.828-14.129-50.157-16.413v.008Z"/>
    <path fill="#FEE05C" d="M290.395 531.908c2.783 1.614 5.796 2.655 8.897 3.502 3.384.917 6.812 1.675 10.267 2.266a109.53 109.53 0 0 0 20.939 1.526c1.458-.035 1.714-2.311.239-2.275a109.186 109.186 0 0 1-20.206-1.403 104.616 104.616 0 0 1-9.887-2.108c-3.057-.811-6.14-1.755-8.888-3.351-1.263-.732-2.633 1.102-1.352 1.843h-.009Zm14.631-217.026c-1.078.855-1.625 2.081-2.111 3.325-.469 1.208-.999 2.354-1.723 3.43a15.82 15.82 0 0 1-5.699 5.151c-1.299.688-.362 2.778.946 2.082a18.19 18.19 0 0 0 6.255-5.38 18.077 18.077 0 0 0 1.997-3.528c.486-1.138.777-2.505 1.784-3.308 1.158-.917-.291-2.69-1.44-1.772h-.009Zm12.379 8.775a26.44 26.44 0 0 0 4.938 6.659c.433.415 1.114.609 1.608.168.425-.371.628-1.164.168-1.605a25.511 25.511 0 0 1-2.624-2.973 21.568 21.568 0 0 1-1.095-1.587s-.159-.247-.089-.132c.071.123-.07-.115-.079-.133a6.585 6.585 0 0 1-.256-.441 28.122 28.122 0 0 1-.486-.891c-.274-.529-.946-.864-1.52-.573-.53.265-.866.944-.574 1.517l.009-.009Z"/>
    <path fill="#FEE05C" d="M292.454 317.351c-1.361 14.279 5.204 27.729 13.032 39.239 8.084 11.88 18.085 22.587 24.182 35.729 3.278 7.064 5.045 14.64 6.078 22.331 1.052 7.823 1.396 15.734 1.122 23.628-.547 15.823-3.507 31.486-7.819 46.692-4.382 15.461-10.125 30.507-16.363 45.315a706.761 706.761 0 0 1-2.323 5.451c-.583 1.358 1.555 2.187 2.138.829 6.37-14.808 12.334-29.811 17.052-45.236 4.638-15.17 8.093-30.79 9.259-46.63.574-7.823.592-15.69-.053-23.505-.654-7.885-1.873-15.796-4.4-23.319-4.665-13.891-14.286-25.224-22.883-36.84-8.287-11.192-16.292-23.946-16.902-38.269-.07-1.728 0-3.457.159-5.177.142-1.464-2.138-1.702-2.279-.238Z"/>
    <path fill="#E3F2FD" d="m339.334 330.545-.893-47.741s8.438-2.981 8.332-13.9c-.053-5.027-2.43-24.677-8.111-32.439-5.327-7.285-22.282-6.817-27.433-4.286-10.081 4.948-25.331 21.238-50.423 79.519l78.519 18.847h.009Z"/>
    <path fill="#1B2C56" d="M339.502 178.529c-1.538-2.108-3.146-4.251-5.999-5.583-7.183-3.334-15.506 1.667-15.957 1.94-6.432 3.987-6.343 9.111-15.7 22.455a139.742 139.742 0 0 1-5.672 7.515 28.444 28.444 0 0 0 6.75 9.613 28.683 28.683 0 0 0 10.028 6.068l2.862-1.243c0 .82-.017 1.649-.017 2.469a20.407 20.407 0 0 0 4.25 2.276c7.748 3.025 15.214.388 17.944-.75 2.615-4.189 8.526-14.897 7.307-28.161-.274-3.017-1.008-10.046-5.805-16.617l.009.018Z"/>
    <path fill="#FF9D76" d="M350.347 230.276c7.691-2.41 11.087-13.391 7.585-24.526s-12.576-18.207-20.267-15.797c-7.691 2.41-11.086 13.391-7.584 24.526 3.502 11.135 12.575 18.208 20.266 15.797Z"/>
    <path fill="#FF9D76" d="M346.04 228.483a11.57 11.57 0 0 0-2.801 2.717c-.362.503-.76 1.138-1.528 2.84a54.692 54.692 0 0 0-1.935 4.912 23 23 0 0 1-3.773-.538c-5.124-1.173-8.756-3.898-10.85-5.821a51.903 51.903 0 0 0 2.775-6.27 50.69 50.69 0 0 0 2.359-8.961c1.016.247 2.067.573 3.145.996 6.317 2.461 10.346 6.959 12.617 10.125h-.009Z"/>
    <path fill="#FF9D76" d="M333.759 211.117c.901 3.422-.521 6.756-3.181 7.453-2.659.697-5.539-1.508-6.441-4.921-.901-3.422.522-6.756 3.181-7.453 2.659-.697 5.54 1.508 6.441 4.921Z"/>
    <path fill="#1B2C56" d="M356.315 198.382c-1.104 2.302-2.995 3.563-4.753 4.71-6.715 4.374-14.137 3.669-17.202 3.192-.902 1.694-1.803 3.387-2.695 5.08-.769-2.487-2.845-3.792-4.294-3.422-1.67.433-2.227 3.026-2.05 4.693.256 2.398 2.103 3.783 2.474 4.048-2.818.097-6.494-.344-9.321-2.743-6.397-5.433-4.648-17.693 0-24.978 6.193-9.737 20.771-15.663 30.093-9.975 6.317 3.855 10.664 13.318 7.739 19.395h.009Z"/>
    <path fill="#1B2C56" d="M356.801 188.892c2.509 5.556 2.218 12.824-2.271 17.339-3.87 3.899-9.842 4.842-14.984 3.273-3.313-1.015-6.141-2.973-8.385-5.592-.989-1.156.946-2.514 1.935-1.367 3.243 3.783 8.243 5.891 13.218 5.203 4.779-.661 8.464-4.065 9.436-8.802.645-3.131.141-6.323-1.158-9.216-.627-1.394 1.59-2.214 2.218-.838h-.009Zm-3.26 18.98c.583-.035 1.157-.08 1.74-.115.08 0 .159-.009.248-.017.309-.018.636.07.883.273.221.185.398.503.416.785.017.309-.053.644-.274.882-.204.22-.477.397-.787.414-.583.036-1.157.08-1.74.115l-.248.018a1.29 1.29 0 0 1-.883-.274c-.221-.185-.398-.502-.415-.785-.018-.308.053-.644.274-.882.203-.22.477-.397.786-.414Z"/>
    <path fill="#B9F2E1" d="M353.912 210.791c.283 4.225-1.705 7.797-4.444 7.982-2.739.185-5.195-3.087-5.487-7.312-.291-4.224 1.705-7.796 4.444-7.981 2.739-.186 5.195 3.087 5.487 7.311Zm9.462-1.314c.265 3.854-1.237 7.091-3.357 7.232-2.112.141-4.038-2.866-4.303-6.712-.265-3.854 1.237-7.091 3.358-7.232 2.111-.141 4.037 2.866 4.302 6.712Z"/>
    <path fill="#1B2C56" d="M344.237 180.487c-2.005-5.786-5.972-11.14-12.007-13.08-2.951-.953-6.299-1.005-9.215.123-2.915 1.129-5.257 3.396-6.847 6.077-2.085 3.511-2.871 7.568-3.543 11.536-.283 1.667 2.271 2.382 2.553.706 1.14-6.712 3.349-15.964 11.716-16.493 7.298-.458 12.581 5.451 14.79 11.827.557 1.597 3.119.909 2.553-.705v.009Zm5.293 22.561a15.325 15.325 0 0 0-3.941 1.949c-.291.203-.512.441-.61.793-.088.318-.044.741.133 1.024.177.282.451.529.795.608.345.08.734.071 1.025-.132a13.73 13.73 0 0 1 2.598-1.429l-.318.132c.335-.141.68-.264 1.024-.388a1.41 1.41 0 0 0 .796-.608c.167-.283.238-.706.132-1.023-.212-.653-.928-1.156-1.634-.926Zm8.941 1.667c.291.061.574.15.848.264l-.318-.132c.389.167.76.379 1.096.635l-.266-.203c.248.194.469.406.672.635.212.247.618.388.936.388.319 0 .716-.141.937-.388.221-.247.406-.582.389-.935a1.502 1.502 0 0 0-.389-.935c-.406-.467-.919-.864-1.449-1.182a5.891 5.891 0 0 0-1.749-.687c-.345-.071-.707-.053-1.025.132-.274.159-.539.476-.61.794-.079.335-.062.714.133 1.023.176.282.45.538.795.608v-.017Zm1.914 8.458c.819-.021 1.454-1.206 1.417-2.648-.037-1.441-.731-2.592-1.551-2.572-.819.021-1.454 1.207-1.417 2.648.037 1.441.731 2.593 1.551 2.572Zm-9.065.231c.819-.021 1.454-1.207 1.417-2.648-.037-1.441-.731-2.593-1.551-2.572-.819.021-1.454 1.206-1.417 2.647.037 1.442.731 2.593 1.551 2.573Z"/>
    <path fill="#E3F2FD" d="M339.775 238.953a194.05 194.05 0 0 1 16.619 7.611 190.648 190.648 0 0 1 13.642 7.779 128.172 128.172 0 0 1-12.254 29.467c-4.824-2.876-9.657-5.742-14.481-8.617a95.347 95.347 0 0 1-3.897-23.628c-.168-4.586 0-8.82.371-12.612Zm-13.747-6.218c1.484 1.173 2.712 3.06 2.889 12.744.185 10.169-.99 17.948-1.317 20.056a171.01 171.01 0 0 1-3.772 17.79 195.613 195.613 0 0 0-9.127-2.505 194.594 194.594 0 0 0-27.38-4.727c1.935-12.604 6.096-22.129 9.445-28.347 6.281-11.651 11.176-14.376 14.472-15.576.415-.15 9.745-3.422 14.79.556v.009Z"/>
    <path fill="#DD4563" d="M369.683 256.292v3.334c0 .688.609 1.358 1.325 1.323.716-.035 1.325-.582 1.325-1.323v-3.334c0-.688-.609-1.358-1.325-1.323-.716.035-1.325.582-1.325 1.323Z"/>
    <path fill="#FF9D76" d="M334.201 249.924c16.036 10.936 43.425 23.24 59.372 24.827 6.874.688 34.687-8.837 48.859-16.51 5.292-2.867-14.587-30.984-20.675-28.505-4.143 1.684-25.675 16.157-29.182 16.457-6.459.538-34.131-6.138-51.889-7.849-9.913-.953-16.46 4.78-6.485 11.58Z"/>
    <path fill="#E3F2FD" d="m366.025 240.646-1.06 32.333s-31.012-17.525-38.681-25.251c-8.623-8.696-2.288-11.192 9.366-11.236 11.653-.045 30.366 4.154 30.366 4.154h.009Z"/>
    <path fill="#DD4563" d="M482.809 271.947c-7.917-17.145-26.435-26.115-44.229-22.764l-20.392-44.133 18.174-8.37-8.234-17.816-18.174 8.37-4.303-9.314 18.174-8.37-8.235-17.816-36.021 16.581 41.155 89.08c-14.11 11.333-19.288 31.213-11.371 48.358 9.339 20.215 33.406 29.07 53.656 19.747 20.25-9.322 29.121-33.347 19.782-53.562l.018.009Zm-55.6 25.595c-4.798-10.39-.239-22.737 10.169-27.535 10.408-4.789 22.777-.238 27.584 10.151 4.806 10.39.238 22.737-10.17 27.535-10.408 4.789-22.777.239-27.583-10.151Z"/>
    <path fill="#FEE05C" d="M479.849 265.544c-7.916-17.146-26.435-26.115-44.229-22.764l-20.392-44.134 18.174-8.37-8.234-17.816-18.174 8.37-4.303-9.313 18.174-8.37-8.234-17.816-36.021 16.581 41.154 89.079c-14.11 11.334-19.287 31.213-11.371 48.359 9.339 20.215 33.406 29.07 53.656 19.747 20.251-9.322 29.121-33.347 19.782-53.562l.018.009Zm-55.591 25.595c-4.798-10.39-.239-22.738 10.169-27.536 10.408-4.789 22.777-.238 27.584 10.152 4.797 10.39.238 22.737-10.17 27.535-10.408 4.789-22.777.238-27.583-10.151Z"/>
    <path fill="#FF9D76" d="M426.988 213.252c6.034.811 15.347-.97 19.402 1.032 3.666 1.799 3.022 5.398 3.022 5.398s4.32-2.532 7.704-.115c1.74 1.243 1.281 5.115 1.281 5.115s3.552-1.878 6.423.459c2.288 1.861 1.484 5.459 1.484 5.459s4.25-.22 5.973 2.426c3.499 5.362-10.337 26.574-20.303 24.757-4.648-.847-.981-5.839-.981-5.839s-7.006 5.918-11.459 3.184c-4.453-2.734.698-8.943.698-8.943s-6.839 5.671-11.168 2.372c-4.506-3.439 1.705-8.767 1.705-8.767s-6.282 2.638-9.012-.652c-4.514-5.424 8.42-9.728 10.355-15.117l-6.025-7.576.901-3.193Z"/>
    <path fill="#FF9D76" d="M436.45 213.349c-5.645-1.27-7.589-10.531-12.811-12.515-7.068-2.682-5.53 8.22 2.448 15.61l7.209 4.648 3.154-7.743Z"/>
    <path fill="#DD4563" d="M447.282 219.911a55.09 55.09 0 0 1-17.555 17.083c-1.458.882-.124 3.175 1.334 2.285a58.105 58.105 0 0 0 18.501-18.028c.928-1.437-1.37-2.76-2.288-1.332l.008-.008Zm10.426 5.829a215.617 215.617 0 0 1-20.339 21.212c-1.263 1.146.619 3.016 1.873 1.869a216.614 216.614 0 0 0 20.339-21.211c1.087-1.296-.778-3.184-1.873-1.87Zm7.633 7.03a61.674 61.674 0 0 1-14.048 18.345c-1.272 1.138.61 3.007 1.873 1.87a63.722 63.722 0 0 0 14.464-18.883c.76-1.517-1.52-2.858-2.289-1.332Z"/>
    <path fill="#FF9D76" d="M306.467 264c7.077 19.959 34.466 56.473 48.337 63.837 18.21 9.675 46.641 6.042 57.164 4.366 4.585-.732 1.502-31.46-2.668-34.141-4.179-2.681-38.469-2.672-42.047-3.643-3.587-.97-19.959-29.749-31.356-43.657-14.384-17.543-35.42-3.643-29.43 13.247V264Z"/>
    <path fill="#FF9D76" d="M424.682 301.44c-2.218-.829-1.803-1.993 2.209-3.272 4.055-1.306 20.974-2.955 19.897-8.811-1.078-5.883-24.986-3.158-31.498-.512-6.52 2.629-16.124 9.199-16.124 9.199 4.762.406 16.204 2.487 25.525 3.396h-.009Z"/>
    <path fill="#FF9D76" d="M400.032 333.12c13.438.653 30.136 2.276 43.584-4.762 2.632-1.385 3.463-3.493 3.463-3.493 6.079-3.051 6.467-6.835 6.467-6.835 4.798-4.578 4.656-8.494 4.656-8.494s7.104-3.66 5.602-8.308c-1.67-5.221-11.318.944-18.695 1.094-16.911.344-41.04-3.89-45.926-4.269l.866 35.085-.017-.018Z"/>
    <path fill="#E3F2FD" d="m359.257 278.561-36.127 22.42s-18.784-31.372-19.358-42.229c-.645-12.215 18.395-24.827 28.246-13.758 7.74 8.696 27.23 33.567 27.23 33.567h.009Z"/>
    <path fill="#DD4563" d="M357.985 278.138a689.466 689.466 0 0 1-32.001 18.698c-1.493.82-.159 3.104 1.334 2.284a688.572 688.572 0 0 0 32.001-18.698c1.449-.899.115-3.183-1.334-2.284Z"/>
    <path fill="#DD4563" d="M326.072 296.827a150.663 150.663 0 0 1-22.15-28.037c-.892-1.447-3.18-.124-2.288 1.331a154.303 154.303 0 0 0 22.565 28.576c1.211 1.208 3.084-.661 1.873-1.87Zm10.974-47.141c-4.533-6.121-11.177-10.496-18.66-12.083-1.661-.353-2.377 2.196-.707 2.549 6.768 1.437 12.943 5.3 17.069 10.866.433.582 1.14.855 1.812.476.574-.327.901-1.235.477-1.808h.009Zm119.982 59.189a111.607 111.607 0 0 1-28.247 4.074c-1.705.027-1.705 2.673 0 2.646a114.82 114.82 0 0 0 28.953-4.171c1.644-.459.946-3.008-.706-2.549Zm-4.356 7.691c-8.438 3.545-17.37 5.891-26.479 6.861-1.679.177-1.697 2.823 0 2.646 9.356-.996 18.509-3.307 27.186-6.95.662-.282 1.122-.873.927-1.631-.168-.627-.972-1.2-1.634-.926Zm-8.411 7.179c-5.487 3.316-11.654 5.442-18.033 6.112-.716.079-1.316.556-1.325 1.323 0 .661.618 1.402 1.325 1.323 6.856-.723 13.465-2.902 19.367-6.474 1.458-.882.124-3.166-1.334-2.284Zm-80.533-30.948c1.175 5.036 2.35 10.072 3.525 15.099.389 1.658 2.942.952 2.554-.706-1.176-5.036-2.351-10.072-3.526-15.099-.388-1.658-2.942-.953-2.553.706Z"/>
  </g>
  <defs>
    <clipPath id="a">
      <rect width="1024" height="680" fill="#fff" rx="200"/>
    </clipPath>
  </defs>
</svg>
