<?xml version="1.0" encoding="UTF-8"?>
<svg xmlns="http://www.w3.org/2000/svg" viewBox="0 0 1159 771">
  <defs>
    <style>
      .cls-1 {
        fill: #f35a77;
      }

      .cls-2 {
        fill: #009688;
      }

      .cls-3 {
        fill: #249b99;
      }

      .cls-4 {
        fill: #fff;
      }

      .cls-5 {
        fill: #e3f2fd;
      }

      .cls-6 {
        fill: #fff689;
      }

      .cls-7 {
        fill: #f06291;
      }

      .cls-8 {
        fill: #85d7c8;
      }

      .cls-9 {
        isolation: isolate;
      }

      .cls-10 {
        fill: #feea3b;
      }

      .cls-11 {
        fill: #ffb750;
      }

      .cls-12 {
        fill: #dd4563;
      }

      .cls-13 {
        fill: #f79cae;
      }

      .cls-14 {
        fill: #131e3f;
      }

      .cls-15 {
        fill: #1b2c56;
      }

      .cls-16 {
        fill: #ff9d76;
      }

      .cls-17 {
        fill: #b9f2e1;
      }

      .cls-18 {
        fill: #e3f2fd;
      }

      .cls-19 {
        fill: #fee05c;
      }
    </style>
  </defs>
  <g class="cls-9">
    <g id="Layer_1" data-name="Layer 1">
      <rect id="Background" class="cls-4" width="1159" height="771"/>
      <g id="Bushes">
        <path class="cls-8" d="M452.84,632.74c20.61-.36,35.44-20.57,28.89-40.12-.16-.49-.34-.97-.52-1.46-5.59-14.85-15.83-14.74-30.63-34.57-17.11-22.93-11.96-34.51-26.52-44.05-12.87-8.43-33.36-10.17-44.21-.02-10.12,9.47-8.57,26.19-8.08,31.35,1.66,17.85,12.05,29.64,9.59,31.53-2.58,1.99-11.59-12.87-23.15-12.01-13.88,1.04-17.2,23.68-27.04,23.13-9.98-.56-18.34-24.53-20.41-42.79-1.66-14.63,1.72-16.73-1.1-25.71-5.57-17.74-27.16-36.29-45.87-31.07-16.8,4.69-27.31,27.43-24.85,45.37,3.56,25.96,32.81,30.92,42.92,65.38.03.12.07.23.1.35,6.2,22.02,26.26,37.25,49.14,36.85l121.75-2.14Z"/>
        <path class="cls-3" d="M467.41,503.9c-8.54,4.21-20.43,1.62-28.02-4.71-15.43-12.88-2.1-32.09-17.61-55.49-10.3-15.54-22.1-16.01-24.06-29.64-1.75-12.2,7.13-15.84,5.01-27.2-3.23-17.35-26.26-21.34-24.67-31.3,1.07-6.64,12.19-10.44,19.46-10.92,12.77-.85,25.77,7.74,29.07,18.41,4.33,14-10.9,22.33-6.8,34.43,4.07,12.03,20.51,7.84,38.33,22.51,16.54,13.62,23.88,34.93,23.09,52.53-.28,6.15-1.13,25.13-13.8,31.37Z"/>
        <path class="cls-8" d="M940.02,376.1c-3.11-13.68-20.52-11.29-32.85-30.22-10.73-16.48-2.23-25.52-12.13-35.91-13.57-14.23-32.1.07-53.63-14.42-15.7-10.56-13.69-23.44-28.36-27.94-11.76-3.61-27.61.21-32.35,9.52-6.2,12.16,7.51,31.74,20.38,42.09,19.28,15.51,33.74,7.99,45.51,23.01,8.15,10.4,8.47,23.27,8.83,37.67.53,20.92-9.83,25.91-5.94,37.79,4.18,12.74,19.8,19.97,33.78,22.21,53.5,8.57,59.06-53.71,56.76-63.82Z"/>
        <path class="cls-17" d="M822.16,645.04c35.66-.76,64.97-28.34,67.98-63.88.01-.14.02-.27.03-.41,1.96-22.95,8.9-29.03,6.56-48.98-.48-4.1-4.94-38.34-27.24-46.37-6.49-2.34-17.26-3.45-21.36,1.83-6.61,8.51,11.25,24.4,6.51,40.3-4.28,14.36-22.35,26.2-31.83,22.21-12.23-5.15-14.85-38.71-9.08-63.48,2.46-10.56,6.2-18.5,3.26-29.79-.83-3.17-4.37-16.81-16.83-21.67-12.26-4.79-27.76,1.02-32.67,10.65-5.06,9.94,5.03,16.33,4.23,35.7-.16,3.93-.99,23.73-14.36,35.98-10.95,10.02-22.14,7.51-27.08,18.17-2.31,4.97-2.6,11.39-.45,16.76,5.12,12.78,20.15,9.67,26.57,21.57,5.67,10.52,1.8,27.56-7.12,33.91-5.71,4.06-11.53,2.35-14.75,7.66-2.63,4.33-1.33,9.67-.24,14.12,1.81,7.43,5.72,12.67,8.47,15.7,5.38,1.1,42.4.81,79.42.03Z"/>
      </g>
      <g id="Elements">
        <g>
          <path class="cls-8" d="M735.9,235.73c7.47-4.46,7.46-20.79,1.89-32.18-7.08-14.49-18.78-12.06-28.39-27.45-9.55-15.28-5.3-29.33-10.41-30.29-5.25-.99-15.78,12.71-14.2,25.56,1.47,12,12.1,11.81,19.88,28.39,6.86,14.63,2.11,22.29,10.41,30.29,5.59,5.39,15.16,9.06,20.82,5.68Z"/>
          <path class="cls-17" d="M308.18,381.83c-2.75,3.19-20.76-2.41-26.99-15.34-5.11-10.59,2.25-16.62-2.79-28.6-4.97-11.82-14.11-10.68-18.13-21.12-6.11-15.89,8.09-36.62,11.67-35.72,2.84.72-3.06,14.53,5.04,26.63,6.06,9.05,13.01,6.79,17.67,15.16,5.29,9.49-1.92,15.54.54,30.58,2.9,17.68,15.52,25.49,12.98,28.42Z"/>
        </g>
        <path class="cls-11" d="M228.19,331.74c-3.96-2.1-7.24-5.24-9.15-9.34-1.94-4.17-2.6-9.31-1.65-13.82.15-.72.33-1.46.62-2.13.13-.31.3-.65.5-.93.08-.11.27-.4.22-.27.06-.16.15.04-.09-.06.18.07.27.08.49.22.66.41,1.19,1.07,1.68,1.67,2.17,2.69,4.02,6.1,5.09,9.38,1.74,5.3,1.62,10.96-.08,16.25-.64,1.98,2.47,2.83,3.11.86,3.21-9.99.73-20.85-5.93-28.87-1.15-1.39-2.87-3.05-4.85-2.64-1.65.34-2.59,1.92-3.17,3.36-1.91,4.76-1.47,10.73.06,15.52,1.89,5.93,6.06,10.68,11.52,13.59,1.83.97,3.46-1.81,1.63-2.78Z"/>
        <path class="cls-3" d="M862.42,253.98c1.98-3.39,3.11-7.46,2.71-11.4-.55-5.25-3.81-9.94-8.1-12.89-2.62-1.8-7.29-4.3-10.33-1.98-1.83,1.4-2.08,4.14-1.86,6.25.28,2.61,1.29,5.18,3.21,7.02,1.98,1.9,4.55,3.06,6.5,5.04,2.18,2.21,3.74,4.96,4.9,7.81.78,1.92,3.82.85,3.04-1.08-1.63-4.02-3.98-7.76-7.34-10.56-1.73-1.44-4.08-2.41-5.49-4.2-1.27-1.61-1.86-4-1.62-6.03.17-1.42.54-1.99,1.83-1.9,1.6.1,3.21.92,4.55,1.75,3.55,2.19,6.58,5.83,7.35,10,.7,3.74-.37,7.56-2.26,10.79-1.05,1.79,1.87,3.17,2.91,1.38Z"/>
        <path class="cls-8" d="M322.91,150.56c.42-5.55-.59-11-2.77-16.1-1.79-4.16-4.41-9.19-8.5-11.54-4.25-2.45-7.95,1.06-9.2,5.1-.66,2.13-.72,4.66.39,6.66,1.05,1.88,2.98,2.86,4.84,3.79,2.97,1.5,5.66,3.25,7.88,5.76,1.86,2.1,3.26,4.57,4.36,7.14.81,1.9,3.59.26,2.78-1.63-1.74-4.06-4.31-7.8-7.78-10.57-1.94-1.55-4.06-2.69-6.26-3.81-1.46-.75-2.99-1.5-3.36-3.25-.46-2.15,1.13-7.95,4.26-6.66,1.62.67,2.93,2.31,3.94,3.68,1.36,1.86,2.49,3.9,3.44,5.99,2.22,4.86,3.16,10.1,2.76,15.43-.16,2.07,3.07,2.06,3.22,0Z"/>
        <path class="cls-13" d="M248.99,456.28c-4.17-2.84-7.77-6.48-10.44-10.76-2.51-4.02-4.74-8.73-5.39-13.47-.1-.75-.18-1.57-.07-2.33.07-.49.2-1.03.47-1.18,1.24-.7,3.76.9,4.79,1.56,3.41,2.22,4.74,5.04,5.57,8.88,1.32,6.14,2.09,12.43,2.65,18.68.19,2.05,3.41,2.07,3.22,0-.59-6.47-1.39-12.99-2.73-19.35-.43-2.05-.95-4.16-2.03-5.98-1.21-2.05-3.08-3.73-5.06-5.02-1.95-1.26-4.64-2.56-7.02-1.95-1.95.5-2.85,2.25-3.06,4.12-.24,2.24.29,4.59.92,6.74.82,2.8,1.98,5.51,3.34,8.09,3.13,5.96,7.65,10.96,13.21,14.74,1.72,1.17,3.33-1.62,1.63-2.78Z"/>
        <path class="cls-11" d="M947.5,440.9c-1.68-1.06-5.64-3.87-7.38-8.96-2.05-6-.57-13.85,2.63-14.75,2.3-.65,5.6,2.27,6.85,5.27.58,1.39.74,2.85,0,7.9-.39,2.62-1.02,6.23-2.11,10.54Z"/>
        <path class="cls-19" d="M312.48,237.13c-2.73-1.83-6.55-4.82-10.02-9.39-5.26-6.93-9.93-17.77-6.9-20.53,1.9-1.73,6.54-.04,9.21,1.99,1.62,1.23,3.5,3.33,5.43,10.57,1.06,3.96,2.24,9.88,2.28,17.36Z"/>
        <path class="cls-13" d="M402.94,158.82c-1.95-1.02-4.83-2.75-7.7-5.56-1.66-1.61-10.48-10.22-7.78-16.26,1.3-2.9,5.16-4.99,7.82-4.1,1.72.57,2.86,2.37,4.64,9.33,1.06,4.13,2.25,9.74,3.02,16.59Z"/>
        <path class="cls-11" d="M724.9,591.37c-3.02-1.32-8.06-4.06-11.85-9.48-3.82-5.45-6.79-14.21-3.95-16.59,2.25-1.89,8.24.15,11.06,3.95,1.6,2.15,1.58,4.06,2.37,9.48.47,3.22,1.2,7.53,2.37,12.64Z"/>
        <path class="cls-1" d="M318.08,265.18c.65,7.66,2.52,15.08,5.52,22.15.34.81,1.52.97,2.2.58.83-.47.92-1.41.58-2.2-2.76-6.51-4.47-13.48-5.08-20.53-.18-2.05-3.4-2.07-3.22,0h0Z"/>
        <path class="cls-1" d="M307.67,286.94c1.85,7.63,6.2,14.6,12.29,19.56.67.55,1.62.66,2.28,0,.57-.57.68-1.73,0-2.28-5.69-4.65-9.73-11-11.46-18.14-.49-2.01-3.6-1.16-3.11.86h0Z"/>
        <path class="cls-7" d="M697.8,109.6c7.01,2.92,12.29,9.38,14,16.74.47,2.02,3.58,1.16,3.11-.86-1.99-8.54-8.2-15.64-16.25-18.99-.8-.33-1.77.36-1.98,1.13-.25.93.32,1.65,1.13,1.98h0Z"/>
        <path class="cls-7" d="M643.27,144.38c1.27,6.73,5.01,12.98,10.36,17.27.68.54,1.62.66,2.28,0,.56-.56.68-1.73,0-2.28-4.97-3.99-8.34-9.58-9.53-15.84-.16-.86-1.19-1.34-1.98-1.13-.9.25-1.29,1.12-1.13,1.98h0Z"/>
        <path class="cls-1" d="M506.21,158.27c3.88,3.87,7.42,8.07,10.55,12.58.5.71,1.41,1.04,2.2.58.71-.41,1.08-1.49.58-2.2-3.28-4.73-6.97-9.17-11.05-13.23-1.47-1.47-3.75.81-2.28,2.28h0Z"/>
        <path class="cls-11" d="M296.15,532.43c1.14,2.33,2.29,4.65,3.43,6.98.37.76,1.51,1.03,2.2.58.78-.5.98-1.39.58-2.2-1.14-2.33-2.29-4.65-3.43-6.98-.37-.76-1.51-1.03-2.2-.58-.78.5-.98,1.39-.58,2.2h0Z"/>
        <path class="cls-11" d="M290.78,541.83c.84,1.81,2.22,3.33,3.85,4.46.33.23.87.27,1.24.16.37-.1.78-.39.96-.74.2-.37.3-.83.16-1.24-.13-.42-.38-.71-.74-.96-.15-.11-.31-.22-.46-.33.11.08.22.17.33.25-.64-.5-1.22-1.08-1.72-1.73l.25.33c-.43-.57-.8-1.17-1.1-1.82-.16-.35-.61-.64-.96-.74-.39-.11-.9-.06-1.24.16-.34.22-.65.55-.74.96-.02.14-.04.29-.06.43,0,.29.07.56.22.81h0Z"/>
        <path class="cls-1" d="M335.58,208.43c-.8,2.9-1.6,5.79-2.4,8.68-.22.81.28,1.79,1.13,1.98.85.19,1.74-.26,1.98-1.13.8-2.9,1.6-5.79,2.4-8.68.22-.81-.28-1.79-1.13-1.98-.85-.19-1.74.26-1.98,1.13h0Z"/>
        <path class="cls-7" d="M458.78,200.5c.53,2.37,1.78,4.58,3.49,6.29.6.6,1.69.64,2.28,0,.59-.64.64-1.64,0-2.28-.18-.19-.36-.37-.54-.57-.08-.09-.16-.19-.24-.28-.05-.06-.1-.12-.14-.18.03.05.21.28.08.11-.31-.42-.6-.86-.85-1.32-.12-.22-.23-.44-.34-.66-.03-.07-.06-.14-.1-.21-.02-.05-.11-.26-.01-.02.1.24.01.03,0-.02-.02-.06-.04-.11-.07-.17-.19-.5-.34-1.02-.46-1.55-.19-.82-1.18-1.38-1.98-1.13-.86.28-1.32,1.1-1.13,1.98h0Z"/>
        <path class="cls-12" d="M293.75,427.82c7.51,1.69,11.04,9.56,11.59,16.57.35,4.45-.11,8.92-.51,13.35-.43,4.73-.86,9.45-1.29,14.18-.19,2.06,3.04,2.05,3.22,0,.46-5.08.92-10.15,1.38-15.23.44-4.9.84-9.82.15-14.72-1.08-7.6-5.7-15.48-13.68-17.27-2.02-.45-2.88,2.65-.86,3.11h0Z"/>
        <path class="cls-12" d="M944.83,493.29c3.26,6.68,7.53,12.84,12.61,18.26,1.42,1.52,3.7-.77,2.28-2.28-4.91-5.23-8.97-11.17-12.11-17.61-.91-1.86-3.69-.23-2.78,1.63h0Z"/>
        <path class="cls-12" d="M453.47,555.43c.49,12.93,6.31,25.41,15.98,34.03,1.54,1.37,3.83-.9,2.28-2.28-9.05-8.05-14.58-19.63-15.04-31.75-.08-2.07-3.3-2.08-3.22,0h0Z"/>
        <path class="cls-10" d="M460.18,641.9c-4.99,6.03-11.86,12.25-20.18,12.22-8.13-.02-14.61-6.28-19.13-12.43-4.88-6.64-8.64-14.24-14.88-19.78-3.33-2.96-7.22-4.99-11.33-6.64-4.19-1.68-8.51-3.07-12.92-4.04-9.9-2.19-20.47-2.34-29.97,1.56-1.89.78-1.06,3.9.86,3.11,8.61-3.53,18.06-3.65,27.09-1.81,4.51.92,8.93,2.28,13.22,3.94,4.17,1.62,8.13,3.66,11.42,6.74,6.18,5.79,9.84,13.61,15.01,20.21,4.84,6.18,11.42,11.81,19.6,12.33,9.58.61,17.77-6.19,23.51-13.13,1.31-1.59-.96-3.88-2.28-2.28h0Z"/>
        <path class="cls-13" d="M923.13,337.22c16.65,8.96,29.58,25.22,33.82,43.75,1.22,5.35,1.53,11.28-1.63,16.04-1.15,1.73,1.64,3.35,2.78,1.63,5.88-8.85,1.99-20.96-1.84-29.84-4-9.26-10.05-17.66-17.51-24.44-4.24-3.85-8.94-7.2-13.99-9.91-1.83-.98-3.46,1.8-1.63,2.78h0Z"/>
      </g>
      <g id="Lock">
        <g>
          <path class="cls-1" d="M787.28,252.01c-5.64,40.42-12.88,80.68-21.44,120.58-11.01,51.34-21.2,120.99-56.76,161.02-20.82,23.43-44.69,42.34-72.71,57.41-17.36,9.34-35.66,17.19-47.4,33.82-.05,0-.05.05-.05.05-11.68-15.36-29.98-20.91-47.05-28.04-27.81-11.63-51.57-27.81-72.23-49.03-35.77-36.73-44.97-107.22-55.09-156.2-8.2-39.65-14.97-79.68-20.15-119.84,69.79-37.83,139.14-81.81,197.08-136.63l.05.05c57.4,49.5,126.79,86.58,195.76,116.8Z"/>
          <path class="cls-11" d="M424.86,288.68c4.36,33.89,10.07,67.67,16.96,101.14,8.49,41.27,16.2,101.07,46.49,131.89,17.61,17.92,37.42,31.47,61.02,41.44,14.35,6.06,30.12,10.65,39.84,23.75,9.74-14.11,25.5-20.66,40.07-28.5,23.74-12.77,44.06-28.78,61.53-48.53,29.94-33.84,38.54-92.46,47.86-136.11,7.2-33.74,13.27-67.78,18-101.96-58.24-25.65-116.8-56.81-165.3-98.63-49,46.33-107.5,83.46-166.47,115.52Z"/>
          <g>
            <path class="cls-3" d="M638.74,329.35l-.34,51.62c-5.88.32-8.82.48-14.7.8.11-17.21.21-34.43.32-51.64.14-17.65-14.81-35.3-33.36-33.88-18.26,1.4-34.29,18.79-33.74,37.41-.07,17.25-.15,34.5-.22,51.75-5.88.32-8.82.48-14.7.8.07-17.26.14-34.51.2-51.77.52-26.13,20.98-52.78,48.53-53.58,26.41-.77,48.96,21.86,48,48.51Z"/>
            <path class="cls-3" d="M656.6,471.21c-44.58,2.55-89.17,5.1-133.75,7.65.14-40.38.28-80.76.41-121.14,44.73-2.38,89.45-4.77,134.18-7.15-.28,40.21-.56,80.43-.85,120.64Z"/>
            <path class="cls-17" d="M595.69,418.7c2.19,10.46,3.28,15.69,5.46,26.14-9.51.53-14.27.8-23.78,1.34,2.29-10.71,3.44-16.07,5.74-26.78-3.34-1.92-5.58-5.47-5.56-9.69.03-6.6,5.39-12.13,11.96-12.49,6.57-.36,11.88,4.59,11.84,11.18-.02,4.22-2.3,8.01-5.66,10.31Z"/>
          </g>
        </g>
      </g>
      <g id="Woman">
        <g id="Woman-2" data-name="Woman">
          <g>
            <g>
              <path class="cls-12" d="M844.36,546.91c3.91-.51,21.96,4.28,32.82,24.16,4.01-2.84,9.9-7.73,15.14-15.32,5.13-7.42,7.61-14.49,8.87-19.2-4.82-2.89-10.61-5.9-17.35-8.61-8.75-3.51-16.79-5.57-23.49-6.8-6.6,14.86-9.39,10.92-15.99,25.77Z"/>
              <g>
                <path class="cls-12" d="M875.83,561.86c.34,1.39.77,3.32,1.17,5.65.61,3.53,1.85,11.92,1.04,22.56-.78,10.2-3.09,18.06-4.61,23.09-1.93,6.41-3.37,9.27-2.75,13.83.77,5.72,4.22,10,6.99,12.72,7.31-5.36,15.18-11.98,23.02-20.09,19.93-20.63,31.29-42.3,37.83-58.26-3.05-2.92-6.86-6.14-11.49-9.26-6.14-4.13-31.24-20.41-40.46-23.03-1.54,2.69-12.4,21.26-16.86,21.68,2.04,3.7,4.08,7.41,6.13,11.11Z"/>
                <path class="cls-14" d="M878.4,639.79c10.24-7.15,19.69-15.37,28.12-24.6,9.82-10.75,18.27-22.73,24.96-35.66,2.86-5.53,5.39-11.22,7.68-17.01.64-1.62-1.76-2.93-2.4-1.3-4.35,11.02-9.66,21.63-16.17,31.54-8.01,12.18-17.72,23.3-28.64,32.96-4.76,4.21-9.78,8.12-14.99,11.76-1.43,1,0,3.32,1.45,2.31h0Z"/>
              </g>
            </g>
            <g>
              <path class="cls-19" d="M880.34,605.2c2.33-1.93,5.66-2.67,8.59-2.06.72.15,1.47-.28,1.65-1.01.17-.7-.28-1.49-1.01-1.65-4-.83-8.09.26-11.22,2.85-.57.47-.43,1.47.06,1.93.59.56,1.36.41,1.93-.06h0Z"/>
              <path class="cls-19" d="M881.82,594.43c2.52-2.73,5.99-4.64,9.62-5.2.73-.11,1.34-.61,1.32-1.41-.02-.67-.68-1.43-1.41-1.32-4.41.68-8.48,2.77-11.52,6.06-1.19,1.29.8,3.16,1.99,1.86h0Z"/>
              <path class="cls-19" d="M929.17,560.22c-8.19,20.08-19.6,38.5-34.61,54.2-4.3,4.5-8.83,8.76-13.53,12.83-1.33,1.15.68,3,1.99,1.86,16.43-14.24,30.34-31.01,40.51-50.27,2.97-5.63,5.63-11.43,8.04-17.33.66-1.61-1.74-2.92-2.4-1.3h0Z"/>
              <path class="cls-5" d="M914.32,550.12c2.95,3.41,2.96,8.23.03,10.77-2.94,2.54-7.71,1.84-10.66-1.58-2.95-3.41-2.96-8.23-.03-10.77,2.94-2.54,7.71-1.83,10.66,1.58Z"/>
            </g>
          </g>
          <g>
            <g>
              <path class="cls-12" d="M806.46,422.18c.92-3.83,9.19-10.81,34.32-21.98-1.22-4.77-3.67-12.01-8.87-19.62-5.09-7.45-10.8-12.3-14.74-15.17-4.42,3.47-9.31,7.79-14.25,13.11-6.41,6.91-11.22,13.68-14.77,19.49,11.5,11.49,6.83,12.68,18.33,24.16Z"/>
              <g>
                <path class="cls-12" d="M831.7,398.16c1.42.19,3.38.48,5.69.93,3.51.69,11.79,2.55,21.43,7.12,9.24,4.38,15.75,9.36,19.91,12.58,5.3,4.1,7.45,6.47,11.93,7.53,5.61,1.33,10.85-.35,14.38-1.97-2.39-8.75-5.74-18.47-10.5-28.69-12.11-26-28.27-44.38-40.83-56.2-3.82,1.8-8.19,4.2-12.76,7.41-6.06,4.25-30.25,21.85-36.01,29.52,1.96,2.4,15.41,19.2,14.19,23.51,4.19-.58,8.38-1.16,12.57-1.74Z"/>
                <path class="cls-14" d="M905.36,423.7c-3-12.12-7.29-23.9-12.88-35.06-6.51-13.02-14.67-25.2-24.34-36.08-4.14-4.65-8.54-9.06-13.13-13.27-1.28-1.17-3.36.59-2.07,1.78,8.73,8.01,16.73,16.77,23.65,26.4,8.5,11.85,15.4,24.89,20.51,38.55,2.22,5.96,4.07,12.04,5.6,18.21.42,1.7,3.1,1.18,2.68-.53h0Z"/>
              </g>
            </g>
            <g>
              <path class="cls-19" d="M873.77,409.49c-.96-2.87-.46-6.24,1.16-8.76.4-.62.27-1.47-.35-1.9-.59-.41-1.5-.27-1.9.35-2.21,3.44-2.66,7.65-1.36,11.5.23.7,1.22.92,1.82.63.73-.36.87-1.12.63-1.82h0Z"/>
              <path class="cls-19" d="M864.25,404.24c-1.65-3.33-2.18-7.26-1.41-10.84.16-.72-.09-1.47-.84-1.74-.63-.22-1.58.12-1.74.84-.94,4.37-.45,8.91,1.53,12.93.78,1.58,3.23.39,2.45-1.19h0Z"/>
              <path class="cls-19" d="M849.29,347.78c15.81,14.84,28.92,32.1,38.2,51.74,2.66,5.62,5.01,11.38,7.13,17.23.6,1.65,3.05.45,2.45-1.19-7.4-20.44-18.07-39.44-32.41-55.84-4.19-4.8-8.65-9.35-13.3-13.71-1.27-1.19-3.35.57-2.07,1.78h0Z"/>
              <path class="cls-5" d="M834.53,358.02c4.24-1.53,8.75.19,10.07,3.84,1.32,3.65-1.05,7.85-5.29,9.39-4.24,1.53-8.75-.19-10.07-3.84-1.32-3.65,1.05-7.85,5.29-9.39Z"/>
            </g>
          </g>
          <path class="cls-2" d="M735.82,300.48c-1.38,4.8-2.76,9.59-4.15,14.39-16.51,23.09-27.1,44.07-33.83,59.55-7.01,16.13-13.76,35.33-15.89,59.09-2.2,24.62,2.64,30.96,4.65,33.17,4.08,4.48,13.81,10.87,44.4,4.64,21.86-4.45,61.45-16.78,107.75-57.31-4.65-2.01-16.56-7.89-25.31-21.38-8.51-13.11-9.2-25.98-9.21-31.07-21.18,13.12-42.37,26.24-63.55,39.35,5.61-21.68,11.22-43.37,16.83-65.05-1.8-13.45-3.6-26.89-5.4-40.34-5.43,1.65-10.86,3.3-16.29,4.96Z"/>
          <g>
            <path class="cls-19" d="M738.49,339.01c-2.73,7.17-5.46,14.34-8.17,21.52-4.65,12.3-9.3,24.59-13.84,36.93-1.42,3.87-2.87,7.73-4.17,11.64-.71,2.13-1.23,4.34-1.45,6.58-.26,2.6-.01,5.23,1.33,7.52,1.35,2.29,3.69,3.88,6.08,4.94,2.84,1.26,5.97,2,9.07,2.18,1.72.1,3.51.15,5.21-.23,2.02-.45,3.97-1.23,5.88-2.03,6.3-2.61,12.41-5.71,18.5-8.77,13.7-6.89,27.19-14.35,41.23-20.53,1.15-.51,2.31-1,3.48-1.46,1.63-.64.65-3.19-.99-2.54-5.79,2.28-11.37,5.1-16.92,7.87-7.23,3.61-14.41,7.32-21.62,10.99-6.58,3.35-13.16,6.7-19.87,9.78-2.41,1.11-4.84,2.19-7.33,3.11-2.32.85-3.58,1.17-6.22,1.14-3.11-.04-6.27-.69-9.12-1.93-2.3-1-4.57-2.51-5.53-4.94-.94-2.4-.52-5.1-.01-7.55.14-.66.3-1.31.45-1.97.1-.45-.1.28.07-.23,1.09-3.38,2.34-6.72,3.56-10.06,4.38-11.96,8.88-23.88,13.39-35.79,3.11-8.22,6.3-16.41,9.36-24.65.05-.13.1-.26.15-.38.62-1.64-1.86-2.77-2.49-1.13h0Z"/>
            <path class="cls-19" d="M795.4,377.05c.49,7.56,1.86,15.4,6.25,21.75,4.44,6.43,11.43,10.38,18.1,14.1,1.54.86,2.65-1.64,1.13-2.49-6.26-3.49-12.85-7.19-17.02-13.22-4.12-5.96-5.29-13.37-5.74-20.45-.11-1.75-2.82-1.44-2.71.31h0Z"/>
          </g>
          <path class="cls-2" d="M776.5,289.97c3.24,5.23,8.43,16,12.23,26.84,9.36,26.72,5.53,45.58,6.93,66.44,2.15,31.87,15.63,55.31,23.83,69.57,23.75,41.28,61.64,62.76,85.33,73.15-1.75,7.74-5.24,18.67-12.71,29.97-14.03,21.24-33.42,30.7-42.07,34.28-34.76-31.97-55.92-63.96-68.26-85.97-11.15-19.89-25.15-45.35-32.19-82.17-7.06-36.9-3.85-68.01-.32-87.5-.99-11.6-8.18-24.64-9.17-36.23,10.26-2.46,26.15-5.91,36.41-8.37Z"/>
          <path class="cls-15" d="M891.05,555.07c-8.63,13-20.62,23.54-34.5,30.63-2.29,1.17-4.63,2.25-7.01,3.23l1.36.21c-13.57-12.49-26.18-26.01-37.64-40.46-8.97-11.31-17.24-23.18-24.71-35.53-5.69-9.4-10.89-19.09-15.69-28.98-6.4-13.17-12.16-26.7-16.79-40.6-4.67-14.02-8.43-28.72-8.76-43.58-.04-1.64-.02-3.27.05-4.91.07-1.73-2.62-2.18-2.7-.42-.64,14.83,2.62,29.64,6.9,43.75,4.4,14.51,10.17,28.6,16.63,42.31,4.81,10.21,10.02,20.23,15.73,29.97,7.11,12.13,14.98,23.81,23.53,34.97,11.03,14.4,23.2,27.94,36.3,40.49,1.79,1.72,3.6,3.41,5.43,5.09.35.32.93.39,1.36.21,12.24-5.08,23.45-12.61,32.63-22.18,3.7-3.86,7.04-8.05,10-12.51.96-1.45-1.14-3.19-2.11-1.73h0Z"/>
          <path class="cls-15" d="M787.46,317.31c3.56,10.23,5.58,20.82,6.2,31.63.53,9.16.14,18.34.34,27.5.44,19.39,5.03,38.24,13.1,55.85,3.36,7.32,7.27,14.36,11.28,21.34.88,1.52,3.07-.1,2.21-1.61-7.92-13.77-15-27.91-19.24-43.29-2.72-9.88-4.22-20.05-4.58-30.29-.32-9.07.1-18.15-.28-27.22-.49-11.92-2.57-23.62-6.5-34.9-.58-1.66-3.12-.67-2.54.99h0Z"/>
          <g>
            <path class="cls-19" d="M775.29,342.43c-1.01,7.93-1.12,15.98-.96,23.96.2,9.25.85,18.48,1.79,27.68,1.72,16.84,4.14,33.83,8.57,50.19,1.35,5,3.06,9.8,5.38,14.43,2.95,5.89,6.35,11.56,9.91,17.1,9.22,14.4,19.65,28.13,31.22,40.72,5.81,6.33,11.94,12.39,18.6,17.84,5.68,4.65,11.82,8.96,18.54,11.97,1.45.65,2.93,1.23,4.44,1.73,1.65.55,2.79-1.94,1.13-2.49-6.6-2.18-12.6-5.88-18.14-10.01-6.6-4.91-12.66-10.53-18.38-16.43-11.98-12.34-22.64-26.04-32.18-40.33-3.83-5.73-7.51-11.59-10.79-17.66-2.39-4.41-4.48-8.91-5.97-13.71-2.08-6.67-3.54-13.53-4.83-20.38-1.67-8.81-2.98-17.68-4.03-26.58-1.09-9.2-1.89-18.44-2.31-27.69-.37-8.25-.47-16.55.19-24.79.14-1.72.31-3.44.53-5.15.22-1.74-2.47-2.17-2.7-.42h0Z"/>
            <path class="cls-19" d="M884.35,524.42c-6.15,15.8-15.75,30.14-27.99,41.87-3.44,3.3-7.11,6.36-10.94,9.21-1.41,1.05.19,3.25,1.61,2.21,13.89-10.31,25.42-23.65,33.66-38.86,2.33-4.3,4.38-8.74,6.15-13.29.64-1.63-1.85-2.76-2.49-1.13h0Z"/>
          </g>
        </g>
        <g>
          <g>
            <path class="cls-16" d="M735.53,250.53c-7.74,28.29-30.06,62.45-40.65,67.15-9.25,4.11-52.09-11.74-68.26-22.04-4.61-2.94,14.41-29.42,19.96-27.58,18.09,6.03,37.79,14.95,39.31,14.43,3.08-1.04,22.29-24.61,36.28-40.45,15.67-17.75,16.44-2.79,13.36,8.49Z"/>
            <g>
              <path class="cls-16" d="M596.02,271.72c-3.64-1.53-31.69-2.42-31.68-8.5.01-6.08,35.7-4.38,35.7-4.38l-4.02,12.88Z"/>
              <path class="cls-16" d="M649.81,272.43c-4.9-6.09-9.21-12.66-13.47-13.86-2.95-.83-34.7.54-39.67.24-4.96-.3-22.66.16-23.07,4.51-.58,6.15,20.37,6.09,22.61,9.24,7.72,10.85,37.07,26.89,37.07,26.89l16.54-27.01Z"/>
            </g>
          </g>
          <path class="cls-6" d="M651.02,268.67l-25.12,36.79s38.96,19.5,53.82,19.15c14.18-.34,19.32-2.43,23.79-6.65,2.77-2.61,18.54-24.88,31.4-61.87,10.79-31.04-5.17-26.47-19.41-9.28-7.1,8.57-29.79,34.1-30.92,34-1.13-.1-33.55-12.14-33.55-12.14Z"/>
          <g>
            <rect class="cls-8" x="579.96" y="253.57" width="95.26" height="5.12"/>
            <g>
              <polygon class="cls-8" points="629.69 258.69 565.98 258.69 532.83 202.38 596.53 202.38 629.69 258.69"/>
              <path class="cls-17" d="M583.64,230.5c1.19,2.61.31,5.35-1.95,6.12-2.27.78-5.07-.71-6.26-3.31-1.19-2.61-.31-5.35,1.95-6.12,2.27-.78,5.07.71,6.26,3.31Z"/>
            </g>
          </g>
        </g>
        <path class="cls-6" d="M812.71,332.42c-.23.21-99.74-.56-100.64-1.41-1.25-1.19,8.5-87.53,18.82-98.32,2.21-2.31,23.04-4.53,29.16-3.84,1.7.18,3.3.47,4.71.84.03.01.09.02.16.04,1.42.39,2.62.87,3.45,1.42,16.93,11.31,30.87,50.38,34.11,62.1,5.36,19.31,11.06,38.42,10.23,39.18Z"/>
        <g>
          <path class="cls-6" d="M783.77,243.33c25.9,26.25,58.48,81.47,52.4,92.66-6.76,12.47-42.83-24.33-42.69-26.48.1-1.62-12.58-35.16-22.2-59.56-9.61-24.37,6.09-13.12,12.49-6.62Z"/>
          <g>
            <g>
              <path class="cls-16" d="M836.18,335.99c-5.83,8.34-21.7,9.93-61.27,17.68-5.48,1.07-23.44-35.54-17.66-36.99,7.29-1.82,35.99-7.31,38.13-7.45,18.13-1.15,44.75,21.1,40.79,26.75Z"/>
              <path class="cls-16" d="M765.16,314.88s-16.77,2.53-25.16,6.59c-11.24,5.43-18.71,14.75-21.61,18.85-6.04,8.55-14.74,33.39-8.02,37.15,6.08,3.4,13.69-22.45,13.69-22.45,0,0-12.11,25.07-4.03,27.82,8.08,2.75,15.2-27.76,15.2-27.76,0,0-11.86,26.04-3.09,27.55,6.63,1.14,14.64-26.12,14.64-26.12,0,0-10.04,22.45-3.27,23.92,7.48,1.62,16.45-23.08,16.45-23.08,17.84.84,26.67-6.05,32.37-11.71,1.38-1.37-27.18-30.76-27.18-30.76Z"/>
            </g>
            <path class="cls-6" d="M761.67,314.88l34.68,38.61s35.06-8.05,40.23-17.04c3.4-5.92-23-29.9-42.93-27.1l-31.98,5.53Z"/>
          </g>
        </g>
        <g>
          <g>
            <path class="cls-16" d="M722.41,194.21c-5.15,12.45-2.37,25.42,6.21,28.97,8.58,3.55,19.71-3.66,24.87-16.11,5.15-12.45,2.37-25.42-6.21-28.97-8.58-3.55-19.71,3.66-24.87,16.11Z"/>
            <path class="cls-16" d="M733.75,221.58c.83.69,1.97,1.79,2.94,3.41.37.62.76,1.38,1.47,3.42.5,1.44,1.13,3.42,1.72,5.84,1.33.04,2.81-.01,4.38-.23,6-.83,10.45-3.6,13.05-5.59-.9-2.17-1.79-4.68-2.54-7.49-1.04-3.93-1.56-7.51-1.8-10.54-1.19.18-2.43.45-3.71.82-7.5,2.19-12.58,6.95-15.51,10.36Z"/>
            <path class="cls-16" d="M749.61,202.86c-1.38,3.84-.09,7.82,2.89,8.89,2.98,1.07,6.52-1.17,7.9-5.01,1.38-3.84.09-7.82-2.89-8.89-2.98-1.07-6.52,1.17-7.9,5.01Z"/>
            <path class="cls-15" d="M725.02,185.92c1.04,2.76,3.07,4.4,4.98,5.9,7.27,5.71,15.85,5.66,19.42,5.41.86,2.04,1.72,4.07,2.58,6.11,1.13-2.78,3.65-4.08,5.27-3.5,1.88.66,2.25,3.7,1.87,5.61-.53,2.73-2.8,4.14-3.25,4.41,3.22.39,7.49.26,10.97-2.21,7.89-5.6,7.13-19.87,2.55-28.72-6.12-11.82-22.25-20.12-33.53-14.52-7.65,3.79-13.6,14.23-10.86,21.51Z"/>
            <path class="cls-15" d="M727.91,176.07c-2.94,5.24-3.56,12.23.34,17.19,3.33,4.23,9.17,5.53,14.27,4.51,3.41-.69,6.45-2.47,8.92-4.88,1.26-1.23,2.94.92,1.7,2.14-4.8,4.7-11.87,6.93-18.45,5.27-6.43-1.62-11.03-6.76-11.79-13.38-.47-4.1.48-8.28,2.49-11.87.85-1.51,3.39-.5,2.53,1.03h0Z"/>
            <path class="cls-15" d="M726.81,199.81c-.66-.1-1.32-.21-1.98-.31-.1-.02-.19-.03-.29-.05-.35-.05-.68-.23-.9-.51-.21-.27-.34-.68-.28-1.02.06-.34.22-.69.51-.9.29-.21.65-.34,1.02-.28.66.1,1.32.21,1.98.31.1.02.19.03.29.05.35.05.68.23.9.51.21.27.34.68.28,1.02-.06.34-.22.69-.51.9-.29.21-.65.34-1.02.28h0Z"/>
            <path class="cls-17" d="M726.51,200.44c-.76,4.83,1.16,9.14,4.29,9.63,3.13.49,6.28-3.02,7.04-7.85.76-4.83-1.16-9.14-4.29-9.63-3.13-.49-6.28,3.02-7.04,7.85Z"/>
            <path class="cls-17" d="M715.78,197.96c-.69,4.4.7,8.28,3.12,8.66,2.41.38,4.93-2.88,5.62-7.28.69-4.4-.7-8.28-3.12-8.66-2.41-.38-4.93,2.88-5.62,7.28Z"/>
            <g>
              <path class="cls-15" d="M755.07,173.07c.94,6.61,7.07,11.21,13.69,10.27s11.21-7.07,10.27-13.69c-.94-6.61-7.07-11.21-13.69-10.27-6.61.94-11.21,7.07-10.27,13.69Z"/>
              <path class="cls-15" d="M776.07,163.82c5.52,3.61,8.87,10.59,6.67,17.06-1,2.93-3.08,5.48-5.77,7.01-2.66,1.52-6.49,2.11-8.97-.07-1.31-1.15.32-3.34,1.64-2.18,1.86,1.63,4.77.76,6.6-.49,2.03-1.38,3.52-3.53,4.15-5.9,1.39-5.2-1.69-10.46-5.96-13.26-1.47-.96.17-3.14,1.64-2.18h0Z"/>
            </g>
          </g>
          <path class="cls-15" d="M729.17,201.17c.08,1.18.78,2.1,1.57,2.05.79-.05,1.37-1.05,1.29-2.23-.08-1.18-.78-2.1-1.57-2.05-.79.05-1.37,1.05-1.29,2.23Z"/>
          <path class="cls-15" d="M718.6,199.51c.08,1.18.78,2.1,1.57,2.05.79-.05,1.37-1.05,1.29-2.23-.08-1.18-.78-2.1-1.57-2.05-.79.05-1.37,1.05-1.29,2.23Z"/>
          <path class="cls-15" d="M735.15,197.86c-.2-.33-.43-.64-.69-.93-.05-.05-.1-.1-.14-.15-.18-.2.25.22.04.04-.12-.11-.24-.21-.36-.31-.13-.11-.27-.21-.42-.3-.06-.04-.18-.09-.23-.14.16.09.19.11.1.06-.04-.02-.08-.05-.13-.07-.18-.09-.36-.17-.54-.24-.11-.04-.21-.08-.32-.11-.08-.02-.37-.17-.1-.03-.17-.08-.45-.09-.63-.11-.19-.02-.39-.03-.58-.04-.28-.01.3-.02,0,0-.08,0-.17,0-.25.02-.14.01-.27.03-.41.05-.22.03-.44.08-.65.14-.69.19-1.48-.49-1.54-1.16-.08-.81.42-1.34,1.16-1.54,2.92-.79,6.27.55,7.83,3.15.2.33.34.62.28,1.02-.04.33-.24.7-.51.9-.53.39-1.52.43-1.92-.22h0Z"/>
          <path class="cls-15" d="M721.75,194.22c-.3-.16-.6-.28-.92-.38-.21-.07.27.06.11.03-.06-.01-.12-.03-.18-.04-.14-.03-.28-.05-.43-.06-.07,0-.14-.01-.21-.02-.03,0-.06,0-.09,0-.12,0-.12,0,0,0,.2-.06-.02,0-.09,0-.09,0-.19.01-.28.03-.16.02-.32.05-.49.09-.31.06.2-.07.03-.01-.07.03-.15.05-.22.07-.15.05-.29.12-.44.19-.06.03-.12.06-.18.09-.03.02-.26.15-.05.02.2-.12.01,0-.03.03-.06.04-.11.08-.17.12-.08.06-.16.12-.24.19-.12.1-.24.21-.35.33-.23.23-.71.32-1.02.28-.33-.04-.7-.24-.9-.51-.21-.29-.35-.66-.28-1.02.06-.37.24-.63.51-.9,1.75-1.79,4.72-2.23,6.92-1.04.32.17.58.37.74.72.14.31.16.75.01,1.06-.28.61-1.11,1.11-1.78.75h0Z"/>
        </g>
        <path class="cls-12" d="M723.92,347.57c-5.09,6.74-8.15,14.79-8.99,23.18-.19,1.92,2.81,1.91,3,0,.79-7.87,3.82-15.37,8.58-21.67,1.16-1.54-1.44-3.04-2.59-1.51h0Z"/>
        <path class="cls-12" d="M732.49,353.54c-2.46,6.85-4.61,13.8-6.46,20.84-.49,1.87,2.4,2.67,2.89.8,1.85-7.04,4-13.99,6.46-20.84.65-1.82-2.24-2.6-2.89-.8h0Z"/>
        <path class="cls-12" d="M744.11,355.18l-3.71,13.33-.92,3.28c-.27.96-.74,2.04-.73,3.04,0,1.87,1.76,3.32,3.39,1.99.63-.52.53-1.58,0-2.12-.61-.63-1.5-.51-2.12,0l.39-.25h.8c.38.48.56.58.53.32-.02.2,0,.18.05-.06.22-.34.27-.96.38-1.35l.65-2.32,1.4-5.02,2.8-10.04c.52-1.86-2.37-2.66-2.89-.8h0Z"/>
        <path class="cls-12" d="M786.75,348.61c-7.95,3.61-16.6,5.55-25.33,5.74-1.93.04-1.93,3.04,0,3,9.29-.2,18.39-2.31,26.84-6.15,1.76-.8.23-3.38-1.51-2.59h0Z"/>
        <path class="cls-12" d="M576.6,259.55c-1.25,3.05-.6,6.66,1.44,9.21s5.42,3.65,8.61,3.21c.8-.11,1.24-1.14,1.05-1.85-.24-.87-1.04-1.16-1.85-1.05.25-.03-.19,0-.23.01-.16,0-.32.01-.48.01s-.32,0-.48-.02c-.05,0-.48-.05-.23-.02-.58-.08-1.15-.24-1.69-.45.2.08-.19-.08-.23-.1-.14-.07-.28-.14-.42-.22-.28-.16-.55-.33-.8-.52.18.13-.2-.16-.19-.16-.1-.09-.2-.18-.29-.27-.18-.18-.48-.49-.57-.62-.65-.84-1.09-1.96-1.22-3-.14-1.15,0-2.19.49-3.38.31-.75-.33-1.65-1.05-1.85-.86-.24-1.54.29-1.85,1.05h0Z"/>
        <path class="cls-12" d="M756.08,227.52c-5.13,3.16-11.13,4.48-17.12,3.83-.81-.09-1.5.75-1.5,1.5,0,.88.69,1.41,1.5,1.5,6.47.71,13.1-.83,18.63-4.24,1.64-1.01.14-3.61-1.51-2.59h0Z"/>
        <path class="cls-12" d="M777.19,276.12c4.46,5.58,7.62,12.16,9.24,19.11.35,1.49,1.09,3.42-.4,4.47s-3.45,1.84-5.14,2.67c-3.56,1.74-7.17,3.37-10.84,4.87-4.15,1.7-8.36,3.25-12.62,4.65-1.28.42-1.41,1.99-.36,2.74,11.67,8.27,21.88,18.62,29.97,30.41,2.3,3.36,4.43,6.83,6.39,10.4.93,1.69,3.52.18,2.59-1.51-7.07-12.87-16.43-24.5-27.52-34.13-3.17-2.75-6.49-5.34-9.91-7.77l-.36,2.74c8.42-2.78,16.65-6.12,24.6-10.03,1.77-.87,3.77-1.66,5.32-2.9s1.95-2.91,1.7-4.77c-.53-3.95-1.89-7.86-3.48-11.49-1.82-4.17-4.21-8.03-7.05-11.59-1.2-1.51-3.31.63-2.12,2.12h0Z"/>
        <path class="cls-12" d="M711.92,286.89c1.38,7.22,1.11,14.62.59,21.92-.52,7.39-1.13,14.76-1.7,22.15-.15,1.93,2.85,1.92,3,0,.58-7.54,1.22-15.08,1.74-22.63s.67-14.89-.73-22.23c-.36-1.89-3.25-1.09-2.89.8h0Z"/>
      </g>
      <g id="Man">
        <g>
          <g>
            <path class="cls-12" d="M367.46,610.47c.64,1.16,1.56,2.74,2.75,4.57,1.8,2.78,6.22,9.26,13.45,16,6.93,6.45,13.43,10.34,17.62,12.82,5.34,3.15,8.11,4.2,10.55,7.69,3.06,4.37,3.41,9.45,3.22,13.04-8.34.94-17.84,1.38-28.26.78-26.5-1.53-47.83-9.14-62.29-15.89.24-3.91.81-8.48,2.01-13.51,1.58-6.66,8.44-33.49,13.07-41.06,2.74.87,21.78,6.68,25.07,4.17.94,3.8,1.87,7.6,2.81,11.41Z"/>
            <path class="cls-14" d="M414.16,662.51c-11.4,1.55-22.92,1.86-34.38.84-13.2-1.17-26.2-4.01-38.64-8.57-5.26-1.93-10.4-4.15-15.44-6.59-1.56-.75-2.53,1.76-.98,2.51,9.98,4.82,20.37,8.74,31.14,11.39,13.3,3.28,27.04,4.82,40.74,4.51,6.03-.14,12.04-.62,18.01-1.43,1.71-.23,1.27-2.89-.44-2.65h0Z"/>
          </g>
          <g>
            <path class="cls-19" d="M391.46,640.19c-3.6.19-7.06,2.15-9.14,5.08-.41.57-.32,1.47.29,1.88.6.4,1.44.32,1.88-.29.22-.32.46-.62.72-.91.02-.02.28-.3.08-.09.05-.06.11-.11.16-.17.14-.14.28-.27.42-.4.29-.26.59-.5.91-.72.16-.11.32-.22.48-.32-.24.16.08-.05.11-.06.08-.05.17-.1.25-.14.34-.19.69-.35,1.05-.5.18-.07.36-.14.54-.21.09-.03.18-.06.28-.09.24-.08-.1.02.06-.02.78-.19,1.54-.34,2.35-.38.7-.04,1.24-.89,1.11-1.55-.17-.78-.79-1.15-1.55-1.11h0Z"/>
            <path class="cls-19" d="M384.05,633.78c-4.15-.33-8.26.78-11.71,3.09-.6.4-.63,1.36-.2,1.89.49.61,1.29.6,1.89.2,2.85-1.91,6.36-2.78,9.74-2.51,1.72.14,2.01-2.54.28-2.68h0Z"/>
            <path class="cls-19" d="M329.25,645.26c18.38,8.61,37.98,14.04,58.27,15.31,5.85.37,11.71.41,17.56.23.73-.02,1.21-.9,1.11-1.55-.12-.8-.83-1.13-1.55-1.11-19.82.61-39.52-2.05-58.24-8.7-5.5-1.95-10.89-4.21-16.17-6.68-1.57-.74-2.54,1.77-.98,2.51h0Z"/>
            <path class="cls-5" d="M333.91,626.62c.13,4.17,3.15,7.46,6.74,7.35,3.59-.11,6.4-3.59,6.26-7.76-.13-4.17-3.15-7.46-6.74-7.35-3.59.11-6.4,3.59-6.26,7.76Z"/>
          </g>
        </g>
        <g>
          <g>
            <path class="cls-12" d="M231.23,584.03c.02,1.31.08,3.13.25,5.28.26,3.27,1.08,11,4.23,20.27,3.02,8.88,6.87,15.33,9.37,19.45,3.18,5.25,5.11,7.46,5.6,11.66.62,5.25-1.46,9.84-3.3,12.89-7.72-3.09-16.22-7.16-25.03-12.58-22.41-13.76-37.45-30.41-46.9-43.09,2.04-3.29,4.69-7.02,8.09-10.85,4.51-5.07,23.08-25.26,30.67-29.7,1.98,2.04,15.87,16.05,19.92,15.39-.97,3.76-1.93,7.51-2.9,11.27Z"/>
            <path class="cls-14" d="M247.56,651.35c-10.68-3.99-20.87-9.13-30.39-15.4-10.96-7.21-20.98-15.79-29.7-25.6-3.68-4.15-7.13-8.5-10.38-12.99-1.01-1.39-3.03.35-2.03,1.73,6.45,8.89,13.68,17.18,21.83,24.55,10.07,9.1,21.33,16.89,33.43,23.04,5.32,2.71,10.79,5.11,16.39,7.2,1.61.6,2.47-1.92.86-2.52h0Z"/>
          </g>
          <g>
            <path class="cls-19" d="M238.23,621.22c-3.23-1.52-7.17-1.43-10.36.14-.63.31-.97,1.14-.63,1.78.33.63,1.11.96,1.78.63.34-.17.7-.32,1.06-.46.03-.01.39-.13.11-.04.07-.02.15-.05.22-.07.18-.05.37-.1.56-.15.37-.09.75-.16,1.13-.2.19-.02.38-.04.57-.06-.29.02.09,0,.12,0,.1,0,.19,0,.29,0,.38,0,.77.02,1.15.06.19.02.38.04.57.07.09.01.19.03.28.05.25.04-.09-.03.06.01.77.2,1.51.43,2.23.77.63.3,1.51-.2,1.69-.83.22-.76-.15-1.37-.83-1.69h0Z"/>
            <path class="cls-19" d="M234.77,612.16c-3.47-2.24-7.57-3.19-11.67-2.79-.72.07-1.19.9-1.06,1.56.15.76.84,1.13,1.56,1.06,3.39-.33,6.85.56,9.67,2.38,1.44.93,2.94-1.27,1.5-2.2h0Z"/>
            <path class="cls-19" d="M181.56,596.47c12,16.14,26.56,30.06,43.67,40.69,4.93,3.06,10.02,5.85,15.22,8.43.65.32,1.47-.22,1.69-.83.27-.75-.19-1.37-.83-1.69-17.58-8.76-33.53-20.33-46.74-34.91-3.88-4.28-7.52-8.78-10.97-13.42-1.03-1.38-3.05.36-2.03,1.73h0Z"/>
            <path class="cls-5" d="M194.37,582.39c-1.84,3.7-.75,7.99,2.44,9.57,3.19,1.58,7.26-.13,9.1-3.83,1.84-3.7.75-7.99-2.44-9.57-3.19-1.58-7.26.13-9.1,3.83Z"/>
          </g>
        </g>
        <path class="cls-2" d="M310.13,349.94c-5.21,13-12.72,31.05-22.47,52.29-13.01,28.34-22.75,49.58-36.21,71.42-12.21,19.83-31.6,46.85-61.86,75.21,2.65,5.76,16.91,19.11,23.76,26.23,16,16.61,35.55,20.88,43.51,22.14,15.92-25.07,32.07-53.17,47.53-84.33,25.53-51.46,43.59-99.95,56.54-142.72-13.6-4.74-37.21-15.49-50.81-20.23Z"/>
        <g>
          <path class="cls-19" d="M337.42,387.7c-14.28,23.83-28.21,47.87-41.79,72.11-6.77,12.09-13.46,24.23-20.06,36.42-6.39,11.8-12.7,23.71-20.46,34.69-8.16,11.54-17.82,21.96-28.69,30.99-1.28,1.07.35,3.08,1.63,2.01,9.74-8.1,18.56-17.31,26.2-27.43,8-10.6,14.47-22.21,20.79-33.86,13.22-24.4,26.68-48.66,40.55-72.7,7.86-13.63,15.84-27.19,23.92-40.69.85-1.42-1.23-2.97-2.09-1.53h0Z"/>
          <path class="cls-19" d="M214.88,552.91c7.17,10.36,17.16,18.68,28.59,23.98,3.25,1.51,6.62,2.75,10.06,3.73,1.59.46,2.55-1.96.94-2.42-11.8-3.37-22.63-9.92-31.05-18.85-2.38-2.52-4.56-5.23-6.53-8.08-.95-1.37-2.96.27-2.01,1.63h0Z"/>
        </g>
        <path class="cls-2" d="M311.73,332.45c-2.83,3.9-6.89,21.15-7.75,29.45-1.06,10.24,2.76,19.05,19.85,45.53,17.08,26.45,18.73,26.13,21.67,33.97,6.75,18.03,3.45,34.31.58,47.64-10.95,50.77-23.74,96.58-30.2,119.03,9.07,3.08,25.63,6.12,39.24,7.67,9.6,1.1,18.28,1.23,25.72.91,12.59-38.95,18.93-72.34,22.37-96.94,5.92-42.31,8.83-65.08-2-87.14-1.58-3.22-3.89-7.31-20.52-39.14-5.2-9.95-9.46-18.14-12.3-23.6.04-6.26.07-12.52.11-18.78-17.35-2.59-39.42-16.02-56.77-18.61Z"/>
        <g>
          <path class="cls-19" d="M328.68,603.09c3.15,1.83,6.56,3.01,10.07,3.97,3.83,1.04,7.71,1.9,11.62,2.57,7.82,1.34,15.77,1.91,23.7,1.73,1.65-.04,1.94-2.62.27-2.58-7.65.18-15.32-.35-22.87-1.59-3.77-.62-7.5-1.41-11.19-2.39-3.46-.92-6.95-1.99-10.06-3.8-1.43-.83-2.98,1.25-1.53,2.09h0Z"/>
          <path class="cls-19" d="M345.24,357.02c-1.22.97-1.84,2.36-2.39,3.77-.53,1.37-1.13,2.67-1.95,3.89-1.64,2.44-3.85,4.46-6.45,5.84-1.47.78-.41,3.15,1.07,2.36,2.79-1.47,5.22-3.54,7.08-6.1.9-1.24,1.66-2.59,2.26-4,.55-1.29.88-2.84,2.02-3.75,1.31-1.04-.33-3.05-1.63-2.01h0Z"/>
          <path class="cls-19" d="M359.25,366.97c1.46,2.79,3.34,5.35,5.59,7.55.49.47,1.26.69,1.82.19.48-.42.71-1.32.19-1.82-1.07-1.04-2.07-2.17-2.97-3.37-.44-.58-.85-1.18-1.24-1.8,0,0-.18-.28-.1-.15.08.14-.08-.13-.09-.15-.1-.16-.2-.33-.29-.5-.19-.33-.37-.67-.55-1.01-.31-.6-1.07-.98-1.72-.65-.6.3-.98,1.07-.65,1.72h0Z"/>
          <path class="cls-19" d="M331.01,359.82c-1.54,16.19,5.89,31.44,14.75,44.49,9.15,13.47,20.47,25.61,27.37,40.51,3.71,8.01,5.71,16.6,6.88,25.32,1.19,8.87,1.58,17.84,1.27,26.79-.62,17.94-3.97,35.7-8.85,52.94-4.96,17.53-11.46,34.59-18.52,51.38-.87,2.06-1.74,4.12-2.63,6.18-.66,1.54,1.76,2.48,2.42.94,7.21-16.79,13.96-33.8,19.3-51.29,5.25-17.2,9.16-34.91,10.48-52.87.65-8.87.67-17.79-.06-26.65-.74-8.94-2.12-17.91-4.98-26.44-5.28-15.75-16.17-28.6-25.9-41.77-9.38-12.69-18.44-27.15-19.13-43.39-.08-1.96,0-3.92.18-5.87.16-1.66-2.42-1.93-2.58-.27h0Z"/>
        </g>
      </g>
      <g id="Woman-3" data-name="Woman">
        <g>
          <path class="cls-18" d="M384.07,374.78l-1.01-54.13s9.55-3.38,9.43-15.76c-.06-5.7-2.75-27.98-9.18-36.78-6.03-8.26-25.22-7.73-31.05-4.86-11.41,5.61-28.67,24.08-57.07,90.16l88.87,21.37Z"/>
          <g id="Woman_2" data-name="Woman 2">
            <path class="cls-15" d="M384.26,202.42c-1.74-2.39-3.56-4.82-6.79-6.33-8.13-3.78-17.55,1.89-18.06,2.2-7.28,4.52-7.18,10.33-17.77,25.46-2.61,3.72-4.91,6.65-6.42,8.52,1.08,2.54,3.31,6.85,7.64,10.9,4.31,4.03,8.75,5.96,11.35,6.88,1.08-.47,2.16-.94,3.24-1.41,0,.93-.02,1.87-.02,2.8,1.36.95,2.95,1.85,4.81,2.58,8.77,3.43,17.22.44,20.31-.85,2.96-4.75,9.65-16.89,8.27-31.93-.31-3.42-1.14-11.39-6.57-18.84Z"/>
            <ellipse class="cls-16" cx="389.36" cy="238.22" rx="16.52" ry="23.96" transform="translate(-53.48 127.58) rotate(-17.43)"/>
            <path class="cls-16" d="M391.66,259.06c-.87.6-2.08,1.58-3.17,3.08-.41.57-.86,1.29-1.73,3.22-.62,1.37-1.4,3.25-2.19,5.57-1.31-.08-2.75-.26-4.27-.61-5.8-1.33-9.91-4.42-12.28-6.6,1.07-2.05,2.16-4.42,3.14-7.11,1.36-3.75,2.18-7.21,2.67-10.16,1.15.28,2.34.65,3.56,1.13,7.15,2.79,11.71,7.89,14.28,11.48Z"/>
            <path class="cls-16" d="M377.76,239.37c1.02,3.88-.59,7.66-3.6,8.45-3.01.79-6.27-1.71-7.29-5.58-1.02-3.88.59-7.66,3.6-8.45,3.01-.79,6.27,1.71,7.29,5.58Z"/>
            <path class="cls-15" d="M403.29,224.93c-1.25,2.61-3.39,4.04-5.38,5.34-7.6,4.96-16,4.16-19.47,3.62-1.02,1.92-2.04,3.84-3.05,5.76-.87-2.82-3.22-4.3-4.86-3.88-1.89.49-2.52,3.43-2.32,5.32.29,2.72,2.38,4.29,2.8,4.59-3.19.11-7.35-.39-10.55-3.11-7.24-6.16-5.26-20.06,0-28.32,7.01-11.04,23.51-17.76,34.06-11.31,7.15,4.37,12.07,15.1,8.76,21.99Z"/>
            <path class="cls-15" d="M403.84,214.17c2.84,6.3,2.51,14.54-2.57,19.66-4.38,4.42-11.14,5.49-16.96,3.71-3.75-1.15-6.95-3.37-9.49-6.34-1.12-1.31,1.07-2.85,2.19-1.55,3.67,4.29,9.33,6.68,14.96,5.9,5.41-.75,9.58-4.61,10.68-9.98.73-3.55.16-7.17-1.31-10.45-.71-1.58,1.8-2.51,2.51-.95h0Z"/>
            <path class="cls-15" d="M400.15,235.69c.66-.04,1.31-.09,1.97-.13.09,0,.18-.01.28-.02.35-.02.72.08,1,.31.25.21.45.57.47.89.02.35-.06.73-.31,1-.23.25-.54.45-.89.47-.66.04-1.31.09-1.97.13l-.28.02c-.35.02-.72-.08-1-.31-.25-.21-.45-.57-.47-.89-.02-.35.06-.73.31-1,.23-.25.54-.45.89-.47h0Z"/>
            <path class="cls-17" d="M400.57,239c.32,4.79-1.93,8.84-5.03,9.05s-5.88-3.5-6.21-8.29,1.93-8.84,5.03-9.05c3.1-.21,5.88,3.5,6.21,8.29Z"/>
            <path class="cls-17" d="M411.28,237.51c.3,4.37-1.4,8.04-3.8,8.2-2.39.16-4.57-3.25-4.87-7.61-.3-4.37,1.4-8.04,3.8-8.2,2.39-.16,4.57,3.25,4.87,7.61Z"/>
            <path class="cls-15" d="M389.62,204.64c-2.27-6.56-6.76-12.63-13.59-14.83-3.34-1.08-7.13-1.14-10.43.14s-5.95,3.85-7.75,6.89c-2.36,3.98-3.25,8.58-4.01,13.08-.32,1.89,2.57,2.7,2.89.8,1.29-7.61,3.79-18.1,13.26-18.7,8.26-.52,14.24,6.18,16.74,13.41.63,1.81,3.53,1.03,2.89-.8h0Z"/>
            <path class="cls-15" d="M395.61,230.22c-1.58.52-3.09,1.26-4.46,2.21-.33.23-.58.5-.69.9-.1.36-.05.84.15,1.16s.51.6.9.69.83.08,1.16-.15c.92-.64,1.9-1.19,2.94-1.62l-.36.15c.38-.16.77-.3,1.16-.44.37-.12.7-.35.9-.69.19-.32.27-.8.15-1.16-.24-.74-1.05-1.31-1.85-1.05h0Z"/>
            <path class="cls-15" d="M405.73,232.11c.33.07.65.17.96.3l-.36-.15c.44.19.86.43,1.24.72l-.3-.23c.28.22.53.46.76.72.24.28.7.44,1.06.44s.81-.16,1.06-.44.46-.66.44-1.06-.17-.75-.44-1.06c-.46-.53-1.04-.98-1.64-1.34s-1.29-.63-1.98-.78c-.39-.08-.8-.06-1.16.15-.31.18-.61.54-.69.9-.09.38-.07.81.15,1.16.2.32.51.61.9.69h0Z"/>
            <ellipse class="cls-15" cx="407.82" cy="238.75" rx="1.68" ry="2.96" transform="translate(-5.95 10.46) rotate(-1.46)"/>
            <ellipse class="cls-15" cx="397.56" cy="239.01" rx="1.68" ry="2.96" transform="translate(-5.96 10.2) rotate(-1.46)"/>
          </g>
          <path class="cls-18" d="M384.57,270.93c5.88,2.37,12.2,5.21,18.81,8.63,5.62,2.91,10.77,5.89,15.44,8.82-1.09,3.97-2.44,8.2-4.1,12.61-3,7.98-6.42,14.92-9.77,20.8-5.46-3.26-10.93-6.51-16.39-9.77-2.11-7.12-4.02-16.2-4.41-26.79-.19-5.2,0-10,.42-14.3Z"/>
          <path class="cls-18" d="M369.01,263.88c1.68,1.33,3.07,3.47,3.27,14.45.21,11.53-1.12,20.35-1.49,22.74-.82,5.24-2.12,12.13-4.27,20.17-3.3-.99-6.74-1.95-10.33-2.84-11.09-2.75-21.52-4.41-30.99-5.36,2.19-14.29,6.9-25.09,10.69-32.14,7.11-13.21,12.65-16.3,16.38-17.66.47-.17,11.03-3.88,16.74.63Z"/>
          <path class="cls-12" d="M418.42,290.59c0,1.26,0,2.52,0,3.78,0,.78.69,1.54,1.5,1.5s1.5-.66,1.5-1.5c0-1.26,0-2.52,0-3.78,0-.78-.69-1.54-1.5-1.5s-1.5.66-1.5,1.5h0Z"/>
        </g>
        <g>
          <g>
            <path class="cls-16" d="M378.26,283.37c18.15,12.4,49.15,26.35,67.2,28.15,7.78.78,39.26-10.02,55.3-18.72,5.99-3.25-16.51-35.13-23.4-32.32-4.69,1.91-29.06,18.32-33.03,18.66-7.31.61-38.63-6.96-58.73-8.9-11.22-1.08-18.63,5.42-7.34,13.13Z"/>
            <path class="cls-18" d="M414.28,272.85l-1.2,36.66s-35.1-19.87-43.78-28.63c-9.76-9.86-2.59-12.69,10.6-12.74,13.19-.05,34.37,4.71,34.37,4.71Z"/>
          </g>
          <g>
            <path class="cls-12" d="M546.46,308.34c-8.96-19.44-29.92-29.61-50.06-25.81l-23.08-50.04,20.57-9.49-9.32-20.2-20.57,9.49-4.87-10.56,20.57-9.49-9.32-20.2-40.77,18.8,46.58,101c-15.97,12.85-21.83,35.39-12.87,54.83,10.57,22.92,37.81,32.96,60.73,22.39,22.92-10.57,32.96-37.81,22.39-60.73ZM483.53,337.36c-5.43-11.78-.27-25.78,11.51-31.22,11.78-5.43,25.78-.27,31.22,11.51s.27,25.78-11.51,31.22c-11.78,5.43-25.78.27-31.22-11.51Z"/>
            <path class="cls-19" d="M543.11,301.08c-8.96-19.44-29.92-29.61-50.06-25.81l-23.08-50.04,20.57-9.49-9.32-20.2-20.57,9.49-4.87-10.56,20.57-9.49-9.32-20.2-40.77,18.8,46.58,101c-15.97,12.85-21.83,35.39-12.87,54.83,10.57,22.92,37.81,32.96,60.73,22.39,22.92-10.57,32.96-37.81,22.39-60.73ZM480.19,330.1c-5.43-11.78-.27-25.78,11.51-31.22,11.78-5.43,25.78-.27,31.22,11.51,5.43,11.78.27,25.78-11.51,31.22-11.78,5.43-25.78.27-31.22-11.51Z"/>
          </g>
          <g>
            <g>
              <path class="cls-16" d="M483.28,241.79c6.83.92,17.37-1.1,21.96,1.17,4.15,2.04,3.42,6.12,3.42,6.12,0,0,4.89-2.87,8.72-.13,1.97,1.41,1.45,5.8,1.45,5.8,0,0,4.02-2.13,7.27.52,2.59,2.11,1.68,6.19,1.68,6.19,0,0,4.81-.25,6.76,2.75,3.96,6.08-11.7,30.13-22.98,28.07-5.26-.96-1.11-6.62-1.11-6.62,0,0-7.93,6.71-12.97,3.61-5.04-3.1.79-10.14.79-10.14,0,0-7.74,6.43-12.64,2.69-5.1-3.9,1.93-9.94,1.93-9.94,0,0-7.11,2.99-10.2-.74-5.11-6.15,9.53-11.03,11.72-17.14l-6.82-8.59,1.02-3.62Z"/>
              <path class="cls-16" d="M493.99,241.9c-6.39-1.44-8.59-11.94-14.5-14.19-8-3.04-6.26,9.32,2.77,17.7l8.16,5.27,3.57-8.78Z"/>
            </g>
            <path class="cls-12" d="M506.25,249.34c-5.07,7.86-11.89,14.49-19.87,19.37-1.65,1-.14,3.6,1.51,2.59,8.42-5.15,15.59-12.15,20.94-20.44,1.05-1.63-1.55-3.13-2.59-1.51h0Z"/>
            <path class="cls-12" d="M518.05,255.95c-7.12,8.53-14.81,16.57-23.02,24.05-1.43,1.3.7,3.42,2.12,2.12,8.21-7.49,15.9-15.52,23.02-24.05,1.23-1.47-.88-3.61-2.12-2.12h0Z"/>
            <path class="cls-12" d="M526.69,263.92c-3.95,7.88-9.33,14.92-15.9,20.8-1.44,1.29.69,3.41,2.12,2.12,6.74-6.03,12.32-13.33,16.37-21.41.86-1.72-1.72-3.24-2.59-1.51h0Z"/>
          </g>
          <g>
            <g>
              <path class="cls-16" d="M346.87,299.33c8.01,22.63,39.01,64.03,54.71,72.38,20.61,10.97,52.79,6.85,64.7,4.95,5.19-.83,1.7-35.67-3.02-38.71-4.73-3.04-43.54-3.03-47.59-4.13-4.06-1.1-22.59-33.73-35.49-49.5-16.28-19.89-40.09-4.13-33.31,15.02Z"/>
              <g>
                <path class="cls-16" d="M480.67,341.78c-2.51-.94-2.04-2.26,2.5-3.71,4.59-1.48,23.74-3.35,22.52-9.99-1.22-6.67-28.28-3.58-35.65-.58-7.38,2.98-18.25,10.43-18.25,10.43,5.39.46,18.34,2.82,28.89,3.85Z"/>
                <path class="cls-16" d="M452.77,377.7c15.21.74,34.11,2.58,49.33-5.4,2.98-1.57,3.92-3.96,3.92-3.96,6.88-3.46,7.32-7.75,7.32-7.75,5.43-5.19,5.27-9.63,5.27-9.63,0,0,8.04-4.15,6.34-9.42-1.89-5.92-12.81,1.07-21.16,1.24-19.14.39-46.45-4.41-51.98-4.84l.98,39.78Z"/>
              </g>
              <path class="cls-5" d="M406.62,315.84l-40.89,25.42s-21.26-35.57-21.91-47.88c-.73-13.85,20.82-28.15,31.97-15.6,8.76,9.86,30.82,38.06,30.82,38.06Z"/>
            </g>
            <path class="cls-12" d="M405.18,315.36c-11.88,7.39-23.96,14.46-36.22,21.2-1.69.93-.18,3.52,1.51,2.59,12.26-6.74,24.34-13.81,36.22-21.2,1.64-1.02.13-3.61-1.51-2.59h0Z"/>
            <path class="cls-12" d="M369.06,336.55c-9.59-9.57-18-20.23-25.07-31.79-1.01-1.64-3.6-.14-2.59,1.51,7.2,11.76,15.78,22.65,25.54,32.4,1.37,1.37,3.49-.75,2.12-2.12h0Z"/>
            <path class="cls-12" d="M381.48,283.1c-5.13-6.94-12.65-11.9-21.12-13.7-1.88-.4-2.69,2.49-.8,2.89,7.66,1.63,14.65,6.01,19.32,12.32.49.66,1.29.97,2.05.54.65-.37,1.02-1.4.54-2.05h0Z"/>
            <path class="cls-12" d="M517.28,350.21c-10.42,2.9-21.15,4.46-31.97,4.62-1.93.03-1.93,3.03,0,3,11.07-.17,22.1-1.76,32.77-4.73,1.86-.52,1.07-3.41-.8-2.89h0Z"/>
            <path class="cls-12" d="M512.35,358.93c-9.55,4.02-19.66,6.68-29.97,7.78-1.9.2-1.92,3.2,0,3,10.59-1.13,20.95-3.75,30.77-7.88.75-.32,1.27-.99,1.05-1.85-.19-.71-1.1-1.36-1.85-1.05h0Z"/>
            <path class="cls-12" d="M502.83,367.07c-6.21,3.76-13.19,6.17-20.41,6.93-.81.09-1.49.63-1.5,1.5,0,.75.7,1.59,1.5,1.5,7.76-.82,15.24-3.29,21.92-7.34,1.65-1,.14-3.59-1.51-2.59h0Z"/>
            <path class="cls-12" d="M411.68,331.98c1.33,5.71,2.66,11.42,3.99,17.12.44,1.88,3.33,1.08,2.89-.8-1.33-5.71-2.66-11.42-3.99-17.12-.44-1.88-3.33-1.08-2.89.8h0Z"/>
          </g>
        </g>
      </g>
    </g>
  </g>
</svg>