<svg xmlns="http://www.w3.org/2000/svg" viewBox="0 0 800 600"><defs><style>.cls-1{fill:#faf7f2;}.cls-2{fill:#ff577f;}.cls-3{fill:#f8d637;}.cls-4{fill:#0d9ce8;}.cls-5{fill:#010101;}</style></defs><title>mobile app design</title><g id="bg"><rect class="cls-1" width="800" height="600"/></g><g id="Layer_2" data-name="Layer 2"><circle class="cls-2" cx="291.82" cy="379.86" r="3.61" transform="translate(-185.01 334.24) rotate(-47)"/><circle class="cls-2" cx="281.87" cy="255.69" r="5.11"/><circle class="cls-3" cx="492.42" cy="108.98" r="6.9"/><rect class="cls-2" x="514.59" y="159.76" width="8.55" height="8.55" transform="translate(750.07 656.66) rotate(-132.69)"/><rect class="cls-3" x="268.65" y="297.8" width="7.69" height="7.69" transform="translate(-128.71 236.23) rotate(-38.65)"/><rect class="cls-3" x="483.2" y="236.23" width="7.69" height="7.69" transform="translate(1012.37 102.7) rotate(139.11)"/><rect class="cls-3" x="234.84" y="418.84" width="12.6" height="12.6" transform="translate(725.58 489.95) rotate(127.18)"/><circle class="cls-2" cx="520.05" cy="340.74" r="7.22" transform="matrix(1, -0.07, 0.07, 1, -22.58, 37.24)"/><polygon class="cls-4" points="531.31 124.53 527.14 115.83 521.69 123.78 531.31 124.53"/><polygon class="cls-4" points="503.32 385.42 492.18 382.25 495.01 393.49 503.32 385.42"/><polygon class="cls-4" points="251.6 363.81 250.66 352.27 241.13 358.86 251.6 363.81"/><path class="cls-1" d="M475.87,120.83V430.39a14.6,14.6,0,0,1-14.6,14.6H319.6A14.59,14.59,0,0,1,305,430.39V120.83a14.59,14.59,0,0,1,14.59-14.59H461.27A14.59,14.59,0,0,1,475.87,120.83Z"/><path class="cls-5" d="M461.27,445.74H319.6a15.36,15.36,0,0,1-15.34-15.35V120.83A15.36,15.36,0,0,1,319.6,105.5H461.27a15.36,15.36,0,0,1,15.35,15.34V430.39A15.37,15.37,0,0,1,461.27,445.74ZM319.6,107a13.85,13.85,0,0,0-13.84,13.84V430.39a13.86,13.86,0,0,0,13.84,13.85H461.27a13.87,13.87,0,0,0,13.85-13.85V120.83A13.86,13.86,0,0,0,461.27,107Z"/><rect class="cls-1" x="342.77" y="191.72" width="95.95" height="76.87"/><path class="cls-5" d="M438.72,269.33h-96a.75.75,0,0,1-.75-.75V191.72a.75.75,0,0,1,.75-.75h96a.75.75,0,0,1,.75.75v76.87A.75.75,0,0,1,438.72,269.33Zm-95.2-1.5H438V192.47H343.52Z"/><rect class="cls-1" x="332.11" y="145.32" width="116.65" height="20.14"/><path class="cls-5" d="M448.76,166.21H332.11a.75.75,0,0,1-.75-.75V145.32a.75.75,0,0,1,.75-.75H448.76a.75.75,0,0,1,.75.75v20.14A.75.75,0,0,1,448.76,166.21Zm-115.9-1.5H448V146.07H332.86Z"/><path class="cls-5" d="M475.87,422.95v7.44a14.6,14.6,0,0,1-14.6,14.6H319.6A14.59,14.59,0,0,1,305,430.39v-7.44Z"/><path class="cls-5" d="M461.27,445.74H319.6a15.36,15.36,0,0,1-15.34-15.35v-7.44a.75.75,0,0,1,.75-.75H475.87a.75.75,0,0,1,.75.75v7.44A15.37,15.37,0,0,1,461.27,445.74Zm-155.51-22v6.69a13.86,13.86,0,0,0,13.84,13.85H461.27a13.87,13.87,0,0,0,13.85-13.85V423.7Z"/><path class="cls-3" d="M354.49,238.09l-9.89,27c-4-.38-9.5.81-14.3,3.09a30,30,0,0,0-3.59,2l-9.14-9.43a32.85,32.85,0,0,0,2.6-3,27.57,27.57,0,0,0,5.49-13.23Z"/><path class="cls-5" d="M326.71,271a.75.75,0,0,1-.54-.23L317,261.33a.75.75,0,0,1,0-1,32.15,32.15,0,0,0,2.55-3,26.73,26.73,0,0,0,5.35-12.86.75.75,0,0,1,.58-.64l28.83-6.46a.75.75,0,0,1,.87,1l-9.89,27a.74.74,0,0,1-.78.49c-3.87-.37-9.2.79-13.91,3a29.46,29.46,0,0,0-3.5,2A.75.75,0,0,1,326.71,271Zm-8.1-10.19,8.21,8.47a31.82,31.82,0,0,1,3.15-1.73,31.19,31.19,0,0,1,14.12-3.2l9.23-25.22-27,6a28.37,28.37,0,0,1-5.57,13.07C320.08,259.13,319.36,260,318.61,260.8Z"/><rect class="cls-4" x="318.59" y="254.84" width="7.17" height="20.32" transform="translate(-93.59 299.1) rotate(-44.13)"/><path class="cls-5" d="M326.68,275.54a.75.75,0,0,1-.54-.23L312,260.73a.75.75,0,0,1,0-1.06l5.15-5a.75.75,0,0,1,1.06,0l14.15,14.58a.75.75,0,0,1,0,1.06l-5.15,5A.75.75,0,0,1,326.68,275.54Zm-13.09-15.32,13.1,13.51,4.07-3.95-13.1-13.51Z"/><rect class="cls-4" x="282.18" y="277.11" width="43.57" height="11.1" transform="translate(718.95 273.93) rotate(135.87)"/><path class="cls-5" d="M292.19,302.57a.75.75,0,0,1-.54-.23l-7.73-8a.75.75,0,0,1,0-1.06L315.22,263a.75.75,0,0,1,1.06,0l7.73,8a.75.75,0,0,1,0,1.06l-31.28,30.34A.75.75,0,0,1,292.19,302.57Zm-6.67-8.7,6.69,6.89,30.2-29.29-6.69-6.89Z"/><path class="cls-5" d="M335.23,256.44a.75.75,0,0,1-.51-1.3L354,237.55a.75.75,0,0,1,1,1.11l-19.29,17.59A.75.75,0,0,1,335.23,256.44Z"/><circle class="cls-1" cx="335.23" cy="255.69" r="3.78" transform="translate(-83.43 305.56) rotate(-44.13)"/><path class="cls-5" d="M335.23,260.22a4.52,4.52,0,1,1,3.15-1.27A4.51,4.51,0,0,1,335.23,260.22Zm0-7.55a3,3,0,0,0,0,6.05,3.13,3.13,0,0,0,2.15-.85,3,3,0,0,0-2.06-5.2Z"/><path class="cls-5" d="M492.42,367.18h-5a.75.75,0,0,1,0-1.5h4.25V362a.75.75,0,0,1,1.5,0v4.44A.75.75,0,0,1,492.42,367.18Zm-10,0h-5a.75.75,0,0,1,0-1.5h5a.75.75,0,0,1,0,1.5Zm-10,0h-5a.75.75,0,0,1,0-1.5h5a.75.75,0,0,1,0,1.5Zm-10,0h-5a.75.75,0,0,1,0-1.5h5a.75.75,0,0,1,0,1.5Zm-10,0h-5a.75.75,0,0,1,0-1.5h5a.75.75,0,0,1,0,1.5Zm-10,0h-5a.75.75,0,0,1,0-1.5h5a.75.75,0,0,1,0,1.5Zm-10,0h-5a.75.75,0,0,1,0-1.5h5a.75.75,0,0,1,0,1.5Zm-10,0h-5a.75.75,0,0,1,0-1.5h5a.75.75,0,0,1,0,1.5Zm-10,0h-5a.75.75,0,0,1,0-1.5h5a.75.75,0,0,1,0,1.5Zm-10,0H400a.75.75,0,0,1-.75-.75v-2.61a.75.75,0,0,1,1.5,0v1.86h1.64a.75.75,0,0,1,0,1.5ZM400,359.58a.75.75,0,0,1-.75-.75v-5a.75.75,0,0,1,1.5,0v5A.75.75,0,0,1,400,359.58Zm92.39-1.84a.75.75,0,0,1-.75-.75v-5a.75.75,0,0,1,1.5,0v5A.75.75,0,0,1,492.42,357.74ZM400,349.58a.75.75,0,0,1-.75-.75v-5a.75.75,0,0,1,1.5,0v5A.75.75,0,0,1,400,349.58Zm92.39-1.84a.75.75,0,0,1-.75-.75v-5a.75.75,0,0,1,1.5,0v5A.75.75,0,0,1,492.42,347.74ZM400,339.58a.75.75,0,0,1-.75-.75v-5a.75.75,0,0,1,1.5,0v5A.75.75,0,0,1,400,339.58Zm92.39-1.84a.75.75,0,0,1-.75-.75v-5a.75.75,0,0,1,1.5,0v5A.75.75,0,0,1,492.42,337.74Zm-4.62-5.38h-5a.75.75,0,0,1,0-1.5h5a.75.75,0,0,1,0,1.5Zm-10,0h-5a.75.75,0,0,1,0-1.5h5a.75.75,0,0,1,0,1.5Zm-10,0h-5a.75.75,0,0,1,0-1.5h5a.75.75,0,0,1,0,1.5Zm-10,0h-5a.75.75,0,0,1,0-1.5h5a.75.75,0,0,1,0,1.5Zm-10,0h-5a.75.75,0,0,1,0-1.5h5a.75.75,0,0,1,0,1.5Zm-10,0h-5a.75.75,0,0,1,0-1.5h5a.75.75,0,0,1,0,1.5Zm-10,0h-5a.75.75,0,0,1,0-1.5h5a.75.75,0,0,1,0,1.5Zm-10,0h-5a.75.75,0,0,1,0-1.5h5a.75.75,0,0,1,0,1.5Zm-10,0h-5a.75.75,0,0,1,0-1.5h5a.75.75,0,0,1,0,1.5Z"/><path class="cls-5" d="M419.91,341.49a.75.75,0,0,1-.29-.06l-7.1-3a.75.75,0,0,1,.58-1.38l6.81,2.86,6.81-2.86a.75.75,0,1,1,.58,1.38l-7.1,3A.75.75,0,0,1,419.91,341.49Z"/><path class="cls-5" d="M427,361a.74.74,0,0,1-.29-.06l-6.81-2.86L413.1,361a.75.75,0,0,1-.58-1.38l7.1-3a.75.75,0,0,1,.58,0l7.1,3A.75.75,0,0,1,427,361Z"/><path class="cls-5" d="M419.91,358a.75.75,0,0,1-.75-.75V340.74a.75.75,0,1,1,1.5,0v16.55A.75.75,0,0,1,419.91,358Z"/><path class="cls-5" d="M424.65,353.36h-9.48a.75.75,0,0,1,0-1.5h9.48a.75.75,0,0,1,0,1.5Z"/><circle class="cls-5" cx="437.72" cy="359.02" r="1.26"/><circle class="cls-5" cx="443.18" cy="359.02" r="1.26"/><circle class="cls-5" cx="448.63" cy="359.02" r="1.26"/><path class="cls-5" d="M475.87,120.83v4.7H305v-4.7a14.59,14.59,0,0,1,14.59-14.59H461.27A14.59,14.59,0,0,1,475.87,120.83Z"/><path class="cls-5" d="M475.87,126.28H305a.75.75,0,0,1-.75-.75v-4.7A15.36,15.36,0,0,1,319.6,105.5H461.27a15.36,15.36,0,0,1,15.35,15.34v4.7A.75.75,0,0,1,475.87,126.28Zm-170.11-1.5H475.12v-3.95A13.86,13.86,0,0,0,461.27,107H319.6a13.85,13.85,0,0,0-13.84,13.84Z"/><circle class="cls-1" cx="390.44" cy="433.97" r="5.01"/><rect class="cls-1" x="364.83" y="114.15" width="51.22" height="4.18" rx="1.91" ry="1.91"/><rect class="cls-3" x="348.7" y="384.46" width="83.47" height="20.93" rx="9.56" ry="9.56"/><path class="cls-5" d="M422.61,406.14H358.26A10.32,10.32,0,0,1,348,395.83V394a10.32,10.32,0,0,1,10.31-10.31h64.35A10.32,10.32,0,0,1,432.92,394v1.81A10.32,10.32,0,0,1,422.61,406.14Zm-64.35-20.93a8.82,8.82,0,0,0-8.81,8.81v1.81a8.82,8.82,0,0,0,8.81,8.81h64.35a8.82,8.82,0,0,0,8.81-8.81V394a8.82,8.82,0,0,0-8.81-8.81Z"/><path class="cls-5" d="M405.93,395.68h-31a.75.75,0,0,1,0-1.5h31a.75.75,0,0,1,0,1.5Z"/><rect class="cls-1" x="465.54" y="284.46" width="50.06" height="35.41"/><path class="cls-5" d="M515.59,320.62H465.54a.75.75,0,0,1-.75-.75V284.46a.75.75,0,0,1,.75-.75h50.05a.75.75,0,0,1,.75.75v35.41A.75.75,0,0,1,515.59,320.62Zm-49.3-1.5h48.55V285.21H466.29Z"/><path class="cls-4" d="M498,298.12a7.47,7.47,0,0,0-14.95,0h0c0,5.33,3.12,11.12,7.48,15.55,4.36-4.43,7.48-10.22,7.48-15.55Z"/><path class="cls-5" d="M490.56,314.43a.75.75,0,0,1-.54-.22c-4.81-4.9-7.69-10.91-7.69-16.08a8.22,8.22,0,0,1,16.45,0h0c0,5.17-2.87,11.18-7.69,16.08A.75.75,0,0,1,490.56,314.43Zm0-23a6.73,6.73,0,0,0-6.72,6.72c0,4.59,2.5,10,6.72,14.47,4.22-4.51,6.73-9.88,6.73-14.47h0A6.73,6.73,0,0,0,490.56,291.4Z"/><circle class="cls-1" cx="490.56" cy="298.13" r="3.52"/><path class="cls-5" d="M490.56,302.4a4.27,4.27,0,1,1,4.27-4.27A4.28,4.28,0,0,1,490.56,302.4Zm0-7a2.77,2.77,0,1,0,2.77,2.77A2.77,2.77,0,0,0,490.56,295.35Z"/><rect class="cls-1" x="281.87" y="316.78" width="72.64" height="35.83"/><path class="cls-5" d="M354.52,353.36H281.87a.75.75,0,0,1-.75-.75V316.78a.75.75,0,0,1,.75-.75h72.64a.75.75,0,0,1,.75.75v35.83A.75.75,0,0,1,354.52,353.36Zm-71.89-1.5h71.14V317.53H282.62Z"/><path class="cls-1" d="M317.52,322.36h1.34a7.11,7.11,0,0,1,7.11,7.11v10.21a0,0,0,0,1,0,0H310.42a0,0,0,0,1,0,0V329.47a7.11,7.11,0,0,1,7.11-7.11Z"/><path class="cls-5" d="M326,340.43H310.42a.75.75,0,0,1-.75-.75V329.47a7.87,7.87,0,0,1,7.86-7.86h1.34a7.86,7.86,0,0,1,7.86,7.86v10.21A.75.75,0,0,1,326,340.43Zm-14.8-1.5h14.05v-9.46a6.36,6.36,0,0,0-6.36-6.36h-1.34a6.36,6.36,0,0,0-6.36,6.36Z"/><path class="cls-2" d="M308.69,332.33h19a0,0,0,0,1,0,0V343.5a3.53,3.53,0,0,1-3.53,3.53H312.22a3.53,3.53,0,0,1-3.53-3.53V332.33A0,0,0,0,1,308.69,332.33Z"/><path class="cls-5" d="M324.17,347.78H312.22a4.29,4.29,0,0,1-4.28-4.28V332.33a.75.75,0,0,1,.75-.75h19a.75.75,0,0,1,.75.75V343.5A4.29,4.29,0,0,1,324.17,347.78Zm-14.73-14.7V343.5a2.79,2.79,0,0,0,2.78,2.78h11.95A2.79,2.79,0,0,0,327,343.5V333.08Z"/><path class="cls-5" d="M320.74,338.55a2.55,2.55,0,1,0-3.77,2.23v1.06a1.22,1.22,0,0,0,2.44,0v-1.06A2.54,2.54,0,0,0,320.74,338.55Z"/><path class="cls-5" d="M384.56,302.91H346.48a.75.75,0,0,1,0-1.5h38.08a.75.75,0,0,1,0,1.5Z"/><path class="cls-5" d="M433,289.93H346.48a.75.75,0,0,1,0-1.5H433a.75.75,0,0,1,0,1.5Z"/><rect class="cls-5" x="435.82" y="189.13" width="5.5" height="5.5"/><path class="cls-5" d="M441.32,195.38h-5.5a.75.75,0,0,1-.75-.75v-5.5a.75.75,0,0,1,.75-.75h5.5a.75.75,0,0,1,.75.75v5.5A.75.75,0,0,1,441.32,195.38Zm-4.75-1.5h4v-4h-4Z"/><rect class="cls-5" x="340.17" y="189.13" width="5.5" height="5.5"/><path class="cls-5" d="M345.67,195.38h-5.5a.75.75,0,0,1-.75-.75v-5.5a.75.75,0,0,1,.75-.75h5.5a.75.75,0,0,1,.75.75v5.5A.75.75,0,0,1,345.67,195.38Zm-4.75-1.5h4v-4h-4Z"/><rect class="cls-5" x="435.82" y="265.67" width="5.5" height="5.5"/><path class="cls-5" d="M441.32,271.92h-5.5a.75.75,0,0,1-.75-.75v-5.5a.75.75,0,0,1,.75-.75h5.5a.75.75,0,0,1,.75.75v5.5A.75.75,0,0,1,441.32,271.92Zm-4.75-1.5h4v-4h-4Z"/><rect class="cls-5" x="340.17" y="265.67" width="5.5" height="5.5"/><path class="cls-5" d="M345.67,271.92h-5.5a.75.75,0,0,1-.75-.75v-5.5a.75.75,0,0,1,.75-.75h5.5a.75.75,0,0,1,.75.75v5.5A.75.75,0,0,1,345.67,271.92Zm-4.75-1.5h4v-4h-4Z"/><rect class="cls-3" x="396.15" y="200.41" width="17.06" height="17.06"/><path class="cls-5" d="M413.21,218.22H396.15a.75.75,0,0,1-.75-.75V200.41a.75.75,0,0,1,.75-.75h17.06a.75.75,0,0,1,.75.75v17.06A.75.75,0,0,1,413.21,218.22Zm-16.31-1.5h15.56V201.16H396.9Z"/><polygon class="cls-4" points="398.17 236.26 360.52 236.26 379.35 197.12 398.17 236.26"/><path class="cls-5" d="M398.17,237H360.52a.75.75,0,0,1-.68-1.08l18.83-39.14a.78.78,0,0,1,1.35,0l18.83,39.14a.75.75,0,0,1-.68,1.08Zm-36.46-1.5H397l-17.63-36.66Z"/><polygon class="cls-1" points="505.72 132.97 501.95 142.95 503.67 152.94 486.83 141.12 505.72 132.97"/><path class="cls-5" d="M503.67,153.69a.75.75,0,0,1-.43-.14L486.4,141.73a.75.75,0,0,1,.13-1.3l18.89-8.15a.75.75,0,0,1,1,1L502.72,143l1.68,9.78a.75.75,0,0,1-.74.88Zm-15.31-12.41,14.26,10-1.41-8.2a.75.75,0,0,1,0-.39l3.14-8.33Z"/><path class="cls-5" d="M508.82,143a.75.75,0,0,1,0-1.5c2.69-.08,5.39-.09,8,0a.75.75,0,1,1,0,1.5c-2.62,0-5.3,0-8,0Z"/><path class="cls-5" d="M480.1,271.92a.75.75,0,0,1-.29-1.44c75.55-31.79,107.87-56,111.57-83.46,1-7.57-1.12-14.6-6.35-20.89-10.81-13-34.24-21.61-62.67-23a.75.75,0,0,1-.71-.79.74.74,0,0,1,.79-.71c28.84,1.43,52.68,10.24,63.75,23.56,5.51,6.63,7.76,14,6.68,22-3.78,28.1-36.37,52.62-112.48,84.64A.75.75,0,0,1,480.1,271.92Z"/><line class="cls-1" x1="486.83" y1="141.12" x2="501.95" y2="142.95"/><path class="cls-5" d="M502,143.7h-.09l-15.12-1.83a.75.75,0,0,1,.18-1.49L502,142.21a.75.75,0,0,1-.09,1.49Z"/><path class="cls-5" d="M333.18,498.67q-4.44,0-9.22-.23c-29-1.41-57.44-9.61-80.17-23.09-21.93-13-35.33-29.26-36.77-44.61-1.38-14.73,6.72-28.27,24.08-40.25S270.76,371,286.44,366.8a.75.75,0,1,1,.39,1.45c-15.57,4.17-37.73,11.62-54.88,23.46-16.88,11.65-24.76,24.73-23.44,38.88,1.39,14.87,14.53,30.71,36,43.46,22.52,13.36,50.75,21.48,79.48,22.88,27.55,1.34,46.62-3.15,56.69-13.36,6.84-6.93,9.77-16.57,9-29.48a.75.75,0,0,1,.7-.8.76.76,0,0,1,.79.7c.83,13.36-2.24,23.38-9.39,30.63C372.59,494,356.26,498.67,333.18,498.67Z"/><path class="cls-5" d="M291.82,366.95a.75.75,0,0,1-.18-1.48c2-.5,4.07-1,6.09-1.42a.75.75,0,0,1,.32,1.46c-2,.45-4,.92-6.06,1.42Z"/><circle class="cls-2" cx="396.15" cy="240.07" r="18.57"/><path class="cls-5" d="M396.15,259.39a19.32,19.32,0,1,1,19.32-19.32A19.34,19.34,0,0,1,396.15,259.39Zm0-37.14A17.82,17.82,0,1,0,414,240.07,17.84,17.84,0,0,0,396.15,222.26Z"/></g></svg>