<?xml version="1.0" encoding="UTF-8"?>
<svg xmlns="http://www.w3.org/2000/svg" xmlns:xlink="http://www.w3.org/1999/xlink" width="2000" height="2000" viewBox="0 0 2000 2000">
<defs>
<clipPath id="clip-0">
<path clip-rule="nonzero" d="M 779 1105 L 781 1105 L 781 1107 L 779 1107 Z M 779 1105 "/>
</clipPath>
<clipPath id="clip-1">
<path clip-rule="nonzero" d="M 779.683594 1105.96875 L 780.03125 1106.230469 C 779.910156 1106.128906 779.796875 1106.039062 779.679688 1105.949219 Z M 779.683594 1105.96875 "/>
</clipPath>
<clipPath id="clip-2">
<path clip-rule="nonzero" d="M 779.683594 1105.96875 L 780.03125 1106.230469 C 779.910156 1106.128906 779.796875 1106.039062 779.679688 1105.949219 L 779.683594 1105.96875 "/>
</clipPath>
<linearGradient id="linear-pattern-0" gradientUnits="userSpaceOnUse" x1="0.258555" y1="0" x2="0.258939" y2="0" gradientTransform="matrix(912.507, 0, 0, 912.507, 543.746, 1106.09)">
<stop offset="0" stop-color="rgb(32.17926%, 68.173218%, 89.862061%)" stop-opacity="1"/>
<stop offset="0.5" stop-color="rgb(32.176208%, 68.171692%, 89.860535%)" stop-opacity="1"/>
<stop offset="1" stop-color="rgb(32.173157%, 68.167114%, 89.859009%)" stop-opacity="1"/>
</linearGradient>
<clipPath id="clip-3">
<path clip-rule="nonzero" d="M 780 790 L 1457 790 L 1457 1396 L 780 1396 Z M 780 790 "/>
</clipPath>
<clipPath id="clip-4">
<path clip-rule="nonzero" d="M 1117.589844 965.980469 C 1117.589844 976.808594 1108.808594 985.589844 1097.988281 985.589844 L 1095.640625 985.589844 C 1084.808594 985.589844 1076.03125 976.808594 1076.03125 965.980469 L 1076.03125 963.628906 C 1076.03125 952.808594 1084.808594 944.019531 1095.640625 944.019531 L 1097.988281 944.019531 C 1108.808594 944.019531 1117.589844 952.808594 1117.589844 963.628906 Z M 1117.589844 1036.050781 C 1117.589844 1046.878906 1108.808594 1055.660156 1097.988281 1055.660156 L 1095.640625 1055.660156 C 1084.808594 1055.660156 1076.03125 1046.878906 1076.03125 1036.050781 L 1076.03125 1033.699219 C 1076.03125 1022.871094 1084.808594 1014.089844 1095.640625 1014.089844 L 1097.988281 1014.089844 C 1108.808594 1014.089844 1117.589844 1022.871094 1117.589844 1033.699219 Z M 1053.46875 965.980469 C 1053.46875 976.808594 1044.691406 985.589844 1033.859375 985.589844 L 1031.511719 985.589844 C 1020.679688 985.589844 1011.898438 976.808594 1011.898438 965.980469 L 1011.898438 963.628906 C 1011.898438 952.808594 1020.679688 944.019531 1031.511719 944.019531 L 1033.859375 944.019531 C 1044.691406 944.019531 1053.46875 952.808594 1053.46875 963.628906 Z M 1053.46875 1036.050781 C 1053.46875 1046.878906 1044.691406 1055.660156 1033.859375 1055.660156 L 1031.511719 1055.660156 C 1020.679688 1055.660156 1011.898438 1046.878906 1011.898438 1036.050781 L 1011.898438 1033.699219 C 1011.898438 1022.871094 1020.679688 1014.089844 1031.511719 1014.089844 L 1033.859375 1014.089844 C 1044.691406 1014.089844 1053.46875 1022.871094 1053.46875 1033.699219 Z M 989.339844 965.980469 C 989.339844 976.808594 980.558594 985.589844 969.730469 985.589844 L 967.382812 985.589844 C 956.554688 985.589844 947.773438 976.808594 947.773438 965.980469 L 947.773438 963.628906 C 947.773438 952.808594 956.554688 944.019531 967.382812 944.019531 L 969.730469 944.019531 C 980.558594 944.019531 989.339844 952.808594 989.339844 963.628906 Z M 989.339844 1036.050781 C 989.339844 1046.878906 980.558594 1055.660156 969.730469 1055.660156 L 967.382812 1055.660156 C 956.554688 1055.660156 947.773438 1046.878906 947.773438 1036.050781 L 947.773438 1033.699219 C 947.773438 1022.871094 956.554688 1014.089844 967.382812 1014.089844 L 969.730469 1014.089844 C 980.558594 1014.089844 989.339844 1022.871094 989.339844 1033.699219 Z M 925.210938 965.980469 C 925.210938 976.808594 916.429688 985.589844 905.601562 985.589844 L 903.253906 985.589844 C 892.425781 985.589844 883.644531 976.808594 883.644531 965.980469 L 883.644531 963.628906 C 883.644531 952.808594 892.425781 944.019531 903.253906 944.019531 L 905.601562 944.019531 C 916.429688 944.019531 925.210938 952.808594 925.210938 963.628906 Z M 925.210938 1036.050781 C 925.210938 1046.878906 916.429688 1055.660156 905.601562 1055.660156 L 903.253906 1055.660156 C 892.425781 1055.660156 883.644531 1046.878906 883.644531 1036.050781 L 883.644531 1033.699219 C 883.644531 1022.871094 892.425781 1014.089844 903.253906 1014.089844 L 905.601562 1014.089844 C 916.429688 1014.089844 925.210938 1022.871094 925.210938 1033.699219 Z M 861.082031 965.980469 C 861.082031 976.808594 852.304688 985.589844 841.472656 985.589844 L 839.125 985.589844 C 828.296875 985.589844 819.519531 976.808594 819.519531 965.980469 L 819.519531 963.628906 C 819.519531 952.808594 828.296875 944.019531 839.125 944.019531 L 841.472656 944.019531 C 852.304688 944.019531 861.082031 952.808594 861.082031 963.628906 Z M 861.082031 1036.050781 C 861.082031 1046.878906 852.304688 1055.660156 841.472656 1055.660156 L 839.125 1055.660156 C 828.296875 1055.660156 819.519531 1046.878906 819.519531 1036.050781 L 819.519531 1033.699219 C 819.519531 1022.871094 828.296875 1014.089844 839.125 1014.089844 L 841.472656 1014.089844 C 852.304688 1014.089844 861.082031 1022.871094 861.082031 1033.699219 Z M 1240.300781 846.050781 C 1240.300781 892.78125 1202.421875 930.671875 1155.691406 930.671875 C 1108.960938 930.671875 1071.078125 892.78125 1071.078125 846.050781 C 1071.078125 833.820312 1073.679688 822.199219 1078.351562 811.699219 L 1062.808594 830.910156 C 1062.011719 835.871094 1061.589844 840.929688 1061.589844 846.050781 C 1061.589844 870.070312 1070.539062 892.710938 1086.839844 910.179688 L 792.5 910.179688 L 792.5 1089.5 L 1144.609375 1089.5 L 1144.609375 939.5 C 1148.261719 939.929688 1151.960938 940.148438 1155.691406 940.148438 C 1163.101562 940.148438 1170.378906 939.289062 1177.421875 937.640625 L 1177.421875 1065.160156 C 1177.421875 1093.691406 1154.289062 1116.808594 1125.761719 1116.808594 L 811.355469 1116.808594 C 800 1116.808594 789.507812 1113.140625 780.980469 1106.929688 L 1168.808594 1395.378906 L 1345.5 1395.378906 C 1406.671875 1395.378906 1456.25 1345.800781 1456.25 1284.628906 L 1456.25 920.761719 L 1219.46875 790.449219 C 1232.441406 805.320312 1240.300781 824.769531 1240.300781 846.050781 Z M 1240.300781 846.050781 "/>
</clipPath>
<clipPath id="clip-5">
<path clip-rule="nonzero" d="M 1117.589844 965.980469 C 1117.589844 976.808594 1108.808594 985.589844 1097.988281 985.589844 L 1095.640625 985.589844 C 1084.808594 985.589844 1076.03125 976.808594 1076.03125 965.980469 L 1076.03125 963.628906 C 1076.03125 952.808594 1084.808594 944.019531 1095.640625 944.019531 L 1097.988281 944.019531 C 1108.808594 944.019531 1117.589844 952.808594 1117.589844 963.628906 Z M 1117.589844 1036.050781 C 1117.589844 1046.878906 1108.808594 1055.660156 1097.988281 1055.660156 L 1095.640625 1055.660156 C 1084.808594 1055.660156 1076.03125 1046.878906 1076.03125 1036.050781 L 1076.03125 1033.699219 C 1076.03125 1022.871094 1084.808594 1014.089844 1095.640625 1014.089844 L 1097.988281 1014.089844 C 1108.808594 1014.089844 1117.589844 1022.871094 1117.589844 1033.699219 Z M 1053.46875 965.980469 C 1053.46875 976.808594 1044.691406 985.589844 1033.859375 985.589844 L 1031.511719 985.589844 C 1020.679688 985.589844 1011.898438 976.808594 1011.898438 965.980469 L 1011.898438 963.628906 C 1011.898438 952.808594 1020.679688 944.019531 1031.511719 944.019531 L 1033.859375 944.019531 C 1044.691406 944.019531 1053.46875 952.808594 1053.46875 963.628906 Z M 1053.46875 1036.050781 C 1053.46875 1046.878906 1044.691406 1055.660156 1033.859375 1055.660156 L 1031.511719 1055.660156 C 1020.679688 1055.660156 1011.898438 1046.878906 1011.898438 1036.050781 L 1011.898438 1033.699219 C 1011.898438 1022.871094 1020.679688 1014.089844 1031.511719 1014.089844 L 1033.859375 1014.089844 C 1044.691406 1014.089844 1053.46875 1022.871094 1053.46875 1033.699219 Z M 989.339844 965.980469 C 989.339844 976.808594 980.558594 985.589844 969.730469 985.589844 L 967.382812 985.589844 C 956.554688 985.589844 947.773438 976.808594 947.773438 965.980469 L 947.773438 963.628906 C 947.773438 952.808594 956.554688 944.019531 967.382812 944.019531 L 969.730469 944.019531 C 980.558594 944.019531 989.339844 952.808594 989.339844 963.628906 Z M 989.339844 1036.050781 C 989.339844 1046.878906 980.558594 1055.660156 969.730469 1055.660156 L 967.382812 1055.660156 C 956.554688 1055.660156 947.773438 1046.878906 947.773438 1036.050781 L 947.773438 1033.699219 C 947.773438 1022.871094 956.554688 1014.089844 967.382812 1014.089844 L 969.730469 1014.089844 C 980.558594 1014.089844 989.339844 1022.871094 989.339844 1033.699219 Z M 925.210938 965.980469 C 925.210938 976.808594 916.429688 985.589844 905.601562 985.589844 L 903.253906 985.589844 C 892.425781 985.589844 883.644531 976.808594 883.644531 965.980469 L 883.644531 963.628906 C 883.644531 952.808594 892.425781 944.019531 903.253906 944.019531 L 905.601562 944.019531 C 916.429688 944.019531 925.210938 952.808594 925.210938 963.628906 Z M 925.210938 1036.050781 C 925.210938 1046.878906 916.429688 1055.660156 905.601562 1055.660156 L 903.253906 1055.660156 C 892.425781 1055.660156 883.644531 1046.878906 883.644531 1036.050781 L 883.644531 1033.699219 C 883.644531 1022.871094 892.425781 1014.089844 903.253906 1014.089844 L 905.601562 1014.089844 C 916.429688 1014.089844 925.210938 1022.871094 925.210938 1033.699219 Z M 861.082031 965.980469 C 861.082031 976.808594 852.304688 985.589844 841.472656 985.589844 L 839.125 985.589844 C 828.296875 985.589844 819.519531 976.808594 819.519531 965.980469 L 819.519531 963.628906 C 819.519531 952.808594 828.296875 944.019531 839.125 944.019531 L 841.472656 944.019531 C 852.304688 944.019531 861.082031 952.808594 861.082031 963.628906 Z M 861.082031 1036.050781 C 861.082031 1046.878906 852.304688 1055.660156 841.472656 1055.660156 L 839.125 1055.660156 C 828.296875 1055.660156 819.519531 1046.878906 819.519531 1036.050781 L 819.519531 1033.699219 C 819.519531 1022.871094 828.296875 1014.089844 839.125 1014.089844 L 841.472656 1014.089844 C 852.304688 1014.089844 861.082031 1022.871094 861.082031 1033.699219 Z M 1240.300781 846.050781 C 1240.300781 892.78125 1202.421875 930.671875 1155.691406 930.671875 C 1108.960938 930.671875 1071.078125 892.78125 1071.078125 846.050781 C 1071.078125 833.820312 1073.679688 822.199219 1078.351562 811.699219 L 1062.808594 830.910156 C 1062.011719 835.871094 1061.589844 840.929688 1061.589844 846.050781 C 1061.589844 870.070312 1070.539062 892.710938 1086.839844 910.179688 L 792.5 910.179688 L 792.5 1089.5 L 1144.609375 1089.5 L 1144.609375 939.5 C 1148.261719 939.929688 1151.960938 940.148438 1155.691406 940.148438 C 1163.101562 940.148438 1170.378906 939.289062 1177.421875 937.640625 L 1177.421875 1065.160156 C 1177.421875 1093.691406 1154.289062 1116.808594 1125.761719 1116.808594 L 811.355469 1116.808594 C 800 1116.808594 789.507812 1113.140625 780.980469 1106.929688 L 1168.808594 1395.378906 L 1345.5 1395.378906 C 1406.671875 1395.378906 1456.25 1345.800781 1456.25 1284.628906 L 1456.25 920.761719 L 1219.46875 790.449219 C 1232.441406 805.320312 1240.300781 824.769531 1240.300781 846.050781 "/>
</clipPath>
<linearGradient id="linear-pattern-1" gradientUnits="userSpaceOnUse" x1="-0.344155" y1="0" x2="1.878872" y2="0" gradientTransform="matrix(-310.857, -263.757, 263.757, -310.857, 1396.16, 1249.34)">
<stop offset="0" stop-color="rgb(30.856323%, 66.210938%, 88.822937%)" stop-opacity="1"/>
<stop offset="0.125" stop-color="rgb(30.856323%, 66.210938%, 88.822937%)" stop-opacity="1"/>
<stop offset="0.15625" stop-color="rgb(30.865479%, 66.22467%, 88.830566%)" stop-opacity="1"/>
<stop offset="0.171875" stop-color="rgb(30.987549%, 66.395569%, 88.920593%)" stop-opacity="1"/>
<stop offset="0.1875" stop-color="rgb(31.213379%, 66.706848%, 89.085388%)" stop-opacity="1"/>
<stop offset="0.203125" stop-color="rgb(31.436157%, 67.019653%, 89.250183%)" stop-opacity="1"/>
<stop offset="0.21875" stop-color="rgb(31.661987%, 67.333984%, 89.414978%)" stop-opacity="1"/>
<stop offset="0.234375" stop-color="rgb(31.889343%, 67.649841%, 89.579773%)" stop-opacity="1"/>
<stop offset="0.25" stop-color="rgb(32.115173%, 67.965698%, 89.744568%)" stop-opacity="1"/>
<stop offset="0.265625" stop-color="rgb(32.3349%, 68.276978%, 89.907837%)" stop-opacity="1"/>
<stop offset="0.269531" stop-color="rgb(32.255554%, 68.247986%, 89.898682%)" stop-opacity="1"/>
<stop offset="0.273438" stop-color="rgb(32.067871%, 68.06488%, 89.808655%)" stop-opacity="1"/>
<stop offset="0.277344" stop-color="rgb(31.884766%, 67.886353%, 89.720154%)" stop-opacity="1"/>
<stop offset="0.28125" stop-color="rgb(31.700134%, 67.707825%, 89.633179%)" stop-opacity="1"/>
<stop offset="0.285156" stop-color="rgb(31.517029%, 67.532349%, 89.546204%)" stop-opacity="1"/>
<stop offset="0.289062" stop-color="rgb(31.335449%, 67.355347%, 89.459229%)" stop-opacity="1"/>
<stop offset="0.292969" stop-color="rgb(31.156921%, 67.182922%, 89.373779%)" stop-opacity="1"/>
<stop offset="0.296875" stop-color="rgb(30.978394%, 67.010498%, 89.28833%)" stop-opacity="1"/>
<stop offset="0.300781" stop-color="rgb(30.804443%, 66.842651%, 89.205933%)" stop-opacity="1"/>
<stop offset="0.304688" stop-color="rgb(30.627441%, 66.673279%, 89.120483%)" stop-opacity="1"/>
<stop offset="0.308594" stop-color="rgb(30.456543%, 66.506958%, 89.039612%)" stop-opacity="1"/>
<stop offset="0.3125" stop-color="rgb(30.284119%, 66.342163%, 88.957214%)" stop-opacity="1"/>
<stop offset="0.316406" stop-color="rgb(30.114746%, 66.181946%, 88.876343%)" stop-opacity="1"/>
<stop offset="0.320312" stop-color="rgb(29.946899%, 66.020203%, 88.795471%)" stop-opacity="1"/>
<stop offset="0.328125" stop-color="rgb(29.782104%, 65.863037%, 88.717651%)" stop-opacity="1"/>
<stop offset="0.335938" stop-color="rgb(29.458618%, 65.553284%, 88.562012%)" stop-opacity="1"/>
<stop offset="0.34375" stop-color="rgb(29.144287%, 65.252686%, 88.41095%)" stop-opacity="1"/>
<stop offset="0.351562" stop-color="rgb(28.839111%, 64.962769%, 88.264465%)" stop-opacity="1"/>
<stop offset="0.359375" stop-color="rgb(28.547668%, 64.686584%, 88.12561%)" stop-opacity="1"/>
<stop offset="0.367188" stop-color="rgb(28.271484%, 64.425659%, 87.992859%)" stop-opacity="1"/>
<stop offset="0.375" stop-color="rgb(28.018188%, 64.186096%, 87.870789%)" stop-opacity="1"/>
<stop offset="0.382812" stop-color="rgb(27.806091%, 63.937378%, 87.719727%)" stop-opacity="1"/>
<stop offset="0.386719" stop-color="rgb(27.633667%, 63.519287%, 87.374878%)" stop-opacity="1"/>
<stop offset="0.390625" stop-color="rgb(27.554321%, 63.238525%, 87.12616%)" stop-opacity="1"/>
<stop offset="0.394531" stop-color="rgb(27.474976%, 62.960815%, 86.878967%)" stop-opacity="1"/>
<stop offset="0.398438" stop-color="rgb(27.394104%, 62.68158%, 86.630249%)" stop-opacity="1"/>
<stop offset="0.402344" stop-color="rgb(27.316284%, 62.402344%, 86.383057%)" stop-opacity="1"/>
<stop offset="0.40625" stop-color="rgb(27.236938%, 62.124634%, 86.135864%)" stop-opacity="1"/>
<stop offset="0.410156" stop-color="rgb(27.159119%, 61.846924%, 85.890198%)" stop-opacity="1"/>
<stop offset="0.414062" stop-color="rgb(27.079773%, 61.57074%, 85.646057%)" stop-opacity="1"/>
<stop offset="0.417969" stop-color="rgb(27.001953%, 61.294556%, 85.400391%)" stop-opacity="1"/>
<stop offset="0.421875" stop-color="rgb(26.924133%, 61.018372%, 85.15625%)" stop-opacity="1"/>
<stop offset="0.425781" stop-color="rgb(26.846313%, 60.743713%, 84.912109%)" stop-opacity="1"/>
<stop offset="0.429688" stop-color="rgb(26.77002%, 60.470581%, 84.669495%)" stop-opacity="1"/>
<stop offset="0.433594" stop-color="rgb(26.693726%, 60.195923%, 84.42688%)" stop-opacity="1"/>
<stop offset="0.4375" stop-color="rgb(26.617432%, 59.924316%, 84.185791%)" stop-opacity="1"/>
<stop offset="0.441406" stop-color="rgb(26.541138%, 59.651184%, 83.944702%)" stop-opacity="1"/>
<stop offset="0.445313" stop-color="rgb(26.464844%, 59.379578%, 83.702087%)" stop-opacity="1"/>
<stop offset="0.449219" stop-color="rgb(26.38855%, 59.109497%, 83.462524%)" stop-opacity="1"/>
<stop offset="0.453125" stop-color="rgb(26.315308%, 58.837891%, 83.222961%)" stop-opacity="1"/>
<stop offset="0.457031" stop-color="rgb(26.24054%, 58.569336%, 82.983398%)" stop-opacity="1"/>
<stop offset="0.460938" stop-color="rgb(26.164246%, 58.299255%, 82.745361%)" stop-opacity="1"/>
<stop offset="0.464844" stop-color="rgb(26.091003%, 58.030701%, 82.507324%)" stop-opacity="1"/>
<stop offset="0.46875" stop-color="rgb(26.016235%, 57.763672%, 82.269287%)" stop-opacity="1"/>
<stop offset="0.472656" stop-color="rgb(25.942993%, 57.496643%, 82.032776%)" stop-opacity="1"/>
<stop offset="0.476562" stop-color="rgb(25.869751%, 57.229614%, 81.797791%)" stop-opacity="1"/>
<stop offset="0.480469" stop-color="rgb(25.796509%, 56.964111%, 81.561279%)" stop-opacity="1"/>
<stop offset="0.484375" stop-color="rgb(25.723267%, 56.698608%, 81.326294%)" stop-opacity="1"/>
<stop offset="0.488281" stop-color="rgb(25.65155%, 56.434631%, 81.091309%)" stop-opacity="1"/>
<stop offset="0.492188" stop-color="rgb(25.578308%, 56.169128%, 80.856323%)" stop-opacity="1"/>
<stop offset="0.496094" stop-color="rgb(25.482178%, 55.961609%, 80.534363%)" stop-opacity="1"/>
<stop offset="0.5" stop-color="rgb(25.384521%, 55.752563%, 80.212402%)" stop-opacity="1"/>
<stop offset="0.503906" stop-color="rgb(25.276184%, 55.569458%, 79.850769%)" stop-opacity="1"/>
<stop offset="0.507812" stop-color="rgb(25.169373%, 55.386353%, 79.490662%)" stop-opacity="1"/>
<stop offset="0.511719" stop-color="rgb(25.062561%, 55.203247%, 79.130554%)" stop-opacity="1"/>
<stop offset="0.515625" stop-color="rgb(24.952698%, 55.020142%, 78.771973%)" stop-opacity="1"/>
<stop offset="0.519531" stop-color="rgb(24.847412%, 54.838562%, 78.414917%)" stop-opacity="1"/>
<stop offset="0.523438" stop-color="rgb(24.739075%, 54.656982%, 78.059387%)" stop-opacity="1"/>
<stop offset="0.527344" stop-color="rgb(24.632263%, 54.476929%, 77.705383%)" stop-opacity="1"/>
<stop offset="0.53125" stop-color="rgb(24.525452%, 54.296875%, 77.352905%)" stop-opacity="1"/>
<stop offset="0.535156" stop-color="rgb(24.420166%, 54.118347%, 77.000427%)" stop-opacity="1"/>
<stop offset="0.539062" stop-color="rgb(24.31488%, 53.939819%, 76.649475%)" stop-opacity="1"/>
<stop offset="0.542969" stop-color="rgb(24.209595%, 53.761292%, 76.300049%)" stop-opacity="1"/>
<stop offset="0.546875" stop-color="rgb(24.104309%, 53.582764%, 75.950623%)" stop-opacity="1"/>
<stop offset="0.550781" stop-color="rgb(23.999023%, 53.405762%, 75.604248%)" stop-opacity="1"/>
<stop offset="0.554687" stop-color="rgb(23.893738%, 53.230286%, 75.257874%)" stop-opacity="1"/>
<stop offset="0.558594" stop-color="rgb(23.789978%, 53.05481%, 74.913025%)" stop-opacity="1"/>
<stop offset="0.5625" stop-color="rgb(23.687744%, 52.877808%, 74.569702%)" stop-opacity="1"/>
<stop offset="0.566406" stop-color="rgb(23.583984%, 52.703857%, 74.226379%)" stop-opacity="1"/>
<stop offset="0.570312" stop-color="rgb(23.478699%, 52.529907%, 73.886108%)" stop-opacity="1"/>
<stop offset="0.574219" stop-color="rgb(23.376465%, 52.355957%, 73.545837%)" stop-opacity="1"/>
<stop offset="0.578125" stop-color="rgb(23.272705%, 52.180481%, 73.205566%)" stop-opacity="1"/>
<stop offset="0.582031" stop-color="rgb(23.170471%, 52.009583%, 72.868347%)" stop-opacity="1"/>
<stop offset="0.585938" stop-color="rgb(23.068237%, 51.837158%, 72.531128%)" stop-opacity="1"/>
<stop offset="0.589844" stop-color="rgb(22.966003%, 51.664734%, 72.19696%)" stop-opacity="1"/>
<stop offset="0.59375" stop-color="rgb(22.865295%, 51.493835%, 71.862793%)" stop-opacity="1"/>
<stop offset="0.597656" stop-color="rgb(22.764587%, 51.322937%, 71.528625%)" stop-opacity="1"/>
<stop offset="0.601562" stop-color="rgb(22.662354%, 51.153564%, 71.19751%)" stop-opacity="1"/>
<stop offset="0.609375" stop-color="rgb(22.622681%, 51.086426%, 71.066284%)" stop-opacity="1"/>
<stop offset="0.625" stop-color="rgb(22.583008%, 51.019287%, 70.935059%)" stop-opacity="1"/>
<stop offset="0.75" stop-color="rgb(22.583008%, 51.019287%, 70.935059%)" stop-opacity="1"/>
<stop offset="1" stop-color="rgb(22.583008%, 51.019287%, 70.935059%)" stop-opacity="1"/>
</linearGradient>
<clipPath id="clip-6">
<path clip-rule="nonzero" d="M 543 482 L 1457 482 L 1457 1396 L 543 1396 Z M 543 482 "/>
</clipPath>
<clipPath id="clip-7">
<path clip-rule="nonzero" d="M 987.574219 843.070312 C 987.574219 853.570312 979.058594 862.089844 968.554688 862.089844 C 958.054688 862.089844 949.539062 853.570312 949.539062 843.070312 L 949.539062 808.070312 C 949.539062 797.558594 958.054688 789.050781 968.554688 789.050781 C 979.058594 789.050781 987.574219 797.558594 987.574219 808.070312 Z M 883.660156 843.070312 C 883.660156 853.570312 875.148438 862.089844 864.644531 862.089844 C 854.140625 862.089844 845.628906 853.570312 845.628906 843.070312 L 845.628906 808.070312 C 845.628906 797.558594 854.140625 789.050781 864.644531 789.050781 C 875.148438 789.050781 883.660156 797.558594 883.660156 808.070312 Z M 1345.5 482.871094 L 654.5 482.871094 C 593.332031 482.871094 543.746094 532.460938 543.746094 593.621094 L 543.746094 1284.628906 C 543.746094 1345.800781 593.332031 1395.378906 654.5 1395.378906 L 1168.808594 1395.378906 L 780.980469 1106.929688 C 780.660156 1106.699219 780.34375 1106.46875 780.03125 1106.230469 L 779.683594 1105.96875 L 779.679688 1105.949219 C 767.523438 1096.5 759.695312 1081.75 759.695312 1065.160156 L 759.695312 882.570312 C 759.695312 854.039062 782.824219 830.910156 811.355469 830.910156 L 836.144531 830.910156 L 836.144531 843.070312 C 836.144531 858.78125 848.929688 871.570312 864.644531 871.570312 C 880.359375 871.570312 893.144531 858.78125 893.144531 843.070312 L 893.144531 830.910156 L 940.054688 830.910156 L 940.054688 843.070312 C 940.054688 858.78125 952.839844 871.570312 968.554688 871.570312 C 984.273438 871.570312 997.058594 858.78125 997.058594 843.070312 L 997.058594 830.910156 L 1062.808594 830.910156 L 1078.351562 811.699219 C 1091.519531 782.089844 1121.191406 761.441406 1155.691406 761.441406 C 1181.140625 761.441406 1203.960938 772.671875 1219.46875 790.449219 L 1456.25 920.761719 L 1456.25 593.621094 C 1456.25 532.460938 1406.671875 482.871094 1345.5 482.871094 Z M 1345.5 482.871094 "/>
</clipPath>
<clipPath id="clip-8">
<path clip-rule="nonzero" d="M 987.574219 843.070312 C 987.574219 853.570312 979.058594 862.089844 968.554688 862.089844 C 958.054688 862.089844 949.539062 853.570312 949.539062 843.070312 L 949.539062 808.070312 C 949.539062 797.558594 958.054688 789.050781 968.554688 789.050781 C 979.058594 789.050781 987.574219 797.558594 987.574219 808.070312 Z M 883.660156 843.070312 C 883.660156 853.570312 875.148438 862.089844 864.644531 862.089844 C 854.140625 862.089844 845.628906 853.570312 845.628906 843.070312 L 845.628906 808.070312 C 845.628906 797.558594 854.140625 789.050781 864.644531 789.050781 C 875.148438 789.050781 883.660156 797.558594 883.660156 808.070312 Z M 1345.5 482.871094 L 654.5 482.871094 C 593.332031 482.871094 543.746094 532.460938 543.746094 593.621094 L 543.746094 1284.628906 C 543.746094 1345.800781 593.332031 1395.378906 654.5 1395.378906 L 1168.808594 1395.378906 L 780.980469 1106.929688 C 780.660156 1106.699219 780.34375 1106.46875 780.03125 1106.230469 L 779.683594 1105.96875 L 779.679688 1105.949219 C 767.523438 1096.5 759.695312 1081.75 759.695312 1065.160156 L 759.695312 882.570312 C 759.695312 854.039062 782.824219 830.910156 811.355469 830.910156 L 836.144531 830.910156 L 836.144531 843.070312 C 836.144531 858.78125 848.929688 871.570312 864.644531 871.570312 C 880.359375 871.570312 893.144531 858.78125 893.144531 843.070312 L 893.144531 830.910156 L 940.054688 830.910156 L 940.054688 843.070312 C 940.054688 858.78125 952.839844 871.570312 968.554688 871.570312 C 984.273438 871.570312 997.058594 858.78125 997.058594 843.070312 L 997.058594 830.910156 L 1062.808594 830.910156 L 1078.351562 811.699219 C 1091.519531 782.089844 1121.191406 761.441406 1155.691406 761.441406 C 1181.140625 761.441406 1203.960938 772.671875 1219.46875 790.449219 L 1456.25 920.761719 L 1456.25 593.621094 C 1456.25 532.460938 1406.671875 482.871094 1345.5 482.871094 "/>
</clipPath>
<linearGradient id="linear-pattern-2" gradientUnits="userSpaceOnUse" x1="-0.020128" y1="0" x2="0.711217" y2="0" gradientTransform="matrix(-1170.42, -1316.43, 1316.43, -1170.42, 1404.43, 1394.01)">
<stop offset="0" stop-color="rgb(30.856323%, 66.210938%, 88.822937%)" stop-opacity="1"/>
<stop offset="0.0625" stop-color="rgb(30.938721%, 66.325378%, 88.883972%)" stop-opacity="1"/>
<stop offset="0.09375" stop-color="rgb(31.09436%, 66.542053%, 88.998413%)" stop-opacity="1"/>
<stop offset="0.125" stop-color="rgb(31.242371%, 66.748047%, 89.10675%)" stop-opacity="1"/>
<stop offset="0.15625" stop-color="rgb(31.388855%, 66.954041%, 89.215088%)" stop-opacity="1"/>
<stop offset="0.1875" stop-color="rgb(31.538391%, 67.16156%, 89.323425%)" stop-opacity="1"/>
<stop offset="0.21875" stop-color="rgb(31.686401%, 67.367554%, 89.431763%)" stop-opacity="1"/>
<stop offset="0.25" stop-color="rgb(31.835938%, 67.575073%, 89.5401%)" stop-opacity="1"/>
<stop offset="0.28125" stop-color="rgb(31.983948%, 67.784119%, 89.649963%)" stop-opacity="1"/>
<stop offset="0.3125" stop-color="rgb(32.131958%, 67.991638%, 89.758301%)" stop-opacity="1"/>
<stop offset="0.375" stop-color="rgb(32.240295%, 68.180847%, 89.859009%)" stop-opacity="1"/>
<stop offset="0.390625" stop-color="rgb(32.151794%, 68.147278%, 89.848328%)" stop-opacity="1"/>
<stop offset="0.40625" stop-color="rgb(31.906128%, 67.910767%, 89.732361%)" stop-opacity="1"/>
<stop offset="0.421875" stop-color="rgb(31.665039%, 67.674255%, 89.616394%)" stop-opacity="1"/>
<stop offset="0.4375" stop-color="rgb(31.427002%, 67.443848%, 89.503479%)" stop-opacity="1"/>
<stop offset="0.453125" stop-color="rgb(31.190491%, 67.214966%, 89.389038%)" stop-opacity="1"/>
<stop offset="0.46875" stop-color="rgb(30.955505%, 66.989136%, 89.277649%)" stop-opacity="1"/>
<stop offset="0.484375" stop-color="rgb(30.723572%, 66.766357%, 89.167786%)" stop-opacity="1"/>
<stop offset="0.5" stop-color="rgb(30.496216%, 66.546631%, 89.057922%)" stop-opacity="1"/>
<stop offset="0.515625" stop-color="rgb(30.270386%, 66.329956%, 88.951111%)" stop-opacity="1"/>
<stop offset="0.53125" stop-color="rgb(30.049133%, 66.116333%, 88.844299%)" stop-opacity="1"/>
<stop offset="0.546875" stop-color="rgb(29.829407%, 65.907288%, 88.739014%)" stop-opacity="1"/>
<stop offset="0.5625" stop-color="rgb(29.614258%, 65.701294%, 88.63678%)" stop-opacity="1"/>
<stop offset="0.578125" stop-color="rgb(29.402161%, 65.499878%, 88.536072%)" stop-opacity="1"/>
<stop offset="0.59375" stop-color="rgb(29.194641%, 65.301514%, 88.435364%)" stop-opacity="1"/>
<stop offset="0.609375" stop-color="rgb(28.991699%, 65.107727%, 88.337708%)" stop-opacity="1"/>
<stop offset="0.625" stop-color="rgb(28.794861%, 64.920044%, 88.243103%)" stop-opacity="1"/>
<stop offset="0.640625" stop-color="rgb(28.6026%, 64.738464%, 88.15155%)" stop-opacity="1"/>
<stop offset="0.65625" stop-color="rgb(28.416443%, 64.562988%, 88.063049%)" stop-opacity="1"/>
<stop offset="0.671875" stop-color="rgb(28.237915%, 64.393616%, 87.9776%)" stop-opacity="1"/>
<stop offset="0.6875" stop-color="rgb(28.070068%, 64.234924%, 87.895203%)" stop-opacity="1"/>
<stop offset="0.71875" stop-color="rgb(27.857971%, 64.001465%, 87.759399%)" stop-opacity="1"/>
<stop offset="0.726563" stop-color="rgb(27.700806%, 63.752747%, 87.580872%)" stop-opacity="1"/>
<stop offset="0.734375" stop-color="rgb(27.6474%, 63.566589%, 87.417603%)" stop-opacity="1"/>
<stop offset="0.742188" stop-color="rgb(27.59552%, 63.381958%, 87.252808%)" stop-opacity="1"/>
<stop offset="0.75" stop-color="rgb(27.542114%, 63.197327%, 87.089539%)" stop-opacity="1"/>
<stop offset="0.757812" stop-color="rgb(27.488708%, 63.012695%, 86.924744%)" stop-opacity="1"/>
<stop offset="0.765625" stop-color="rgb(27.436829%, 62.82959%, 86.763%)" stop-opacity="1"/>
<stop offset="0.773438" stop-color="rgb(27.384949%, 62.646484%, 86.599731%)" stop-opacity="1"/>
<stop offset="0.78125" stop-color="rgb(27.333069%, 62.461853%, 86.436462%)" stop-opacity="1"/>
<stop offset="0.789063" stop-color="rgb(27.281189%, 62.280273%, 86.274719%)" stop-opacity="1"/>
<stop offset="0.796875" stop-color="rgb(27.229309%, 62.097168%, 86.112976%)" stop-opacity="1"/>
<stop offset="0.804688" stop-color="rgb(27.177429%, 61.914062%, 85.951233%)" stop-opacity="1"/>
<stop offset="0.8125" stop-color="rgb(27.125549%, 61.732483%, 85.787964%)" stop-opacity="1"/>
<stop offset="0.820313" stop-color="rgb(27.075195%, 61.550903%, 85.627747%)" stop-opacity="1"/>
<stop offset="0.828125" stop-color="rgb(27.02179%, 61.367798%, 85.466003%)" stop-opacity="1"/>
<stop offset="0.835938" stop-color="rgb(26.971436%, 61.187744%, 85.305786%)" stop-opacity="1"/>
<stop offset="0.84375" stop-color="rgb(26.921082%, 61.006165%, 85.145569%)" stop-opacity="1"/>
<stop offset="0.851562" stop-color="rgb(26.869202%, 60.824585%, 84.983826%)" stop-opacity="1"/>
<stop offset="0.859375" stop-color="rgb(26.818848%, 60.644531%, 84.825134%)" stop-opacity="1"/>
<stop offset="0.867187" stop-color="rgb(26.768494%, 60.464478%, 84.664917%)" stop-opacity="1"/>
<stop offset="0.875" stop-color="rgb(26.71814%, 60.284424%, 84.5047%)" stop-opacity="1"/>
<stop offset="0.882813" stop-color="rgb(26.667786%, 60.10437%, 84.344482%)" stop-opacity="1"/>
<stop offset="0.890625" stop-color="rgb(26.617432%, 59.925842%, 84.185791%)" stop-opacity="1"/>
<stop offset="0.898438" stop-color="rgb(26.567078%, 59.745789%, 84.0271%)" stop-opacity="1"/>
<stop offset="0.90625" stop-color="rgb(26.516724%, 59.567261%, 83.868408%)" stop-opacity="1"/>
<stop offset="0.914062" stop-color="rgb(26.46637%, 59.388733%, 83.711243%)" stop-opacity="1"/>
<stop offset="0.921875" stop-color="rgb(26.417542%, 59.210205%, 83.552551%)" stop-opacity="1"/>
<stop offset="0.929688" stop-color="rgb(26.368713%, 59.031677%, 83.395386%)" stop-opacity="1"/>
<stop offset="0.9375" stop-color="rgb(26.318359%, 58.854675%, 83.236694%)" stop-opacity="1"/>
<stop offset="0.945312" stop-color="rgb(26.269531%, 58.676147%, 83.079529%)" stop-opacity="1"/>
<stop offset="0.953125" stop-color="rgb(26.220703%, 58.499146%, 82.922363%)" stop-opacity="1"/>
<stop offset="0.960937" stop-color="rgb(26.171875%, 58.323669%, 82.765198%)" stop-opacity="1"/>
<stop offset="0.96875" stop-color="rgb(26.121521%, 58.145142%, 82.608032%)" stop-opacity="1"/>
<stop offset="0.976563" stop-color="rgb(26.072693%, 57.969666%, 82.452393%)" stop-opacity="1"/>
<stop offset="0.984375" stop-color="rgb(26.023865%, 57.794189%, 82.296753%)" stop-opacity="1"/>
<stop offset="0.992188" stop-color="rgb(25.976562%, 57.617188%, 82.139587%)" stop-opacity="1"/>
<stop offset="1" stop-color="rgb(25.927734%, 57.441711%, 81.985474%)" stop-opacity="1"/>
</linearGradient>
<clipPath id="clip-9">
<path clip-rule="nonzero" d="M 1087 778 L 1224 778 L 1224 914 L 1087 914 Z M 1087 778 "/>
</clipPath>
<clipPath id="clip-10">
<path clip-rule="nonzero" d="M 1119.730469 841.03125 L 1149.480469 841.03125 L 1149.480469 811.269531 C 1149.480469 805.03125 1154.539062 799.980469 1160.78125 799.980469 C 1167.019531 799.980469 1172.078125 805.03125 1172.078125 811.269531 L 1172.078125 852.328125 C 1172.078125 858.570312 1167.019531 863.628906 1160.78125 863.628906 L 1119.730469 863.628906 C 1113.488281 863.628906 1108.429688 858.570312 1108.429688 852.328125 C 1108.429688 846.089844 1113.488281 841.03125 1119.730469 841.03125 Z M 1155.691406 913.96875 C 1193.199219 913.96875 1223.609375 883.558594 1223.609375 846.050781 C 1223.609375 808.539062 1193.199219 778.140625 1155.691406 778.140625 C 1118.179688 778.140625 1087.78125 808.539062 1087.78125 846.050781 C 1087.78125 883.558594 1118.179688 913.96875 1155.691406 913.96875 Z M 1155.691406 913.96875 "/>
</clipPath>
<clipPath id="clip-11">
<path clip-rule="nonzero" d="M 1119.730469 841.03125 L 1149.480469 841.03125 L 1149.480469 811.269531 C 1149.480469 805.03125 1154.539062 799.980469 1160.78125 799.980469 C 1167.019531 799.980469 1172.078125 805.03125 1172.078125 811.269531 L 1172.078125 852.328125 C 1172.078125 858.570312 1167.019531 863.628906 1160.78125 863.628906 L 1119.730469 863.628906 C 1113.488281 863.628906 1108.429688 858.570312 1108.429688 852.328125 C 1108.429688 846.089844 1113.488281 841.03125 1119.730469 841.03125 Z M 1155.691406 913.96875 C 1193.199219 913.96875 1223.609375 883.558594 1223.609375 846.050781 C 1223.609375 808.539062 1193.199219 778.140625 1155.691406 778.140625 C 1118.179688 778.140625 1087.78125 808.539062 1087.78125 846.050781 C 1087.78125 883.558594 1118.179688 913.96875 1155.691406 913.96875 "/>
</clipPath>
<linearGradient id="linear-pattern-3" gradientUnits="userSpaceOnUse" x1="0.712431" y1="0" x2="1.475834" y2="0" gradientTransform="matrix(-194.286, -157.783, 157.783, -194.286, 1368.27, 1018.69)">
<stop offset="0" stop-color="rgb(25.892639%, 57.316589%, 81.874084%)" stop-opacity="1"/>
<stop offset="0.0078125" stop-color="rgb(25.868225%, 57.225037%, 81.793213%)" stop-opacity="1"/>
<stop offset="0.015625" stop-color="rgb(25.817871%, 57.043457%, 81.63147%)" stop-opacity="1"/>
<stop offset="0.0234375" stop-color="rgb(25.767517%, 56.860352%, 81.469727%)" stop-opacity="1"/>
<stop offset="0.03125" stop-color="rgb(25.718689%, 56.678772%, 81.307983%)" stop-opacity="1"/>
<stop offset="0.0390625" stop-color="rgb(25.668335%, 56.497192%, 81.147766%)" stop-opacity="1"/>
<stop offset="0.046875" stop-color="rgb(25.617981%, 56.315613%, 80.986023%)" stop-opacity="1"/>
<stop offset="0.0546875" stop-color="rgb(25.570679%, 56.134033%, 80.825806%)" stop-opacity="1"/>
<stop offset="0.0625" stop-color="rgb(25.511169%, 55.975342%, 80.630493%)" stop-opacity="1"/>
<stop offset="0.0703125" stop-color="rgb(25.439453%, 55.84259%, 80.387878%)" stop-opacity="1"/>
<stop offset="0.078125" stop-color="rgb(25.364685%, 55.715942%, 80.13916%)" stop-opacity="1"/>
<stop offset="0.0859375" stop-color="rgb(25.289917%, 55.589294%, 79.891968%)" stop-opacity="1"/>
<stop offset="0.09375" stop-color="rgb(25.215149%, 55.464172%, 79.64325%)" stop-opacity="1"/>
<stop offset="0.101562" stop-color="rgb(25.140381%, 55.33905%, 79.396057%)" stop-opacity="1"/>
<stop offset="0.109375" stop-color="rgb(25.067139%, 55.212402%, 79.148865%)" stop-opacity="1"/>
<stop offset="0.117188" stop-color="rgb(24.993896%, 55.08728%, 78.903198%)" stop-opacity="1"/>
<stop offset="0.125" stop-color="rgb(24.919128%, 54.962158%, 78.657532%)" stop-opacity="1"/>
<stop offset="0.132812" stop-color="rgb(24.845886%, 54.838562%, 78.411865%)" stop-opacity="1"/>
<stop offset="0.140625" stop-color="rgb(24.772644%, 54.71344%, 78.16925%)" stop-opacity="1"/>
<stop offset="0.148438" stop-color="rgb(24.699402%, 54.589844%, 77.92511%)" stop-opacity="1"/>
<stop offset="0.15625" stop-color="rgb(24.62616%, 54.466248%, 77.682495%)" stop-opacity="1"/>
<stop offset="0.164062" stop-color="rgb(24.552917%, 54.342651%, 77.438354%)" stop-opacity="1"/>
<stop offset="0.171875" stop-color="rgb(24.481201%, 54.219055%, 77.197266%)" stop-opacity="1"/>
<stop offset="0.179688" stop-color="rgb(24.407959%, 54.095459%, 76.956177%)" stop-opacity="1"/>
<stop offset="0.1875" stop-color="rgb(24.334717%, 53.973389%, 76.715088%)" stop-opacity="1"/>
<stop offset="0.195312" stop-color="rgb(24.263%, 53.849792%, 76.472473%)" stop-opacity="1"/>
<stop offset="0.203125" stop-color="rgb(24.189758%, 53.727722%, 76.234436%)" stop-opacity="1"/>
<stop offset="0.210938" stop-color="rgb(24.118042%, 53.607178%, 75.994873%)" stop-opacity="1"/>
<stop offset="0.21875" stop-color="rgb(24.0448%, 53.483582%, 75.75531%)" stop-opacity="1"/>
<stop offset="0.226562" stop-color="rgb(23.973083%, 53.363037%, 75.517273%)" stop-opacity="1"/>
<stop offset="0.234375" stop-color="rgb(23.901367%, 53.240967%, 75.280762%)" stop-opacity="1"/>
<stop offset="0.242188" stop-color="rgb(23.829651%, 53.120422%, 75.04425%)" stop-opacity="1"/>
<stop offset="0.25" stop-color="rgb(23.757935%, 52.999878%, 74.806213%)" stop-opacity="1"/>
<stop offset="0.257812" stop-color="rgb(23.686218%, 52.879333%, 74.569702%)" stop-opacity="1"/>
<stop offset="0.265625" stop-color="rgb(23.616028%, 52.758789%, 74.334717%)" stop-opacity="1"/>
<stop offset="0.273438" stop-color="rgb(23.545837%, 52.639771%, 74.101257%)" stop-opacity="1"/>
<stop offset="0.28125" stop-color="rgb(23.474121%, 52.519226%, 73.866272%)" stop-opacity="1"/>
<stop offset="0.289062" stop-color="rgb(23.403931%, 52.400208%, 73.632812%)" stop-opacity="1"/>
<stop offset="0.296875" stop-color="rgb(23.332214%, 52.281189%, 73.399353%)" stop-opacity="1"/>
<stop offset="0.304688" stop-color="rgb(23.262024%, 52.16217%, 73.167419%)" stop-opacity="1"/>
<stop offset="0.3125" stop-color="rgb(23.191833%, 52.043152%, 72.935486%)" stop-opacity="1"/>
<stop offset="0.320312" stop-color="rgb(23.121643%, 51.925659%, 72.703552%)" stop-opacity="1"/>
<stop offset="0.328125" stop-color="rgb(23.051453%, 51.806641%, 72.473145%)" stop-opacity="1"/>
<stop offset="0.335938" stop-color="rgb(22.981262%, 51.689148%, 72.241211%)" stop-opacity="1"/>
<stop offset="0.34375" stop-color="rgb(22.911072%, 51.570129%, 72.012329%)" stop-opacity="1"/>
<stop offset="0.351562" stop-color="rgb(22.840881%, 51.454163%, 71.783447%)" stop-opacity="1"/>
<stop offset="0.359375" stop-color="rgb(22.770691%, 51.33667%, 71.554565%)" stop-opacity="1"/>
<stop offset="0.367188" stop-color="rgb(22.702026%, 51.219177%, 71.325684%)" stop-opacity="1"/>
<stop offset="0.375" stop-color="rgb(22.633362%, 51.10321%, 71.098328%)" stop-opacity="1"/>
<stop offset="0.5" stop-color="rgb(22.590637%, 51.03302%, 70.959473%)" stop-opacity="1"/>
<stop offset="1" stop-color="rgb(22.583008%, 51.019287%, 70.935059%)" stop-opacity="1"/>
</linearGradient>
</defs>
<g clip-path="url(#clip-0)">
<g clip-path="url(#clip-1)">
<g clip-path="url(#clip-2)">
<path fill-rule="nonzero" fill="url(#linear-pattern-0)" d="M 779.679688 1105.949219 L 779.679688 1106.230469 L 780.03125 1106.230469 L 780.03125 1105.949219 Z M 779.679688 1105.949219 "/>
</g>
</g>
</g>
<g clip-path="url(#clip-3)">
<g clip-path="url(#clip-4)">
<g clip-path="url(#clip-5)">
<path fill-rule="nonzero" fill="url(#linear-pattern-1)" d="M 1173.597656 1728.507812 L 1754.679688 1043.660156 L 1063.632812 457.320312 L 482.554688 1142.167969 Z M 1173.597656 1728.507812 "/>
</g>
</g>
</g>
<g clip-path="url(#clip-6)">
<g clip-path="url(#clip-7)">
<g clip-path="url(#clip-8)">
<path fill-rule="nonzero" fill="url(#linear-pattern-2)" d="M 946.605469 1848.496094 L 1909.371094 992.515625 L 1053.390625 29.753906 L 90.625 885.734375 Z M 946.605469 1848.496094 "/>
</g>
</g>
</g>
<g clip-path="url(#clip-9)">
<g clip-path="url(#clip-10)">
<g clip-path="url(#clip-11)">
<path fill-rule="nonzero" fill="url(#linear-pattern-3)" d="M 1169.628906 980.441406 L 1290.082031 832.121094 L 1141.761719 711.667969 L 1021.308594 859.988281 Z M 1169.628906 980.441406 "/>
</g>
</g>
</g>
</svg>
